<?xml version="1.0" encoding="UTF-8"?>
<svg xmlns="http://www.w3.org/2000/svg" xmlns:xlink="http://www.w3.org/1999/xlink" width="59.271pt" height="59.271pt" viewBox="0 0 59.271 59.271" version="1.1">
<defs>
<clipPath id="clip1">
  <path d="M 0 0 L 59.269531 0 L 59.269531 59.269531 L 0 59.269531 Z M 0 0 "/>
</clipPath>
</defs>
<g id="surface1">
<g clip-path="url(#clip1)" clip-rule="nonzero">
<path style=" stroke:none;fill-rule:nonzero;fill:rgb(0%,0%,0%);fill-opacity:1;" d="M 0 59.269531 L 0 0 L 59.273438 0 L 59.273438 59.269531 Z M 0 59.269531 "/>
<path style=" stroke:none;fill-rule:nonzero;fill:rgb(0%,0%,0%);fill-opacity:1;" d="M 0 59.269531 L 0 0 L 59.273438 0 L 59.273438 59.269531 Z M 0 59.269531 "/>
<path style="fill:none;stroke-width:0.3985;stroke-linecap:butt;stroke-linejoin:miter;stroke:rgb(100%,100%,100%);stroke-opacity:1;stroke-miterlimit:10;" d="M 18.680406 5.79125 C 18.406969 7.170156 18.086656 7.9475 17.305406 9.115469 L 18.856187 9.931875 C 18.856187 9.931875 18.856187 9.931875 18.860094 9.931875 C 18.864 9.935781 18.871812 9.939687 18.875719 9.943594 C 18.883531 9.9475 18.891344 9.951406 18.903062 9.959219 C 18.910875 9.963125 18.930406 9.974844 18.942125 9.982656 C 18.953844 9.990469 18.973375 10.002187 18.985094 10.013906 C 19.000719 10.025625 19.028062 10.045156 19.047594 10.056875 C 19.063219 10.068594 19.094469 10.092031 19.114 10.107656 C 19.133531 10.123281 19.168687 10.150625 19.188219 10.16625 C 19.211656 10.185781 19.250719 10.217031 19.278062 10.240469 C 19.3015 10.26 19.344469 10.299062 19.371812 10.3225 C 19.399156 10.349844 19.446031 10.392812 19.477281 10.420156 C 19.508531 10.4475 19.559312 10.498281 19.590562 10.529531 C 19.625719 10.564687 19.680406 10.619375 19.715562 10.658437 C 19.750719 10.693594 19.809312 10.76 19.848375 10.799062 C 19.887437 10.842031 19.949937 10.91625 19.989 10.963125 C 20.031969 11.01 20.098375 11.092031 20.141344 11.146719 C 20.184312 11.1975 20.254625 11.287344 20.297594 11.345937 C 20.344469 11.408437 20.418687 11.51 20.465562 11.576406 C 20.512437 11.642812 20.590562 11.752187 20.637437 11.826406 C 20.688219 11.900625 20.77025 12.021719 20.821031 12.10375 C 20.871812 12.185781 20.953844 12.326406 21.008531 12.41625 C 21.059312 12.506094 21.14525 12.658437 21.199937 12.76 C 21.254625 12.857656 21.344469 13.029531 21.399156 13.138906 C 21.453844 13.248281 21.598375 13.556875 21.598375 13.556875 C 21.383531 14.080312 21.196031 14.365469 20.797594 14.767812 C 20.797594 14.767812 20.453844 14.752187 20.328844 14.740469 C 20.20775 14.732656 20.02025 14.717031 19.903062 14.705312 C 19.789781 14.693594 19.617906 14.670156 19.512437 14.658437 C 19.410875 14.642812 19.250719 14.619375 19.156969 14.60375 C 19.059312 14.588125 18.910875 14.560781 18.824937 14.54125 C 18.739 14.525625 18.606187 14.498281 18.528062 14.47875 C 18.449937 14.459219 18.328844 14.431875 18.254625 14.412344 C 18.180406 14.392812 18.071031 14.361562 18.004625 14.342031 C 17.938219 14.3225 17.840562 14.29125 17.781969 14.275625 C 17.723375 14.256094 17.629625 14.224844 17.578844 14.205312 C 17.524156 14.185781 17.442125 14.154531 17.39525 14.135 C 17.344469 14.119375 17.274156 14.088125 17.227281 14.0725 C 17.184312 14.052969 17.117906 14.025625 17.08275 14.006094 C 17.043687 13.990469 16.985094 13.963125 16.949937 13.9475 C 16.918687 13.931875 16.867906 13.904531 16.836656 13.888906 C 16.805406 13.877187 16.762437 13.849844 16.735094 13.838125 C 16.711656 13.8225 16.672594 13.802969 16.653062 13.79125 C 16.629625 13.779531 16.598375 13.76 16.578844 13.748281 C 16.559312 13.736562 16.535875 13.720937 16.52025 13.709219 C 16.504625 13.701406 16.481187 13.685781 16.469469 13.677969 C 16.45775 13.670156 16.442125 13.658437 16.434312 13.654531 C 16.4265 13.646719 16.414781 13.638906 16.410875 13.635 C 16.403062 13.631094 16.39525 13.623281 16.39525 13.623281 C 16.391344 13.619375 16.391344 13.619375 16.391344 13.619375 L 15.043687 12.498281 C 14.262437 13.670156 13.672594 14.26 12.500719 15.045156 L 13.617906 16.388906 C 13.617906 16.388906 13.621812 16.392812 13.621812 16.392812 C 13.625719 16.396719 13.629625 16.404531 13.633531 16.408437 C 13.637437 16.41625 13.64525 16.424062 13.653062 16.435781 C 13.656969 16.443594 13.668687 16.459219 13.6765 16.470937 C 13.684312 16.482656 13.699937 16.502187 13.70775 16.517812 C 13.719469 16.533437 13.735094 16.560781 13.746812 16.580312 C 13.758531 16.595937 13.778062 16.631094 13.789781 16.650625 C 13.8015 16.674062 13.824937 16.709219 13.836656 16.736562 C 13.852281 16.763906 13.875719 16.806875 13.891344 16.838125 C 13.906969 16.865469 13.930406 16.91625 13.946031 16.951406 C 13.961656 16.982656 13.989 17.04125 14.008531 17.080312 C 14.024156 17.119375 14.0515 17.185781 14.071031 17.22875 C 14.086656 17.271719 14.117906 17.342031 14.137437 17.392812 C 14.153062 17.439687 14.184312 17.521719 14.203844 17.576406 C 14.223375 17.627187 14.254625 17.720937 14.274156 17.779531 C 14.293687 17.838125 14.321031 17.939687 14.340562 18.006094 C 14.360094 18.068594 14.391344 18.177969 14.410875 18.252187 C 14.430406 18.3225 14.461656 18.4475 14.477281 18.525625 C 14.496812 18.60375 14.524156 18.736562 14.543687 18.8225 C 14.559312 18.908437 14.586656 19.052969 14.602281 19.150625 C 14.617906 19.244375 14.641344 19.404531 14.656969 19.51 C 14.672594 19.615469 14.692125 19.787344 14.703844 19.900625 C 14.715562 20.013906 14.731187 20.205312 14.739 20.330312 C 14.750719 20.451406 14.766344 20.79125 14.766344 20.79125 C 14.367906 21.193594 14.086656 21.385 13.563219 21.599844 C 13.563219 21.599844 13.250719 21.455312 13.141344 21.400625 C 13.028062 21.342031 12.864 21.256094 12.762437 21.201406 C 12.660875 21.150625 12.508531 21.060781 12.418687 21.01 C 12.328844 20.955312 12.192125 20.873281 12.110094 20.8225 C 12.028062 20.771719 11.899156 20.689687 11.824937 20.638906 C 11.754625 20.592031 11.641344 20.513906 11.574937 20.467031 C 11.508531 20.420156 11.410875 20.345937 11.348375 20.299062 C 11.289781 20.256094 11.199937 20.185781 11.14525 20.142812 C 11.090562 20.099844 11.012437 20.033437 10.965562 19.990469 C 10.918687 19.951406 10.844469 19.888906 10.8015 19.849844 C 10.762437 19.810781 10.696031 19.752187 10.660875 19.717031 C 10.621812 19.681875 10.567125 19.627187 10.531969 19.592031 C 10.500719 19.560781 10.449937 19.51 10.418687 19.47875 C 10.391344 19.4475 10.348375 19.400625 10.324937 19.373281 C 10.297594 19.345937 10.262437 19.302969 10.239 19.275625 C 10.215562 19.252187 10.184312 19.213125 10.168687 19.189687 C 10.149156 19.16625 10.121812 19.131094 10.106187 19.111562 C 10.090562 19.092031 10.067125 19.064687 10.055406 19.045156 C 10.043687 19.029531 10.024156 19.002187 10.016344 18.986562 C 10.004625 18.974844 9.989 18.951406 9.981187 18.939687 C 9.973375 18.927969 9.965562 18.912344 9.95775 18.904531 C 9.953844 18.896719 9.946031 18.881094 9.942125 18.877187 C 9.938219 18.869375 9.934312 18.861562 9.934312 18.861562 C 9.930406 18.857656 9.930406 18.85375 9.930406 18.85375 L 9.114 17.306875 C 7.946031 18.088125 7.168687 18.408437 5.789781 18.681875 L 6.309312 20.35375 C 6.309312 20.35375 6.309312 20.357656 6.313219 20.361562 C 6.313219 20.361562 6.317125 20.373281 6.317125 20.377187 C 6.317125 20.385 6.321031 20.396719 6.324937 20.408437 C 6.324937 20.41625 6.33275 20.435781 6.33275 20.451406 C 6.336656 20.463125 6.340562 20.490469 6.344469 20.506094 C 6.348375 20.525625 6.352281 20.556875 6.356187 20.580312 C 6.360094 20.599844 6.364 20.635 6.367906 20.662344 C 6.371812 20.685781 6.375719 20.72875 6.379625 20.76 C 6.383531 20.787344 6.387437 20.838125 6.391344 20.869375 C 6.391344 20.904531 6.39525 20.959219 6.399156 20.998281 C 6.399156 21.037344 6.403062 21.099844 6.403062 21.142812 C 6.406969 21.181875 6.406969 21.256094 6.406969 21.299062 C 6.406969 21.345937 6.403062 21.424062 6.403062 21.47875 C 6.403062 21.529531 6.399156 21.615469 6.39525 21.674062 C 6.39525 21.72875 6.387437 21.826406 6.383531 21.888906 C 6.375719 21.951406 6.367906 22.056875 6.360094 22.123281 C 6.352281 22.189687 6.340562 22.302969 6.328844 22.377187 C 6.317125 22.451406 6.3015 22.576406 6.285875 22.654531 C 6.274156 22.736562 6.246812 22.869375 6.231187 22.955312 C 6.215562 23.04125 6.184312 23.185781 6.160875 23.279531 C 6.141344 23.377187 6.102281 23.533437 6.074937 23.635 C 6.047594 23.736562 6.000719 23.904531 5.969469 24.013906 C 5.934312 24.123281 5.879625 24.302969 5.840562 24.420156 C 5.797594 24.537344 5.684312 24.861562 5.684312 24.861562 C 5.160875 25.080312 4.83275 25.146719 4.262437 25.146719 C 4.262437 25.146719 4.031969 24.892812 3.949937 24.799062 C 3.867906 24.705312 3.746812 24.560781 3.6765 24.470937 C 3.606187 24.385 3.496812 24.244375 3.434312 24.162344 C 3.367906 24.080312 3.274156 23.951406 3.219469 23.869375 C 3.160875 23.79125 3.074937 23.670156 3.028062 23.595937 C 2.977281 23.521719 2.906969 23.408437 2.864 23.338125 C 2.821031 23.271719 2.754625 23.162344 2.715562 23.099844 C 2.680406 23.033437 2.621812 22.931875 2.590562 22.873281 C 2.555406 22.810781 2.508531 22.720937 2.481187 22.66625 C 2.449937 22.611562 2.406969 22.525625 2.383531 22.474844 C 2.360094 22.420156 2.324937 22.342031 2.3015 22.295156 C 2.281969 22.248281 2.250719 22.174062 2.231187 22.131094 C 2.215562 22.088125 2.188219 22.021719 2.172594 21.982656 C 2.156969 21.943594 2.137437 21.885 2.121812 21.849844 C 2.110094 21.814687 2.094469 21.76 2.08275 21.72875 C 2.071031 21.693594 2.059312 21.646719 2.0515 21.619375 C 2.039781 21.592031 2.028062 21.549062 2.024156 21.525625 C 2.016344 21.502187 2.008531 21.467031 2.000719 21.443594 C 1.996812 21.424062 1.989 21.392812 1.985094 21.373281 C 1.981187 21.357656 1.977281 21.330312 1.973375 21.318594 C 1.973375 21.302969 1.969469 21.287344 1.965562 21.275625 C 1.965562 21.263906 1.961656 21.252187 1.961656 21.244375 C 1.961656 21.236562 1.961656 21.22875 1.95775 21.224844 C 1.95775 21.220937 1.95775 21.220937 1.95775 21.220937 L 1.797594 19.474844 C 0.422594 19.752187 -0.421156 19.752187 -1.800063 19.474844 L -1.960219 21.220937 C -1.960219 21.220937 -1.960219 21.220937 -1.960219 21.224844 C -1.960219 21.22875 -1.960219 21.236562 -1.960219 21.244375 C -1.964125 21.252187 -1.964125 21.263906 -1.968031 21.275625 C -1.968031 21.283437 -1.971938 21.302969 -1.975844 21.318594 C -1.975844 21.330312 -1.97975 21.35375 -1.983656 21.373281 C -1.987563 21.388906 -1.995375 21.424062 -2.003188 21.443594 C -2.007094 21.467031 -2.014906 21.502187 -2.022719 21.525625 C -2.030531 21.549062 -2.04225 21.592031 -2.050063 21.619375 C -2.057875 21.646719 -2.0735 21.693594 -2.081313 21.72875 C -2.093031 21.76 -2.112563 21.814687 -2.124281 21.849844 C -2.136 21.885 -2.159438 21.943594 -2.171156 21.982656 C -2.186781 22.021719 -2.214125 22.088125 -2.233656 22.131094 C -2.249281 22.174062 -2.280531 22.244375 -2.300063 22.295156 C -2.3235 22.342031 -2.358656 22.420156 -2.382094 22.470937 C -2.405531 22.521719 -2.4485 22.607656 -2.47975 22.662344 C -2.507094 22.720937 -2.557875 22.810781 -2.589125 22.873281 C -2.620375 22.931875 -2.678969 23.033437 -2.714125 23.095937 C -2.753188 23.162344 -2.819594 23.267812 -2.862563 23.338125 C -2.905531 23.408437 -2.975844 23.521719 -3.026625 23.592031 C -3.077406 23.66625 -3.159438 23.787344 -3.214125 23.865469 C -3.272719 23.943594 -3.366469 24.076406 -3.432875 24.158437 C -3.495375 24.244375 -3.600844 24.381094 -3.675063 24.470937 C -3.745375 24.556875 -3.870375 24.705312 -3.9485 24.799062 C -4.030531 24.892812 -4.261 25.142812 -4.261 25.142812 C -4.827406 25.146719 -5.159438 25.080312 -5.682875 24.865469 C -5.682875 24.865469 -5.800063 24.54125 -5.839125 24.424062 C -5.878188 24.306875 -5.936781 24.127187 -5.968031 24.017812 C -5.999281 23.908437 -6.046156 23.736562 -6.0735 23.635 C -6.100844 23.533437 -6.139906 23.381094 -6.159438 23.287344 C -6.182875 23.193594 -6.214125 23.045156 -6.22975 22.959219 C -6.249281 22.869375 -6.272719 22.736562 -6.284438 22.658437 C -6.300063 22.576406 -6.319594 22.455312 -6.327406 22.381094 C -6.339125 22.306875 -6.35475 22.189687 -6.358656 22.123281 C -6.366469 22.056875 -6.378188 21.951406 -6.382094 21.888906 C -6.386 21.826406 -6.393813 21.732656 -6.397719 21.674062 C -6.397719 21.619375 -6.401625 21.529531 -6.405531 21.47875 C -6.405531 21.427969 -6.405531 21.349844 -6.405531 21.302969 C -6.405531 21.256094 -6.405531 21.181875 -6.405531 21.138906 C -6.401625 21.099844 -6.401625 21.037344 -6.397719 20.998281 C -6.397719 20.959219 -6.393813 20.904531 -6.389906 20.869375 C -6.386 20.838125 -6.382094 20.787344 -6.378188 20.76 C -6.378188 20.72875 -6.370375 20.685781 -6.366469 20.662344 C -6.366469 20.635 -6.358656 20.599844 -6.35475 20.580312 C -6.35475 20.556875 -6.346938 20.525625 -6.343031 20.51 C -6.343031 20.490469 -6.335219 20.463125 -6.335219 20.451406 C -6.331313 20.435781 -6.327406 20.420156 -6.3235 20.408437 C -6.3235 20.400625 -6.319594 20.385 -6.315688 20.377187 C -6.315688 20.369375 -6.311781 20.361562 -6.311781 20.361562 C -6.311781 20.357656 -6.311781 20.35375 -6.311781 20.35375 L -5.79225 18.681875 C -7.171156 18.408437 -7.944594 18.088125 -9.116469 17.306875 L -9.928969 18.85375 C -9.928969 18.85375 -9.932875 18.857656 -9.932875 18.861562 C -9.936781 18.861562 -9.940688 18.869375 -9.940688 18.877187 C -9.944594 18.881094 -9.952406 18.892812 -9.956313 18.900625 C -9.964125 18.912344 -9.975844 18.927969 -9.983656 18.939687 C -9.991469 18.951406 -10.003188 18.970937 -10.014906 18.986562 C -10.022719 19.002187 -10.04225 19.029531 -10.057875 19.045156 C -10.069594 19.064687 -10.089125 19.092031 -10.10475 19.111562 C -10.120375 19.131094 -10.147719 19.16625 -10.16725 19.189687 C -10.186781 19.213125 -10.218031 19.252187 -10.237563 19.275625 C -10.261 19.302969 -10.300063 19.345937 -10.3235 19.373281 C -10.346938 19.400625 -10.389906 19.4475 -10.421156 19.47875 C -10.4485 19.506094 -10.499281 19.560781 -10.530531 19.592031 C -10.565688 19.623281 -10.620375 19.677969 -10.659438 19.713125 C -10.694594 19.752187 -10.757094 19.810781 -10.800063 19.845937 C -10.843031 19.885 -10.913344 19.9475 -10.964125 19.990469 C -11.011 20.029531 -11.093031 20.099844 -11.143813 20.142812 C -11.1985 20.185781 -11.288344 20.252187 -11.346938 20.299062 C -11.405531 20.342031 -11.507094 20.41625 -11.5735 20.467031 C -11.639906 20.513906 -11.753188 20.588125 -11.827406 20.638906 C -11.897719 20.689687 -12.022719 20.767812 -12.10475 20.818594 C -12.186781 20.869375 -12.3235 20.955312 -12.41725 21.006094 C -12.507094 21.060781 -12.659438 21.146719 -12.757094 21.201406 C -12.858656 21.256094 -13.026625 21.342031 -13.139906 21.396719 C -13.249281 21.451406 -13.557875 21.599844 -13.557875 21.599844 C -14.081313 21.385 -14.366469 21.1975 -14.764906 20.799062 C -14.764906 20.799062 -14.749281 20.455312 -14.741469 20.330312 C -14.733656 20.205312 -14.714125 20.017812 -14.702406 19.904531 C -14.690688 19.79125 -14.671156 19.619375 -14.659438 19.513906 C -14.643813 19.408437 -14.620375 19.252187 -14.60475 19.154531 C -14.589125 19.060781 -14.561781 18.912344 -14.54225 18.826406 C -14.526625 18.736562 -14.495375 18.607656 -14.47975 18.529531 C -14.460219 18.4475 -14.428969 18.326406 -14.413344 18.256094 C -14.393813 18.181875 -14.362563 18.068594 -14.343031 18.006094 C -14.3235 17.939687 -14.29225 17.842031 -14.272719 17.779531 C -14.253188 17.720937 -14.221938 17.631094 -14.202406 17.576406 C -14.186781 17.521719 -14.155531 17.443594 -14.136 17.392812 C -14.116469 17.345937 -14.089125 17.271719 -14.069594 17.22875 C -14.053969 17.185781 -14.022719 17.119375 -14.007094 17.080312 C -13.991469 17.04125 -13.964125 16.986562 -13.9485 16.951406 C -13.928969 16.91625 -13.905531 16.865469 -13.889906 16.838125 C -13.874281 16.806875 -13.850844 16.763906 -13.839125 16.736562 C -13.8235 16.709219 -13.803969 16.674062 -13.79225 16.650625 C -13.776625 16.631094 -13.757094 16.595937 -13.749281 16.580312 C -13.737563 16.560781 -13.718031 16.533437 -13.710219 16.517812 C -13.6985 16.502187 -13.686781 16.482656 -13.678969 16.470937 C -13.671156 16.459219 -13.659438 16.443594 -13.651625 16.435781 C -13.647719 16.427969 -13.639906 16.41625 -13.636 16.408437 C -13.632094 16.404531 -13.624281 16.396719 -13.624281 16.392812 C -13.620375 16.392812 -13.620375 16.388906 -13.620375 16.388906 L -12.499281 15.045156 C -13.671156 14.26 -14.261 13.670156 -15.04225 12.498281 L -16.389906 13.619375 C -16.389906 13.619375 -16.389906 13.619375 -16.393813 13.623281 C -16.397719 13.623281 -16.405531 13.631094 -16.409438 13.635 C -16.413344 13.638906 -16.425063 13.646719 -16.432875 13.650625 C -16.440688 13.658437 -16.460219 13.670156 -16.471938 13.677969 C -16.483656 13.685781 -16.503188 13.6975 -16.518813 13.709219 C -16.530531 13.717031 -16.561781 13.736562 -16.577406 13.748281 C -16.596938 13.76 -16.628188 13.779531 -16.651625 13.79125 C -16.675063 13.802969 -16.710219 13.8225 -16.737563 13.838125 C -16.761 13.849844 -16.807875 13.877187 -16.835219 13.888906 C -16.866469 13.904531 -16.91725 13.931875 -16.952406 13.9475 C -16.983656 13.963125 -17.04225 13.990469 -17.081313 14.006094 C -17.120375 14.025625 -17.182875 14.052969 -17.225844 14.068594 C -17.268813 14.088125 -17.343031 14.115469 -17.389906 14.135 C -17.440688 14.154531 -17.522719 14.185781 -17.5735 14.205312 C -17.628188 14.224844 -17.718031 14.252187 -17.780531 14.271719 C -17.839125 14.29125 -17.940688 14.3225 -18.003188 14.342031 C -18.069594 14.361562 -18.178969 14.392812 -18.253188 14.412344 C -18.3235 14.427969 -18.444594 14.459219 -18.526625 14.47875 C -18.60475 14.494375 -18.737563 14.525625 -18.8235 14.54125 C -18.909438 14.560781 -19.053969 14.588125 -19.151625 14.60375 C -19.245375 14.619375 -19.405531 14.642812 -19.511 14.658437 C -19.616469 14.670156 -19.788344 14.693594 -19.901625 14.705312 C -20.014906 14.717031 -20.206313 14.732656 -20.327406 14.740469 C -20.452406 14.748281 -20.79225 14.763906 -20.79225 14.763906 C -21.194594 14.365469 -21.382094 14.084219 -21.600844 13.564687 C -21.600844 13.564687 -21.452406 13.252187 -21.397719 13.142812 C -21.343031 13.029531 -21.257094 12.861562 -21.202406 12.763906 C -21.147719 12.662344 -21.061781 12.51 -21.007094 12.41625 C -20.956313 12.326406 -20.874281 12.189687 -20.8235 12.107656 C -20.772719 12.025625 -20.690688 11.900625 -20.639906 11.826406 C -20.589125 11.752187 -20.514906 11.642812 -20.468031 11.576406 C -20.421156 11.51 -20.346938 11.408437 -20.300063 11.349844 C -20.257094 11.29125 -20.182875 11.1975 -20.139906 11.146719 C -20.096938 11.092031 -20.030531 11.013906 -19.991469 10.963125 C -19.952406 10.91625 -19.886 10.845937 -19.850844 10.802969 C -19.811781 10.76 -19.753188 10.6975 -19.718031 10.658437 C -19.678969 10.623281 -19.624281 10.564687 -19.593031 10.533437 C -19.561781 10.498281 -19.507094 10.4475 -19.475844 10.420156 C -19.4485 10.392812 -19.401625 10.349844 -19.374281 10.3225 C -19.346938 10.299062 -19.303969 10.26 -19.276625 10.240469 C -19.253188 10.217031 -19.214125 10.185781 -19.190688 10.16625 C -19.16725 10.150625 -19.132094 10.123281 -19.112563 10.107656 C -19.093031 10.092031 -19.061781 10.068594 -19.046156 10.056875 C -19.030531 10.04125 -19.003188 10.025625 -18.987563 10.013906 C -18.971938 10.006094 -18.952406 9.990469 -18.940688 9.982656 C -18.928969 9.974844 -18.913344 9.963125 -18.905531 9.959219 C -18.893813 9.955312 -18.882094 9.9475 -18.878188 9.943594 C -18.870375 9.939687 -18.862563 9.935781 -18.858656 9.931875 C -18.858656 9.931875 -18.85475 9.931875 -18.85475 9.931875 L -17.303969 9.115469 C -18.085219 7.9475 -18.409438 7.170156 -18.682875 5.79125 L -20.35475 6.310781 C -20.35475 6.310781 -20.35475 6.310781 -20.358656 6.310781 C -20.362563 6.310781 -20.370375 6.314687 -20.378188 6.318594 C -20.386 6.318594 -20.397719 6.3225 -20.409438 6.3225 C -20.41725 6.326406 -20.436781 6.330312 -20.452406 6.334219 C -20.464125 6.338125 -20.487563 6.342031 -20.507094 6.345937 C -20.522719 6.345937 -20.557875 6.35375 -20.577406 6.357656 C -20.600844 6.357656 -20.636 6.365469 -20.663344 6.369375 C -20.686781 6.373281 -20.72975 6.377187 -20.757094 6.381094 C -20.788344 6.381094 -20.839125 6.388906 -20.870375 6.388906 C -20.905531 6.392812 -20.960219 6.396719 -20.999281 6.396719 C -21.034438 6.400625 -21.100844 6.404531 -21.139906 6.404531 C -21.182875 6.404531 -21.253188 6.404531 -21.300063 6.404531 C -21.346938 6.404531 -21.425063 6.404531 -21.475844 6.404531 C -21.526625 6.400625 -21.616469 6.400625 -21.671156 6.396719 C -21.72975 6.392812 -21.8235 6.388906 -21.886 6.381094 C -21.9485 6.377187 -22.053969 6.369375 -22.124281 6.361562 C -22.190688 6.35375 -22.303969 6.338125 -22.378188 6.330312 C -22.452406 6.318594 -22.5735 6.299062 -22.655531 6.287344 C -22.737563 6.271719 -22.870375 6.248281 -22.956313 6.232656 C -23.04225 6.213125 -23.186781 6.185781 -23.280531 6.162344 C -23.374281 6.142812 -23.530531 6.099844 -23.632094 6.0725 C -23.733656 6.049062 -23.905531 6.002187 -24.014906 5.967031 C -24.124281 5.935781 -24.303969 5.877187 -24.421156 5.838125 C -24.538344 5.799062 -24.858656 5.685781 -24.858656 5.685781 C -25.077406 5.162344 -25.143813 4.830312 -25.147719 4.263906 C -25.147719 4.263906 -24.893813 4.033437 -24.800063 3.951406 C -24.706313 3.869375 -24.561781 3.748281 -24.471938 3.677969 C -24.386 3.60375 -24.245375 3.494375 -24.163344 3.431875 C -24.077406 3.369375 -23.9485 3.275625 -23.870375 3.217031 C -23.79225 3.162344 -23.66725 3.076406 -23.593031 3.025625 C -23.522719 2.97875 -23.409438 2.904531 -23.339125 2.861562 C -23.268813 2.818594 -23.163344 2.756094 -23.096938 2.717031 C -23.034438 2.677969 -22.932875 2.623281 -22.874281 2.588125 C -22.811781 2.556875 -22.721938 2.51 -22.66725 2.47875 C -22.612563 2.451406 -22.522719 2.408437 -22.471938 2.385 C -22.421156 2.357656 -22.343031 2.3225 -22.296156 2.302969 C -22.249281 2.283437 -22.175063 2.252187 -22.132094 2.232656 C -22.089125 2.213125 -22.022719 2.189687 -21.983656 2.174062 C -21.944594 2.158437 -21.882094 2.135 -21.846938 2.123281 C -21.811781 2.111562 -21.757094 2.092031 -21.725844 2.084219 C -21.694594 2.0725 -21.647719 2.056875 -21.620375 2.049062 C -21.593031 2.04125 -21.550063 2.029531 -21.526625 2.021719 C -21.503188 2.017812 -21.464125 2.006094 -21.444594 2.002187 C -21.425063 1.998281 -21.393813 1.990469 -21.374281 1.986562 C -21.358656 1.982656 -21.331313 1.97875 -21.319594 1.974844 C -21.303969 1.970937 -21.284438 1.967031 -21.276625 1.967031 C -21.264906 1.963125 -21.253188 1.963125 -21.245375 1.963125 C -21.237563 1.959219 -21.22975 1.959219 -21.225844 1.959219 C -21.221938 1.959219 -21.218031 1.959219 -21.218031 1.959219 L -19.475844 1.799062 C -19.749281 0.424062 -19.749281 -0.423594 -19.475844 -1.798594 L -21.218031 -1.95875 C -21.218031 -1.95875 -21.221938 -1.95875 -21.225844 -1.95875 C -21.22975 -1.95875 -21.237563 -1.95875 -21.245375 -1.962656 C -21.253188 -1.962656 -21.264906 -1.966563 -21.272719 -1.966563 C -21.284438 -1.970469 -21.303969 -1.970469 -21.319594 -1.974375 C -21.331313 -1.978281 -21.35475 -1.982188 -21.374281 -1.986094 C -21.389906 -1.99 -21.425063 -1.997813 -21.444594 -2.001719 C -21.464125 -2.005625 -21.503188 -2.017344 -21.526625 -2.02125 C -21.550063 -2.029063 -21.593031 -2.040781 -21.620375 -2.048594 C -21.647719 -2.056406 -21.694594 -2.072031 -21.725844 -2.08375 C -21.757094 -2.091563 -21.811781 -2.111094 -21.846938 -2.122813 C -21.882094 -2.134531 -21.944594 -2.157969 -21.983656 -2.173594 C -22.022719 -2.189219 -22.089125 -2.212656 -22.132094 -2.232188 C -22.175063 -2.251719 -22.245375 -2.279063 -22.29225 -2.3025 C -22.339125 -2.322031 -22.421156 -2.357188 -22.471938 -2.384531 C -22.522719 -2.407969 -22.608656 -2.450938 -22.663344 -2.478281 C -22.718031 -2.505625 -22.811781 -2.556406 -22.874281 -2.587656 C -22.932875 -2.622813 -23.030531 -2.6775 -23.096938 -2.716563 C -23.159438 -2.751719 -23.268813 -2.818125 -23.339125 -2.861094 C -23.405531 -2.904063 -23.518813 -2.978281 -23.593031 -3.025156 C -23.66725 -3.075938 -23.788344 -3.157969 -23.866469 -3.216563 C -23.944594 -3.27125 -24.077406 -3.368906 -24.159438 -3.431406 C -24.241469 -3.493906 -24.382094 -3.603281 -24.468031 -3.673594 C -24.557875 -3.743906 -24.706313 -3.868906 -24.800063 -3.950938 C -24.889906 -4.032969 -25.143813 -4.259531 -25.143813 -4.259531 C -25.143813 -4.825938 -25.081313 -5.157969 -24.866469 -5.681406 C -24.866469 -5.681406 -24.54225 -5.798594 -24.425063 -5.837656 C -24.307875 -5.876719 -24.128188 -5.935313 -24.018813 -5.966563 C -23.909438 -6.001719 -23.737563 -6.048594 -23.636 -6.075938 C -23.534438 -6.099375 -23.382094 -6.138438 -23.284438 -6.161875 C -23.190688 -6.181406 -23.046156 -6.212656 -22.956313 -6.232188 C -22.870375 -6.247813 -22.737563 -6.27125 -22.659438 -6.286875 C -22.577406 -6.298594 -22.456313 -6.318125 -22.382094 -6.329844 C -22.307875 -6.337656 -22.190688 -6.353281 -22.124281 -6.361094 C -22.053969 -6.368906 -21.952406 -6.376719 -21.889906 -6.380625 C -21.827406 -6.388438 -21.72975 -6.392344 -21.675063 -6.39625 C -21.616469 -6.400156 -21.530531 -6.404063 -21.47975 -6.404063 C -21.428969 -6.404063 -21.350844 -6.407969 -21.303969 -6.407969 C -21.257094 -6.407969 -21.182875 -6.404063 -21.139906 -6.404063 C -21.096938 -6.404063 -21.034438 -6.400156 -20.999281 -6.400156 C -20.960219 -6.39625 -20.905531 -6.392344 -20.870375 -6.388438 C -20.839125 -6.388438 -20.788344 -6.380625 -20.757094 -6.380625 C -20.72975 -6.376719 -20.686781 -6.372813 -20.663344 -6.368906 C -20.636 -6.365 -20.600844 -6.361094 -20.577406 -6.357188 C -20.557875 -6.353281 -20.526625 -6.349375 -20.507094 -6.345469 C -20.491469 -6.341563 -20.464125 -6.337656 -20.452406 -6.33375 C -20.436781 -6.329844 -20.421156 -6.325938 -20.409438 -6.325938 C -20.397719 -6.322031 -20.386 -6.318125 -20.378188 -6.318125 C -20.370375 -6.314219 -20.362563 -6.314219 -20.358656 -6.310313 C -20.35475 -6.310313 -20.35475 -6.310313 -20.35475 -6.310313 L -18.682875 -5.790781 C -18.409438 -7.169688 -18.085219 -7.947031 -17.303969 -9.115 L -18.85475 -9.931406 C -18.85475 -9.931406 -18.858656 -9.931406 -18.858656 -9.931406 C -18.862563 -9.935313 -18.870375 -9.939219 -18.878188 -9.943125 C -18.882094 -9.947031 -18.893813 -9.950938 -18.901625 -9.95875 C -18.909438 -9.962656 -18.928969 -9.974375 -18.940688 -9.982188 C -18.952406 -9.99 -18.971938 -10.001719 -18.987563 -10.013438 C -18.999281 -10.025156 -19.030531 -10.044688 -19.046156 -10.056406 C -19.065688 -10.068125 -19.093031 -10.091563 -19.112563 -10.107188 C -19.132094 -10.122813 -19.16725 -10.150156 -19.190688 -10.165781 C -19.214125 -10.185313 -19.253188 -10.216563 -19.276625 -10.24 C -19.303969 -10.259531 -19.346938 -10.298594 -19.374281 -10.322031 C -19.401625 -10.349375 -19.4485 -10.392344 -19.475844 -10.419688 C -19.507094 -10.447031 -19.557875 -10.497813 -19.593031 -10.532969 C -19.624281 -10.564219 -19.678969 -10.618906 -19.714125 -10.657969 C -19.749281 -10.697031 -19.807875 -10.759531 -19.846938 -10.8025 C -19.886 -10.841563 -19.9485 -10.915781 -19.991469 -10.962656 C -20.030531 -11.009531 -20.096938 -11.091563 -20.139906 -11.14625 C -20.182875 -11.197031 -20.253188 -11.286875 -20.300063 -11.349375 C -20.343031 -11.407969 -20.41725 -11.509531 -20.464125 -11.575938 C -20.511 -11.642344 -20.589125 -11.751719 -20.639906 -11.825938 C -20.686781 -11.900156 -20.768813 -12.02125 -20.819594 -12.103281 C -20.870375 -12.185313 -20.952406 -12.325938 -21.007094 -12.415781 C -21.061781 -12.505625 -21.147719 -12.657969 -21.202406 -12.759531 C -21.253188 -12.861094 -21.343031 -13.029063 -21.397719 -13.138438 C -21.452406 -13.251719 -21.600844 -13.560313 -21.600844 -13.560313 C -21.386 -14.079844 -21.194594 -14.365 -20.796156 -14.767344 C -20.796156 -14.767344 -20.456313 -14.751719 -20.331313 -14.74 C -20.206313 -14.732188 -20.018813 -14.716563 -19.905531 -14.704844 C -19.79225 -14.693125 -19.616469 -14.673594 -19.514906 -14.657969 C -19.409438 -14.642344 -19.249281 -14.618906 -19.155531 -14.603281 C -19.061781 -14.587656 -18.913344 -14.560313 -18.8235 -14.544688 C -18.737563 -14.525156 -18.608656 -14.497813 -18.526625 -14.478281 C -18.4485 -14.45875 -18.327406 -14.431406 -18.253188 -14.411875 C -18.182875 -14.392344 -18.069594 -14.361094 -18.003188 -14.341563 C -17.940688 -14.322031 -17.839125 -14.294688 -17.780531 -14.275156 C -17.721938 -14.255625 -17.632094 -14.224375 -17.577406 -14.204844 C -17.522719 -14.185313 -17.440688 -14.154063 -17.393813 -14.134531 C -17.346938 -14.118906 -17.272719 -14.087656 -17.22975 -14.072031 C -17.186781 -14.0525 -17.120375 -14.025156 -17.081313 -14.005625 C -17.04225 -13.99 -16.983656 -13.962656 -16.952406 -13.947031 C -16.91725 -13.931406 -16.866469 -13.904063 -16.835219 -13.892344 C -16.807875 -13.876719 -16.761 -13.849375 -16.737563 -13.837656 C -16.710219 -13.822031 -16.675063 -13.8025 -16.651625 -13.790781 C -16.628188 -13.779063 -16.596938 -13.759531 -16.577406 -13.747813 C -16.561781 -13.736094 -16.534438 -13.720469 -16.518813 -13.70875 C -16.503188 -13.700938 -16.483656 -13.685313 -16.471938 -13.6775 C -16.460219 -13.669688 -16.444594 -13.657969 -16.436781 -13.654063 C -16.428969 -13.64625 -16.413344 -13.638438 -16.409438 -13.634531 C -16.401625 -13.630625 -16.397719 -13.626719 -16.393813 -13.622813 C -16.389906 -13.618906 -16.389906 -13.618906 -16.389906 -13.618906 L -15.04225 -12.501719 C -14.261 -13.669688 -13.671156 -14.259531 -12.499281 -15.044688 L -13.620375 -16.388438 C -13.620375 -16.388438 -13.620375 -16.392344 -13.624281 -16.39625 C -13.624281 -16.39625 -13.632094 -16.404063 -13.636 -16.407969 C -13.639906 -16.415781 -13.647719 -16.423594 -13.651625 -16.435313 C -13.659438 -16.443125 -13.671156 -16.45875 -13.678969 -16.470469 C -13.686781 -16.482188 -13.6985 -16.501719 -13.710219 -16.517344 C -13.718031 -16.532969 -13.737563 -16.560313 -13.749281 -16.579844 C -13.757094 -16.599375 -13.776625 -16.630625 -13.79225 -16.650156 C -13.803969 -16.673594 -13.8235 -16.712656 -13.839125 -16.736094 C -13.850844 -16.763438 -13.874281 -16.806406 -13.889906 -16.837656 C -13.905531 -16.865 -13.928969 -16.915781 -13.9485 -16.950938 C -13.964125 -16.986094 -13.991469 -17.040781 -14.007094 -17.079844 C -14.022719 -17.118906 -14.053969 -17.185313 -14.069594 -17.228281 C -14.089125 -17.27125 -14.116469 -17.341563 -14.136 -17.392344 C -14.155531 -17.439219 -14.186781 -17.52125 -14.202406 -17.575938 C -14.221938 -17.630625 -14.253188 -17.720469 -14.272719 -17.779063 C -14.29225 -17.837656 -14.3235 -17.939219 -14.343031 -18.005625 C -14.362563 -18.068125 -14.393813 -18.181406 -14.409438 -18.251719 C -14.428969 -18.325938 -14.460219 -18.447031 -14.47975 -18.525156 C -14.495375 -18.603281 -14.522719 -18.736094 -14.54225 -18.822031 C -14.557875 -18.907969 -14.585219 -19.056406 -14.60475 -19.150156 C -14.620375 -19.243906 -14.643813 -19.407969 -14.655531 -19.509531 C -14.671156 -19.615 -14.690688 -19.786875 -14.702406 -19.900156 C -14.714125 -20.013438 -14.733656 -20.204844 -14.741469 -20.329844 C -14.749281 -20.450938 -14.764906 -20.790781 -14.764906 -20.790781 C -14.366469 -21.193125 -14.085219 -21.384531 -13.565688 -21.603281 C -13.565688 -21.603281 -13.253188 -21.454844 -13.139906 -21.400156 C -13.030531 -21.345469 -12.862563 -21.255625 -12.761 -21.204844 C -12.663344 -21.150156 -12.507094 -21.060313 -12.41725 -21.009531 C -12.327406 -20.954844 -12.190688 -20.872813 -12.108656 -20.822031 C -12.026625 -20.77125 -11.901625 -20.689219 -11.827406 -20.638438 C -11.753188 -20.591563 -11.643813 -20.513438 -11.577406 -20.466563 C -11.511 -20.419688 -11.409438 -20.345469 -11.350844 -20.3025 C -11.288344 -20.255625 -11.1985 -20.185313 -11.143813 -20.142344 C -11.093031 -20.099375 -11.011 -20.032969 -10.964125 -19.99 C -10.91725 -19.950938 -10.846938 -19.888438 -10.803969 -19.849375 C -10.761 -19.810313 -10.6985 -19.751719 -10.659438 -19.716563 C -10.620375 -19.681406 -10.565688 -19.626719 -10.534438 -19.591563 C -10.499281 -19.560313 -10.4485 -19.509531 -10.421156 -19.478281 C -10.389906 -19.447031 -10.346938 -19.400156 -10.3235 -19.372813 C -10.300063 -19.345469 -10.261 -19.3025 -10.237563 -19.275156 C -10.218031 -19.251719 -10.186781 -19.212656 -10.16725 -19.189219 C -10.147719 -19.165781 -10.120375 -19.134531 -10.10475 -19.111094 C -10.089125 -19.091563 -10.069594 -19.064219 -10.053969 -19.044688 C -10.04225 -19.029063 -10.026625 -19.001719 -10.014906 -18.99 C -10.003188 -18.974375 -9.991469 -18.950938 -9.983656 -18.939219 C -9.975844 -18.9275 -9.964125 -18.911875 -9.960219 -18.904063 C -9.952406 -18.89625 -9.944594 -18.884531 -9.940688 -18.876719 C -9.936781 -18.868906 -9.936781 -18.865 -9.932875 -18.861094 C -9.932875 -18.857188 -9.928969 -18.853281 -9.928969 -18.853281 L -9.116469 -17.306406 C -7.944594 -18.087656 -7.171156 -18.407969 -5.79225 -18.681406 L -6.307875 -20.353281 C -6.307875 -20.353281 -6.311781 -20.357188 -6.311781 -20.361094 C -6.311781 -20.365 -6.315688 -20.372813 -6.315688 -20.376719 C -6.319594 -20.384531 -6.319594 -20.39625 -6.3235 -20.407969 C -6.327406 -20.415781 -6.331313 -20.439219 -6.335219 -20.450938 C -6.335219 -20.466563 -6.339125 -20.49 -6.343031 -20.505625 C -6.346938 -20.525156 -6.350844 -20.556406 -6.35475 -20.579844 C -6.358656 -20.599375 -6.366469 -20.638438 -6.366469 -20.661875 C -6.370375 -20.685313 -6.378188 -20.728281 -6.378188 -20.759531 C -6.382094 -20.786875 -6.386 -20.837656 -6.389906 -20.872813 C -6.393813 -20.904063 -6.397719 -20.962656 -6.397719 -20.997813 C -6.401625 -21.036875 -6.401625 -21.099375 -6.405531 -21.142344 C -6.405531 -21.181406 -6.405531 -21.255625 -6.405531 -21.3025 C -6.405531 -21.345469 -6.405531 -21.423594 -6.405531 -21.478281 C -6.401625 -21.529063 -6.401625 -21.615 -6.397719 -21.673594 C -6.393813 -21.728281 -6.386 -21.825938 -6.382094 -21.888438 C -6.378188 -21.950938 -6.366469 -22.056406 -6.358656 -22.122813 C -6.35475 -22.189219 -6.339125 -22.3025 -6.327406 -22.376719 C -6.319594 -22.450938 -6.300063 -22.575938 -6.284438 -22.654063 C -6.272719 -22.736094 -6.249281 -22.868906 -6.22975 -22.954844 C -6.214125 -23.040781 -6.182875 -23.185313 -6.163344 -23.282969 C -6.139906 -23.376719 -6.100844 -23.532969 -6.0735 -23.634531 C -6.046156 -23.736094 -5.999281 -23.904063 -5.968031 -24.013438 C -5.936781 -24.122813 -5.878188 -24.3025 -5.839125 -24.419688 C -5.800063 -24.540781 -5.682875 -24.861094 -5.682875 -24.861094 C -5.159438 -25.079844 -4.831313 -25.14625 -4.264906 -25.14625 C -4.264906 -25.14625 -4.034438 -24.892344 -3.952406 -24.798594 C -3.870375 -24.704844 -3.749281 -24.560313 -3.675063 -24.474375 C -3.60475 -24.384531 -3.495375 -24.243906 -3.432875 -24.161875 C -3.370375 -24.079844 -3.272719 -23.950938 -3.218031 -23.872813 C -3.163344 -23.790781 -3.077406 -23.669688 -3.026625 -23.595469 C -2.97975 -23.52125 -2.905531 -23.407969 -2.862563 -23.337656 C -2.819594 -23.27125 -2.753188 -23.161875 -2.718031 -23.099375 C -2.678969 -23.032969 -2.620375 -22.931406 -2.589125 -22.872813 C -2.557875 -22.814219 -2.507094 -22.720469 -2.47975 -22.665781 C -2.452406 -22.611094 -2.409438 -22.525156 -2.386 -22.474375 C -2.358656 -22.419688 -2.3235 -22.341563 -2.303969 -22.294688 C -2.280531 -22.247813 -2.249281 -22.1775 -2.233656 -22.130625 C -2.214125 -22.087656 -2.186781 -22.02125 -2.171156 -21.982188 C -2.159438 -21.943125 -2.136 -21.884531 -2.124281 -21.849375 C -2.112563 -21.814219 -2.093031 -21.759531 -2.081313 -21.728281 C -2.0735 -21.697031 -2.057875 -21.64625 -2.050063 -21.618906 C -2.04225 -21.591563 -2.030531 -21.548594 -2.022719 -21.525156 C -2.014906 -21.501719 -2.007094 -21.466563 -2.003188 -21.443125 C -1.995375 -21.423594 -1.991469 -21.392344 -1.987563 -21.376719 C -1.983656 -21.357188 -1.975844 -21.33375 -1.975844 -21.318125 C -1.971938 -21.306406 -1.968031 -21.286875 -1.968031 -21.275156 C -1.964125 -21.267344 -1.964125 -21.251719 -1.960219 -21.243906 C -1.960219 -21.236094 -1.960219 -21.228281 -1.960219 -21.224375 C -1.960219 -21.220469 -1.960219 -21.220469 -1.960219 -21.220469 L -1.800063 -19.478281 C -0.421156 -19.751719 0.422594 -19.751719 1.797594 -19.478281 L 1.95775 -21.220469 C 1.95775 -21.220469 1.95775 -21.220469 1.95775 -21.224375 C 1.95775 -21.228281 1.961656 -21.236094 1.961656 -21.243906 C 1.961656 -21.251719 1.965562 -21.263438 1.965562 -21.275156 C 1.969469 -21.282969 1.973375 -21.306406 1.973375 -21.318125 C 1.977281 -21.33375 1.981187 -21.357188 1.985094 -21.372813 C 1.989 -21.392344 1.996812 -21.423594 2.000719 -21.443125 C 2.008531 -21.466563 2.016344 -21.501719 2.024156 -21.525156 C 2.028062 -21.548594 2.039781 -21.591563 2.047594 -21.618906 C 2.059312 -21.64625 2.071031 -21.697031 2.08275 -21.728281 C 2.094469 -21.759531 2.110094 -21.814219 2.121812 -21.849375 C 2.137437 -21.884531 2.156969 -21.943125 2.172594 -21.982188 C 2.188219 -22.02125 2.215562 -22.087656 2.231187 -22.130625 C 2.250719 -22.173594 2.281969 -22.247813 2.3015 -22.294688 C 2.321031 -22.341563 2.360094 -22.419688 2.383531 -22.470469 C 2.406969 -22.52125 2.449937 -22.607188 2.477281 -22.661875 C 2.508531 -22.720469 2.555406 -22.814219 2.590562 -22.872813 C 2.621812 -22.931406 2.6765 -23.032969 2.715562 -23.095469 C 2.754625 -23.161875 2.817125 -23.267344 2.860094 -23.337656 C 2.903062 -23.407969 2.977281 -23.52125 3.028062 -23.595469 C 3.074937 -23.665781 3.156969 -23.786875 3.215562 -23.868906 C 3.27025 -23.947031 3.367906 -24.075938 3.430406 -24.157969 C 3.496812 -24.243906 3.602281 -24.380625 3.672594 -24.470469 C 3.746812 -24.556406 3.867906 -24.704844 3.949937 -24.798594 C 4.031969 -24.892344 4.258531 -25.142344 4.258531 -25.142344 C 4.824937 -25.14625 5.160875 -25.079844 5.680406 -24.865 C 5.680406 -24.865 5.797594 -24.540781 5.840562 -24.423594 C 5.879625 -24.306406 5.934312 -24.126719 5.969469 -24.017344 C 6.000719 -23.907969 6.047594 -23.736094 6.074937 -23.634531 C 6.102281 -23.536875 6.137437 -23.380625 6.160875 -23.286875 C 6.184312 -23.193125 6.215562 -23.044688 6.231187 -22.95875 C 6.250719 -22.868906 6.27025 -22.736094 6.285875 -22.657969 C 6.297594 -22.575938 6.317125 -22.454844 6.328844 -22.380625 C 6.340562 -22.306406 6.352281 -22.189219 6.360094 -22.122813 C 6.367906 -22.056406 6.375719 -21.950938 6.383531 -21.888438 C 6.387437 -21.825938 6.391344 -21.732188 6.39525 -21.673594 C 6.399156 -21.618906 6.403062 -21.529063 6.403062 -21.478281 C 6.406969 -21.4275 6.406969 -21.349375 6.406969 -21.3025 C 6.406969 -21.255625 6.406969 -21.181406 6.403062 -21.142344 C 6.403062 -21.099375 6.399156 -21.036875 6.399156 -20.997813 C 6.39525 -20.962656 6.391344 -20.904063 6.391344 -20.872813 C 6.387437 -20.837656 6.383531 -20.786875 6.379625 -20.759531 C 6.375719 -20.728281 6.371812 -20.685313 6.367906 -20.661875 C 6.364 -20.638438 6.360094 -20.599375 6.356187 -20.579844 C 6.352281 -20.556406 6.348375 -20.525156 6.344469 -20.509531 C 6.340562 -20.49 6.336656 -20.466563 6.33275 -20.450938 C 6.328844 -20.439219 6.324937 -20.419688 6.324937 -20.407969 C 6.321031 -20.400156 6.317125 -20.384531 6.317125 -20.376719 C 6.317125 -20.372813 6.313219 -20.365 6.313219 -20.361094 C 6.309312 -20.357188 6.309312 -20.353281 6.309312 -20.353281 L 5.789781 -18.681406 C 7.168687 -18.407969 7.946031 -18.087656 9.114 -17.306406 L 9.930406 -18.853281 C 9.930406 -18.853281 9.930406 -18.857188 9.934312 -18.861094 C 9.934312 -18.865 9.938219 -18.872813 9.942125 -18.876719 C 9.946031 -18.880625 9.953844 -18.892344 9.95775 -18.900156 C 9.961656 -18.911875 9.973375 -18.9275 9.981187 -18.939219 C 9.989 -18.950938 10.004625 -18.970469 10.012437 -18.986094 C 10.024156 -19.001719 10.043687 -19.029063 10.055406 -19.044688 C 10.067125 -19.064219 10.090562 -19.091563 10.106187 -19.111094 C 10.121812 -19.134531 10.149156 -19.165781 10.168687 -19.189219 C 10.184312 -19.212656 10.219469 -19.251719 10.239 -19.275156 C 10.262437 -19.3025 10.297594 -19.345469 10.324937 -19.372813 C 10.348375 -19.400156 10.391344 -19.447031 10.418687 -19.478281 C 10.449937 -19.509531 10.496812 -19.560313 10.531969 -19.591563 C 10.563219 -19.622813 10.621812 -19.681406 10.656969 -19.716563 C 10.696031 -19.751719 10.758531 -19.810313 10.8015 -19.849375 C 10.844469 -19.884531 10.914781 -19.950938 10.961656 -19.99 C 11.012437 -20.029063 11.090562 -20.099375 11.14525 -20.142344 C 11.199937 -20.185313 11.289781 -20.255625 11.348375 -20.298594 C 11.406969 -20.341563 11.508531 -20.419688 11.574937 -20.466563 C 11.641344 -20.513438 11.750719 -20.591563 11.824937 -20.638438 C 11.899156 -20.689219 12.024156 -20.767344 12.102281 -20.822031 C 12.184312 -20.872813 12.324937 -20.954844 12.414781 -21.005625 C 12.508531 -21.060313 12.656969 -21.14625 12.758531 -21.200938 C 12.860094 -21.255625 13.028062 -21.341563 13.137437 -21.39625 C 13.250719 -21.454844 13.559312 -21.599375 13.559312 -21.599375 C 14.08275 -21.384531 14.364 -21.197031 14.766344 -20.798594 C 14.766344 -20.798594 14.750719 -20.454844 14.742906 -20.329844 C 14.735094 -20.204844 14.715562 -20.017344 14.703844 -19.904063 C 14.692125 -19.790781 14.672594 -19.618906 14.656969 -19.513438 C 14.64525 -19.407969 14.617906 -19.251719 14.602281 -19.154063 C 14.586656 -19.060313 14.559312 -18.911875 14.543687 -18.825938 C 14.524156 -18.736094 14.496812 -18.607188 14.477281 -18.529063 C 14.461656 -18.447031 14.430406 -18.325938 14.410875 -18.255625 C 14.391344 -18.181406 14.360094 -18.068125 14.340562 -18.005625 C 14.321031 -17.939219 14.293687 -17.841563 14.274156 -17.782969 C 14.254625 -17.720469 14.223375 -17.630625 14.203844 -17.575938 C 14.184312 -17.525156 14.153062 -17.443125 14.137437 -17.392344 C 14.117906 -17.345469 14.090562 -17.27125 14.071031 -17.228281 C 14.0515 -17.185313 14.024156 -17.118906 14.008531 -17.079844 C 13.989 -17.040781 13.961656 -16.986094 13.946031 -16.950938 C 13.930406 -16.915781 13.906969 -16.865 13.891344 -16.837656 C 13.875719 -16.806406 13.852281 -16.763438 13.836656 -16.736094 C 13.824937 -16.712656 13.8015 -16.673594 13.789781 -16.650156 C 13.778062 -16.630625 13.758531 -16.599375 13.746812 -16.579844 C 13.735094 -16.560313 13.719469 -16.532969 13.711656 -16.517344 C 13.699937 -16.505625 13.684312 -16.482188 13.6765 -16.470469 C 13.668687 -16.45875 13.660875 -16.443125 13.653062 -16.435313 C 13.649156 -16.4275 13.637437 -16.415781 13.633531 -16.407969 C 13.629625 -16.404063 13.625719 -16.39625 13.621812 -16.39625 C 13.621812 -16.392344 13.617906 -16.388438 13.617906 -16.388438 L 12.500719 -15.044688 C 13.672594 -14.259531 14.262437 -13.669688 15.043687 -12.501719 L 16.391344 -13.618906 C 16.391344 -13.618906 16.391344 -13.618906 16.39525 -13.622813 C 16.39525 -13.626719 16.403062 -13.630625 16.410875 -13.634531 C 16.414781 -13.638438 16.4265 -13.64625 16.434312 -13.654063 C 16.442125 -13.657969 16.45775 -13.669688 16.469469 -13.6775 C 16.481187 -13.685313 16.500719 -13.697031 16.516344 -13.70875 C 16.531969 -13.716563 16.559312 -13.736094 16.578844 -13.747813 C 16.598375 -13.759531 16.629625 -13.779063 16.653062 -13.790781 C 16.672594 -13.8025 16.711656 -13.822031 16.735094 -13.837656 C 16.762437 -13.853281 16.805406 -13.876719 16.836656 -13.892344 C 16.867906 -13.904063 16.918687 -13.931406 16.949937 -13.947031 C 16.985094 -13.962656 17.043687 -13.99 17.078844 -14.005625 C 17.117906 -14.025156 17.184312 -14.0525 17.227281 -14.072031 C 17.27025 -14.087656 17.344469 -14.118906 17.391344 -14.134531 C 17.438219 -14.154063 17.52025 -14.185313 17.574937 -14.204844 C 17.629625 -14.224375 17.719469 -14.255625 17.778062 -14.27125 C 17.836656 -14.290781 17.938219 -14.322031 18.004625 -14.341563 C 18.071031 -14.361094 18.180406 -14.392344 18.250719 -14.411875 C 18.324937 -14.431406 18.446031 -14.45875 18.524156 -14.478281 C 18.606187 -14.497813 18.735094 -14.525156 18.824937 -14.540781 C 18.910875 -14.560313 19.055406 -14.587656 19.149156 -14.603281 C 19.246812 -14.618906 19.406969 -14.642344 19.508531 -14.657969 C 19.614 -14.669688 19.785875 -14.693125 19.899156 -14.704844 C 20.012437 -14.716563 20.203844 -14.732188 20.328844 -14.74 C 20.453844 -14.747813 20.793687 -14.767344 20.793687 -14.767344 C 21.192125 -14.368906 21.383531 -14.08375 21.602281 -13.564219 C 21.602281 -13.564219 21.453844 -13.251719 21.399156 -13.142344 C 21.344469 -13.029063 21.258531 -12.865 21.203844 -12.763438 C 21.149156 -12.661875 21.063219 -12.509531 21.008531 -12.419688 C 20.95775 -12.325938 20.871812 -12.189219 20.821031 -12.107188 C 20.77025 -12.025156 20.688219 -11.900156 20.641344 -11.825938 C 20.590562 -11.751719 20.512437 -11.642344 20.465562 -11.575938 C 20.418687 -11.509531 20.344469 -11.407969 20.3015 -11.349375 C 20.254625 -11.290781 20.184312 -11.200938 20.141344 -11.14625 C 20.098375 -11.091563 20.031969 -11.013438 19.992906 -10.966563 C 19.949937 -10.915781 19.887437 -10.845469 19.848375 -10.8025 C 19.809312 -10.759531 19.750719 -10.697031 19.715562 -10.657969 C 19.680406 -10.622813 19.625719 -10.564219 19.594469 -10.532969 C 19.559312 -10.497813 19.508531 -10.450938 19.477281 -10.419688 C 19.446031 -10.392344 19.399156 -10.349375 19.371812 -10.322031 C 19.344469 -10.298594 19.3015 -10.259531 19.278062 -10.24 C 19.250719 -10.216563 19.211656 -10.185313 19.188219 -10.165781 C 19.168687 -10.150156 19.133531 -10.122813 19.114 -10.107188 C 19.094469 -10.091563 19.063219 -10.068125 19.047594 -10.056406 C 19.028062 -10.044688 19.004625 -10.025156 18.989 -10.013438 C 18.973375 -10.005625 18.953844 -9.99 18.942125 -9.982188 C 18.930406 -9.974375 18.914781 -9.966563 18.903062 -9.95875 C 18.89525 -9.954844 18.883531 -9.947031 18.875719 -9.943125 C 18.871812 -9.939219 18.864 -9.935313 18.860094 -9.931406 C 18.856187 -9.931406 18.856187 -9.931406 18.856187 -9.931406 L 17.305406 -9.115 C 18.086656 -7.947031 18.406969 -7.169688 18.680406 -5.790781 L 20.356187 -6.310313 C 20.356187 -6.310313 20.356187 -6.310313 20.360094 -6.310313 C 20.364 -6.314219 20.371812 -6.314219 20.379625 -6.318125 C 20.383531 -6.318125 20.399156 -6.322031 20.406969 -6.322031 C 20.418687 -6.325938 20.438219 -6.329844 20.449937 -6.33375 C 20.465562 -6.337656 20.489 -6.341563 20.508531 -6.345469 C 20.524156 -6.345469 20.559312 -6.353281 20.578844 -6.357188 C 20.602281 -6.361094 20.637437 -6.365 20.660875 -6.368906 C 20.688219 -6.372813 20.731187 -6.376719 20.758531 -6.380625 C 20.789781 -6.380625 20.836656 -6.388438 20.871812 -6.388438 C 20.903062 -6.392344 20.961656 -6.39625 20.996812 -6.400156 C 21.035875 -6.400156 21.098375 -6.404063 21.141344 -6.404063 C 21.184312 -6.404063 21.254625 -6.407969 21.3015 -6.407969 C 21.348375 -6.407969 21.4265 -6.404063 21.477281 -6.404063 C 21.528062 -6.404063 21.614 -6.400156 21.672594 -6.39625 C 21.731187 -6.392344 21.824937 -6.388438 21.887437 -6.380625 C 21.949937 -6.376719 22.055406 -6.368906 22.121812 -6.361094 C 22.192125 -6.353281 22.305406 -6.337656 22.375719 -6.329844 C 22.449937 -6.318125 22.574937 -6.298594 22.656969 -6.286875 C 22.735094 -6.27125 22.867906 -6.247813 22.953844 -6.232188 C 23.043687 -6.212656 23.188219 -6.185313 23.281969 -6.161875 C 23.375719 -6.142344 23.531969 -6.099375 23.633531 -6.075938 C 23.735094 -6.048594 23.903062 -6.001719 24.012437 -5.970469 C 24.121812 -5.935313 24.305406 -5.876719 24.422594 -5.837656 C 24.539781 -5.798594 24.860094 -5.685313 24.860094 -5.685313 C 25.078844 -5.161875 25.14525 -4.829844 25.149156 -4.263438 C 25.149156 -4.263438 24.89525 -4.032969 24.8015 -3.950938 C 24.70775 -3.868906 24.559312 -3.747813 24.473375 -3.6775 C 24.383531 -3.603281 24.246812 -3.497813 24.160875 -3.431406 C 24.078844 -3.368906 23.949937 -3.275156 23.871812 -3.216563 C 23.793687 -3.161875 23.668687 -3.075938 23.594469 -3.029063 C 23.52025 -2.978281 23.406969 -2.904063 23.340562 -2.861094 C 23.27025 -2.818125 23.164781 -2.755625 23.098375 -2.716563 C 23.035875 -2.6775 22.934312 -2.622813 22.871812 -2.587656 C 22.813219 -2.556406 22.723375 -2.509531 22.664781 -2.478281 C 22.610094 -2.450938 22.524156 -2.407969 22.473375 -2.384531 C 22.422594 -2.361094 22.344469 -2.322031 22.293687 -2.3025 C 22.246812 -2.282969 22.1765 -2.251719 22.133531 -2.232188 C 22.090562 -2.212656 22.02025 -2.189219 21.981187 -2.173594 C 21.942125 -2.157969 21.883531 -2.134531 21.848375 -2.122813 C 21.813219 -2.111094 21.758531 -2.091563 21.727281 -2.08375 C 21.696031 -2.072031 21.649156 -2.056406 21.617906 -2.048594 C 21.590562 -2.040781 21.5515 -2.029063 21.524156 -2.02125 C 21.500719 -2.017344 21.465562 -2.005625 21.446031 -2.001719 C 21.422594 -1.997813 21.391344 -1.99 21.375719 -1.986094 C 21.356187 -1.982188 21.33275 -1.978281 21.317125 -1.974375 C 21.305406 -1.970469 21.285875 -1.970469 21.278062 -1.966563 C 21.266344 -1.966563 21.250719 -1.962656 21.242906 -1.962656 C 21.239 -1.95875 21.227281 -1.95875 21.227281 -1.95875 C 21.223375 -1.95875 21.219469 -1.95875 21.219469 -1.95875 L 19.477281 -1.798594 C 19.750719 -0.423594 19.750719 0.424062 19.477281 1.799062 L 21.219469 1.959219 C 21.219469 1.959219 21.223375 1.959219 21.227281 1.959219 C 21.227281 1.959219 21.239 1.959219 21.242906 1.963125 C 21.250719 1.963125 21.262437 1.963125 21.274156 1.967031 C 21.285875 1.967031 21.305406 1.970937 21.317125 1.974844 C 21.33275 1.97875 21.356187 1.982656 21.371812 1.986562 C 21.391344 1.990469 21.422594 1.998281 21.446031 2.002187 C 21.465562 2.006094 21.500719 2.017812 21.524156 2.021719 C 21.5515 2.029531 21.590562 2.04125 21.617906 2.049062 C 21.649156 2.056875 21.696031 2.0725 21.727281 2.084219 C 21.758531 2.092031 21.813219 2.111562 21.848375 2.123281 C 21.883531 2.135 21.942125 2.158437 21.981187 2.174062 C 22.02025 2.185781 22.086656 2.213125 22.129625 2.232656 C 22.172594 2.248281 22.246812 2.279531 22.293687 2.302969 C 22.340562 2.3225 22.418687 2.357656 22.473375 2.381094 C 22.524156 2.408437 22.606187 2.451406 22.664781 2.47875 C 22.719469 2.506094 22.813219 2.556875 22.871812 2.588125 C 22.934312 2.623281 23.031969 2.677969 23.094469 2.717031 C 23.160875 2.752187 23.27025 2.818594 23.336656 2.861562 C 23.406969 2.904531 23.52025 2.97875 23.594469 3.025625 C 23.668687 3.076406 23.789781 3.158437 23.867906 3.213125 C 23.946031 3.271719 24.074937 3.369375 24.160875 3.431875 C 24.242906 3.494375 24.379625 3.599844 24.469469 3.674062 C 24.559312 3.744375 24.703844 3.869375 24.797594 3.951406 C 24.891344 4.029531 25.14525 4.26 25.14525 4.26 C 25.14525 4.826406 25.078844 5.158437 24.864 5.681875 C 24.864 5.681875 24.539781 5.799062 24.422594 5.838125 C 24.305406 5.877187 24.125719 5.935781 24.016344 5.967031 C 23.906969 6.002187 23.739 6.049062 23.637437 6.0725 C 23.535875 6.099844 23.379625 6.138906 23.285875 6.162344 C 23.192125 6.181875 23.043687 6.213125 22.95775 6.232656 C 22.871812 6.248281 22.739 6.271719 22.656969 6.287344 C 22.578844 6.299062 22.453844 6.318594 22.379625 6.330312 C 22.305406 6.338125 22.192125 6.35375 22.121812 6.361562 C 22.055406 6.369375 21.953844 6.377187 21.891344 6.381094 C 21.828844 6.388906 21.731187 6.392812 21.672594 6.396719 C 21.617906 6.400625 21.531969 6.400625 21.477281 6.404531 C 21.4265 6.404531 21.348375 6.408437 21.3015 6.408437 C 21.254625 6.408437 21.184312 6.404531 21.141344 6.404531 C 21.098375 6.404531 21.035875 6.400625 20.996812 6.396719 C 20.961656 6.396719 20.903062 6.392812 20.871812 6.388906 C 20.836656 6.388906 20.785875 6.381094 20.758531 6.381094 C 20.731187 6.377187 20.688219 6.373281 20.660875 6.369375 C 20.637437 6.365469 20.598375 6.361562 20.578844 6.357656 C 20.555406 6.35375 20.524156 6.349844 20.508531 6.345937 C 20.489 6.342031 20.465562 6.338125 20.449937 6.334219 C 20.438219 6.330312 20.418687 6.326406 20.410875 6.3225 C 20.399156 6.3225 20.383531 6.318594 20.379625 6.318594 C 20.371812 6.314687 20.364 6.310781 20.360094 6.310781 C 20.356187 6.310781 20.356187 6.310781 20.356187 6.310781 Z M 18.680406 5.79125 " transform="matrix(1,0,0,-1,29.636,29.635)"/>
</g>
</g>
</svg>
