<?xml version="1.0" encoding="UTF-8"?>
<svg xmlns="http://www.w3.org/2000/svg" xmlns:xlink="http://www.w3.org/1999/xlink" width="50.693" height="50.693" viewBox="0 0 50.693 50.693">
<defs>
<clipPath id="clip-0">
<path clip-rule="nonzero" d="M 0 0 L 50.691406 0 L 50.691406 50.691406 L 0 50.691406 Z M 0 0 "/>
</clipPath>
</defs>
<g clip-path="url(#clip-0)">
<path fill="none" stroke-width="0.3985" stroke-linecap="butt" stroke-linejoin="miter" stroke="rgb(0%, 0%, 0%)" stroke-opacity="1" stroke-miterlimit="10" d="M 18.681344 5.792313 C 18.407906 7.171219 18.087594 7.944656 17.306344 9.116531 L 18.853219 9.929031 C 18.853219 9.929031 18.857125 9.932938 18.861031 9.932938 C 18.864937 9.932938 18.87275 9.94075 18.876656 9.94075 C 18.884469 9.944656 18.892281 9.952469 18.900094 9.956375 C 18.911812 9.964188 18.927437 9.975906 18.939156 9.983719 C 18.950875 9.991531 18.970406 10.00325 18.986031 10.014969 C 19.001656 10.022781 19.029 10.042313 19.044625 10.057938 C 19.064156 10.069656 19.0915 10.089188 19.111031 10.104813 C 19.134469 10.120438 19.165719 10.147781 19.189156 10.167313 C 19.212594 10.186844 19.251656 10.218094 19.275094 10.237625 C 19.302437 10.261063 19.345406 10.300125 19.37275 10.323563 C 19.400094 10.347 19.446969 10.389969 19.478219 10.421219 C 19.509469 10.448563 19.56025 10.499344 19.5915 10.530594 C 19.626656 10.56575 19.681344 10.620438 19.7165 10.6595 C 19.751656 10.694656 19.81025 10.757156 19.849312 10.800125 C 19.884469 10.843094 19.950875 10.913406 19.989937 10.964188 C 20.029 11.011063 20.099312 11.093094 20.142281 11.143875 C 20.18525 11.198563 20.255562 11.288406 20.298531 11.347 C 20.3415 11.405594 20.419625 11.507156 20.4665 11.573563 C 20.513375 11.639969 20.5915 11.75325 20.638375 11.827469 C 20.689156 11.897781 20.767281 12.022781 20.821969 12.104813 C 20.87275 12.186844 20.954781 12.323563 21.005562 12.417313 C 21.06025 12.507156 21.146187 12.6595 21.200875 12.757156 C 21.255562 12.858719 21.3415 13.026688 21.396187 13.139969 C 21.454781 13.249344 21.599312 13.557938 21.599312 13.557938 C 21.384469 14.081375 21.196969 14.366531 20.798531 14.764969 C 20.798531 14.764969 20.454781 14.749344 20.329781 14.741531 C 20.204781 14.733719 20.017281 14.714188 19.904 14.702469 C 19.790719 14.69075 19.618844 14.671219 19.513375 14.6595 C 19.407906 14.643875 19.251656 14.620438 19.154 14.604813 C 19.06025 14.589188 18.911812 14.561844 18.825875 14.542313 C 18.736031 14.526688 18.607125 14.495438 18.529 14.479813 C 18.446969 14.460281 18.325875 14.429031 18.255562 14.413406 C 18.181344 14.393875 18.071969 14.362625 18.005562 14.343094 C 17.939156 14.323563 17.8415 14.292313 17.782906 14.272781 C 17.720406 14.25325 17.630562 14.222 17.575875 14.202469 C 17.525094 14.186844 17.443062 14.155594 17.392281 14.136063 C 17.345406 14.116531 17.271187 14.089188 17.228219 14.069656 C 17.18525 14.054031 17.118844 14.022781 17.079781 14.007156 C 17.040719 13.991531 16.986031 13.964188 16.950875 13.948563 C 16.915719 13.929031 16.864937 13.905594 16.837594 13.889969 C 16.806344 13.874344 16.763375 13.850906 16.736031 13.839188 C 16.712594 13.823563 16.673531 13.804031 16.650094 13.792313 C 16.630562 13.776688 16.599312 13.757156 16.579781 13.749344 C 16.56025 13.737625 16.532906 13.718094 16.517281 13.710281 C 16.505562 13.698563 16.482125 13.686844 16.470406 13.679031 C 16.458687 13.671219 16.443062 13.6595 16.43525 13.651688 C 16.427437 13.647781 16.415719 13.639969 16.407906 13.636063 C 16.404 13.632156 16.396187 13.624344 16.396187 13.624344 C 16.392281 13.620438 16.388375 13.620438 16.388375 13.620438 L 15.044625 12.499344 C 14.259469 13.671219 13.669625 14.261063 12.501656 15.042313 L 13.618844 16.389969 C 13.618844 16.389969 13.618844 16.389969 13.62275 16.393875 C 13.626656 16.397781 13.630562 16.405594 13.634469 16.4095 C 13.638375 16.413406 13.646187 16.425125 13.654 16.432938 C 13.657906 16.44075 13.669625 16.460281 13.677437 16.472 C 13.68525 16.479813 13.696969 16.50325 13.708687 16.518875 C 13.7165 16.530594 13.736031 16.561844 13.74775 16.577469 C 13.759469 16.597 13.779 16.62825 13.790719 16.651688 C 13.802437 16.675125 13.821969 16.710281 13.837594 16.737625 C 13.853219 16.761063 13.876656 16.807938 13.892281 16.835281 C 13.904 16.866531 13.931344 16.917313 13.946969 16.952469 C 13.962594 16.983719 13.989937 17.042313 14.005562 17.081375 C 14.025094 17.120438 14.052437 17.182938 14.071969 17.225906 C 14.087594 17.268875 14.118844 17.343094 14.134469 17.389969 C 14.154 17.44075 14.18525 17.522781 14.204781 17.573563 C 14.224312 17.62825 14.255562 17.718094 14.271187 17.776688 C 14.290719 17.839188 14.321969 17.936844 14.3415 18.00325 C 14.361031 18.069656 14.392281 18.179031 14.411812 18.25325 C 14.431344 18.323563 14.458687 18.444656 14.478219 18.526688 C 14.49775 18.604813 14.525094 18.737625 14.540719 18.823563 C 14.56025 18.9095 14.587594 19.054031 14.603219 19.151688 C 14.618844 19.245438 14.642281 19.405594 14.657906 19.511063 C 14.669625 19.616531 14.693062 19.788406 14.704781 19.901688 C 14.7165 20.014969 14.732125 20.206375 14.739937 20.327469 C 14.74775 20.452469 14.767281 20.792313 14.767281 20.792313 C 14.368844 21.194656 14.083687 21.382156 13.564156 21.600906 C 13.564156 21.600906 13.251656 21.452469 13.142281 21.397781 C 13.029 21.343094 12.864937 21.257156 12.763375 21.202469 C 12.661812 21.147781 12.509469 21.061844 12.419625 21.007156 C 12.325875 20.956375 12.189156 20.874344 12.107125 20.823563 C 12.025094 20.772781 11.900094 20.69075 11.825875 20.639969 C 11.751656 20.589188 11.642281 20.514969 11.575875 20.468094 C 11.509469 20.421219 11.407906 20.347 11.349312 20.300125 C 11.290719 20.257156 11.200875 20.182938 11.146187 20.139969 C 11.0915 20.097 11.013375 20.030594 10.9665 19.991531 C 10.915719 19.952469 10.845406 19.886063 10.802437 19.850906 C 10.759469 19.811844 10.696969 19.75325 10.657906 19.718094 C 10.62275 19.679031 10.564156 19.624344 10.532906 19.593094 C 10.49775 19.561844 10.450875 19.507156 10.419625 19.475906 C 10.392281 19.448563 10.349312 19.401688 10.321969 19.374344 C 10.298531 19.347 10.259469 19.304031 10.239937 19.276688 C 10.2165 19.25325 10.18525 19.214188 10.165719 19.19075 C 10.150094 19.167313 10.12275 19.132156 10.107125 19.112625 C 10.0915 19.093094 10.068062 19.061844 10.056344 19.046219 C 10.044625 19.030594 10.025094 19.00325 10.013375 18.987625 C 10.005562 18.972 9.989937 18.952469 9.982125 18.94075 C 9.974312 18.929031 9.9665 18.913406 9.958687 18.905594 C 9.954781 18.893875 9.946969 18.882156 9.943062 18.87825 C 9.939156 18.870438 9.93525 18.862625 9.931344 18.858719 C 9.931344 18.858719 9.931344 18.854813 9.931344 18.854813 L 9.114937 17.304031 C 7.946969 18.085281 7.169625 18.4095 5.790719 18.682938 L 6.31025 20.354813 C 6.31025 20.354813 6.31025 20.354813 6.31025 20.358719 C 6.314156 20.362625 6.314156 20.370438 6.318062 20.37825 C 6.318062 20.386063 6.321969 20.397781 6.321969 20.4095 C 6.325875 20.417313 6.329781 20.436844 6.333687 20.452469 C 6.337594 20.464188 6.3415 20.487625 6.345406 20.507156 C 6.345406 20.522781 6.353219 20.557938 6.357125 20.577469 C 6.361031 20.600906 6.364937 20.636063 6.368844 20.6595 C 6.37275 20.686844 6.376656 20.729813 6.380562 20.757156 C 6.380562 20.788406 6.388375 20.839188 6.388375 20.870438 C 6.392281 20.905594 6.396187 20.960281 6.400094 20.999344 C 6.400094 21.0345 6.404 21.100906 6.404 21.139969 C 6.404 21.182938 6.407906 21.25325 6.407906 21.300125 C 6.407906 21.347 6.404 21.425125 6.404 21.475906 C 6.404 21.526688 6.400094 21.616531 6.396187 21.671219 C 6.392281 21.729813 6.388375 21.823563 6.380562 21.886063 C 6.376656 21.948563 6.368844 22.054031 6.361031 22.124344 C 6.353219 22.19075 6.337594 22.304031 6.329781 22.37825 C 6.318062 22.452469 6.298531 22.573563 6.286812 22.655594 C 6.271187 22.737625 6.24775 22.870438 6.232125 22.956375 C 6.212594 23.042313 6.18525 23.186844 6.161812 23.280594 C 6.142281 23.374344 6.099312 23.530594 6.075875 23.632156 C 6.048531 23.733719 6.001656 23.905594 5.970406 24.014969 C 5.93525 24.124344 5.876656 24.304031 5.837594 24.421219 C 5.798531 24.538406 5.68525 24.858719 5.68525 24.858719 C 5.161812 25.077469 4.829781 25.143875 4.263375 25.147781 C 4.263375 25.147781 4.032906 24.893875 3.950875 24.800125 C 3.868844 24.706375 3.74775 24.561844 3.677437 24.472 C 3.603219 24.382156 3.49775 24.245438 3.431344 24.163406 C 3.368844 24.077469 3.275094 23.948563 3.2165 23.870438 C 3.161812 23.792313 3.075875 23.667313 3.029 23.593094 C 2.978219 23.522781 2.904 23.4095 2.861031 23.339188 C 2.818062 23.268875 2.755562 23.163406 2.7165 23.097 C 2.677437 23.0345 2.62275 22.932938 2.587594 22.874344 C 2.556344 22.811844 2.509469 22.722 2.478219 22.667313 C 2.450875 22.612625 2.407906 22.522781 2.384469 22.472 C 2.361031 22.421219 2.321969 22.343094 2.302437 22.296219 C 2.282906 22.249344 2.251656 22.175125 2.232125 22.132156 C 2.212594 22.089188 2.189156 22.022781 2.173531 21.983719 C 2.157906 21.944656 2.134469 21.882156 2.12275 21.847 C 2.111031 21.811844 2.0915 21.757156 2.083687 21.725906 C 2.071969 21.694656 2.056344 21.647781 2.048531 21.620438 C 2.040719 21.593094 2.029 21.550125 2.021187 21.526688 C 2.017281 21.50325 2.005562 21.464188 2.001656 21.444656 C 1.99775 21.425125 1.989937 21.393875 1.986031 21.374344 C 1.982125 21.358719 1.978219 21.331375 1.974312 21.319656 C 1.970406 21.304031 1.970406 21.2845 1.9665 21.276688 C 1.9665 21.264969 1.962594 21.25325 1.962594 21.245438 C 1.958687 21.237625 1.958687 21.229813 1.958687 21.225906 C 1.958687 21.222 1.958687 21.218094 1.958687 21.218094 L 1.798531 19.475906 C 0.423531 19.749344 -0.424125 19.749344 -1.799125 19.475906 L -1.959281 21.218094 C -1.959281 21.218094 -1.959281 21.222 -1.959281 21.225906 C -1.959281 21.229813 -1.959281 21.237625 -1.963188 21.245438 C -1.963188 21.249344 -1.963188 21.264969 -1.967094 21.272781 C -1.967094 21.2845 -1.971 21.304031 -1.974906 21.319656 C -1.978813 21.331375 -1.982719 21.354813 -1.986625 21.374344 C -1.990531 21.389969 -1.998344 21.425125 -2.00225 21.444656 C -2.006156 21.464188 -2.017875 21.50325 -2.021781 21.526688 C -2.029594 21.550125 -2.041313 21.593094 -2.049125 21.620438 C -2.056938 21.647781 -2.072563 21.694656 -2.084281 21.725906 C -2.092094 21.757156 -2.111625 21.811844 -2.123344 21.847 C -2.135063 21.882156 -2.1585 21.944656 -2.174125 21.983719 C -2.185844 22.022781 -2.213188 22.089188 -2.232719 22.132156 C -2.248344 22.175125 -2.279594 22.245438 -2.303031 22.292313 C -2.322563 22.339188 -2.357719 22.421219 -2.381156 22.472 C -2.4085 22.522781 -2.451469 22.608719 -2.478813 22.663406 C -2.506156 22.718094 -2.556938 22.811844 -2.588188 22.874344 C -2.623344 22.932938 -2.678031 23.030594 -2.717094 23.097 C -2.75225 23.1595 -2.818656 23.268875 -2.861625 23.339188 C -2.904594 23.405594 -2.978813 23.518875 -3.025688 23.593094 C -3.076469 23.667313 -3.1585 23.788406 -3.213188 23.866531 C -3.271781 23.944656 -3.369438 24.077469 -3.431938 24.1595 C -3.494438 24.241531 -3.599906 24.382156 -3.674125 24.468094 C -3.744438 24.557938 -3.869438 24.706375 -3.951469 24.800125 C -4.029594 24.889969 -4.260063 25.143875 -4.260063 25.143875 C -4.826469 25.143875 -5.1585 25.081375 -5.681938 24.866531 C -5.681938 24.866531 -5.799125 24.542313 -5.838188 24.425125 C -5.87725 24.307938 -5.935844 24.12825 -5.967094 24.018875 C -6.00225 23.9095 -6.049125 23.737625 -6.072563 23.636063 C -6.099906 23.5345 -6.138969 23.382156 -6.162406 23.2845 C -6.181938 23.19075 -6.213188 23.046219 -6.232719 22.956375 C -6.248344 22.870438 -6.271781 22.737625 -6.287406 22.6595 C -6.299125 22.577469 -6.318656 22.456375 -6.330375 22.382156 C -6.338188 22.307938 -6.353813 22.19075 -6.361625 22.124344 C -6.369438 22.054031 -6.37725 21.952469 -6.381156 21.889969 C -6.388969 21.827469 -6.392875 21.729813 -6.396781 21.675125 C -6.400688 21.616531 -6.400688 21.530594 -6.404594 21.479813 C -6.404594 21.429031 -6.4085 21.350906 -6.4085 21.304031 C -6.4085 21.257156 -6.404594 21.182938 -6.404594 21.139969 C -6.404594 21.097 -6.400688 21.0345 -6.396781 20.999344 C -6.396781 20.960281 -6.392875 20.905594 -6.388969 20.870438 C -6.388969 20.839188 -6.381156 20.788406 -6.381156 20.757156 C -6.37725 20.729813 -6.373344 20.686844 -6.369438 20.6595 C -6.365531 20.636063 -6.361625 20.600906 -6.357719 20.577469 C -6.353813 20.557938 -6.349906 20.526688 -6.346 20.507156 C -6.342094 20.491531 -6.338188 20.464188 -6.334281 20.452469 C -6.330375 20.436844 -6.326469 20.421219 -6.322563 20.4095 C -6.322563 20.397781 -6.318656 20.386063 -6.318656 20.37825 C -6.31475 20.370438 -6.310844 20.362625 -6.310844 20.358719 C -6.310844 20.354813 -6.310844 20.354813 -6.310844 20.354813 L -5.791313 18.682938 C -7.170219 18.4095 -7.947563 18.085281 -9.115531 17.304031 L -9.931938 18.854813 C -9.931938 18.854813 -9.931938 18.858719 -9.931938 18.858719 C -9.935844 18.862625 -9.93975 18.870438 -9.943656 18.87825 C -9.947563 18.882156 -9.951469 18.893875 -9.959281 18.901688 C -9.963188 18.9095 -9.974906 18.929031 -9.982719 18.94075 C -9.990531 18.952469 -10.00225 18.972 -10.013969 18.987625 C -10.025688 18.999344 -10.041313 19.030594 -10.056938 19.046219 C -10.068656 19.06575 -10.092094 19.093094 -10.107719 19.112625 C -10.123344 19.132156 -10.150688 19.167313 -10.166313 19.19075 C -10.185844 19.214188 -10.217094 19.25325 -10.240531 19.276688 C -10.260063 19.304031 -10.299125 19.347 -10.322563 19.374344 C -10.349906 19.401688 -10.392875 19.448563 -10.420219 19.475906 C -10.447563 19.507156 -10.498344 19.557938 -10.529594 19.593094 C -10.56475 19.624344 -10.619438 19.679031 -10.6585 19.714188 C -10.693656 19.749344 -10.760063 19.807938 -10.799125 19.847 C -10.842094 19.886063 -10.916313 19.948563 -10.963188 19.991531 C -11.010063 20.030594 -11.092094 20.097 -11.146781 20.139969 C -11.197563 20.182938 -11.287406 20.25325 -11.346 20.300125 C -11.4085 20.343094 -11.510063 20.417313 -11.576469 20.464188 C -11.642875 20.511063 -11.75225 20.589188 -11.826469 20.639969 C -11.900688 20.686844 -12.021781 20.768875 -12.103813 20.819656 C -12.185844 20.870438 -12.326469 20.952469 -12.416313 21.007156 C -12.506156 21.057938 -12.6585 21.147781 -12.760063 21.202469 C -12.857719 21.25325 -13.029594 21.343094 -13.138969 21.397781 C -13.248344 21.452469 -13.556938 21.600906 -13.556938 21.600906 C -14.080375 21.386063 -14.365531 21.194656 -14.767875 20.796219 C -14.767875 20.796219 -14.75225 20.456375 -14.740531 20.331375 C -14.732719 20.206375 -14.717094 20.018875 -14.705375 19.905594 C -14.693656 19.792313 -14.670219 19.616531 -14.6585 19.514969 C -14.642875 19.4095 -14.619438 19.249344 -14.603813 19.155594 C -14.588188 19.057938 -14.560844 18.913406 -14.541313 18.823563 C -14.525688 18.737625 -14.498344 18.608719 -14.478813 18.526688 C -14.459281 18.448563 -14.431938 18.327469 -14.412406 18.25325 C -14.392875 18.182938 -14.361625 18.069656 -14.342094 18.00325 C -14.322563 17.936844 -14.291313 17.839188 -14.275688 17.780594 C -14.256156 17.722 -14.224906 17.632156 -14.205375 17.577469 C -14.185844 17.522781 -14.154594 17.44075 -14.135063 17.393875 C -14.119438 17.347 -14.088188 17.272781 -14.072563 17.229813 C -14.053031 17.186844 -14.025688 17.120438 -14.006156 17.081375 C -13.990531 17.042313 -13.963188 16.983719 -13.947563 16.952469 C -13.931938 16.917313 -13.904594 16.866531 -13.888969 16.835281 C -13.87725 16.807938 -13.849906 16.761063 -13.838188 16.737625 C -13.822563 16.710281 -13.803031 16.675125 -13.791313 16.651688 C -13.779594 16.62825 -13.760063 16.597 -13.748344 16.577469 C -13.736625 16.561844 -13.721 16.5345 -13.709281 16.518875 C -13.701469 16.50325 -13.685844 16.479813 -13.678031 16.472 C -13.670219 16.460281 -13.6585 16.444656 -13.654594 16.436844 C -13.646781 16.429031 -13.638969 16.413406 -13.635063 16.4095 C -13.631156 16.401688 -13.623344 16.397781 -13.623344 16.393875 C -13.619438 16.389969 -13.619438 16.389969 -13.619438 16.389969 L -12.498344 15.042313 C -13.670219 14.261063 -14.260063 13.671219 -15.045219 12.499344 L -16.388969 13.620438 C -16.388969 13.620438 -16.392875 13.620438 -16.392875 13.624344 C -16.396781 13.624344 -16.404594 13.632156 -16.4085 13.636063 C -16.416313 13.639969 -16.424125 13.647781 -16.431938 13.651688 C -16.443656 13.6595 -16.459281 13.671219 -16.471 13.679031 C -16.482719 13.686844 -16.50225 13.698563 -16.517875 13.710281 C -16.5335 13.718094 -16.560844 13.737625 -16.580375 13.745438 C -16.596 13.757156 -16.631156 13.776688 -16.650688 13.792313 C -16.674125 13.804031 -16.709281 13.823563 -16.736625 13.839188 C -16.763969 13.850906 -16.806938 13.874344 -16.838188 13.889969 C -16.865531 13.905594 -16.916313 13.929031 -16.951469 13.948563 C -16.982719 13.964188 -17.041313 13.991531 -17.080375 14.007156 C -17.119438 14.022781 -17.185844 14.054031 -17.228813 14.069656 C -17.271781 14.089188 -17.342094 14.116531 -17.392875 14.136063 C -17.43975 14.155594 -17.521781 14.186844 -17.576469 14.202469 C -17.62725 14.222 -17.721 14.25325 -17.779594 14.272781 C -17.838188 14.292313 -17.93975 14.323563 -18.006156 14.343094 C -18.068656 14.362625 -18.178031 14.393875 -18.25225 14.4095 C -18.322563 14.429031 -18.447563 14.460281 -18.525688 14.479813 C -18.603813 14.495438 -18.736625 14.522781 -18.822563 14.542313 C -18.9085 14.557938 -19.053031 14.585281 -19.150688 14.604813 C -19.244438 14.620438 -19.404594 14.643875 -19.510063 14.655594 C -19.615531 14.671219 -19.787406 14.69075 -19.900688 14.702469 C -20.013969 14.714188 -20.205375 14.733719 -20.326469 14.741531 C -20.451469 14.749344 -20.791313 14.764969 -20.791313 14.764969 C -21.193656 14.366531 -21.385063 14.085281 -21.599906 13.56575 C -21.599906 13.56575 -21.455375 13.25325 -21.400688 13.139969 C -21.342094 13.030594 -21.256156 12.862625 -21.201469 12.761063 C -21.150688 12.663406 -21.060844 12.507156 -21.010063 12.417313 C -20.955375 12.327469 -20.873344 12.19075 -20.822563 12.108719 C -20.771781 12.026688 -20.68975 11.901688 -20.638969 11.827469 C -20.592094 11.75325 -20.513969 11.643875 -20.467094 11.577469 C -20.420219 11.511063 -20.346 11.4095 -20.299125 11.350906 C -20.256156 11.288406 -20.185844 11.198563 -20.142875 11.143875 C -20.099906 11.093094 -20.0335 11.011063 -19.990531 10.964188 C -19.951469 10.917313 -19.888969 10.847 -19.849906 10.804031 C -19.810844 10.761063 -19.75225 10.698563 -19.717094 10.6595 C -19.681938 10.620438 -19.62725 10.56575 -19.592094 10.5345 C -19.560844 10.499344 -19.510063 10.448563 -19.478813 10.421219 C -19.447563 10.389969 -19.400688 10.347 -19.373344 10.323563 C -19.346 10.300125 -19.303031 10.261063 -19.275688 10.237625 C -19.25225 10.218094 -19.213188 10.186844 -19.18975 10.167313 C -19.166313 10.147781 -19.131156 10.120438 -19.111625 10.104813 C -19.092094 10.089188 -19.06475 10.069656 -19.045219 10.054031 C -19.029594 10.042313 -19.00225 10.022781 -18.986625 10.014969 C -18.974906 10.00325 -18.951469 9.991531 -18.93975 9.983719 C -18.928031 9.975906 -18.912406 9.964188 -18.904594 9.960281 C -18.896781 9.952469 -18.881156 9.944656 -18.87725 9.94075 C -18.869438 9.936844 -18.861625 9.932938 -18.861625 9.932938 C -18.857719 9.932938 -18.853813 9.929031 -18.853813 9.929031 L -17.306938 9.116531 C -18.088188 7.944656 -18.4085 7.171219 -18.681938 5.792313 L -20.353813 6.307938 C -20.353813 6.307938 -20.357719 6.311844 -20.361625 6.311844 C -20.361625 6.311844 -20.373344 6.31575 -20.37725 6.31575 C -20.385063 6.319656 -20.396781 6.319656 -20.4085 6.323563 C -20.416313 6.327469 -20.435844 6.331375 -20.451469 6.335281 C -20.463188 6.335281 -20.490531 6.339188 -20.506156 6.343094 C -20.525688 6.347 -20.556938 6.350906 -20.580375 6.354813 C -20.599906 6.358719 -20.635063 6.366531 -20.662406 6.366531 C -20.685844 6.370438 -20.728813 6.37825 -20.760063 6.37825 C -20.787406 6.382156 -20.838188 6.386063 -20.869438 6.389969 C -20.904594 6.393875 -20.959281 6.397781 -20.998344 6.397781 C -21.037406 6.401688 -21.099906 6.401688 -21.142875 6.405594 C -21.181938 6.405594 -21.25225 6.405594 -21.299125 6.405594 C -21.346 6.405594 -21.424125 6.405594 -21.474906 6.405594 C -21.529594 6.401688 -21.615531 6.401688 -21.674125 6.397781 C -21.728813 6.393875 -21.826469 6.386063 -21.888969 6.382156 C -21.951469 6.37825 -22.056938 6.366531 -22.123344 6.358719 C -22.18975 6.354813 -22.303031 6.339188 -22.37725 6.327469 C -22.451469 6.319656 -22.576469 6.300125 -22.654594 6.2845 C -22.736625 6.272781 -22.869438 6.249344 -22.955375 6.229813 C -23.041313 6.214188 -23.185844 6.182938 -23.279594 6.163406 C -23.37725 6.139969 -23.5335 6.100906 -23.635063 6.073563 C -23.736625 6.046219 -23.904594 5.999344 -24.013969 5.968094 C -24.123344 5.936844 -24.303031 5.87825 -24.420219 5.839188 C -24.537406 5.800125 -24.861625 5.682938 -24.861625 5.682938 C -25.080375 5.1595 -25.146781 4.831375 -25.146781 4.264969 C -25.146781 4.264969 -24.892875 4.0345 -24.799125 3.952469 C -24.705375 3.870438 -24.560844 3.749344 -24.471 3.675125 C -24.385063 3.604813 -24.244438 3.495438 -24.162406 3.432938 C -24.080375 3.370438 -23.951469 3.272781 -23.869438 3.218094 C -23.791313 3.163406 -23.670219 3.077469 -23.596 3.026688 C -23.521781 2.979813 -23.4085 2.905594 -23.338188 2.862625 C -23.271781 2.819656 -23.162406 2.75325 -23.099906 2.718094 C -23.0335 2.679031 -22.931938 2.620438 -22.873344 2.589188 C -22.810844 2.557938 -22.721 2.507156 -22.666313 2.479813 C -22.611625 2.452469 -22.525688 2.4095 -22.471 2.386063 C -22.420219 2.358719 -22.342094 2.323563 -22.295219 2.304031 C -22.248344 2.280594 -22.174125 2.249344 -22.131156 2.233719 C -22.088188 2.214188 -22.021781 2.186844 -21.982719 2.171219 C -21.943656 2.1595 -21.885063 2.136063 -21.849906 2.124344 C -21.81475 2.112625 -21.760063 2.093094 -21.728813 2.081375 C -21.693656 2.073563 -21.646781 2.057938 -21.619438 2.050125 C -21.592094 2.042313 -21.549125 2.030594 -21.525688 2.022781 C -21.50225 2.014969 -21.467094 2.007156 -21.443656 2.00325 C -21.424125 1.995438 -21.392875 1.987625 -21.373344 1.987625 C -21.357719 1.983719 -21.330375 1.975906 -21.318656 1.975906 C -21.303031 1.972 -21.287406 1.968094 -21.275688 1.968094 C -21.263969 1.964188 -21.25225 1.964188 -21.244438 1.960281 C -21.236625 1.960281 -21.228813 1.960281 -21.224906 1.960281 C -21.221 1.960281 -21.221 1.960281 -21.221 1.960281 L -19.474906 1.800125 C -19.75225 0.421219 -19.75225 -0.422531 -19.474906 -1.797531 L -21.221 -1.957687 C -21.221 -1.957687 -21.221 -1.957687 -21.224906 -1.957687 C -21.228813 -1.961594 -21.236625 -1.961594 -21.244438 -1.961594 C -21.25225 -1.961594 -21.263969 -1.9655 -21.275688 -1.9655 C -21.2835 -1.969406 -21.303031 -1.973312 -21.318656 -1.973312 C -21.330375 -1.977219 -21.353813 -1.981125 -21.373344 -1.985031 C -21.388969 -1.988937 -21.424125 -1.99675 -21.443656 -2.000656 C -21.467094 -2.008469 -21.50225 -2.016281 -21.525688 -2.024094 C -21.549125 -2.028 -21.592094 -2.039719 -21.619438 -2.047531 C -21.646781 -2.05925 -21.693656 -2.070969 -21.728813 -2.082687 C -21.760063 -2.094406 -21.81475 -2.110031 -21.849906 -2.12175 C -21.885063 -2.137375 -21.943656 -2.156906 -21.982719 -2.172531 C -22.021781 -2.188156 -22.088188 -2.2155 -22.131156 -2.231125 C -22.174125 -2.250656 -22.244438 -2.281906 -22.295219 -2.301437 C -22.342094 -2.320969 -22.420219 -2.360031 -22.471 -2.383469 C -22.521781 -2.406906 -22.607719 -2.449875 -22.662406 -2.477219 C -22.721 -2.508469 -22.810844 -2.555344 -22.873344 -2.5905 C -22.931938 -2.62175 -23.0335 -2.676437 -23.096 -2.7155 C -23.162406 -2.754562 -23.267875 -2.817062 -23.338188 -2.860031 C -23.4085 -2.903 -23.521781 -2.977219 -23.592094 -3.028 C -23.666313 -3.074875 -23.787406 -3.156906 -23.865531 -3.2155 C -23.943656 -3.270187 -24.076469 -3.367844 -24.1585 -3.430344 C -24.244438 -3.49675 -24.381156 -3.602219 -24.471 -3.672531 C -24.556938 -3.74675 -24.705375 -3.867844 -24.799125 -3.949875 C -24.892875 -4.031906 -25.142875 -4.258469 -25.142875 -4.258469 C -25.146781 -4.824875 -25.080375 -5.160812 -24.865531 -5.680344 C -24.865531 -5.680344 -24.541313 -5.797531 -24.424125 -5.8405 C -24.306938 -5.879562 -24.12725 -5.93425 -24.017875 -5.969406 C -23.9085 -6.000656 -23.736625 -6.047531 -23.635063 -6.074875 C -23.5335 -6.102219 -23.381156 -6.137375 -23.287406 -6.160812 C -23.193656 -6.18425 -23.045219 -6.2155 -22.959281 -6.231125 C -22.869438 -6.250656 -22.736625 -6.274094 -22.6585 -6.285812 C -22.576469 -6.297531 -22.455375 -6.317062 -22.381156 -6.328781 C -22.306938 -6.3405 -22.18975 -6.352219 -22.123344 -6.360031 C -22.053031 -6.367844 -21.951469 -6.379562 -21.888969 -6.383469 C -21.826469 -6.387375 -21.732719 -6.391281 -21.674125 -6.395187 C -21.615531 -6.399094 -21.529594 -6.403 -21.478813 -6.403 C -21.428031 -6.406906 -21.349906 -6.406906 -21.303031 -6.406906 C -21.256156 -6.406906 -21.181938 -6.406906 -21.138969 -6.403 C -21.099906 -6.403 -21.037406 -6.399094 -20.998344 -6.399094 C -20.959281 -6.395187 -20.904594 -6.391281 -20.869438 -6.391281 C -20.838188 -6.387375 -20.787406 -6.383469 -20.760063 -6.379562 C -20.728813 -6.375656 -20.685844 -6.37175 -20.662406 -6.367844 C -20.635063 -6.363937 -20.599906 -6.360031 -20.576469 -6.356125 C -20.556938 -6.352219 -20.525688 -6.348312 -20.510063 -6.344406 C -20.490531 -6.3405 -20.463188 -6.336594 -20.451469 -6.332687 C -20.435844 -6.332687 -20.420219 -6.324875 -20.4085 -6.324875 C -20.400688 -6.320969 -20.385063 -6.317062 -20.37725 -6.317062 C -20.369438 -6.317062 -20.361625 -6.313156 -20.361625 -6.313156 C -20.357719 -6.30925 -20.353813 -6.30925 -20.353813 -6.30925 L -18.681938 -5.789719 C -18.4085 -7.168625 -18.088188 -7.945969 -17.306938 -9.113937 L -18.853813 -9.930344 C -18.853813 -9.930344 -18.857719 -9.930344 -18.861625 -9.93425 C -18.861625 -9.93425 -18.869438 -9.938156 -18.87725 -9.942062 C -18.881156 -9.945969 -18.892875 -9.953781 -18.900688 -9.957687 C -18.912406 -9.961594 -18.928031 -9.973312 -18.93975 -9.981125 C -18.951469 -9.988937 -18.971 -10.004562 -18.986625 -10.012375 C -19.00225 -10.024094 -19.029594 -10.043625 -19.045219 -10.055344 C -19.06475 -10.067062 -19.092094 -10.0905 -19.111625 -10.106125 C -19.131156 -10.12175 -19.166313 -10.149094 -19.18975 -10.168625 C -19.213188 -10.18425 -19.25225 -10.219406 -19.275688 -10.238937 C -19.303031 -10.262375 -19.346 -10.297531 -19.373344 -10.324875 C -19.400688 -10.348312 -19.447563 -10.391281 -19.478813 -10.418625 C -19.506156 -10.449875 -19.556938 -10.49675 -19.592094 -10.531906 C -19.623344 -10.563156 -19.678031 -10.62175 -19.713188 -10.656906 C -19.75225 -10.695969 -19.810844 -10.758469 -19.846 -10.801437 C -19.885063 -10.844406 -19.947563 -10.914719 -19.990531 -10.961594 C -20.029594 -11.012375 -20.099906 -11.0905 -20.142875 -11.145187 C -20.185844 -11.199875 -20.25225 -11.289719 -20.299125 -11.348312 C -20.342094 -11.406906 -20.416313 -11.508469 -20.463188 -11.574875 C -20.513969 -11.641281 -20.588188 -11.750656 -20.638969 -11.824875 C -20.68975 -11.899094 -20.767875 -12.024094 -20.818656 -12.102219 C -20.869438 -12.18425 -20.955375 -12.324875 -21.006156 -12.414719 C -21.060844 -12.508469 -21.146781 -12.656906 -21.201469 -12.758469 C -21.256156 -12.860031 -21.342094 -13.028 -21.396781 -13.137375 C -21.451469 -13.250656 -21.599906 -13.55925 -21.599906 -13.55925 C -21.385063 -14.082687 -21.197563 -14.363937 -20.799125 -14.766281 C -20.799125 -14.766281 -20.455375 -14.750656 -20.330375 -14.742844 C -20.205375 -14.735031 -20.017875 -14.7155 -19.904594 -14.703781 C -19.791313 -14.692062 -19.619438 -14.672531 -19.513969 -14.656906 C -19.4085 -14.645187 -19.25225 -14.617844 -19.154594 -14.602219 C -19.060844 -14.586594 -18.912406 -14.55925 -18.826469 -14.543625 C -18.736625 -14.524094 -18.607719 -14.49675 -18.529594 -14.477219 C -18.447563 -14.461594 -18.326469 -14.430344 -18.256156 -14.410812 C -18.181938 -14.391281 -18.068656 -14.360031 -18.006156 -14.3405 C -17.93975 -14.324875 -17.842094 -14.293625 -17.779594 -14.274094 C -17.721 -14.254562 -17.631156 -14.223312 -17.576469 -14.203781 C -17.521781 -14.18425 -17.443656 -14.153 -17.392875 -14.137375 C -17.346 -14.117844 -17.271781 -14.0905 -17.228813 -14.070969 C -17.185844 -14.051437 -17.119438 -14.024094 -17.080375 -14.008469 C -17.041313 -13.988937 -16.982719 -13.961594 -16.951469 -13.945969 C -16.916313 -13.930344 -16.865531 -13.906906 -16.838188 -13.891281 C -16.806938 -13.875656 -16.763969 -13.852219 -16.736625 -13.836594 C -16.709281 -13.824875 -16.674125 -13.801437 -16.650688 -13.789719 C -16.631156 -13.778 -16.596 -13.758469 -16.580375 -13.74675 C -16.560844 -13.735031 -16.5335 -13.719406 -16.517875 -13.711594 C -16.50225 -13.699875 -16.482719 -13.68425 -16.471 -13.676437 C -16.459281 -13.668625 -16.443656 -13.660812 -16.435844 -13.653 C -16.428031 -13.649094 -16.416313 -13.637375 -16.4085 -13.633469 C -16.404594 -13.629562 -16.396781 -13.625656 -16.392875 -13.62175 C -16.392875 -13.62175 -16.388969 -13.617844 -16.388969 -13.617844 L -15.045219 -12.500656 C -14.260063 -13.672531 -13.670219 -14.262375 -12.498344 -15.043625 L -13.619438 -16.391281 C -13.619438 -16.391281 -13.619438 -16.391281 -13.623344 -16.395187 C -13.623344 -16.395187 -13.631156 -16.403 -13.635063 -16.410812 C -13.638969 -16.414719 -13.646781 -16.426437 -13.650688 -16.43425 C -13.6585 -16.442062 -13.670219 -16.457687 -13.678031 -16.469406 C -13.685844 -16.481125 -13.697563 -16.500656 -13.709281 -16.516281 C -13.717094 -16.531906 -13.736625 -16.55925 -13.748344 -16.578781 C -13.760063 -16.598312 -13.779594 -16.629562 -13.791313 -16.653 C -13.803031 -16.672531 -13.822563 -16.711594 -13.838188 -16.735031 C -13.849906 -16.762375 -13.87725 -16.805344 -13.888969 -16.836594 C -13.904594 -16.867844 -13.931938 -16.918625 -13.947563 -16.949875 C -13.963188 -16.985031 -13.990531 -17.043625 -14.006156 -17.078781 C -14.025688 -17.117844 -14.053031 -17.18425 -14.068656 -17.227219 C -14.088188 -17.270187 -14.115531 -17.344406 -14.135063 -17.391281 C -14.154594 -17.438156 -14.185844 -17.520187 -14.205375 -17.574875 C -14.224906 -17.629562 -14.25225 -17.719406 -14.271781 -17.778 C -14.291313 -17.836594 -14.322563 -17.938156 -14.342094 -18.004562 C -14.361625 -18.070969 -14.392875 -18.180344 -14.412406 -18.250656 C -14.428031 -18.324875 -14.459281 -18.445969 -14.478813 -18.524094 C -14.494438 -18.606125 -14.525688 -18.735031 -14.541313 -18.824875 C -14.560844 -18.910812 -14.588188 -19.055344 -14.603813 -19.149094 C -14.619438 -19.24675 -14.642875 -19.406906 -14.6585 -19.512375 C -14.670219 -19.613937 -14.693656 -19.785812 -14.705375 -19.899094 C -14.717094 -20.012375 -14.732719 -20.203781 -14.740531 -20.328781 C -14.748344 -20.453781 -14.763969 -20.793625 -14.763969 -20.793625 C -14.365531 -21.192062 -14.084281 -21.383469 -13.56475 -21.602219 C -13.56475 -21.602219 -13.25225 -21.453781 -13.138969 -21.399094 C -13.029594 -21.344406 -12.861625 -21.258469 -12.763969 -21.203781 C -12.662406 -21.149094 -12.510063 -21.063156 -12.416313 -21.008469 C -12.326469 -20.957687 -12.18975 -20.87175 -12.107719 -20.820969 C -12.025688 -20.770187 -11.900688 -20.688156 -11.826469 -20.641281 C -11.75225 -20.5905 -11.642875 -20.512375 -11.576469 -20.4655 C -11.510063 -20.418625 -11.4085 -20.344406 -11.349906 -20.301437 C -11.291313 -20.254562 -11.197563 -20.18425 -11.146781 -20.141281 C -11.092094 -20.098312 -11.013969 -20.031906 -10.963188 -19.992844 C -10.916313 -19.949875 -10.846 -19.887375 -10.803031 -19.848312 C -10.760063 -19.80925 -10.697563 -19.750656 -10.6585 -19.7155 C -10.623344 -19.680344 -10.56475 -19.625656 -10.5335 -19.594406 C -10.498344 -19.55925 -10.447563 -19.508469 -10.420219 -19.477219 C -10.392875 -19.445969 -10.349906 -19.399094 -10.322563 -19.37175 C -10.299125 -19.344406 -10.260063 -19.301437 -10.240531 -19.278 C -10.217094 -19.250656 -10.185844 -19.211594 -10.166313 -19.188156 C -10.150688 -19.168625 -10.123344 -19.133469 -10.107719 -19.113937 C -10.092094 -19.094406 -10.068656 -19.063156 -10.056938 -19.047531 C -10.041313 -19.028 -10.025688 -19.004562 -10.013969 -18.988937 C -10.006156 -18.973312 -9.990531 -18.953781 -9.982719 -18.942062 C -9.974906 -18.930344 -9.963188 -18.914719 -9.959281 -18.903 C -9.955375 -18.895187 -9.947563 -18.883469 -9.943656 -18.875656 C -9.93975 -18.87175 -9.935844 -18.863937 -9.931938 -18.860031 C -9.931938 -18.856125 -9.931938 -18.856125 -9.931938 -18.856125 L -9.115531 -17.305344 C -7.947563 -18.086594 -7.170219 -18.406906 -5.791313 -18.680344 L -6.310844 -20.356125 C -6.310844 -20.356125 -6.310844 -20.356125 -6.310844 -20.360031 C -6.310844 -20.363937 -6.31475 -20.37175 -6.318656 -20.379562 C -6.318656 -20.383469 -6.322563 -20.399094 -6.322563 -20.406906 C -6.326469 -20.418625 -6.330375 -20.438156 -6.334281 -20.449875 C -6.338188 -20.4655 -6.342094 -20.488937 -6.342094 -20.508469 C -6.346 -20.524094 -6.353813 -20.55925 -6.357719 -20.578781 C -6.357719 -20.602219 -6.365531 -20.637375 -6.369438 -20.660812 C -6.373344 -20.688156 -6.37725 -20.731125 -6.381156 -20.758469 C -6.381156 -20.789719 -6.388969 -20.836594 -6.388969 -20.87175 C -6.392875 -20.903 -6.396781 -20.961594 -6.396781 -20.99675 C -6.400688 -21.035812 -6.404594 -21.098312 -6.404594 -21.141281 C -6.404594 -21.18425 -6.404594 -21.254562 -6.404594 -21.301437 C -6.404594 -21.348312 -6.404594 -21.426437 -6.404594 -21.477219 C -6.400688 -21.528 -6.400688 -21.613937 -6.396781 -21.672531 C -6.392875 -21.731125 -6.388969 -21.824875 -6.381156 -21.887375 C -6.37725 -21.949875 -6.369438 -22.055344 -6.361625 -22.12175 C -6.353813 -22.192062 -6.338188 -22.305344 -6.330375 -22.375656 C -6.318656 -22.449875 -6.299125 -22.574875 -6.287406 -22.656906 C -6.271781 -22.735031 -6.248344 -22.867844 -6.232719 -22.953781 C -6.213188 -23.043625 -6.185844 -23.188156 -6.162406 -23.281906 C -6.142875 -23.375656 -6.099906 -23.531906 -6.072563 -23.633469 C -6.045219 -23.735031 -6.00225 -23.903 -5.967094 -24.012375 C -5.935844 -24.12175 -5.87725 -24.305344 -5.838188 -24.422531 C -5.799125 -24.539719 -5.685844 -24.860031 -5.685844 -24.860031 C -5.162406 -25.078781 -4.830375 -25.145187 -4.263969 -25.149094 C -4.263969 -25.149094 -4.0335 -24.895187 -3.951469 -24.801437 C -3.869438 -24.707687 -3.748344 -24.55925 -3.678031 -24.473312 C -3.603813 -24.383469 -3.494438 -24.24675 -3.431938 -24.160812 C -3.369438 -24.078781 -3.275688 -23.949875 -3.217094 -23.87175 C -3.162406 -23.793625 -3.076469 -23.668625 -3.025688 -23.594406 C -2.978813 -23.520187 -2.904594 -23.406906 -2.861625 -23.3405 C -2.818656 -23.270187 -2.756156 -23.164719 -2.717094 -23.098312 C -2.678031 -23.035812 -2.623344 -22.93425 -2.588188 -22.87175 C -2.556938 -22.813156 -2.510063 -22.723312 -2.478813 -22.664719 C -2.451469 -22.610031 -2.4085 -22.524094 -2.385063 -22.473312 C -2.357719 -22.422531 -2.322563 -22.344406 -2.303031 -22.297531 C -2.2835 -22.24675 -2.25225 -22.176437 -2.232719 -22.133469 C -2.213188 -22.0905 -2.18975 -22.020187 -2.174125 -21.981125 C -2.1585 -21.942062 -2.135063 -21.883469 -2.123344 -21.848312 C -2.111625 -21.813156 -2.092094 -21.758469 -2.084281 -21.727219 C -2.072563 -21.695969 -2.056938 -21.649094 -2.049125 -21.617844 C -2.041313 -21.5905 -2.029594 -21.551437 -2.021781 -21.524094 C -2.013969 -21.500656 -2.006156 -21.4655 -2.00225 -21.445969 C -1.998344 -21.422531 -1.990531 -21.391281 -1.986625 -21.375656 C -1.982719 -21.356125 -1.978813 -21.332687 -1.974906 -21.317062 C -1.971 -21.305344 -1.967094 -21.285812 -1.967094 -21.278 C -1.963188 -21.266281 -1.963188 -21.250656 -1.963188 -21.242844 C -1.959281 -21.238937 -1.959281 -21.227219 -1.959281 -21.227219 C -1.959281 -21.223312 -1.959281 -21.219406 -1.959281 -21.219406 L -1.799125 -19.477219 C -0.424125 -19.750656 0.423531 -19.750656 1.798531 -19.477219 L 1.958687 -21.219406 C 1.958687 -21.219406 1.958687 -21.223312 1.958687 -21.227219 C 1.958687 -21.227219 1.958687 -21.238937 1.962594 -21.242844 C 1.962594 -21.250656 1.9665 -21.262375 1.9665 -21.274094 C 1.970406 -21.285812 1.970406 -21.305344 1.974312 -21.317062 C 1.978219 -21.332687 1.982125 -21.356125 1.986031 -21.37175 C 1.989937 -21.391281 1.99775 -21.422531 2.001656 -21.445969 C 2.005562 -21.4655 2.017281 -21.500656 2.021187 -21.524094 C 2.029 -21.551437 2.040719 -21.5905 2.048531 -21.617844 C 2.056344 -21.649094 2.071969 -21.695969 2.083687 -21.727219 C 2.0915 -21.758469 2.111031 -21.813156 2.12275 -21.848312 C 2.134469 -21.883469 2.157906 -21.942062 2.173531 -21.981125 C 2.189156 -22.020187 2.212594 -22.086594 2.232125 -22.129562 C 2.251656 -22.172531 2.279 -22.24675 2.302437 -22.293625 C 2.321969 -22.3405 2.357125 -22.418625 2.384469 -22.473312 C 2.407906 -22.524094 2.450875 -22.606125 2.478219 -22.664719 C 2.505562 -22.719406 2.556344 -22.813156 2.587594 -22.87175 C 2.62275 -22.93425 2.677437 -23.031906 2.7165 -23.094406 C 2.755562 -23.160812 2.818062 -23.270187 2.861031 -23.336594 C 2.904 -23.406906 2.978219 -23.520187 3.025094 -23.594406 C 3.075875 -23.668625 3.157906 -23.789719 3.2165 -23.867844 C 3.271187 -23.945969 3.368844 -24.074875 3.431344 -24.160812 C 3.493844 -24.242844 3.603219 -24.379562 3.673531 -24.469406 C 3.743844 -24.55925 3.868844 -24.703781 3.950875 -24.797531 C 4.032906 -24.891281 4.259469 -25.145187 4.259469 -25.145187 C 4.825875 -25.145187 5.157906 -25.078781 5.681344 -24.863937 C 5.681344 -24.863937 5.798531 -24.539719 5.837594 -24.422531 C 5.876656 -24.305344 5.93525 -24.125656 5.9665 -24.016281 C 6.001656 -23.906906 6.048531 -23.738937 6.075875 -23.637375 C 6.099312 -23.535812 6.138375 -23.379562 6.161812 -23.285812 C 6.181344 -23.192062 6.212594 -23.043625 6.232125 -22.957687 C 6.24775 -22.87175 6.271187 -22.738937 6.286812 -22.656906 C 6.298531 -22.578781 6.318062 -22.453781 6.329781 -22.379562 C 6.337594 -22.305344 6.353219 -22.192062 6.361031 -22.12175 C 6.368844 -22.055344 6.376656 -21.953781 6.380562 -21.891281 C 6.388375 -21.828781 6.392281 -21.731125 6.396187 -21.672531 C 6.400094 -21.617844 6.404 -21.531906 6.404 -21.477219 C 6.404 -21.426437 6.407906 -21.348312 6.407906 -21.301437 C 6.407906 -21.254562 6.404 -21.18425 6.404 -21.141281 C 6.404 -21.098312 6.400094 -21.035812 6.400094 -20.99675 C 6.396187 -20.961594 6.392281 -20.903 6.388375 -20.87175 C 6.388375 -20.836594 6.384469 -20.785812 6.380562 -20.758469 C 6.376656 -20.731125 6.37275 -20.688156 6.368844 -20.660812 C 6.364937 -20.637375 6.361031 -20.598312 6.357125 -20.578781 C 6.353219 -20.555344 6.349312 -20.524094 6.345406 -20.508469 C 6.3415 -20.488937 6.337594 -20.4655 6.333687 -20.449875 C 6.329781 -20.438156 6.325875 -20.418625 6.325875 -20.410812 C 6.321969 -20.399094 6.318062 -20.383469 6.318062 -20.379562 C 6.314156 -20.37175 6.314156 -20.363937 6.31025 -20.360031 C 6.31025 -20.356125 6.31025 -20.356125 6.31025 -20.356125 L 5.790719 -18.680344 C 7.169625 -18.406906 7.946969 -18.086594 9.114937 -17.305344 L 9.931344 -18.856125 C 9.931344 -18.856125 9.931344 -18.856125 9.931344 -18.860031 C 9.93525 -18.863937 9.939156 -18.87175 9.943062 -18.875656 C 9.946969 -18.883469 9.950875 -18.891281 9.958687 -18.903 C 9.962594 -18.910812 9.974312 -18.930344 9.982125 -18.942062 C 9.989937 -18.953781 10.001656 -18.973312 10.013375 -18.985031 C 10.025094 -19.000656 10.044625 -19.028 10.056344 -19.047531 C 10.068062 -19.063156 10.0915 -19.094406 10.107125 -19.113937 C 10.12275 -19.133469 10.150094 -19.168625 10.165719 -19.188156 C 10.18525 -19.211594 10.2165 -19.250656 10.239937 -19.278 C 10.259469 -19.301437 10.298531 -19.344406 10.321969 -19.37175 C 10.349312 -19.399094 10.392281 -19.445969 10.419625 -19.477219 C 10.446969 -19.508469 10.49775 -19.55925 10.532906 -19.5905 C 10.564156 -19.625656 10.618844 -19.680344 10.657906 -19.7155 C 10.696969 -19.750656 10.759469 -19.80925 10.802437 -19.848312 C 10.8415 -19.887375 10.915719 -19.949875 10.962594 -19.988937 C 11.009469 -20.031906 11.0915 -20.098312 11.146187 -20.141281 C 11.200875 -20.18425 11.286812 -20.254562 11.349312 -20.297531 C 11.407906 -20.344406 11.509469 -20.418625 11.575875 -20.4655 C 11.642281 -20.512375 11.751656 -20.5905 11.825875 -20.637375 C 11.900094 -20.688156 12.021187 -20.770187 12.103219 -20.820969 C 12.18525 -20.87175 12.325875 -20.953781 12.415719 -21.008469 C 12.505562 -21.05925 12.657906 -21.145187 12.759469 -21.199875 C 12.861031 -21.254562 13.029 -21.344406 13.138375 -21.399094 C 13.251656 -21.453781 13.56025 -21.598312 13.56025 -21.598312 C 14.079781 -21.383469 14.364937 -21.195969 14.767281 -20.797531 C 14.767281 -20.797531 14.751656 -20.453781 14.739937 -20.328781 C 14.732125 -20.207687 14.7165 -20.020187 14.704781 -19.903 C 14.693062 -19.789719 14.673531 -19.617844 14.657906 -19.512375 C 14.642281 -19.410812 14.618844 -19.250656 14.603219 -19.156906 C 14.587594 -19.05925 14.56025 -18.910812 14.544625 -18.824875 C 14.525094 -18.738937 14.49775 -18.606125 14.478219 -18.528 C 14.458687 -18.449875 14.431344 -18.328781 14.411812 -18.254562 C 14.392281 -18.180344 14.361031 -18.070969 14.3415 -18.004562 C 14.321969 -17.938156 14.294625 -17.8405 14.275094 -17.781906 C 14.255562 -17.723312 14.224312 -17.629562 14.204781 -17.578781 C 14.18525 -17.524094 14.154 -17.442062 14.134469 -17.395187 C 14.118844 -17.344406 14.087594 -17.274094 14.071969 -17.227219 C 14.052437 -17.18425 14.025094 -17.117844 14.005562 -17.082687 C 13.989937 -17.043625 13.962594 -16.985031 13.946969 -16.949875 C 13.931344 -16.918625 13.904 -16.867844 13.892281 -16.836594 C 13.876656 -16.805344 13.849312 -16.762375 13.837594 -16.735031 C 13.821969 -16.711594 13.802437 -16.672531 13.790719 -16.653 C 13.779 -16.629562 13.759469 -16.598312 13.74775 -16.578781 C 13.736031 -16.55925 13.720406 -16.535812 13.708687 -16.520187 C 13.700875 -16.504562 13.68525 -16.481125 13.677437 -16.469406 C 13.669625 -16.457687 13.657906 -16.445969 13.654 -16.43425 C 13.646187 -16.426437 13.638375 -16.414719 13.634469 -16.410812 C 13.630562 -16.403 13.626656 -16.395187 13.62275 -16.395187 C 13.618844 -16.391281 13.618844 -16.391281 13.618844 -16.391281 L 12.501656 -15.043625 C 13.669625 -14.262375 14.259469 -13.672531 15.044625 -12.500656 L 16.388375 -13.617844 C 16.388375 -13.617844 16.392281 -13.62175 16.396187 -13.62175 C 16.396187 -13.625656 16.404 -13.629562 16.407906 -13.633469 C 16.415719 -13.637375 16.423531 -13.645187 16.43525 -13.653 C 16.443062 -13.656906 16.458687 -13.668625 16.470406 -13.676437 C 16.482125 -13.68425 16.501656 -13.699875 16.517281 -13.707687 C 16.532906 -13.719406 16.56025 -13.735031 16.579781 -13.74675 C 16.599312 -13.758469 16.630562 -13.778 16.650094 -13.789719 C 16.673531 -13.801437 16.712594 -13.824875 16.736031 -13.836594 C 16.763375 -13.852219 16.806344 -13.875656 16.837594 -13.891281 C 16.864937 -13.906906 16.915719 -13.930344 16.950875 -13.945969 C 16.986031 -13.961594 17.040719 -13.988937 17.079781 -14.008469 C 17.118844 -14.024094 17.18525 -14.051437 17.228219 -14.070969 C 17.271187 -14.086594 17.3415 -14.117844 17.392281 -14.137375 C 17.439156 -14.153 17.521187 -14.18425 17.575875 -14.203781 C 17.630562 -14.223312 17.720406 -14.254562 17.779 -14.274094 C 17.837594 -14.293625 17.939156 -14.324875 18.005562 -14.3405 C 18.071969 -14.360031 18.181344 -14.391281 18.251656 -14.410812 C 18.325875 -14.430344 18.446969 -14.461594 18.525094 -14.477219 C 18.603219 -14.49675 18.736031 -14.524094 18.821969 -14.543625 C 18.907906 -14.55925 19.056344 -14.586594 19.150094 -14.602219 C 19.243844 -14.617844 19.407906 -14.641281 19.509469 -14.656906 C 19.614937 -14.672531 19.786812 -14.692062 19.900094 -14.703781 C 20.013375 -14.7155 20.204781 -14.731125 20.329781 -14.738937 C 20.450875 -14.750656 20.790719 -14.766281 20.790719 -14.766281 C 21.193062 -14.367844 21.384469 -14.086594 21.603219 -13.563156 C 21.603219 -13.563156 21.454781 -13.250656 21.400094 -13.141281 C 21.345406 -13.028 21.255562 -12.863937 21.204781 -12.762375 C 21.150094 -12.660812 21.06025 -12.508469 21.009469 -12.418625 C 20.954781 -12.328781 20.87275 -12.192062 20.821969 -12.110031 C 20.771187 -12.028 20.689156 -11.899094 20.638375 -11.828781 C 20.5915 -11.754562 20.513375 -11.641281 20.4665 -11.574875 C 20.419625 -11.508469 20.345406 -11.410812 20.302437 -11.348312 C 20.255562 -11.289719 20.18525 -11.199875 20.142281 -11.145187 C 20.099312 -11.0905 20.032906 -11.012375 19.989937 -10.9655 C 19.950875 -10.918625 19.888375 -10.844406 19.849312 -10.801437 C 19.81025 -10.762375 19.751656 -10.695969 19.7165 -10.660812 C 19.681344 -10.62175 19.626656 -10.567062 19.5915 -10.531906 C 19.56025 -10.500656 19.509469 -10.449875 19.478219 -10.418625 C 19.446969 -10.391281 19.400094 -10.348312 19.37275 -10.324875 C 19.345406 -10.297531 19.302437 -10.262375 19.275094 -10.238937 C 19.251656 -10.2155 19.212594 -10.18425 19.189156 -10.168625 C 19.165719 -10.149094 19.134469 -10.12175 19.111031 -10.106125 C 19.0915 -10.0905 19.064156 -10.067062 19.044625 -10.055344 C 19.029 -10.043625 19.001656 -10.024094 18.989937 -10.016281 C 18.974312 -10.004562 18.950875 -9.988937 18.939156 -9.981125 C 18.927437 -9.973312 18.911812 -9.9655 18.904 -9.957687 C 18.896187 -9.953781 18.884469 -9.945969 18.876656 -9.942062 C 18.868844 -9.938156 18.864937 -9.93425 18.861031 -9.93425 C 18.857125 -9.930344 18.853219 -9.930344 18.853219 -9.930344 L 17.306344 -9.113937 C 18.087594 -7.945969 18.407906 -7.168625 18.681344 -5.789719 L 20.353219 -6.30925 C 20.353219 -6.30925 20.357125 -6.30925 20.361031 -6.313156 C 20.364937 -6.313156 20.37275 -6.317062 20.376656 -6.317062 C 20.384469 -6.317062 20.396187 -6.320969 20.407906 -6.324875 C 20.419625 -6.324875 20.439156 -6.332687 20.450875 -6.332687 C 20.4665 -6.336594 20.489937 -6.3405 20.505562 -6.344406 C 20.525094 -6.348312 20.556344 -6.352219 20.579781 -6.356125 C 20.599312 -6.360031 20.638375 -6.363937 20.661812 -6.367844 C 20.68525 -6.37175 20.728219 -6.375656 20.759469 -6.379562 C 20.786812 -6.383469 20.837594 -6.387375 20.87275 -6.391281 C 20.904 -6.391281 20.962594 -6.395187 20.99775 -6.399094 C 21.036812 -6.399094 21.099312 -6.403 21.142281 -6.403 C 21.181344 -6.406906 21.255562 -6.406906 21.302437 -6.406906 C 21.345406 -6.406906 21.423531 -6.406906 21.478219 -6.403 C 21.529 -6.403 21.614937 -6.399094 21.673531 -6.395187 C 21.728219 -6.395187 21.825875 -6.387375 21.888375 -6.383469 C 21.950875 -6.375656 22.056344 -6.367844 22.12275 -6.360031 C 22.189156 -6.352219 22.302437 -6.3405 22.376656 -6.328781 C 22.450875 -6.317062 22.575875 -6.301437 22.654 -6.285812 C 22.736031 -6.274094 22.868844 -6.24675 22.954781 -6.231125 C 23.040719 -6.2155 23.189156 -6.18425 23.282906 -6.164719 C 23.376656 -6.141281 23.532906 -6.102219 23.634469 -6.074875 C 23.736031 -6.047531 23.904 -6.000656 24.013375 -5.969406 C 24.12275 -5.93425 24.302437 -5.879562 24.419625 -5.8405 C 24.540719 -5.797531 24.861031 -5.68425 24.861031 -5.68425 C 25.079781 -5.160812 25.146187 -4.832687 25.146187 -4.266281 C 25.146187 -4.266281 24.892281 -4.031906 24.798531 -3.949875 C 24.704781 -3.867844 24.56025 -3.74675 24.474312 -3.676437 C 24.384469 -3.606125 24.243844 -3.49675 24.161812 -3.43425 C 24.079781 -3.367844 23.950875 -3.274094 23.87275 -3.219406 C 23.790719 -3.160812 23.669625 -3.074875 23.595406 -3.028 C 23.521187 -2.977219 23.407906 -2.906906 23.337594 -2.863937 C 23.271187 -2.820969 23.161812 -2.754562 23.099312 -2.7155 C 23.032906 -2.680344 22.931344 -2.62175 22.87275 -2.5905 C 22.814156 -2.555344 22.720406 -2.508469 22.665719 -2.481125 C 22.611031 -2.449875 22.525094 -2.406906 22.474312 -2.383469 C 22.419625 -2.360031 22.3415 -2.324875 22.294625 -2.301437 C 22.24775 -2.281906 22.177437 -2.250656 22.134469 -2.231125 C 22.087594 -2.2155 22.021187 -2.188156 21.982125 -2.172531 C 21.943062 -2.156906 21.884469 -2.137375 21.849312 -2.12175 C 21.814156 -2.110031 21.759469 -2.094406 21.728219 -2.082687 C 21.696969 -2.070969 21.646187 -2.05925 21.618844 -2.051437 C 21.5915 -2.039719 21.548531 -2.028 21.525094 -2.024094 C 21.501656 -2.016281 21.4665 -2.008469 21.443062 -2.000656 C 21.423531 -1.99675 21.392281 -1.988937 21.376656 -1.985031 C 21.357125 -1.981125 21.333687 -1.977219 21.318062 -1.973312 C 21.306344 -1.973312 21.286812 -1.969406 21.275094 -1.9655 C 21.267281 -1.9655 21.251656 -1.961594 21.243844 -1.961594 C 21.236031 -1.961594 21.228219 -1.961594 21.224312 -1.957687 C 21.220406 -1.957687 21.220406 -1.957687 21.220406 -1.957687 L 19.478219 -1.797531 C 19.751656 -0.422531 19.751656 0.421219 19.478219 1.800125 L 21.220406 1.960281 C 21.220406 1.960281 21.220406 1.960281 21.224312 1.960281 C 21.228219 1.960281 21.236031 1.960281 21.243844 1.960281 C 21.251656 1.964188 21.263375 1.964188 21.275094 1.968094 C 21.282906 1.968094 21.306344 1.972 21.318062 1.975906 C 21.333687 1.975906 21.357125 1.979813 21.37275 1.983719 C 21.392281 1.987625 21.423531 1.995438 21.443062 2.00325 C 21.4665 2.007156 21.501656 2.014969 21.525094 2.022781 C 21.548531 2.030594 21.5915 2.042313 21.618844 2.050125 C 21.646187 2.057938 21.696969 2.073563 21.728219 2.081375 C 21.759469 2.093094 21.814156 2.112625 21.849312 2.124344 C 21.884469 2.136063 21.943062 2.1595 21.982125 2.171219 C 22.021187 2.186844 22.087594 2.214188 22.130562 2.233719 C 22.173531 2.249344 22.24775 2.280594 22.294625 2.300125 C 22.3415 2.323563 22.419625 2.358719 22.470406 2.382156 C 22.521187 2.405594 22.607125 2.448563 22.661812 2.479813 C 22.720406 2.507156 22.814156 2.557938 22.87275 2.589188 C 22.931344 2.620438 23.032906 2.679031 23.095406 2.714188 C 23.161812 2.75325 23.267281 2.819656 23.337594 2.862625 C 23.407906 2.905594 23.521187 2.975906 23.595406 3.026688 C 23.665719 3.077469 23.786812 3.1595 23.868844 3.214188 C 23.946969 3.272781 24.075875 3.366531 24.157906 3.432938 C 24.243844 3.495438 24.380562 3.600906 24.470406 3.675125 C 24.556344 3.745438 24.704781 3.870438 24.798531 3.948563 C 24.892281 4.030594 25.142281 4.261063 25.142281 4.261063 C 25.146187 4.827469 25.079781 5.1595 24.864937 5.682938 C 24.864937 5.682938 24.540719 5.800125 24.423531 5.839188 C 24.306344 5.87825 24.126656 5.936844 24.017281 5.968094 C 23.907906 5.999344 23.739937 6.046219 23.638375 6.073563 C 23.536812 6.100906 23.380562 6.139969 23.286812 6.1595 C 23.193062 6.182938 23.044625 6.214188 22.958687 6.229813 C 22.868844 6.249344 22.736031 6.272781 22.657906 6.2845 C 22.575875 6.300125 22.454781 6.319656 22.380562 6.327469 C 22.306344 6.339188 22.189156 6.354813 22.12275 6.358719 C 22.056344 6.366531 21.950875 6.37825 21.888375 6.382156 C 21.825875 6.386063 21.732125 6.393875 21.673531 6.397781 C 21.618844 6.397781 21.529 6.401688 21.478219 6.405594 C 21.427437 6.405594 21.349312 6.405594 21.302437 6.405594 C 21.255562 6.405594 21.181344 6.405594 21.142281 6.405594 C 21.099312 6.401688 21.036812 6.401688 20.99775 6.397781 C 20.962594 6.397781 20.904 6.393875 20.87275 6.389969 C 20.837594 6.386063 20.786812 6.382156 20.759469 6.37825 C 20.728219 6.37825 20.68525 6.370438 20.661812 6.366531 C 20.638375 6.366531 20.599312 6.358719 20.579781 6.354813 C 20.556344 6.354813 20.525094 6.347 20.509469 6.343094 C 20.489937 6.343094 20.4665 6.335281 20.450875 6.335281 C 20.439156 6.331375 20.419625 6.327469 20.407906 6.323563 C 20.400094 6.323563 20.384469 6.319656 20.376656 6.31575 C 20.37275 6.31575 20.364937 6.311844 20.361031 6.311844 C 20.357125 6.311844 20.353219 6.307938 20.353219 6.307938 Z M 18.681344 5.792313 " transform="matrix(1, 0, 0, -1, 25.346, 25.347)"/>
</g>
</svg>
