<?xml version="1.0" encoding="UTF-8"?>
<svg xmlns="http://www.w3.org/2000/svg" xmlns:xlink="http://www.w3.org/1999/xlink" width="289.102pt" height="300.779pt" viewBox="0 0 289.102 300.779" version="1.1">
<defs>
<clipPath id="clip1">
  <path d="M 0 0 L 289.101562 0 L 289.101562 300.777344 L 0 300.777344 Z M 0 0 "/>
</clipPath>
<clipPath id="clip2">
  <path d="M 89 281 L 115 281 L 115 300.777344 L 89 300.777344 Z M 89 281 "/>
</clipPath>
<clipPath id="clip3">
  <path d="M 145 281 L 172 281 L 172 300.777344 L 145 300.777344 Z M 145 281 "/>
</clipPath>
<clipPath id="clip4">
  <path d="M 43 281 L 70 281 L 70 300.777344 L 43 300.777344 Z M 43 281 "/>
</clipPath>
<clipPath id="clip5">
  <path d="M 202 281 L 229 281 L 229 300.777344 L 202 300.777344 Z M 202 281 "/>
</clipPath>
<clipPath id="clip6">
  <path d="M 237 175 L 289.101562 175 L 289.101562 244 L 237 244 Z M 237 175 "/>
</clipPath>
</defs>
<g id="surface1">
<g clip-path="url(#clip1)" clip-rule="nonzero">
<path style=" stroke:none;fill-rule:nonzero;fill:rgb(0%,0%,0%);fill-opacity:1;" d="M 0 300.777344 L 0 -0.00390625 L 289.105469 -0.00390625 L 289.105469 300.777344 Z M 0 300.777344 "/>
</g>
<path style="fill:none;stroke-width:0.79701;stroke-linecap:butt;stroke-linejoin:miter;stroke:rgb(100%,100%,100%);stroke-opacity:1;stroke-miterlimit:10;" d="M 85.039188 0.00009375 L 340.160281 0.00009375 M 85.039188 113.386813 L 85.039188 68.59775 M 85.039188 44.789156 L 85.039188 0.00009375 M 85.039188 113.386813 L 85.039188 137.765719 M 85.039188 145.703219 L 85.039188 170.082125 L 283.468875 170.082125 M 124.726688 113.386813 L 124.726688 125.859469 M 124.726688 157.609469 L 124.726688 170.082125 M 124.726688 113.386813 L 147.402469 113.386813 M 124.726688 170.082125 L 124.726688 222.804781 M 124.726688 230.742281 L 124.726688 283.468844 L 170.082156 283.468844 M 170.082156 0.00009375 L 170.082156 26.644625 M 170.082156 58.394625 L 170.082156 85.039156 M 170.082156 85.039156 L 170.082156 91.558688 M 170.082156 135.214938 L 170.082156 141.734469 M 226.773563 0.00009375 L 226.773563 38.550875 M 226.773563 46.488375 L 226.773563 85.039156 L 170.082156 85.039156 M 124.726688 0.00009375 L 124.726688 40.820406 M 124.726688 72.5665 L 124.726688 113.386813 M 170.082156 141.734469 L 170.082156 170.082125 M 170.082156 283.468844 L 170.082156 242.648531 M 170.082156 210.898531 L 170.082156 170.082125 M 170.082156 283.468844 L 210.898563 283.468844 M 242.648563 283.468844 L 283.468875 283.468844 M 283.468875 170.082125 L 283.468875 204.949313 M 283.468875 248.601656 L 283.468875 283.468844 M 185.95325 226.773531 L 204.664188 226.773531 M 236.414188 226.773531 L 255.687625 226.773531 L 255.687625 219.132906 M 283.468875 85.039156 L 283.468875 91.558688 M 283.468875 135.214938 L 283.468875 141.734469 M 283.468875 0.00009375 L 283.468875 45.781344 M 283.468875 45.781344 L 283.468875 91.558688 M 170.082156 141.734469 L 196.726688 141.734469 M 228.476688 141.734469 L 255.687625 141.734469 L 255.687625 121.027438 M 283.468875 170.082125 L 307.847781 170.082125 M 315.785281 170.082125 L 340.160281 170.082125 L 340.160281 96.945406 M 340.160281 73.132906 L 340.160281 0.00009375 M 283.468875 204.949313 L 283.468875 135.214938 " transform="matrix(1,0,0,-1,-68.047,294.504)"/>
<path style="fill:none;stroke-width:1.59404;stroke-linecap:butt;stroke-linejoin:miter;stroke:rgb(100%,100%,100%);stroke-opacity:1;stroke-miterlimit:10;" d="M 96.945438 56.695406 C 96.945438 63.269625 91.617313 68.59775 85.039188 68.59775 C 78.464969 68.59775 73.132938 63.269625 73.132938 56.695406 C 73.132938 50.117281 78.464969 44.789156 85.039188 44.789156 C 91.617313 44.789156 96.945438 50.117281 96.945438 56.695406 Z M 96.945438 56.695406 " transform="matrix(1,0,0,-1,-68.047,294.504)"/>
<path style="fill:none;stroke-width:1.59404;stroke-linecap:butt;stroke-linejoin:miter;stroke:rgb(100%,100%,100%);stroke-opacity:1;stroke-miterlimit:10;" d="M 85.039188 68.59775 L 85.039188 44.789156 " transform="matrix(1,0,0,-1,-68.047,294.504)"/>
<path style="fill:none;stroke-width:1.59404;stroke-linecap:butt;stroke-linejoin:miter;stroke:rgb(100%,100%,100%);stroke-opacity:1;stroke-miterlimit:10;" d="M 73.132938 137.765719 L 96.945438 137.765719 M 73.132938 145.703219 L 96.945438 145.703219 " transform="matrix(1,0,0,-1,-68.047,294.504)"/>
<path style="fill:none;stroke-width:1.59404;stroke-linecap:butt;stroke-linejoin:miter;stroke:rgb(100%,100%,100%);stroke-opacity:1;stroke-miterlimit:10;" d="M 130.679813 157.609469 L 130.679813 125.859469 L 118.773563 125.859469 L 118.773563 157.609469 Z M 130.679813 157.609469 " transform="matrix(1,0,0,-1,-68.047,294.504)"/>
<path style="fill:none;stroke-width:1.59404;stroke-linecap:butt;stroke-linejoin:miter;stroke:rgb(100%,100%,100%);stroke-opacity:1;stroke-miterlimit:10;" d="M 112.820438 222.804781 L 136.632938 222.804781 M 112.820438 230.742281 L 136.632938 230.742281 " transform="matrix(1,0,0,-1,-68.047,294.504)"/>
<path style="fill-rule:nonzero;fill:rgb(100%,100%,100%);fill-opacity:1;stroke-width:0.79701;stroke-linecap:butt;stroke-linejoin:miter;stroke:rgb(100%,100%,100%);stroke-opacity:1;stroke-miterlimit:10;" d="M 126.312625 170.082125 C 126.312625 170.957125 125.601688 171.668063 124.726688 171.668063 C 123.847781 171.668063 123.136844 170.957125 123.136844 170.082125 C 123.136844 169.203219 123.847781 168.492281 124.726688 168.492281 C 125.601688 168.492281 126.312625 169.203219 126.312625 170.082125 Z M 126.312625 170.082125 " transform="matrix(1,0,0,-1,-68.047,294.504)"/>
<path style="fill:none;stroke-width:1.59404;stroke-linecap:butt;stroke-linejoin:miter;stroke:rgb(100%,100%,100%);stroke-opacity:1;stroke-miterlimit:10;" d="M 176.035281 58.394625 L 176.035281 26.644625 L 164.129031 26.644625 L 164.129031 58.394625 Z M 176.035281 58.394625 " transform="matrix(1,0,0,-1,-68.047,294.504)"/>
<path style=" stroke:none;fill-rule:nonzero;fill:rgb(100%,100%,100%);fill-opacity:1;" d="M 103.621094 294.503906 C 103.621094 293.628906 102.910156 292.917969 102.035156 292.917969 C 101.15625 292.917969 100.445312 293.628906 100.445312 294.503906 C 100.445312 295.378906 101.15625 296.089844 102.035156 296.089844 C 102.910156 296.089844 103.621094 295.378906 103.621094 294.503906 Z M 103.621094 294.503906 "/>
<g clip-path="url(#clip2)" clip-rule="nonzero">
<path style="fill:none;stroke-width:0.79701;stroke-linecap:butt;stroke-linejoin:miter;stroke:rgb(100%,100%,100%);stroke-opacity:1;stroke-miterlimit:10;" d="M 171.668094 0.00009375 C 171.668094 0.875094 170.957156 1.586031 170.082156 1.586031 C 169.20325 1.586031 168.492313 0.875094 168.492313 0.00009375 C 168.492313 -0.874906 169.20325 -1.585844 170.082156 -1.585844 C 170.957156 -1.585844 171.668094 -0.874906 171.668094 0.00009375 Z M 171.668094 0.00009375 " transform="matrix(1,0,0,-1,-68.047,294.504)"/>
</g>
<path style="fill-rule:nonzero;fill:rgb(100%,100%,100%);fill-opacity:1;stroke-width:0.79701;stroke-linecap:butt;stroke-linejoin:miter;stroke:rgb(100%,100%,100%);stroke-opacity:1;stroke-miterlimit:10;" d="M 171.668094 85.039156 C 171.668094 85.918063 170.957156 86.629 170.082156 86.629 C 169.20325 86.629 168.492313 85.918063 168.492313 85.039156 C 168.492313 84.164156 169.20325 83.453219 170.082156 83.453219 C 170.957156 83.453219 171.668094 84.164156 171.668094 85.039156 Z M 171.668094 85.039156 " transform="matrix(1,0,0,-1,-68.047,294.504)"/>
<path style="fill:none;stroke-width:0.79701;stroke-linecap:butt;stroke-linejoin:miter;stroke:rgb(100%,100%,100%);stroke-opacity:1;stroke-miterlimit:10;" d="M 170.082156 135.613375 L 170.082156 122.117281 L 158.175906 116.66025 " transform="matrix(1,0,0,-1,-68.047,294.504)"/>
<path style="fill:none;stroke-width:1.59404;stroke-linecap:butt;stroke-linejoin:miter;stroke:rgb(100%,100%,100%);stroke-opacity:1;stroke-miterlimit:10;" d="M 158.175906 122.117281 L 158.175906 104.656344 " transform="matrix(1,0,0,-1,-68.047,294.504)"/>
<path style="fill:none;stroke-width:0.79701;stroke-linecap:butt;stroke-linejoin:miter;stroke:rgb(100%,100%,100%);stroke-opacity:1;stroke-miterlimit:10;" d="M 158.175906 110.113375 L 170.082156 104.656344 L 170.082156 91.16025 " transform="matrix(1,0,0,-1,-68.047,294.504)"/>
<path style=" stroke:none;fill-rule:nonzero;fill:rgb(100%,100%,100%);fill-opacity:1;" d="M 94.140625 186.230469 L 95.21875 183.875 L 99.597656 188.730469 L 93.0625 188.582031 Z M 94.140625 186.230469 "/>
<path style="fill:none;stroke-width:0.79701;stroke-linecap:butt;stroke-linejoin:miter;stroke:rgb(100%,100%,100%);stroke-opacity:1;stroke-miterlimit:10;" d="M 158.175906 113.386813 L 145.871219 113.386813 " transform="matrix(1,0,0,-1,-68.047,294.504)"/>
<path style="fill:none;stroke-width:1.59404;stroke-linecap:butt;stroke-linejoin:miter;stroke:rgb(100%,100%,100%);stroke-opacity:1;stroke-miterlimit:10;" d="M 214.867313 38.550875 L 238.679813 38.550875 M 214.867313 46.488375 L 238.679813 46.488375 " transform="matrix(1,0,0,-1,-68.047,294.504)"/>
<path style=" stroke:none;fill-rule:nonzero;fill:rgb(100%,100%,100%);fill-opacity:1;" d="M 160.316406 294.503906 C 160.316406 293.628906 159.605469 292.917969 158.726562 292.917969 C 157.851562 292.917969 157.140625 293.628906 157.140625 294.503906 C 157.140625 295.378906 157.851562 296.089844 158.726562 296.089844 C 159.605469 296.089844 160.316406 295.378906 160.316406 294.503906 Z M 160.316406 294.503906 "/>
<g clip-path="url(#clip3)" clip-rule="nonzero">
<path style="fill:none;stroke-width:0.79701;stroke-linecap:butt;stroke-linejoin:miter;stroke:rgb(100%,100%,100%);stroke-opacity:1;stroke-miterlimit:10;" d="M 228.363406 0.00009375 C 228.363406 0.875094 227.652469 1.586031 226.773563 1.586031 C 225.898563 1.586031 225.187625 0.875094 225.187625 0.00009375 C 225.187625 -0.874906 225.898563 -1.585844 226.773563 -1.585844 C 227.652469 -1.585844 228.363406 -0.874906 228.363406 0.00009375 Z M 228.363406 0.00009375 " transform="matrix(1,0,0,-1,-68.047,294.504)"/>
</g>
<path style="fill:none;stroke-width:1.59404;stroke-linecap:butt;stroke-linejoin:miter;stroke:rgb(100%,100%,100%);stroke-opacity:1;stroke-miterlimit:10;" d="M 130.679813 72.5665 L 130.679813 40.820406 L 118.773563 40.820406 L 118.773563 72.5665 Z M 130.679813 72.5665 " transform="matrix(1,0,0,-1,-68.047,294.504)"/>
<path style=" stroke:none;fill-rule:nonzero;fill:rgb(100%,100%,100%);fill-opacity:1;" d="M 58.265625 294.503906 C 58.265625 293.628906 57.554688 292.917969 56.679688 292.917969 C 55.800781 292.917969 55.089844 293.628906 55.089844 294.503906 C 55.089844 295.378906 55.800781 296.089844 56.679688 296.089844 C 57.554688 296.089844 58.265625 295.378906 58.265625 294.503906 Z M 58.265625 294.503906 "/>
<g clip-path="url(#clip4)" clip-rule="nonzero">
<path style="fill:none;stroke-width:0.79701;stroke-linecap:butt;stroke-linejoin:miter;stroke:rgb(100%,100%,100%);stroke-opacity:1;stroke-miterlimit:10;" d="M 126.312625 0.00009375 C 126.312625 0.875094 125.601688 1.586031 124.726688 1.586031 C 123.847781 1.586031 123.136844 0.875094 123.136844 0.00009375 C 123.136844 -0.874906 123.847781 -1.585844 124.726688 -1.585844 C 125.601688 -1.585844 126.312625 -0.874906 126.312625 0.00009375 Z M 126.312625 0.00009375 " transform="matrix(1,0,0,-1,-68.047,294.504)"/>
</g>
<path style="fill-rule:nonzero;fill:rgb(100%,100%,100%);fill-opacity:1;stroke-width:0.79701;stroke-linecap:butt;stroke-linejoin:miter;stroke:rgb(100%,100%,100%);stroke-opacity:1;stroke-miterlimit:10;" d="M 126.312625 113.386813 C 126.312625 114.265719 125.601688 114.97275 124.726688 114.97275 C 123.847781 114.97275 123.136844 114.265719 123.136844 113.386813 C 123.136844 112.511813 123.847781 111.800875 124.726688 111.800875 C 125.601688 111.800875 126.312625 112.511813 126.312625 113.386813 Z M 126.312625 113.386813 " transform="matrix(1,0,0,-1,-68.047,294.504)"/>
<path style="fill:none;stroke-width:1.59404;stroke-linecap:butt;stroke-linejoin:miter;stroke:rgb(100%,100%,100%);stroke-opacity:1;stroke-miterlimit:10;" d="M 164.129031 210.898531 L 164.129031 242.648531 L 176.035281 242.648531 L 176.035281 210.898531 Z M 164.129031 210.898531 " transform="matrix(1,0,0,-1,-68.047,294.504)"/>
<path style="fill:none;stroke-width:0.79701;stroke-linecap:butt;stroke-linejoin:miter;stroke:rgb(100%,100%,100%);stroke-opacity:1;stroke-miterlimit:10;" d="M 185.95325 226.773531 L 179.14075 226.773531 " transform="matrix(1,0,0,-1,-68.047,294.504)"/>
<path style=" stroke:none;fill-rule:nonzero;fill:rgb(100%,100%,100%);fill-opacity:1;" d="M 107.988281 67.730469 C 109.28125 67.988281 111.613281 68.507812 113.167969 69.671875 C 111.871094 68.246094 111.871094 67.210938 113.167969 65.785156 C 111.613281 66.953125 109.28125 67.46875 107.988281 67.730469 Z M 107.988281 67.730469 "/>
<path style="fill-rule:nonzero;fill:rgb(100%,100%,100%);fill-opacity:1;stroke-width:0.79701;stroke-linecap:butt;stroke-linejoin:miter;stroke:rgb(100%,100%,100%);stroke-opacity:1;stroke-miterlimit:10;" d="M 171.668094 283.468844 C 171.668094 284.343844 170.957156 285.054781 170.082156 285.054781 C 169.20325 285.054781 168.492313 284.343844 168.492313 283.468844 C 168.492313 282.589938 169.20325 281.879 170.082156 281.879 C 170.957156 281.879 171.668094 282.589938 171.668094 283.468844 Z M 171.668094 283.468844 " transform="matrix(1,0,0,-1,-68.047,294.504)"/>
<path style="fill:none;stroke-width:1.59404;stroke-linecap:butt;stroke-linejoin:miter;stroke:rgb(100%,100%,100%);stroke-opacity:1;stroke-miterlimit:10;" d="M 210.898563 289.421969 L 242.648563 289.421969 L 242.648563 277.515719 L 210.898563 277.515719 Z M 210.898563 289.421969 " transform="matrix(1,0,0,-1,-68.047,294.504)"/>
<path style="fill-rule:nonzero;fill:rgb(100%,100%,100%);fill-opacity:1;stroke-width:0.79701;stroke-linecap:butt;stroke-linejoin:miter;stroke:rgb(100%,100%,100%);stroke-opacity:1;stroke-miterlimit:10;" d="M 171.668094 283.468844 C 171.668094 284.343844 170.957156 285.054781 170.082156 285.054781 C 169.20325 285.054781 168.492313 284.343844 168.492313 283.468844 C 168.492313 282.589938 169.20325 281.879 170.082156 281.879 C 170.957156 281.879 171.668094 282.589938 171.668094 283.468844 Z M 171.668094 283.468844 " transform="matrix(1,0,0,-1,-68.047,294.504)"/>
<path style="fill:none;stroke-width:0.79701;stroke-linecap:butt;stroke-linejoin:miter;stroke:rgb(100%,100%,100%);stroke-opacity:1;stroke-miterlimit:10;" d="M 283.468875 249.000094 L 283.468875 234.414156 L 269.57825 234.414156 " transform="matrix(1,0,0,-1,-68.047,294.504)"/>
<path style="fill:none;stroke-width:1.59404;stroke-linecap:butt;stroke-linejoin:miter;stroke:rgb(100%,100%,100%);stroke-opacity:1;stroke-miterlimit:10;" d="M 269.57825 237.687594 L 269.57825 215.859469 " transform="matrix(1,0,0,-1,-68.047,294.504)"/>
<path style="fill:none;stroke-width:0.79701;stroke-linecap:butt;stroke-linejoin:miter;stroke:rgb(100%,100%,100%);stroke-opacity:1;stroke-miterlimit:10;" d="M 269.57825 226.773531 L 283.867313 226.773531 M 269.57825 219.132906 L 283.468875 219.132906 L 283.468875 204.546969 " transform="matrix(1,0,0,-1,-68.047,294.504)"/>
<path style="fill:none;stroke-width:1.59404;stroke-linecap:butt;stroke-linejoin:miter;stroke:rgb(100%,100%,100%);stroke-opacity:1;stroke-miterlimit:10;" d="M 266.246219 234.812594 L 266.246219 218.734469 " transform="matrix(1,0,0,-1,-68.047,294.504)"/>
<path style=" stroke:none;fill-rule:nonzero;fill:rgb(100%,100%,100%);fill-opacity:1;" d="M 209.222656 67.730469 L 209.222656 70.320312 L 203.21875 67.730469 L 209.222656 65.140625 Z M 209.222656 67.730469 "/>
<path style="fill:none;stroke-width:0.79701;stroke-linecap:butt;stroke-linejoin:miter;stroke:rgb(100%,100%,100%);stroke-opacity:1;stroke-miterlimit:10;" d="M 266.246219 219.132906 L 255.289188 219.132906 " transform="matrix(1,0,0,-1,-68.047,294.504)"/>
<path style="fill:none;stroke-width:0.79701;stroke-linecap:butt;stroke-linejoin:miter;stroke:rgb(100%,100%,100%);stroke-opacity:1;stroke-miterlimit:10;" d="M 283.468875 226.773531 L 283.468875 204.949313 " transform="matrix(1,0,0,-1,-68.047,294.504)"/>
<path style="fill:none;stroke-width:1.59404;stroke-linecap:butt;stroke-linejoin:miter;stroke:rgb(100%,100%,100%);stroke-opacity:1;stroke-miterlimit:10;" d="M 204.664188 232.726656 L 236.414188 232.726656 L 236.414188 220.820406 L 204.664188 220.820406 Z M 204.664188 232.726656 " transform="matrix(1,0,0,-1,-68.047,294.504)"/>
<path style="fill:none;stroke-width:0.79701;stroke-linecap:butt;stroke-linejoin:miter;stroke:rgb(100%,100%,100%);stroke-opacity:1;stroke-miterlimit:10;" d="M 283.468875 135.613375 L 283.468875 121.027438 L 269.57825 121.027438 " transform="matrix(1,0,0,-1,-68.047,294.504)"/>
<path style="fill:none;stroke-width:1.59404;stroke-linecap:butt;stroke-linejoin:miter;stroke:rgb(100%,100%,100%);stroke-opacity:1;stroke-miterlimit:10;" d="M 269.57825 124.300875 L 269.57825 102.47275 " transform="matrix(1,0,0,-1,-68.047,294.504)"/>
<path style="fill:none;stroke-width:0.79701;stroke-linecap:butt;stroke-linejoin:miter;stroke:rgb(100%,100%,100%);stroke-opacity:1;stroke-miterlimit:10;" d="M 269.57825 113.386813 L 283.867313 113.386813 M 269.57825 105.746188 L 283.468875 105.746188 L 283.468875 91.16025 " transform="matrix(1,0,0,-1,-68.047,294.504)"/>
<path style="fill:none;stroke-width:1.59404;stroke-linecap:butt;stroke-linejoin:miter;stroke:rgb(100%,100%,100%);stroke-opacity:1;stroke-miterlimit:10;" d="M 266.246219 121.425875 L 266.246219 105.34775 " transform="matrix(1,0,0,-1,-68.047,294.504)"/>
<path style=" stroke:none;fill-rule:nonzero;fill:rgb(100%,100%,100%);fill-opacity:1;" d="M 204.953125 181.117188 L 204.953125 178.527344 L 210.957031 181.117188 L 204.953125 183.707031 Z M 204.953125 181.117188 "/>
<path style="fill:none;stroke-width:0.79701;stroke-linecap:butt;stroke-linejoin:miter;stroke:rgb(100%,100%,100%);stroke-opacity:1;stroke-miterlimit:10;" d="M 266.246219 121.027438 L 255.289188 121.027438 " transform="matrix(1,0,0,-1,-68.047,294.504)"/>
<path style="fill:none;stroke-width:0.79701;stroke-linecap:butt;stroke-linejoin:miter;stroke:rgb(100%,100%,100%);stroke-opacity:1;stroke-miterlimit:10;" d="M 283.468875 113.386813 L 283.468875 135.214938 " transform="matrix(1,0,0,-1,-68.047,294.504)"/>
<path style=" stroke:none;fill-rule:nonzero;fill:rgb(100%,100%,100%);fill-opacity:1;" d="M 217.007812 294.503906 C 217.007812 293.628906 216.296875 292.917969 215.421875 292.917969 C 214.542969 292.917969 213.832031 293.628906 213.832031 294.503906 C 213.832031 295.378906 214.542969 296.089844 215.421875 296.089844 C 216.296875 296.089844 217.007812 295.378906 217.007812 294.503906 Z M 217.007812 294.503906 "/>
<g clip-path="url(#clip5)" clip-rule="nonzero">
<path style="fill:none;stroke-width:0.79701;stroke-linecap:butt;stroke-linejoin:miter;stroke:rgb(100%,100%,100%);stroke-opacity:1;stroke-miterlimit:10;" d="M 285.054813 0.00009375 C 285.054813 0.875094 284.343875 1.586031 283.468875 1.586031 C 282.589969 1.586031 281.879031 0.875094 281.879031 0.00009375 C 281.879031 -0.874906 282.589969 -1.585844 283.468875 -1.585844 C 284.343875 -1.585844 285.054813 -0.874906 285.054813 0.00009375 Z M 285.054813 0.00009375 " transform="matrix(1,0,0,-1,-68.047,294.504)"/>
</g>
<path style="fill:none;stroke-width:1.59404;stroke-linecap:butt;stroke-linejoin:miter;stroke:rgb(100%,100%,100%);stroke-opacity:1;stroke-miterlimit:10;" d="M 196.726688 147.687594 L 228.476688 147.687594 L 228.476688 135.781344 L 196.726688 135.781344 Z M 196.726688 147.687594 " transform="matrix(1,0,0,-1,-68.047,294.504)"/>
<path style="fill-rule:nonzero;fill:rgb(100%,100%,100%);fill-opacity:1;stroke-width:0.79701;stroke-linecap:butt;stroke-linejoin:miter;stroke:rgb(100%,100%,100%);stroke-opacity:1;stroke-miterlimit:10;" d="M 171.668094 141.734469 C 171.668094 142.609469 170.957156 143.320406 170.082156 143.320406 C 169.20325 143.320406 168.492313 142.609469 168.492313 141.734469 C 168.492313 140.855563 169.20325 140.148531 170.082156 140.148531 C 170.957156 140.148531 171.668094 140.855563 171.668094 141.734469 Z M 171.668094 141.734469 " transform="matrix(1,0,0,-1,-68.047,294.504)"/>
<path style="fill:none;stroke-width:1.59404;stroke-linecap:butt;stroke-linejoin:miter;stroke:rgb(100%,100%,100%);stroke-opacity:1;stroke-miterlimit:10;" d="M 307.847781 181.988375 L 307.847781 158.175875 M 315.785281 181.988375 L 315.785281 158.175875 " transform="matrix(1,0,0,-1,-68.047,294.504)"/>
<path style="fill-rule:nonzero;fill:rgb(100%,100%,100%);fill-opacity:1;stroke-width:0.79701;stroke-linecap:butt;stroke-linejoin:miter;stroke:rgb(100%,100%,100%);stroke-opacity:1;stroke-miterlimit:10;" d="M 285.054813 170.082125 C 285.054813 170.957125 284.343875 171.668063 283.468875 171.668063 C 282.589969 171.668063 281.879031 170.957125 281.879031 170.082125 C 281.879031 169.203219 282.589969 168.492281 283.468875 168.492281 C 284.343875 168.492281 285.054813 169.203219 285.054813 170.082125 Z M 285.054813 170.082125 " transform="matrix(1,0,0,-1,-68.047,294.504)"/>
<g clip-path="url(#clip6)" clip-rule="nonzero">
<path style="fill:none;stroke-width:1.59404;stroke-linecap:butt;stroke-linejoin:miter;stroke:rgb(100%,100%,100%);stroke-opacity:1;stroke-miterlimit:10;" d="M 352.066531 85.039156 C 352.066531 91.617281 346.738406 96.945406 340.160281 96.945406 C 333.586063 96.945406 328.257938 91.617281 328.257938 85.039156 C 328.257938 78.464938 333.586063 73.132906 340.160281 73.132906 C 346.738406 73.132906 352.066531 78.464938 352.066531 85.039156 Z M 352.066531 85.039156 " transform="matrix(1,0,0,-1,-68.047,294.504)"/>
</g>
<path style="fill:none;stroke-width:1.59404;stroke-linecap:butt;stroke-linejoin:miter;stroke:rgb(100%,100%,100%);stroke-opacity:1;stroke-miterlimit:10;" d="M 340.160281 96.945406 L 340.160281 73.132906 " transform="matrix(1,0,0,-1,-68.047,294.504)"/>
</g>
</svg>
