<?xml version="1.0" encoding="UTF-8"?>
<svg xmlns="http://www.w3.org/2000/svg" xmlns:xlink="http://www.w3.org/1999/xlink" width="280.523" height="292.2" viewBox="0 0 280.523 292.2">
<defs>
<clipPath id="clip-0">
<path clip-rule="nonzero" d="M 84 277 L 111 277 L 111 292.199219 L 84 292.199219 Z M 84 277 "/>
</clipPath>
<clipPath id="clip-1">
<path clip-rule="nonzero" d="M 141 277 L 168 277 L 168 292.199219 L 141 292.199219 Z M 141 277 "/>
</clipPath>
<clipPath id="clip-2">
<path clip-rule="nonzero" d="M 39 277 L 66 277 L 66 292.199219 L 39 292.199219 Z M 39 277 "/>
</clipPath>
<clipPath id="clip-3">
<path clip-rule="nonzero" d="M 198 277 L 224 277 L 224 292.199219 L 198 292.199219 Z M 198 277 "/>
</clipPath>
<clipPath id="clip-4">
<path clip-rule="nonzero" d="M 233 170 L 280.523438 170 L 280.523438 240 L 233 240 Z M 233 170 "/>
</clipPath>
</defs>
<path fill="none" stroke-width="0.79701" stroke-linecap="butt" stroke-linejoin="miter" stroke="rgb(0%, 0%, 0%)" stroke-opacity="1" stroke-miterlimit="10" d="M 85.040125 -0.00084375 L 340.161219 -0.00084375 M 85.040125 113.385875 L 85.040125 68.600719 M 85.040125 44.788219 L 85.040125 -0.00084375 M 85.040125 113.385875 L 85.040125 137.764781 M 85.040125 145.702281 L 85.040125 170.081187 L 283.469812 170.081187 M 124.727625 113.385875 L 124.727625 125.858531 M 124.727625 157.608531 L 124.727625 170.081187 M 124.727625 113.385875 L 147.403406 113.385875 M 124.727625 170.081187 L 124.727625 222.80775 M 124.727625 230.741344 L 124.727625 283.467906 L 170.079187 283.467906 M 170.079187 -0.00084375 L 170.079187 26.647594 M 170.079187 58.393687 L 170.079187 85.042125 M 170.079187 85.042125 L 170.079187 91.561656 M 170.079187 135.214 L 170.079187 141.733531 M 226.7745 -0.00084375 L 226.7745 38.549937 M 226.7745 46.487437 L 226.7745 85.042125 L 170.079187 85.042125 M 124.727625 -0.00084375 L 124.727625 40.819469 M 124.727625 72.569469 L 124.727625 113.385875 M 170.079187 141.733531 L 170.079187 170.081187 M 170.079187 283.467906 L 170.079187 242.647594 M 170.079187 210.9015 L 170.079187 170.081187 M 170.079187 283.467906 L 210.8995 283.467906 M 242.6495 283.467906 L 283.469812 283.467906 M 283.469812 170.081187 L 283.469812 204.948375 M 283.469812 248.600719 L 283.469812 283.467906 M 185.954187 226.772594 L 204.665125 226.772594 M 236.411219 226.772594 L 255.688562 226.772594 L 255.688562 219.135875 M 283.469812 85.042125 L 283.469812 91.561656 M 283.469812 135.214 L 283.469812 141.733531 M 283.469812 -0.00084375 L 283.469812 45.780406 M 283.469812 45.780406 L 283.469812 91.561656 M 170.079187 141.733531 L 196.727625 141.733531 M 228.473719 141.733531 L 255.688562 141.733531 L 255.688562 121.0265 M 283.469812 170.081187 L 307.844812 170.081187 M 315.782312 170.081187 L 340.161219 170.081187 L 340.161219 96.944469 M 340.161219 73.135875 L 340.161219 -0.00084375 M 283.469812 204.948375 L 283.469812 135.214 " transform="matrix(1, 0, 0, -1, -72.337, 290.214)"/>
<path fill="none" stroke-width="1.59404" stroke-linecap="butt" stroke-linejoin="miter" stroke="rgb(0%, 0%, 0%)" stroke-opacity="1" stroke-miterlimit="10" d="M 96.946375 56.694469 C 96.946375 63.268687 91.614344 68.600719 85.040125 68.600719 C 78.465906 68.600719 73.133875 63.268687 73.133875 56.694469 C 73.133875 50.116344 78.465906 44.788219 85.040125 44.788219 C 91.614344 44.788219 96.946375 50.116344 96.946375 56.694469 Z M 96.946375 56.694469 " transform="matrix(1, 0, 0, -1, -72.337, 290.214)"/>
<path fill="none" stroke-width="1.59404" stroke-linecap="butt" stroke-linejoin="miter" stroke="rgb(0%, 0%, 0%)" stroke-opacity="1" stroke-miterlimit="10" d="M 85.040125 68.600719 L 85.040125 44.788219 " transform="matrix(1, 0, 0, -1, -72.337, 290.214)"/>
<path fill="none" stroke-width="1.59404" stroke-linecap="butt" stroke-linejoin="miter" stroke="rgb(0%, 0%, 0%)" stroke-opacity="1" stroke-miterlimit="10" d="M 73.133875 137.764781 L 96.946375 137.764781 M 73.133875 145.702281 L 96.946375 145.702281 " transform="matrix(1, 0, 0, -1, -72.337, 290.214)"/>
<path fill="none" stroke-width="1.59404" stroke-linecap="butt" stroke-linejoin="miter" stroke="rgb(0%, 0%, 0%)" stroke-opacity="1" stroke-miterlimit="10" d="M 130.676844 157.608531 L 130.676844 125.858531 L 118.7745 125.858531 L 118.7745 157.608531 Z M 130.676844 157.608531 " transform="matrix(1, 0, 0, -1, -72.337, 290.214)"/>
<path fill="none" stroke-width="1.59404" stroke-linecap="butt" stroke-linejoin="miter" stroke="rgb(0%, 0%, 0%)" stroke-opacity="1" stroke-miterlimit="10" d="M 112.821375 222.80775 L 136.629969 222.80775 M 112.821375 230.741344 L 136.629969 230.741344 " transform="matrix(1, 0, 0, -1, -72.337, 290.214)"/>
<path fill-rule="nonzero" fill="rgb(0%, 0%, 0%)" fill-opacity="1" stroke-width="0.79701" stroke-linecap="butt" stroke-linejoin="miter" stroke="rgb(0%, 0%, 0%)" stroke-opacity="1" stroke-miterlimit="10" d="M 126.313563 170.081187 C 126.313563 170.956187 125.602625 171.667125 124.727625 171.667125 C 123.848719 171.667125 123.137781 170.956187 123.137781 170.081187 C 123.137781 169.206187 123.848719 168.49525 124.727625 168.49525 C 125.602625 168.49525 126.313563 169.206187 126.313563 170.081187 Z M 126.313563 170.081187 " transform="matrix(1, 0, 0, -1, -72.337, 290.214)"/>
<path fill="none" stroke-width="1.59404" stroke-linecap="butt" stroke-linejoin="miter" stroke="rgb(0%, 0%, 0%)" stroke-opacity="1" stroke-miterlimit="10" d="M 176.032312 58.393687 L 176.032312 26.647594 L 164.126062 26.647594 L 164.126062 58.393687 Z M 176.032312 58.393687 " transform="matrix(1, 0, 0, -1, -72.337, 290.214)"/>
<path fill-rule="nonzero" fill="rgb(0%, 0%, 0%)" fill-opacity="1" d="M 99.332031 290.214844 C 99.332031 289.335938 98.621094 288.625 97.742188 288.625 C 96.867188 288.625 96.15625 289.335938 96.15625 290.214844 C 96.15625 291.089844 96.867188 291.800781 97.742188 291.800781 C 98.621094 291.800781 99.332031 291.089844 99.332031 290.214844 Z M 99.332031 290.214844 "/>
<g clip-path="url(#clip-0)">
<path fill="none" stroke-width="0.79701" stroke-linecap="butt" stroke-linejoin="miter" stroke="rgb(0%, 0%, 0%)" stroke-opacity="1" stroke-miterlimit="10" d="M 171.669031 -0.00084375 C 171.669031 0.878062 170.958094 1.589 170.079187 1.589 C 169.204187 1.589 168.49325 0.878062 168.49325 -0.00084375 C 168.49325 -0.875844 169.204187 -1.586781 170.079187 -1.586781 C 170.958094 -1.586781 171.669031 -0.875844 171.669031 -0.00084375 Z M 171.669031 -0.00084375 " transform="matrix(1, 0, 0, -1, -72.337, 290.214)"/>
</g>
<path fill-rule="nonzero" fill="rgb(0%, 0%, 0%)" fill-opacity="1" stroke-width="0.79701" stroke-linecap="butt" stroke-linejoin="miter" stroke="rgb(0%, 0%, 0%)" stroke-opacity="1" stroke-miterlimit="10" d="M 171.669031 85.042125 C 171.669031 85.917125 170.958094 86.628062 170.079187 86.628062 C 169.204187 86.628062 168.49325 85.917125 168.49325 85.042125 C 168.49325 84.163219 169.204187 83.452281 170.079187 83.452281 C 170.958094 83.452281 171.669031 84.163219 171.669031 85.042125 Z M 171.669031 85.042125 " transform="matrix(1, 0, 0, -1, -72.337, 290.214)"/>
<path fill="none" stroke-width="0.79701" stroke-linecap="butt" stroke-linejoin="miter" stroke="rgb(0%, 0%, 0%)" stroke-opacity="1" stroke-miterlimit="10" d="M 170.079187 135.612437 L 170.079187 122.116344 L 158.176844 116.659312 " transform="matrix(1, 0, 0, -1, -72.337, 290.214)"/>
<path fill="none" stroke-width="1.59404" stroke-linecap="butt" stroke-linejoin="miter" stroke="rgb(0%, 0%, 0%)" stroke-opacity="1" stroke-miterlimit="10" d="M 158.176844 122.116344 L 158.176844 104.655406 " transform="matrix(1, 0, 0, -1, -72.337, 290.214)"/>
<path fill="none" stroke-width="0.79701" stroke-linecap="butt" stroke-linejoin="miter" stroke="rgb(0%, 0%, 0%)" stroke-opacity="1" stroke-miterlimit="10" d="M 158.176844 110.112437 L 170.079187 104.655406 L 170.079187 91.163219 " transform="matrix(1, 0, 0, -1, -72.337, 290.214)"/>
<path fill-rule="nonzero" fill="rgb(0%, 0%, 0%)" fill-opacity="1" d="M 89.851562 181.941406 L 90.929688 179.585938 L 95.308594 184.441406 L 88.773438 184.292969 Z M 89.851562 181.941406 "/>
<path fill="none" stroke-width="0.79701" stroke-linecap="butt" stroke-linejoin="miter" stroke="rgb(0%, 0%, 0%)" stroke-opacity="1" stroke-miterlimit="10" d="M 158.176844 113.385875 L 145.872156 113.385875 " transform="matrix(1, 0, 0, -1, -72.337, 290.214)"/>
<path fill="none" stroke-width="1.59404" stroke-linecap="butt" stroke-linejoin="miter" stroke="rgb(0%, 0%, 0%)" stroke-opacity="1" stroke-miterlimit="10" d="M 214.86825 38.549937 L 238.68075 38.549937 M 214.86825 46.487437 L 238.68075 46.487437 " transform="matrix(1, 0, 0, -1, -72.337, 290.214)"/>
<path fill-rule="nonzero" fill="rgb(0%, 0%, 0%)" fill-opacity="1" d="M 156.023438 290.214844 C 156.023438 289.335938 155.3125 288.625 154.4375 288.625 C 153.5625 288.625 152.851562 289.335938 152.851562 290.214844 C 152.851562 291.089844 153.5625 291.800781 154.4375 291.800781 C 155.3125 291.800781 156.023438 291.089844 156.023438 290.214844 Z M 156.023438 290.214844 "/>
<g clip-path="url(#clip-1)">
<path fill="none" stroke-width="0.79701" stroke-linecap="butt" stroke-linejoin="miter" stroke="rgb(0%, 0%, 0%)" stroke-opacity="1" stroke-miterlimit="10" d="M 228.360437 -0.00084375 C 228.360437 0.878062 227.6495 1.589 226.7745 1.589 C 225.8995 1.589 225.188562 0.878062 225.188562 -0.00084375 C 225.188562 -0.875844 225.8995 -1.586781 226.7745 -1.586781 C 227.6495 -1.586781 228.360437 -0.875844 228.360437 -0.00084375 Z M 228.360437 -0.00084375 " transform="matrix(1, 0, 0, -1, -72.337, 290.214)"/>
</g>
<path fill="none" stroke-width="1.59404" stroke-linecap="butt" stroke-linejoin="miter" stroke="rgb(0%, 0%, 0%)" stroke-opacity="1" stroke-miterlimit="10" d="M 130.676844 72.569469 L 130.676844 40.819469 L 118.7745 40.819469 L 118.7745 72.569469 Z M 130.676844 72.569469 " transform="matrix(1, 0, 0, -1, -72.337, 290.214)"/>
<path fill-rule="nonzero" fill="rgb(0%, 0%, 0%)" fill-opacity="1" d="M 53.976562 290.214844 C 53.976562 289.335938 53.265625 288.625 52.390625 288.625 C 51.511719 288.625 50.800781 289.335938 50.800781 290.214844 C 50.800781 291.089844 51.511719 291.800781 52.390625 291.800781 C 53.265625 291.800781 53.976562 291.089844 53.976562 290.214844 Z M 53.976562 290.214844 "/>
<g clip-path="url(#clip-2)">
<path fill="none" stroke-width="0.79701" stroke-linecap="butt" stroke-linejoin="miter" stroke="rgb(0%, 0%, 0%)" stroke-opacity="1" stroke-miterlimit="10" d="M 126.313563 -0.00084375 C 126.313563 0.878062 125.602625 1.589 124.727625 1.589 C 123.848719 1.589 123.137781 0.878062 123.137781 -0.00084375 C 123.137781 -0.875844 123.848719 -1.586781 124.727625 -1.586781 C 125.602625 -1.586781 126.313563 -0.875844 126.313563 -0.00084375 Z M 126.313563 -0.00084375 " transform="matrix(1, 0, 0, -1, -72.337, 290.214)"/>
</g>
<path fill-rule="nonzero" fill="rgb(0%, 0%, 0%)" fill-opacity="1" stroke-width="0.79701" stroke-linecap="butt" stroke-linejoin="miter" stroke="rgb(0%, 0%, 0%)" stroke-opacity="1" stroke-miterlimit="10" d="M 126.313563 113.385875 C 126.313563 114.264781 125.602625 114.975719 124.727625 114.975719 C 123.848719 114.975719 123.137781 114.264781 123.137781 113.385875 C 123.137781 112.510875 123.848719 111.799937 124.727625 111.799937 C 125.602625 111.799937 126.313563 112.510875 126.313563 113.385875 Z M 126.313563 113.385875 " transform="matrix(1, 0, 0, -1, -72.337, 290.214)"/>
<path fill="none" stroke-width="1.59404" stroke-linecap="butt" stroke-linejoin="miter" stroke="rgb(0%, 0%, 0%)" stroke-opacity="1" stroke-miterlimit="10" d="M 164.126062 210.9015 L 164.126062 242.647594 L 176.032312 242.647594 L 176.032312 210.9015 Z M 164.126062 210.9015 " transform="matrix(1, 0, 0, -1, -72.337, 290.214)"/>
<path fill="none" stroke-width="0.79701" stroke-linecap="butt" stroke-linejoin="miter" stroke="rgb(0%, 0%, 0%)" stroke-opacity="1" stroke-miterlimit="10" d="M 185.954187 226.772594 L 179.141687 226.772594 " transform="matrix(1, 0, 0, -1, -72.337, 290.214)"/>
<path fill-rule="nonzero" fill="rgb(0%, 0%, 0%)" fill-opacity="1" d="M 103.695312 63.441406 C 104.992188 63.699219 107.324219 64.214844 108.878906 65.382812 C 107.582031 63.957031 107.582031 62.921875 108.878906 61.496094 C 107.324219 62.664062 104.992188 63.179688 103.695312 63.441406 Z M 103.695312 63.441406 "/>
<path fill-rule="nonzero" fill="rgb(0%, 0%, 0%)" fill-opacity="1" stroke-width="0.79701" stroke-linecap="butt" stroke-linejoin="miter" stroke="rgb(0%, 0%, 0%)" stroke-opacity="1" stroke-miterlimit="10" d="M 171.669031 283.467906 C 171.669031 284.342906 170.958094 285.053844 170.079187 285.053844 C 169.204187 285.053844 168.49325 284.342906 168.49325 283.467906 C 168.49325 282.592906 169.204187 281.881969 170.079187 281.881969 C 170.958094 281.881969 171.669031 282.592906 171.669031 283.467906 Z M 171.669031 283.467906 " transform="matrix(1, 0, 0, -1, -72.337, 290.214)"/>
<path fill="none" stroke-width="1.59404" stroke-linecap="butt" stroke-linejoin="miter" stroke="rgb(0%, 0%, 0%)" stroke-opacity="1" stroke-miterlimit="10" d="M 210.8995 289.421031 L 242.6495 289.421031 L 242.6495 277.514781 L 210.8995 277.514781 Z M 210.8995 289.421031 " transform="matrix(1, 0, 0, -1, -72.337, 290.214)"/>
<path fill-rule="nonzero" fill="rgb(0%, 0%, 0%)" fill-opacity="1" stroke-width="0.79701" stroke-linecap="butt" stroke-linejoin="miter" stroke="rgb(0%, 0%, 0%)" stroke-opacity="1" stroke-miterlimit="10" d="M 171.669031 283.467906 C 171.669031 284.342906 170.958094 285.053844 170.079187 285.053844 C 169.204187 285.053844 168.49325 284.342906 168.49325 283.467906 C 168.49325 282.592906 169.204187 281.881969 170.079187 281.881969 C 170.958094 281.881969 171.669031 282.592906 171.669031 283.467906 Z M 171.669031 283.467906 " transform="matrix(1, 0, 0, -1, -72.337, 290.214)"/>
<path fill="none" stroke-width="0.79701" stroke-linecap="butt" stroke-linejoin="miter" stroke="rgb(0%, 0%, 0%)" stroke-opacity="1" stroke-miterlimit="10" d="M 283.469812 248.999156 L 283.469812 234.413219 L 269.579187 234.413219 " transform="matrix(1, 0, 0, -1, -72.337, 290.214)"/>
<path fill="none" stroke-width="1.59404" stroke-linecap="butt" stroke-linejoin="miter" stroke="rgb(0%, 0%, 0%)" stroke-opacity="1" stroke-miterlimit="10" d="M 269.579187 237.686656 L 269.579187 215.862437 " transform="matrix(1, 0, 0, -1, -72.337, 290.214)"/>
<path fill="none" stroke-width="0.79701" stroke-linecap="butt" stroke-linejoin="miter" stroke="rgb(0%, 0%, 0%)" stroke-opacity="1" stroke-miterlimit="10" d="M 269.579187 226.772594 L 283.86825 226.772594 M 269.579187 219.135875 L 283.469812 219.135875 L 283.469812 204.549937 " transform="matrix(1, 0, 0, -1, -72.337, 290.214)"/>
<path fill="none" stroke-width="1.59404" stroke-linecap="butt" stroke-linejoin="miter" stroke="rgb(0%, 0%, 0%)" stroke-opacity="1" stroke-miterlimit="10" d="M 266.24325 234.811656 L 266.24325 218.737437 " transform="matrix(1, 0, 0, -1, -72.337, 290.214)"/>
<path fill-rule="nonzero" fill="rgb(0%, 0%, 0%)" fill-opacity="1" d="M 204.933594 63.441406 L 204.933594 66.027344 L 198.925781 63.441406 L 204.933594 60.851562 Z M 204.933594 63.441406 "/>
<path fill="none" stroke-width="0.79701" stroke-linecap="butt" stroke-linejoin="miter" stroke="rgb(0%, 0%, 0%)" stroke-opacity="1" stroke-miterlimit="10" d="M 266.24325 219.135875 L 255.290125 219.135875 " transform="matrix(1, 0, 0, -1, -72.337, 290.214)"/>
<path fill="none" stroke-width="0.79701" stroke-linecap="butt" stroke-linejoin="miter" stroke="rgb(0%, 0%, 0%)" stroke-opacity="1" stroke-miterlimit="10" d="M 283.469812 226.772594 L 283.469812 204.948375 " transform="matrix(1, 0, 0, -1, -72.337, 290.214)"/>
<path fill="none" stroke-width="1.59404" stroke-linecap="butt" stroke-linejoin="miter" stroke="rgb(0%, 0%, 0%)" stroke-opacity="1" stroke-miterlimit="10" d="M 204.665125 232.725719 L 236.411219 232.725719 L 236.411219 220.823375 L 204.665125 220.823375 Z M 204.665125 232.725719 " transform="matrix(1, 0, 0, -1, -72.337, 290.214)"/>
<path fill="none" stroke-width="0.79701" stroke-linecap="butt" stroke-linejoin="miter" stroke="rgb(0%, 0%, 0%)" stroke-opacity="1" stroke-miterlimit="10" d="M 283.469812 135.612437 L 283.469812 121.0265 L 269.579187 121.0265 " transform="matrix(1, 0, 0, -1, -72.337, 290.214)"/>
<path fill="none" stroke-width="1.59404" stroke-linecap="butt" stroke-linejoin="miter" stroke="rgb(0%, 0%, 0%)" stroke-opacity="1" stroke-miterlimit="10" d="M 269.579187 124.299937 L 269.579187 102.471812 " transform="matrix(1, 0, 0, -1, -72.337, 290.214)"/>
<path fill="none" stroke-width="0.79701" stroke-linecap="butt" stroke-linejoin="miter" stroke="rgb(0%, 0%, 0%)" stroke-opacity="1" stroke-miterlimit="10" d="M 269.579187 113.385875 L 283.86825 113.385875 M 269.579187 105.749156 L 283.469812 105.749156 L 283.469812 91.163219 " transform="matrix(1, 0, 0, -1, -72.337, 290.214)"/>
<path fill="none" stroke-width="1.59404" stroke-linecap="butt" stroke-linejoin="miter" stroke="rgb(0%, 0%, 0%)" stroke-opacity="1" stroke-miterlimit="10" d="M 266.24325 121.424937 L 266.24325 105.350719 " transform="matrix(1, 0, 0, -1, -72.337, 290.214)"/>
<path fill-rule="nonzero" fill="rgb(0%, 0%, 0%)" fill-opacity="1" d="M 200.664062 176.828125 L 200.664062 174.238281 L 206.667969 176.828125 L 200.664062 179.417969 Z M 200.664062 176.828125 "/>
<path fill="none" stroke-width="0.79701" stroke-linecap="butt" stroke-linejoin="miter" stroke="rgb(0%, 0%, 0%)" stroke-opacity="1" stroke-miterlimit="10" d="M 266.24325 121.0265 L 255.290125 121.0265 " transform="matrix(1, 0, 0, -1, -72.337, 290.214)"/>
<path fill="none" stroke-width="0.79701" stroke-linecap="butt" stroke-linejoin="miter" stroke="rgb(0%, 0%, 0%)" stroke-opacity="1" stroke-miterlimit="10" d="M 283.469812 113.385875 L 283.469812 135.214 " transform="matrix(1, 0, 0, -1, -72.337, 290.214)"/>
<path fill-rule="nonzero" fill="rgb(0%, 0%, 0%)" fill-opacity="1" d="M 212.71875 290.214844 C 212.71875 289.335938 212.007812 288.625 211.132812 288.625 C 210.253906 288.625 209.542969 289.335938 209.542969 290.214844 C 209.542969 291.089844 210.253906 291.800781 211.132812 291.800781 C 212.007812 291.800781 212.71875 291.089844 212.71875 290.214844 Z M 212.71875 290.214844 "/>
<g clip-path="url(#clip-3)">
<path fill="none" stroke-width="0.79701" stroke-linecap="butt" stroke-linejoin="miter" stroke="rgb(0%, 0%, 0%)" stroke-opacity="1" stroke-miterlimit="10" d="M 285.05575 -0.00084375 C 285.05575 0.878062 284.344812 1.589 283.469812 1.589 C 282.590906 1.589 281.879969 0.878062 281.879969 -0.00084375 C 281.879969 -0.875844 282.590906 -1.586781 283.469812 -1.586781 C 284.344812 -1.586781 285.05575 -0.875844 285.05575 -0.00084375 Z M 285.05575 -0.00084375 " transform="matrix(1, 0, 0, -1, -72.337, 290.214)"/>
</g>
<path fill="none" stroke-width="1.59404" stroke-linecap="butt" stroke-linejoin="miter" stroke="rgb(0%, 0%, 0%)" stroke-opacity="1" stroke-miterlimit="10" d="M 196.727625 147.686656 L 228.473719 147.686656 L 228.473719 135.780406 L 196.727625 135.780406 Z M 196.727625 147.686656 " transform="matrix(1, 0, 0, -1, -72.337, 290.214)"/>
<path fill-rule="nonzero" fill="rgb(0%, 0%, 0%)" fill-opacity="1" stroke-width="0.79701" stroke-linecap="butt" stroke-linejoin="miter" stroke="rgb(0%, 0%, 0%)" stroke-opacity="1" stroke-miterlimit="10" d="M 171.669031 141.733531 C 171.669031 142.612437 170.958094 143.319469 170.079187 143.319469 C 169.204187 143.319469 168.49325 142.612437 168.49325 141.733531 C 168.49325 140.858531 169.204187 140.147594 170.079187 140.147594 C 170.958094 140.147594 171.669031 140.858531 171.669031 141.733531 Z M 171.669031 141.733531 " transform="matrix(1, 0, 0, -1, -72.337, 290.214)"/>
<path fill="none" stroke-width="1.59404" stroke-linecap="butt" stroke-linejoin="miter" stroke="rgb(0%, 0%, 0%)" stroke-opacity="1" stroke-miterlimit="10" d="M 307.844812 181.987437 L 307.844812 158.174937 M 315.782312 181.987437 L 315.782312 158.174937 " transform="matrix(1, 0, 0, -1, -72.337, 290.214)"/>
<path fill-rule="nonzero" fill="rgb(0%, 0%, 0%)" fill-opacity="1" stroke-width="0.79701" stroke-linecap="butt" stroke-linejoin="miter" stroke="rgb(0%, 0%, 0%)" stroke-opacity="1" stroke-miterlimit="10" d="M 285.05575 170.081187 C 285.05575 170.956187 284.344812 171.667125 283.469812 171.667125 C 282.590906 171.667125 281.879969 170.956187 281.879969 170.081187 C 281.879969 169.206187 282.590906 168.49525 283.469812 168.49525 C 284.344812 168.49525 285.05575 169.206187 285.05575 170.081187 Z M 285.05575 170.081187 " transform="matrix(1, 0, 0, -1, -72.337, 290.214)"/>
<g clip-path="url(#clip-4)">
<path fill="none" stroke-width="1.59404" stroke-linecap="butt" stroke-linejoin="miter" stroke="rgb(0%, 0%, 0%)" stroke-opacity="1" stroke-miterlimit="10" d="M 352.067469 85.042125 C 352.067469 91.616344 346.735437 96.944469 340.161219 96.944469 C 333.587 96.944469 328.254969 91.616344 328.254969 85.042125 C 328.254969 78.464 333.587 73.135875 340.161219 73.135875 C 346.735437 73.135875 352.067469 78.464 352.067469 85.042125 Z M 352.067469 85.042125 " transform="matrix(1, 0, 0, -1, -72.337, 290.214)"/>
</g>
<path fill="none" stroke-width="1.59404" stroke-linecap="butt" stroke-linejoin="miter" stroke="rgb(0%, 0%, 0%)" stroke-opacity="1" stroke-miterlimit="10" d="M 340.161219 96.944469 L 340.161219 73.135875 " transform="matrix(1, 0, 0, -1, -72.337, 290.214)"/>
</svg>
