<?xml version="1.0" encoding="UTF-8"?>
<svg xmlns="http://www.w3.org/2000/svg" xmlns:xlink="http://www.w3.org/1999/xlink" width="113.784" height="113.784" viewBox="0 0 113.784 113.784">
<defs>
<clipPath id="clip-0">
<path clip-rule="nonzero" d="M 13 13 L 113.785156 13 L 113.785156 63 L 13 63 Z M 13 13 "/>
</clipPath>
<clipPath id="clip-1">
<path clip-rule="nonzero" d="M 11 11 L 63 11 L 63 113.785156 L 11 113.785156 Z M 11 11 "/>
</clipPath>
<clipPath id="clip-2">
<path clip-rule="nonzero" d="M 55 109 L 59 109 L 59 113.785156 L 55 113.785156 Z M 55 109 "/>
</clipPath>
<clipPath id="clip-3">
<path clip-rule="nonzero" d="M 11 51 L 113.785156 51 L 113.785156 103 L 11 103 Z M 11 51 "/>
</clipPath>
<clipPath id="clip-4">
<path clip-rule="nonzero" d="M 109 55 L 113.785156 55 L 113.785156 59 L 109 59 Z M 109 55 "/>
</clipPath>
<clipPath id="clip-5">
<path clip-rule="nonzero" d="M 51 13 L 101 13 L 101 113.785156 L 51 113.785156 Z M 51 13 "/>
</clipPath>
</defs>
<path fill="none" stroke-width="0.3985" stroke-linecap="butt" stroke-linejoin="miter" stroke="rgb(0%, 0%, 0%)" stroke-opacity="1" stroke-miterlimit="10" d="M 56.693937 0.001375 C 56.693937 31.309969 31.311125 56.692781 -0.001375 56.692781 C -31.309969 56.692781 -56.692781 31.309969 -56.692781 0.001375 C -56.692781 -31.311125 -31.309969 -56.693937 -0.001375 -56.693937 C 31.311125 -56.693937 56.693937 -31.311125 56.693937 0.001375 Z M 56.693937 0.001375 " transform="matrix(1, 0, 0, -1, 56.892, 56.892)"/>
<g clip-path="url(#clip-0)">
<path fill="none" stroke-width="0.3985" stroke-linecap="butt" stroke-linejoin="miter" stroke="rgb(0%, 0%, 100%)" stroke-opacity="1" stroke-miterlimit="10" d="M 56.693937 0.001375 C 15.772062 0.001375 -11.149813 11.149813 -37.552156 37.552156 " transform="matrix(1, 0, 0, -1, 56.892, 56.892)"/>
</g>
<path fill-rule="nonzero" fill="rgb(0%, 0%, 100%)" fill-opacity="1" d="M 16.804688 16.804688 C 17.414062 17.695312 18.210938 19.339844 18.566406 20.679688 L 20.679688 18.566406 C 19.339844 18.210938 17.695312 17.414062 16.804688 16.804688 "/>
<path fill="none" stroke-width="0.3985" stroke-linecap="butt" stroke-linejoin="miter" stroke="rgb(0%, 0%, 100%)" stroke-opacity="1" stroke-miterlimit="10" d="M 40.088469 40.087313 C 11.150969 11.149813 -15.770906 0.001375 -53.106844 0.001375 " transform="matrix(1, 0, 0, -1, 56.892, 56.892)"/>
<path fill-rule="nonzero" fill="rgb(0%, 0%, 100%)" fill-opacity="1" d="M 0.199219 56.890625 C 1.261719 57.089844 2.988281 57.6875 4.183594 58.386719 L 4.183594 55.398438 C 2.988281 56.09375 1.261719 56.691406 0.199219 56.890625 "/>
<path fill="none" stroke-width="0.3985" stroke-linecap="butt" stroke-linejoin="miter" stroke="rgb(0%, 0%, 100%)" stroke-opacity="1" stroke-miterlimit="10" d="M -0.001375 56.692781 C -0.001375 15.770906 -11.149813 -11.150969 -37.552156 -37.553312 " transform="matrix(1, 0, 0, -1, 56.892, 56.892)"/>
<path fill-rule="nonzero" fill="rgb(0%, 0%, 100%)" fill-opacity="1" d="M 16.804688 96.980469 C 17.695312 96.371094 19.339844 95.570312 20.679688 95.21875 L 18.566406 93.105469 C 18.210938 94.445312 17.414062 96.089844 16.804688 96.980469 "/>
<g clip-path="url(#clip-1)">
<path fill="none" stroke-width="0.3985" stroke-linecap="butt" stroke-linejoin="miter" stroke="rgb(0%, 0%, 100%)" stroke-opacity="1" stroke-miterlimit="10" d="M -40.087313 40.087313 C -11.149813 11.149813 -0.001375 -15.772062 -0.001375 -53.108 " transform="matrix(1, 0, 0, -1, 56.892, 56.892)"/>
</g>
<g clip-path="url(#clip-2)">
<path fill-rule="nonzero" fill="rgb(0%, 0%, 100%)" fill-opacity="1" d="M 56.890625 113.585938 C 57.089844 112.523438 57.6875 110.796875 58.386719 109.601562 L 55.398438 109.601562 C 56.09375 110.796875 56.691406 112.523438 56.890625 113.585938 "/>
</g>
<path fill="none" stroke-width="0.3985" stroke-linecap="butt" stroke-linejoin="miter" stroke="rgb(0%, 0%, 100%)" stroke-opacity="1" stroke-miterlimit="10" d="M -56.692781 0.001375 C -15.770906 0.001375 11.150969 -11.150969 37.553312 -37.553312 " transform="matrix(1, 0, 0, -1, 56.892, 56.892)"/>
<path fill-rule="nonzero" fill="rgb(0%, 0%, 100%)" fill-opacity="1" d="M 96.980469 96.980469 C 96.371094 96.089844 95.570312 94.445312 95.21875 93.105469 L 93.105469 95.21875 C 94.445312 95.570312 96.089844 96.371094 96.980469 96.980469 "/>
<g clip-path="url(#clip-3)">
<path fill="none" stroke-width="0.3985" stroke-linecap="butt" stroke-linejoin="miter" stroke="rgb(0%, 0%, 100%)" stroke-opacity="1" stroke-miterlimit="10" d="M -40.087313 -40.088469 C -11.149813 -11.150969 15.772062 0.001375 53.108 0.001375 " transform="matrix(1, 0, 0, -1, 56.892, 56.892)"/>
</g>
<g clip-path="url(#clip-4)">
<path fill-rule="nonzero" fill="rgb(0%, 0%, 100%)" fill-opacity="1" d="M 113.585938 56.890625 C 112.523438 56.691406 110.796875 56.09375 109.601562 55.398438 L 109.601562 58.386719 C 110.796875 57.6875 112.523438 57.089844 113.585938 56.890625 "/>
</g>
<g clip-path="url(#clip-5)">
<path fill="none" stroke-width="0.3985" stroke-linecap="butt" stroke-linejoin="miter" stroke="rgb(0%, 0%, 100%)" stroke-opacity="1" stroke-miterlimit="10" d="M -0.001375 -56.693937 C -0.001375 -15.772062 11.150969 11.149813 37.553312 37.552156 " transform="matrix(1, 0, 0, -1, 56.892, 56.892)"/>
</g>
<path fill-rule="nonzero" fill="rgb(0%, 0%, 100%)" fill-opacity="1" d="M 96.980469 16.804688 C 96.089844 17.414062 94.445312 18.210938 93.105469 18.566406 L 95.21875 20.679688 C 95.570312 19.339844 96.371094 17.695312 96.980469 16.804688 "/>
<path fill="none" stroke-width="0.3985" stroke-linecap="butt" stroke-linejoin="miter" stroke="rgb(0%, 0%, 100%)" stroke-opacity="1" stroke-miterlimit="10" d="M 40.088469 -40.088469 C 11.150969 -11.150969 -0.001375 15.770906 -0.001375 53.106844 " transform="matrix(1, 0, 0, -1, 56.892, 56.892)"/>
<path fill-rule="nonzero" fill="rgb(0%, 0%, 100%)" fill-opacity="1" d="M 56.890625 0.199219 C 56.691406 1.261719 56.09375 2.988281 55.398438 4.183594 L 58.386719 4.183594 C 57.6875 2.988281 57.089844 1.261719 56.890625 0.199219 "/>
</svg>
