<?xml version="1.0" encoding="UTF-8"?>
<svg xmlns="http://www.w3.org/2000/svg" xmlns:xlink="http://www.w3.org/1999/xlink" width="122.363pt" height="122.363pt" viewBox="0 0 122.363 122.363" version="1.1">
<defs>
<clipPath id="clip1">
  <path d="M 18 17 L 122.363281 17 L 122.363281 67 L 18 67 Z M 18 17 "/>
</clipPath>
<clipPath id="clip2">
  <path d="M 55 18 L 105 18 L 105 122.363281 L 55 122.363281 Z M 55 18 "/>
</clipPath>
</defs>
<g id="surface1">
<path style=" stroke:none;fill-rule:nonzero;fill:rgb(0%,0%,0%);fill-opacity:1;" d="M 0 122.363281 L 0 0 L 122.363281 0 L 122.363281 122.363281 Z M 0 122.363281 "/>
<path style="fill:none;stroke-width:0.3985;stroke-linecap:butt;stroke-linejoin:miter;stroke:rgb(100%,100%,100%);stroke-opacity:1;stroke-miterlimit:10;" d="M 56.693 0.0013125 C 56.693 31.309906 31.310187 56.692719 0.00159375 56.692719 C -31.310906 56.692719 -56.693719 31.309906 -56.693719 0.0013125 C -56.693719 -31.311188 -31.310906 -56.694 0.00159375 -56.694 C 31.310187 -56.694 56.693 -31.311188 56.693 0.0013125 Z M 56.693 0.0013125 " transform="matrix(1,0,0,-1,61.182,61.181)"/>
<g clip-path="url(#clip1)" clip-rule="nonzero">
<path style="fill:none;stroke-width:0.3985;stroke-linecap:butt;stroke-linejoin:miter;stroke:rgb(0%,67.83905%,93.728638%);stroke-opacity:1;stroke-miterlimit:10;" d="M 56.693 0.0013125 C 15.708625 0.0013125 -10.853875 11.360687 -37.52575 37.571625 " transform="matrix(1,0,0,-1,61.182,61.181)"/>
</g>
<path style=" stroke:none;fill-rule:nonzero;fill:rgb(0%,67.83905%,93.728638%);fill-opacity:1;" d="M 21.09375 21.09375 C 21.710938 21.980469 22.527344 23.621094 22.890625 24.957031 L 24.988281 22.820312 C 23.644531 22.480469 21.992188 21.695312 21.09375 21.09375 "/>
<path style="fill:none;stroke-width:0.3985;stroke-linecap:butt;stroke-linejoin:miter;stroke:rgb(0%,67.83905%,93.728638%);stroke-opacity:1;stroke-miterlimit:10;" d="M 40.087531 40.08725 C 11.107062 11.106781 -15.705438 0.356781 -53.107781 0.0325625 " transform="matrix(1,0,0,-1,61.182,61.181)"/>
<path style=" stroke:none;fill-rule:nonzero;fill:rgb(0%,67.83905%,93.728638%);fill-opacity:1;" d="M 4.488281 61.179688 C 5.554688 61.371094 7.285156 61.953125 8.488281 62.640625 L 8.460938 59.652344 C 7.269531 60.359375 5.550781 60.972656 4.488281 61.179688 "/>
<path style="fill:none;stroke-width:0.3985;stroke-linecap:butt;stroke-linejoin:miter;stroke:rgb(0%,67.83905%,93.728638%);stroke-opacity:1;stroke-miterlimit:10;" d="M 0.00159375 56.692719 C -0.0023125 15.708344 -11.357781 -10.854156 -37.572625 -37.526031 " transform="matrix(1,0,0,-1,61.182,61.181)"/>
<path style=" stroke:none;fill-rule:nonzero;fill:rgb(0%,67.83905%,93.728638%);fill-opacity:1;" d="M 21.09375 101.269531 C 21.980469 100.648438 23.621094 99.835938 24.957031 99.472656 L 22.824219 97.375 C 22.480469 98.71875 21.695312 100.371094 21.09375 101.269531 "/>
<path style="fill:none;stroke-width:0.3985;stroke-linecap:butt;stroke-linejoin:miter;stroke:rgb(0%,67.83905%,93.728638%);stroke-opacity:1;stroke-miterlimit:10;" d="M -40.08825 40.08725 C -11.107781 11.106781 -0.357781 -15.705719 -0.0296563 -53.108063 " transform="matrix(1,0,0,-1,61.182,61.181)"/>
<path style=" stroke:none;fill-rule:nonzero;fill:rgb(0%,67.83905%,93.728638%);fill-opacity:1;" d="M 61.183594 117.875 C 61.371094 116.808594 61.953125 115.078125 62.640625 113.875 L 59.652344 113.902344 C 60.359375 115.09375 60.972656 116.8125 61.183594 117.875 "/>
<path style="fill:none;stroke-width:0.3985;stroke-linecap:butt;stroke-linejoin:miter;stroke:rgb(0%,67.83905%,93.728638%);stroke-opacity:1;stroke-miterlimit:10;" d="M -56.693719 0.0013125 C -15.709344 0.0013125 10.853156 -11.358063 37.525031 -37.572906 " transform="matrix(1,0,0,-1,61.182,61.181)"/>
<path style=" stroke:none;fill-rule:nonzero;fill:rgb(0%,67.83905%,93.728638%);fill-opacity:1;" d="M 101.269531 101.269531 C 100.652344 100.382812 99.835938 98.742188 99.472656 97.40625 L 97.375 99.539062 C 98.71875 99.878906 100.371094 100.664062 101.269531 101.269531 "/>
<path style="fill:none;stroke-width:0.3985;stroke-linecap:butt;stroke-linejoin:miter;stroke:rgb(0%,67.83905%,93.728638%);stroke-opacity:1;stroke-miterlimit:10;" d="M -40.08825 -40.088531 C -11.107781 -11.108063 15.708625 -0.358063 53.107062 -0.0299375 " transform="matrix(1,0,0,-1,61.182,61.181)"/>
<path style=" stroke:none;fill-rule:nonzero;fill:rgb(0%,67.83905%,93.728638%);fill-opacity:1;" d="M 117.875 61.179688 C 116.8125 60.992188 115.078125 60.410156 113.878906 59.722656 L 113.902344 62.710938 C 115.09375 62.003906 116.816406 61.390625 117.875 61.179688 "/>
<g clip-path="url(#clip2)" clip-rule="nonzero">
<path style="fill:none;stroke-width:0.3985;stroke-linecap:butt;stroke-linejoin:miter;stroke:rgb(0%,67.83905%,93.728638%);stroke-opacity:1;stroke-miterlimit:10;" d="M 0.00159375 -56.694 C 0.00159375 -15.705719 11.360969 10.852875 37.571906 37.528656 " transform="matrix(1,0,0,-1,61.182,61.181)"/>
</g>
<path style=" stroke:none;fill-rule:nonzero;fill:rgb(0%,67.83905%,93.728638%);fill-opacity:1;" d="M 101.269531 21.09375 C 100.382812 21.710938 98.742188 22.527344 97.40625 22.890625 L 99.539062 24.988281 C 99.882812 23.644531 100.667969 21.992188 101.269531 21.09375 "/>
<path style="fill:none;stroke-width:0.3985;stroke-linecap:butt;stroke-linejoin:miter;stroke:rgb(0%,67.83905%,93.728638%);stroke-opacity:1;stroke-miterlimit:10;" d="M 40.087531 -40.088531 C 11.107062 -11.108063 0.357062 15.708344 0.0328437 53.106781 " transform="matrix(1,0,0,-1,61.182,61.181)"/>
<path style=" stroke:none;fill-rule:nonzero;fill:rgb(0%,67.83905%,93.728638%);fill-opacity:1;" d="M 61.183594 4.488281 C 60.992188 5.550781 60.410156 7.285156 59.722656 8.484375 L 62.710938 8.460938 C 62.003906 7.269531 61.390625 5.546875 61.183594 4.488281 "/>
</g>
</svg>
