<?xml version="1.0" encoding="UTF-8"?>
<svg xmlns="http://www.w3.org/2000/svg" xmlns:xlink="http://www.w3.org/1999/xlink" width="122.363" height="122.363" viewBox="0 0 122.363 122.363">
<defs>
<clipPath id="clip-0">
<path clip-rule="nonzero" d="M 17 17 L 122.363281 17 L 122.363281 67 L 17 67 Z M 17 17 "/>
</clipPath>
<clipPath id="clip-1">
<path clip-rule="nonzero" d="M 55 17 L 105 17 L 105 122.363281 L 55 122.363281 Z M 55 17 "/>
</clipPath>
</defs>
<path fill-rule="nonzero" fill="rgb(0%, 0%, 0%)" fill-opacity="1" d="M 0 122.363281 L 0 0 L 122.363281 0 L 122.363281 122.363281 Z M 0 122.363281 "/>
<path fill="none" stroke-width="0.3985" stroke-linecap="butt" stroke-linejoin="miter" stroke="rgb(100%, 100%, 100%)" stroke-opacity="1" stroke-miterlimit="10" d="M 56.693 0.0013125 C 56.693 31.309906 31.310187 56.692719 0.00159375 56.692719 C -31.310906 56.692719 -56.693719 31.309906 -56.693719 0.0013125 C -56.693719 -31.311188 -31.310906 -56.694 0.00159375 -56.694 C 31.310187 -56.694 56.693 -31.311188 56.693 0.0013125 Z M 56.693 0.0013125 " transform="matrix(1, 0, 0, -1, 61.182, 61.181)"/>
<g clip-path="url(#clip-0)">
<path fill="none" stroke-width="0.3985" stroke-linecap="butt" stroke-linejoin="miter" stroke="rgb(0%, 67.83905%, 93.728638%)" stroke-opacity="1" stroke-miterlimit="10" d="M 56.693 0.0013125 C 15.771125 0.0013125 -11.15075 11.153656 -37.553094 37.552094 " transform="matrix(1, 0, 0, -1, 61.182, 61.181)"/>
</g>
<path fill-rule="nonzero" fill="rgb(0%, 67.83905%, 93.728638%)" fill-opacity="1" d="M 21.09375 21.09375 C 21.703125 21.984375 22.503906 23.628906 22.855469 24.96875 L 24.96875 22.855469 C 23.628906 22.5 21.984375 21.703125 21.09375 21.09375 "/>
<path fill="none" stroke-width="0.3985" stroke-linecap="butt" stroke-linejoin="miter" stroke="rgb(0%, 67.83905%, 93.728638%)" stroke-opacity="1" stroke-miterlimit="10" d="M 40.087531 40.08725 C 11.150031 11.153656 -15.771844 0.0013125 -53.107781 0.0013125 " transform="matrix(1, 0, 0, -1, 61.182, 61.181)"/>
<path fill-rule="nonzero" fill="rgb(0%, 67.83905%, 93.728638%)" fill-opacity="1" d="M 4.488281 61.179688 C 5.550781 61.378906 7.277344 61.976562 8.472656 62.675781 L 8.472656 59.6875 C 7.277344 60.382812 5.550781 60.980469 4.488281 61.179688 "/>
<path fill="none" stroke-width="0.3985" stroke-linecap="butt" stroke-linejoin="miter" stroke="rgb(0%, 67.83905%, 93.728638%)" stroke-opacity="1" stroke-miterlimit="10" d="M 0.00159375 56.692719 C 0.00159375 15.770844 -11.15075 -11.151031 -37.553094 -37.553375 " transform="matrix(1, 0, 0, -1, 61.182, 61.181)"/>
<path fill-rule="nonzero" fill="rgb(0%, 67.83905%, 93.728638%)" fill-opacity="1" d="M 21.09375 101.269531 C 21.984375 100.660156 23.628906 99.859375 24.96875 99.507812 L 22.855469 97.394531 C 22.503906 98.734375 21.703125 100.378906 21.09375 101.269531 "/>
<path fill="none" stroke-width="0.3985" stroke-linecap="butt" stroke-linejoin="miter" stroke="rgb(0%, 67.83905%, 93.728638%)" stroke-opacity="1" stroke-miterlimit="10" d="M -40.08825 40.08725 C -11.15075 11.14975 0.00159375 -15.772125 0.00159375 -53.108063 " transform="matrix(1, 0, 0, -1, 61.182, 61.181)"/>
<path fill-rule="nonzero" fill="rgb(0%, 67.83905%, 93.728638%)" fill-opacity="1" d="M 61.183594 117.875 C 61.382812 116.8125 61.980469 115.085938 62.675781 113.890625 L 59.6875 113.890625 C 60.386719 115.085938 60.984375 116.8125 61.183594 117.875 "/>
<path fill="none" stroke-width="0.3985" stroke-linecap="butt" stroke-linejoin="miter" stroke="rgb(0%, 67.83905%, 93.728638%)" stroke-opacity="1" stroke-miterlimit="10" d="M -56.693719 0.0013125 C -15.771844 0.0013125 11.150031 -11.151031 37.552375 -37.553375 " transform="matrix(1, 0, 0, -1, 61.182, 61.181)"/>
<path fill-rule="nonzero" fill="rgb(0%, 67.83905%, 93.728638%)" fill-opacity="1" d="M 101.269531 101.269531 C 100.660156 100.378906 99.863281 98.734375 99.507812 97.394531 L 97.394531 99.507812 C 98.734375 99.859375 100.378906 100.660156 101.269531 101.269531 "/>
<path fill="none" stroke-width="0.3985" stroke-linecap="butt" stroke-linejoin="miter" stroke="rgb(0%, 67.83905%, 93.728638%)" stroke-opacity="1" stroke-miterlimit="10" d="M -40.08825 -40.088531 C -11.15075 -11.151031 15.771125 0.0013125 53.107062 0.0013125 " transform="matrix(1, 0, 0, -1, 61.182, 61.181)"/>
<path fill-rule="nonzero" fill="rgb(0%, 67.83905%, 93.728638%)" fill-opacity="1" d="M 117.875 61.179688 C 116.8125 60.980469 115.085938 60.382812 113.890625 59.6875 L 113.890625 62.675781 C 115.085938 61.976562 116.8125 61.378906 117.875 61.179688 "/>
<g clip-path="url(#clip-1)">
<path fill="none" stroke-width="0.3985" stroke-linecap="butt" stroke-linejoin="miter" stroke="rgb(0%, 67.83905%, 93.728638%)" stroke-opacity="1" stroke-miterlimit="10" d="M 0.00159375 -56.694 C 0.00159375 -15.772125 11.150031 11.14975 37.552375 37.552094 " transform="matrix(1, 0, 0, -1, 61.182, 61.181)"/>
</g>
<path fill-rule="nonzero" fill="rgb(0%, 67.83905%, 93.728638%)" fill-opacity="1" d="M 101.269531 21.09375 C 100.378906 21.703125 98.734375 22.5 97.394531 22.855469 L 99.507812 24.96875 C 99.863281 23.628906 100.660156 21.984375 101.269531 21.09375 "/>
<path fill="none" stroke-width="0.3985" stroke-linecap="butt" stroke-linejoin="miter" stroke="rgb(0%, 67.83905%, 93.728638%)" stroke-opacity="1" stroke-miterlimit="10" d="M 40.087531 -40.088531 C 11.150031 -11.151031 0.00159375 15.770844 0.00159375 53.106781 " transform="matrix(1, 0, 0, -1, 61.182, 61.181)"/>
<path fill-rule="nonzero" fill="rgb(0%, 67.83905%, 93.728638%)" fill-opacity="1" d="M 61.183594 4.488281 C 60.984375 5.550781 60.386719 7.277344 59.6875 8.472656 L 62.675781 8.472656 C 61.980469 7.277344 61.382812 5.550781 61.183594 4.488281 "/>
</svg>
