<?xml version="1.0" encoding="UTF-8"?>
<svg xmlns="http://www.w3.org/2000/svg" xmlns:xlink="http://www.w3.org/1999/xlink" width="122.762pt" height="122.762pt" viewBox="0 0 122.762 122.762" version="1.1">
<defs>
<clipPath id="clip1">
  <path d="M 0 0 L 122.761719 0 L 122.761719 122.761719 L 0 122.761719 Z M 0 0 "/>
</clipPath>
<clipPath id="clip2">
  <path d="M 18 18 L 122.761719 18 L 122.761719 68 L 18 68 Z M 18 18 "/>
</clipPath>
<clipPath id="clip3">
  <path d="M 55 18 L 105 18 L 105 122.761719 L 55 122.761719 Z M 55 18 "/>
</clipPath>
</defs>
<g id="surface1">
<g clip-path="url(#clip1)" clip-rule="nonzero">
<path style="fill-rule:nonzero;fill:rgb(0%,0%,0%);fill-opacity:1;stroke-width:0.3985;stroke-linecap:butt;stroke-linejoin:miter;stroke:rgb(100%,100%,100%);stroke-opacity:1;stroke-miterlimit:10;" d="M -61.181781 -61.1815 L -61.181781 61.181781 L 61.1815 61.181781 L 61.1815 -61.1815 Z M -61.181781 -61.1815 " transform="matrix(1,0,0,-1,61.381,61.381)"/>
<path style="fill:none;stroke-width:0.3985;stroke-linecap:butt;stroke-linejoin:miter;stroke:rgb(100%,100%,100%);stroke-opacity:1;stroke-miterlimit:10;" d="M 56.693219 -0.0018125 C 56.693219 31.310688 31.310406 56.6935 0.0018125 56.6935 C -31.310687 56.6935 -56.6935 31.310688 -56.6935 -0.0018125 C -56.6935 -31.310406 -31.310687 -56.693219 0.0018125 -56.693219 C 31.310406 -56.693219 56.693219 -31.310406 56.693219 -0.0018125 Z M 56.693219 -0.0018125 " transform="matrix(1,0,0,-1,61.381,61.381)"/>
</g>
<g clip-path="url(#clip2)" clip-rule="nonzero">
<path style="fill:none;stroke-width:0.3985;stroke-linecap:butt;stroke-linejoin:miter;stroke:rgb(0%,67.83905%,93.728638%);stroke-opacity:1;stroke-miterlimit:10;" d="M 56.693219 -0.0018125 C 15.708844 0.00209375 -10.853656 11.361469 -37.525531 37.572406 " transform="matrix(1,0,0,-1,61.381,61.381)"/>
</g>
<path style=" stroke:none;fill-rule:nonzero;fill:rgb(0%,67.83905%,93.728638%);fill-opacity:1;" d="M 21.292969 21.292969 C 21.910156 22.179688 22.726562 23.820312 23.089844 25.15625 L 25.1875 23.023438 C 23.84375 22.679688 22.191406 21.894531 21.292969 21.292969 "/>
<path style="fill:none;stroke-width:0.3985;stroke-linecap:butt;stroke-linejoin:miter;stroke:rgb(0%,67.83905%,93.728638%);stroke-opacity:1;stroke-miterlimit:10;" d="M 40.08775 40.088031 C 11.107281 11.107563 -15.709125 0.357563 -53.107562 0.0294375 " transform="matrix(1,0,0,-1,61.381,61.381)"/>
<path style=" stroke:none;fill-rule:nonzero;fill:rgb(0%,67.83905%,93.728638%);fill-opacity:1;" d="M 4.6875 61.382812 C 5.75 61.570312 7.484375 62.152344 8.683594 62.839844 L 8.660156 59.851562 C 7.46875 60.558594 5.75 61.171875 4.6875 61.382812 "/>
<path style="fill:none;stroke-width:0.3985;stroke-linecap:butt;stroke-linejoin:miter;stroke:rgb(0%,67.83905%,93.728638%);stroke-opacity:1;stroke-miterlimit:10;" d="M 0.0018125 56.6935 C -0.00209375 15.709125 -11.361469 -10.853375 -37.572406 -37.52525 " transform="matrix(1,0,0,-1,61.381,61.381)"/>
<path style=" stroke:none;fill-rule:nonzero;fill:rgb(0%,67.83905%,93.728638%);fill-opacity:1;" d="M 21.292969 101.46875 C 22.179688 100.851562 23.820312 100.035156 25.15625 99.671875 L 23.023438 97.574219 C 22.679688 98.917969 21.894531 100.570312 21.292969 101.46875 "/>
<path style="fill:none;stroke-width:0.3985;stroke-linecap:butt;stroke-linejoin:miter;stroke:rgb(0%,67.83905%,93.728638%);stroke-opacity:1;stroke-miterlimit:10;" d="M -40.088031 40.088031 C -11.107562 11.107563 -0.357562 -15.708844 -0.0294375 -53.107281 " transform="matrix(1,0,0,-1,61.381,61.381)"/>
<path style=" stroke:none;fill-rule:nonzero;fill:rgb(0%,67.83905%,93.728638%);fill-opacity:1;" d="M 61.382812 118.074219 C 61.570312 117.011719 62.152344 115.277344 62.839844 114.078125 L 59.851562 114.101562 C 60.558594 115.292969 61.171875 117.011719 61.382812 118.074219 "/>
<path style="fill:none;stroke-width:0.3985;stroke-linecap:butt;stroke-linejoin:miter;stroke:rgb(0%,67.83905%,93.728638%);stroke-opacity:1;stroke-miterlimit:10;" d="M -56.6935 -0.0018125 C -15.709125 -0.0018125 10.853375 -11.361187 37.52525 -37.572125 " transform="matrix(1,0,0,-1,61.381,61.381)"/>
<path style=" stroke:none;fill-rule:nonzero;fill:rgb(0%,67.83905%,93.728638%);fill-opacity:1;" d="M 101.46875 101.46875 C 100.851562 100.582031 100.035156 98.941406 99.671875 97.605469 L 97.574219 99.738281 C 98.917969 100.082031 100.570312 100.867188 101.46875 101.46875 "/>
<path style="fill:none;stroke-width:0.3985;stroke-linecap:butt;stroke-linejoin:miter;stroke:rgb(0%,67.83905%,93.728638%);stroke-opacity:1;stroke-miterlimit:10;" d="M -40.088031 -40.08775 C -11.107562 -11.107281 15.708844 -0.357281 53.107281 -0.0330625 " transform="matrix(1,0,0,-1,61.381,61.381)"/>
<path style=" stroke:none;fill-rule:nonzero;fill:rgb(0%,67.83905%,93.728638%);fill-opacity:1;" d="M 118.074219 61.382812 C 117.011719 61.191406 115.277344 60.609375 114.078125 59.921875 L 114.101562 62.910156 C 115.292969 62.203125 117.011719 61.589844 118.074219 61.382812 "/>
<g clip-path="url(#clip3)" clip-rule="nonzero">
<path style="fill:none;stroke-width:0.3985;stroke-linecap:butt;stroke-linejoin:miter;stroke:rgb(0%,67.83905%,93.728638%);stroke-opacity:1;stroke-miterlimit:10;" d="M 0.0018125 -56.693219 C 0.0018125 -15.708844 11.361188 10.853656 37.572125 37.525531 " transform="matrix(1,0,0,-1,61.381,61.381)"/>
</g>
<path style=" stroke:none;fill-rule:nonzero;fill:rgb(0%,67.83905%,93.728638%);fill-opacity:1;" d="M 101.46875 21.292969 C 100.582031 21.910156 98.941406 22.726562 97.605469 23.089844 L 99.738281 25.1875 C 100.082031 23.84375 100.867188 22.191406 101.46875 21.292969 "/>
<path style="fill:none;stroke-width:0.3985;stroke-linecap:butt;stroke-linejoin:miter;stroke:rgb(0%,67.83905%,93.728638%);stroke-opacity:1;stroke-miterlimit:10;" d="M 40.08775 -40.08775 C 11.107281 -11.107281 0.357281 15.709125 0.0330625 53.107563 " transform="matrix(1,0,0,-1,61.381,61.381)"/>
<path style=" stroke:none;fill-rule:nonzero;fill:rgb(0%,67.83905%,93.728638%);fill-opacity:1;" d="M 61.382812 4.6875 C 61.191406 5.75 60.609375 7.484375 59.921875 8.683594 L 62.910156 8.660156 C 62.203125 7.46875 61.589844 5.75 61.382812 4.6875 "/>
</g>
</svg>
