<?xml version="1.0" encoding="UTF-8"?>
<svg xmlns="http://www.w3.org/2000/svg" xmlns:xlink="http://www.w3.org/1999/xlink" width="170.477pt" height="113.784pt" viewBox="0 0 170.477 113.784" version="1.1">
<defs>
<clipPath id="clip1">
  <path d="M 41 0 L 57 0 L 57 113.785156 L 41 113.785156 Z M 41 0 "/>
</clipPath>
<clipPath id="clip2">
  <path d="M 36 0 L 63 0 L 63 113.785156 L 36 113.785156 Z M 36 0 "/>
</clipPath>
<clipPath id="clip3">
  <path d="M 0 27 L 132 27 L 132 113.785156 L 0 113.785156 Z M 0 27 "/>
</clipPath>
<clipPath id="clip4">
  <path d="M 0 33 L 141 33 L 141 113.785156 L 0 113.785156 Z M 0 33 "/>
</clipPath>
<clipPath id="clip5">
  <path d="M 0 50 L 170.476562 50 L 170.476562 86 L 0 86 Z M 0 50 "/>
</clipPath>
<clipPath id="clip6">
  <path d="M 0 50 L 170.476562 50 L 170.476562 83 L 0 83 Z M 0 50 "/>
</clipPath>
<clipPath id="clip7">
  <path d="M 0 50 L 170.476562 50 L 170.476562 80 L 0 80 Z M 0 50 "/>
</clipPath>
<clipPath id="clip8">
  <path d="M 0 51 L 170.476562 51 L 170.476562 77 L 0 77 Z M 0 51 "/>
</clipPath>
<clipPath id="clip9">
  <path d="M 0 51 L 170.476562 51 L 170.476562 74 L 0 74 Z M 0 51 "/>
</clipPath>
<clipPath id="clip10">
  <path d="M 0 51 L 170.476562 51 L 170.476562 72 L 0 72 Z M 0 51 "/>
</clipPath>
<clipPath id="clip11">
  <path d="M 0 51 L 170.476562 51 L 170.476562 69 L 0 69 Z M 0 51 "/>
</clipPath>
<clipPath id="clip12">
  <path d="M 0 51 L 170.476562 51 L 170.476562 66 L 0 66 Z M 0 51 "/>
</clipPath>
<clipPath id="clip13">
  <path d="M 0 56 L 170.476562 56 L 170.476562 58 L 0 58 Z M 0 56 "/>
</clipPath>
<clipPath id="clip14">
  <path d="M 0 48 L 170.476562 48 L 170.476562 63 L 0 63 Z M 0 48 "/>
</clipPath>
<clipPath id="clip15">
  <path d="M 0 45 L 170.476562 45 L 170.476562 63 L 0 63 Z M 0 45 "/>
</clipPath>
<clipPath id="clip16">
  <path d="M 0 42 L 170.476562 42 L 170.476562 63 L 0 63 Z M 0 42 "/>
</clipPath>
<clipPath id="clip17">
  <path d="M 0 39 L 170.476562 39 L 170.476562 63 L 0 63 Z M 0 39 "/>
</clipPath>
<clipPath id="clip18">
  <path d="M 0 37 L 170.476562 37 L 170.476562 63 L 0 63 Z M 0 37 "/>
</clipPath>
<clipPath id="clip19">
  <path d="M 0 34 L 170.476562 34 L 170.476562 63 L 0 63 Z M 0 34 "/>
</clipPath>
<clipPath id="clip20">
  <path d="M 0 31 L 170.476562 31 L 170.476562 64 L 0 64 Z M 0 31 "/>
</clipPath>
<clipPath id="clip21">
  <path d="M 0 28 L 170.476562 28 L 170.476562 64 L 0 64 Z M 0 28 "/>
</clipPath>
</defs>
<g id="surface1">
<g clip-path="url(#clip1)" clip-rule="nonzero">
<path style=" stroke:none;fill-rule:nonzero;fill:rgb(80.000305%,93.566895%,98.745728%);fill-opacity:1;" d="M 41.703125 113.585938 C 61.953125 78.507812 61.953125 35.277344 41.703125 0.199219 Z M 41.703125 113.585938 "/>
</g>
<g clip-path="url(#clip2)" clip-rule="nonzero">
<path style="fill:none;stroke-width:0.3985;stroke-linecap:butt;stroke-linejoin:miter;stroke:rgb(0%,0%,0%);stroke-opacity:1;stroke-miterlimit:10;" d="M 98.197125 -56.693937 C 118.447125 -21.615812 118.447125 21.614656 98.197125 56.692781 Z M 98.197125 -56.693937 " transform="matrix(1,0,0,-1,-56.494,56.892)"/>
</g>
<g clip-path="url(#clip3)" clip-rule="nonzero">
<path style="fill:none;stroke-width:0.3985;stroke-linecap:butt;stroke-linejoin:miter;stroke:rgb(100%,0%,0%);stroke-opacity:1;stroke-miterlimit:10;" d="M 56.693219 -53.858 L 99.779156 -53.858 L 182.107281 24.095125 " transform="matrix(1,0,0,-1,-56.494,56.892)"/>
</g>
<g clip-path="url(#clip4)" clip-rule="nonzero">
<path style="fill:none;stroke-width:0.3985;stroke-linecap:butt;stroke-linejoin:miter;stroke:rgb(100%,0%,0%);stroke-opacity:1;stroke-miterlimit:10;" d="M 56.693219 -51.025969 L 101.259625 -51.025969 L 191.314312 17.86075 " transform="matrix(1,0,0,-1,-56.494,56.892)"/>
</g>
<path style="fill:none;stroke-width:0.3985;stroke-linecap:butt;stroke-linejoin:miter;stroke:rgb(100%,0%,0%);stroke-opacity:1;stroke-miterlimit:10;" d="M 56.693219 -48.190031 L 102.638531 -48.190031 L 197.665875 13.661531 " transform="matrix(1,0,0,-1,-56.494,56.892)"/>
<path style="fill:none;stroke-width:0.3985;stroke-linecap:butt;stroke-linejoin:miter;stroke:rgb(100%,0%,0%);stroke-opacity:1;stroke-miterlimit:10;" d="M 56.693219 -45.354094 L 103.919781 -45.354094 L 202.5565 10.556063 " transform="matrix(1,0,0,-1,-56.494,56.892)"/>
<path style="fill:none;stroke-width:0.3985;stroke-linecap:butt;stroke-linejoin:miter;stroke:rgb(100%,0%,0%);stroke-opacity:1;stroke-miterlimit:10;" d="M 56.693219 -42.522062 L 105.111187 -42.522062 L 206.52525 8.181063 " transform="matrix(1,0,0,-1,-56.494,56.892)"/>
<path style="fill:none;stroke-width:0.3985;stroke-linecap:butt;stroke-linejoin:miter;stroke:rgb(100%,0%,0%);stroke-opacity:1;stroke-miterlimit:10;" d="M 56.693219 -39.686125 L 106.216656 -39.686125 L 209.845562 6.313875 " transform="matrix(1,0,0,-1,-56.494,56.892)"/>
<path style="fill:none;stroke-width:0.3985;stroke-linecap:butt;stroke-linejoin:miter;stroke:rgb(100%,0%,0%);stroke-opacity:1;stroke-miterlimit:10;" d="M 56.693219 -36.854094 L 107.232281 -36.854094 L 212.669781 4.841219 " transform="matrix(1,0,0,-1,-56.494,56.892)"/>
<path style="fill:none;stroke-width:0.3985;stroke-linecap:butt;stroke-linejoin:miter;stroke:rgb(100%,0%,0%);stroke-opacity:1;stroke-miterlimit:10;" d="M 56.693219 -34.018156 L 108.161969 -34.018156 L 215.103375 3.661531 " transform="matrix(1,0,0,-1,-56.494,56.892)"/>
<path style="fill:none;stroke-width:0.3985;stroke-linecap:butt;stroke-linejoin:miter;stroke:rgb(100%,0%,0%);stroke-opacity:1;stroke-miterlimit:10;" d="M 56.693219 -31.182219 L 109.013531 -31.182219 L 217.204937 2.727938 " transform="matrix(1,0,0,-1,-56.494,56.892)"/>
<path style="fill:none;stroke-width:0.3985;stroke-linecap:butt;stroke-linejoin:miter;stroke:rgb(100%,0%,0%);stroke-opacity:1;stroke-miterlimit:10;" d="M 56.693219 -28.350187 L 109.786969 -28.350187 L 219.033062 1.98575 " transform="matrix(1,0,0,-1,-56.494,56.892)"/>
<path style="fill:none;stroke-width:0.3985;stroke-linecap:butt;stroke-linejoin:miter;stroke:rgb(100%,0%,0%);stroke-opacity:1;stroke-miterlimit:10;" d="M 56.693219 -25.51425 L 110.478375 -25.51425 L 220.615094 1.415438 " transform="matrix(1,0,0,-1,-56.494,56.892)"/>
<g clip-path="url(#clip5)" clip-rule="nonzero">
<path style="fill:none;stroke-width:0.3985;stroke-linecap:butt;stroke-linejoin:miter;stroke:rgb(100%,0%,0%);stroke-opacity:1;stroke-miterlimit:10;" d="M 56.693219 -22.678312 L 111.095562 -22.678312 L 221.986187 0.966219 " transform="matrix(1,0,0,-1,-56.494,56.892)"/>
</g>
<g clip-path="url(#clip6)" clip-rule="nonzero">
<path style="fill:none;stroke-width:0.3985;stroke-linecap:butt;stroke-linejoin:miter;stroke:rgb(100%,0%,0%);stroke-opacity:1;stroke-miterlimit:10;" d="M 56.693219 -19.846281 L 111.638531 -19.846281 L 223.154156 0.634188 " transform="matrix(1,0,0,-1,-56.494,56.892)"/>
</g>
<g clip-path="url(#clip7)" clip-rule="nonzero">
<path style="fill:none;stroke-width:0.3985;stroke-linecap:butt;stroke-linejoin:miter;stroke:rgb(100%,0%,0%);stroke-opacity:1;stroke-miterlimit:10;" d="M 56.693219 -17.010344 L 112.103375 -17.010344 L 224.142437 0.392 " transform="matrix(1,0,0,-1,-56.494,56.892)"/>
</g>
<g clip-path="url(#clip8)" clip-rule="nonzero">
<path style="fill:none;stroke-width:0.3985;stroke-linecap:butt;stroke-linejoin:miter;stroke:rgb(100%,0%,0%);stroke-opacity:1;stroke-miterlimit:10;" d="M 56.693219 -14.178312 L 112.497906 -14.178312 L 224.96275 0.216219 " transform="matrix(1,0,0,-1,-56.494,56.892)"/>
</g>
<g clip-path="url(#clip9)" clip-rule="nonzero">
<path style="fill:none;stroke-width:0.3985;stroke-linecap:butt;stroke-linejoin:miter;stroke:rgb(100%,0%,0%);stroke-opacity:1;stroke-miterlimit:10;" d="M 56.693219 -11.342375 L 112.818219 -11.342375 L 225.619 0.102938 " transform="matrix(1,0,0,-1,-56.494,56.892)"/>
</g>
<g clip-path="url(#clip10)" clip-rule="nonzero">
<path style="fill:none;stroke-width:0.3985;stroke-linecap:butt;stroke-linejoin:miter;stroke:rgb(100%,0%,0%);stroke-opacity:1;stroke-miterlimit:10;" d="M 56.693219 -8.506437 L 113.068219 -8.506437 L 226.122906 0.04825 " transform="matrix(1,0,0,-1,-56.494,56.892)"/>
</g>
<g clip-path="url(#clip11)" clip-rule="nonzero">
<path style="fill:none;stroke-width:0.3985;stroke-linecap:butt;stroke-linejoin:miter;stroke:rgb(100%,0%,0%);stroke-opacity:1;stroke-miterlimit:10;" d="M 56.693219 -5.674406 L 113.244 -5.674406 L 226.486187 0.0091875 " transform="matrix(1,0,0,-1,-56.494,56.892)"/>
</g>
<g clip-path="url(#clip12)" clip-rule="nonzero">
<path style="fill:none;stroke-width:0.3985;stroke-linecap:butt;stroke-linejoin:miter;stroke:rgb(100%,0%,0%);stroke-opacity:1;stroke-miterlimit:10;" d="M 56.693219 -2.838469 L 113.349469 -2.838469 L 226.697125 -0.00253125 " transform="matrix(1,0,0,-1,-56.494,56.892)"/>
</g>
<g clip-path="url(#clip13)" clip-rule="nonzero">
<path style="fill:none;stroke-width:0.3985;stroke-linecap:butt;stroke-linejoin:miter;stroke:rgb(100%,0%,0%);stroke-opacity:1;stroke-miterlimit:10;" d="M 56.693219 -0.0064375 L 226.77525 -0.0064375 " transform="matrix(1,0,0,-1,-56.494,56.892)"/>
</g>
<g clip-path="url(#clip14)" clip-rule="nonzero">
<path style="fill:none;stroke-width:0.3985;stroke-linecap:butt;stroke-linejoin:miter;stroke:rgb(100%,0%,0%);stroke-opacity:1;stroke-miterlimit:10;" d="M 56.693219 2.8295 L 113.353375 2.8295 L 226.697125 0.00528125 " transform="matrix(1,0,0,-1,-56.494,56.892)"/>
</g>
<g clip-path="url(#clip15)" clip-rule="nonzero">
<path style="fill:none;stroke-width:0.3985;stroke-linecap:butt;stroke-linejoin:miter;stroke:rgb(100%,0%,0%);stroke-opacity:1;stroke-miterlimit:10;" d="M 56.693219 5.665438 L 113.244 5.665438 L 226.486187 -0.0064375 " transform="matrix(1,0,0,-1,-56.494,56.892)"/>
</g>
<g clip-path="url(#clip16)" clip-rule="nonzero">
<path style="fill:none;stroke-width:0.3985;stroke-linecap:butt;stroke-linejoin:miter;stroke:rgb(100%,0%,0%);stroke-opacity:1;stroke-miterlimit:10;" d="M 56.693219 8.497469 L 113.068219 8.497469 L 226.126812 -0.0415937 " transform="matrix(1,0,0,-1,-56.494,56.892)"/>
</g>
<g clip-path="url(#clip17)" clip-rule="nonzero">
<path style="fill:none;stroke-width:0.3985;stroke-linecap:butt;stroke-linejoin:miter;stroke:rgb(100%,0%,0%);stroke-opacity:1;stroke-miterlimit:10;" d="M 56.693219 11.333406 L 112.818219 11.333406 L 225.622906 -0.104094 " transform="matrix(1,0,0,-1,-56.494,56.892)"/>
</g>
<g clip-path="url(#clip18)" clip-rule="nonzero">
<path style="fill:none;stroke-width:0.3985;stroke-linecap:butt;stroke-linejoin:miter;stroke:rgb(100%,0%,0%);stroke-opacity:1;stroke-miterlimit:10;" d="M 56.693219 14.165438 L 112.497906 14.165438 L 224.966656 -0.221281 " transform="matrix(1,0,0,-1,-56.494,56.892)"/>
</g>
<g clip-path="url(#clip19)" clip-rule="nonzero">
<path style="fill:none;stroke-width:0.3985;stroke-linecap:butt;stroke-linejoin:miter;stroke:rgb(100%,0%,0%);stroke-opacity:1;stroke-miterlimit:10;" d="M 56.693219 17.001375 L 112.103375 17.001375 L 224.146344 -0.385344 " transform="matrix(1,0,0,-1,-56.494,56.892)"/>
</g>
<g clip-path="url(#clip20)" clip-rule="nonzero">
<path style="fill:none;stroke-width:0.3985;stroke-linecap:butt;stroke-linejoin:miter;stroke:rgb(100%,0%,0%);stroke-opacity:1;stroke-miterlimit:10;" d="M 56.693219 19.837313 L 111.638531 19.837313 L 223.158062 -0.631437 " transform="matrix(1,0,0,-1,-56.494,56.892)"/>
</g>
<g clip-path="url(#clip21)" clip-rule="nonzero">
<path style="fill:none;stroke-width:0.3985;stroke-linecap:butt;stroke-linejoin:miter;stroke:rgb(100%,0%,0%);stroke-opacity:1;stroke-miterlimit:10;" d="M 56.693219 22.669344 L 111.099469 22.669344 L 221.990094 -0.971281 " transform="matrix(1,0,0,-1,-56.494,56.892)"/>
</g>
<path style="fill:none;stroke-width:0.3985;stroke-linecap:butt;stroke-linejoin:miter;stroke:rgb(100%,0%,0%);stroke-opacity:1;stroke-miterlimit:10;" d="M 56.693219 25.505281 L 110.482281 25.505281 L 220.622906 -1.416594 " transform="matrix(1,0,0,-1,-56.494,56.892)"/>
<path style="fill:none;stroke-width:0.3985;stroke-linecap:butt;stroke-linejoin:miter;stroke:rgb(100%,0%,0%);stroke-opacity:1;stroke-miterlimit:10;" d="M 56.693219 28.341219 L 109.786969 28.341219 L 219.040875 -1.983 " transform="matrix(1,0,0,-1,-56.494,56.892)"/>
<path style="fill:none;stroke-width:0.3985;stroke-linecap:butt;stroke-linejoin:miter;stroke:rgb(100%,0%,0%);stroke-opacity:1;stroke-miterlimit:10;" d="M 56.693219 31.17325 L 109.017437 31.17325 L 217.21275 -2.729094 " transform="matrix(1,0,0,-1,-56.494,56.892)"/>
<path style="fill:none;stroke-width:0.3985;stroke-linecap:butt;stroke-linejoin:miter;stroke:rgb(100%,0%,0%);stroke-opacity:1;stroke-miterlimit:10;" d="M 56.693219 34.009188 L 108.165875 34.009188 L 215.111187 -3.654875 " transform="matrix(1,0,0,-1,-56.494,56.892)"/>
<path style="fill:none;stroke-width:0.3985;stroke-linecap:butt;stroke-linejoin:miter;stroke:rgb(100%,0%,0%);stroke-opacity:1;stroke-miterlimit:10;" d="M 56.693219 36.841219 L 107.236187 36.841219 L 212.677594 -4.834562 " transform="matrix(1,0,0,-1,-56.494,56.892)"/>
<path style="fill:none;stroke-width:0.3985;stroke-linecap:butt;stroke-linejoin:miter;stroke:rgb(100%,0%,0%);stroke-opacity:1;stroke-miterlimit:10;" d="M 56.693219 39.677156 L 106.216656 39.677156 L 209.861187 -6.303312 " transform="matrix(1,0,0,-1,-56.494,56.892)"/>
<path style="fill:none;stroke-width:0.3985;stroke-linecap:butt;stroke-linejoin:miter;stroke:rgb(100%,0%,0%);stroke-opacity:1;stroke-miterlimit:10;" d="M 56.693219 42.513094 L 105.115094 42.513094 L 206.536969 -8.174406 " transform="matrix(1,0,0,-1,-56.494,56.892)"/>
<path style="fill:none;stroke-width:0.3985;stroke-linecap:butt;stroke-linejoin:miter;stroke:rgb(100%,0%,0%);stroke-opacity:1;stroke-miterlimit:10;" d="M 56.693219 45.345125 L 103.923687 45.345125 L 202.572125 -10.5455 " transform="matrix(1,0,0,-1,-56.494,56.892)"/>
<path style="fill:none;stroke-width:0.3985;stroke-linecap:butt;stroke-linejoin:miter;stroke:rgb(100%,0%,0%);stroke-opacity:1;stroke-miterlimit:10;" d="M 56.693219 48.181063 L 102.642437 48.181063 L 197.685406 -13.647062 " transform="matrix(1,0,0,-1,-56.494,56.892)"/>
<path style="fill:none;stroke-width:0.3985;stroke-linecap:butt;stroke-linejoin:miter;stroke:rgb(100%,0%,0%);stroke-opacity:1;stroke-miterlimit:10;" d="M 56.693219 51.013094 L 101.263531 51.013094 L 191.341656 -17.838469 " transform="matrix(1,0,0,-1,-56.494,56.892)"/>
<path style="fill:none;stroke-width:0.3985;stroke-linecap:butt;stroke-linejoin:miter;stroke:rgb(100%,0%,0%);stroke-opacity:1;stroke-miterlimit:10;" d="M 56.693219 53.849031 L 99.783062 53.849031 L 182.158062 -24.061125 " transform="matrix(1,0,0,-1,-56.494,56.892)"/>
</g>
</svg>
