<?xml version="1.0" encoding="UTF-8"?>
<svg xmlns="http://www.w3.org/2000/svg" xmlns:xlink="http://www.w3.org/1999/xlink" width="207.801pt" height="122.762pt" viewBox="0 0 207.801 122.762" version="1.1">
<defs>
<clipPath id="clip1">
  <path d="M 0 0 L 207.800781 0 L 207.800781 122.761719 L 0 122.761719 Z M 0 0 "/>
</clipPath>
<clipPath id="clip2">
  <path d="M 40 0 L 68 0 L 68 122.761719 L 40 122.761719 Z M 40 0 "/>
</clipPath>
<clipPath id="clip3">
  <path d="M 0 52 L 207.800781 52 L 207.800781 79 L 0 79 Z M 0 52 "/>
</clipPath>
<clipPath id="clip4">
  <path d="M 0 53 L 207.800781 53 L 207.800781 76 L 0 76 Z M 0 53 "/>
</clipPath>
<clipPath id="clip5">
  <path d="M 0 54 L 207.800781 54 L 207.800781 73 L 0 73 Z M 0 54 "/>
</clipPath>
<clipPath id="clip6">
  <path d="M 0 55 L 207.800781 55 L 207.800781 70 L 0 70 Z M 0 55 "/>
</clipPath>
<clipPath id="clip7">
  <path d="M 0 52 L 207.800781 52 L 207.800781 68 L 0 68 Z M 0 52 "/>
</clipPath>
<clipPath id="clip8">
  <path d="M 0 50 L 207.800781 50 L 207.800781 69 L 0 69 Z M 0 50 "/>
</clipPath>
<clipPath id="clip9">
  <path d="M 0 47 L 207.800781 47 L 207.800781 70 L 0 70 Z M 0 47 "/>
</clipPath>
<clipPath id="clip10">
  <path d="M 0 44 L 207.800781 44 L 207.800781 70 L 0 70 Z M 0 44 "/>
</clipPath>
</defs>
<g id="surface1">
<g clip-path="url(#clip1)" clip-rule="nonzero">
<path style="fill-rule:nonzero;fill:rgb(0%,0%,0%);fill-opacity:1;stroke-width:0.3985;stroke-linecap:butt;stroke-linejoin:miter;stroke:rgb(100%,100%,100%);stroke-opacity:1;stroke-miterlimit:10;" d="M 52.204219 -61.1815 L 52.204219 61.181781 L 259.610469 61.181781 L 259.610469 -61.1815 Z M 52.204219 -61.1815 " transform="matrix(1,0,0,-1,-52.005,61.381)"/>
<path style="fill-rule:nonzero;fill:rgb(0%,0%,0%);fill-opacity:1;stroke-width:0.3985;stroke-linecap:butt;stroke-linejoin:miter;stroke:rgb(100%,100%,100%);stroke-opacity:1;stroke-miterlimit:10;" d="M 52.204219 -61.1815 L 52.204219 61.181781 L 259.610469 61.181781 L 259.610469 -61.1815 Z M 52.204219 -61.1815 " transform="matrix(1,0,0,-1,-52.005,61.381)"/>
</g>
<path style=" stroke:none;fill-rule:nonzero;fill:rgb(80.000305%,93.566895%,98.745728%);fill-opacity:1;" d="M 46.191406 118.074219 C 66.441406 82.996094 66.441406 39.765625 46.191406 4.6875 Z M 46.191406 118.074219 "/>
<g clip-path="url(#clip2)" clip-rule="nonzero">
<path style="fill:none;stroke-width:0.3985;stroke-linecap:butt;stroke-linejoin:miter;stroke:rgb(100%,100%,100%);stroke-opacity:1;stroke-miterlimit:10;" d="M 98.196406 -56.693219 C 118.446406 -21.615094 118.446406 21.615375 98.196406 56.6935 Z M 98.196406 -56.693219 " transform="matrix(1,0,0,-1,-52.005,61.381)"/>
</g>
<g clip-path="url(#clip3)" clip-rule="nonzero">
<path style="fill:none;stroke-width:0.3985;stroke-linecap:butt;stroke-linejoin:miter;stroke:rgb(100%,0%,0%);stroke-opacity:1;stroke-miterlimit:10;" d="M 56.6925 -11.33775 L 112.8175 -11.33775 L 253.821406 2.970844 " transform="matrix(1,0,0,-1,-52.005,61.381)"/>
</g>
<g clip-path="url(#clip4)" clip-rule="nonzero">
<path style="fill:none;stroke-width:0.3985;stroke-linecap:butt;stroke-linejoin:miter;stroke:rgb(100%,0%,0%);stroke-opacity:1;stroke-miterlimit:10;" d="M 56.6925 -8.505719 L 113.0675 -8.505719 L 254.391719 2.185688 " transform="matrix(1,0,0,-1,-52.005,61.381)"/>
</g>
<g clip-path="url(#clip5)" clip-rule="nonzero">
<path style="fill:none;stroke-width:0.3985;stroke-linecap:butt;stroke-linejoin:miter;stroke:rgb(100%,0%,0%);stroke-opacity:1;stroke-miterlimit:10;" d="M 56.6925 -5.669781 L 113.247187 -5.669781 L 254.794062 1.427875 " transform="matrix(1,0,0,-1,-52.005,61.381)"/>
</g>
<g clip-path="url(#clip6)" clip-rule="nonzero">
<path style="fill:none;stroke-width:0.3985;stroke-linecap:butt;stroke-linejoin:miter;stroke:rgb(100%,0%,0%);stroke-opacity:1;stroke-miterlimit:10;" d="M 56.6925 -2.833844 L 113.352656 -2.833844 L 255.032344 0.705219 " transform="matrix(1,0,0,-1,-52.005,61.381)"/>
</g>
<path style="fill:none;stroke-width:0.3985;stroke-linecap:butt;stroke-linejoin:miter;stroke:rgb(100%,0%,0%);stroke-opacity:1;stroke-miterlimit:10;" d="M 56.6925 -0.0018125 L 255.122187 -0.0018125 " transform="matrix(1,0,0,-1,-52.005,61.381)"/>
<g clip-path="url(#clip7)" clip-rule="nonzero">
<path style="fill:none;stroke-width:0.3985;stroke-linecap:butt;stroke-linejoin:miter;stroke:rgb(100%,0%,0%);stroke-opacity:1;stroke-miterlimit:10;" d="M 56.6925 2.834125 L 113.352656 2.834125 L 255.032344 -0.704937 " transform="matrix(1,0,0,-1,-52.005,61.381)"/>
</g>
<g clip-path="url(#clip8)" clip-rule="nonzero">
<path style="fill:none;stroke-width:0.3985;stroke-linecap:butt;stroke-linejoin:miter;stroke:rgb(100%,0%,0%);stroke-opacity:1;stroke-miterlimit:10;" d="M 56.6925 5.666156 L 113.247187 5.666156 L 254.794062 -1.419781 " transform="matrix(1,0,0,-1,-52.005,61.381)"/>
</g>
<g clip-path="url(#clip9)" clip-rule="nonzero">
<path style="fill:none;stroke-width:0.3985;stroke-linecap:butt;stroke-linejoin:miter;stroke:rgb(100%,0%,0%);stroke-opacity:1;stroke-miterlimit:10;" d="M 56.6925 8.502094 L 113.0675 8.502094 L 254.391719 -2.177594 " transform="matrix(1,0,0,-1,-52.005,61.381)"/>
</g>
<g clip-path="url(#clip10)" clip-rule="nonzero">
<path style="fill:none;stroke-width:0.3985;stroke-linecap:butt;stroke-linejoin:miter;stroke:rgb(100%,0%,0%);stroke-opacity:1;stroke-miterlimit:10;" d="M 56.6925 11.338031 L 112.8175 11.338031 L 253.825312 -2.966656 " transform="matrix(1,0,0,-1,-52.005,61.381)"/>
</g>
</g>
</svg>
