<?xml version="1.0" encoding="UTF-8"?>
<svg xmlns="http://www.w3.org/2000/svg" xmlns:xlink="http://www.w3.org/1999/xlink" width="198.824" height="113.784" viewBox="0 0 198.824 113.784">
<defs>
<clipPath id="clip-0">
<path clip-rule="nonzero" d="M 41 0 L 57 0 L 57 113.785156 L 41 113.785156 Z M 41 0 "/>
</clipPath>
<clipPath id="clip-1">
<path clip-rule="nonzero" d="M 36 0 L 63 0 L 63 113.785156 L 36 113.785156 Z M 36 0 "/>
</clipPath>
<clipPath id="clip-2">
<path clip-rule="nonzero" d="M 0 48 L 198.824219 48 L 198.824219 74 L 0 74 Z M 0 48 "/>
</clipPath>
<clipPath id="clip-3">
<path clip-rule="nonzero" d="M 0 49 L 198.824219 49 L 198.824219 72 L 0 72 Z M 0 49 "/>
</clipPath>
<clipPath id="clip-4">
<path clip-rule="nonzero" d="M 0 49 L 198.824219 49 L 198.824219 69 L 0 69 Z M 0 49 "/>
</clipPath>
<clipPath id="clip-5">
<path clip-rule="nonzero" d="M 0 50 L 198.824219 50 L 198.824219 66 L 0 66 Z M 0 50 "/>
</clipPath>
<clipPath id="clip-6">
<path clip-rule="nonzero" d="M 0 56 L 198.824219 56 L 198.824219 58 L 0 58 Z M 0 56 "/>
</clipPath>
<clipPath id="clip-7">
<path clip-rule="nonzero" d="M 0 48 L 198.824219 48 L 198.824219 64 L 0 64 Z M 0 48 "/>
</clipPath>
<clipPath id="clip-8">
<path clip-rule="nonzero" d="M 0 45 L 198.824219 45 L 198.824219 64 L 0 64 Z M 0 45 "/>
</clipPath>
<clipPath id="clip-9">
<path clip-rule="nonzero" d="M 0 42 L 198.824219 42 L 198.824219 65 L 0 65 Z M 0 42 "/>
</clipPath>
<clipPath id="clip-10">
<path clip-rule="nonzero" d="M 0 39 L 198.824219 39 L 198.824219 66 L 0 66 Z M 0 39 "/>
</clipPath>
</defs>
<g clip-path="url(#clip-0)">
<path fill-rule="nonzero" fill="rgb(80.000305%, 93.566895%, 98.745728%)" fill-opacity="1" d="M 41.703125 113.585938 C 61.953125 78.507812 61.953125 35.277344 41.703125 0.199219 Z M 41.703125 113.585938 "/>
</g>
<g clip-path="url(#clip-1)">
<path fill="none" stroke-width="0.3985" stroke-linecap="butt" stroke-linejoin="miter" stroke="rgb(0%, 0%, 0%)" stroke-opacity="1" stroke-miterlimit="10" d="M 98.197125 -56.693937 C 118.447125 -21.615812 118.447125 21.614656 98.197125 56.692781 Z M 98.197125 -56.693937 " transform="matrix(1, 0, 0, -1, -56.494, 56.892)"/>
</g>
<g clip-path="url(#clip-2)">
<path fill="none" stroke-width="0.3985" stroke-linecap="butt" stroke-linejoin="miter" stroke="rgb(100%, 0%, 0%)" stroke-opacity="1" stroke-miterlimit="10" d="M 56.693219 -11.338469 L 112.818219 -11.338469 L 253.822125 2.970125 " transform="matrix(1, 0, 0, -1, -56.494, 56.892)"/>
</g>
<g clip-path="url(#clip-3)">
<path fill="none" stroke-width="0.3985" stroke-linecap="butt" stroke-linejoin="miter" stroke="rgb(100%, 0%, 0%)" stroke-opacity="1" stroke-miterlimit="10" d="M 56.693219 -8.502531 L 113.068219 -8.502531 L 254.392437 2.184969 " transform="matrix(1, 0, 0, -1, -56.494, 56.892)"/>
</g>
<g clip-path="url(#clip-4)">
<path fill="none" stroke-width="0.3985" stroke-linecap="butt" stroke-linejoin="miter" stroke="rgb(100%, 0%, 0%)" stroke-opacity="1" stroke-miterlimit="10" d="M 56.693219 -5.6705 L 113.244 -5.6705 L 254.794781 1.427156 " transform="matrix(1, 0, 0, -1, -56.494, 56.892)"/>
</g>
<g clip-path="url(#clip-5)">
<path fill="none" stroke-width="0.3985" stroke-linecap="butt" stroke-linejoin="miter" stroke="rgb(100%, 0%, 0%)" stroke-opacity="1" stroke-miterlimit="10" d="M 56.693219 -2.834562 L 113.349469 -2.834562 L 255.033062 0.7045 " transform="matrix(1, 0, 0, -1, -56.494, 56.892)"/>
</g>
<g clip-path="url(#clip-6)">
<path fill="none" stroke-width="0.3985" stroke-linecap="butt" stroke-linejoin="miter" stroke="rgb(100%, 0%, 0%)" stroke-opacity="1" stroke-miterlimit="10" d="M 56.693219 -0.00253125 L 255.122906 -0.00253125 " transform="matrix(1, 0, 0, -1, -56.494, 56.892)"/>
</g>
<g clip-path="url(#clip-7)">
<path fill="none" stroke-width="0.3985" stroke-linecap="butt" stroke-linejoin="miter" stroke="rgb(100%, 0%, 0%)" stroke-opacity="1" stroke-miterlimit="10" d="M 56.693219 2.833406 L 113.353375 2.833406 L 255.033062 -0.705656 " transform="matrix(1, 0, 0, -1, -56.494, 56.892)"/>
</g>
<g clip-path="url(#clip-8)">
<path fill="none" stroke-width="0.3985" stroke-linecap="butt" stroke-linejoin="miter" stroke="rgb(100%, 0%, 0%)" stroke-opacity="1" stroke-miterlimit="10" d="M 56.693219 5.669344 L 113.244 5.669344 L 254.794781 -1.4205 " transform="matrix(1, 0, 0, -1, -56.494, 56.892)"/>
</g>
<g clip-path="url(#clip-9)">
<path fill="none" stroke-width="0.3985" stroke-linecap="butt" stroke-linejoin="miter" stroke="rgb(100%, 0%, 0%)" stroke-opacity="1" stroke-miterlimit="10" d="M 56.693219 8.501375 L 113.068219 8.501375 L 254.392437 -2.178312 " transform="matrix(1, 0, 0, -1, -56.494, 56.892)"/>
</g>
<g clip-path="url(#clip-10)">
<path fill="none" stroke-width="0.3985" stroke-linecap="butt" stroke-linejoin="miter" stroke="rgb(100%, 0%, 0%)" stroke-opacity="1" stroke-miterlimit="10" d="M 56.693219 11.337313 L 112.818219 11.337313 L 253.826031 -2.967375 " transform="matrix(1, 0, 0, -1, -56.494, 56.892)"/>
</g>
</svg>
