<?xml version="1.0" encoding="UTF-8"?>
<svg xmlns="http://www.w3.org/2000/svg" xmlns:xlink="http://www.w3.org/1999/xlink" width="136.461pt" height="113.784pt" viewBox="0 0 136.461 113.784" version="1.1">
<defs>
<clipPath id="clip1">
  <path d="M 28 0 L 29 0 L 29 113.785156 L 28 113.785156 Z M 28 0 "/>
</clipPath>
<clipPath id="clip2">
  <path d="M 31 0 L 32 0 L 32 113.785156 L 31 113.785156 Z M 31 0 "/>
</clipPath>
<clipPath id="clip3">
  <path d="M 34 0 L 35 0 L 35 113.785156 L 34 113.785156 Z M 34 0 "/>
</clipPath>
<clipPath id="clip4">
  <path d="M 36 0 L 38 0 L 38 113.785156 L 36 113.785156 Z M 36 0 "/>
</clipPath>
<clipPath id="clip5">
  <path d="M 39 0 L 41 0 L 41 113.785156 L 39 113.785156 Z M 39 0 "/>
</clipPath>
<clipPath id="clip6">
  <path d="M 42 0 L 43 0 L 43 113.785156 L 42 113.785156 Z M 42 0 "/>
</clipPath>
<clipPath id="clip7">
  <path d="M 45 0 L 46 0 L 46 113.785156 L 45 113.785156 Z M 45 0 "/>
</clipPath>
<clipPath id="clip8">
  <path d="M 48 0 L 49 0 L 49 113.785156 L 48 113.785156 Z M 48 0 "/>
</clipPath>
<clipPath id="clip9">
  <path d="M 51 0 L 52 0 L 52 113.785156 L 51 113.785156 Z M 51 0 "/>
</clipPath>
<clipPath id="clip10">
  <path d="M 53 0 L 55 0 L 55 113.785156 L 53 113.785156 Z M 53 0 "/>
</clipPath>
<clipPath id="clip11">
  <path d="M 56 0 L 58 0 L 58 113.785156 L 56 113.785156 Z M 56 0 "/>
</clipPath>
<clipPath id="clip12">
  <path d="M 59 0 L 60 0 L 60 113.785156 L 59 113.785156 Z M 59 0 "/>
</clipPath>
<clipPath id="clip13">
  <path d="M 62 0 L 63 0 L 63 113.785156 L 62 113.785156 Z M 62 0 "/>
</clipPath>
<clipPath id="clip14">
  <path d="M 65 0 L 66 0 L 66 113.785156 L 65 113.785156 Z M 65 0 "/>
</clipPath>
<clipPath id="clip15">
  <path d="M 68 0 L 69 0 L 69 113.785156 L 68 113.785156 Z M 68 0 "/>
</clipPath>
<clipPath id="clip16">
  <path d="M 70 0 L 72 0 L 72 113.785156 L 70 113.785156 Z M 70 0 "/>
</clipPath>
<clipPath id="clip17">
  <path d="M 73 0 L 75 0 L 75 113.785156 L 73 113.785156 Z M 73 0 "/>
</clipPath>
<clipPath id="clip18">
  <path d="M 76 0 L 77 0 L 77 113.785156 L 76 113.785156 Z M 76 0 "/>
</clipPath>
<clipPath id="clip19">
  <path d="M 79 0 L 80 0 L 80 113.785156 L 79 113.785156 Z M 79 0 "/>
</clipPath>
<clipPath id="clip20">
  <path d="M 79 0 L 136.460938 0 L 136.460938 106 L 79 106 Z M 79 0 "/>
</clipPath>
<clipPath id="clip21">
  <path d="M 79 8 L 136.460938 8 L 136.460938 113.785156 L 79 113.785156 Z M 79 8 "/>
</clipPath>
<clipPath id="clip22">
  <path d="M 79 0 L 136.460938 0 L 136.460938 103 L 79 103 Z M 79 0 "/>
</clipPath>
<clipPath id="clip23">
  <path d="M 79 11 L 136.460938 11 L 136.460938 113.785156 L 79 113.785156 Z M 79 11 "/>
</clipPath>
<clipPath id="clip24">
  <path d="M 79 0 L 136.460938 0 L 136.460938 108 L 79 108 Z M 79 0 "/>
</clipPath>
<clipPath id="clip25">
  <path d="M 79 5 L 136.460938 5 L 136.460938 113.785156 L 79 113.785156 Z M 79 5 "/>
</clipPath>
<clipPath id="clip26">
  <path d="M 83 65 L 87 65 L 87 113.785156 L 83 113.785156 Z M 83 65 "/>
</clipPath>
</defs>
<g id="surface1">
<path style="fill:none;stroke-width:0.3985;stroke-linecap:butt;stroke-linejoin:miter;stroke:rgb(0%,0%,0%);stroke-opacity:1;stroke-miterlimit:10;" d="M -85.039781 0.001375 L -68.785875 0.001375 " transform="matrix(1,0,0,-1,85.239,56.892)"/>
<path style=" stroke:none;fill-rule:nonzero;fill:rgb(0%,0%,0%);fill-opacity:1;" d="M 20.042969 56.890625 C 18.980469 56.691406 17.25 56.09375 16.054688 55.398438 L 16.054688 58.386719 C 17.25 57.6875 18.980469 57.089844 20.042969 56.890625 "/>
<g clip-path="url(#clip1)" clip-rule="nonzero">
<path style="fill:none;stroke-width:0.3985;stroke-linecap:butt;stroke-linejoin:miter;stroke:rgb(0%,0%,0%);stroke-opacity:1;stroke-miterlimit:10;" d="M -56.692125 -56.693937 L -56.692125 56.692781 " transform="matrix(1,0,0,-1,85.239,56.892)"/>
</g>
<g clip-path="url(#clip2)" clip-rule="nonzero">
<path style="fill:none;stroke-width:0.3985;stroke-linecap:butt;stroke-linejoin:miter;stroke:rgb(0%,0%,0%);stroke-opacity:1;stroke-miterlimit:10;" d="M -53.860094 -56.693937 L -53.860094 56.692781 " transform="matrix(1,0,0,-1,85.239,56.892)"/>
</g>
<g clip-path="url(#clip3)" clip-rule="nonzero">
<path style="fill:none;stroke-width:0.3985;stroke-linecap:butt;stroke-linejoin:miter;stroke:rgb(0%,0%,0%);stroke-opacity:1;stroke-miterlimit:10;" d="M -51.024156 -56.693937 L -51.024156 56.692781 " transform="matrix(1,0,0,-1,85.239,56.892)"/>
</g>
<g clip-path="url(#clip4)" clip-rule="nonzero">
<path style="fill:none;stroke-width:0.3985;stroke-linecap:butt;stroke-linejoin:miter;stroke:rgb(0%,0%,0%);stroke-opacity:1;stroke-miterlimit:10;" d="M -48.188219 -56.693937 L -48.188219 56.692781 " transform="matrix(1,0,0,-1,85.239,56.892)"/>
</g>
<g clip-path="url(#clip5)" clip-rule="nonzero">
<path style="fill:none;stroke-width:0.3985;stroke-linecap:butt;stroke-linejoin:miter;stroke:rgb(0%,0%,0%);stroke-opacity:1;stroke-miterlimit:10;" d="M -45.352281 -56.693937 L -45.352281 56.692781 " transform="matrix(1,0,0,-1,85.239,56.892)"/>
</g>
<g clip-path="url(#clip6)" clip-rule="nonzero">
<path style="fill:none;stroke-width:0.3985;stroke-linecap:butt;stroke-linejoin:miter;stroke:rgb(0%,0%,0%);stroke-opacity:1;stroke-miterlimit:10;" d="M -42.52025 -56.693937 L -42.52025 56.692781 " transform="matrix(1,0,0,-1,85.239,56.892)"/>
</g>
<g clip-path="url(#clip7)" clip-rule="nonzero">
<path style="fill:none;stroke-width:0.3985;stroke-linecap:butt;stroke-linejoin:miter;stroke:rgb(0%,0%,0%);stroke-opacity:1;stroke-miterlimit:10;" d="M -39.684313 -56.693937 L -39.684313 56.692781 " transform="matrix(1,0,0,-1,85.239,56.892)"/>
</g>
<g clip-path="url(#clip8)" clip-rule="nonzero">
<path style="fill:none;stroke-width:0.3985;stroke-linecap:butt;stroke-linejoin:miter;stroke:rgb(0%,0%,0%);stroke-opacity:1;stroke-miterlimit:10;" d="M -36.848375 -56.693937 L -36.848375 56.692781 " transform="matrix(1,0,0,-1,85.239,56.892)"/>
</g>
<g clip-path="url(#clip9)" clip-rule="nonzero">
<path style="fill:none;stroke-width:0.3985;stroke-linecap:butt;stroke-linejoin:miter;stroke:rgb(0%,0%,0%);stroke-opacity:1;stroke-miterlimit:10;" d="M -34.016344 -56.693937 L -34.016344 56.692781 " transform="matrix(1,0,0,-1,85.239,56.892)"/>
</g>
<g clip-path="url(#clip10)" clip-rule="nonzero">
<path style="fill:none;stroke-width:0.3985;stroke-linecap:butt;stroke-linejoin:miter;stroke:rgb(0%,0%,0%);stroke-opacity:1;stroke-miterlimit:10;" d="M -31.180406 -56.693937 L -31.180406 56.692781 " transform="matrix(1,0,0,-1,85.239,56.892)"/>
</g>
<g clip-path="url(#clip11)" clip-rule="nonzero">
<path style="fill:none;stroke-width:0.3985;stroke-linecap:butt;stroke-linejoin:miter;stroke:rgb(0%,0%,0%);stroke-opacity:1;stroke-miterlimit:10;" d="M -28.344469 -56.693937 L -28.344469 56.692781 " transform="matrix(1,0,0,-1,85.239,56.892)"/>
</g>
<g clip-path="url(#clip12)" clip-rule="nonzero">
<path style="fill:none;stroke-width:0.3985;stroke-linecap:butt;stroke-linejoin:miter;stroke:rgb(0%,0%,0%);stroke-opacity:1;stroke-miterlimit:10;" d="M -25.508531 -56.693937 L -25.508531 56.692781 " transform="matrix(1,0,0,-1,85.239,56.892)"/>
</g>
<g clip-path="url(#clip13)" clip-rule="nonzero">
<path style="fill:none;stroke-width:0.3985;stroke-linecap:butt;stroke-linejoin:miter;stroke:rgb(0%,0%,0%);stroke-opacity:1;stroke-miterlimit:10;" d="M -22.6765 -56.693937 L -22.6765 56.692781 " transform="matrix(1,0,0,-1,85.239,56.892)"/>
</g>
<g clip-path="url(#clip14)" clip-rule="nonzero">
<path style="fill:none;stroke-width:0.3985;stroke-linecap:butt;stroke-linejoin:miter;stroke:rgb(0%,0%,0%);stroke-opacity:1;stroke-miterlimit:10;" d="M -19.840563 -56.693937 L -19.840563 56.692781 " transform="matrix(1,0,0,-1,85.239,56.892)"/>
</g>
<g clip-path="url(#clip15)" clip-rule="nonzero">
<path style="fill:none;stroke-width:0.3985;stroke-linecap:butt;stroke-linejoin:miter;stroke:rgb(0%,0%,0%);stroke-opacity:1;stroke-miterlimit:10;" d="M -17.004625 -56.693937 L -17.004625 56.692781 " transform="matrix(1,0,0,-1,85.239,56.892)"/>
</g>
<g clip-path="url(#clip16)" clip-rule="nonzero">
<path style="fill:none;stroke-width:0.3985;stroke-linecap:butt;stroke-linejoin:miter;stroke:rgb(0%,0%,0%);stroke-opacity:1;stroke-miterlimit:10;" d="M -14.172594 -56.693937 L -14.172594 56.692781 " transform="matrix(1,0,0,-1,85.239,56.892)"/>
</g>
<g clip-path="url(#clip17)" clip-rule="nonzero">
<path style="fill:none;stroke-width:0.3985;stroke-linecap:butt;stroke-linejoin:miter;stroke:rgb(0%,0%,0%);stroke-opacity:1;stroke-miterlimit:10;" d="M -11.336656 -56.693937 L -11.336656 56.692781 " transform="matrix(1,0,0,-1,85.239,56.892)"/>
</g>
<g clip-path="url(#clip18)" clip-rule="nonzero">
<path style="fill:none;stroke-width:0.3985;stroke-linecap:butt;stroke-linejoin:miter;stroke:rgb(0%,0%,0%);stroke-opacity:1;stroke-miterlimit:10;" d="M -8.500719 -56.693937 L -8.500719 56.692781 " transform="matrix(1,0,0,-1,85.239,56.892)"/>
</g>
<g clip-path="url(#clip19)" clip-rule="nonzero">
<path style="fill:none;stroke-width:0.3985;stroke-linecap:butt;stroke-linejoin:miter;stroke:rgb(0%,0%,0%);stroke-opacity:1;stroke-miterlimit:10;" d="M -5.664781 -56.693937 L -5.664781 56.692781 " transform="matrix(1,0,0,-1,85.239,56.892)"/>
</g>
<path style="fill:none;stroke-width:0.3985;stroke-linecap:butt;stroke-linejoin:miter;stroke:rgb(0%,0%,100%);stroke-opacity:1;stroke-miterlimit:10;" d="M -0.00071875 2.833406 C 1.565687 2.833406 2.835219 4.102938 2.835219 5.669344 C 2.835219 7.23575 1.565687 8.505281 -0.00071875 8.505281 " transform="matrix(1,0,0,-1,85.239,56.892)"/>
<path style="fill:none;stroke-width:0.3985;stroke-linecap:butt;stroke-linejoin:miter;stroke:rgb(0%,0%,100%);stroke-opacity:1;stroke-miterlimit:10;" d="M -0.00071875 -8.502531 C 1.565687 -8.502531 2.835219 -7.233 2.835219 -5.6705 C 2.835219 -4.104094 1.565687 -2.834562 -0.00071875 -2.834562 " transform="matrix(1,0,0,-1,85.239,56.892)"/>
<path style="fill:none;stroke-width:0.3985;stroke-linecap:butt;stroke-linejoin:miter;stroke:rgb(0%,0%,100%);stroke-opacity:1;stroke-miterlimit:10;" d="M -0.00071875 -2.834562 C 4.6985 -2.834562 8.503187 0.974031 8.503187 5.669344 C 8.503187 10.364656 4.6985 14.17325 -0.00071875 14.17325 " transform="matrix(1,0,0,-1,85.239,56.892)"/>
<path style="fill:none;stroke-width:0.3985;stroke-linecap:butt;stroke-linejoin:miter;stroke:rgb(0%,0%,100%);stroke-opacity:1;stroke-miterlimit:10;" d="M -0.00071875 -14.174406 C 4.6985 -14.174406 8.503187 -10.365812 8.503187 -5.6705 C 8.503187 -0.971281 4.6985 2.833406 -0.00071875 2.833406 " transform="matrix(1,0,0,-1,85.239,56.892)"/>
<path style="fill:none;stroke-width:0.3985;stroke-linecap:butt;stroke-linejoin:miter;stroke:rgb(0%,0%,100%);stroke-opacity:1;stroke-miterlimit:10;" d="M -0.00071875 -8.502531 C 7.827406 -8.502531 14.175062 -2.158781 14.175062 5.669344 C 14.175062 13.497469 7.827406 19.841219 -0.00071875 19.841219 " transform="matrix(1,0,0,-1,85.239,56.892)"/>
<path style="fill:none;stroke-width:0.3985;stroke-linecap:butt;stroke-linejoin:miter;stroke:rgb(0%,0%,100%);stroke-opacity:1;stroke-miterlimit:10;" d="M -0.00071875 -19.842375 C 7.827406 -19.842375 14.175062 -13.498625 14.175062 -5.6705 C 14.175062 2.157625 7.827406 8.505281 -0.00071875 8.505281 " transform="matrix(1,0,0,-1,85.239,56.892)"/>
<path style="fill:none;stroke-width:0.3985;stroke-linecap:butt;stroke-linejoin:miter;stroke:rgb(0%,0%,100%);stroke-opacity:1;stroke-miterlimit:10;" d="M -0.00071875 -14.174406 C 10.960219 -14.174406 19.843031 -5.291594 19.843031 5.669344 C 19.843031 16.626375 10.960219 25.513094 -0.00071875 25.513094 " transform="matrix(1,0,0,-1,85.239,56.892)"/>
<path style="fill:none;stroke-width:0.3985;stroke-linecap:butt;stroke-linejoin:miter;stroke:rgb(0%,0%,100%);stroke-opacity:1;stroke-miterlimit:10;" d="M -0.00071875 -25.510344 C 10.960219 -25.510344 19.843031 -16.627531 19.843031 -5.6705 C 19.843031 5.290438 10.960219 14.17325 -0.00071875 14.17325 " transform="matrix(1,0,0,-1,85.239,56.892)"/>
<path style="fill:none;stroke-width:0.3985;stroke-linecap:butt;stroke-linejoin:miter;stroke:rgb(0%,0%,100%);stroke-opacity:1;stroke-miterlimit:10;" d="M -0.00071875 -19.842375 C 14.089125 -19.842375 25.511 -8.4205 25.511 5.669344 C 25.511 19.759188 14.089125 31.181063 -0.00071875 31.181063 " transform="matrix(1,0,0,-1,85.239,56.892)"/>
<path style="fill:none;stroke-width:0.3985;stroke-linecap:butt;stroke-linejoin:miter;stroke:rgb(0%,0%,100%);stroke-opacity:1;stroke-miterlimit:10;" d="M -0.00071875 -31.182219 C 14.089125 -31.182219 25.511 -19.760344 25.511 -5.6705 C 25.511 8.419344 14.089125 19.841219 -0.00071875 19.841219 " transform="matrix(1,0,0,-1,85.239,56.892)"/>
<path style="fill:none;stroke-width:0.3985;stroke-linecap:butt;stroke-linejoin:miter;stroke:rgb(0%,0%,100%);stroke-opacity:1;stroke-miterlimit:10;" d="M -0.00071875 -25.510344 C 17.221937 -25.510344 31.182875 -11.553312 31.182875 5.669344 C 31.182875 22.892 17.221937 36.849031 -0.00071875 36.849031 " transform="matrix(1,0,0,-1,85.239,56.892)"/>
<path style="fill:none;stroke-width:0.3985;stroke-linecap:butt;stroke-linejoin:miter;stroke:rgb(0%,0%,100%);stroke-opacity:1;stroke-miterlimit:10;" d="M -0.00071875 -36.850187 C 17.221937 -36.850187 31.182875 -22.88925 31.182875 -5.6705 C 31.182875 11.552156 17.221937 25.513094 -0.00071875 25.513094 " transform="matrix(1,0,0,-1,85.239,56.892)"/>
<path style="fill:none;stroke-width:0.3985;stroke-linecap:butt;stroke-linejoin:miter;stroke:rgb(0%,0%,100%);stroke-opacity:1;stroke-miterlimit:10;" d="M -0.00071875 -31.182219 C 20.350844 -31.182219 36.850844 -14.682219 36.850844 5.669344 C 36.850844 26.020906 20.350844 42.520906 -0.00071875 42.520906 " transform="matrix(1,0,0,-1,85.239,56.892)"/>
<path style="fill:none;stroke-width:0.3985;stroke-linecap:butt;stroke-linejoin:miter;stroke:rgb(0%,0%,100%);stroke-opacity:1;stroke-miterlimit:10;" d="M -0.00071875 -42.518156 C 20.350844 -42.518156 36.850844 -26.022062 36.850844 -5.6705 C 36.850844 14.681063 20.350844 31.181063 -0.00071875 31.181063 " transform="matrix(1,0,0,-1,85.239,56.892)"/>
<path style="fill:none;stroke-width:0.3985;stroke-linecap:butt;stroke-linejoin:miter;stroke:rgb(0%,0%,100%);stroke-opacity:1;stroke-miterlimit:10;" d="M -0.00071875 -36.850187 C 23.483656 -36.850187 42.518812 -17.815031 42.518812 5.669344 C 42.518812 29.153719 23.483656 48.188875 -0.00071875 48.188875 " transform="matrix(1,0,0,-1,85.239,56.892)"/>
<path style="fill:none;stroke-width:0.3985;stroke-linecap:butt;stroke-linejoin:miter;stroke:rgb(0%,0%,100%);stroke-opacity:1;stroke-miterlimit:10;" d="M -0.00071875 -48.190031 C 23.483656 -48.190031 42.518812 -29.150969 42.518812 -5.6705 C 42.518812 17.813875 23.483656 36.849031 -0.00071875 36.849031 " transform="matrix(1,0,0,-1,85.239,56.892)"/>
<g clip-path="url(#clip20)" clip-rule="nonzero">
<path style="fill:none;stroke-width:0.3985;stroke-linecap:butt;stroke-linejoin:miter;stroke:rgb(0%,0%,100%);stroke-opacity:1;stroke-miterlimit:10;" d="M -0.00071875 -42.518156 C 26.612562 -42.518156 48.190687 -20.943937 48.190687 5.669344 C 48.190687 32.282625 26.612562 53.856844 -0.00071875 53.856844 " transform="matrix(1,0,0,-1,85.239,56.892)"/>
</g>
<g clip-path="url(#clip21)" clip-rule="nonzero">
<path style="fill:none;stroke-width:0.3985;stroke-linecap:butt;stroke-linejoin:miter;stroke:rgb(0%,0%,100%);stroke-opacity:1;stroke-miterlimit:10;" d="M -0.00071875 -53.858 C 26.612562 -53.858 48.190687 -32.283781 48.190687 -5.6705 C 48.190687 20.946688 26.612562 42.520906 -0.00071875 42.520906 " transform="matrix(1,0,0,-1,85.239,56.892)"/>
</g>
<path style="fill:none;stroke-width:0.3985;stroke-linecap:butt;stroke-linejoin:miter;stroke:rgb(100%,50%,0%);stroke-opacity:1;stroke-miterlimit:10;" d="M -0.00071875 0.001375 C 3.132094 0.001375 5.671156 2.536531 5.671156 5.669344 C 5.671156 8.802156 3.132094 11.337313 -0.00071875 11.337313 " transform="matrix(1,0,0,-1,85.239,56.892)"/>
<path style="fill:none;stroke-width:0.3985;stroke-linecap:butt;stroke-linejoin:miter;stroke:rgb(100%,50%,0%);stroke-opacity:1;stroke-miterlimit:10;" d="M -0.00071875 -11.338469 C 3.132094 -11.338469 5.671156 -8.799406 5.671156 -5.6705 C 5.671156 -2.537687 3.132094 0.001375 -0.00071875 0.001375 " transform="matrix(1,0,0,-1,85.239,56.892)"/>
<path style="fill:none;stroke-width:0.3985;stroke-linecap:butt;stroke-linejoin:miter;stroke:rgb(100%,50%,0%);stroke-opacity:1;stroke-miterlimit:10;" d="M -0.00071875 -5.6705 C 6.261 -5.6705 11.339125 -0.592375 11.339125 5.669344 C 11.339125 11.931063 6.261 17.009188 -0.00071875 17.009188 " transform="matrix(1,0,0,-1,85.239,56.892)"/>
<path style="fill:none;stroke-width:0.3985;stroke-linecap:butt;stroke-linejoin:miter;stroke:rgb(100%,50%,0%);stroke-opacity:1;stroke-miterlimit:10;" d="M -0.00071875 -17.006437 C 6.261 -17.006437 11.339125 -11.932219 11.339125 -5.6705 C 11.339125 0.591219 6.261 5.669344 -0.00071875 5.669344 " transform="matrix(1,0,0,-1,85.239,56.892)"/>
<path style="fill:none;stroke-width:0.3985;stroke-linecap:butt;stroke-linejoin:miter;stroke:rgb(100%,50%,0%);stroke-opacity:1;stroke-miterlimit:10;" d="M -0.00071875 -11.338469 C 9.393812 -11.338469 17.007094 -3.725187 17.007094 5.669344 C 17.007094 15.063875 9.393812 22.677156 -0.00071875 22.677156 " transform="matrix(1,0,0,-1,85.239,56.892)"/>
<path style="fill:none;stroke-width:0.3985;stroke-linecap:butt;stroke-linejoin:miter;stroke:rgb(100%,50%,0%);stroke-opacity:1;stroke-miterlimit:10;" d="M -0.00071875 -22.678312 C 9.393812 -22.678312 17.007094 -15.061125 17.007094 -5.6705 C 17.007094 3.724031 9.393812 11.337313 -0.00071875 11.337313 " transform="matrix(1,0,0,-1,85.239,56.892)"/>
<path style="fill:none;stroke-width:0.3985;stroke-linecap:butt;stroke-linejoin:miter;stroke:rgb(100%,50%,0%);stroke-opacity:1;stroke-miterlimit:10;" d="M -0.00071875 -17.006437 C 12.522719 -17.006437 22.678969 -6.854094 22.678969 5.669344 C 22.678969 18.192781 12.522719 28.345125 -0.00071875 28.345125 " transform="matrix(1,0,0,-1,85.239,56.892)"/>
<path style="fill:none;stroke-width:0.3985;stroke-linecap:butt;stroke-linejoin:miter;stroke:rgb(100%,50%,0%);stroke-opacity:1;stroke-miterlimit:10;" d="M -0.00071875 -28.346281 C 12.522719 -28.346281 22.678969 -18.193937 22.678969 -5.6705 C 22.678969 6.856844 12.522719 17.009188 -0.00071875 17.009188 " transform="matrix(1,0,0,-1,85.239,56.892)"/>
<path style="fill:none;stroke-width:0.3985;stroke-linecap:butt;stroke-linejoin:miter;stroke:rgb(100%,50%,0%);stroke-opacity:1;stroke-miterlimit:10;" d="M -0.00071875 -22.678312 C 15.655531 -22.678312 28.346937 -9.986906 28.346937 5.669344 C 28.346937 21.325594 15.655531 34.017 -0.00071875 34.017 " transform="matrix(1,0,0,-1,85.239,56.892)"/>
<path style="fill:none;stroke-width:0.3985;stroke-linecap:butt;stroke-linejoin:miter;stroke:rgb(100%,50%,0%);stroke-opacity:1;stroke-miterlimit:10;" d="M -0.00071875 -34.01425 C 15.655531 -34.01425 28.346937 -21.322844 28.346937 -5.6705 C 28.346937 9.98575 15.655531 22.677156 -0.00071875 22.677156 " transform="matrix(1,0,0,-1,85.239,56.892)"/>
<path style="fill:none;stroke-width:0.3985;stroke-linecap:butt;stroke-linejoin:miter;stroke:rgb(100%,50%,0%);stroke-opacity:1;stroke-miterlimit:10;" d="M -0.00071875 -28.346281 C 18.788344 -28.346281 34.014906 -13.115812 34.014906 5.669344 C 34.014906 24.4545 18.788344 39.684969 -0.00071875 39.684969 " transform="matrix(1,0,0,-1,85.239,56.892)"/>
<path style="fill:none;stroke-width:0.3985;stroke-linecap:butt;stroke-linejoin:miter;stroke:rgb(100%,50%,0%);stroke-opacity:1;stroke-miterlimit:10;" d="M -0.00071875 -39.686125 C 18.788344 -39.686125 34.014906 -24.455656 34.014906 -5.6705 C 34.014906 13.118563 18.788344 28.345125 -0.00071875 28.345125 " transform="matrix(1,0,0,-1,85.239,56.892)"/>
<path style="fill:none;stroke-width:0.3985;stroke-linecap:butt;stroke-linejoin:miter;stroke:rgb(100%,50%,0%);stroke-opacity:1;stroke-miterlimit:10;" d="M -0.00071875 -34.01425 C 21.91725 -34.01425 39.686781 -16.248625 39.686781 5.669344 C 39.686781 27.587313 21.91725 45.352938 -0.00071875 45.352938 " transform="matrix(1,0,0,-1,85.239,56.892)"/>
<path style="fill:none;stroke-width:0.3985;stroke-linecap:butt;stroke-linejoin:miter;stroke:rgb(100%,50%,0%);stroke-opacity:1;stroke-miterlimit:10;" d="M -0.00071875 -45.354094 C 21.91725 -45.354094 39.686781 -27.588469 39.686781 -5.6705 C 39.686781 16.247469 21.91725 34.017 -0.00071875 34.017 " transform="matrix(1,0,0,-1,85.239,56.892)"/>
<g clip-path="url(#clip22)" clip-rule="nonzero">
<path style="fill:none;stroke-width:0.3985;stroke-linecap:butt;stroke-linejoin:miter;stroke:rgb(100%,50%,0%);stroke-opacity:1;stroke-miterlimit:10;" d="M -0.00071875 -39.686125 C 25.050062 -39.686125 45.35475 -19.377531 45.35475 5.669344 C 45.35475 30.716219 25.050062 51.024813 -0.00071875 51.024813 " transform="matrix(1,0,0,-1,85.239,56.892)"/>
</g>
<g clip-path="url(#clip23)" clip-rule="nonzero">
<path style="fill:none;stroke-width:0.3985;stroke-linecap:butt;stroke-linejoin:miter;stroke:rgb(100%,50%,0%);stroke-opacity:1;stroke-miterlimit:10;" d="M -0.00071875 -51.022062 C 25.050062 -51.022062 45.35475 -30.717375 45.35475 -5.6705 C 45.35475 19.380281 25.050062 39.684969 -0.00071875 39.684969 " transform="matrix(1,0,0,-1,85.239,56.892)"/>
</g>
<g clip-path="url(#clip24)" clip-rule="nonzero">
<path style="fill:none;stroke-width:0.3985;stroke-linecap:butt;stroke-linejoin:miter;stroke:rgb(100%,50%,0%);stroke-opacity:1;stroke-miterlimit:10;" d="M -0.00071875 -45.354094 C 28.178969 -45.354094 51.022719 -22.510344 51.022719 5.669344 C 51.022719 33.849031 28.178969 56.692781 -0.00071875 56.692781 " transform="matrix(1,0,0,-1,85.239,56.892)"/>
</g>
<g clip-path="url(#clip25)" clip-rule="nonzero">
<path style="fill:none;stroke-width:0.3985;stroke-linecap:butt;stroke-linejoin:miter;stroke:rgb(100%,50%,0%);stroke-opacity:1;stroke-miterlimit:10;" d="M -0.00071875 -56.693937 C 28.178969 -56.693937 51.022719 -33.850187 51.022719 -5.6705 C 51.022719 22.509188 28.178969 45.352938 -0.00071875 45.352938 " transform="matrix(1,0,0,-1,85.239,56.892)"/>
</g>
<g clip-path="url(#clip26)" clip-rule="nonzero">
<path style="fill-rule:nonzero;fill:rgb(0%,0%,0%);fill-opacity:1;stroke-width:0.3985;stroke-linecap:butt;stroke-linejoin:miter;stroke:rgb(0%,0%,0%);stroke-opacity:1;stroke-miterlimit:10;" d="M 1.41725 -56.693937 L 1.41725 -8.502531 L -1.418688 -8.502531 L -1.418688 -56.693937 Z M 1.41725 -56.693937 " transform="matrix(1,0,0,-1,85.239,56.892)"/>
</g>
<path style="fill-rule:nonzero;fill:rgb(0%,0%,0%);fill-opacity:1;stroke-width:0.3985;stroke-linecap:butt;stroke-linejoin:miter;stroke:rgb(0%,0%,0%);stroke-opacity:1;stroke-miterlimit:10;" d="M 1.41725 -2.834562 L 1.41725 2.833406 L -1.418688 2.833406 L -1.418688 -2.834562 Z M 1.41725 -2.834562 " transform="matrix(1,0,0,-1,85.239,56.892)"/>
<path style="fill-rule:nonzero;fill:rgb(0%,0%,0%);fill-opacity:1;stroke-width:0.3985;stroke-linecap:butt;stroke-linejoin:miter;stroke:rgb(0%,0%,0%);stroke-opacity:1;stroke-miterlimit:10;" d="M 1.41725 56.692781 L 1.41725 8.505281 L -1.418688 8.505281 L -1.418688 56.692781 Z M 1.41725 56.692781 " transform="matrix(1,0,0,-1,85.239,56.892)"/>
<path style="fill-rule:nonzero;fill:rgb(100%,0%,0%);fill-opacity:1;stroke-width:0.3985;stroke-linecap:butt;stroke-linejoin:miter;stroke:rgb(100%,0%,0%);stroke-opacity:1;stroke-miterlimit:10;" d="M 1.41725 5.669344 C 1.41725 6.450594 0.784437 7.087313 -0.00071875 7.087313 C -0.781969 7.087313 -1.418688 6.450594 -1.418688 5.669344 C -1.418688 4.888094 -0.781969 4.251375 -0.00071875 4.251375 C 0.784437 4.251375 1.41725 4.888094 1.41725 5.669344 Z M 1.41725 5.669344 " transform="matrix(1,0,0,-1,85.239,56.892)"/>
<path style="fill-rule:nonzero;fill:rgb(100%,0%,0%);fill-opacity:1;stroke-width:0.3985;stroke-linecap:butt;stroke-linejoin:miter;stroke:rgb(100%,0%,0%);stroke-opacity:1;stroke-miterlimit:10;" d="M 1.41725 -5.6705 C 1.41725 -4.885344 0.784437 -4.252531 -0.00071875 -4.252531 C -0.781969 -4.252531 -1.418688 -4.885344 -1.418688 -5.6705 C -1.418688 -6.45175 -0.781969 -7.088469 -0.00071875 -7.088469 C 0.784437 -7.088469 1.41725 -6.45175 1.41725 -5.6705 Z M 1.41725 -5.6705 " transform="matrix(1,0,0,-1,85.239,56.892)"/>
</g>
</svg>
