<?xml version="1.0" encoding="UTF-8"?>
<svg xmlns="http://www.w3.org/2000/svg" xmlns:xlink="http://www.w3.org/1999/xlink" width="139.293pt" height="122.822pt" viewBox="0 0 139.293 122.822" version="1.1">
<defs>
<clipPath id="clip1">
  <path d="M 79 1 L 139.292969 1 L 139.292969 110 L 79 110 Z M 79 1 "/>
</clipPath>
<clipPath id="clip2">
  <path d="M 79 13 L 139.292969 13 L 139.292969 121 L 79 121 Z M 79 13 "/>
</clipPath>
<clipPath id="clip3">
  <path d="M 79 0 L 139.292969 0 L 139.292969 113 L 79 113 Z M 79 0 "/>
</clipPath>
<clipPath id="clip4">
  <path d="M 79 10 L 139.292969 10 L 139.292969 122.820312 L 79 122.820312 Z M 79 10 "/>
</clipPath>
<clipPath id="clip5">
  <path d="M 79 58 L 139.292969 58 L 139.292969 99 L 79 99 Z M 79 58 "/>
</clipPath>
<clipPath id="clip6">
  <path d="M 79 55 L 139.292969 55 L 139.292969 68 L 79 68 Z M 79 55 "/>
</clipPath>
<clipPath id="clip7">
  <path d="M 79 24 L 139.292969 24 L 139.292969 65 L 79 65 Z M 79 24 "/>
</clipPath>
<clipPath id="clip8">
  <path d="M 79 60 L 139.292969 60 L 139.292969 122.820312 L 79 122.820312 Z M 79 60 "/>
</clipPath>
<clipPath id="clip9">
  <path d="M 79 57 L 139.292969 57 L 139.292969 82 L 79 82 Z M 79 57 "/>
</clipPath>
<clipPath id="clip10">
  <path d="M 79 41 L 139.292969 41 L 139.292969 66 L 79 66 Z M 79 41 "/>
</clipPath>
<clipPath id="clip11">
  <path d="M 79 0 L 139.292969 0 L 139.292969 63 L 79 63 Z M 79 0 "/>
</clipPath>
</defs>
<g id="surface1">
<path style="fill:none;stroke-width:0.3985;stroke-linecap:butt;stroke-linejoin:miter;stroke:rgb(0%,0%,0%);stroke-opacity:1;stroke-miterlimit:10;" d="M -85.039781 0.00084375 L -68.785875 0.00084375 " transform="matrix(1,0,0,-1,85.239,61.411)"/>
<path style=" stroke:none;fill-rule:nonzero;fill:rgb(0%,0%,0%);fill-opacity:1;" d="M 20.042969 61.410156 C 18.980469 61.210938 17.25 60.613281 16.054688 59.917969 L 16.054688 62.90625 C 17.25 62.207031 18.980469 61.609375 20.042969 61.410156 "/>
<path style="fill:none;stroke-width:0.3985;stroke-linecap:butt;stroke-linejoin:miter;stroke:rgb(0%,0%,100%);stroke-opacity:1;stroke-miterlimit:10;" d="M -56.692125 -56.694469 L -56.692125 56.69225 " transform="matrix(1,0,0,-1,85.239,61.411)"/>
<path style="fill:none;stroke-width:0.3985;stroke-linecap:butt;stroke-linejoin:miter;stroke:rgb(100%,50%,0%);stroke-opacity:1;stroke-miterlimit:10;" d="M -53.860094 -56.694469 L -53.860094 56.69225 " transform="matrix(1,0,0,-1,85.239,61.411)"/>
<path style="fill:none;stroke-width:0.3985;stroke-linecap:butt;stroke-linejoin:miter;stroke:rgb(0%,0%,100%);stroke-opacity:1;stroke-miterlimit:10;" d="M -51.024156 -56.694469 L -51.024156 56.69225 " transform="matrix(1,0,0,-1,85.239,61.411)"/>
<path style="fill:none;stroke-width:0.3985;stroke-linecap:butt;stroke-linejoin:miter;stroke:rgb(100%,50%,0%);stroke-opacity:1;stroke-miterlimit:10;" d="M -48.188219 -56.694469 L -48.188219 56.69225 " transform="matrix(1,0,0,-1,85.239,61.411)"/>
<path style="fill:none;stroke-width:0.3985;stroke-linecap:butt;stroke-linejoin:miter;stroke:rgb(0%,0%,100%);stroke-opacity:1;stroke-miterlimit:10;" d="M -45.356188 -56.694469 L -45.356188 56.69225 " transform="matrix(1,0,0,-1,85.239,61.411)"/>
<path style="fill:none;stroke-width:0.3985;stroke-linecap:butt;stroke-linejoin:miter;stroke:rgb(100%,50%,0%);stroke-opacity:1;stroke-miterlimit:10;" d="M -42.52025 -56.694469 L -42.52025 56.69225 " transform="matrix(1,0,0,-1,85.239,61.411)"/>
<path style="fill:none;stroke-width:0.3985;stroke-linecap:butt;stroke-linejoin:miter;stroke:rgb(0%,0%,100%);stroke-opacity:1;stroke-miterlimit:10;" d="M -39.684313 -56.694469 L -39.684313 56.69225 " transform="matrix(1,0,0,-1,85.239,61.411)"/>
<path style="fill:none;stroke-width:0.3985;stroke-linecap:butt;stroke-linejoin:miter;stroke:rgb(100%,50%,0%);stroke-opacity:1;stroke-miterlimit:10;" d="M -36.852281 -56.694469 L -36.852281 56.69225 " transform="matrix(1,0,0,-1,85.239,61.411)"/>
<path style="fill:none;stroke-width:0.3985;stroke-linecap:butt;stroke-linejoin:miter;stroke:rgb(0%,0%,100%);stroke-opacity:1;stroke-miterlimit:10;" d="M -34.016344 -56.694469 L -34.016344 56.69225 " transform="matrix(1,0,0,-1,85.239,61.411)"/>
<path style="fill:none;stroke-width:0.3985;stroke-linecap:butt;stroke-linejoin:miter;stroke:rgb(100%,50%,0%);stroke-opacity:1;stroke-miterlimit:10;" d="M -31.180406 -56.694469 L -31.180406 56.69225 " transform="matrix(1,0,0,-1,85.239,61.411)"/>
<path style="fill:none;stroke-width:0.3985;stroke-linecap:butt;stroke-linejoin:miter;stroke:rgb(0%,0%,100%);stroke-opacity:1;stroke-miterlimit:10;" d="M -28.348375 -56.694469 L -28.348375 56.69225 " transform="matrix(1,0,0,-1,85.239,61.411)"/>
<path style="fill:none;stroke-width:0.3985;stroke-linecap:butt;stroke-linejoin:miter;stroke:rgb(100%,50%,0%);stroke-opacity:1;stroke-miterlimit:10;" d="M -25.512438 -56.694469 L -25.512438 56.69225 " transform="matrix(1,0,0,-1,85.239,61.411)"/>
<path style="fill:none;stroke-width:0.3985;stroke-linecap:butt;stroke-linejoin:miter;stroke:rgb(0%,0%,100%);stroke-opacity:1;stroke-miterlimit:10;" d="M -22.6765 -56.694469 L -22.6765 56.69225 " transform="matrix(1,0,0,-1,85.239,61.411)"/>
<path style="fill:none;stroke-width:0.3985;stroke-linecap:butt;stroke-linejoin:miter;stroke:rgb(100%,50%,0%);stroke-opacity:1;stroke-miterlimit:10;" d="M -19.844469 -56.694469 L -19.844469 56.69225 " transform="matrix(1,0,0,-1,85.239,61.411)"/>
<path style="fill:none;stroke-width:0.3985;stroke-linecap:butt;stroke-linejoin:miter;stroke:rgb(0%,0%,100%);stroke-opacity:1;stroke-miterlimit:10;" d="M -17.008531 -56.694469 L -17.008531 56.69225 " transform="matrix(1,0,0,-1,85.239,61.411)"/>
<path style="fill:none;stroke-width:0.3985;stroke-linecap:butt;stroke-linejoin:miter;stroke:rgb(100%,50%,0%);stroke-opacity:1;stroke-miterlimit:10;" d="M -14.172594 -56.694469 L -14.172594 56.69225 " transform="matrix(1,0,0,-1,85.239,61.411)"/>
<path style="fill:none;stroke-width:0.3985;stroke-linecap:butt;stroke-linejoin:miter;stroke:rgb(0%,0%,100%);stroke-opacity:1;stroke-miterlimit:10;" d="M -11.340563 -56.694469 L -11.340563 56.69225 " transform="matrix(1,0,0,-1,85.239,61.411)"/>
<path style="fill:none;stroke-width:0.3985;stroke-linecap:butt;stroke-linejoin:miter;stroke:rgb(100%,50%,0%);stroke-opacity:1;stroke-miterlimit:10;" d="M -8.504625 -56.694469 L -8.504625 56.69225 " transform="matrix(1,0,0,-1,85.239,61.411)"/>
<path style="fill:none;stroke-width:0.3985;stroke-linecap:butt;stroke-linejoin:miter;stroke:rgb(0%,0%,100%);stroke-opacity:1;stroke-miterlimit:10;" d="M -5.668688 -56.694469 L -5.668688 56.69225 " transform="matrix(1,0,0,-1,85.239,61.411)"/>
<path style="fill:none;stroke-width:0.3985;stroke-linecap:butt;stroke-linejoin:miter;stroke:rgb(100%,50%,0%);stroke-opacity:1;stroke-miterlimit:10;" d="M -2.836656 -56.694469 L -2.836656 56.69225 " transform="matrix(1,0,0,-1,85.239,61.411)"/>
<path style="fill:none;stroke-width:0.3985;stroke-linecap:butt;stroke-linejoin:miter;stroke:rgb(0%,0%,100%);stroke-opacity:1;stroke-miterlimit:10;" d="M -0.00071875 2.832875 C 1.565687 2.832875 2.835219 4.102406 2.835219 5.668812 C 2.835219 7.235219 1.565687 8.50475 -0.00071875 8.50475 " transform="matrix(1,0,0,-1,85.239,61.411)"/>
<path style="fill:none;stroke-width:0.3985;stroke-linecap:butt;stroke-linejoin:miter;stroke:rgb(0%,0%,100%);stroke-opacity:1;stroke-miterlimit:10;" d="M -0.00071875 -8.503063 C 1.565687 -8.503063 2.835219 -7.233531 2.835219 -5.671031 C 2.835219 -4.104625 1.565687 -2.835094 -0.00071875 -2.835094 " transform="matrix(1,0,0,-1,85.239,61.411)"/>
<path style="fill:none;stroke-width:0.3985;stroke-linecap:butt;stroke-linejoin:miter;stroke:rgb(0%,0%,100%);stroke-opacity:1;stroke-miterlimit:10;" d="M -0.00071875 -2.835094 C 4.6985 -2.835094 8.503187 0.9735 8.503187 5.668812 C 8.503187 10.364125 4.6985 14.172719 -0.00071875 14.172719 " transform="matrix(1,0,0,-1,85.239,61.411)"/>
<path style="fill:none;stroke-width:0.3985;stroke-linecap:butt;stroke-linejoin:miter;stroke:rgb(0%,0%,100%);stroke-opacity:1;stroke-miterlimit:10;" d="M -0.00071875 -14.174938 C 4.6985 -14.174938 8.503187 -10.366344 8.503187 -5.671031 C 8.503187 -0.971813 4.6985 2.836781 -0.00071875 2.836781 " transform="matrix(1,0,0,-1,85.239,61.411)"/>
<path style="fill:none;stroke-width:0.3985;stroke-linecap:butt;stroke-linejoin:miter;stroke:rgb(0%,0%,100%);stroke-opacity:1;stroke-miterlimit:10;" d="M -0.00071875 -8.503063 C 7.827406 -8.503063 14.175062 -2.159313 14.175062 5.668812 C 14.175062 13.496937 7.827406 19.844594 -0.00071875 19.844594 " transform="matrix(1,0,0,-1,85.239,61.411)"/>
<path style="fill:none;stroke-width:0.3985;stroke-linecap:butt;stroke-linejoin:miter;stroke:rgb(0%,0%,100%);stroke-opacity:1;stroke-miterlimit:10;" d="M -0.00071875 -19.842906 C 7.827406 -19.842906 14.175062 -13.49525 14.175062 -5.671031 C 14.175062 2.157094 7.827406 8.50475 -0.00071875 8.50475 " transform="matrix(1,0,0,-1,85.239,61.411)"/>
<path style="fill:none;stroke-width:0.3985;stroke-linecap:butt;stroke-linejoin:miter;stroke:rgb(0%,0%,100%);stroke-opacity:1;stroke-miterlimit:10;" d="M -0.00071875 -14.174938 C 10.960219 -14.174938 19.843031 -5.288219 19.843031 5.668812 C 19.843031 16.62975 10.960219 25.512562 -0.00071875 25.512562 " transform="matrix(1,0,0,-1,85.239,61.411)"/>
<path style="fill:none;stroke-width:0.3985;stroke-linecap:butt;stroke-linejoin:miter;stroke:rgb(0%,0%,100%);stroke-opacity:1;stroke-miterlimit:10;" d="M -0.00071875 -25.510875 C 10.960219 -25.510875 19.843031 -16.628063 19.843031 -5.671031 C 19.843031 5.289906 10.960219 14.172719 -0.00071875 14.172719 " transform="matrix(1,0,0,-1,85.239,61.411)"/>
<path style="fill:none;stroke-width:0.3985;stroke-linecap:butt;stroke-linejoin:miter;stroke:rgb(0%,0%,100%);stroke-opacity:1;stroke-miterlimit:10;" d="M -0.00071875 -19.842906 C 14.089125 -19.842906 25.511 -8.421031 25.511 5.668812 C 25.511 19.758656 14.089125 31.180531 -0.00071875 31.180531 " transform="matrix(1,0,0,-1,85.239,61.411)"/>
<path style="fill:none;stroke-width:0.3985;stroke-linecap:butt;stroke-linejoin:miter;stroke:rgb(0%,0%,100%);stroke-opacity:1;stroke-miterlimit:10;" d="M -0.00071875 -31.18275 C 14.089125 -31.18275 25.511 -19.760875 25.511 -5.671031 C 25.511 8.418812 14.089125 19.844594 -0.00071875 19.844594 " transform="matrix(1,0,0,-1,85.239,61.411)"/>
<path style="fill:none;stroke-width:0.3985;stroke-linecap:butt;stroke-linejoin:miter;stroke:rgb(0%,0%,100%);stroke-opacity:1;stroke-miterlimit:10;" d="M -0.00071875 -25.510875 C 17.221937 -25.510875 31.182875 -11.549938 31.182875 5.668812 C 31.182875 22.891469 17.221937 36.852406 -0.00071875 36.852406 " transform="matrix(1,0,0,-1,85.239,61.411)"/>
<path style="fill:none;stroke-width:0.3985;stroke-linecap:butt;stroke-linejoin:miter;stroke:rgb(0%,0%,100%);stroke-opacity:1;stroke-miterlimit:10;" d="M -0.00071875 -36.850719 C 17.221937 -36.850719 31.182875 -22.889781 31.182875 -5.671031 C 31.182875 11.551625 17.221937 25.512562 -0.00071875 25.512562 " transform="matrix(1,0,0,-1,85.239,61.411)"/>
<path style="fill:none;stroke-width:0.3985;stroke-linecap:butt;stroke-linejoin:miter;stroke:rgb(0%,0%,100%);stroke-opacity:1;stroke-miterlimit:10;" d="M -0.00071875 -31.18275 C 20.350844 -31.18275 36.850844 -14.68275 36.850844 5.668812 C 36.850844 26.020375 20.350844 42.520375 -0.00071875 42.520375 " transform="matrix(1,0,0,-1,85.239,61.411)"/>
<path style="fill:none;stroke-width:0.3985;stroke-linecap:butt;stroke-linejoin:miter;stroke:rgb(0%,0%,100%);stroke-opacity:1;stroke-miterlimit:10;" d="M -0.00071875 -42.518688 C 20.350844 -42.518688 36.850844 -26.022594 36.850844 -5.671031 C 36.850844 14.684437 20.350844 31.180531 -0.00071875 31.180531 " transform="matrix(1,0,0,-1,85.239,61.411)"/>
<path style="fill:none;stroke-width:0.3985;stroke-linecap:butt;stroke-linejoin:miter;stroke:rgb(0%,0%,100%);stroke-opacity:1;stroke-miterlimit:10;" d="M -0.00071875 -36.850719 C 23.483656 -36.850719 42.518812 -17.815563 42.518812 5.668812 C 42.518812 29.153187 23.483656 48.188344 -0.00071875 48.188344 " transform="matrix(1,0,0,-1,85.239,61.411)"/>
<path style="fill:none;stroke-width:0.3985;stroke-linecap:butt;stroke-linejoin:miter;stroke:rgb(0%,0%,100%);stroke-opacity:1;stroke-miterlimit:10;" d="M -0.00071875 -48.190563 C 23.483656 -48.190563 42.518812 -29.1515 42.518812 -5.671031 C 42.518812 17.813344 23.483656 36.852406 -0.00071875 36.852406 " transform="matrix(1,0,0,-1,85.239,61.411)"/>
<g clip-path="url(#clip1)" clip-rule="nonzero">
<path style="fill:none;stroke-width:0.3985;stroke-linecap:butt;stroke-linejoin:miter;stroke:rgb(0%,0%,100%);stroke-opacity:1;stroke-miterlimit:10;" d="M -0.00071875 -42.518688 C 26.612562 -42.518688 48.190687 -20.944469 48.190687 5.668812 C 48.190687 32.282094 26.612562 53.860219 -0.00071875 53.860219 " transform="matrix(1,0,0,-1,85.239,61.411)"/>
</g>
<g clip-path="url(#clip2)" clip-rule="nonzero">
<path style="fill:none;stroke-width:0.3985;stroke-linecap:butt;stroke-linejoin:miter;stroke:rgb(0%,0%,100%);stroke-opacity:1;stroke-miterlimit:10;" d="M -0.00071875 -53.858531 C 26.612562 -53.858531 48.190687 -32.284313 48.190687 -5.671031 C 48.190687 20.946156 26.612562 42.520375 -0.00071875 42.520375 " transform="matrix(1,0,0,-1,85.239,61.411)"/>
</g>
<path style="fill:none;stroke-width:0.3985;stroke-linecap:butt;stroke-linejoin:miter;stroke:rgb(100%,50%,0%);stroke-opacity:1;stroke-miterlimit:10;" d="M -0.00071875 0.00084375 C 3.132094 0.00084375 5.671156 2.539906 5.671156 5.668812 C 5.671156 8.801625 3.132094 11.336781 -0.00071875 11.336781 " transform="matrix(1,0,0,-1,85.239,61.411)"/>
<path style="fill:none;stroke-width:0.3985;stroke-linecap:butt;stroke-linejoin:miter;stroke:rgb(100%,50%,0%);stroke-opacity:1;stroke-miterlimit:10;" d="M -0.00071875 -11.339 C 3.132094 -11.339 5.671156 -8.799938 5.671156 -5.671031 C 5.671156 -2.538219 3.132094 0.00084375 -0.00071875 0.00084375 " transform="matrix(1,0,0,-1,85.239,61.411)"/>
<path style="fill:none;stroke-width:0.3985;stroke-linecap:butt;stroke-linejoin:miter;stroke:rgb(100%,50%,0%);stroke-opacity:1;stroke-miterlimit:10;" d="M -0.00071875 -5.671031 C 6.261 -5.671031 11.339125 -0.592906 11.339125 5.668812 C 11.339125 11.930531 6.261 17.008656 -0.00071875 17.008656 " transform="matrix(1,0,0,-1,85.239,61.411)"/>
<path style="fill:none;stroke-width:0.3985;stroke-linecap:butt;stroke-linejoin:miter;stroke:rgb(100%,50%,0%);stroke-opacity:1;stroke-miterlimit:10;" d="M -0.00071875 -17.006969 C 6.261 -17.006969 11.339125 -11.93275 11.339125 -5.671031 C 11.339125 0.594594 6.261 5.668812 -0.00071875 5.668812 " transform="matrix(1,0,0,-1,85.239,61.411)"/>
<path style="fill:none;stroke-width:0.3985;stroke-linecap:butt;stroke-linejoin:miter;stroke:rgb(100%,50%,0%);stroke-opacity:1;stroke-miterlimit:10;" d="M -0.00071875 -11.339 C 9.393812 -11.339 17.007094 -3.725719 17.007094 5.668812 C 17.007094 15.063344 9.393812 22.676625 -0.00071875 22.676625 " transform="matrix(1,0,0,-1,85.239,61.411)"/>
<path style="fill:none;stroke-width:0.3985;stroke-linecap:butt;stroke-linejoin:miter;stroke:rgb(100%,50%,0%);stroke-opacity:1;stroke-miterlimit:10;" d="M -0.00071875 -22.678844 C 9.393812 -22.678844 17.007094 -15.061656 17.007094 -5.671031 C 17.007094 3.7235 9.393812 11.336781 -0.00071875 11.336781 " transform="matrix(1,0,0,-1,85.239,61.411)"/>
<path style="fill:none;stroke-width:0.3985;stroke-linecap:butt;stroke-linejoin:miter;stroke:rgb(100%,50%,0%);stroke-opacity:1;stroke-miterlimit:10;" d="M -0.00071875 -17.006969 C 12.522719 -17.006969 22.678969 -6.854625 22.678969 5.668812 C 22.678969 18.19225 12.522719 28.344594 -0.00071875 28.344594 " transform="matrix(1,0,0,-1,85.239,61.411)"/>
<path style="fill:none;stroke-width:0.3985;stroke-linecap:butt;stroke-linejoin:miter;stroke:rgb(100%,50%,0%);stroke-opacity:1;stroke-miterlimit:10;" d="M -0.00071875 -28.346813 C 12.522719 -28.346813 22.678969 -18.194469 22.678969 -5.671031 C 22.678969 6.856312 12.522719 17.008656 -0.00071875 17.008656 " transform="matrix(1,0,0,-1,85.239,61.411)"/>
<path style="fill:none;stroke-width:0.3985;stroke-linecap:butt;stroke-linejoin:miter;stroke:rgb(100%,50%,0%);stroke-opacity:1;stroke-miterlimit:10;" d="M -0.00071875 -22.678844 C 15.655531 -22.678844 28.346937 -9.987438 28.346937 5.668812 C 28.346937 21.325062 15.655531 34.016469 -0.00071875 34.016469 " transform="matrix(1,0,0,-1,85.239,61.411)"/>
<path style="fill:none;stroke-width:0.3985;stroke-linecap:butt;stroke-linejoin:miter;stroke:rgb(100%,50%,0%);stroke-opacity:1;stroke-miterlimit:10;" d="M -0.00071875 -34.014781 C 15.655531 -34.014781 28.346937 -21.323375 28.346937 -5.671031 C 28.346937 9.985219 15.655531 22.676625 -0.00071875 22.676625 " transform="matrix(1,0,0,-1,85.239,61.411)"/>
<path style="fill:none;stroke-width:0.3985;stroke-linecap:butt;stroke-linejoin:miter;stroke:rgb(100%,50%,0%);stroke-opacity:1;stroke-miterlimit:10;" d="M -0.00071875 -28.346813 C 18.788344 -28.346813 34.014906 -13.116344 34.014906 5.668812 C 34.014906 24.453969 18.788344 39.684437 -0.00071875 39.684437 " transform="matrix(1,0,0,-1,85.239,61.411)"/>
<path style="fill:none;stroke-width:0.3985;stroke-linecap:butt;stroke-linejoin:miter;stroke:rgb(100%,50%,0%);stroke-opacity:1;stroke-miterlimit:10;" d="M -0.00071875 -39.686656 C 18.788344 -39.686656 34.014906 -24.456188 34.014906 -5.671031 C 34.014906 13.118031 18.788344 28.344594 -0.00071875 28.344594 " transform="matrix(1,0,0,-1,85.239,61.411)"/>
<path style="fill:none;stroke-width:0.3985;stroke-linecap:butt;stroke-linejoin:miter;stroke:rgb(100%,50%,0%);stroke-opacity:1;stroke-miterlimit:10;" d="M -0.00071875 -34.014781 C 21.91725 -34.014781 39.686781 -16.249156 39.686781 5.668812 C 39.686781 27.586781 21.91725 45.352406 -0.00071875 45.352406 " transform="matrix(1,0,0,-1,85.239,61.411)"/>
<path style="fill:none;stroke-width:0.3985;stroke-linecap:butt;stroke-linejoin:miter;stroke:rgb(100%,50%,0%);stroke-opacity:1;stroke-miterlimit:10;" d="M -0.00071875 -45.354625 C 21.91725 -45.354625 39.686781 -27.585094 39.686781 -5.671031 C 39.686781 16.246937 21.91725 34.016469 -0.00071875 34.016469 " transform="matrix(1,0,0,-1,85.239,61.411)"/>
<path style="fill:none;stroke-width:0.3985;stroke-linecap:butt;stroke-linejoin:miter;stroke:rgb(100%,50%,0%);stroke-opacity:1;stroke-miterlimit:10;" d="M -0.00071875 -39.686656 C 25.050062 -39.686656 45.35475 -19.378063 45.35475 5.668812 C 45.35475 30.719594 25.050062 51.024281 -0.00071875 51.024281 " transform="matrix(1,0,0,-1,85.239,61.411)"/>
<path style="fill:none;stroke-width:0.3985;stroke-linecap:butt;stroke-linejoin:miter;stroke:rgb(100%,50%,0%);stroke-opacity:1;stroke-miterlimit:10;" d="M -0.00071875 -51.022594 C 25.050062 -51.022594 45.35475 -30.717906 45.35475 -5.671031 C 45.35475 19.37975 25.050062 39.684437 -0.00071875 39.684437 " transform="matrix(1,0,0,-1,85.239,61.411)"/>
<g clip-path="url(#clip3)" clip-rule="nonzero">
<path style="fill:none;stroke-width:0.3985;stroke-linecap:butt;stroke-linejoin:miter;stroke:rgb(100%,50%,0%);stroke-opacity:1;stroke-miterlimit:10;" d="M -0.00071875 -45.354625 C 28.178969 -45.354625 51.022719 -22.510875 51.022719 5.668812 C 51.022719 33.8485 28.178969 56.69225 -0.00071875 56.69225 " transform="matrix(1,0,0,-1,85.239,61.411)"/>
</g>
<g clip-path="url(#clip4)" clip-rule="nonzero">
<path style="fill:none;stroke-width:0.3985;stroke-linecap:butt;stroke-linejoin:miter;stroke:rgb(100%,50%,0%);stroke-opacity:1;stroke-miterlimit:10;" d="M -0.00071875 -56.694469 C 28.178969 -56.694469 51.022719 -33.850719 51.022719 -5.671031 C 51.022719 22.508656 28.178969 45.352406 -0.00071875 45.352406 " transform="matrix(1,0,0,-1,85.239,61.411)"/>
</g>
<g clip-path="url(#clip5)" clip-rule="nonzero">
<path style="fill:none;stroke-width:0.3985;stroke-linecap:butt;stroke-linejoin:miter;stroke:rgb(0%,0%,0%);stroke-opacity:1;stroke-miterlimit:10;" d="M -0.00071875 -2.835094 C -0.00071875 -2.835094 1.620375 -2.975719 2.245375 -3.116344 C 2.866469 -3.256969 3.866469 -3.604625 4.487562 -3.839 C 5.112562 -4.073375 6.108656 -4.522594 6.733656 -4.811656 C 7.35475 -5.096813 8.35475 -5.592906 8.975844 -5.905406 C 9.596937 -6.221813 10.596937 -6.741344 11.221937 -7.069469 C 11.843031 -7.397594 12.843031 -7.936656 13.464125 -8.272594 C 14.085219 -8.608531 15.085219 -9.159313 15.706312 -9.499156 C 16.331312 -9.842906 17.327406 -10.397594 17.952406 -10.74525 C 18.5735 -11.089 19.5735 -11.647594 20.194594 -11.999156 C 20.819594 -12.346813 21.815687 -12.909313 22.440687 -13.260875 C 23.061781 -13.612438 24.061781 -14.174938 24.682875 -14.530406 C 25.307875 -14.881969 26.303969 -15.448375 26.928969 -15.799938 C 27.550062 -16.155406 28.550062 -16.721813 29.171156 -17.077281 C 29.796156 -17.43275 30.79225 -18.003063 31.41725 -18.354625 C 32.038344 -18.710094 33.038344 -19.280406 33.659437 -19.635875 C 34.284437 -19.991344 35.280531 -20.565563 35.905531 -20.921031 C 36.526625 -21.2765 37.526625 -21.846813 38.147719 -22.206188 C 38.772719 -22.561656 39.768812 -23.131969 40.393812 -23.491344 C 41.014906 -23.846813 42.014906 -24.421031 42.636 -24.7765 C 43.257094 -25.131969 44.257094 -25.706188 44.878187 -26.061656 C 45.503187 -26.421031 46.503187 -26.99525 47.124281 -27.350719 C 47.745375 -27.710094 48.745375 -28.284313 49.366469 -28.639781 C 49.991469 -28.999156 50.987562 -29.573375 51.612562 -29.928844 C 52.233656 -30.288219 53.85475 -31.217906 53.85475 -31.217906 " transform="matrix(1,0,0,-1,85.239,61.411)"/>
</g>
<g clip-path="url(#clip6)" clip-rule="nonzero">
<path style="fill:none;stroke-width:0.3985;stroke-linecap:butt;stroke-linejoin:miter;stroke:rgb(0%,0%,0%);stroke-opacity:1;stroke-miterlimit:10;" d="M -0.00071875 0.00084375 C -0.00071875 0.00084375 1.620375 0.00084375 2.245375 0.00084375 C 2.866469 0.00084375 3.866469 0.00084375 4.487562 0.00084375 C 5.112562 0.00084375 6.108656 0.00084375 6.733656 0.00084375 C 7.35475 0.00084375 8.35475 0.00084375 8.975844 0.00084375 C 9.596937 0.00084375 10.596937 0.00084375 11.221937 0.00084375 C 11.843031 0.00084375 12.843031 0.00084375 13.464125 0.00084375 C 14.085219 0.00084375 15.085219 0.00084375 15.706312 0.00084375 C 16.331312 0.00084375 17.327406 0.00084375 17.952406 0.00084375 C 18.5735 0.00084375 19.5735 0.00084375 20.194594 0.00084375 C 20.819594 0.00084375 21.815687 0.00084375 22.440687 0.00084375 C 23.061781 0.00084375 24.061781 0.00084375 24.682875 0.00084375 C 25.307875 0.00084375 26.303969 0.00084375 26.928969 0.00084375 C 27.550062 0.00084375 28.550062 0.00084375 29.171156 0.00084375 C 29.796156 0.00084375 30.79225 0.00084375 31.41725 0.00084375 C 32.038344 0.00084375 33.038344 0.00084375 33.659437 0.00084375 C 34.284437 0.00084375 35.280531 0.00084375 35.905531 0.00084375 C 36.526625 0.00084375 37.526625 0.00084375 38.147719 0.00084375 C 38.772719 0.00084375 39.768812 0.00084375 40.393812 0.00084375 C 41.014906 0.00084375 42.014906 0.00084375 42.636 0.00084375 C 43.257094 0.00084375 44.257094 0.00084375 44.878187 0.00084375 C 45.503187 0.00084375 46.503187 0.00084375 47.124281 0.00084375 C 47.745375 0.00084375 48.745375 0.00084375 49.366469 0.00084375 C 49.991469 0.00084375 50.987562 0.00084375 51.612562 0.00084375 C 52.233656 0.00084375 53.85475 0.00084375 53.85475 0.00084375 " transform="matrix(1,0,0,-1,85.239,61.411)"/>
</g>
<g clip-path="url(#clip7)" clip-rule="nonzero">
<path style="fill:none;stroke-width:0.3985;stroke-linecap:butt;stroke-linejoin:miter;stroke:rgb(0%,0%,0%);stroke-opacity:1;stroke-miterlimit:10;" d="M -0.00071875 2.832875 C -0.00071875 2.832875 1.620375 2.977406 2.245375 3.114125 C 2.866469 3.25475 3.866469 3.606312 4.487562 3.840687 C 5.112562 4.075062 6.108656 4.524281 6.733656 4.809437 C 7.35475 5.094594 8.35475 5.594594 8.975844 5.907094 C 9.596937 6.219594 10.596937 6.743031 11.221937 7.071156 C 11.843031 7.399281 12.843031 7.934437 13.464125 8.274281 C 14.085219 8.610219 15.085219 9.157094 15.706312 9.500844 C 16.331312 9.844594 17.327406 10.395375 17.952406 10.743031 C 18.5735 11.090687 19.5735 11.649281 20.194594 11.996937 C 20.819594 12.3485 21.815687 12.911 22.440687 13.262562 C 23.061781 13.610219 24.061781 14.176625 24.682875 14.528187 C 25.307875 14.87975 26.303969 15.446156 26.928969 15.801625 C 27.550062 16.153187 28.550062 16.7235 29.171156 17.078969 C 29.796156 17.430531 30.79225 18.000844 31.41725 18.356312 C 32.038344 18.711781 33.038344 19.282094 33.659437 19.637562 C 34.284437 19.993031 35.280531 20.563344 35.905531 20.918812 C 36.526625 21.278187 37.526625 21.8485 38.147719 22.203969 C 38.772719 22.559437 39.768812 23.133656 40.393812 23.489125 C 41.014906 23.8485 42.014906 24.418812 42.636 24.774281 C 43.257094 25.133656 44.257094 25.707875 44.878187 26.063344 C 45.503187 26.418812 46.503187 26.993031 47.124281 27.352406 C 47.745375 27.707875 48.745375 28.282094 49.366469 28.641469 C 49.991469 28.996937 50.987562 29.571156 51.612562 29.930531 C 52.233656 30.286 53.85475 31.219594 53.85475 31.219594 " transform="matrix(1,0,0,-1,85.239,61.411)"/>
</g>
<g clip-path="url(#clip8)" clip-rule="nonzero">
<path style="fill:none;stroke-width:0.3985;stroke-linecap:butt;stroke-linejoin:miter;stroke:rgb(0%,0%,0%);stroke-opacity:1;stroke-dasharray:2.98883,2.98883;stroke-miterlimit:10;" d="M -0.00071875 -4.253063 C -0.00071875 -4.253063 1.620375 -4.624156 2.245375 -4.952281 C 2.866469 -5.284313 3.866469 -6.104625 4.487562 -6.628063 C 5.112562 -7.155406 6.108656 -8.128063 6.733656 -8.737438 C 7.35475 -9.346813 8.35475 -10.381969 8.975844 -11.030406 C 9.596937 -11.678844 10.596937 -12.74525 11.221937 -13.413219 C 11.843031 -14.081188 12.843031 -15.167125 13.464125 -15.846813 C 14.085219 -16.5265 15.085219 -17.624156 15.706312 -18.311656 C 16.331312 -18.99525 17.327406 -20.104625 17.952406 -20.792125 C 18.5735 -21.483531 19.5735 -22.596813 20.194594 -23.292125 C 20.819594 -23.983531 21.815687 -25.100719 22.440687 -25.796031 C 23.061781 -26.491344 24.061781 -27.612438 24.682875 -28.30775 C 25.307875 -29.006969 26.303969 -30.128063 26.928969 -30.827281 C 27.550062 -31.5265 28.550062 -32.647594 29.171156 -33.346813 C 29.796156 -34.049938 30.79225 -35.171031 31.41725 -35.874156 C 32.038344 -36.573375 33.038344 -37.698375 33.659437 -38.4015 C 34.284437 -39.104625 35.280531 -40.229625 35.905531 -40.93275 C 36.526625 -41.631969 37.526625 -42.760875 38.147719 -43.464 C 38.772719 -44.163219 39.768812 -45.292125 40.393812 -45.99525 C 41.014906 -46.698375 42.014906 -47.827281 42.636 -48.530406 C 43.257094 -49.233531 44.257094 -50.362438 44.878187 -51.065563 C 45.503187 -51.768688 46.503187 -52.897594 47.124281 -53.600719 C 47.745375 -54.303844 48.745375 -55.43275 49.366469 -56.135875 C 49.991469 -56.839 50.987562 -57.971813 51.612562 -58.674938 C 52.233656 -59.378063 53.85475 -61.214 53.85475 -61.214 " transform="matrix(1,0,0,-1,85.239,61.411)"/>
</g>
<g clip-path="url(#clip9)" clip-rule="nonzero">
<path style="fill:none;stroke-width:0.3985;stroke-linecap:butt;stroke-linejoin:miter;stroke:rgb(0%,0%,0%);stroke-opacity:1;stroke-dasharray:2.98883,2.98883;stroke-miterlimit:10;" d="M -0.00071875 -1.417125 C -0.00071875 -1.417125 1.620375 -1.471813 2.245375 -1.530406 C 2.866469 -1.589 3.866469 -1.729625 4.487562 -1.831188 C 5.112562 -1.928844 6.108656 -2.12025 6.733656 -2.241344 C 7.35475 -2.366344 8.35475 -2.581188 8.975844 -2.714 C 9.596937 -2.850719 10.596937 -3.081188 11.221937 -3.225719 C 11.843031 -3.366344 12.843031 -3.604625 13.464125 -3.753063 C 14.085219 -3.9015 15.085219 -4.143688 15.706312 -4.296031 C 16.331312 -4.448375 17.327406 -4.690563 17.952406 -4.846813 C 18.5735 -4.999156 19.5735 -5.249156 20.194594 -5.4015 C 20.819594 -5.55775 21.815687 -5.80775 22.440687 -5.964 C 23.061781 -6.12025 24.061781 -6.37025 24.682875 -6.5265 C 25.307875 -6.68275 26.303969 -6.936656 26.928969 -7.092906 C 27.550062 -7.249156 28.550062 -7.503063 29.171156 -7.663219 C 29.796156 -7.819469 30.79225 -8.073375 31.41725 -8.233531 C 32.038344 -8.389781 33.038344 -8.643688 33.659437 -8.803844 C 34.284437 -8.964 35.280531 -9.217906 35.905531 -9.374156 C 36.526625 -9.534313 37.526625 -9.788219 38.147719 -9.948375 C 38.772719 -10.108531 39.768812 -10.362438 40.393812 -10.522594 C 41.014906 -10.68275 42.014906 -10.936656 42.636 -11.096813 C 43.257094 -11.256969 44.257094 -11.510875 44.878187 -11.671031 C 45.503187 -11.831188 46.503187 -12.085094 47.124281 -12.24525 C 47.745375 -12.405406 48.745375 -12.663219 49.366469 -12.823375 C 49.991469 -12.983531 50.987562 -13.237438 51.612562 -13.397594 C 52.233656 -13.55775 53.85475 -13.975719 53.85475 -13.975719 " transform="matrix(1,0,0,-1,85.239,61.411)"/>
</g>
<g clip-path="url(#clip10)" clip-rule="nonzero">
<path style="fill:none;stroke-width:0.3985;stroke-linecap:butt;stroke-linejoin:miter;stroke:rgb(0%,0%,0%);stroke-opacity:1;stroke-dasharray:2.98883,2.98883;stroke-miterlimit:10;" d="M -0.00071875 1.418812 C -0.00071875 1.418812 1.620375 1.4735 2.245375 1.532094 C 2.866469 1.586781 3.866469 1.731312 4.487562 1.828969 C 5.112562 1.930531 6.108656 2.118031 6.733656 2.243031 C 7.35475 2.364125 8.35475 2.578969 8.975844 2.715687 C 9.596937 2.852406 10.596937 3.078969 11.221937 3.2235 C 11.843031 3.368031 12.843031 3.606312 13.464125 3.75475 C 14.085219 3.903187 15.085219 4.145375 15.706312 4.293812 C 16.331312 4.446156 17.327406 4.69225 17.952406 4.844594 C 18.5735 5.000844 19.5735 5.246937 20.194594 5.403187 C 20.819594 5.555531 21.815687 5.805531 22.440687 5.961781 C 23.061781 6.118031 24.061781 6.371937 24.682875 6.528187 C 25.307875 6.684437 26.303969 6.934437 26.928969 7.094594 C 27.550062 7.250844 28.550062 7.50475 29.171156 7.661 C 29.796156 7.821156 30.79225 8.075062 31.41725 8.231312 C 32.038344 8.391469 33.038344 8.645375 33.659437 8.801625 C 34.284437 8.961781 35.280531 9.215687 35.905531 9.375844 C 36.526625 9.536 37.526625 9.789906 38.147719 9.950062 C 38.772719 10.106312 39.768812 10.364125 40.393812 10.520375 C 41.014906 10.680531 42.014906 10.938344 42.636 11.0985 C 43.257094 11.25475 44.257094 11.512562 44.878187 11.672719 C 45.503187 11.828969 46.503187 12.086781 47.124281 12.246937 C 47.745375 12.407094 48.745375 12.661 49.366469 12.821156 C 49.991469 12.981312 50.987562 13.239125 51.612562 13.399281 C 52.233656 13.559437 53.85475 13.9735 53.85475 13.9735 " transform="matrix(1,0,0,-1,85.239,61.411)"/>
</g>
<g clip-path="url(#clip11)" clip-rule="nonzero">
<path style="fill:none;stroke-width:0.3985;stroke-linecap:butt;stroke-linejoin:miter;stroke:rgb(0%,0%,0%);stroke-opacity:1;stroke-dasharray:2.98883,2.98883;stroke-miterlimit:10;" d="M -0.00071875 4.250844 C -0.00071875 4.250844 1.620375 4.621937 2.245375 4.953969 C 2.866469 5.282094 3.866469 6.106312 4.487562 6.62975 C 5.112562 7.153187 6.108656 8.125844 6.733656 8.735219 C 7.35475 9.3485 8.35475 10.37975 8.975844 11.028187 C 9.596937 11.676625 10.596937 12.743031 11.221937 13.414906 C 11.843031 14.082875 12.843031 15.168812 13.464125 15.8485 C 14.085219 16.528187 15.085219 17.625844 15.706312 18.309437 C 16.331312 18.996937 17.327406 20.102406 17.952406 20.793812 C 18.5735 21.485219 19.5735 22.594594 20.194594 23.289906 C 20.819594 23.985219 21.815687 25.0985 22.440687 25.797719 C 23.061781 26.493031 24.061781 27.610219 24.682875 28.309437 C 25.307875 29.00475 26.303969 30.125844 26.928969 30.825062 C 27.550062 31.524281 28.550062 32.649281 29.171156 33.3485 C 29.796156 34.047719 30.79225 35.172719 31.41725 35.871937 C 32.038344 36.575062 33.038344 37.700062 33.659437 38.399281 C 34.284437 39.102406 35.280531 40.227406 35.905531 40.930531 C 36.526625 41.633656 37.526625 42.758656 38.147719 43.461781 C 38.772719 44.164906 39.768812 45.293812 40.393812 45.996937 C 41.014906 46.700062 42.014906 47.825062 42.636 48.528187 C 43.257094 49.231312 44.257094 50.360219 44.878187 51.063344 C 45.503187 51.766469 46.503187 52.895375 47.124281 53.5985 C 47.745375 54.305531 48.745375 55.434437 49.366469 56.137562 C 49.991469 56.840687 50.987562 57.969594 51.612562 58.672719 C 52.233656 59.37975 53.85475 61.211781 53.85475 61.211781 " transform="matrix(1,0,0,-1,85.239,61.411)"/>
</g>
<path style="fill-rule:nonzero;fill:rgb(0%,0%,0%);fill-opacity:1;stroke-width:0.3985;stroke-linecap:butt;stroke-linejoin:miter;stroke:rgb(0%,0%,0%);stroke-opacity:1;stroke-miterlimit:10;" d="M 1.41725 -56.694469 L 1.41725 -8.503063 L -1.418688 -8.503063 L -1.418688 -56.694469 Z M 1.41725 -56.694469 " transform="matrix(1,0,0,-1,85.239,61.411)"/>
<path style="fill-rule:nonzero;fill:rgb(0%,0%,0%);fill-opacity:1;stroke-width:0.3985;stroke-linecap:butt;stroke-linejoin:miter;stroke:rgb(0%,0%,0%);stroke-opacity:1;stroke-miterlimit:10;" d="M 1.41725 -2.835094 L 1.41725 2.836781 L -1.418688 2.836781 L -1.418688 -2.835094 Z M 1.41725 -2.835094 " transform="matrix(1,0,0,-1,85.239,61.411)"/>
<path style="fill-rule:nonzero;fill:rgb(0%,0%,0%);fill-opacity:1;stroke-width:0.3985;stroke-linecap:butt;stroke-linejoin:miter;stroke:rgb(0%,0%,0%);stroke-opacity:1;stroke-miterlimit:10;" d="M 1.41725 56.69225 L 1.41725 8.50475 L -1.418688 8.50475 L -1.418688 56.69225 Z M 1.41725 56.69225 " transform="matrix(1,0,0,-1,85.239,61.411)"/>
<path style="fill-rule:nonzero;fill:rgb(100%,0%,0%);fill-opacity:1;stroke-width:0.3985;stroke-linecap:butt;stroke-linejoin:miter;stroke:rgb(100%,0%,0%);stroke-opacity:1;stroke-miterlimit:10;" d="M 1.41725 5.668812 C 1.41725 6.453969 0.784437 7.086781 -0.00071875 7.086781 C -0.781969 7.086781 -1.418688 6.453969 -1.418688 5.668812 C -1.418688 4.887562 -0.781969 4.250844 -0.00071875 4.250844 C 0.784437 4.250844 1.41725 4.887562 1.41725 5.668812 Z M 1.41725 5.668812 " transform="matrix(1,0,0,-1,85.239,61.411)"/>
<path style="fill-rule:nonzero;fill:rgb(100%,0%,0%);fill-opacity:1;stroke-width:0.3985;stroke-linecap:butt;stroke-linejoin:miter;stroke:rgb(100%,0%,0%);stroke-opacity:1;stroke-miterlimit:10;" d="M 1.41725 -5.671031 C 1.41725 -4.885875 0.784437 -4.253063 -0.00071875 -4.253063 C -0.781969 -4.253063 -1.418688 -4.885875 -1.418688 -5.671031 C -1.418688 -6.452281 -0.781969 -7.085094 -0.00071875 -7.085094 C 0.784437 -7.085094 1.41725 -6.452281 1.41725 -5.671031 Z M 1.41725 -5.671031 " transform="matrix(1,0,0,-1,85.239,61.411)"/>
</g>
</svg>
