<?xml version="1.0" encoding="UTF-8"?>
<svg xmlns="http://www.w3.org/2000/svg" xmlns:xlink="http://www.w3.org/1999/xlink" width="147.872pt" height="131.4pt" viewBox="0 0 147.872 131.4" version="1.1">
<defs>
<clipPath id="clip1">
  <path d="M 0 0 L 147.871094 0 L 147.871094 131.398438 L 0 131.398438 Z M 0 0 "/>
</clipPath>
<clipPath id="clip2">
  <path d="M 83 62 L 147.871094 62 L 147.871094 103 L 83 103 Z M 83 62 "/>
</clipPath>
<clipPath id="clip3">
  <path d="M 83 60 L 147.871094 60 L 147.871094 72 L 83 72 Z M 83 60 "/>
</clipPath>
<clipPath id="clip4">
  <path d="M 83 28 L 147.871094 28 L 147.871094 69 L 83 69 Z M 83 28 "/>
</clipPath>
<clipPath id="clip5">
  <path d="M 83 64 L 147.871094 64 L 147.871094 131.398438 L 83 131.398438 Z M 83 64 "/>
</clipPath>
<clipPath id="clip6">
  <path d="M 83 61 L 147.871094 61 L 147.871094 86 L 83 86 Z M 83 61 "/>
</clipPath>
<clipPath id="clip7">
  <path d="M 83 46 L 147.871094 46 L 147.871094 70 L 83 70 Z M 83 46 "/>
</clipPath>
<clipPath id="clip8">
  <path d="M 83 0 L 147.871094 0 L 147.871094 68 L 83 68 Z M 83 0 "/>
</clipPath>
</defs>
<g id="surface1">
<g clip-path="url(#clip1)" clip-rule="nonzero">
<path style=" stroke:none;fill-rule:nonzero;fill:rgb(0%,0%,0%);fill-opacity:1;" d="M 0 131.402344 L 0 0 L 147.871094 0 L 147.871094 131.402344 Z M 0 131.402344 "/>
<path style=" stroke:none;fill-rule:nonzero;fill:rgb(0%,0%,0%);fill-opacity:1;" d="M 0 131.402344 L 0 0 L 147.871094 0 L 147.871094 131.402344 Z M 0 131.402344 "/>
</g>
<path style="fill:none;stroke-width:0.3985;stroke-linecap:butt;stroke-linejoin:miter;stroke:rgb(100%,100%,100%);stroke-opacity:1;stroke-miterlimit:10;" d="M -85.039719 0.00078125 L -68.785812 0.00078125 " transform="matrix(1,0,0,-1,89.528,65.7)"/>
<path style=" stroke:none;fill-rule:nonzero;fill:rgb(100%,100%,100%);fill-opacity:1;" d="M 24.332031 65.699219 C 23.265625 65.5 21.539062 64.902344 20.34375 64.207031 L 20.34375 67.195312 C 21.539062 66.496094 23.265625 65.898438 24.332031 65.699219 "/>
<path style="fill:none;stroke-width:0.3985;stroke-linecap:butt;stroke-linejoin:miter;stroke:rgb(100%,100%,100%);stroke-opacity:1;stroke-miterlimit:10;" d="M -56.692062 -56.694531 L -56.692062 56.692188 " transform="matrix(1,0,0,-1,89.528,65.7)"/>
<path style="fill:none;stroke-width:0.3985;stroke-linecap:butt;stroke-linejoin:miter;stroke:rgb(100%,100%,100%);stroke-opacity:1;stroke-miterlimit:10;" d="M -53.860031 -56.694531 L -53.860031 56.692188 " transform="matrix(1,0,0,-1,89.528,65.7)"/>
<path style="fill:none;stroke-width:0.3985;stroke-linecap:butt;stroke-linejoin:miter;stroke:rgb(100%,100%,100%);stroke-opacity:1;stroke-miterlimit:10;" d="M -51.024094 -56.694531 L -51.024094 56.692188 " transform="matrix(1,0,0,-1,89.528,65.7)"/>
<path style="fill:none;stroke-width:0.3985;stroke-linecap:butt;stroke-linejoin:miter;stroke:rgb(100%,100%,100%);stroke-opacity:1;stroke-miterlimit:10;" d="M -48.188156 -56.694531 L -48.188156 56.692188 " transform="matrix(1,0,0,-1,89.528,65.7)"/>
<path style="fill:none;stroke-width:0.3985;stroke-linecap:butt;stroke-linejoin:miter;stroke:rgb(100%,100%,100%);stroke-opacity:1;stroke-miterlimit:10;" d="M -45.356125 -56.694531 L -45.356125 56.692188 " transform="matrix(1,0,0,-1,89.528,65.7)"/>
<path style="fill:none;stroke-width:0.3985;stroke-linecap:butt;stroke-linejoin:miter;stroke:rgb(100%,100%,100%);stroke-opacity:1;stroke-miterlimit:10;" d="M -42.520187 -56.694531 L -42.520187 56.692188 " transform="matrix(1,0,0,-1,89.528,65.7)"/>
<path style="fill:none;stroke-width:0.3985;stroke-linecap:butt;stroke-linejoin:miter;stroke:rgb(100%,100%,100%);stroke-opacity:1;stroke-miterlimit:10;" d="M -39.68425 -56.694531 L -39.68425 56.692188 " transform="matrix(1,0,0,-1,89.528,65.7)"/>
<path style="fill:none;stroke-width:0.3985;stroke-linecap:butt;stroke-linejoin:miter;stroke:rgb(100%,100%,100%);stroke-opacity:1;stroke-miterlimit:10;" d="M -36.848312 -56.694531 L -36.848312 56.692188 " transform="matrix(1,0,0,-1,89.528,65.7)"/>
<path style="fill:none;stroke-width:0.3985;stroke-linecap:butt;stroke-linejoin:miter;stroke:rgb(100%,100%,100%);stroke-opacity:1;stroke-miterlimit:10;" d="M -34.016281 -56.694531 L -34.016281 56.692188 " transform="matrix(1,0,0,-1,89.528,65.7)"/>
<path style="fill:none;stroke-width:0.3985;stroke-linecap:butt;stroke-linejoin:miter;stroke:rgb(100%,100%,100%);stroke-opacity:1;stroke-miterlimit:10;" d="M -31.180344 -56.694531 L -31.180344 56.692188 " transform="matrix(1,0,0,-1,89.528,65.7)"/>
<path style="fill:none;stroke-width:0.3985;stroke-linecap:butt;stroke-linejoin:miter;stroke:rgb(100%,100%,100%);stroke-opacity:1;stroke-miterlimit:10;" d="M -28.344406 -56.694531 L -28.344406 56.692188 " transform="matrix(1,0,0,-1,89.528,65.7)"/>
<path style="fill:none;stroke-width:0.3985;stroke-linecap:butt;stroke-linejoin:miter;stroke:rgb(100%,100%,100%);stroke-opacity:1;stroke-miterlimit:10;" d="M -25.508469 -56.694531 L -25.508469 56.692188 " transform="matrix(1,0,0,-1,89.528,65.7)"/>
<path style="fill:none;stroke-width:0.3985;stroke-linecap:butt;stroke-linejoin:miter;stroke:rgb(100%,100%,100%);stroke-opacity:1;stroke-miterlimit:10;" d="M -22.676437 -56.694531 L -22.676437 56.692188 " transform="matrix(1,0,0,-1,89.528,65.7)"/>
<path style="fill:none;stroke-width:0.3985;stroke-linecap:butt;stroke-linejoin:miter;stroke:rgb(100%,100%,100%);stroke-opacity:1;stroke-miterlimit:10;" d="M -19.8405 -56.694531 L -19.8405 56.692188 " transform="matrix(1,0,0,-1,89.528,65.7)"/>
<path style="fill:none;stroke-width:0.3985;stroke-linecap:butt;stroke-linejoin:miter;stroke:rgb(100%,100%,100%);stroke-opacity:1;stroke-miterlimit:10;" d="M -17.004562 -56.694531 L -17.004562 56.692188 " transform="matrix(1,0,0,-1,89.528,65.7)"/>
<path style="fill:none;stroke-width:0.3985;stroke-linecap:butt;stroke-linejoin:miter;stroke:rgb(100%,100%,100%);stroke-opacity:1;stroke-miterlimit:10;" d="M -14.172531 -56.694531 L -14.172531 56.692188 " transform="matrix(1,0,0,-1,89.528,65.7)"/>
<path style="fill:none;stroke-width:0.3985;stroke-linecap:butt;stroke-linejoin:miter;stroke:rgb(100%,100%,100%);stroke-opacity:1;stroke-miterlimit:10;" d="M -11.336594 -56.694531 L -11.336594 56.692188 " transform="matrix(1,0,0,-1,89.528,65.7)"/>
<path style="fill:none;stroke-width:0.3985;stroke-linecap:butt;stroke-linejoin:miter;stroke:rgb(100%,100%,100%);stroke-opacity:1;stroke-miterlimit:10;" d="M -8.500656 -56.694531 L -8.500656 56.692188 " transform="matrix(1,0,0,-1,89.528,65.7)"/>
<path style="fill:none;stroke-width:0.3985;stroke-linecap:butt;stroke-linejoin:miter;stroke:rgb(100%,100%,100%);stroke-opacity:1;stroke-miterlimit:10;" d="M -5.664719 -56.694531 L -5.664719 56.692188 " transform="matrix(1,0,0,-1,89.528,65.7)"/>
<path style="fill:none;stroke-width:0.3985;stroke-linecap:butt;stroke-linejoin:miter;stroke:rgb(0%,67.83905%,93.728638%);stroke-opacity:1;stroke-miterlimit:10;" d="M -0.00065625 2.832813 C 1.56575 2.832813 2.835281 4.102344 2.835281 5.66875 C 2.835281 7.235156 1.56575 8.504688 -0.00065625 8.504688 " transform="matrix(1,0,0,-1,89.528,65.7)"/>
<path style="fill:none;stroke-width:0.3985;stroke-linecap:butt;stroke-linejoin:miter;stroke:rgb(0%,67.83905%,93.728638%);stroke-opacity:1;stroke-miterlimit:10;" d="M -0.00065625 -8.503125 C 1.56575 -8.503125 2.835281 -7.233594 2.835281 -5.671094 C 2.835281 -4.104687 1.56575 -2.835156 -0.00065625 -2.835156 " transform="matrix(1,0,0,-1,89.528,65.7)"/>
<path style="fill:none;stroke-width:0.3985;stroke-linecap:butt;stroke-linejoin:miter;stroke:rgb(0%,67.83905%,93.728638%);stroke-opacity:1;stroke-miterlimit:10;" d="M -0.00065625 -2.835156 C 4.698563 -2.835156 8.50325 0.973438 8.50325 5.66875 C 8.50325 10.367969 4.698563 14.172656 -0.00065625 14.172656 " transform="matrix(1,0,0,-1,89.528,65.7)"/>
<path style="fill:none;stroke-width:0.3985;stroke-linecap:butt;stroke-linejoin:miter;stroke:rgb(0%,67.83905%,93.728638%);stroke-opacity:1;stroke-miterlimit:10;" d="M -0.00065625 -14.175 C 4.698563 -14.175 8.50325 -10.366406 8.50325 -5.671094 C 8.50325 -0.971875 4.698563 2.836719 -0.00065625 2.836719 " transform="matrix(1,0,0,-1,89.528,65.7)"/>
<path style="fill:none;stroke-width:0.3985;stroke-linecap:butt;stroke-linejoin:miter;stroke:rgb(0%,67.83905%,93.728638%);stroke-opacity:1;stroke-miterlimit:10;" d="M -0.00065625 -8.503125 C 7.827469 -8.503125 14.175125 -2.159375 14.175125 5.66875 C 14.175125 13.496875 7.827469 19.844531 -0.00065625 19.844531 " transform="matrix(1,0,0,-1,89.528,65.7)"/>
<path style="fill:none;stroke-width:0.3985;stroke-linecap:butt;stroke-linejoin:miter;stroke:rgb(0%,67.83905%,93.728638%);stroke-opacity:1;stroke-miterlimit:10;" d="M -0.00065625 -19.842969 C 7.827469 -19.842969 14.175125 -13.495312 14.175125 -5.671094 C 14.175125 2.157031 7.827469 8.504688 -0.00065625 8.504688 " transform="matrix(1,0,0,-1,89.528,65.7)"/>
<path style="fill:none;stroke-width:0.3985;stroke-linecap:butt;stroke-linejoin:miter;stroke:rgb(0%,67.83905%,93.728638%);stroke-opacity:1;stroke-miterlimit:10;" d="M -0.00065625 -14.175 C 10.960281 -14.175 19.843094 -5.288281 19.843094 5.66875 C 19.843094 16.629688 10.960281 25.5125 -0.00065625 25.5125 " transform="matrix(1,0,0,-1,89.528,65.7)"/>
<path style="fill:none;stroke-width:0.3985;stroke-linecap:butt;stroke-linejoin:miter;stroke:rgb(0%,67.83905%,93.728638%);stroke-opacity:1;stroke-miterlimit:10;" d="M -0.00065625 -25.510937 C 10.960281 -25.510937 19.843094 -16.628125 19.843094 -5.671094 C 19.843094 5.289844 10.960281 14.172656 -0.00065625 14.172656 " transform="matrix(1,0,0,-1,89.528,65.7)"/>
<path style="fill:none;stroke-width:0.3985;stroke-linecap:butt;stroke-linejoin:miter;stroke:rgb(0%,67.83905%,93.728638%);stroke-opacity:1;stroke-miterlimit:10;" d="M -0.00065625 -19.842969 C 14.089188 -19.842969 25.511063 -8.421094 25.511063 5.66875 C 25.511063 19.758594 14.089188 31.180469 -0.00065625 31.180469 " transform="matrix(1,0,0,-1,89.528,65.7)"/>
<path style="fill:none;stroke-width:0.3985;stroke-linecap:butt;stroke-linejoin:miter;stroke:rgb(0%,67.83905%,93.728638%);stroke-opacity:1;stroke-miterlimit:10;" d="M -0.00065625 -31.182812 C 14.089188 -31.182812 25.511063 -19.760937 25.511063 -5.671094 C 25.511063 8.422656 14.089188 19.844531 -0.00065625 19.844531 " transform="matrix(1,0,0,-1,89.528,65.7)"/>
<path style="fill:none;stroke-width:0.3985;stroke-linecap:butt;stroke-linejoin:miter;stroke:rgb(0%,67.83905%,93.728638%);stroke-opacity:1;stroke-miterlimit:10;" d="M -0.00065625 -25.510937 C 17.222 -25.510937 31.182938 -11.55 31.182938 5.66875 C 31.182938 22.891406 17.222 36.852344 -0.00065625 36.852344 " transform="matrix(1,0,0,-1,89.528,65.7)"/>
<path style="fill:none;stroke-width:0.3985;stroke-linecap:butt;stroke-linejoin:miter;stroke:rgb(0%,67.83905%,93.728638%);stroke-opacity:1;stroke-miterlimit:10;" d="M -0.00065625 -36.850781 C 17.222 -36.850781 31.182938 -22.889844 31.182938 -5.671094 C 31.182938 11.551563 17.222 25.5125 -0.00065625 25.5125 " transform="matrix(1,0,0,-1,89.528,65.7)"/>
<path style="fill:none;stroke-width:0.3985;stroke-linecap:butt;stroke-linejoin:miter;stroke:rgb(0%,67.83905%,93.728638%);stroke-opacity:1;stroke-miterlimit:10;" d="M -0.00065625 -31.182812 C 20.350906 -31.182812 36.850906 -14.682812 36.850906 5.66875 C 36.850906 26.020313 20.350906 42.520313 -0.00065625 42.520313 " transform="matrix(1,0,0,-1,89.528,65.7)"/>
<path style="fill:none;stroke-width:0.3985;stroke-linecap:butt;stroke-linejoin:miter;stroke:rgb(0%,67.83905%,93.728638%);stroke-opacity:1;stroke-miterlimit:10;" d="M -0.00065625 -42.51875 C 20.350906 -42.51875 36.850906 -26.022656 36.850906 -5.671094 C 36.850906 14.684375 20.350906 31.180469 -0.00065625 31.180469 " transform="matrix(1,0,0,-1,89.528,65.7)"/>
<path style="fill:none;stroke-width:0.3985;stroke-linecap:butt;stroke-linejoin:miter;stroke:rgb(0%,67.83905%,93.728638%);stroke-opacity:1;stroke-miterlimit:10;" d="M -0.00065625 -36.850781 C 23.483719 -36.850781 42.518875 -17.815625 42.518875 5.66875 C 42.518875 29.153125 23.483719 48.188281 -0.00065625 48.188281 " transform="matrix(1,0,0,-1,89.528,65.7)"/>
<path style="fill:none;stroke-width:0.3985;stroke-linecap:butt;stroke-linejoin:miter;stroke:rgb(0%,67.83905%,93.728638%);stroke-opacity:1;stroke-miterlimit:10;" d="M -0.00065625 -48.190625 C 23.483719 -48.190625 42.518875 -29.151562 42.518875 -5.671094 C 42.518875 17.813281 23.483719 36.852344 -0.00065625 36.852344 " transform="matrix(1,0,0,-1,89.528,65.7)"/>
<path style="fill:none;stroke-width:0.3985;stroke-linecap:butt;stroke-linejoin:miter;stroke:rgb(0%,67.83905%,93.728638%);stroke-opacity:1;stroke-miterlimit:10;" d="M -0.00065625 -42.51875 C 26.612625 -42.51875 48.19075 -20.944531 48.19075 5.66875 C 48.19075 32.282031 26.612625 53.860156 -0.00065625 53.860156 " transform="matrix(1,0,0,-1,89.528,65.7)"/>
<path style="fill:none;stroke-width:0.3985;stroke-linecap:butt;stroke-linejoin:miter;stroke:rgb(0%,67.83905%,93.728638%);stroke-opacity:1;stroke-miterlimit:10;" d="M -0.00065625 -53.858594 C 26.612625 -53.858594 48.19075 -32.284375 48.19075 -5.671094 C 48.19075 20.946094 26.612625 42.520313 -0.00065625 42.520313 " transform="matrix(1,0,0,-1,89.528,65.7)"/>
<path style="fill:none;stroke-width:0.3985;stroke-linecap:butt;stroke-linejoin:miter;stroke:rgb(100%,50%,0%);stroke-opacity:1;stroke-miterlimit:10;" d="M -0.00065625 0.00078125 C 3.132156 0.00078125 5.671219 2.539844 5.671219 5.66875 C 5.671219 8.801563 3.132156 11.336719 -0.00065625 11.336719 " transform="matrix(1,0,0,-1,89.528,65.7)"/>
<path style="fill:none;stroke-width:0.3985;stroke-linecap:butt;stroke-linejoin:miter;stroke:rgb(100%,50%,0%);stroke-opacity:1;stroke-miterlimit:10;" d="M -0.00065625 -11.339062 C 3.132156 -11.339062 5.671219 -8.8 5.671219 -5.671094 C 5.671219 -2.538281 3.132156 0.00078125 -0.00065625 0.00078125 " transform="matrix(1,0,0,-1,89.528,65.7)"/>
<path style="fill:none;stroke-width:0.3985;stroke-linecap:butt;stroke-linejoin:miter;stroke:rgb(100%,50%,0%);stroke-opacity:1;stroke-miterlimit:10;" d="M -0.00065625 -5.671094 C 6.261063 -5.671094 11.339188 -0.592969 11.339188 5.66875 C 11.339188 11.930469 6.261063 17.008594 -0.00065625 17.008594 " transform="matrix(1,0,0,-1,89.528,65.7)"/>
<path style="fill:none;stroke-width:0.3985;stroke-linecap:butt;stroke-linejoin:miter;stroke:rgb(100%,50%,0%);stroke-opacity:1;stroke-miterlimit:10;" d="M -0.00065625 -17.007031 C 6.261063 -17.007031 11.339188 -11.932812 11.339188 -5.671094 C 11.339188 0.594531 6.261063 5.66875 -0.00065625 5.66875 " transform="matrix(1,0,0,-1,89.528,65.7)"/>
<path style="fill:none;stroke-width:0.3985;stroke-linecap:butt;stroke-linejoin:miter;stroke:rgb(100%,50%,0%);stroke-opacity:1;stroke-miterlimit:10;" d="M -0.00065625 -11.339062 C 9.393875 -11.339062 17.007156 -3.725781 17.007156 5.66875 C 17.007156 15.063281 9.393875 22.676563 -0.00065625 22.676563 " transform="matrix(1,0,0,-1,89.528,65.7)"/>
<path style="fill:none;stroke-width:0.3985;stroke-linecap:butt;stroke-linejoin:miter;stroke:rgb(100%,50%,0%);stroke-opacity:1;stroke-miterlimit:10;" d="M -0.00065625 -22.678906 C 9.393875 -22.678906 17.007156 -15.061719 17.007156 -5.671094 C 17.007156 3.723438 9.393875 11.336719 -0.00065625 11.336719 " transform="matrix(1,0,0,-1,89.528,65.7)"/>
<path style="fill:none;stroke-width:0.3985;stroke-linecap:butt;stroke-linejoin:miter;stroke:rgb(100%,50%,0%);stroke-opacity:1;stroke-miterlimit:10;" d="M -0.00065625 -17.007031 C 12.522781 -17.007031 22.679031 -6.854687 22.679031 5.66875 C 22.679031 18.192188 12.522781 28.344531 -0.00065625 28.344531 " transform="matrix(1,0,0,-1,89.528,65.7)"/>
<path style="fill:none;stroke-width:0.3985;stroke-linecap:butt;stroke-linejoin:miter;stroke:rgb(100%,50%,0%);stroke-opacity:1;stroke-miterlimit:10;" d="M -0.00065625 -28.346875 C 12.522781 -28.346875 22.679031 -18.194531 22.679031 -5.671094 C 22.679031 6.85625 12.522781 17.008594 -0.00065625 17.008594 " transform="matrix(1,0,0,-1,89.528,65.7)"/>
<path style="fill:none;stroke-width:0.3985;stroke-linecap:butt;stroke-linejoin:miter;stroke:rgb(100%,50%,0%);stroke-opacity:1;stroke-miterlimit:10;" d="M -0.00065625 -22.678906 C 15.655594 -22.678906 28.347 -9.9875 28.347 5.66875 C 28.347 21.325 15.655594 34.016406 -0.00065625 34.016406 " transform="matrix(1,0,0,-1,89.528,65.7)"/>
<path style="fill:none;stroke-width:0.3985;stroke-linecap:butt;stroke-linejoin:miter;stroke:rgb(100%,50%,0%);stroke-opacity:1;stroke-miterlimit:10;" d="M -0.00065625 -34.014844 C 15.655594 -34.014844 28.347 -21.323437 28.347 -5.671094 C 28.347 9.985156 15.655594 22.676563 -0.00065625 22.676563 " transform="matrix(1,0,0,-1,89.528,65.7)"/>
<path style="fill:none;stroke-width:0.3985;stroke-linecap:butt;stroke-linejoin:miter;stroke:rgb(100%,50%,0%);stroke-opacity:1;stroke-miterlimit:10;" d="M -0.00065625 -28.346875 C 18.788406 -28.346875 34.014969 -13.116406 34.014969 5.66875 C 34.014969 24.453906 18.788406 39.684375 -0.00065625 39.684375 " transform="matrix(1,0,0,-1,89.528,65.7)"/>
<path style="fill:none;stroke-width:0.3985;stroke-linecap:butt;stroke-linejoin:miter;stroke:rgb(100%,50%,0%);stroke-opacity:1;stroke-miterlimit:10;" d="M -0.00065625 -39.686719 C 18.788406 -39.686719 34.014969 -24.45625 34.014969 -5.671094 C 34.014969 13.117969 18.788406 28.344531 -0.00065625 28.344531 " transform="matrix(1,0,0,-1,89.528,65.7)"/>
<path style="fill:none;stroke-width:0.3985;stroke-linecap:butt;stroke-linejoin:miter;stroke:rgb(100%,50%,0%);stroke-opacity:1;stroke-miterlimit:10;" d="M -0.00065625 -34.014844 C 21.917313 -34.014844 39.686844 -16.249219 39.686844 5.66875 C 39.686844 27.586719 21.917313 45.352344 -0.00065625 45.352344 " transform="matrix(1,0,0,-1,89.528,65.7)"/>
<path style="fill:none;stroke-width:0.3985;stroke-linecap:butt;stroke-linejoin:miter;stroke:rgb(100%,50%,0%);stroke-opacity:1;stroke-miterlimit:10;" d="M -0.00065625 -45.354687 C 21.917313 -45.354687 39.686844 -27.585156 39.686844 -5.671094 C 39.686844 16.246875 21.917313 34.016406 -0.00065625 34.016406 " transform="matrix(1,0,0,-1,89.528,65.7)"/>
<path style="fill:none;stroke-width:0.3985;stroke-linecap:butt;stroke-linejoin:miter;stroke:rgb(100%,50%,0%);stroke-opacity:1;stroke-miterlimit:10;" d="M -0.00065625 -39.686719 C 25.050125 -39.686719 45.354813 -19.378125 45.354813 5.66875 C 45.354813 30.719531 25.050125 51.024219 -0.00065625 51.024219 " transform="matrix(1,0,0,-1,89.528,65.7)"/>
<path style="fill:none;stroke-width:0.3985;stroke-linecap:butt;stroke-linejoin:miter;stroke:rgb(100%,50%,0%);stroke-opacity:1;stroke-miterlimit:10;" d="M -0.00065625 -51.022656 C 25.050125 -51.022656 45.354813 -30.717969 45.354813 -5.671094 C 45.354813 19.379688 25.050125 39.684375 -0.00065625 39.684375 " transform="matrix(1,0,0,-1,89.528,65.7)"/>
<path style="fill:none;stroke-width:0.3985;stroke-linecap:butt;stroke-linejoin:miter;stroke:rgb(100%,50%,0%);stroke-opacity:1;stroke-miterlimit:10;" d="M -0.00065625 -45.354687 C 28.179031 -45.354687 51.022781 -22.510937 51.022781 5.66875 C 51.022781 33.848438 28.179031 56.692188 -0.00065625 56.692188 " transform="matrix(1,0,0,-1,89.528,65.7)"/>
<path style="fill:none;stroke-width:0.3985;stroke-linecap:butt;stroke-linejoin:miter;stroke:rgb(100%,50%,0%);stroke-opacity:1;stroke-miterlimit:10;" d="M -0.00065625 -56.694531 C 28.179031 -56.694531 51.022781 -33.850781 51.022781 -5.671094 C 51.022781 22.508594 28.179031 45.352344 -0.00065625 45.352344 " transform="matrix(1,0,0,-1,89.528,65.7)"/>
<g clip-path="url(#clip2)" clip-rule="nonzero">
<path style="fill:none;stroke-width:0.3985;stroke-linecap:butt;stroke-linejoin:miter;stroke:rgb(100%,100%,100%);stroke-opacity:1;stroke-miterlimit:10;" d="M -0.00065625 -2.835156 C -0.00065625 -2.835156 1.620438 -2.975781 2.245438 -3.116406 C 2.866531 -3.253125 3.866531 -3.604687 4.487625 -3.839062 C 5.112625 -4.073437 6.108719 -4.522656 6.733719 -4.811719 C 7.354813 -5.096875 8.354813 -5.592969 8.975906 -5.905469 C 9.597 -6.217969 10.597 -6.741406 11.218094 -7.069531 C 11.843094 -7.397656 12.843094 -7.936719 13.464188 -8.272656 C 14.085281 -8.608594 15.085281 -9.159375 15.706375 -9.499219 C 16.331375 -9.842969 17.327469 -10.397656 17.952469 -10.745312 C 18.573563 -11.089062 19.573563 -11.647656 20.194656 -11.999219 C 20.819656 -12.346875 21.81575 -12.909375 22.44075 -13.260937 C 23.061844 -13.6125 24.061844 -14.175 24.682938 -14.530469 C 25.307938 -14.882031 26.304031 -15.448437 26.929031 -15.8 C 27.550125 -16.155469 28.550125 -16.721875 29.171219 -17.077344 C 29.796219 -17.432812 30.792313 -18.003125 31.417313 -18.354687 C 32.038406 -18.710156 33.038406 -19.280469 33.6595 -19.635937 C 34.2845 -19.991406 35.280594 -20.565625 35.905594 -20.921094 C 36.526688 -21.276562 37.526688 -21.846875 38.147781 -22.20625 C 38.768875 -22.561719 39.768875 -23.132031 40.393875 -23.491406 C 41.014969 -23.846875 42.014969 -24.417187 42.636063 -24.776562 C 43.257156 -25.132031 44.257156 -25.70625 44.87825 -26.061719 C 45.50325 -26.421094 46.50325 -26.995312 47.124344 -27.350781 C 47.745438 -27.710156 48.745438 -28.284375 49.366531 -28.639844 C 49.991531 -28.999219 50.987625 -29.573437 51.612625 -29.928906 C 52.233719 -30.288281 53.854813 -31.217969 53.854813 -31.217969 " transform="matrix(1,0,0,-1,89.528,65.7)"/>
</g>
<g clip-path="url(#clip3)" clip-rule="nonzero">
<path style="fill:none;stroke-width:0.3985;stroke-linecap:butt;stroke-linejoin:miter;stroke:rgb(100%,100%,100%);stroke-opacity:1;stroke-miterlimit:10;" d="M -0.00065625 0.00078125 C -0.00065625 0.00078125 1.620438 0.00078125 2.245438 0.00078125 C 2.866531 0.00078125 3.866531 0.00078125 4.487625 0.00078125 C 5.112625 0.00078125 6.108719 0.00078125 6.733719 0.00078125 C 7.354813 0.00078125 8.354813 0.00078125 8.975906 0.00078125 C 9.597 0.00078125 10.597 0.00078125 11.218094 0.00078125 C 11.843094 0.00078125 12.843094 0.00078125 13.464188 0.00078125 C 14.085281 0.00078125 15.085281 0.00078125 15.706375 0.00078125 C 16.331375 0.00078125 17.327469 0.00078125 17.952469 0.00078125 C 18.573563 0.00078125 19.573563 0.00078125 20.194656 0.00078125 C 20.819656 0.00078125 21.81575 0.00078125 22.44075 0.00078125 C 23.061844 0.00078125 24.061844 0.00078125 24.682938 0.00078125 C 25.307938 0.00078125 26.304031 0.00078125 26.929031 0.00078125 C 27.550125 0.00078125 28.550125 0.00078125 29.171219 0.00078125 C 29.796219 0.00078125 30.792313 0.00078125 31.417313 0.00078125 C 32.038406 0.00078125 33.038406 0.00078125 33.6595 0.00078125 C 34.2845 0.00078125 35.280594 0.00078125 35.905594 0.00078125 C 36.526688 0.00078125 37.526688 0.00078125 38.147781 0.00078125 C 38.768875 0.00078125 39.768875 0.00078125 40.393875 0.00078125 C 41.014969 0.00078125 42.014969 0.00078125 42.636063 0.00078125 C 43.257156 0.00078125 44.257156 0.00078125 44.87825 0.00078125 C 45.50325 0.00078125 46.50325 0.00078125 47.124344 0.00078125 C 47.745438 0.00078125 48.745438 0.00078125 49.366531 0.00078125 C 49.991531 0.00078125 50.987625 0.00078125 51.612625 0.00078125 C 52.233719 0.00078125 53.854813 0.00078125 53.854813 0.00078125 " transform="matrix(1,0,0,-1,89.528,65.7)"/>
</g>
<g clip-path="url(#clip4)" clip-rule="nonzero">
<path style="fill:none;stroke-width:0.3985;stroke-linecap:butt;stroke-linejoin:miter;stroke:rgb(100%,100%,100%);stroke-opacity:1;stroke-miterlimit:10;" d="M -0.00065625 2.832813 C -0.00065625 2.832813 1.620438 2.977344 2.245438 3.114063 C 2.866531 3.254688 3.866531 3.60625 4.487625 3.840625 C 5.112625 4.075 6.108719 4.524219 6.733719 4.809375 C 7.354813 5.098438 8.354813 5.594531 8.975906 5.907031 C 9.597 6.219531 10.597 6.742969 11.218094 7.071094 C 11.843094 7.399219 12.843094 7.934375 13.464188 8.274219 C 14.085281 8.610156 15.085281 9.157031 15.706375 9.500781 C 16.331375 9.844531 17.327469 10.395313 17.952469 10.742969 C 18.573563 11.090625 19.573563 11.649219 20.194656 11.996875 C 20.819656 12.348438 21.81575 12.910938 22.44075 13.2625 C 23.061844 13.610156 24.061844 14.176563 24.682938 14.528125 C 25.307938 14.879688 26.304031 15.446094 26.929031 15.801563 C 27.550125 16.153125 28.550125 16.723438 29.171219 17.078906 C 29.796219 17.430469 30.792313 18.000781 31.417313 18.35625 C 32.038406 18.711719 33.038406 19.282031 33.6595 19.6375 C 34.2845 19.992969 35.280594 20.563281 35.905594 20.91875 C 36.526688 21.278125 37.526688 21.848438 38.147781 22.203906 C 38.768875 22.559375 39.768875 23.133594 40.393875 23.489063 C 41.014969 23.848438 42.014969 24.41875 42.636063 24.778125 C 43.257156 25.133594 44.257156 25.707813 44.87825 26.063281 C 45.50325 26.422656 46.50325 26.992969 47.124344 27.352344 C 47.745438 27.707813 48.745438 28.282031 49.366531 28.641406 C 49.991531 28.996875 50.987625 29.571094 51.612625 29.930469 C 52.233719 30.285938 53.854813 31.219531 53.854813 31.219531 " transform="matrix(1,0,0,-1,89.528,65.7)"/>
</g>
<g clip-path="url(#clip5)" clip-rule="nonzero">
<path style="fill:none;stroke-width:0.3985;stroke-linecap:butt;stroke-linejoin:miter;stroke:rgb(100%,100%,100%);stroke-opacity:1;stroke-dasharray:2.98883,2.98883;stroke-miterlimit:10;" d="M -0.00065625 -4.253125 C -0.00065625 -4.253125 1.620438 -4.624219 2.245438 -4.952344 C 2.866531 -5.284375 3.866531 -6.104687 4.487625 -6.628125 C 5.112625 -7.155469 6.108719 -8.128125 6.733719 -8.7375 C 7.354813 -9.346875 8.354813 -10.382031 8.975906 -11.030469 C 9.597 -11.678906 10.597 -12.745312 11.218094 -13.413281 C 11.843094 -14.08125 12.843094 -15.167187 13.464188 -15.846875 C 14.085281 -16.526562 15.085281 -17.624219 15.706375 -18.311719 C 16.331375 -18.995312 17.327469 -20.104687 17.952469 -20.792187 C 18.573563 -21.483594 19.573563 -22.596875 20.194656 -23.292187 C 20.819656 -23.983594 21.81575 -25.100781 22.44075 -25.796094 C 23.061844 -26.491406 24.061844 -27.6125 24.682938 -28.307812 C 25.307938 -29.007031 26.304031 -30.128125 26.929031 -30.827344 C 27.550125 -31.526562 28.550125 -32.647656 29.171219 -33.346875 C 29.796219 -34.05 30.792313 -35.171094 31.417313 -35.874219 C 32.038406 -36.573437 33.038406 -37.698437 33.6595 -38.401562 C 34.2845 -39.104687 35.280594 -40.229687 35.905594 -40.932812 C 36.526688 -41.632031 37.526688 -42.760937 38.147781 -43.464062 C 38.768875 -44.163281 39.768875 -45.292187 40.393875 -45.995312 C 41.014969 -46.698437 42.014969 -47.827344 42.636063 -48.530469 C 43.257156 -49.233594 44.257156 -50.358594 44.87825 -51.065625 C 45.50325 -51.76875 46.50325 -52.897656 47.124344 -53.600781 C 47.745438 -54.303906 48.745438 -55.432812 49.366531 -56.135937 C 49.991531 -56.839062 50.987625 -57.971875 51.612625 -58.675 C 52.233719 -59.378125 53.854813 -61.214062 53.854813 -61.214062 " transform="matrix(1,0,0,-1,89.528,65.7)"/>
</g>
<g clip-path="url(#clip6)" clip-rule="nonzero">
<path style="fill:none;stroke-width:0.3985;stroke-linecap:butt;stroke-linejoin:miter;stroke:rgb(100%,100%,100%);stroke-opacity:1;stroke-dasharray:2.98883,2.98883;stroke-miterlimit:10;" d="M -0.00065625 -1.417187 C -0.00065625 -1.417187 1.620438 -1.471875 2.245438 -1.530469 C 2.866531 -1.589062 3.866531 -1.729687 4.487625 -1.83125 C 5.112625 -1.928906 6.108719 -2.120312 6.733719 -2.241406 C 7.354813 -2.366406 8.354813 -2.58125 8.975906 -2.714062 C 9.597 -2.850781 10.597 -3.08125 11.218094 -3.225781 C 11.843094 -3.366406 12.843094 -3.604687 13.464188 -3.753125 C 14.085281 -3.901562 15.085281 -4.14375 15.706375 -4.296094 C 16.331375 -4.448437 17.327469 -4.690625 17.952469 -4.846875 C 18.573563 -4.999219 19.573563 -5.249219 20.194656 -5.401562 C 20.819656 -5.557812 21.81575 -5.807812 22.44075 -5.964062 C 23.061844 -6.120312 24.061844 -6.370312 24.682938 -6.526562 C 25.307938 -6.682812 26.304031 -6.936719 26.929031 -7.092969 C 27.550125 -7.249219 28.550125 -7.503125 29.171219 -7.663281 C 29.796219 -7.819531 30.792313 -8.073437 31.417313 -8.233594 C 32.038406 -8.389844 33.038406 -8.64375 33.6595 -8.803906 C 34.2845 -8.960156 35.280594 -9.217969 35.905594 -9.374219 C 36.526688 -9.534375 37.526688 -9.788281 38.147781 -9.948437 C 38.768875 -10.108594 39.768875 -10.3625 40.393875 -10.522656 C 41.014969 -10.682812 42.014969 -10.936719 42.636063 -11.096875 C 43.257156 -11.257031 44.257156 -11.510937 44.87825 -11.671094 C 45.50325 -11.83125 46.50325 -12.085156 47.124344 -12.245312 C 47.745438 -12.405469 48.745438 -12.663281 49.366531 -12.823437 C 49.991531 -12.983594 50.987625 -13.2375 51.612625 -13.397656 C 52.233719 -13.557812 53.854813 -13.975781 53.854813 -13.975781 " transform="matrix(1,0,0,-1,89.528,65.7)"/>
</g>
<g clip-path="url(#clip7)" clip-rule="nonzero">
<path style="fill:none;stroke-width:0.3985;stroke-linecap:butt;stroke-linejoin:miter;stroke:rgb(100%,100%,100%);stroke-opacity:1;stroke-dasharray:2.98883,2.98883;stroke-miterlimit:10;" d="M -0.00065625 1.41875 C -0.00065625 1.41875 1.620438 1.473438 2.245438 1.532031 C 2.866531 1.586719 3.866531 1.73125 4.487625 1.828906 C 5.112625 1.930469 6.108719 2.117969 6.733719 2.242969 C 7.354813 2.364063 8.354813 2.578906 8.975906 2.715625 C 9.597 2.852344 10.597 3.078906 11.218094 3.223438 C 11.843094 3.367969 12.843094 3.60625 13.464188 3.754688 C 14.085281 3.903125 15.085281 4.145313 15.706375 4.29375 C 16.331375 4.446094 17.327469 4.692188 17.952469 4.844531 C 18.573563 5.000781 19.573563 5.246875 20.194656 5.403125 C 20.819656 5.555469 21.81575 5.805469 22.44075 5.961719 C 23.061844 6.117969 24.061844 6.371875 24.682938 6.528125 C 25.307938 6.684375 26.304031 6.934375 26.929031 7.094531 C 27.550125 7.250781 28.550125 7.504688 29.171219 7.660938 C 29.796219 7.821094 30.792313 8.075 31.417313 8.23125 C 32.038406 8.391406 33.038406 8.645313 33.6595 8.801563 C 34.2845 8.961719 35.280594 9.215625 35.905594 9.375781 C 36.526688 9.535938 37.526688 9.789844 38.147781 9.95 C 38.768875 10.10625 39.768875 10.364063 40.393875 10.524219 C 41.014969 10.680469 42.014969 10.938281 42.636063 11.098438 C 43.257156 11.254688 44.257156 11.5125 44.87825 11.672656 C 45.50325 11.828906 46.50325 12.086719 47.124344 12.246875 C 47.745438 12.407031 48.745438 12.660938 49.366531 12.821094 C 49.991531 12.98125 50.987625 13.239063 51.612625 13.399219 C 52.233719 13.559375 53.854813 13.973438 53.854813 13.973438 " transform="matrix(1,0,0,-1,89.528,65.7)"/>
</g>
<g clip-path="url(#clip8)" clip-rule="nonzero">
<path style="fill:none;stroke-width:0.3985;stroke-linecap:butt;stroke-linejoin:miter;stroke:rgb(100%,100%,100%);stroke-opacity:1;stroke-dasharray:2.98883,2.98883;stroke-miterlimit:10;" d="M -0.00065625 4.250781 C -0.00065625 4.250781 1.620438 4.621875 2.245438 4.953906 C 2.866531 5.282031 3.866531 6.10625 4.487625 6.629688 C 5.112625 7.153125 6.108719 8.125781 6.733719 8.735156 C 7.354813 9.348438 8.354813 10.379688 8.975906 11.028125 C 9.597 11.676563 10.597 12.742969 11.218094 13.414844 C 11.843094 14.082813 12.843094 15.16875 13.464188 15.848438 C 14.085281 16.528125 15.085281 17.625781 15.706375 18.309375 C 16.331375 18.996875 17.327469 20.102344 17.952469 20.79375 C 18.573563 21.485156 19.573563 22.594531 20.194656 23.289844 C 20.819656 23.985156 21.81575 25.098438 22.44075 25.797656 C 23.061844 26.492969 24.061844 27.610156 24.682938 28.309375 C 25.307938 29.008594 26.304031 30.125781 26.929031 30.825 C 27.550125 31.524219 28.550125 32.649219 29.171219 33.348438 C 29.796219 34.047656 30.792313 35.172656 31.417313 35.871875 C 32.038406 36.575 33.038406 37.7 33.6595 38.399219 C 34.2845 39.102344 35.280594 40.227344 35.905594 40.930469 C 36.526688 41.633594 37.526688 42.758594 38.147781 43.461719 C 38.768875 44.164844 39.768875 45.29375 40.393875 45.996875 C 41.014969 46.7 42.014969 47.825 42.636063 48.528125 C 43.257156 49.23125 44.257156 50.360156 44.87825 51.063281 C 45.50325 51.766406 46.50325 52.895313 47.124344 53.598438 C 47.745438 54.305469 48.745438 55.434375 49.366531 56.1375 C 49.991531 56.840625 50.987625 57.969531 51.612625 58.672656 C 52.233719 59.379688 53.854813 61.211719 53.854813 61.211719 " transform="matrix(1,0,0,-1,89.528,65.7)"/>
</g>
<path style="fill-rule:nonzero;fill:rgb(100%,100%,100%);fill-opacity:1;stroke-width:0.3985;stroke-linecap:butt;stroke-linejoin:miter;stroke:rgb(100%,100%,100%);stroke-opacity:1;stroke-miterlimit:10;" d="M 1.417313 -56.694531 L 1.417313 -8.503125 L -1.418625 -8.503125 L -1.418625 -56.694531 Z M 1.417313 -56.694531 " transform="matrix(1,0,0,-1,89.528,65.7)"/>
<path style="fill-rule:nonzero;fill:rgb(100%,100%,100%);fill-opacity:1;stroke-width:0.3985;stroke-linecap:butt;stroke-linejoin:miter;stroke:rgb(100%,100%,100%);stroke-opacity:1;stroke-miterlimit:10;" d="M 1.417313 -2.835156 L 1.417313 2.836719 L -1.418625 2.836719 L -1.418625 -2.835156 Z M 1.417313 -2.835156 " transform="matrix(1,0,0,-1,89.528,65.7)"/>
<path style="fill-rule:nonzero;fill:rgb(100%,100%,100%);fill-opacity:1;stroke-width:0.3985;stroke-linecap:butt;stroke-linejoin:miter;stroke:rgb(100%,100%,100%);stroke-opacity:1;stroke-miterlimit:10;" d="M 1.417313 56.692188 L 1.417313 8.504688 L -1.418625 8.504688 L -1.418625 56.692188 Z M 1.417313 56.692188 " transform="matrix(1,0,0,-1,89.528,65.7)"/>
<path style="fill-rule:nonzero;fill:rgb(100%,0%,0%);fill-opacity:1;stroke-width:0.3985;stroke-linecap:butt;stroke-linejoin:miter;stroke:rgb(100%,0%,0%);stroke-opacity:1;stroke-miterlimit:10;" d="M 1.417313 5.66875 C 1.417313 6.453906 0.7845 7.086719 -0.00065625 7.086719 C -0.781906 7.086719 -1.418625 6.453906 -1.418625 5.66875 C -1.418625 4.8875 -0.781906 4.250781 -0.00065625 4.250781 C 0.7845 4.250781 1.417313 4.8875 1.417313 5.66875 Z M 1.417313 5.66875 " transform="matrix(1,0,0,-1,89.528,65.7)"/>
<path style="fill-rule:nonzero;fill:rgb(100%,0%,0%);fill-opacity:1;stroke-width:0.3985;stroke-linecap:butt;stroke-linejoin:miter;stroke:rgb(100%,0%,0%);stroke-opacity:1;stroke-miterlimit:10;" d="M 1.417313 -5.671094 C 1.417313 -4.885937 0.7845 -4.253125 -0.00065625 -4.253125 C -0.781906 -4.253125 -1.418625 -4.885937 -1.418625 -5.671094 C -1.418625 -6.452344 -0.781906 -7.085156 -0.00065625 -7.085156 C 0.7845 -7.085156 1.417313 -6.452344 1.417313 -5.671094 Z M 1.417313 -5.671094 " transform="matrix(1,0,0,-1,89.528,65.7)"/>
</g>
</svg>
