<?xml version="1.0" encoding="UTF-8"?>
<svg xmlns="http://www.w3.org/2000/svg" xmlns:xlink="http://www.w3.org/1999/xlink" width="95.434pt" height="150.71pt" viewBox="0 0 95.434 150.71" version="1.1">
<defs>
<clipPath id="clip1">
  <path d="M 0 0 L 95.433594 0 L 95.433594 150.710938 L 0 150.710938 Z M 0 0 "/>
</clipPath>
<clipPath id="clip2">
  <path d="M 0 112 L 26 112 L 26 150.710938 L 0 150.710938 Z M 0 112 "/>
</clipPath>
<clipPath id="clip3">
  <path d="M 28 112 L 55 112 L 55 150.710938 L 28 150.710938 Z M 28 112 "/>
</clipPath>
<clipPath id="clip4">
  <path d="M 56 112 L 83 112 L 83 150.710938 L 56 150.710938 Z M 56 112 "/>
</clipPath>
</defs>
<g id="surface1">
<g clip-path="url(#clip1)" clip-rule="nonzero">
<path style=" stroke:none;fill-rule:nonzero;fill:rgb(0%,0%,0%);fill-opacity:1;" d="M 0 150.710938 L 0 0 L 95.433594 0 L 95.433594 150.710938 Z M 0 150.710938 "/>
<path style=" stroke:none;fill-rule:nonzero;fill:rgb(0%,0%,0%);fill-opacity:1;" d="M 0 150.710938 L 0 0 L 95.433594 0 L 95.433594 150.710938 Z M 0 150.710938 "/>
</g>
<path style="fill:none;stroke-width:0.3985;stroke-linecap:butt;stroke-linejoin:miter;stroke:rgb(100%,100%,100%);stroke-opacity:1;stroke-miterlimit:10;" d="M 0.00025 -0.00165625 L 0.00025 141.732719 " transform="matrix(1,0,0,-1,5.906,146.221)"/>
<path style="fill:none;stroke-width:0.3985;stroke-linecap:butt;stroke-linejoin:miter;stroke:rgb(100%,100%,100%);stroke-opacity:1;stroke-miterlimit:10;" d="M 14.172125 -0.00165625 L 14.172125 141.732719 " transform="matrix(1,0,0,-1,5.906,146.221)"/>
<path style="fill:none;stroke-width:0.3985;stroke-linecap:butt;stroke-linejoin:miter;stroke:rgb(100%,100%,100%);stroke-opacity:1;stroke-miterlimit:10;" d="M 28.347906 -0.00165625 L 28.347906 141.732719 " transform="matrix(1,0,0,-1,5.906,146.221)"/>
<path style="fill:none;stroke-width:0.3985;stroke-linecap:butt;stroke-linejoin:miter;stroke:rgb(100%,100%,100%);stroke-opacity:1;stroke-miterlimit:10;" d="M 42.519781 -0.00165625 L 42.519781 141.732719 " transform="matrix(1,0,0,-1,5.906,146.221)"/>
<path style="fill:none;stroke-width:0.3985;stroke-linecap:butt;stroke-linejoin:miter;stroke:rgb(100%,100%,100%);stroke-opacity:1;stroke-miterlimit:10;" d="M 56.695563 -0.00165625 L 56.695563 141.732719 " transform="matrix(1,0,0,-1,5.906,146.221)"/>
<g clip-path="url(#clip2)" clip-rule="nonzero">
<path style="fill:none;stroke-width:0.3985;stroke-linecap:butt;stroke-linejoin:miter;stroke:rgb(0%,67.83905%,93.728638%);stroke-opacity:1;stroke-miterlimit:10;" d="M 0.00025 -0.00165625 C 7.828375 -0.00165625 14.172125 6.346 14.172125 14.174125 C 14.172125 22.00225 7.828375 28.346 0.00025 28.346 " transform="matrix(1,0,0,-1,5.906,146.221)"/>
</g>
<path style="fill-rule:nonzero;fill:rgb(100%,0%,0%);fill-opacity:1;stroke-width:0.3985;stroke-linecap:butt;stroke-linejoin:miter;stroke:rgb(100%,0%,0%);stroke-opacity:1;stroke-miterlimit:10;" d="M 1.418219 14.174125 C 1.418219 14.955375 0.7815 15.592094 0.00025 15.592094 C -0.781 15.592094 -1.417719 14.955375 -1.417719 14.174125 C -1.417719 13.388969 -0.781 12.756156 0.00025 12.756156 C 0.7815 12.756156 1.418219 13.388969 1.418219 14.174125 Z M 1.418219 14.174125 " transform="matrix(1,0,0,-1,5.906,146.221)"/>
<path style="fill:none;stroke-width:0.3985;stroke-linecap:butt;stroke-linejoin:miter;stroke:rgb(0%,67.83905%,93.728638%);stroke-opacity:1;stroke-miterlimit:10;" d="M 0.00025 14.174125 C 7.828375 14.174125 14.172125 20.517875 14.172125 28.346 C 14.172125 36.174125 7.828375 42.521781 0.00025 42.521781 " transform="matrix(1,0,0,-1,5.906,146.221)"/>
<path style="fill-rule:nonzero;fill:rgb(100%,0%,0%);fill-opacity:1;stroke-width:0.3985;stroke-linecap:butt;stroke-linejoin:miter;stroke:rgb(100%,0%,0%);stroke-opacity:1;stroke-miterlimit:10;" d="M 1.418219 28.346 C 1.418219 29.131156 0.7815 29.763969 0.00025 29.763969 C -0.781 29.763969 -1.417719 29.131156 -1.417719 28.346 C -1.417719 27.56475 -0.781 26.928031 0.00025 26.928031 C 0.7815 26.928031 1.418219 27.56475 1.418219 28.346 Z M 1.418219 28.346 " transform="matrix(1,0,0,-1,5.906,146.221)"/>
<path style="fill:none;stroke-width:0.3985;stroke-linecap:butt;stroke-linejoin:miter;stroke:rgb(0%,67.83905%,93.728638%);stroke-opacity:1;stroke-miterlimit:10;" d="M 0.00025 28.346 C 7.828375 28.346 14.172125 34.693656 14.172125 42.521781 C 14.172125 50.349906 7.828375 56.693656 0.00025 56.693656 " transform="matrix(1,0,0,-1,5.906,146.221)"/>
<path style="fill-rule:nonzero;fill:rgb(100%,0%,0%);fill-opacity:1;stroke-width:0.3985;stroke-linecap:butt;stroke-linejoin:miter;stroke:rgb(100%,0%,0%);stroke-opacity:1;stroke-miterlimit:10;" d="M 1.418219 42.521781 C 1.418219 43.303031 0.7815 43.935844 0.00025 43.935844 C -0.781 43.935844 -1.417719 43.303031 -1.417719 42.521781 C -1.417719 41.736625 -0.781 41.103812 0.00025 41.103812 C 0.7815 41.103812 1.418219 41.736625 1.418219 42.521781 Z M 1.418219 42.521781 " transform="matrix(1,0,0,-1,5.906,146.221)"/>
<path style="fill:none;stroke-width:0.3985;stroke-linecap:butt;stroke-linejoin:miter;stroke:rgb(0%,67.83905%,93.728638%);stroke-opacity:1;stroke-miterlimit:10;" d="M 0.00025 42.521781 C 7.828375 42.521781 14.172125 48.865531 14.172125 56.693656 C 14.172125 64.521781 7.828375 70.865531 0.00025 70.865531 " transform="matrix(1,0,0,-1,5.906,146.221)"/>
<path style="fill-rule:nonzero;fill:rgb(100%,0%,0%);fill-opacity:1;stroke-width:0.3985;stroke-linecap:butt;stroke-linejoin:miter;stroke:rgb(100%,0%,0%);stroke-opacity:1;stroke-miterlimit:10;" d="M 1.418219 56.693656 C 1.418219 57.474906 0.7815 58.111625 0.00025 58.111625 C -0.781 58.111625 -1.417719 57.474906 -1.417719 56.693656 C -1.417719 55.912406 -0.781 55.275687 0.00025 55.275687 C 0.7815 55.275687 1.418219 55.912406 1.418219 56.693656 Z M 1.418219 56.693656 " transform="matrix(1,0,0,-1,5.906,146.221)"/>
<path style="fill:none;stroke-width:0.3985;stroke-linecap:butt;stroke-linejoin:miter;stroke:rgb(0%,67.83905%,93.728638%);stroke-opacity:1;stroke-miterlimit:10;" d="M 0.00025 56.693656 C 7.828375 56.693656 14.172125 63.037406 14.172125 70.865531 C 14.172125 78.693656 7.828375 85.041312 0.00025 85.041312 " transform="matrix(1,0,0,-1,5.906,146.221)"/>
<path style="fill-rule:nonzero;fill:rgb(100%,0%,0%);fill-opacity:1;stroke-width:0.3985;stroke-linecap:butt;stroke-linejoin:miter;stroke:rgb(100%,0%,0%);stroke-opacity:1;stroke-miterlimit:10;" d="M 1.418219 70.865531 C 1.418219 71.650687 0.7815 72.2835 0.00025 72.2835 C -0.781 72.2835 -1.417719 71.650687 -1.417719 70.865531 C -1.417719 70.084281 -0.781 69.451469 0.00025 69.451469 C 0.7815 69.451469 1.418219 70.084281 1.418219 70.865531 Z M 1.418219 70.865531 " transform="matrix(1,0,0,-1,5.906,146.221)"/>
<path style="fill:none;stroke-width:0.3985;stroke-linecap:butt;stroke-linejoin:miter;stroke:rgb(0%,67.83905%,93.728638%);stroke-opacity:1;stroke-miterlimit:10;" d="M 0.00025 70.865531 C 7.828375 70.865531 14.172125 77.213187 14.172125 85.041312 C 14.172125 92.869437 7.828375 99.213187 0.00025 99.213187 " transform="matrix(1,0,0,-1,5.906,146.221)"/>
<path style="fill-rule:nonzero;fill:rgb(100%,0%,0%);fill-opacity:1;stroke-width:0.3985;stroke-linecap:butt;stroke-linejoin:miter;stroke:rgb(100%,0%,0%);stroke-opacity:1;stroke-miterlimit:10;" d="M 1.418219 85.041312 C 1.418219 85.822562 0.7815 86.459281 0.00025 86.459281 C -0.781 86.459281 -1.417719 85.822562 -1.417719 85.041312 C -1.417719 84.256156 -0.781 83.623344 0.00025 83.623344 C 0.7815 83.623344 1.418219 84.256156 1.418219 85.041312 Z M 1.418219 85.041312 " transform="matrix(1,0,0,-1,5.906,146.221)"/>
<path style="fill:none;stroke-width:0.3985;stroke-linecap:butt;stroke-linejoin:miter;stroke:rgb(0%,67.83905%,93.728638%);stroke-opacity:1;stroke-miterlimit:10;" d="M 0.00025 85.041312 C 7.828375 85.041312 14.172125 91.385062 14.172125 99.213187 C 14.172125 107.041312 7.828375 113.388969 0.00025 113.388969 " transform="matrix(1,0,0,-1,5.906,146.221)"/>
<path style="fill-rule:nonzero;fill:rgb(100%,0%,0%);fill-opacity:1;stroke-width:0.3985;stroke-linecap:butt;stroke-linejoin:miter;stroke:rgb(100%,0%,0%);stroke-opacity:1;stroke-miterlimit:10;" d="M 1.418219 99.213187 C 1.418219 99.998344 0.7815 100.631156 0.00025 100.631156 C -0.781 100.631156 -1.417719 99.998344 -1.417719 99.213187 C -1.417719 98.431937 -0.781 97.795219 0.00025 97.795219 C 0.7815 97.795219 1.418219 98.431937 1.418219 99.213187 Z M 1.418219 99.213187 " transform="matrix(1,0,0,-1,5.906,146.221)"/>
<path style="fill:none;stroke-width:0.3985;stroke-linecap:butt;stroke-linejoin:miter;stroke:rgb(0%,67.83905%,93.728638%);stroke-opacity:1;stroke-miterlimit:10;" d="M 0.00025 99.213187 C 7.828375 99.213187 14.172125 105.560844 14.172125 113.388969 C 14.172125 121.213187 7.828375 127.560844 0.00025 127.560844 " transform="matrix(1,0,0,-1,5.906,146.221)"/>
<path style="fill-rule:nonzero;fill:rgb(100%,0%,0%);fill-opacity:1;stroke-width:0.3985;stroke-linecap:butt;stroke-linejoin:miter;stroke:rgb(100%,0%,0%);stroke-opacity:1;stroke-miterlimit:10;" d="M 1.418219 113.388969 C 1.418219 114.170219 0.7815 114.803031 0.00025 114.803031 C -0.781 114.803031 -1.417719 114.170219 -1.417719 113.388969 C -1.417719 112.603812 -0.781 111.971 0.00025 111.971 C 0.7815 111.971 1.418219 112.603812 1.418219 113.388969 Z M 1.418219 113.388969 " transform="matrix(1,0,0,-1,5.906,146.221)"/>
<path style="fill:none;stroke-width:0.3985;stroke-linecap:butt;stroke-linejoin:miter;stroke:rgb(0%,67.83905%,93.728638%);stroke-opacity:1;stroke-miterlimit:10;" d="M 0.00025 113.388969 C 7.828375 113.388969 14.172125 119.732719 14.172125 127.560844 C 14.172125 135.388969 7.828375 141.732719 0.00025 141.732719 " transform="matrix(1,0,0,-1,5.906,146.221)"/>
<path style="fill-rule:nonzero;fill:rgb(100%,0%,0%);fill-opacity:1;stroke-width:0.3985;stroke-linecap:butt;stroke-linejoin:miter;stroke:rgb(100%,0%,0%);stroke-opacity:1;stroke-miterlimit:10;" d="M 1.418219 127.560844 C 1.418219 128.342094 0.7815 128.978812 0.00025 128.978812 C -0.781 128.978812 -1.417719 128.342094 -1.417719 127.560844 C -1.417719 126.779594 -0.781 126.142875 0.00025 126.142875 C 0.7815 126.142875 1.418219 126.779594 1.418219 127.560844 Z M 1.418219 127.560844 " transform="matrix(1,0,0,-1,5.906,146.221)"/>
<g clip-path="url(#clip3)" clip-rule="nonzero">
<path style="fill:none;stroke-width:0.3985;stroke-linecap:butt;stroke-linejoin:miter;stroke:rgb(0%,67.83905%,93.728638%);stroke-opacity:1;stroke-miterlimit:10;" d="M 28.347906 -0.00165625 C 36.176031 -0.00165625 42.519781 6.346 42.519781 14.174125 C 42.519781 22.00225 36.176031 28.346 28.347906 28.346 " transform="matrix(1,0,0,-1,5.906,146.221)"/>
</g>
<path style="fill-rule:nonzero;fill:rgb(100%,0%,0%);fill-opacity:1;stroke-width:0.3985;stroke-linecap:butt;stroke-linejoin:miter;stroke:rgb(100%,0%,0%);stroke-opacity:1;stroke-miterlimit:10;" d="M 29.765875 14.174125 C 29.765875 14.955375 29.129156 15.592094 28.347906 15.592094 C 27.56275 15.592094 26.929938 14.955375 26.929938 14.174125 C 26.929938 13.388969 27.56275 12.756156 28.347906 12.756156 C 29.129156 12.756156 29.765875 13.388969 29.765875 14.174125 Z M 29.765875 14.174125 " transform="matrix(1,0,0,-1,5.906,146.221)"/>
<path style="fill:none;stroke-width:0.3985;stroke-linecap:butt;stroke-linejoin:miter;stroke:rgb(0%,67.83905%,93.728638%);stroke-opacity:1;stroke-miterlimit:10;" d="M 28.347906 14.174125 C 36.176031 14.174125 42.519781 20.517875 42.519781 28.346 C 42.519781 36.174125 36.176031 42.521781 28.347906 42.521781 " transform="matrix(1,0,0,-1,5.906,146.221)"/>
<path style="fill-rule:nonzero;fill:rgb(100%,0%,0%);fill-opacity:1;stroke-width:0.3985;stroke-linecap:butt;stroke-linejoin:miter;stroke:rgb(100%,0%,0%);stroke-opacity:1;stroke-miterlimit:10;" d="M 29.765875 28.346 C 29.765875 29.131156 29.129156 29.763969 28.347906 29.763969 C 27.56275 29.763969 26.929938 29.131156 26.929938 28.346 C 26.929938 27.56475 27.56275 26.928031 28.347906 26.928031 C 29.129156 26.928031 29.765875 27.56475 29.765875 28.346 Z M 29.765875 28.346 " transform="matrix(1,0,0,-1,5.906,146.221)"/>
<path style="fill:none;stroke-width:0.3985;stroke-linecap:butt;stroke-linejoin:miter;stroke:rgb(0%,67.83905%,93.728638%);stroke-opacity:1;stroke-miterlimit:10;" d="M 28.347906 28.346 C 36.176031 28.346 42.519781 34.693656 42.519781 42.521781 C 42.519781 50.349906 36.176031 56.693656 28.347906 56.693656 " transform="matrix(1,0,0,-1,5.906,146.221)"/>
<path style="fill-rule:nonzero;fill:rgb(100%,0%,0%);fill-opacity:1;stroke-width:0.3985;stroke-linecap:butt;stroke-linejoin:miter;stroke:rgb(100%,0%,0%);stroke-opacity:1;stroke-miterlimit:10;" d="M 29.765875 42.521781 C 29.765875 43.303031 29.129156 43.935844 28.347906 43.935844 C 27.56275 43.935844 26.929938 43.303031 26.929938 42.521781 C 26.929938 41.736625 27.56275 41.103812 28.347906 41.103812 C 29.129156 41.103812 29.765875 41.736625 29.765875 42.521781 Z M 29.765875 42.521781 " transform="matrix(1,0,0,-1,5.906,146.221)"/>
<path style="fill:none;stroke-width:0.3985;stroke-linecap:butt;stroke-linejoin:miter;stroke:rgb(0%,67.83905%,93.728638%);stroke-opacity:1;stroke-miterlimit:10;" d="M 28.347906 42.521781 C 36.176031 42.521781 42.519781 48.865531 42.519781 56.693656 C 42.519781 64.521781 36.176031 70.865531 28.347906 70.865531 " transform="matrix(1,0,0,-1,5.906,146.221)"/>
<path style="fill-rule:nonzero;fill:rgb(100%,0%,0%);fill-opacity:1;stroke-width:0.3985;stroke-linecap:butt;stroke-linejoin:miter;stroke:rgb(100%,0%,0%);stroke-opacity:1;stroke-miterlimit:10;" d="M 29.765875 56.693656 C 29.765875 57.474906 29.129156 58.111625 28.347906 58.111625 C 27.56275 58.111625 26.929938 57.474906 26.929938 56.693656 C 26.929938 55.912406 27.56275 55.275687 28.347906 55.275687 C 29.129156 55.275687 29.765875 55.912406 29.765875 56.693656 Z M 29.765875 56.693656 " transform="matrix(1,0,0,-1,5.906,146.221)"/>
<path style="fill:none;stroke-width:0.3985;stroke-linecap:butt;stroke-linejoin:miter;stroke:rgb(0%,67.83905%,93.728638%);stroke-opacity:1;stroke-miterlimit:10;" d="M 28.347906 56.693656 C 36.176031 56.693656 42.519781 63.037406 42.519781 70.865531 C 42.519781 78.693656 36.176031 85.041312 28.347906 85.041312 " transform="matrix(1,0,0,-1,5.906,146.221)"/>
<path style="fill-rule:nonzero;fill:rgb(100%,0%,0%);fill-opacity:1;stroke-width:0.3985;stroke-linecap:butt;stroke-linejoin:miter;stroke:rgb(100%,0%,0%);stroke-opacity:1;stroke-miterlimit:10;" d="M 29.765875 70.865531 C 29.765875 71.650687 29.129156 72.2835 28.347906 72.2835 C 27.56275 72.2835 26.929938 71.650687 26.929938 70.865531 C 26.929938 70.084281 27.56275 69.451469 28.347906 69.451469 C 29.129156 69.451469 29.765875 70.084281 29.765875 70.865531 Z M 29.765875 70.865531 " transform="matrix(1,0,0,-1,5.906,146.221)"/>
<path style="fill:none;stroke-width:0.3985;stroke-linecap:butt;stroke-linejoin:miter;stroke:rgb(0%,67.83905%,93.728638%);stroke-opacity:1;stroke-miterlimit:10;" d="M 28.347906 70.865531 C 36.176031 70.865531 42.519781 77.213187 42.519781 85.041312 C 42.519781 92.869437 36.176031 99.213187 28.347906 99.213187 " transform="matrix(1,0,0,-1,5.906,146.221)"/>
<path style="fill-rule:nonzero;fill:rgb(100%,0%,0%);fill-opacity:1;stroke-width:0.3985;stroke-linecap:butt;stroke-linejoin:miter;stroke:rgb(100%,0%,0%);stroke-opacity:1;stroke-miterlimit:10;" d="M 29.765875 85.041312 C 29.765875 85.822562 29.129156 86.459281 28.347906 86.459281 C 27.56275 86.459281 26.929938 85.822562 26.929938 85.041312 C 26.929938 84.256156 27.56275 83.623344 28.347906 83.623344 C 29.129156 83.623344 29.765875 84.256156 29.765875 85.041312 Z M 29.765875 85.041312 " transform="matrix(1,0,0,-1,5.906,146.221)"/>
<path style="fill:none;stroke-width:0.3985;stroke-linecap:butt;stroke-linejoin:miter;stroke:rgb(0%,67.83905%,93.728638%);stroke-opacity:1;stroke-miterlimit:10;" d="M 28.347906 85.041312 C 36.176031 85.041312 42.519781 91.385062 42.519781 99.213187 C 42.519781 107.041312 36.176031 113.388969 28.347906 113.388969 " transform="matrix(1,0,0,-1,5.906,146.221)"/>
<path style="fill-rule:nonzero;fill:rgb(100%,0%,0%);fill-opacity:1;stroke-width:0.3985;stroke-linecap:butt;stroke-linejoin:miter;stroke:rgb(100%,0%,0%);stroke-opacity:1;stroke-miterlimit:10;" d="M 29.765875 99.213187 C 29.765875 99.998344 29.129156 100.631156 28.347906 100.631156 C 27.56275 100.631156 26.929938 99.998344 26.929938 99.213187 C 26.929938 98.431937 27.56275 97.795219 28.347906 97.795219 C 29.129156 97.795219 29.765875 98.431937 29.765875 99.213187 Z M 29.765875 99.213187 " transform="matrix(1,0,0,-1,5.906,146.221)"/>
<path style="fill:none;stroke-width:0.3985;stroke-linecap:butt;stroke-linejoin:miter;stroke:rgb(0%,67.83905%,93.728638%);stroke-opacity:1;stroke-miterlimit:10;" d="M 28.347906 99.213187 C 36.176031 99.213187 42.519781 105.560844 42.519781 113.388969 C 42.519781 121.213187 36.176031 127.560844 28.347906 127.560844 " transform="matrix(1,0,0,-1,5.906,146.221)"/>
<path style="fill-rule:nonzero;fill:rgb(100%,0%,0%);fill-opacity:1;stroke-width:0.3985;stroke-linecap:butt;stroke-linejoin:miter;stroke:rgb(100%,0%,0%);stroke-opacity:1;stroke-miterlimit:10;" d="M 29.765875 113.388969 C 29.765875 114.170219 29.129156 114.803031 28.347906 114.803031 C 27.56275 114.803031 26.929938 114.170219 26.929938 113.388969 C 26.929938 112.603812 27.56275 111.971 28.347906 111.971 C 29.129156 111.971 29.765875 112.603812 29.765875 113.388969 Z M 29.765875 113.388969 " transform="matrix(1,0,0,-1,5.906,146.221)"/>
<path style="fill:none;stroke-width:0.3985;stroke-linecap:butt;stroke-linejoin:miter;stroke:rgb(0%,67.83905%,93.728638%);stroke-opacity:1;stroke-miterlimit:10;" d="M 28.347906 113.388969 C 36.176031 113.388969 42.519781 119.732719 42.519781 127.560844 C 42.519781 135.388969 36.176031 141.732719 28.347906 141.732719 " transform="matrix(1,0,0,-1,5.906,146.221)"/>
<path style="fill-rule:nonzero;fill:rgb(100%,0%,0%);fill-opacity:1;stroke-width:0.3985;stroke-linecap:butt;stroke-linejoin:miter;stroke:rgb(100%,0%,0%);stroke-opacity:1;stroke-miterlimit:10;" d="M 29.765875 127.560844 C 29.765875 128.342094 29.129156 128.978812 28.347906 128.978812 C 27.56275 128.978812 26.929938 128.342094 26.929938 127.560844 C 26.929938 126.779594 27.56275 126.142875 28.347906 126.142875 C 29.129156 126.142875 29.765875 126.779594 29.765875 127.560844 Z M 29.765875 127.560844 " transform="matrix(1,0,0,-1,5.906,146.221)"/>
<g clip-path="url(#clip4)" clip-rule="nonzero">
<path style="fill:none;stroke-width:0.3985;stroke-linecap:butt;stroke-linejoin:miter;stroke:rgb(0%,67.83905%,93.728638%);stroke-opacity:1;stroke-miterlimit:10;" d="M 56.695563 -0.00165625 C 64.519781 -0.00165625 70.867437 6.346 70.867437 14.174125 C 70.867437 22.00225 64.519781 28.346 56.695563 28.346 " transform="matrix(1,0,0,-1,5.906,146.221)"/>
</g>
<path style="fill-rule:nonzero;fill:rgb(100%,0%,0%);fill-opacity:1;stroke-width:0.3985;stroke-linecap:butt;stroke-linejoin:miter;stroke:rgb(100%,0%,0%);stroke-opacity:1;stroke-miterlimit:10;" d="M 58.109625 14.174125 C 58.109625 14.955375 57.476813 15.592094 56.695563 15.592094 C 55.910406 15.592094 55.277594 14.955375 55.277594 14.174125 C 55.277594 13.388969 55.910406 12.756156 56.695563 12.756156 C 57.476813 12.756156 58.109625 13.388969 58.109625 14.174125 Z M 58.109625 14.174125 " transform="matrix(1,0,0,-1,5.906,146.221)"/>
<path style="fill:none;stroke-width:0.3985;stroke-linecap:butt;stroke-linejoin:miter;stroke:rgb(0%,67.83905%,93.728638%);stroke-opacity:1;stroke-miterlimit:10;" d="M 56.695563 14.174125 C 64.519781 14.174125 70.867437 20.517875 70.867437 28.346 C 70.867437 36.174125 64.519781 42.521781 56.695563 42.521781 " transform="matrix(1,0,0,-1,5.906,146.221)"/>
<path style="fill-rule:nonzero;fill:rgb(100%,0%,0%);fill-opacity:1;stroke-width:0.3985;stroke-linecap:butt;stroke-linejoin:miter;stroke:rgb(100%,0%,0%);stroke-opacity:1;stroke-miterlimit:10;" d="M 58.109625 28.346 C 58.109625 29.131156 57.476813 29.763969 56.695563 29.763969 C 55.910406 29.763969 55.277594 29.131156 55.277594 28.346 C 55.277594 27.56475 55.910406 26.928031 56.695563 26.928031 C 57.476813 26.928031 58.109625 27.56475 58.109625 28.346 Z M 58.109625 28.346 " transform="matrix(1,0,0,-1,5.906,146.221)"/>
<path style="fill:none;stroke-width:0.3985;stroke-linecap:butt;stroke-linejoin:miter;stroke:rgb(0%,67.83905%,93.728638%);stroke-opacity:1;stroke-miterlimit:10;" d="M 56.695563 28.346 C 64.519781 28.346 70.867437 34.693656 70.867437 42.521781 C 70.867437 50.349906 64.519781 56.693656 56.695563 56.693656 " transform="matrix(1,0,0,-1,5.906,146.221)"/>
<path style="fill-rule:nonzero;fill:rgb(100%,0%,0%);fill-opacity:1;stroke-width:0.3985;stroke-linecap:butt;stroke-linejoin:miter;stroke:rgb(100%,0%,0%);stroke-opacity:1;stroke-miterlimit:10;" d="M 58.109625 42.521781 C 58.109625 43.303031 57.476813 43.935844 56.695563 43.935844 C 55.910406 43.935844 55.277594 43.303031 55.277594 42.521781 C 55.277594 41.736625 55.910406 41.103812 56.695563 41.103812 C 57.476813 41.103812 58.109625 41.736625 58.109625 42.521781 Z M 58.109625 42.521781 " transform="matrix(1,0,0,-1,5.906,146.221)"/>
<path style="fill:none;stroke-width:0.3985;stroke-linecap:butt;stroke-linejoin:miter;stroke:rgb(0%,67.83905%,93.728638%);stroke-opacity:1;stroke-miterlimit:10;" d="M 56.695563 42.521781 C 64.519781 42.521781 70.867437 48.865531 70.867437 56.693656 C 70.867437 64.521781 64.519781 70.865531 56.695563 70.865531 " transform="matrix(1,0,0,-1,5.906,146.221)"/>
<path style="fill-rule:nonzero;fill:rgb(100%,0%,0%);fill-opacity:1;stroke-width:0.3985;stroke-linecap:butt;stroke-linejoin:miter;stroke:rgb(100%,0%,0%);stroke-opacity:1;stroke-miterlimit:10;" d="M 58.109625 56.693656 C 58.109625 57.474906 57.476813 58.111625 56.695563 58.111625 C 55.910406 58.111625 55.277594 57.474906 55.277594 56.693656 C 55.277594 55.912406 55.910406 55.275687 56.695563 55.275687 C 57.476813 55.275687 58.109625 55.912406 58.109625 56.693656 Z M 58.109625 56.693656 " transform="matrix(1,0,0,-1,5.906,146.221)"/>
<path style="fill:none;stroke-width:0.3985;stroke-linecap:butt;stroke-linejoin:miter;stroke:rgb(0%,67.83905%,93.728638%);stroke-opacity:1;stroke-miterlimit:10;" d="M 56.695563 56.693656 C 64.519781 56.693656 70.867437 63.037406 70.867437 70.865531 C 70.867437 78.693656 64.519781 85.041312 56.695563 85.041312 " transform="matrix(1,0,0,-1,5.906,146.221)"/>
<path style="fill-rule:nonzero;fill:rgb(100%,0%,0%);fill-opacity:1;stroke-width:0.3985;stroke-linecap:butt;stroke-linejoin:miter;stroke:rgb(100%,0%,0%);stroke-opacity:1;stroke-miterlimit:10;" d="M 58.109625 70.865531 C 58.109625 71.650687 57.476813 72.2835 56.695563 72.2835 C 55.910406 72.2835 55.277594 71.650687 55.277594 70.865531 C 55.277594 70.084281 55.910406 69.451469 56.695563 69.451469 C 57.476813 69.451469 58.109625 70.084281 58.109625 70.865531 Z M 58.109625 70.865531 " transform="matrix(1,0,0,-1,5.906,146.221)"/>
<path style="fill:none;stroke-width:0.3985;stroke-linecap:butt;stroke-linejoin:miter;stroke:rgb(0%,67.83905%,93.728638%);stroke-opacity:1;stroke-miterlimit:10;" d="M 56.695563 70.865531 C 64.519781 70.865531 70.867437 77.213187 70.867437 85.041312 C 70.867437 92.869437 64.519781 99.213187 56.695563 99.213187 " transform="matrix(1,0,0,-1,5.906,146.221)"/>
<path style="fill-rule:nonzero;fill:rgb(100%,0%,0%);fill-opacity:1;stroke-width:0.3985;stroke-linecap:butt;stroke-linejoin:miter;stroke:rgb(100%,0%,0%);stroke-opacity:1;stroke-miterlimit:10;" d="M 58.109625 85.041312 C 58.109625 85.822562 57.476813 86.459281 56.695563 86.459281 C 55.910406 86.459281 55.277594 85.822562 55.277594 85.041312 C 55.277594 84.256156 55.910406 83.623344 56.695563 83.623344 C 57.476813 83.623344 58.109625 84.256156 58.109625 85.041312 Z M 58.109625 85.041312 " transform="matrix(1,0,0,-1,5.906,146.221)"/>
<path style="fill:none;stroke-width:0.3985;stroke-linecap:butt;stroke-linejoin:miter;stroke:rgb(0%,67.83905%,93.728638%);stroke-opacity:1;stroke-miterlimit:10;" d="M 56.695563 85.041312 C 64.519781 85.041312 70.867437 91.385062 70.867437 99.213187 C 70.867437 107.041312 64.519781 113.388969 56.695563 113.388969 " transform="matrix(1,0,0,-1,5.906,146.221)"/>
<path style="fill-rule:nonzero;fill:rgb(100%,0%,0%);fill-opacity:1;stroke-width:0.3985;stroke-linecap:butt;stroke-linejoin:miter;stroke:rgb(100%,0%,0%);stroke-opacity:1;stroke-miterlimit:10;" d="M 58.109625 99.213187 C 58.109625 99.998344 57.476813 100.631156 56.695563 100.631156 C 55.910406 100.631156 55.277594 99.998344 55.277594 99.213187 C 55.277594 98.431937 55.910406 97.795219 56.695563 97.795219 C 57.476813 97.795219 58.109625 98.431937 58.109625 99.213187 Z M 58.109625 99.213187 " transform="matrix(1,0,0,-1,5.906,146.221)"/>
<path style="fill:none;stroke-width:0.3985;stroke-linecap:butt;stroke-linejoin:miter;stroke:rgb(0%,67.83905%,93.728638%);stroke-opacity:1;stroke-miterlimit:10;" d="M 56.695563 99.213187 C 64.519781 99.213187 70.867437 105.560844 70.867437 113.388969 C 70.867437 121.213187 64.519781 127.560844 56.695563 127.560844 " transform="matrix(1,0,0,-1,5.906,146.221)"/>
<path style="fill-rule:nonzero;fill:rgb(100%,0%,0%);fill-opacity:1;stroke-width:0.3985;stroke-linecap:butt;stroke-linejoin:miter;stroke:rgb(100%,0%,0%);stroke-opacity:1;stroke-miterlimit:10;" d="M 58.109625 113.388969 C 58.109625 114.170219 57.476813 114.803031 56.695563 114.803031 C 55.910406 114.803031 55.277594 114.170219 55.277594 113.388969 C 55.277594 112.603812 55.910406 111.971 56.695563 111.971 C 57.476813 111.971 58.109625 112.603812 58.109625 113.388969 Z M 58.109625 113.388969 " transform="matrix(1,0,0,-1,5.906,146.221)"/>
<path style="fill:none;stroke-width:0.3985;stroke-linecap:butt;stroke-linejoin:miter;stroke:rgb(0%,67.83905%,93.728638%);stroke-opacity:1;stroke-miterlimit:10;" d="M 56.695563 113.388969 C 64.519781 113.388969 70.867437 119.732719 70.867437 127.560844 C 70.867437 135.388969 64.519781 141.732719 56.695563 141.732719 " transform="matrix(1,0,0,-1,5.906,146.221)"/>
<path style="fill-rule:nonzero;fill:rgb(100%,0%,0%);fill-opacity:1;stroke-width:0.3985;stroke-linecap:butt;stroke-linejoin:miter;stroke:rgb(100%,0%,0%);stroke-opacity:1;stroke-miterlimit:10;" d="M 58.109625 127.560844 C 58.109625 128.342094 57.476813 128.978812 56.695563 128.978812 C 55.910406 128.978812 55.277594 128.342094 55.277594 127.560844 C 55.277594 126.779594 55.910406 126.142875 56.695563 126.142875 C 57.476813 126.142875 58.109625 126.779594 58.109625 127.560844 Z M 58.109625 127.560844 " transform="matrix(1,0,0,-1,5.906,146.221)"/>
<path style="fill:none;stroke-width:0.3985;stroke-linecap:butt;stroke-linejoin:miter;stroke:rgb(100%,100%,100%);stroke-opacity:1;stroke-miterlimit:10;" d="M 56.695563 70.865531 L 81.453375 70.865531 " transform="matrix(1,0,0,-1,5.906,146.221)"/>
<path style=" stroke:none;fill-rule:nonzero;fill:rgb(100%,100%,100%);fill-opacity:1;" d="M 90.945312 75.355469 C 89.882812 75.15625 88.15625 74.558594 86.960938 73.859375 L 86.960938 76.847656 C 88.15625 76.152344 89.882812 75.554688 90.945312 75.355469 "/>
</g>
</svg>
