<?xml version="1.0" encoding="UTF-8"?>
<svg xmlns="http://www.w3.org/2000/svg" xmlns:xlink="http://www.w3.org/1999/xlink" width="86.855pt" height="142.131pt" viewBox="0 0 86.855 142.131" version="1.1">
<defs>
<clipPath id="clip1">
  <path d="M 1 0 L 2 0 L 2 142.132812 L 1 142.132812 Z M 1 0 "/>
</clipPath>
<clipPath id="clip2">
  <path d="M 15 0 L 16 0 L 16 142.132812 L 15 142.132812 Z M 15 0 "/>
</clipPath>
<clipPath id="clip3">
  <path d="M 29 0 L 31 0 L 31 142.132812 L 29 142.132812 Z M 29 0 "/>
</clipPath>
<clipPath id="clip4">
  <path d="M 43 0 L 45 0 L 45 142.132812 L 43 142.132812 Z M 43 0 "/>
</clipPath>
<clipPath id="clip5">
  <path d="M 58 0 L 59 0 L 59 142.132812 L 58 142.132812 Z M 58 0 "/>
</clipPath>
<clipPath id="clip6">
  <path d="M 0 107 L 22 107 L 22 142.132812 L 0 142.132812 Z M 0 107 "/>
</clipPath>
<clipPath id="clip7">
  <path d="M 24 107 L 50 107 L 50 142.132812 L 24 142.132812 Z M 24 107 "/>
</clipPath>
<clipPath id="clip8">
  <path d="M 52 107 L 79 107 L 79 142.132812 L 52 142.132812 Z M 52 107 "/>
</clipPath>
<clipPath id="clip9">
  <path d="M 82 69 L 86.855469 69 L 86.855469 73 L 82 73 Z M 82 69 "/>
</clipPath>
</defs>
<g id="surface1">
<g clip-path="url(#clip1)" clip-rule="nonzero">
<path style="fill:none;stroke-width:0.3985;stroke-linecap:butt;stroke-linejoin:miter;stroke:rgb(0%,0%,0%);stroke-opacity:1;stroke-miterlimit:10;" d="M 0.0001875 -0.00159375 L 0.0001875 141.732781 " transform="matrix(1,0,0,-1,1.617,141.932)"/>
</g>
<g clip-path="url(#clip2)" clip-rule="nonzero">
<path style="fill:none;stroke-width:0.3985;stroke-linecap:butt;stroke-linejoin:miter;stroke:rgb(0%,0%,0%);stroke-opacity:1;stroke-miterlimit:10;" d="M 14.172062 -0.00159375 L 14.172062 141.732781 " transform="matrix(1,0,0,-1,1.617,141.932)"/>
</g>
<g clip-path="url(#clip3)" clip-rule="nonzero">
<path style="fill:none;stroke-width:0.3985;stroke-linecap:butt;stroke-linejoin:miter;stroke:rgb(0%,0%,0%);stroke-opacity:1;stroke-miterlimit:10;" d="M 28.347844 -0.00159375 L 28.347844 141.732781 " transform="matrix(1,0,0,-1,1.617,141.932)"/>
</g>
<g clip-path="url(#clip4)" clip-rule="nonzero">
<path style="fill:none;stroke-width:0.3985;stroke-linecap:butt;stroke-linejoin:miter;stroke:rgb(0%,0%,0%);stroke-opacity:1;stroke-miterlimit:10;" d="M 42.519719 -0.00159375 L 42.519719 141.732781 " transform="matrix(1,0,0,-1,1.617,141.932)"/>
</g>
<g clip-path="url(#clip5)" clip-rule="nonzero">
<path style="fill:none;stroke-width:0.3985;stroke-linecap:butt;stroke-linejoin:miter;stroke:rgb(0%,0%,0%);stroke-opacity:1;stroke-miterlimit:10;" d="M 56.6955 -0.00159375 L 56.6955 141.732781 " transform="matrix(1,0,0,-1,1.617,141.932)"/>
</g>
<g clip-path="url(#clip6)" clip-rule="nonzero">
<path style="fill:none;stroke-width:0.3985;stroke-linecap:butt;stroke-linejoin:miter;stroke:rgb(0%,67.83905%,93.728638%);stroke-opacity:1;stroke-miterlimit:10;" d="M 0.0001875 -0.00159375 C 7.828313 -0.00159375 14.172062 6.346062 14.172062 14.174187 C 14.172062 22.002312 7.828313 28.346062 0.0001875 28.346062 " transform="matrix(1,0,0,-1,1.617,141.932)"/>
</g>
<path style="fill-rule:nonzero;fill:rgb(100%,0%,0%);fill-opacity:1;stroke-width:0.3985;stroke-linecap:butt;stroke-linejoin:miter;stroke:rgb(100%,0%,0%);stroke-opacity:1;stroke-miterlimit:10;" d="M 1.418156 14.174187 C 1.418156 14.955437 0.781438 15.592156 0.0001875 15.592156 C -0.781062 15.592156 -1.417781 14.955437 -1.417781 14.174187 C -1.417781 13.389031 -0.781062 12.756219 0.0001875 12.756219 C 0.781438 12.756219 1.418156 13.389031 1.418156 14.174187 Z M 1.418156 14.174187 " transform="matrix(1,0,0,-1,1.617,141.932)"/>
<path style="fill:none;stroke-width:0.3985;stroke-linecap:butt;stroke-linejoin:miter;stroke:rgb(0%,67.83905%,93.728638%);stroke-opacity:1;stroke-miterlimit:10;" d="M 0.0001875 14.174187 C 7.828313 14.174187 14.172062 20.517937 14.172062 28.346062 C 14.172062 36.174187 7.828313 42.521844 0.0001875 42.521844 " transform="matrix(1,0,0,-1,1.617,141.932)"/>
<path style="fill-rule:nonzero;fill:rgb(100%,0%,0%);fill-opacity:1;stroke-width:0.3985;stroke-linecap:butt;stroke-linejoin:miter;stroke:rgb(100%,0%,0%);stroke-opacity:1;stroke-miterlimit:10;" d="M 1.418156 28.346062 C 1.418156 29.131219 0.781438 29.764031 0.0001875 29.764031 C -0.781062 29.764031 -1.417781 29.131219 -1.417781 28.346062 C -1.417781 27.564812 -0.781062 26.928094 0.0001875 26.928094 C 0.781438 26.928094 1.418156 27.564812 1.418156 28.346062 Z M 1.418156 28.346062 " transform="matrix(1,0,0,-1,1.617,141.932)"/>
<path style="fill:none;stroke-width:0.3985;stroke-linecap:butt;stroke-linejoin:miter;stroke:rgb(0%,67.83905%,93.728638%);stroke-opacity:1;stroke-miterlimit:10;" d="M 0.0001875 28.346062 C 7.828313 28.346062 14.172062 34.693719 14.172062 42.521844 C 14.172062 50.349969 7.828313 56.693719 0.0001875 56.693719 " transform="matrix(1,0,0,-1,1.617,141.932)"/>
<path style="fill-rule:nonzero;fill:rgb(100%,0%,0%);fill-opacity:1;stroke-width:0.3985;stroke-linecap:butt;stroke-linejoin:miter;stroke:rgb(100%,0%,0%);stroke-opacity:1;stroke-miterlimit:10;" d="M 1.418156 42.521844 C 1.418156 43.303094 0.781438 43.935906 0.0001875 43.935906 C -0.781062 43.935906 -1.417781 43.303094 -1.417781 42.521844 C -1.417781 41.736687 -0.781062 41.103875 0.0001875 41.103875 C 0.781438 41.103875 1.418156 41.736687 1.418156 42.521844 Z M 1.418156 42.521844 " transform="matrix(1,0,0,-1,1.617,141.932)"/>
<path style="fill:none;stroke-width:0.3985;stroke-linecap:butt;stroke-linejoin:miter;stroke:rgb(0%,67.83905%,93.728638%);stroke-opacity:1;stroke-miterlimit:10;" d="M 0.0001875 42.521844 C 7.828313 42.521844 14.172062 48.865594 14.172062 56.693719 C 14.172062 64.521844 7.828313 70.865594 0.0001875 70.865594 " transform="matrix(1,0,0,-1,1.617,141.932)"/>
<path style="fill-rule:nonzero;fill:rgb(100%,0%,0%);fill-opacity:1;stroke-width:0.3985;stroke-linecap:butt;stroke-linejoin:miter;stroke:rgb(100%,0%,0%);stroke-opacity:1;stroke-miterlimit:10;" d="M 1.418156 56.693719 C 1.418156 57.474969 0.781438 58.111687 0.0001875 58.111687 C -0.781062 58.111687 -1.417781 57.474969 -1.417781 56.693719 C -1.417781 55.912469 -0.781062 55.27575 0.0001875 55.27575 C 0.781438 55.27575 1.418156 55.912469 1.418156 56.693719 Z M 1.418156 56.693719 " transform="matrix(1,0,0,-1,1.617,141.932)"/>
<path style="fill:none;stroke-width:0.3985;stroke-linecap:butt;stroke-linejoin:miter;stroke:rgb(0%,67.83905%,93.728638%);stroke-opacity:1;stroke-miterlimit:10;" d="M 0.0001875 56.693719 C 7.828313 56.693719 14.172062 63.037469 14.172062 70.865594 C 14.172062 78.693719 7.828313 85.041375 0.0001875 85.041375 " transform="matrix(1,0,0,-1,1.617,141.932)"/>
<path style="fill-rule:nonzero;fill:rgb(100%,0%,0%);fill-opacity:1;stroke-width:0.3985;stroke-linecap:butt;stroke-linejoin:miter;stroke:rgb(100%,0%,0%);stroke-opacity:1;stroke-miterlimit:10;" d="M 1.418156 70.865594 C 1.418156 71.65075 0.781438 72.283562 0.0001875 72.283562 C -0.781062 72.283562 -1.417781 71.65075 -1.417781 70.865594 C -1.417781 70.084344 -0.781062 69.451531 0.0001875 69.451531 C 0.781438 69.451531 1.418156 70.084344 1.418156 70.865594 Z M 1.418156 70.865594 " transform="matrix(1,0,0,-1,1.617,141.932)"/>
<path style="fill:none;stroke-width:0.3985;stroke-linecap:butt;stroke-linejoin:miter;stroke:rgb(0%,67.83905%,93.728638%);stroke-opacity:1;stroke-miterlimit:10;" d="M 0.0001875 70.865594 C 7.828313 70.865594 14.172062 77.21325 14.172062 85.041375 C 14.172062 92.8695 7.828313 99.21325 0.0001875 99.21325 " transform="matrix(1,0,0,-1,1.617,141.932)"/>
<path style="fill-rule:nonzero;fill:rgb(100%,0%,0%);fill-opacity:1;stroke-width:0.3985;stroke-linecap:butt;stroke-linejoin:miter;stroke:rgb(100%,0%,0%);stroke-opacity:1;stroke-miterlimit:10;" d="M 1.418156 85.041375 C 1.418156 85.822625 0.781438 86.459344 0.0001875 86.459344 C -0.781062 86.459344 -1.417781 85.822625 -1.417781 85.041375 C -1.417781 84.256219 -0.781062 83.623406 0.0001875 83.623406 C 0.781438 83.623406 1.418156 84.256219 1.418156 85.041375 Z M 1.418156 85.041375 " transform="matrix(1,0,0,-1,1.617,141.932)"/>
<path style="fill:none;stroke-width:0.3985;stroke-linecap:butt;stroke-linejoin:miter;stroke:rgb(0%,67.83905%,93.728638%);stroke-opacity:1;stroke-miterlimit:10;" d="M 0.0001875 85.041375 C 7.828313 85.041375 14.172062 91.385125 14.172062 99.21325 C 14.172062 107.041375 7.828313 113.389031 0.0001875 113.389031 " transform="matrix(1,0,0,-1,1.617,141.932)"/>
<path style="fill-rule:nonzero;fill:rgb(100%,0%,0%);fill-opacity:1;stroke-width:0.3985;stroke-linecap:butt;stroke-linejoin:miter;stroke:rgb(100%,0%,0%);stroke-opacity:1;stroke-miterlimit:10;" d="M 1.418156 99.21325 C 1.418156 99.998406 0.781438 100.631219 0.0001875 100.631219 C -0.781062 100.631219 -1.417781 99.998406 -1.417781 99.21325 C -1.417781 98.432 -0.781062 97.795281 0.0001875 97.795281 C 0.781438 97.795281 1.418156 98.432 1.418156 99.21325 Z M 1.418156 99.21325 " transform="matrix(1,0,0,-1,1.617,141.932)"/>
<path style="fill:none;stroke-width:0.3985;stroke-linecap:butt;stroke-linejoin:miter;stroke:rgb(0%,67.83905%,93.728638%);stroke-opacity:1;stroke-miterlimit:10;" d="M 0.0001875 99.21325 C 7.828313 99.21325 14.172062 105.560906 14.172062 113.389031 C 14.172062 121.21325 7.828313 127.560906 0.0001875 127.560906 " transform="matrix(1,0,0,-1,1.617,141.932)"/>
<path style="fill-rule:nonzero;fill:rgb(100%,0%,0%);fill-opacity:1;stroke-width:0.3985;stroke-linecap:butt;stroke-linejoin:miter;stroke:rgb(100%,0%,0%);stroke-opacity:1;stroke-miterlimit:10;" d="M 1.418156 113.389031 C 1.418156 114.170281 0.781438 114.803094 0.0001875 114.803094 C -0.781062 114.803094 -1.417781 114.170281 -1.417781 113.389031 C -1.417781 112.603875 -0.781062 111.971062 0.0001875 111.971062 C 0.781438 111.971062 1.418156 112.603875 1.418156 113.389031 Z M 1.418156 113.389031 " transform="matrix(1,0,0,-1,1.617,141.932)"/>
<path style="fill:none;stroke-width:0.3985;stroke-linecap:butt;stroke-linejoin:miter;stroke:rgb(0%,67.83905%,93.728638%);stroke-opacity:1;stroke-miterlimit:10;" d="M 0.0001875 113.389031 C 7.828313 113.389031 14.172062 119.732781 14.172062 127.560906 C 14.172062 135.389031 7.828313 141.732781 0.0001875 141.732781 " transform="matrix(1,0,0,-1,1.617,141.932)"/>
<path style="fill-rule:nonzero;fill:rgb(100%,0%,0%);fill-opacity:1;stroke-width:0.3985;stroke-linecap:butt;stroke-linejoin:miter;stroke:rgb(100%,0%,0%);stroke-opacity:1;stroke-miterlimit:10;" d="M 1.418156 127.560906 C 1.418156 128.342156 0.781438 128.978875 0.0001875 128.978875 C -0.781062 128.978875 -1.417781 128.342156 -1.417781 127.560906 C -1.417781 126.779656 -0.781062 126.142937 0.0001875 126.142937 C 0.781438 126.142937 1.418156 126.779656 1.418156 127.560906 Z M 1.418156 127.560906 " transform="matrix(1,0,0,-1,1.617,141.932)"/>
<g clip-path="url(#clip7)" clip-rule="nonzero">
<path style="fill:none;stroke-width:0.3985;stroke-linecap:butt;stroke-linejoin:miter;stroke:rgb(0%,67.83905%,93.728638%);stroke-opacity:1;stroke-miterlimit:10;" d="M 28.347844 -0.00159375 C 36.175969 -0.00159375 42.519719 6.346062 42.519719 14.174187 C 42.519719 22.002312 36.175969 28.346062 28.347844 28.346062 " transform="matrix(1,0,0,-1,1.617,141.932)"/>
</g>
<path style="fill-rule:nonzero;fill:rgb(100%,0%,0%);fill-opacity:1;stroke-width:0.3985;stroke-linecap:butt;stroke-linejoin:miter;stroke:rgb(100%,0%,0%);stroke-opacity:1;stroke-miterlimit:10;" d="M 29.765812 14.174187 C 29.765812 14.955437 29.129094 15.592156 28.347844 15.592156 C 27.562687 15.592156 26.929875 14.955437 26.929875 14.174187 C 26.929875 13.389031 27.562687 12.756219 28.347844 12.756219 C 29.129094 12.756219 29.765812 13.389031 29.765812 14.174187 Z M 29.765812 14.174187 " transform="matrix(1,0,0,-1,1.617,141.932)"/>
<path style="fill:none;stroke-width:0.3985;stroke-linecap:butt;stroke-linejoin:miter;stroke:rgb(0%,67.83905%,93.728638%);stroke-opacity:1;stroke-miterlimit:10;" d="M 28.347844 14.174187 C 36.175969 14.174187 42.519719 20.517937 42.519719 28.346062 C 42.519719 36.174187 36.175969 42.521844 28.347844 42.521844 " transform="matrix(1,0,0,-1,1.617,141.932)"/>
<path style="fill-rule:nonzero;fill:rgb(100%,0%,0%);fill-opacity:1;stroke-width:0.3985;stroke-linecap:butt;stroke-linejoin:miter;stroke:rgb(100%,0%,0%);stroke-opacity:1;stroke-miterlimit:10;" d="M 29.765812 28.346062 C 29.765812 29.131219 29.129094 29.764031 28.347844 29.764031 C 27.562687 29.764031 26.929875 29.131219 26.929875 28.346062 C 26.929875 27.564812 27.562687 26.928094 28.347844 26.928094 C 29.129094 26.928094 29.765812 27.564812 29.765812 28.346062 Z M 29.765812 28.346062 " transform="matrix(1,0,0,-1,1.617,141.932)"/>
<path style="fill:none;stroke-width:0.3985;stroke-linecap:butt;stroke-linejoin:miter;stroke:rgb(0%,67.83905%,93.728638%);stroke-opacity:1;stroke-miterlimit:10;" d="M 28.347844 28.346062 C 36.175969 28.346062 42.519719 34.693719 42.519719 42.521844 C 42.519719 50.349969 36.175969 56.693719 28.347844 56.693719 " transform="matrix(1,0,0,-1,1.617,141.932)"/>
<path style="fill-rule:nonzero;fill:rgb(100%,0%,0%);fill-opacity:1;stroke-width:0.3985;stroke-linecap:butt;stroke-linejoin:miter;stroke:rgb(100%,0%,0%);stroke-opacity:1;stroke-miterlimit:10;" d="M 29.765812 42.521844 C 29.765812 43.303094 29.129094 43.935906 28.347844 43.935906 C 27.562687 43.935906 26.929875 43.303094 26.929875 42.521844 C 26.929875 41.736687 27.562687 41.103875 28.347844 41.103875 C 29.129094 41.103875 29.765812 41.736687 29.765812 42.521844 Z M 29.765812 42.521844 " transform="matrix(1,0,0,-1,1.617,141.932)"/>
<path style="fill:none;stroke-width:0.3985;stroke-linecap:butt;stroke-linejoin:miter;stroke:rgb(0%,67.83905%,93.728638%);stroke-opacity:1;stroke-miterlimit:10;" d="M 28.347844 42.521844 C 36.175969 42.521844 42.519719 48.865594 42.519719 56.693719 C 42.519719 64.521844 36.175969 70.865594 28.347844 70.865594 " transform="matrix(1,0,0,-1,1.617,141.932)"/>
<path style="fill-rule:nonzero;fill:rgb(100%,0%,0%);fill-opacity:1;stroke-width:0.3985;stroke-linecap:butt;stroke-linejoin:miter;stroke:rgb(100%,0%,0%);stroke-opacity:1;stroke-miterlimit:10;" d="M 29.765812 56.693719 C 29.765812 57.474969 29.129094 58.111687 28.347844 58.111687 C 27.562687 58.111687 26.929875 57.474969 26.929875 56.693719 C 26.929875 55.912469 27.562687 55.27575 28.347844 55.27575 C 29.129094 55.27575 29.765812 55.912469 29.765812 56.693719 Z M 29.765812 56.693719 " transform="matrix(1,0,0,-1,1.617,141.932)"/>
<path style="fill:none;stroke-width:0.3985;stroke-linecap:butt;stroke-linejoin:miter;stroke:rgb(0%,67.83905%,93.728638%);stroke-opacity:1;stroke-miterlimit:10;" d="M 28.347844 56.693719 C 36.175969 56.693719 42.519719 63.037469 42.519719 70.865594 C 42.519719 78.693719 36.175969 85.041375 28.347844 85.041375 " transform="matrix(1,0,0,-1,1.617,141.932)"/>
<path style="fill-rule:nonzero;fill:rgb(100%,0%,0%);fill-opacity:1;stroke-width:0.3985;stroke-linecap:butt;stroke-linejoin:miter;stroke:rgb(100%,0%,0%);stroke-opacity:1;stroke-miterlimit:10;" d="M 29.765812 70.865594 C 29.765812 71.65075 29.129094 72.283562 28.347844 72.283562 C 27.562687 72.283562 26.929875 71.65075 26.929875 70.865594 C 26.929875 70.084344 27.562687 69.451531 28.347844 69.451531 C 29.129094 69.451531 29.765812 70.084344 29.765812 70.865594 Z M 29.765812 70.865594 " transform="matrix(1,0,0,-1,1.617,141.932)"/>
<path style="fill:none;stroke-width:0.3985;stroke-linecap:butt;stroke-linejoin:miter;stroke:rgb(0%,67.83905%,93.728638%);stroke-opacity:1;stroke-miterlimit:10;" d="M 28.347844 70.865594 C 36.175969 70.865594 42.519719 77.21325 42.519719 85.041375 C 42.519719 92.8695 36.175969 99.21325 28.347844 99.21325 " transform="matrix(1,0,0,-1,1.617,141.932)"/>
<path style="fill-rule:nonzero;fill:rgb(100%,0%,0%);fill-opacity:1;stroke-width:0.3985;stroke-linecap:butt;stroke-linejoin:miter;stroke:rgb(100%,0%,0%);stroke-opacity:1;stroke-miterlimit:10;" d="M 29.765812 85.041375 C 29.765812 85.822625 29.129094 86.459344 28.347844 86.459344 C 27.562687 86.459344 26.929875 85.822625 26.929875 85.041375 C 26.929875 84.256219 27.562687 83.623406 28.347844 83.623406 C 29.129094 83.623406 29.765812 84.256219 29.765812 85.041375 Z M 29.765812 85.041375 " transform="matrix(1,0,0,-1,1.617,141.932)"/>
<path style="fill:none;stroke-width:0.3985;stroke-linecap:butt;stroke-linejoin:miter;stroke:rgb(0%,67.83905%,93.728638%);stroke-opacity:1;stroke-miterlimit:10;" d="M 28.347844 85.041375 C 36.175969 85.041375 42.519719 91.385125 42.519719 99.21325 C 42.519719 107.041375 36.175969 113.389031 28.347844 113.389031 " transform="matrix(1,0,0,-1,1.617,141.932)"/>
<path style="fill-rule:nonzero;fill:rgb(100%,0%,0%);fill-opacity:1;stroke-width:0.3985;stroke-linecap:butt;stroke-linejoin:miter;stroke:rgb(100%,0%,0%);stroke-opacity:1;stroke-miterlimit:10;" d="M 29.765812 99.21325 C 29.765812 99.998406 29.129094 100.631219 28.347844 100.631219 C 27.562687 100.631219 26.929875 99.998406 26.929875 99.21325 C 26.929875 98.432 27.562687 97.795281 28.347844 97.795281 C 29.129094 97.795281 29.765812 98.432 29.765812 99.21325 Z M 29.765812 99.21325 " transform="matrix(1,0,0,-1,1.617,141.932)"/>
<path style="fill:none;stroke-width:0.3985;stroke-linecap:butt;stroke-linejoin:miter;stroke:rgb(0%,67.83905%,93.728638%);stroke-opacity:1;stroke-miterlimit:10;" d="M 28.347844 99.21325 C 36.175969 99.21325 42.519719 105.560906 42.519719 113.389031 C 42.519719 121.21325 36.175969 127.560906 28.347844 127.560906 " transform="matrix(1,0,0,-1,1.617,141.932)"/>
<path style="fill-rule:nonzero;fill:rgb(100%,0%,0%);fill-opacity:1;stroke-width:0.3985;stroke-linecap:butt;stroke-linejoin:miter;stroke:rgb(100%,0%,0%);stroke-opacity:1;stroke-miterlimit:10;" d="M 29.765812 113.389031 C 29.765812 114.170281 29.129094 114.803094 28.347844 114.803094 C 27.562687 114.803094 26.929875 114.170281 26.929875 113.389031 C 26.929875 112.603875 27.562687 111.971062 28.347844 111.971062 C 29.129094 111.971062 29.765812 112.603875 29.765812 113.389031 Z M 29.765812 113.389031 " transform="matrix(1,0,0,-1,1.617,141.932)"/>
<path style="fill:none;stroke-width:0.3985;stroke-linecap:butt;stroke-linejoin:miter;stroke:rgb(0%,67.83905%,93.728638%);stroke-opacity:1;stroke-miterlimit:10;" d="M 28.347844 113.389031 C 36.175969 113.389031 42.519719 119.732781 42.519719 127.560906 C 42.519719 135.389031 36.175969 141.732781 28.347844 141.732781 " transform="matrix(1,0,0,-1,1.617,141.932)"/>
<path style="fill-rule:nonzero;fill:rgb(100%,0%,0%);fill-opacity:1;stroke-width:0.3985;stroke-linecap:butt;stroke-linejoin:miter;stroke:rgb(100%,0%,0%);stroke-opacity:1;stroke-miterlimit:10;" d="M 29.765812 127.560906 C 29.765812 128.342156 29.129094 128.978875 28.347844 128.978875 C 27.562687 128.978875 26.929875 128.342156 26.929875 127.560906 C 26.929875 126.779656 27.562687 126.142937 28.347844 126.142937 C 29.129094 126.142937 29.765812 126.779656 29.765812 127.560906 Z M 29.765812 127.560906 " transform="matrix(1,0,0,-1,1.617,141.932)"/>
<g clip-path="url(#clip8)" clip-rule="nonzero">
<path style="fill:none;stroke-width:0.3985;stroke-linecap:butt;stroke-linejoin:miter;stroke:rgb(0%,67.83905%,93.728638%);stroke-opacity:1;stroke-miterlimit:10;" d="M 56.6955 -0.00159375 C 64.519719 -0.00159375 70.867375 6.346062 70.867375 14.174187 C 70.867375 22.002312 64.519719 28.346062 56.6955 28.346062 " transform="matrix(1,0,0,-1,1.617,141.932)"/>
</g>
<path style="fill-rule:nonzero;fill:rgb(100%,0%,0%);fill-opacity:1;stroke-width:0.3985;stroke-linecap:butt;stroke-linejoin:miter;stroke:rgb(100%,0%,0%);stroke-opacity:1;stroke-miterlimit:10;" d="M 58.109563 14.174187 C 58.109563 14.955437 57.47675 15.592156 56.6955 15.592156 C 55.910344 15.592156 55.277531 14.955437 55.277531 14.174187 C 55.277531 13.389031 55.910344 12.756219 56.6955 12.756219 C 57.47675 12.756219 58.109563 13.389031 58.109563 14.174187 Z M 58.109563 14.174187 " transform="matrix(1,0,0,-1,1.617,141.932)"/>
<path style="fill:none;stroke-width:0.3985;stroke-linecap:butt;stroke-linejoin:miter;stroke:rgb(0%,67.83905%,93.728638%);stroke-opacity:1;stroke-miterlimit:10;" d="M 56.6955 14.174187 C 64.519719 14.174187 70.867375 20.517937 70.867375 28.346062 C 70.867375 36.174187 64.519719 42.521844 56.6955 42.521844 " transform="matrix(1,0,0,-1,1.617,141.932)"/>
<path style="fill-rule:nonzero;fill:rgb(100%,0%,0%);fill-opacity:1;stroke-width:0.3985;stroke-linecap:butt;stroke-linejoin:miter;stroke:rgb(100%,0%,0%);stroke-opacity:1;stroke-miterlimit:10;" d="M 58.109563 28.346062 C 58.109563 29.131219 57.47675 29.764031 56.6955 29.764031 C 55.910344 29.764031 55.277531 29.131219 55.277531 28.346062 C 55.277531 27.564812 55.910344 26.928094 56.6955 26.928094 C 57.47675 26.928094 58.109563 27.564812 58.109563 28.346062 Z M 58.109563 28.346062 " transform="matrix(1,0,0,-1,1.617,141.932)"/>
<path style="fill:none;stroke-width:0.3985;stroke-linecap:butt;stroke-linejoin:miter;stroke:rgb(0%,67.83905%,93.728638%);stroke-opacity:1;stroke-miterlimit:10;" d="M 56.6955 28.346062 C 64.519719 28.346062 70.867375 34.693719 70.867375 42.521844 C 70.867375 50.349969 64.519719 56.693719 56.6955 56.693719 " transform="matrix(1,0,0,-1,1.617,141.932)"/>
<path style="fill-rule:nonzero;fill:rgb(100%,0%,0%);fill-opacity:1;stroke-width:0.3985;stroke-linecap:butt;stroke-linejoin:miter;stroke:rgb(100%,0%,0%);stroke-opacity:1;stroke-miterlimit:10;" d="M 58.109563 42.521844 C 58.109563 43.303094 57.47675 43.935906 56.6955 43.935906 C 55.910344 43.935906 55.277531 43.303094 55.277531 42.521844 C 55.277531 41.736687 55.910344 41.103875 56.6955 41.103875 C 57.47675 41.103875 58.109563 41.736687 58.109563 42.521844 Z M 58.109563 42.521844 " transform="matrix(1,0,0,-1,1.617,141.932)"/>
<path style="fill:none;stroke-width:0.3985;stroke-linecap:butt;stroke-linejoin:miter;stroke:rgb(0%,67.83905%,93.728638%);stroke-opacity:1;stroke-miterlimit:10;" d="M 56.6955 42.521844 C 64.519719 42.521844 70.867375 48.865594 70.867375 56.693719 C 70.867375 64.521844 64.519719 70.865594 56.6955 70.865594 " transform="matrix(1,0,0,-1,1.617,141.932)"/>
<path style="fill-rule:nonzero;fill:rgb(100%,0%,0%);fill-opacity:1;stroke-width:0.3985;stroke-linecap:butt;stroke-linejoin:miter;stroke:rgb(100%,0%,0%);stroke-opacity:1;stroke-miterlimit:10;" d="M 58.109563 56.693719 C 58.109563 57.474969 57.47675 58.111687 56.6955 58.111687 C 55.910344 58.111687 55.277531 57.474969 55.277531 56.693719 C 55.277531 55.912469 55.910344 55.27575 56.6955 55.27575 C 57.47675 55.27575 58.109563 55.912469 58.109563 56.693719 Z M 58.109563 56.693719 " transform="matrix(1,0,0,-1,1.617,141.932)"/>
<path style="fill:none;stroke-width:0.3985;stroke-linecap:butt;stroke-linejoin:miter;stroke:rgb(0%,67.83905%,93.728638%);stroke-opacity:1;stroke-miterlimit:10;" d="M 56.6955 56.693719 C 64.519719 56.693719 70.867375 63.037469 70.867375 70.865594 C 70.867375 78.693719 64.519719 85.041375 56.6955 85.041375 " transform="matrix(1,0,0,-1,1.617,141.932)"/>
<path style="fill-rule:nonzero;fill:rgb(100%,0%,0%);fill-opacity:1;stroke-width:0.3985;stroke-linecap:butt;stroke-linejoin:miter;stroke:rgb(100%,0%,0%);stroke-opacity:1;stroke-miterlimit:10;" d="M 58.109563 70.865594 C 58.109563 71.65075 57.47675 72.283562 56.6955 72.283562 C 55.910344 72.283562 55.277531 71.65075 55.277531 70.865594 C 55.277531 70.084344 55.910344 69.451531 56.6955 69.451531 C 57.47675 69.451531 58.109563 70.084344 58.109563 70.865594 Z M 58.109563 70.865594 " transform="matrix(1,0,0,-1,1.617,141.932)"/>
<path style="fill:none;stroke-width:0.3985;stroke-linecap:butt;stroke-linejoin:miter;stroke:rgb(0%,67.83905%,93.728638%);stroke-opacity:1;stroke-miterlimit:10;" d="M 56.6955 70.865594 C 64.519719 70.865594 70.867375 77.21325 70.867375 85.041375 C 70.867375 92.8695 64.519719 99.21325 56.6955 99.21325 " transform="matrix(1,0,0,-1,1.617,141.932)"/>
<path style="fill-rule:nonzero;fill:rgb(100%,0%,0%);fill-opacity:1;stroke-width:0.3985;stroke-linecap:butt;stroke-linejoin:miter;stroke:rgb(100%,0%,0%);stroke-opacity:1;stroke-miterlimit:10;" d="M 58.109563 85.041375 C 58.109563 85.822625 57.47675 86.459344 56.6955 86.459344 C 55.910344 86.459344 55.277531 85.822625 55.277531 85.041375 C 55.277531 84.256219 55.910344 83.623406 56.6955 83.623406 C 57.47675 83.623406 58.109563 84.256219 58.109563 85.041375 Z M 58.109563 85.041375 " transform="matrix(1,0,0,-1,1.617,141.932)"/>
<path style="fill:none;stroke-width:0.3985;stroke-linecap:butt;stroke-linejoin:miter;stroke:rgb(0%,67.83905%,93.728638%);stroke-opacity:1;stroke-miterlimit:10;" d="M 56.6955 85.041375 C 64.519719 85.041375 70.867375 91.385125 70.867375 99.21325 C 70.867375 107.041375 64.519719 113.389031 56.6955 113.389031 " transform="matrix(1,0,0,-1,1.617,141.932)"/>
<path style="fill-rule:nonzero;fill:rgb(100%,0%,0%);fill-opacity:1;stroke-width:0.3985;stroke-linecap:butt;stroke-linejoin:miter;stroke:rgb(100%,0%,0%);stroke-opacity:1;stroke-miterlimit:10;" d="M 58.109563 99.21325 C 58.109563 99.998406 57.47675 100.631219 56.6955 100.631219 C 55.910344 100.631219 55.277531 99.998406 55.277531 99.21325 C 55.277531 98.432 55.910344 97.795281 56.6955 97.795281 C 57.47675 97.795281 58.109563 98.432 58.109563 99.21325 Z M 58.109563 99.21325 " transform="matrix(1,0,0,-1,1.617,141.932)"/>
<path style="fill:none;stroke-width:0.3985;stroke-linecap:butt;stroke-linejoin:miter;stroke:rgb(0%,67.83905%,93.728638%);stroke-opacity:1;stroke-miterlimit:10;" d="M 56.6955 99.21325 C 64.519719 99.21325 70.867375 105.560906 70.867375 113.389031 C 70.867375 121.21325 64.519719 127.560906 56.6955 127.560906 " transform="matrix(1,0,0,-1,1.617,141.932)"/>
<path style="fill-rule:nonzero;fill:rgb(100%,0%,0%);fill-opacity:1;stroke-width:0.3985;stroke-linecap:butt;stroke-linejoin:miter;stroke:rgb(100%,0%,0%);stroke-opacity:1;stroke-miterlimit:10;" d="M 58.109563 113.389031 C 58.109563 114.170281 57.47675 114.803094 56.6955 114.803094 C 55.910344 114.803094 55.277531 114.170281 55.277531 113.389031 C 55.277531 112.603875 55.910344 111.971062 56.6955 111.971062 C 57.47675 111.971062 58.109563 112.603875 58.109563 113.389031 Z M 58.109563 113.389031 " transform="matrix(1,0,0,-1,1.617,141.932)"/>
<path style="fill:none;stroke-width:0.3985;stroke-linecap:butt;stroke-linejoin:miter;stroke:rgb(0%,67.83905%,93.728638%);stroke-opacity:1;stroke-miterlimit:10;" d="M 56.6955 113.389031 C 64.519719 113.389031 70.867375 119.732781 70.867375 127.560906 C 70.867375 135.389031 64.519719 141.732781 56.6955 141.732781 " transform="matrix(1,0,0,-1,1.617,141.932)"/>
<path style="fill-rule:nonzero;fill:rgb(100%,0%,0%);fill-opacity:1;stroke-width:0.3985;stroke-linecap:butt;stroke-linejoin:miter;stroke:rgb(100%,0%,0%);stroke-opacity:1;stroke-miterlimit:10;" d="M 58.109563 127.560906 C 58.109563 128.342156 57.47675 128.978875 56.6955 128.978875 C 55.910344 128.978875 55.277531 128.342156 55.277531 127.560906 C 55.277531 126.779656 55.910344 126.142937 56.6955 126.142937 C 57.47675 126.142937 58.109563 126.779656 58.109563 127.560906 Z M 58.109563 127.560906 " transform="matrix(1,0,0,-1,1.617,141.932)"/>
<path style="fill:none;stroke-width:0.3985;stroke-linecap:butt;stroke-linejoin:miter;stroke:rgb(0%,0%,0%);stroke-opacity:1;stroke-miterlimit:10;" d="M 56.6955 70.865594 L 81.453312 70.865594 " transform="matrix(1,0,0,-1,1.617,141.932)"/>
<g clip-path="url(#clip9)" clip-rule="nonzero">
<path style=" stroke:none;fill-rule:nonzero;fill:rgb(0%,0%,0%);fill-opacity:1;" d="M 86.65625 71.066406 C 85.59375 70.867188 83.867188 70.269531 82.671875 69.570312 L 82.671875 72.558594 C 83.867188 71.863281 85.59375 71.265625 86.65625 71.066406 "/>
</g>
</g>
</svg>
