<?xml version="1.0" encoding="UTF-8"?>
<svg xmlns="http://www.w3.org/2000/svg" xmlns:xlink="http://www.w3.org/1999/xlink" width="95.833pt" height="151.108pt" viewBox="0 0 95.833 151.108" version="1.1">
<defs>
<clipPath id="clip1">
  <path d="M 0 0 L 95.832031 0 L 95.832031 151 L 0 151 Z M 0 0 "/>
</clipPath>
<clipPath id="clip2">
  <path d="M 0 0 L 95.832031 0 L 95.832031 151.109375 L 0 151.109375 Z M 0 0 "/>
</clipPath>
<clipPath id="clip3">
  <path d="M 0 0 L 95.832031 0 L 95.832031 151 L 0 151 Z M 0 0 "/>
</clipPath>
<clipPath id="clip4">
  <path d="M 0 0 L 95.832031 0 L 95.832031 151.109375 L 0 151.109375 Z M 0 0 "/>
</clipPath>
<clipPath id="clip5">
  <path d="M 0 112 L 26 112 L 26 151.109375 L 0 151.109375 Z M 0 112 "/>
</clipPath>
<clipPath id="clip6">
  <path d="M 28 112 L 55 112 L 55 151.109375 L 28 151.109375 Z M 28 112 "/>
</clipPath>
<clipPath id="clip7">
  <path d="M 57 112 L 83 112 L 83 151.109375 L 57 151.109375 Z M 57 112 "/>
</clipPath>
</defs>
<g id="surface1">
<g clip-path="url(#clip1)" clip-rule="nonzero">
<path style=" stroke:none;fill-rule:nonzero;fill:rgb(0%,0%,0%);fill-opacity:1;" d="M 0.199219 150.910156 L 0.199219 0.195312 L 95.632812 0.195312 L 95.632812 150.910156 Z M 0.199219 150.910156 "/>
</g>
<g clip-path="url(#clip2)" clip-rule="nonzero">
<path style="fill:none;stroke-width:0.3985;stroke-linecap:butt;stroke-linejoin:miter;stroke:rgb(100%,100%,100%);stroke-opacity:1;stroke-miterlimit:10;" d="M -5.905781 -4.490156 L -5.905781 146.224688 L 89.527812 146.224688 L 89.527812 -4.490156 Z M -5.905781 -4.490156 " transform="matrix(1,0,0,-1,6.105,146.42)"/>
</g>
<g clip-path="url(#clip3)" clip-rule="nonzero">
<path style=" stroke:none;fill-rule:nonzero;fill:rgb(0%,0%,0%);fill-opacity:1;" d="M 0.199219 150.910156 L 0.199219 0.195312 L 95.632812 0.195312 L 95.632812 150.910156 Z M 0.199219 150.910156 "/>
</g>
<g clip-path="url(#clip4)" clip-rule="nonzero">
<path style="fill:none;stroke-width:0.3985;stroke-linecap:butt;stroke-linejoin:miter;stroke:rgb(100%,100%,100%);stroke-opacity:1;stroke-miterlimit:10;" d="M -5.905781 -4.490156 L -5.905781 146.224688 L 89.527812 146.224688 L 89.527812 -4.490156 Z M -5.905781 -4.490156 " transform="matrix(1,0,0,-1,6.105,146.42)"/>
</g>
<path style="fill:none;stroke-width:0.3985;stroke-linecap:butt;stroke-linejoin:miter;stroke:rgb(100%,100%,100%);stroke-opacity:1;stroke-miterlimit:10;" d="M 0.00046875 -0.001875 L 0.00046875 141.7325 " transform="matrix(1,0,0,-1,6.105,146.42)"/>
<path style="fill:none;stroke-width:0.3985;stroke-linecap:butt;stroke-linejoin:miter;stroke:rgb(100%,100%,100%);stroke-opacity:1;stroke-miterlimit:10;" d="M 14.172344 -0.001875 L 14.172344 141.7325 " transform="matrix(1,0,0,-1,6.105,146.42)"/>
<path style="fill:none;stroke-width:0.3985;stroke-linecap:butt;stroke-linejoin:miter;stroke:rgb(100%,100%,100%);stroke-opacity:1;stroke-miterlimit:10;" d="M 28.348125 -0.001875 L 28.348125 141.7325 " transform="matrix(1,0,0,-1,6.105,146.42)"/>
<path style="fill:none;stroke-width:0.3985;stroke-linecap:butt;stroke-linejoin:miter;stroke:rgb(100%,100%,100%);stroke-opacity:1;stroke-miterlimit:10;" d="M 42.52 -0.001875 L 42.52 141.7325 " transform="matrix(1,0,0,-1,6.105,146.42)"/>
<path style="fill:none;stroke-width:0.3985;stroke-linecap:butt;stroke-linejoin:miter;stroke:rgb(100%,100%,100%);stroke-opacity:1;stroke-miterlimit:10;" d="M 56.691875 -0.001875 L 56.691875 141.7325 " transform="matrix(1,0,0,-1,6.105,146.42)"/>
<g clip-path="url(#clip5)" clip-rule="nonzero">
<path style="fill:none;stroke-width:0.3985;stroke-linecap:butt;stroke-linejoin:miter;stroke:rgb(0%,67.83905%,93.728638%);stroke-opacity:1;stroke-miterlimit:10;" d="M 0.00046875 -0.001875 C 7.828594 -0.001875 14.172344 6.345781 14.172344 14.173906 C 14.172344 22.002031 7.828594 28.345781 0.00046875 28.345781 " transform="matrix(1,0,0,-1,6.105,146.42)"/>
</g>
<path style="fill-rule:nonzero;fill:rgb(100%,0%,0%);fill-opacity:1;stroke-width:0.3985;stroke-linecap:butt;stroke-linejoin:miter;stroke:rgb(100%,0%,0%);stroke-opacity:1;stroke-miterlimit:10;" d="M 1.418438 14.173906 C 1.418438 14.955156 0.781719 15.591875 0.00046875 15.591875 C -0.784687 15.591875 -1.4175 14.955156 -1.4175 14.173906 C -1.4175 13.38875 -0.784687 12.755938 0.00046875 12.755938 C 0.781719 12.755938 1.418438 13.38875 1.418438 14.173906 Z M 1.418438 14.173906 " transform="matrix(1,0,0,-1,6.105,146.42)"/>
<path style="fill:none;stroke-width:0.3985;stroke-linecap:butt;stroke-linejoin:miter;stroke:rgb(0%,67.83905%,93.728638%);stroke-opacity:1;stroke-miterlimit:10;" d="M 0.00046875 14.173906 C 7.828594 14.173906 14.172344 20.517656 14.172344 28.345781 C 14.172344 36.173906 7.828594 42.521563 0.00046875 42.521563 " transform="matrix(1,0,0,-1,6.105,146.42)"/>
<path style="fill-rule:nonzero;fill:rgb(100%,0%,0%);fill-opacity:1;stroke-width:0.3985;stroke-linecap:butt;stroke-linejoin:miter;stroke:rgb(100%,0%,0%);stroke-opacity:1;stroke-miterlimit:10;" d="M 1.418438 28.345781 C 1.418438 29.130938 0.781719 29.76375 0.00046875 29.76375 C -0.784687 29.76375 -1.4175 29.130938 -1.4175 28.345781 C -1.4175 27.564531 -0.784687 26.927813 0.00046875 26.927813 C 0.781719 26.927813 1.418438 27.564531 1.418438 28.345781 Z M 1.418438 28.345781 " transform="matrix(1,0,0,-1,6.105,146.42)"/>
<path style="fill:none;stroke-width:0.3985;stroke-linecap:butt;stroke-linejoin:miter;stroke:rgb(0%,67.83905%,93.728638%);stroke-opacity:1;stroke-miterlimit:10;" d="M 0.00046875 28.345781 C 7.828594 28.345781 14.172344 34.693438 14.172344 42.521563 C 14.172344 50.349688 7.828594 56.693438 0.00046875 56.693438 " transform="matrix(1,0,0,-1,6.105,146.42)"/>
<path style="fill-rule:nonzero;fill:rgb(100%,0%,0%);fill-opacity:1;stroke-width:0.3985;stroke-linecap:butt;stroke-linejoin:miter;stroke:rgb(100%,0%,0%);stroke-opacity:1;stroke-miterlimit:10;" d="M 1.418438 42.521563 C 1.418438 43.302813 0.781719 43.939531 0.00046875 43.939531 C -0.784687 43.939531 -1.4175 43.302813 -1.4175 42.521563 C -1.4175 41.736406 -0.784687 41.103594 0.00046875 41.103594 C 0.781719 41.103594 1.418438 41.736406 1.418438 42.521563 Z M 1.418438 42.521563 " transform="matrix(1,0,0,-1,6.105,146.42)"/>
<path style="fill:none;stroke-width:0.3985;stroke-linecap:butt;stroke-linejoin:miter;stroke:rgb(0%,67.83905%,93.728638%);stroke-opacity:1;stroke-miterlimit:10;" d="M 0.00046875 42.521563 C 7.828594 42.521563 14.172344 48.865313 14.172344 56.693438 C 14.172344 64.521563 7.828594 70.865313 0.00046875 70.865313 " transform="matrix(1,0,0,-1,6.105,146.42)"/>
<path style="fill-rule:nonzero;fill:rgb(100%,0%,0%);fill-opacity:1;stroke-width:0.3985;stroke-linecap:butt;stroke-linejoin:miter;stroke:rgb(100%,0%,0%);stroke-opacity:1;stroke-miterlimit:10;" d="M 1.418438 56.693438 C 1.418438 57.474688 0.781719 58.111406 0.00046875 58.111406 C -0.784687 58.111406 -1.4175 57.474688 -1.4175 56.693438 C -1.4175 55.912188 -0.784687 55.275469 0.00046875 55.275469 C 0.781719 55.275469 1.418438 55.912188 1.418438 56.693438 Z M 1.418438 56.693438 " transform="matrix(1,0,0,-1,6.105,146.42)"/>
<path style="fill:none;stroke-width:0.3985;stroke-linecap:butt;stroke-linejoin:miter;stroke:rgb(0%,67.83905%,93.728638%);stroke-opacity:1;stroke-miterlimit:10;" d="M 0.00046875 56.693438 C 7.828594 56.693438 14.172344 63.041094 14.172344 70.865313 C 14.172344 78.693438 7.828594 85.041094 0.00046875 85.041094 " transform="matrix(1,0,0,-1,6.105,146.42)"/>
<path style="fill-rule:nonzero;fill:rgb(100%,0%,0%);fill-opacity:1;stroke-width:0.3985;stroke-linecap:butt;stroke-linejoin:miter;stroke:rgb(100%,0%,0%);stroke-opacity:1;stroke-miterlimit:10;" d="M 1.418438 70.865313 C 1.418438 71.650469 0.781719 72.283281 0.00046875 72.283281 C -0.784687 72.283281 -1.4175 71.650469 -1.4175 70.865313 C -1.4175 70.084063 -0.784687 69.45125 0.00046875 69.45125 C 0.781719 69.45125 1.418438 70.084063 1.418438 70.865313 Z M 1.418438 70.865313 " transform="matrix(1,0,0,-1,6.105,146.42)"/>
<path style="fill:none;stroke-width:0.3985;stroke-linecap:butt;stroke-linejoin:miter;stroke:rgb(0%,67.83905%,93.728638%);stroke-opacity:1;stroke-miterlimit:10;" d="M 0.00046875 70.865313 C 7.828594 70.865313 14.172344 77.212969 14.172344 85.041094 C 14.172344 92.869219 7.828594 99.212969 0.00046875 99.212969 " transform="matrix(1,0,0,-1,6.105,146.42)"/>
<path style="fill-rule:nonzero;fill:rgb(100%,0%,0%);fill-opacity:1;stroke-width:0.3985;stroke-linecap:butt;stroke-linejoin:miter;stroke:rgb(100%,0%,0%);stroke-opacity:1;stroke-miterlimit:10;" d="M 1.418438 85.041094 C 1.418438 85.822344 0.781719 86.459063 0.00046875 86.459063 C -0.784687 86.459063 -1.4175 85.822344 -1.4175 85.041094 C -1.4175 84.255938 -0.784687 83.623125 0.00046875 83.623125 C 0.781719 83.623125 1.418438 84.255938 1.418438 85.041094 Z M 1.418438 85.041094 " transform="matrix(1,0,0,-1,6.105,146.42)"/>
<path style="fill:none;stroke-width:0.3985;stroke-linecap:butt;stroke-linejoin:miter;stroke:rgb(0%,67.83905%,93.728638%);stroke-opacity:1;stroke-miterlimit:10;" d="M 0.00046875 85.041094 C 7.828594 85.041094 14.172344 91.384844 14.172344 99.212969 C 14.172344 107.041094 7.828594 113.38875 0.00046875 113.38875 " transform="matrix(1,0,0,-1,6.105,146.42)"/>
<path style="fill-rule:nonzero;fill:rgb(100%,0%,0%);fill-opacity:1;stroke-width:0.3985;stroke-linecap:butt;stroke-linejoin:miter;stroke:rgb(100%,0%,0%);stroke-opacity:1;stroke-miterlimit:10;" d="M 1.418438 99.212969 C 1.418438 99.998125 0.781719 100.630938 0.00046875 100.630938 C -0.784687 100.630938 -1.4175 99.998125 -1.4175 99.212969 C -1.4175 98.431719 -0.784687 97.795 0.00046875 97.795 C 0.781719 97.795 1.418438 98.431719 1.418438 99.212969 Z M 1.418438 99.212969 " transform="matrix(1,0,0,-1,6.105,146.42)"/>
<path style="fill:none;stroke-width:0.3985;stroke-linecap:butt;stroke-linejoin:miter;stroke:rgb(0%,67.83905%,93.728638%);stroke-opacity:1;stroke-miterlimit:10;" d="M 0.00046875 99.212969 C 7.828594 99.212969 14.172344 105.560625 14.172344 113.38875 C 14.172344 121.216875 7.828594 127.560625 0.00046875 127.560625 " transform="matrix(1,0,0,-1,6.105,146.42)"/>
<path style="fill-rule:nonzero;fill:rgb(100%,0%,0%);fill-opacity:1;stroke-width:0.3985;stroke-linecap:butt;stroke-linejoin:miter;stroke:rgb(100%,0%,0%);stroke-opacity:1;stroke-miterlimit:10;" d="M 1.418438 113.38875 C 1.418438 114.17 0.781719 114.802813 0.00046875 114.802813 C -0.784687 114.802813 -1.4175 114.17 -1.4175 113.38875 C -1.4175 112.603594 -0.784687 111.970781 0.00046875 111.970781 C 0.781719 111.970781 1.418438 112.603594 1.418438 113.38875 Z M 1.418438 113.38875 " transform="matrix(1,0,0,-1,6.105,146.42)"/>
<path style="fill:none;stroke-width:0.3985;stroke-linecap:butt;stroke-linejoin:miter;stroke:rgb(0%,67.83905%,93.728638%);stroke-opacity:1;stroke-miterlimit:10;" d="M 0.00046875 113.38875 C 7.828594 113.38875 14.172344 119.7325 14.172344 127.560625 C 14.172344 135.38875 7.828594 141.7325 0.00046875 141.7325 " transform="matrix(1,0,0,-1,6.105,146.42)"/>
<path style="fill-rule:nonzero;fill:rgb(100%,0%,0%);fill-opacity:1;stroke-width:0.3985;stroke-linecap:butt;stroke-linejoin:miter;stroke:rgb(100%,0%,0%);stroke-opacity:1;stroke-miterlimit:10;" d="M 1.418438 127.560625 C 1.418438 128.341875 0.781719 128.978594 0.00046875 128.978594 C -0.784687 128.978594 -1.4175 128.341875 -1.4175 127.560625 C -1.4175 126.779375 -0.784687 126.142656 0.00046875 126.142656 C 0.781719 126.142656 1.418438 126.779375 1.418438 127.560625 Z M 1.418438 127.560625 " transform="matrix(1,0,0,-1,6.105,146.42)"/>
<g clip-path="url(#clip6)" clip-rule="nonzero">
<path style="fill:none;stroke-width:0.3985;stroke-linecap:butt;stroke-linejoin:miter;stroke:rgb(0%,67.83905%,93.728638%);stroke-opacity:1;stroke-miterlimit:10;" d="M 28.348125 -0.001875 C 36.17625 -0.001875 42.52 6.345781 42.52 14.173906 C 42.52 22.002031 36.17625 28.345781 28.348125 28.345781 " transform="matrix(1,0,0,-1,6.105,146.42)"/>
</g>
<path style="fill-rule:nonzero;fill:rgb(100%,0%,0%);fill-opacity:1;stroke-width:0.3985;stroke-linecap:butt;stroke-linejoin:miter;stroke:rgb(100%,0%,0%);stroke-opacity:1;stroke-miterlimit:10;" d="M 29.766094 14.173906 C 29.766094 14.955156 29.129375 15.591875 28.348125 15.591875 C 27.562969 15.591875 26.930156 14.955156 26.930156 14.173906 C 26.930156 13.38875 27.562969 12.755938 28.348125 12.755938 C 29.129375 12.755938 29.766094 13.38875 29.766094 14.173906 Z M 29.766094 14.173906 " transform="matrix(1,0,0,-1,6.105,146.42)"/>
<path style="fill:none;stroke-width:0.3985;stroke-linecap:butt;stroke-linejoin:miter;stroke:rgb(0%,67.83905%,93.728638%);stroke-opacity:1;stroke-miterlimit:10;" d="M 28.348125 14.173906 C 36.17625 14.173906 42.52 20.517656 42.52 28.345781 C 42.52 36.173906 36.17625 42.521563 28.348125 42.521563 " transform="matrix(1,0,0,-1,6.105,146.42)"/>
<path style="fill-rule:nonzero;fill:rgb(100%,0%,0%);fill-opacity:1;stroke-width:0.3985;stroke-linecap:butt;stroke-linejoin:miter;stroke:rgb(100%,0%,0%);stroke-opacity:1;stroke-miterlimit:10;" d="M 29.766094 28.345781 C 29.766094 29.130938 29.129375 29.76375 28.348125 29.76375 C 27.562969 29.76375 26.930156 29.130938 26.930156 28.345781 C 26.930156 27.564531 27.562969 26.927813 28.348125 26.927813 C 29.129375 26.927813 29.766094 27.564531 29.766094 28.345781 Z M 29.766094 28.345781 " transform="matrix(1,0,0,-1,6.105,146.42)"/>
<path style="fill:none;stroke-width:0.3985;stroke-linecap:butt;stroke-linejoin:miter;stroke:rgb(0%,67.83905%,93.728638%);stroke-opacity:1;stroke-miterlimit:10;" d="M 28.348125 28.345781 C 36.17625 28.345781 42.52 34.693438 42.52 42.521563 C 42.52 50.349688 36.17625 56.693438 28.348125 56.693438 " transform="matrix(1,0,0,-1,6.105,146.42)"/>
<path style="fill-rule:nonzero;fill:rgb(100%,0%,0%);fill-opacity:1;stroke-width:0.3985;stroke-linecap:butt;stroke-linejoin:miter;stroke:rgb(100%,0%,0%);stroke-opacity:1;stroke-miterlimit:10;" d="M 29.766094 42.521563 C 29.766094 43.302813 29.129375 43.939531 28.348125 43.939531 C 27.562969 43.939531 26.930156 43.302813 26.930156 42.521563 C 26.930156 41.736406 27.562969 41.103594 28.348125 41.103594 C 29.129375 41.103594 29.766094 41.736406 29.766094 42.521563 Z M 29.766094 42.521563 " transform="matrix(1,0,0,-1,6.105,146.42)"/>
<path style="fill:none;stroke-width:0.3985;stroke-linecap:butt;stroke-linejoin:miter;stroke:rgb(0%,67.83905%,93.728638%);stroke-opacity:1;stroke-miterlimit:10;" d="M 28.348125 42.521563 C 36.17625 42.521563 42.52 48.865313 42.52 56.693438 C 42.52 64.521563 36.17625 70.865313 28.348125 70.865313 " transform="matrix(1,0,0,-1,6.105,146.42)"/>
<path style="fill-rule:nonzero;fill:rgb(100%,0%,0%);fill-opacity:1;stroke-width:0.3985;stroke-linecap:butt;stroke-linejoin:miter;stroke:rgb(100%,0%,0%);stroke-opacity:1;stroke-miterlimit:10;" d="M 29.766094 56.693438 C 29.766094 57.474688 29.129375 58.111406 28.348125 58.111406 C 27.562969 58.111406 26.930156 57.474688 26.930156 56.693438 C 26.930156 55.912188 27.562969 55.275469 28.348125 55.275469 C 29.129375 55.275469 29.766094 55.912188 29.766094 56.693438 Z M 29.766094 56.693438 " transform="matrix(1,0,0,-1,6.105,146.42)"/>
<path style="fill:none;stroke-width:0.3985;stroke-linecap:butt;stroke-linejoin:miter;stroke:rgb(0%,67.83905%,93.728638%);stroke-opacity:1;stroke-miterlimit:10;" d="M 28.348125 56.693438 C 36.17625 56.693438 42.52 63.041094 42.52 70.865313 C 42.52 78.693438 36.17625 85.041094 28.348125 85.041094 " transform="matrix(1,0,0,-1,6.105,146.42)"/>
<path style="fill-rule:nonzero;fill:rgb(100%,0%,0%);fill-opacity:1;stroke-width:0.3985;stroke-linecap:butt;stroke-linejoin:miter;stroke:rgb(100%,0%,0%);stroke-opacity:1;stroke-miterlimit:10;" d="M 29.766094 70.865313 C 29.766094 71.650469 29.129375 72.283281 28.348125 72.283281 C 27.562969 72.283281 26.930156 71.650469 26.930156 70.865313 C 26.930156 70.084063 27.562969 69.45125 28.348125 69.45125 C 29.129375 69.45125 29.766094 70.084063 29.766094 70.865313 Z M 29.766094 70.865313 " transform="matrix(1,0,0,-1,6.105,146.42)"/>
<path style="fill:none;stroke-width:0.3985;stroke-linecap:butt;stroke-linejoin:miter;stroke:rgb(0%,67.83905%,93.728638%);stroke-opacity:1;stroke-miterlimit:10;" d="M 28.348125 70.865313 C 36.17625 70.865313 42.52 77.212969 42.52 85.041094 C 42.52 92.869219 36.17625 99.212969 28.348125 99.212969 " transform="matrix(1,0,0,-1,6.105,146.42)"/>
<path style="fill-rule:nonzero;fill:rgb(100%,0%,0%);fill-opacity:1;stroke-width:0.3985;stroke-linecap:butt;stroke-linejoin:miter;stroke:rgb(100%,0%,0%);stroke-opacity:1;stroke-miterlimit:10;" d="M 29.766094 85.041094 C 29.766094 85.822344 29.129375 86.459063 28.348125 86.459063 C 27.562969 86.459063 26.930156 85.822344 26.930156 85.041094 C 26.930156 84.255938 27.562969 83.623125 28.348125 83.623125 C 29.129375 83.623125 29.766094 84.255938 29.766094 85.041094 Z M 29.766094 85.041094 " transform="matrix(1,0,0,-1,6.105,146.42)"/>
<path style="fill:none;stroke-width:0.3985;stroke-linecap:butt;stroke-linejoin:miter;stroke:rgb(0%,67.83905%,93.728638%);stroke-opacity:1;stroke-miterlimit:10;" d="M 28.348125 85.041094 C 36.17625 85.041094 42.52 91.384844 42.52 99.212969 C 42.52 107.041094 36.17625 113.38875 28.348125 113.38875 " transform="matrix(1,0,0,-1,6.105,146.42)"/>
<path style="fill-rule:nonzero;fill:rgb(100%,0%,0%);fill-opacity:1;stroke-width:0.3985;stroke-linecap:butt;stroke-linejoin:miter;stroke:rgb(100%,0%,0%);stroke-opacity:1;stroke-miterlimit:10;" d="M 29.766094 99.212969 C 29.766094 99.998125 29.129375 100.630938 28.348125 100.630938 C 27.562969 100.630938 26.930156 99.998125 26.930156 99.212969 C 26.930156 98.431719 27.562969 97.795 28.348125 97.795 C 29.129375 97.795 29.766094 98.431719 29.766094 99.212969 Z M 29.766094 99.212969 " transform="matrix(1,0,0,-1,6.105,146.42)"/>
<path style="fill:none;stroke-width:0.3985;stroke-linecap:butt;stroke-linejoin:miter;stroke:rgb(0%,67.83905%,93.728638%);stroke-opacity:1;stroke-miterlimit:10;" d="M 28.348125 99.212969 C 36.17625 99.212969 42.52 105.560625 42.52 113.38875 C 42.52 121.216875 36.17625 127.560625 28.348125 127.560625 " transform="matrix(1,0,0,-1,6.105,146.42)"/>
<path style="fill-rule:nonzero;fill:rgb(100%,0%,0%);fill-opacity:1;stroke-width:0.3985;stroke-linecap:butt;stroke-linejoin:miter;stroke:rgb(100%,0%,0%);stroke-opacity:1;stroke-miterlimit:10;" d="M 29.766094 113.38875 C 29.766094 114.17 29.129375 114.802813 28.348125 114.802813 C 27.562969 114.802813 26.930156 114.17 26.930156 113.38875 C 26.930156 112.603594 27.562969 111.970781 28.348125 111.970781 C 29.129375 111.970781 29.766094 112.603594 29.766094 113.38875 Z M 29.766094 113.38875 " transform="matrix(1,0,0,-1,6.105,146.42)"/>
<path style="fill:none;stroke-width:0.3985;stroke-linecap:butt;stroke-linejoin:miter;stroke:rgb(0%,67.83905%,93.728638%);stroke-opacity:1;stroke-miterlimit:10;" d="M 28.348125 113.38875 C 36.17625 113.38875 42.52 119.7325 42.52 127.560625 C 42.52 135.38875 36.17625 141.7325 28.348125 141.7325 " transform="matrix(1,0,0,-1,6.105,146.42)"/>
<path style="fill-rule:nonzero;fill:rgb(100%,0%,0%);fill-opacity:1;stroke-width:0.3985;stroke-linecap:butt;stroke-linejoin:miter;stroke:rgb(100%,0%,0%);stroke-opacity:1;stroke-miterlimit:10;" d="M 29.766094 127.560625 C 29.766094 128.341875 29.129375 128.978594 28.348125 128.978594 C 27.562969 128.978594 26.930156 128.341875 26.930156 127.560625 C 26.930156 126.779375 27.562969 126.142656 28.348125 126.142656 C 29.129375 126.142656 29.766094 126.779375 29.766094 127.560625 Z M 29.766094 127.560625 " transform="matrix(1,0,0,-1,6.105,146.42)"/>
<g clip-path="url(#clip7)" clip-rule="nonzero">
<path style="fill:none;stroke-width:0.3985;stroke-linecap:butt;stroke-linejoin:miter;stroke:rgb(0%,67.83905%,93.728638%);stroke-opacity:1;stroke-miterlimit:10;" d="M 56.691875 -0.001875 C 64.52 -0.001875 70.867656 6.345781 70.867656 14.173906 C 70.867656 22.002031 64.52 28.345781 56.691875 28.345781 " transform="matrix(1,0,0,-1,6.105,146.42)"/>
</g>
<path style="fill-rule:nonzero;fill:rgb(100%,0%,0%);fill-opacity:1;stroke-width:0.3985;stroke-linecap:butt;stroke-linejoin:miter;stroke:rgb(100%,0%,0%);stroke-opacity:1;stroke-miterlimit:10;" d="M 58.109844 14.173906 C 58.109844 14.955156 57.477031 15.591875 56.691875 15.591875 C 55.910625 15.591875 55.277813 14.955156 55.277813 14.173906 C 55.277813 13.38875 55.910625 12.755938 56.691875 12.755938 C 57.477031 12.755938 58.109844 13.38875 58.109844 14.173906 Z M 58.109844 14.173906 " transform="matrix(1,0,0,-1,6.105,146.42)"/>
<path style="fill:none;stroke-width:0.3985;stroke-linecap:butt;stroke-linejoin:miter;stroke:rgb(0%,67.83905%,93.728638%);stroke-opacity:1;stroke-miterlimit:10;" d="M 56.691875 14.173906 C 64.52 14.173906 70.867656 20.517656 70.867656 28.345781 C 70.867656 36.173906 64.52 42.521563 56.691875 42.521563 " transform="matrix(1,0,0,-1,6.105,146.42)"/>
<path style="fill-rule:nonzero;fill:rgb(100%,0%,0%);fill-opacity:1;stroke-width:0.3985;stroke-linecap:butt;stroke-linejoin:miter;stroke:rgb(100%,0%,0%);stroke-opacity:1;stroke-miterlimit:10;" d="M 58.109844 28.345781 C 58.109844 29.130938 57.477031 29.76375 56.691875 29.76375 C 55.910625 29.76375 55.277813 29.130938 55.277813 28.345781 C 55.277813 27.564531 55.910625 26.927813 56.691875 26.927813 C 57.477031 26.927813 58.109844 27.564531 58.109844 28.345781 Z M 58.109844 28.345781 " transform="matrix(1,0,0,-1,6.105,146.42)"/>
<path style="fill:none;stroke-width:0.3985;stroke-linecap:butt;stroke-linejoin:miter;stroke:rgb(0%,67.83905%,93.728638%);stroke-opacity:1;stroke-miterlimit:10;" d="M 56.691875 28.345781 C 64.52 28.345781 70.867656 34.693438 70.867656 42.521563 C 70.867656 50.349688 64.52 56.693438 56.691875 56.693438 " transform="matrix(1,0,0,-1,6.105,146.42)"/>
<path style="fill-rule:nonzero;fill:rgb(100%,0%,0%);fill-opacity:1;stroke-width:0.3985;stroke-linecap:butt;stroke-linejoin:miter;stroke:rgb(100%,0%,0%);stroke-opacity:1;stroke-miterlimit:10;" d="M 58.109844 42.521563 C 58.109844 43.302813 57.477031 43.939531 56.691875 43.939531 C 55.910625 43.939531 55.277813 43.302813 55.277813 42.521563 C 55.277813 41.736406 55.910625 41.103594 56.691875 41.103594 C 57.477031 41.103594 58.109844 41.736406 58.109844 42.521563 Z M 58.109844 42.521563 " transform="matrix(1,0,0,-1,6.105,146.42)"/>
<path style="fill:none;stroke-width:0.3985;stroke-linecap:butt;stroke-linejoin:miter;stroke:rgb(0%,67.83905%,93.728638%);stroke-opacity:1;stroke-miterlimit:10;" d="M 56.691875 42.521563 C 64.52 42.521563 70.867656 48.865313 70.867656 56.693438 C 70.867656 64.521563 64.52 70.865313 56.691875 70.865313 " transform="matrix(1,0,0,-1,6.105,146.42)"/>
<path style="fill-rule:nonzero;fill:rgb(100%,0%,0%);fill-opacity:1;stroke-width:0.3985;stroke-linecap:butt;stroke-linejoin:miter;stroke:rgb(100%,0%,0%);stroke-opacity:1;stroke-miterlimit:10;" d="M 58.109844 56.693438 C 58.109844 57.474688 57.477031 58.111406 56.691875 58.111406 C 55.910625 58.111406 55.277813 57.474688 55.277813 56.693438 C 55.277813 55.912188 55.910625 55.275469 56.691875 55.275469 C 57.477031 55.275469 58.109844 55.912188 58.109844 56.693438 Z M 58.109844 56.693438 " transform="matrix(1,0,0,-1,6.105,146.42)"/>
<path style="fill:none;stroke-width:0.3985;stroke-linecap:butt;stroke-linejoin:miter;stroke:rgb(0%,67.83905%,93.728638%);stroke-opacity:1;stroke-miterlimit:10;" d="M 56.691875 56.693438 C 64.52 56.693438 70.867656 63.041094 70.867656 70.865313 C 70.867656 78.693438 64.52 85.041094 56.691875 85.041094 " transform="matrix(1,0,0,-1,6.105,146.42)"/>
<path style="fill-rule:nonzero;fill:rgb(100%,0%,0%);fill-opacity:1;stroke-width:0.3985;stroke-linecap:butt;stroke-linejoin:miter;stroke:rgb(100%,0%,0%);stroke-opacity:1;stroke-miterlimit:10;" d="M 58.109844 70.865313 C 58.109844 71.650469 57.477031 72.283281 56.691875 72.283281 C 55.910625 72.283281 55.277813 71.650469 55.277813 70.865313 C 55.277813 70.084063 55.910625 69.45125 56.691875 69.45125 C 57.477031 69.45125 58.109844 70.084063 58.109844 70.865313 Z M 58.109844 70.865313 " transform="matrix(1,0,0,-1,6.105,146.42)"/>
<path style="fill:none;stroke-width:0.3985;stroke-linecap:butt;stroke-linejoin:miter;stroke:rgb(0%,67.83905%,93.728638%);stroke-opacity:1;stroke-miterlimit:10;" d="M 56.691875 70.865313 C 64.52 70.865313 70.867656 77.212969 70.867656 85.041094 C 70.867656 92.869219 64.52 99.212969 56.691875 99.212969 " transform="matrix(1,0,0,-1,6.105,146.42)"/>
<path style="fill-rule:nonzero;fill:rgb(100%,0%,0%);fill-opacity:1;stroke-width:0.3985;stroke-linecap:butt;stroke-linejoin:miter;stroke:rgb(100%,0%,0%);stroke-opacity:1;stroke-miterlimit:10;" d="M 58.109844 85.041094 C 58.109844 85.822344 57.477031 86.459063 56.691875 86.459063 C 55.910625 86.459063 55.277813 85.822344 55.277813 85.041094 C 55.277813 84.255938 55.910625 83.623125 56.691875 83.623125 C 57.477031 83.623125 58.109844 84.255938 58.109844 85.041094 Z M 58.109844 85.041094 " transform="matrix(1,0,0,-1,6.105,146.42)"/>
<path style="fill:none;stroke-width:0.3985;stroke-linecap:butt;stroke-linejoin:miter;stroke:rgb(0%,67.83905%,93.728638%);stroke-opacity:1;stroke-miterlimit:10;" d="M 56.691875 85.041094 C 64.52 85.041094 70.867656 91.384844 70.867656 99.212969 C 70.867656 107.041094 64.52 113.38875 56.691875 113.38875 " transform="matrix(1,0,0,-1,6.105,146.42)"/>
<path style="fill-rule:nonzero;fill:rgb(100%,0%,0%);fill-opacity:1;stroke-width:0.3985;stroke-linecap:butt;stroke-linejoin:miter;stroke:rgb(100%,0%,0%);stroke-opacity:1;stroke-miterlimit:10;" d="M 58.109844 99.212969 C 58.109844 99.998125 57.477031 100.630938 56.691875 100.630938 C 55.910625 100.630938 55.277813 99.998125 55.277813 99.212969 C 55.277813 98.431719 55.910625 97.795 56.691875 97.795 C 57.477031 97.795 58.109844 98.431719 58.109844 99.212969 Z M 58.109844 99.212969 " transform="matrix(1,0,0,-1,6.105,146.42)"/>
<path style="fill:none;stroke-width:0.3985;stroke-linecap:butt;stroke-linejoin:miter;stroke:rgb(0%,67.83905%,93.728638%);stroke-opacity:1;stroke-miterlimit:10;" d="M 56.691875 99.212969 C 64.52 99.212969 70.867656 105.560625 70.867656 113.38875 C 70.867656 121.216875 64.52 127.560625 56.691875 127.560625 " transform="matrix(1,0,0,-1,6.105,146.42)"/>
<path style="fill-rule:nonzero;fill:rgb(100%,0%,0%);fill-opacity:1;stroke-width:0.3985;stroke-linecap:butt;stroke-linejoin:miter;stroke:rgb(100%,0%,0%);stroke-opacity:1;stroke-miterlimit:10;" d="M 58.109844 113.38875 C 58.109844 114.17 57.477031 114.802813 56.691875 114.802813 C 55.910625 114.802813 55.277813 114.17 55.277813 113.38875 C 55.277813 112.603594 55.910625 111.970781 56.691875 111.970781 C 57.477031 111.970781 58.109844 112.603594 58.109844 113.38875 Z M 58.109844 113.38875 " transform="matrix(1,0,0,-1,6.105,146.42)"/>
<path style="fill:none;stroke-width:0.3985;stroke-linecap:butt;stroke-linejoin:miter;stroke:rgb(0%,67.83905%,93.728638%);stroke-opacity:1;stroke-miterlimit:10;" d="M 56.691875 113.38875 C 64.52 113.38875 70.867656 119.7325 70.867656 127.560625 C 70.867656 135.38875 64.52 141.7325 56.691875 141.7325 " transform="matrix(1,0,0,-1,6.105,146.42)"/>
<path style="fill-rule:nonzero;fill:rgb(100%,0%,0%);fill-opacity:1;stroke-width:0.3985;stroke-linecap:butt;stroke-linejoin:miter;stroke:rgb(100%,0%,0%);stroke-opacity:1;stroke-miterlimit:10;" d="M 58.109844 127.560625 C 58.109844 128.341875 57.477031 128.978594 56.691875 128.978594 C 55.910625 128.978594 55.277813 128.341875 55.277813 127.560625 C 55.277813 126.779375 55.910625 126.142656 56.691875 126.142656 C 57.477031 126.142656 58.109844 126.779375 58.109844 127.560625 Z M 58.109844 127.560625 " transform="matrix(1,0,0,-1,6.105,146.42)"/>
<path style="fill:none;stroke-width:0.3985;stroke-linecap:butt;stroke-linejoin:miter;stroke:rgb(100%,100%,100%);stroke-opacity:1;stroke-miterlimit:10;" d="M 56.691875 70.865313 L 81.453594 70.865313 " transform="matrix(1,0,0,-1,6.105,146.42)"/>
<path style=" stroke:none;fill-rule:nonzero;fill:rgb(100%,100%,100%);fill-opacity:1;" d="M 91.144531 75.554688 C 90.082031 75.355469 88.355469 74.757812 87.160156 74.058594 L 87.160156 77.046875 C 88.355469 76.351562 90.082031 75.753906 91.144531 75.554688 "/>
</g>
</svg>
