<?xml version="1.0" encoding="UTF-8"?>
<svg xmlns="http://www.w3.org/2000/svg" xmlns:xlink="http://www.w3.org/1999/xlink" width="292.322" height="151.218" viewBox="0 0 292.322 151.218">
<defs>
<clipPath id="clip-0">
<path clip-rule="nonzero" d="M 0 0 L 177 0 L 177 151.21875 L 0 151.21875 Z M 0 0 "/>
</clipPath>
<clipPath id="clip-1">
<path clip-rule="nonzero" d="M 140 0 L 292.320312 0 L 292.320312 151.21875 L 140 151.21875 Z M 140 0 "/>
</clipPath>
<clipPath id="clip-2">
<path clip-rule="nonzero" d="M 161 0 L 292.320312 0 L 292.320312 84 L 161 84 Z M 161 0 "/>
</clipPath>
<clipPath id="clip-3">
<path clip-rule="nonzero" d="M 173 0 L 292.320312 0 L 292.320312 91 L 173 91 Z M 173 0 "/>
</clipPath>
<clipPath id="clip-4">
<path clip-rule="nonzero" d="M 39 0 L 292.320312 0 L 292.320312 151.21875 L 39 151.21875 Z M 39 0 "/>
</clipPath>
<clipPath id="clip-5">
<path clip-rule="nonzero" d="M 85 61 L 206 61 L 206 151.21875 L 85 151.21875 Z M 85 61 "/>
</clipPath>
<clipPath id="clip-6">
<path clip-rule="nonzero" d="M 0 90 L 79 90 L 79 151.21875 L 0 151.21875 Z M 0 90 "/>
</clipPath>
<clipPath id="clip-7">
<path clip-rule="nonzero" d="M 0 66 L 66 66 L 66 151.21875 L 0 151.21875 Z M 0 66 "/>
</clipPath>
</defs>
<path fill="none" stroke-width="0.3985" stroke-linecap="butt" stroke-linejoin="miter" stroke="rgb(50%, 50%, 50%)" stroke-opacity="1" stroke-miterlimit="10" d="M 0.00046875 0.000875 L 42.52 0.000875 " transform="matrix(1, 0, 0, -1, 73.48, 102.454)"/>
<path fill="none" stroke-width="0.3985" stroke-linecap="butt" stroke-linejoin="miter" stroke="rgb(50%, 50%, 50%)" stroke-opacity="1" stroke-miterlimit="10" d="M 0.00046875 0.000875 L 42.359844 3.707906 " transform="matrix(1, 0, 0, -1, 73.48, 102.454)"/>
<path fill="none" stroke-width="0.3985" stroke-linecap="butt" stroke-linejoin="miter" stroke="rgb(50%, 50%, 50%)" stroke-opacity="1" stroke-miterlimit="10" d="M 0.00046875 0.000875 L 41.875469 7.383687 " transform="matrix(1, 0, 0, -1, 73.48, 102.454)"/>
<path fill="none" stroke-width="0.3985" stroke-linecap="butt" stroke-linejoin="miter" stroke="rgb(50%, 50%, 50%)" stroke-opacity="1" stroke-miterlimit="10" d="M 0.00046875 0.000875 L 41.070781 11.004781 " transform="matrix(1, 0, 0, -1, 73.48, 102.454)"/>
<path fill="none" stroke-width="0.3985" stroke-linecap="butt" stroke-linejoin="miter" stroke="rgb(50%, 50%, 50%)" stroke-opacity="1" stroke-miterlimit="10" d="M 0.00046875 0.000875 L 39.9575 14.543844 " transform="matrix(1, 0, 0, -1, 73.48, 102.454)"/>
<path fill="none" stroke-width="0.3985" stroke-linecap="butt" stroke-linejoin="miter" stroke="rgb(50%, 50%, 50%)" stroke-opacity="1" stroke-miterlimit="10" d="M 0.00046875 0.000875 L 38.535625 17.969625 " transform="matrix(1, 0, 0, -1, 73.48, 102.454)"/>
<path fill="none" stroke-width="0.3985" stroke-linecap="butt" stroke-linejoin="miter" stroke="rgb(50%, 50%, 50%)" stroke-opacity="1" stroke-miterlimit="10" d="M 0.00046875 0.000875 L 36.824687 21.258687 " transform="matrix(1, 0, 0, -1, 73.48, 102.454)"/>
<path fill="none" stroke-width="0.3985" stroke-linecap="butt" stroke-linejoin="miter" stroke="rgb(50%, 50%, 50%)" stroke-opacity="1" stroke-miterlimit="10" d="M 0.00046875 0.000875 L 34.8325 24.387594 " transform="matrix(1, 0, 0, -1, 73.48, 102.454)"/>
<path fill="none" stroke-width="0.3985" stroke-linecap="butt" stroke-linejoin="miter" stroke="rgb(50%, 50%, 50%)" stroke-opacity="1" stroke-miterlimit="10" d="M 0.00046875 0.000875 L 32.570781 27.332906 " transform="matrix(1, 0, 0, -1, 73.48, 102.454)"/>
<path fill="none" stroke-width="0.3985" stroke-linecap="butt" stroke-linejoin="miter" stroke="rgb(50%, 50%, 50%)" stroke-opacity="1" stroke-miterlimit="10" d="M 0.00046875 0.000875 L 30.066875 30.067281 " transform="matrix(1, 0, 0, -1, 73.48, 102.454)"/>
<path fill="none" stroke-width="0.3985" stroke-linecap="butt" stroke-linejoin="miter" stroke="rgb(50%, 50%, 50%)" stroke-opacity="1" stroke-miterlimit="10" d="M 0.00046875 0.000875 L 27.3325 32.571187 " transform="matrix(1, 0, 0, -1, 73.48, 102.454)"/>
<path fill="none" stroke-width="0.3985" stroke-linecap="butt" stroke-linejoin="miter" stroke="rgb(50%, 50%, 50%)" stroke-opacity="1" stroke-miterlimit="10" d="M 0.00046875 0.000875 L 24.387187 34.829 " transform="matrix(1, 0, 0, -1, 73.48, 102.454)"/>
<path fill="none" stroke-width="0.3985" stroke-linecap="butt" stroke-linejoin="miter" stroke="rgb(50%, 50%, 50%)" stroke-opacity="1" stroke-miterlimit="10" d="M 0.00046875 0.000875 L 21.258281 36.825094 " transform="matrix(1, 0, 0, -1, 73.48, 102.454)"/>
<path fill="none" stroke-width="0.3985" stroke-linecap="butt" stroke-linejoin="miter" stroke="rgb(50%, 50%, 50%)" stroke-opacity="1" stroke-miterlimit="10" d="M 0.00046875 0.000875 L 17.969219 38.536031 " transform="matrix(1, 0, 0, -1, 73.48, 102.454)"/>
<path fill="none" stroke-width="0.3985" stroke-linecap="butt" stroke-linejoin="miter" stroke="rgb(50%, 50%, 50%)" stroke-opacity="1" stroke-miterlimit="10" d="M 0.00046875 0.000875 L 14.543437 39.957906 " transform="matrix(1, 0, 0, -1, 73.48, 102.454)"/>
<path fill="none" stroke-width="0.3985" stroke-linecap="butt" stroke-linejoin="miter" stroke="rgb(50%, 50%, 50%)" stroke-opacity="1" stroke-miterlimit="10" d="M 0.00046875 0.000875 L 11.004375 41.071187 " transform="matrix(1, 0, 0, -1, 73.48, 102.454)"/>
<path fill="none" stroke-width="0.3985" stroke-linecap="butt" stroke-linejoin="miter" stroke="rgb(50%, 50%, 50%)" stroke-opacity="1" stroke-miterlimit="10" d="M 0.00046875 0.000875 L 7.383281 41.875875 " transform="matrix(1, 0, 0, -1, 73.48, 102.454)"/>
<path fill="none" stroke-width="0.3985" stroke-linecap="butt" stroke-linejoin="miter" stroke="rgb(50%, 50%, 50%)" stroke-opacity="1" stroke-miterlimit="10" d="M 0.00046875 0.000875 L 3.7075 42.356344 " transform="matrix(1, 0, 0, -1, 73.48, 102.454)"/>
<path fill="none" stroke-width="0.3985" stroke-linecap="butt" stroke-linejoin="miter" stroke="rgb(50%, 50%, 50%)" stroke-opacity="1" stroke-miterlimit="10" d="M 0.00046875 0.000875 L 0.00046875 42.520406 " transform="matrix(1, 0, 0, -1, 73.48, 102.454)"/>
<path fill="none" stroke-width="0.3985" stroke-linecap="butt" stroke-linejoin="miter" stroke="rgb(50%, 50%, 50%)" stroke-opacity="1" stroke-miterlimit="10" d="M 0.00046875 0.000875 L -3.706563 42.356344 " transform="matrix(1, 0, 0, -1, 73.48, 102.454)"/>
<path fill="none" stroke-width="0.3985" stroke-linecap="butt" stroke-linejoin="miter" stroke="rgb(50%, 50%, 50%)" stroke-opacity="1" stroke-miterlimit="10" d="M 0.00046875 0.000875 L -7.382344 41.875875 " transform="matrix(1, 0, 0, -1, 73.48, 102.454)"/>
<path fill="none" stroke-width="0.3985" stroke-linecap="butt" stroke-linejoin="miter" stroke="rgb(50%, 50%, 50%)" stroke-opacity="1" stroke-miterlimit="10" d="M 0.00046875 0.000875 L -11.003438 41.071187 " transform="matrix(1, 0, 0, -1, 73.48, 102.454)"/>
<path fill="none" stroke-width="0.3985" stroke-linecap="butt" stroke-linejoin="miter" stroke="rgb(50%, 50%, 50%)" stroke-opacity="1" stroke-miterlimit="10" d="M 0.00046875 0.000875 L -14.5425 39.957906 " transform="matrix(1, 0, 0, -1, 73.48, 102.454)"/>
<path fill="none" stroke-width="0.3985" stroke-linecap="butt" stroke-linejoin="miter" stroke="rgb(50%, 50%, 50%)" stroke-opacity="1" stroke-miterlimit="10" d="M 0.00046875 0.000875 L -17.968281 38.536031 " transform="matrix(1, 0, 0, -1, 73.48, 102.454)"/>
<path fill="none" stroke-width="0.3985" stroke-linecap="butt" stroke-linejoin="miter" stroke="rgb(50%, 50%, 50%)" stroke-opacity="1" stroke-miterlimit="10" d="M 0.00046875 0.000875 L -21.26125 36.825094 " transform="matrix(1, 0, 0, -1, 73.48, 102.454)"/>
<path fill="none" stroke-width="0.3985" stroke-linecap="butt" stroke-linejoin="miter" stroke="rgb(50%, 50%, 50%)" stroke-opacity="1" stroke-miterlimit="10" d="M 0.00046875 0.000875 L -24.390156 34.829 " transform="matrix(1, 0, 0, -1, 73.48, 102.454)"/>
<path fill="none" stroke-width="0.3985" stroke-linecap="butt" stroke-linejoin="miter" stroke="rgb(50%, 50%, 50%)" stroke-opacity="1" stroke-miterlimit="10" d="M 0.00046875 0.000875 L -27.331563 32.571187 " transform="matrix(1, 0, 0, -1, 73.48, 102.454)"/>
<path fill="none" stroke-width="0.3985" stroke-linecap="butt" stroke-linejoin="miter" stroke="rgb(50%, 50%, 50%)" stroke-opacity="1" stroke-miterlimit="10" d="M 0.00046875 0.000875 L -30.065938 30.067281 " transform="matrix(1, 0, 0, -1, 73.48, 102.454)"/>
<path fill="none" stroke-width="0.3985" stroke-linecap="butt" stroke-linejoin="miter" stroke="rgb(50%, 50%, 50%)" stroke-opacity="1" stroke-miterlimit="10" d="M 0.00046875 0.000875 L -32.57375 27.332906 " transform="matrix(1, 0, 0, -1, 73.48, 102.454)"/>
<path fill="none" stroke-width="0.3985" stroke-linecap="butt" stroke-linejoin="miter" stroke="rgb(50%, 50%, 50%)" stroke-opacity="1" stroke-miterlimit="10" d="M 0.00046875 0.000875 L -34.831563 24.387594 " transform="matrix(1, 0, 0, -1, 73.48, 102.454)"/>
<path fill="none" stroke-width="0.3985" stroke-linecap="butt" stroke-linejoin="miter" stroke="rgb(50%, 50%, 50%)" stroke-opacity="1" stroke-miterlimit="10" d="M 0.00046875 0.000875 L -36.82375 21.258687 " transform="matrix(1, 0, 0, -1, 73.48, 102.454)"/>
<path fill="none" stroke-width="0.3985" stroke-linecap="butt" stroke-linejoin="miter" stroke="rgb(50%, 50%, 50%)" stroke-opacity="1" stroke-miterlimit="10" d="M 0.00046875 0.000875 L -38.534688 17.969625 " transform="matrix(1, 0, 0, -1, 73.48, 102.454)"/>
<path fill="none" stroke-width="0.3985" stroke-linecap="butt" stroke-linejoin="miter" stroke="rgb(50%, 50%, 50%)" stroke-opacity="1" stroke-miterlimit="10" d="M 0.00046875 0.000875 L -39.956563 14.543844 " transform="matrix(1, 0, 0, -1, 73.48, 102.454)"/>
<path fill="none" stroke-width="0.3985" stroke-linecap="butt" stroke-linejoin="miter" stroke="rgb(50%, 50%, 50%)" stroke-opacity="1" stroke-miterlimit="10" d="M 0.00046875 0.000875 L -41.069844 11.004781 " transform="matrix(1, 0, 0, -1, 73.48, 102.454)"/>
<path fill="none" stroke-width="0.3985" stroke-linecap="butt" stroke-linejoin="miter" stroke="rgb(50%, 50%, 50%)" stroke-opacity="1" stroke-miterlimit="10" d="M 0.00046875 0.000875 L -41.874531 7.383687 " transform="matrix(1, 0, 0, -1, 73.48, 102.454)"/>
<path fill="none" stroke-width="0.3985" stroke-linecap="butt" stroke-linejoin="miter" stroke="rgb(50%, 50%, 50%)" stroke-opacity="1" stroke-miterlimit="10" d="M 0.00046875 0.000875 L -42.358906 3.707906 " transform="matrix(1, 0, 0, -1, 73.48, 102.454)"/>
<path fill="none" stroke-width="0.3985" stroke-linecap="butt" stroke-linejoin="miter" stroke="rgb(50%, 50%, 50%)" stroke-opacity="1" stroke-miterlimit="10" d="M 0.00046875 0.000875 L -42.519063 0.000875 " transform="matrix(1, 0, 0, -1, 73.48, 102.454)"/>
<path fill="none" stroke-width="0.3985" stroke-linecap="butt" stroke-linejoin="miter" stroke="rgb(50%, 50%, 50%)" stroke-opacity="1" stroke-miterlimit="10" d="M 0.00046875 0.000875 L -42.358906 -3.706156 " transform="matrix(1, 0, 0, -1, 73.48, 102.454)"/>
<path fill="none" stroke-width="0.3985" stroke-linecap="butt" stroke-linejoin="miter" stroke="rgb(50%, 50%, 50%)" stroke-opacity="1" stroke-miterlimit="10" d="M 0.00046875 0.000875 L -41.874531 -7.381938 " transform="matrix(1, 0, 0, -1, 73.48, 102.454)"/>
<path fill="none" stroke-width="0.3985" stroke-linecap="butt" stroke-linejoin="miter" stroke="rgb(50%, 50%, 50%)" stroke-opacity="1" stroke-miterlimit="10" d="M 0.00046875 0.000875 L -41.069844 -11.006938 " transform="matrix(1, 0, 0, -1, 73.48, 102.454)"/>
<path fill="none" stroke-width="0.3985" stroke-linecap="butt" stroke-linejoin="miter" stroke="rgb(50%, 50%, 50%)" stroke-opacity="1" stroke-miterlimit="10" d="M 0.00046875 0.000875 L -39.956563 -14.542094 " transform="matrix(1, 0, 0, -1, 73.48, 102.454)"/>
<path fill="none" stroke-width="0.3985" stroke-linecap="butt" stroke-linejoin="miter" stroke="rgb(50%, 50%, 50%)" stroke-opacity="1" stroke-miterlimit="10" d="M 0.00046875 0.000875 L -38.534688 -17.971781 " transform="matrix(1, 0, 0, -1, 73.48, 102.454)"/>
<path fill="none" stroke-width="0.3985" stroke-linecap="butt" stroke-linejoin="miter" stroke="rgb(50%, 50%, 50%)" stroke-opacity="1" stroke-miterlimit="10" d="M 0.00046875 0.000875 L -36.82375 -21.260844 " transform="matrix(1, 0, 0, -1, 73.48, 102.454)"/>
<path fill="none" stroke-width="0.3985" stroke-linecap="butt" stroke-linejoin="miter" stroke="rgb(50%, 50%, 50%)" stroke-opacity="1" stroke-miterlimit="10" d="M 0.00046875 0.000875 L -34.831563 -24.38975 " transform="matrix(1, 0, 0, -1, 73.48, 102.454)"/>
<path fill="none" stroke-width="0.3985" stroke-linecap="butt" stroke-linejoin="miter" stroke="rgb(50%, 50%, 50%)" stroke-opacity="1" stroke-miterlimit="10" d="M 0.00046875 0.000875 L -32.57375 -27.331156 " transform="matrix(1, 0, 0, -1, 73.48, 102.454)"/>
<path fill="none" stroke-width="0.3985" stroke-linecap="butt" stroke-linejoin="miter" stroke="rgb(50%, 50%, 50%)" stroke-opacity="1" stroke-miterlimit="10" d="M 0.00046875 0.000875 L -30.065938 -30.065531 " transform="matrix(1, 0, 0, -1, 73.48, 102.454)"/>
<path fill="none" stroke-width="0.3985" stroke-linecap="butt" stroke-linejoin="miter" stroke="rgb(50%, 50%, 50%)" stroke-opacity="1" stroke-miterlimit="10" d="M 0.00046875 0.000875 L -27.331563 -32.573344 " transform="matrix(1, 0, 0, -1, 73.48, 102.454)"/>
<path fill="none" stroke-width="0.3985" stroke-linecap="butt" stroke-linejoin="miter" stroke="rgb(50%, 50%, 50%)" stroke-opacity="1" stroke-miterlimit="10" d="M 0.00046875 0.000875 L -24.390156 -34.831156 " transform="matrix(1, 0, 0, -1, 73.48, 102.454)"/>
<path fill="none" stroke-width="0.3985" stroke-linecap="butt" stroke-linejoin="miter" stroke="rgb(50%, 50%, 50%)" stroke-opacity="1" stroke-miterlimit="10" d="M 0.00046875 0.000875 L -21.26125 -36.823344 " transform="matrix(1, 0, 0, -1, 73.48, 102.454)"/>
<path fill="none" stroke-width="0.3985" stroke-linecap="butt" stroke-linejoin="miter" stroke="rgb(50%, 50%, 50%)" stroke-opacity="1" stroke-miterlimit="10" d="M 0.00046875 0.000875 L -17.968281 -38.538188 " transform="matrix(1, 0, 0, -1, 73.48, 102.454)"/>
<path fill="none" stroke-width="0.3985" stroke-linecap="butt" stroke-linejoin="miter" stroke="rgb(50%, 50%, 50%)" stroke-opacity="1" stroke-miterlimit="10" d="M 0.00046875 0.000875 L -14.5425 -39.956156 " transform="matrix(1, 0, 0, -1, 73.48, 102.454)"/>
<path fill="none" stroke-width="0.3985" stroke-linecap="butt" stroke-linejoin="miter" stroke="rgb(50%, 50%, 50%)" stroke-opacity="1" stroke-miterlimit="10" d="M 0.00046875 0.000875 L -11.003438 -41.073344 " transform="matrix(1, 0, 0, -1, 73.48, 102.454)"/>
<path fill="none" stroke-width="0.3985" stroke-linecap="butt" stroke-linejoin="miter" stroke="rgb(50%, 50%, 50%)" stroke-opacity="1" stroke-miterlimit="10" d="M 0.00046875 0.000875 L -7.382344 -41.874125 " transform="matrix(1, 0, 0, -1, 73.48, 102.454)"/>
<path fill="none" stroke-width="0.3985" stroke-linecap="butt" stroke-linejoin="miter" stroke="rgb(50%, 50%, 50%)" stroke-opacity="1" stroke-miterlimit="10" d="M 0.00046875 0.000875 L -3.706563 -42.3585 " transform="matrix(1, 0, 0, -1, 73.48, 102.454)"/>
<path fill="none" stroke-width="0.3985" stroke-linecap="butt" stroke-linejoin="miter" stroke="rgb(50%, 50%, 50%)" stroke-opacity="1" stroke-miterlimit="10" d="M 0.00046875 0.000875 L 0.00046875 -42.518656 " transform="matrix(1, 0, 0, -1, 73.48, 102.454)"/>
<path fill="none" stroke-width="0.3985" stroke-linecap="butt" stroke-linejoin="miter" stroke="rgb(50%, 50%, 50%)" stroke-opacity="1" stroke-miterlimit="10" d="M 0.00046875 0.000875 L 3.7075 -42.3585 " transform="matrix(1, 0, 0, -1, 73.48, 102.454)"/>
<path fill="none" stroke-width="0.3985" stroke-linecap="butt" stroke-linejoin="miter" stroke="rgb(50%, 50%, 50%)" stroke-opacity="1" stroke-miterlimit="10" d="M 0.00046875 0.000875 L 7.383281 -41.874125 " transform="matrix(1, 0, 0, -1, 73.48, 102.454)"/>
<path fill="none" stroke-width="0.3985" stroke-linecap="butt" stroke-linejoin="miter" stroke="rgb(50%, 50%, 50%)" stroke-opacity="1" stroke-miterlimit="10" d="M 0.00046875 0.000875 L 11.004375 -41.073344 " transform="matrix(1, 0, 0, -1, 73.48, 102.454)"/>
<path fill="none" stroke-width="0.3985" stroke-linecap="butt" stroke-linejoin="miter" stroke="rgb(50%, 50%, 50%)" stroke-opacity="1" stroke-miterlimit="10" d="M 0.00046875 0.000875 L 14.543437 -39.956156 " transform="matrix(1, 0, 0, -1, 73.48, 102.454)"/>
<path fill="none" stroke-width="0.3985" stroke-linecap="butt" stroke-linejoin="miter" stroke="rgb(50%, 50%, 50%)" stroke-opacity="1" stroke-miterlimit="10" d="M 0.00046875 0.000875 L 17.969219 -38.538188 " transform="matrix(1, 0, 0, -1, 73.48, 102.454)"/>
<path fill="none" stroke-width="0.3985" stroke-linecap="butt" stroke-linejoin="miter" stroke="rgb(50%, 50%, 50%)" stroke-opacity="1" stroke-miterlimit="10" d="M 0.00046875 0.000875 L 21.258281 -36.823344 " transform="matrix(1, 0, 0, -1, 73.48, 102.454)"/>
<path fill="none" stroke-width="0.3985" stroke-linecap="butt" stroke-linejoin="miter" stroke="rgb(50%, 50%, 50%)" stroke-opacity="1" stroke-miterlimit="10" d="M 0.00046875 0.000875 L 24.387187 -34.831156 " transform="matrix(1, 0, 0, -1, 73.48, 102.454)"/>
<path fill="none" stroke-width="0.3985" stroke-linecap="butt" stroke-linejoin="miter" stroke="rgb(50%, 50%, 50%)" stroke-opacity="1" stroke-miterlimit="10" d="M 0.00046875 0.000875 L 27.3325 -32.573344 " transform="matrix(1, 0, 0, -1, 73.48, 102.454)"/>
<path fill="none" stroke-width="0.3985" stroke-linecap="butt" stroke-linejoin="miter" stroke="rgb(50%, 50%, 50%)" stroke-opacity="1" stroke-miterlimit="10" d="M 0.00046875 0.000875 L 30.066875 -30.065531 " transform="matrix(1, 0, 0, -1, 73.48, 102.454)"/>
<path fill="none" stroke-width="0.3985" stroke-linecap="butt" stroke-linejoin="miter" stroke="rgb(50%, 50%, 50%)" stroke-opacity="1" stroke-miterlimit="10" d="M 0.00046875 0.000875 L 32.570781 -27.331156 " transform="matrix(1, 0, 0, -1, 73.48, 102.454)"/>
<path fill="none" stroke-width="0.3985" stroke-linecap="butt" stroke-linejoin="miter" stroke="rgb(50%, 50%, 50%)" stroke-opacity="1" stroke-miterlimit="10" d="M 0.00046875 0.000875 L 34.8325 -24.38975 " transform="matrix(1, 0, 0, -1, 73.48, 102.454)"/>
<path fill="none" stroke-width="0.3985" stroke-linecap="butt" stroke-linejoin="miter" stroke="rgb(50%, 50%, 50%)" stroke-opacity="1" stroke-miterlimit="10" d="M 0.00046875 0.000875 L 36.824687 -21.260844 " transform="matrix(1, 0, 0, -1, 73.48, 102.454)"/>
<path fill="none" stroke-width="0.3985" stroke-linecap="butt" stroke-linejoin="miter" stroke="rgb(50%, 50%, 50%)" stroke-opacity="1" stroke-miterlimit="10" d="M 0.00046875 0.000875 L 38.535625 -17.971781 " transform="matrix(1, 0, 0, -1, 73.48, 102.454)"/>
<path fill="none" stroke-width="0.3985" stroke-linecap="butt" stroke-linejoin="miter" stroke="rgb(50%, 50%, 50%)" stroke-opacity="1" stroke-miterlimit="10" d="M 0.00046875 0.000875 L 39.9575 -14.542094 " transform="matrix(1, 0, 0, -1, 73.48, 102.454)"/>
<path fill="none" stroke-width="0.3985" stroke-linecap="butt" stroke-linejoin="miter" stroke="rgb(50%, 50%, 50%)" stroke-opacity="1" stroke-miterlimit="10" d="M 0.00046875 0.000875 L 41.070781 -11.006938 " transform="matrix(1, 0, 0, -1, 73.48, 102.454)"/>
<path fill="none" stroke-width="0.3985" stroke-linecap="butt" stroke-linejoin="miter" stroke="rgb(50%, 50%, 50%)" stroke-opacity="1" stroke-miterlimit="10" d="M 0.00046875 0.000875 L 41.875469 -7.381938 " transform="matrix(1, 0, 0, -1, 73.48, 102.454)"/>
<path fill="none" stroke-width="0.3985" stroke-linecap="butt" stroke-linejoin="miter" stroke="rgb(50%, 50%, 50%)" stroke-opacity="1" stroke-miterlimit="10" d="M 0.00046875 0.000875 L 42.359844 -3.706156 " transform="matrix(1, 0, 0, -1, 73.48, 102.454)"/>
<g clip-path="url(#clip-0)">
<path fill="none" stroke-width="3.9851" stroke-linecap="butt" stroke-linejoin="miter" stroke="rgb(0%, 0%, 0%)" stroke-opacity="1" stroke-miterlimit="10" d="M 46.773906 0.000875 C 46.773906 25.832906 25.8325 46.770406 0.00046875 46.770406 C -25.831563 46.770406 -46.772969 25.832906 -46.772969 0.000875 C -46.772969 -25.831156 -25.831563 -46.772563 0.00046875 -46.772563 C 25.8325 -46.772563 46.773906 -25.831156 46.773906 0.000875 Z M 46.773906 0.000875 " transform="matrix(1, 0, 0, -1, 73.48, 102.454)"/>
</g>
<path fill="none" stroke-width="0.3985" stroke-linecap="butt" stroke-linejoin="miter" stroke="rgb(0%, 0%, 0%)" stroke-opacity="1" stroke-miterlimit="10" d="M 42.52 0.000875 C 42.52 23.48525 23.484844 42.520406 0.00046875 42.520406 C -23.483906 42.520406 -42.519063 23.48525 -42.519063 0.000875 C -42.519063 -23.4835 -23.483906 -42.518656 0.00046875 -42.518656 C 23.484844 -42.518656 42.52 -23.4835 42.52 0.000875 Z M 42.52 0.000875 " transform="matrix(1, 0, 0, -1, 73.48, 102.454)"/>
<path fill-rule="nonzero" fill="rgb(50%, 50%, 50%)" fill-opacity="1" stroke-width="0.99628" stroke-linecap="butt" stroke-linejoin="miter" stroke="rgb(0%, 0%, 0%)" stroke-opacity="1" stroke-miterlimit="10" d="M 5.668437 0.000875 C 5.668437 3.129781 3.129375 5.668844 0.00046875 5.668844 C -3.132344 5.668844 -5.6675 3.129781 -5.6675 0.000875 C -5.6675 -3.131938 -3.132344 -5.671 0.00046875 -5.671 C 3.129375 -5.671 5.668437 -3.131938 5.668437 0.000875 Z M 5.668437 0.000875 " transform="matrix(1, 0, 0, -1, 73.48, 102.454)"/>
<path fill-rule="nonzero" fill="rgb(0%, 0%, 0%)" fill-opacity="1" d="M 75.472656 102.453125 C 75.472656 101.355469 74.582031 100.460938 73.480469 100.460938 C 72.378906 100.460938 71.488281 101.355469 71.488281 102.453125 C 71.488281 103.554688 72.378906 104.445312 73.480469 104.445312 C 74.582031 104.445312 75.472656 103.554688 75.472656 102.453125 Z M 75.472656 102.453125 "/>
<path fill="none" stroke-width="0.3985" stroke-linecap="butt" stroke-linejoin="miter" stroke="rgb(50%, 50%, 50%)" stroke-opacity="1" stroke-miterlimit="10" d="M 170.0825 0.000875 L 212.602031 0.000875 " transform="matrix(1, 0, 0, -1, 73.48, 102.454)"/>
<path fill="none" stroke-width="0.3985" stroke-linecap="butt" stroke-linejoin="miter" stroke="rgb(50%, 50%, 50%)" stroke-opacity="1" stroke-miterlimit="10" d="M 170.0825 0.000875 L 212.437969 3.707906 " transform="matrix(1, 0, 0, -1, 73.48, 102.454)"/>
<path fill="none" stroke-width="0.3985" stroke-linecap="butt" stroke-linejoin="miter" stroke="rgb(50%, 50%, 50%)" stroke-opacity="1" stroke-miterlimit="10" d="M 170.0825 0.000875 L 211.953594 7.383687 " transform="matrix(1, 0, 0, -1, 73.48, 102.454)"/>
<path fill="none" stroke-width="0.3985" stroke-linecap="butt" stroke-linejoin="miter" stroke="rgb(50%, 50%, 50%)" stroke-opacity="1" stroke-miterlimit="10" d="M 170.0825 0.000875 L 211.152812 11.004781 " transform="matrix(1, 0, 0, -1, 73.48, 102.454)"/>
<path fill="none" stroke-width="0.3985" stroke-linecap="butt" stroke-linejoin="miter" stroke="rgb(50%, 50%, 50%)" stroke-opacity="1" stroke-miterlimit="10" d="M 170.0825 0.000875 L 210.035625 14.543844 " transform="matrix(1, 0, 0, -1, 73.48, 102.454)"/>
<path fill="none" stroke-width="0.3985" stroke-linecap="butt" stroke-linejoin="miter" stroke="rgb(50%, 50%, 50%)" stroke-opacity="1" stroke-miterlimit="10" d="M 170.0825 0.000875 L 208.617656 17.969625 " transform="matrix(1, 0, 0, -1, 73.48, 102.454)"/>
<path fill="none" stroke-width="0.3985" stroke-linecap="butt" stroke-linejoin="miter" stroke="rgb(50%, 50%, 50%)" stroke-opacity="1" stroke-miterlimit="10" d="M 170.0825 0.000875 L 206.902812 21.258687 " transform="matrix(1, 0, 0, -1, 73.48, 102.454)"/>
<path fill="none" stroke-width="0.3985" stroke-linecap="butt" stroke-linejoin="miter" stroke="rgb(50%, 50%, 50%)" stroke-opacity="1" stroke-miterlimit="10" d="M 170.0825 0.000875 L 204.910625 24.387594 " transform="matrix(1, 0, 0, -1, 73.48, 102.454)"/>
<path fill="none" stroke-width="0.3985" stroke-linecap="butt" stroke-linejoin="miter" stroke="rgb(50%, 50%, 50%)" stroke-opacity="1" stroke-miterlimit="10" d="M 170.0825 0.000875 L 202.652812 27.332906 " transform="matrix(1, 0, 0, -1, 73.48, 102.454)"/>
<path fill="none" stroke-width="0.3985" stroke-linecap="butt" stroke-linejoin="miter" stroke="rgb(50%, 50%, 50%)" stroke-opacity="1" stroke-miterlimit="10" d="M 170.0825 0.000875 L 200.148906 30.067281 " transform="matrix(1, 0, 0, -1, 73.48, 102.454)"/>
<path fill="none" stroke-width="0.3985" stroke-linecap="butt" stroke-linejoin="miter" stroke="rgb(50%, 50%, 50%)" stroke-opacity="1" stroke-miterlimit="10" d="M 170.0825 0.000875 L 197.410625 32.571187 " transform="matrix(1, 0, 0, -1, 73.48, 102.454)"/>
<path fill="none" stroke-width="0.3985" stroke-linecap="butt" stroke-linejoin="miter" stroke="rgb(50%, 50%, 50%)" stroke-opacity="1" stroke-miterlimit="10" d="M 170.0825 0.000875 L 194.469219 34.829 " transform="matrix(1, 0, 0, -1, 73.48, 102.454)"/>
<path fill="none" stroke-width="0.3985" stroke-linecap="butt" stroke-linejoin="miter" stroke="rgb(50%, 50%, 50%)" stroke-opacity="1" stroke-miterlimit="10" d="M 170.0825 0.000875 L 191.340312 36.825094 " transform="matrix(1, 0, 0, -1, 73.48, 102.454)"/>
<path fill="none" stroke-width="0.3985" stroke-linecap="butt" stroke-linejoin="miter" stroke="rgb(50%, 50%, 50%)" stroke-opacity="1" stroke-miterlimit="10" d="M 170.0825 0.000875 L 188.05125 38.536031 " transform="matrix(1, 0, 0, -1, 73.48, 102.454)"/>
<path fill="none" stroke-width="0.3985" stroke-linecap="butt" stroke-linejoin="miter" stroke="rgb(50%, 50%, 50%)" stroke-opacity="1" stroke-miterlimit="10" d="M 170.0825 0.000875 L 184.625469 39.957906 " transform="matrix(1, 0, 0, -1, 73.48, 102.454)"/>
<path fill="none" stroke-width="0.3985" stroke-linecap="butt" stroke-linejoin="miter" stroke="rgb(50%, 50%, 50%)" stroke-opacity="1" stroke-miterlimit="10" d="M 170.0825 0.000875 L 181.086406 41.071187 " transform="matrix(1, 0, 0, -1, 73.48, 102.454)"/>
<path fill="none" stroke-width="0.3985" stroke-linecap="butt" stroke-linejoin="miter" stroke="rgb(50%, 50%, 50%)" stroke-opacity="1" stroke-miterlimit="10" d="M 170.0825 0.000875 L 177.465312 41.875875 " transform="matrix(1, 0, 0, -1, 73.48, 102.454)"/>
<path fill="none" stroke-width="0.3985" stroke-linecap="butt" stroke-linejoin="miter" stroke="rgb(50%, 50%, 50%)" stroke-opacity="1" stroke-miterlimit="10" d="M 170.0825 0.000875 L 173.785625 42.356344 " transform="matrix(1, 0, 0, -1, 73.48, 102.454)"/>
<path fill="none" stroke-width="0.3985" stroke-linecap="butt" stroke-linejoin="miter" stroke="rgb(50%, 50%, 50%)" stroke-opacity="1" stroke-miterlimit="10" d="M 170.0825 0.000875 L 170.0825 42.520406 " transform="matrix(1, 0, 0, -1, 73.48, 102.454)"/>
<path fill="none" stroke-width="0.3985" stroke-linecap="butt" stroke-linejoin="miter" stroke="rgb(50%, 50%, 50%)" stroke-opacity="1" stroke-miterlimit="10" d="M 170.0825 0.000875 L 166.375469 42.356344 " transform="matrix(1, 0, 0, -1, 73.48, 102.454)"/>
<path fill="none" stroke-width="0.3985" stroke-linecap="butt" stroke-linejoin="miter" stroke="rgb(50%, 50%, 50%)" stroke-opacity="1" stroke-miterlimit="10" d="M 170.0825 0.000875 L 162.695781 41.875875 " transform="matrix(1, 0, 0, -1, 73.48, 102.454)"/>
<path fill="none" stroke-width="0.3985" stroke-linecap="butt" stroke-linejoin="miter" stroke="rgb(50%, 50%, 50%)" stroke-opacity="1" stroke-miterlimit="10" d="M 170.0825 0.000875 L 159.074687 41.071187 " transform="matrix(1, 0, 0, -1, 73.48, 102.454)"/>
<path fill="none" stroke-width="0.3985" stroke-linecap="butt" stroke-linejoin="miter" stroke="rgb(50%, 50%, 50%)" stroke-opacity="1" stroke-miterlimit="10" d="M 170.0825 0.000875 L 155.539531 39.957906 " transform="matrix(1, 0, 0, -1, 73.48, 102.454)"/>
<path fill="none" stroke-width="0.3985" stroke-linecap="butt" stroke-linejoin="miter" stroke="rgb(50%, 50%, 50%)" stroke-opacity="1" stroke-miterlimit="10" d="M 170.0825 0.000875 L 152.109844 38.536031 " transform="matrix(1, 0, 0, -1, 73.48, 102.454)"/>
<path fill="none" stroke-width="0.3985" stroke-linecap="butt" stroke-linejoin="miter" stroke="rgb(50%, 50%, 50%)" stroke-opacity="1" stroke-miterlimit="10" d="M 170.0825 0.000875 L 148.820781 36.825094 " transform="matrix(1, 0, 0, -1, 73.48, 102.454)"/>
<path fill="none" stroke-width="0.3985" stroke-linecap="butt" stroke-linejoin="miter" stroke="rgb(50%, 50%, 50%)" stroke-opacity="1" stroke-miterlimit="10" d="M 170.0825 0.000875 L 145.691875 34.829 " transform="matrix(1, 0, 0, -1, 73.48, 102.454)"/>
<path fill="none" stroke-width="0.3985" stroke-linecap="butt" stroke-linejoin="miter" stroke="rgb(50%, 50%, 50%)" stroke-opacity="1" stroke-miterlimit="10" d="M 170.0825 0.000875 L 142.750469 32.571187 " transform="matrix(1, 0, 0, -1, 73.48, 102.454)"/>
<path fill="none" stroke-width="0.3985" stroke-linecap="butt" stroke-linejoin="miter" stroke="rgb(50%, 50%, 50%)" stroke-opacity="1" stroke-miterlimit="10" d="M 170.0825 0.000875 L 140.016094 30.067281 " transform="matrix(1, 0, 0, -1, 73.48, 102.454)"/>
<path fill="none" stroke-width="0.3985" stroke-linecap="butt" stroke-linejoin="miter" stroke="rgb(50%, 50%, 50%)" stroke-opacity="1" stroke-miterlimit="10" d="M 170.0825 0.000875 L 137.508281 27.332906 " transform="matrix(1, 0, 0, -1, 73.48, 102.454)"/>
<path fill="none" stroke-width="0.3985" stroke-linecap="butt" stroke-linejoin="miter" stroke="rgb(50%, 50%, 50%)" stroke-opacity="1" stroke-miterlimit="10" d="M 170.0825 0.000875 L 135.250469 24.387594 " transform="matrix(1, 0, 0, -1, 73.48, 102.454)"/>
<path fill="none" stroke-width="0.3985" stroke-linecap="butt" stroke-linejoin="miter" stroke="rgb(50%, 50%, 50%)" stroke-opacity="1" stroke-miterlimit="10" d="M 170.0825 0.000875 L 133.258281 21.258687 " transform="matrix(1, 0, 0, -1, 73.48, 102.454)"/>
<path fill="none" stroke-width="0.3985" stroke-linecap="butt" stroke-linejoin="miter" stroke="rgb(50%, 50%, 50%)" stroke-opacity="1" stroke-miterlimit="10" d="M 170.0825 0.000875 L 131.543437 17.969625 " transform="matrix(1, 0, 0, -1, 73.48, 102.454)"/>
<path fill="none" stroke-width="0.3985" stroke-linecap="butt" stroke-linejoin="miter" stroke="rgb(50%, 50%, 50%)" stroke-opacity="1" stroke-miterlimit="10" d="M 170.0825 0.000875 L 130.125469 14.543844 " transform="matrix(1, 0, 0, -1, 73.48, 102.454)"/>
<path fill="none" stroke-width="0.3985" stroke-linecap="butt" stroke-linejoin="miter" stroke="rgb(50%, 50%, 50%)" stroke-opacity="1" stroke-miterlimit="10" d="M 170.0825 0.000875 L 129.008281 11.004781 " transform="matrix(1, 0, 0, -1, 73.48, 102.454)"/>
<path fill="none" stroke-width="0.3985" stroke-linecap="butt" stroke-linejoin="miter" stroke="rgb(50%, 50%, 50%)" stroke-opacity="1" stroke-miterlimit="10" d="M 170.0825 0.000875 L 128.2075 7.383687 " transform="matrix(1, 0, 0, -1, 73.48, 102.454)"/>
<path fill="none" stroke-width="0.3985" stroke-linecap="butt" stroke-linejoin="miter" stroke="rgb(50%, 50%, 50%)" stroke-opacity="1" stroke-miterlimit="10" d="M 170.0825 0.000875 L 127.723125 3.707906 " transform="matrix(1, 0, 0, -1, 73.48, 102.454)"/>
<path fill="none" stroke-width="0.3985" stroke-linecap="butt" stroke-linejoin="miter" stroke="rgb(50%, 50%, 50%)" stroke-opacity="1" stroke-miterlimit="10" d="M 170.0825 0.000875 L 127.559062 0.000875 " transform="matrix(1, 0, 0, -1, 73.48, 102.454)"/>
<path fill="none" stroke-width="0.3985" stroke-linecap="butt" stroke-linejoin="miter" stroke="rgb(50%, 50%, 50%)" stroke-opacity="1" stroke-miterlimit="10" d="M 170.0825 0.000875 L 127.723125 -3.706156 " transform="matrix(1, 0, 0, -1, 73.48, 102.454)"/>
<path fill="none" stroke-width="0.3985" stroke-linecap="butt" stroke-linejoin="miter" stroke="rgb(50%, 50%, 50%)" stroke-opacity="1" stroke-miterlimit="10" d="M 170.0825 0.000875 L 128.2075 -7.381938 " transform="matrix(1, 0, 0, -1, 73.48, 102.454)"/>
<path fill="none" stroke-width="0.3985" stroke-linecap="butt" stroke-linejoin="miter" stroke="rgb(50%, 50%, 50%)" stroke-opacity="1" stroke-miterlimit="10" d="M 170.0825 0.000875 L 129.008281 -11.006938 " transform="matrix(1, 0, 0, -1, 73.48, 102.454)"/>
<path fill="none" stroke-width="0.3985" stroke-linecap="butt" stroke-linejoin="miter" stroke="rgb(50%, 50%, 50%)" stroke-opacity="1" stroke-miterlimit="10" d="M 170.0825 0.000875 L 130.125469 -14.542094 " transform="matrix(1, 0, 0, -1, 73.48, 102.454)"/>
<path fill="none" stroke-width="0.3985" stroke-linecap="butt" stroke-linejoin="miter" stroke="rgb(50%, 50%, 50%)" stroke-opacity="1" stroke-miterlimit="10" d="M 170.0825 0.000875 L 131.543437 -17.971781 " transform="matrix(1, 0, 0, -1, 73.48, 102.454)"/>
<path fill="none" stroke-width="0.3985" stroke-linecap="butt" stroke-linejoin="miter" stroke="rgb(50%, 50%, 50%)" stroke-opacity="1" stroke-miterlimit="10" d="M 170.0825 0.000875 L 133.258281 -21.260844 " transform="matrix(1, 0, 0, -1, 73.48, 102.454)"/>
<path fill="none" stroke-width="0.3985" stroke-linecap="butt" stroke-linejoin="miter" stroke="rgb(50%, 50%, 50%)" stroke-opacity="1" stroke-miterlimit="10" d="M 170.0825 0.000875 L 135.250469 -24.38975 " transform="matrix(1, 0, 0, -1, 73.48, 102.454)"/>
<path fill="none" stroke-width="0.3985" stroke-linecap="butt" stroke-linejoin="miter" stroke="rgb(50%, 50%, 50%)" stroke-opacity="1" stroke-miterlimit="10" d="M 170.0825 0.000875 L 137.508281 -27.331156 " transform="matrix(1, 0, 0, -1, 73.48, 102.454)"/>
<path fill="none" stroke-width="0.3985" stroke-linecap="butt" stroke-linejoin="miter" stroke="rgb(50%, 50%, 50%)" stroke-opacity="1" stroke-miterlimit="10" d="M 170.0825 0.000875 L 140.016094 -30.065531 " transform="matrix(1, 0, 0, -1, 73.48, 102.454)"/>
<path fill="none" stroke-width="0.3985" stroke-linecap="butt" stroke-linejoin="miter" stroke="rgb(50%, 50%, 50%)" stroke-opacity="1" stroke-miterlimit="10" d="M 170.0825 0.000875 L 142.750469 -32.573344 " transform="matrix(1, 0, 0, -1, 73.48, 102.454)"/>
<path fill="none" stroke-width="0.3985" stroke-linecap="butt" stroke-linejoin="miter" stroke="rgb(50%, 50%, 50%)" stroke-opacity="1" stroke-miterlimit="10" d="M 170.0825 0.000875 L 145.691875 -34.831156 " transform="matrix(1, 0, 0, -1, 73.48, 102.454)"/>
<path fill="none" stroke-width="0.3985" stroke-linecap="butt" stroke-linejoin="miter" stroke="rgb(50%, 50%, 50%)" stroke-opacity="1" stroke-miterlimit="10" d="M 170.0825 0.000875 L 148.820781 -36.823344 " transform="matrix(1, 0, 0, -1, 73.48, 102.454)"/>
<path fill="none" stroke-width="0.3985" stroke-linecap="butt" stroke-linejoin="miter" stroke="rgb(50%, 50%, 50%)" stroke-opacity="1" stroke-miterlimit="10" d="M 170.0825 0.000875 L 152.109844 -38.538188 " transform="matrix(1, 0, 0, -1, 73.48, 102.454)"/>
<path fill="none" stroke-width="0.3985" stroke-linecap="butt" stroke-linejoin="miter" stroke="rgb(50%, 50%, 50%)" stroke-opacity="1" stroke-miterlimit="10" d="M 170.0825 0.000875 L 155.539531 -39.956156 " transform="matrix(1, 0, 0, -1, 73.48, 102.454)"/>
<path fill="none" stroke-width="0.3985" stroke-linecap="butt" stroke-linejoin="miter" stroke="rgb(50%, 50%, 50%)" stroke-opacity="1" stroke-miterlimit="10" d="M 170.0825 0.000875 L 159.074687 -41.073344 " transform="matrix(1, 0, 0, -1, 73.48, 102.454)"/>
<path fill="none" stroke-width="0.3985" stroke-linecap="butt" stroke-linejoin="miter" stroke="rgb(50%, 50%, 50%)" stroke-opacity="1" stroke-miterlimit="10" d="M 170.0825 0.000875 L 162.695781 -41.874125 " transform="matrix(1, 0, 0, -1, 73.48, 102.454)"/>
<path fill="none" stroke-width="0.3985" stroke-linecap="butt" stroke-linejoin="miter" stroke="rgb(50%, 50%, 50%)" stroke-opacity="1" stroke-miterlimit="10" d="M 170.0825 0.000875 L 166.375469 -42.3585 " transform="matrix(1, 0, 0, -1, 73.48, 102.454)"/>
<path fill="none" stroke-width="0.3985" stroke-linecap="butt" stroke-linejoin="miter" stroke="rgb(50%, 50%, 50%)" stroke-opacity="1" stroke-miterlimit="10" d="M 170.0825 0.000875 L 170.0825 -42.518656 " transform="matrix(1, 0, 0, -1, 73.48, 102.454)"/>
<path fill="none" stroke-width="0.3985" stroke-linecap="butt" stroke-linejoin="miter" stroke="rgb(50%, 50%, 50%)" stroke-opacity="1" stroke-miterlimit="10" d="M 170.0825 0.000875 L 173.785625 -42.3585 " transform="matrix(1, 0, 0, -1, 73.48, 102.454)"/>
<path fill="none" stroke-width="0.3985" stroke-linecap="butt" stroke-linejoin="miter" stroke="rgb(50%, 50%, 50%)" stroke-opacity="1" stroke-miterlimit="10" d="M 170.0825 0.000875 L 177.465312 -41.874125 " transform="matrix(1, 0, 0, -1, 73.48, 102.454)"/>
<path fill="none" stroke-width="0.3985" stroke-linecap="butt" stroke-linejoin="miter" stroke="rgb(50%, 50%, 50%)" stroke-opacity="1" stroke-miterlimit="10" d="M 170.0825 0.000875 L 181.086406 -41.073344 " transform="matrix(1, 0, 0, -1, 73.48, 102.454)"/>
<path fill="none" stroke-width="0.3985" stroke-linecap="butt" stroke-linejoin="miter" stroke="rgb(50%, 50%, 50%)" stroke-opacity="1" stroke-miterlimit="10" d="M 170.0825 0.000875 L 184.625469 -39.956156 " transform="matrix(1, 0, 0, -1, 73.48, 102.454)"/>
<path fill="none" stroke-width="0.3985" stroke-linecap="butt" stroke-linejoin="miter" stroke="rgb(50%, 50%, 50%)" stroke-opacity="1" stroke-miterlimit="10" d="M 170.0825 0.000875 L 188.05125 -38.538188 " transform="matrix(1, 0, 0, -1, 73.48, 102.454)"/>
<path fill="none" stroke-width="0.3985" stroke-linecap="butt" stroke-linejoin="miter" stroke="rgb(50%, 50%, 50%)" stroke-opacity="1" stroke-miterlimit="10" d="M 170.0825 0.000875 L 191.340312 -36.823344 " transform="matrix(1, 0, 0, -1, 73.48, 102.454)"/>
<path fill="none" stroke-width="0.3985" stroke-linecap="butt" stroke-linejoin="miter" stroke="rgb(50%, 50%, 50%)" stroke-opacity="1" stroke-miterlimit="10" d="M 170.0825 0.000875 L 194.469219 -34.831156 " transform="matrix(1, 0, 0, -1, 73.48, 102.454)"/>
<path fill="none" stroke-width="0.3985" stroke-linecap="butt" stroke-linejoin="miter" stroke="rgb(50%, 50%, 50%)" stroke-opacity="1" stroke-miterlimit="10" d="M 170.0825 0.000875 L 197.410625 -32.573344 " transform="matrix(1, 0, 0, -1, 73.48, 102.454)"/>
<path fill="none" stroke-width="0.3985" stroke-linecap="butt" stroke-linejoin="miter" stroke="rgb(50%, 50%, 50%)" stroke-opacity="1" stroke-miterlimit="10" d="M 170.0825 0.000875 L 200.148906 -30.065531 " transform="matrix(1, 0, 0, -1, 73.48, 102.454)"/>
<path fill="none" stroke-width="0.3985" stroke-linecap="butt" stroke-linejoin="miter" stroke="rgb(50%, 50%, 50%)" stroke-opacity="1" stroke-miterlimit="10" d="M 170.0825 0.000875 L 202.652812 -27.331156 " transform="matrix(1, 0, 0, -1, 73.48, 102.454)"/>
<path fill="none" stroke-width="0.3985" stroke-linecap="butt" stroke-linejoin="miter" stroke="rgb(50%, 50%, 50%)" stroke-opacity="1" stroke-miterlimit="10" d="M 170.0825 0.000875 L 204.910625 -24.38975 " transform="matrix(1, 0, 0, -1, 73.48, 102.454)"/>
<path fill="none" stroke-width="0.3985" stroke-linecap="butt" stroke-linejoin="miter" stroke="rgb(50%, 50%, 50%)" stroke-opacity="1" stroke-miterlimit="10" d="M 170.0825 0.000875 L 206.902812 -21.260844 " transform="matrix(1, 0, 0, -1, 73.48, 102.454)"/>
<path fill="none" stroke-width="0.3985" stroke-linecap="butt" stroke-linejoin="miter" stroke="rgb(50%, 50%, 50%)" stroke-opacity="1" stroke-miterlimit="10" d="M 170.0825 0.000875 L 208.617656 -17.971781 " transform="matrix(1, 0, 0, -1, 73.48, 102.454)"/>
<path fill="none" stroke-width="0.3985" stroke-linecap="butt" stroke-linejoin="miter" stroke="rgb(50%, 50%, 50%)" stroke-opacity="1" stroke-miterlimit="10" d="M 170.0825 0.000875 L 210.035625 -14.542094 " transform="matrix(1, 0, 0, -1, 73.48, 102.454)"/>
<path fill="none" stroke-width="0.3985" stroke-linecap="butt" stroke-linejoin="miter" stroke="rgb(50%, 50%, 50%)" stroke-opacity="1" stroke-miterlimit="10" d="M 170.0825 0.000875 L 211.152812 -11.006938 " transform="matrix(1, 0, 0, -1, 73.48, 102.454)"/>
<path fill="none" stroke-width="0.3985" stroke-linecap="butt" stroke-linejoin="miter" stroke="rgb(50%, 50%, 50%)" stroke-opacity="1" stroke-miterlimit="10" d="M 170.0825 0.000875 L 211.953594 -7.381938 " transform="matrix(1, 0, 0, -1, 73.48, 102.454)"/>
<path fill="none" stroke-width="0.3985" stroke-linecap="butt" stroke-linejoin="miter" stroke="rgb(50%, 50%, 50%)" stroke-opacity="1" stroke-miterlimit="10" d="M 170.0825 0.000875 L 212.437969 -3.706156 " transform="matrix(1, 0, 0, -1, 73.48, 102.454)"/>
<g clip-path="url(#clip-1)">
<path fill="none" stroke-width="3.9851" stroke-linecap="butt" stroke-linejoin="miter" stroke="rgb(0%, 0%, 0%)" stroke-opacity="1" stroke-miterlimit="10" d="M 216.852031 0.000875 C 216.852031 25.832906 195.914531 46.770406 170.0825 46.770406 C 144.250469 46.770406 123.309062 25.832906 123.309062 0.000875 C 123.309062 -25.831156 144.250469 -46.772563 170.0825 -46.772563 C 195.914531 -46.772563 216.852031 -25.831156 216.852031 0.000875 Z M 216.852031 0.000875 " transform="matrix(1, 0, 0, -1, 73.48, 102.454)"/>
</g>
<path fill="none" stroke-width="0.3985" stroke-linecap="butt" stroke-linejoin="miter" stroke="rgb(0%, 0%, 0%)" stroke-opacity="1" stroke-miterlimit="10" d="M 212.602031 0.000875 C 212.602031 23.48525 193.562969 42.520406 170.0825 42.520406 C 146.598125 42.520406 127.559062 23.48525 127.559062 0.000875 C 127.559062 -23.4835 146.598125 -42.518656 170.0825 -42.518656 C 193.562969 -42.518656 212.602031 -23.4835 212.602031 0.000875 Z M 212.602031 0.000875 " transform="matrix(1, 0, 0, -1, 73.48, 102.454)"/>
<path fill-rule="nonzero" fill="rgb(0%, 0%, 0%)" fill-opacity="1" d="M 245.554688 102.453125 C 245.554688 101.355469 244.660156 100.460938 243.5625 100.460938 C 242.460938 100.460938 241.566406 101.355469 241.566406 102.453125 C 241.566406 103.554688 242.460938 104.445312 243.5625 104.445312 C 244.660156 104.445312 245.554688 103.554688 245.554688 102.453125 Z M 245.554688 102.453125 "/>
<path fill="none" stroke-width="0.99628" stroke-linecap="butt" stroke-linejoin="miter" stroke="rgb(0%, 0%, 0%)" stroke-opacity="1" stroke-miterlimit="10" d="M 0.00046875 5.668844 L 62.36375 11.336812 M 0.00046875 -5.671 L 62.36375 -11.338969 " transform="matrix(1, 0, 0, -1, 73.48, 102.454)"/>
<path fill="none" stroke-width="1.99255" stroke-linecap="butt" stroke-linejoin="miter" stroke="rgb(0%, 0%, 0%)" stroke-opacity="1" stroke-miterlimit="10" d="M 62.36375 0.000875 L 73.703594 -17.006938 M 62.36375 0.000875 L 51.023906 17.008687 " transform="matrix(1, 0, 0, -1, 73.48, 102.454)"/>
<path fill="none" stroke-width="3.9851" stroke-linecap="butt" stroke-linejoin="miter" stroke="rgb(0%, 0%, 0%)" stroke-opacity="1" stroke-miterlimit="10" d="M 47.621562 17.008687 L 54.992656 15.305562 " transform="matrix(1, 0, 0, -1, 73.48, 102.454)"/>
<path fill="none" stroke-width="2.83466" stroke-linecap="butt" stroke-linejoin="miter" stroke="rgb(0%, 29.998779%, 69.999695%)" stroke-opacity="1" stroke-miterlimit="10" d="M 170.0825 0.000875 L 157.875469 26.176656 C 156.016094 30.164937 153.5825 36.844625 152.445781 41.098531 L 139.098125 90.899312 " transform="matrix(1, 0, 0, -1, 73.48, 102.454)"/>
<path fill="none" stroke-width="2.83466" stroke-linecap="butt" stroke-linejoin="miter" stroke="rgb(0%, 29.998779%, 69.999695%)" stroke-opacity="1" stroke-miterlimit="10" d="M 170.0825 0.000875 L 156.969219 25.731344 C 154.969219 29.653219 152.309062 36.246969 151.02 40.457906 L 135.945781 89.762594 " transform="matrix(1, 0, 0, -1, 73.48, 102.454)"/>
<path fill="none" stroke-width="2.83466" stroke-linecap="butt" stroke-linejoin="miter" stroke="rgb(0%, 29.998779%, 69.999695%)" stroke-opacity="1" stroke-miterlimit="10" d="M 170.078594 0.000875 L 157.418437 25.957906 C 155.48875 29.914937 152.941875 36.551656 151.730937 40.782125 L 137.516094 90.344625 " transform="matrix(1, 0, 0, -1, 73.48, 102.454)"/>
<path fill="none" stroke-width="4.252" stroke-linecap="butt" stroke-linejoin="miter" stroke="rgb(0%, 29.998779%, 69.999695%)" stroke-opacity="1" stroke-miterlimit="10" d="M 137.516094 90.344625 L 138.254375 86.157125 L 149.594219 86.157125 L 148.17625 86.157125 " transform="matrix(1, 0, 0, -1, 73.48, 102.454)"/>
<g clip-path="url(#clip-2)">
<path fill="none" stroke-width="4.252" stroke-linecap="butt" stroke-linejoin="miter" stroke="rgb(0%, 29.998779%, 69.999695%)" stroke-opacity="1" stroke-miterlimit="10" d="M 148.17625 86.157125 L 160.453594 79.071187 " transform="matrix(1, 0, 0, -1, 73.48, 102.454)"/>
</g>
<g clip-path="url(#clip-3)">
<path fill="none" stroke-width="4.252" stroke-linecap="butt" stroke-linejoin="miter" stroke="rgb(0%, 0%, 0%)" stroke-opacity="1" stroke-miterlimit="10" d="M 160.453594 79.071187 L 172.727031 71.981344 " transform="matrix(1, 0, 0, -1, 73.48, 102.454)"/>
</g>
<path fill="none" stroke-width="4.252" stroke-linecap="butt" stroke-linejoin="miter" stroke="rgb(0%, 29.998779%, 69.999695%)" stroke-opacity="1" stroke-miterlimit="10" d="M 148.17625 86.157125 L 135.902812 93.243062 " transform="matrix(1, 0, 0, -1, 73.48, 102.454)"/>
<path fill="none" stroke-width="4.252" stroke-linecap="butt" stroke-linejoin="miter" stroke="rgb(0%, 0%, 0%)" stroke-opacity="1" stroke-miterlimit="10" d="M 135.902812 93.243062 L 123.629375 100.329 " transform="matrix(1, 0, 0, -1, 73.48, 102.454)"/>
<g clip-path="url(#clip-4)">
<path fill="none" stroke-width="5.66934" stroke-linecap="butt" stroke-linejoin="miter" stroke="rgb(0%, 29.998779%, 69.999695%)" stroke-opacity="1" stroke-miterlimit="10" d="M 62.36375 0.000875 L 148.277812 60.157125 L 144.398906 70.813375 L 46.691875 53.586812 L 62.36375 0.000875 " transform="matrix(1, 0, 0, -1, 73.48, 102.454)"/>
</g>
<path fill="none" stroke-width="2.83466" stroke-linecap="butt" stroke-linejoin="miter" stroke="rgb(0%, 29.998779%, 69.999695%)" stroke-opacity="1" stroke-miterlimit="10" d="M 0.00046875 0.000875 L 62.36375 0.000875 M 0.00046875 0.000875 L 50.109844 50.11025 M 0.00046875 0.000875 L 48.777812 51.403219 M 0.00046875 0.000875 L 62.324687 2.176656 " transform="matrix(1, 0, 0, -1, 73.48, 102.454)"/>
<path fill="none" stroke-width="3.4016" stroke-linecap="butt" stroke-linejoin="miter" stroke="rgb(0%, 29.998779%, 69.999695%)" stroke-opacity="1" stroke-miterlimit="10" d="M 46.691875 53.586812 L 39.660625 78.11025 L 40.441875 75.383687 " transform="matrix(1, 0, 0, -1, 73.48, 102.454)"/>
<path fill-rule="nonzero" fill="rgb(50%, 50%, 50%)" fill-opacity="1" stroke-width="1.99255" stroke-linecap="butt" stroke-linejoin="miter" stroke="rgb(0%, 0%, 0%)" stroke-opacity="1" stroke-miterlimit="10" d="M 73.699687 0.000875 C 73.699687 6.262594 68.625469 11.336812 62.36375 11.336812 C 56.102031 11.336812 51.023906 6.262594 51.023906 0.000875 C 51.023906 -6.260844 56.102031 -11.338969 62.36375 -11.338969 C 68.625469 -11.338969 73.699687 -6.260844 73.699687 0.000875 Z M 73.699687 0.000875 " transform="matrix(1, 0, 0, -1, 73.48, 102.454)"/>
<path fill-rule="nonzero" fill="rgb(0%, 0%, 0%)" fill-opacity="1" d="M 138.679688 102.453125 C 138.679688 100.886719 137.410156 99.621094 135.84375 99.621094 C 134.277344 99.621094 133.007812 100.886719 133.007812 102.453125 C 133.007812 104.019531 134.277344 105.289062 135.84375 105.289062 C 137.410156 105.289062 138.679688 104.019531 138.679688 102.453125 Z M 138.679688 102.453125 "/>
<g clip-path="url(#clip-5)">
<path fill="none" stroke-width="3.9851" stroke-linecap="butt" stroke-linejoin="miter" stroke="rgb(0%, 0%, 0%)" stroke-opacity="1" stroke-miterlimit="10" d="M 68.031719 -16.440531 L 75.969219 -15.874125 " transform="matrix(1, 0, 0, -1, 73.48, 102.454)"/>
</g>
<path fill="none" stroke-width="1.99255" stroke-linecap="butt" stroke-linejoin="miter" stroke="rgb(0%, 0%, 0%)" stroke-opacity="1" stroke-miterlimit="10" d="M 62.36375 0.000875 L 73.703594 -17.006938 " transform="matrix(1, 0, 0, -1, 73.48, 102.454)"/>
<path fill-rule="nonzero" fill="rgb(0%, 0%, 0%)" fill-opacity="1" d="M 115.886719 26.722656 L 134.292969 23.480469 C 135.378906 23.289062 136.253906 22.242188 136.253906 21.140625 L 136.253906 22.289062 C 136.253906 21.191406 135.363281 20.296875 134.261719 20.296875 L 115.570312 20.296875 C 114.46875 20.296875 112.699219 20.144531 111.617188 19.953125 L 96 17.199219 C 94.914062 17.007812 94.34375 17.691406 94.71875 18.726562 L 98.203125 28.296875 C 98.578125 29.332031 99.757812 29.992188 100.835938 29.769531 L 111.972656 27.472656 C 113.050781 27.25 114.800781 26.914062 115.886719 26.722656 Z M 115.886719 26.722656 "/>
<g clip-path="url(#clip-6)">
<path fill="none" stroke-width="1.99255" stroke-linecap="butt" stroke-linejoin="miter" stroke="rgb(75%, 50%, 25%)" stroke-opacity="1" stroke-miterlimit="10" d="M -23.38625 -40.506938 L -65.651875 -16.104594 " transform="matrix(1, 0, 0, -1, 73.48, 102.454)"/>
</g>
<path fill-rule="nonzero" fill="rgb(75%, 50%, 25%)" fill-opacity="1" d="M 0.996094 114.613281 C 2.800781 116.160156 5.433594 119.199219 6.945312 121.84375 L 10.230469 116.148438 C 7.1875 116.164062 3.238281 115.402344 0.996094 114.613281 "/>
<g clip-path="url(#clip-7)">
<path fill="none" stroke-width="1.99255" stroke-linecap="butt" stroke-linejoin="miter" stroke="rgb(75%, 50%, 25%)" stroke-opacity="1" stroke-miterlimit="10" d="M -35.827656 -30.065531 L -67.19875 7.321187 " transform="matrix(1, 0, 0, -1, 73.48, 102.454)"/>
</g>
<path fill-rule="nonzero" fill="rgb(75%, 50%, 25%)" fill-opacity="1" d="M 1.207031 89.089844 C 2.375 91.160156 3.808594 94.917969 4.324219 97.917969 L 9.363281 93.691406 C 6.496094 92.664062 3.046875 90.597656 1.207031 89.089844 "/>
<path fill="none" stroke-width="1.99255" stroke-linecap="butt" stroke-linejoin="miter" stroke="rgb(75%, 50%, 25%)" stroke-opacity="1" stroke-miterlimit="10" d="M -43.952656 -15.999125 L -60.644063 29.864156 " transform="matrix(1, 0, 0, -1, 73.48, 102.454)"/>
<path fill-rule="nonzero" fill="rgb(75%, 50%, 25%)" fill-opacity="1" d="M 10.136719 65.175781 C 10.527344 67.523438 10.589844 71.542969 10.046875 74.539062 L 16.226562 72.289062 C 13.882812 70.34375 11.347656 67.222656 10.136719 65.175781 "/>
</svg>
