<?xml version="1.0" encoding="UTF-8"?>
<svg xmlns="http://www.w3.org/2000/svg" xmlns:xlink="http://www.w3.org/1999/xlink" width="300.901pt" height="159.797pt" viewBox="0 0 300.901 159.797" version="1.1">
<defs>
<clipPath id="clip1">
  <path d="M 0 0 L 300.902344 0 L 300.902344 159.796875 L 0 159.796875 Z M 0 0 "/>
</clipPath>
<clipPath id="clip2">
  <path d="M 0 3 L 181 3 L 181 159.796875 L 0 159.796875 Z M 0 3 "/>
</clipPath>
<clipPath id="clip3">
  <path d="M 144 3 L 300.902344 3 L 300.902344 159.796875 L 144 159.796875 Z M 144 3 "/>
</clipPath>
<clipPath id="clip4">
  <path d="M 178 0 L 300.902344 0 L 300.902344 95 L 178 95 Z M 178 0 "/>
</clipPath>
<clipPath id="clip5">
  <path d="M 44 0 L 300.902344 0 L 300.902344 159.796875 L 44 159.796875 Z M 44 0 "/>
</clipPath>
<clipPath id="clip6">
  <path d="M 89 66 L 211 66 L 211 159.796875 L 89 159.796875 Z M 89 66 "/>
</clipPath>
<clipPath id="clip7">
  <path d="M 0 94 L 83 94 L 83 159.796875 L 0 159.796875 Z M 0 94 "/>
</clipPath>
<clipPath id="clip8">
  <path d="M 0 71 L 71 71 L 71 159.796875 L 0 159.796875 Z M 0 71 "/>
</clipPath>
</defs>
<g id="surface1">
<g clip-path="url(#clip1)" clip-rule="nonzero">
<path style=" stroke:none;fill-rule:nonzero;fill:rgb(0%,0%,0%);fill-opacity:1;" d="M 0 159.796875 L 0 0 L 300.902344 0 L 300.902344 159.796875 Z M 0 159.796875 "/>
<path style=" stroke:none;fill-rule:nonzero;fill:rgb(0%,0%,0%);fill-opacity:1;" d="M 0 159.796875 L 0 0 L 300.902344 0 L 300.902344 159.796875 Z M 0 159.796875 "/>
</g>
<path style="fill:none;stroke-width:0.3985;stroke-linecap:butt;stroke-linejoin:miter;stroke:rgb(50%,50%,50%);stroke-opacity:1;stroke-miterlimit:10;" d="M 0.00053125 0.0018125 L 42.520062 0.0018125 " transform="matrix(1,0,0,-1,77.769,106.744)"/>
<path style="fill:none;stroke-width:0.3985;stroke-linecap:butt;stroke-linejoin:miter;stroke:rgb(50%,50%,50%);stroke-opacity:1;stroke-miterlimit:10;" d="M 0.00053125 0.0018125 L 42.359906 3.704937 " transform="matrix(1,0,0,-1,77.769,106.744)"/>
<path style="fill:none;stroke-width:0.3985;stroke-linecap:butt;stroke-linejoin:miter;stroke:rgb(50%,50%,50%);stroke-opacity:1;stroke-miterlimit:10;" d="M 0.00053125 0.0018125 L 41.875531 7.384625 " transform="matrix(1,0,0,-1,77.769,106.744)"/>
<path style="fill:none;stroke-width:0.3985;stroke-linecap:butt;stroke-linejoin:miter;stroke:rgb(50%,50%,50%);stroke-opacity:1;stroke-miterlimit:10;" d="M 0.00053125 0.0018125 L 41.070844 11.005719 " transform="matrix(1,0,0,-1,77.769,106.744)"/>
<path style="fill:none;stroke-width:0.3985;stroke-linecap:butt;stroke-linejoin:miter;stroke:rgb(50%,50%,50%);stroke-opacity:1;stroke-miterlimit:10;" d="M 0.00053125 0.0018125 L 39.957562 14.544781 " transform="matrix(1,0,0,-1,77.769,106.744)"/>
<path style="fill:none;stroke-width:0.3985;stroke-linecap:butt;stroke-linejoin:miter;stroke:rgb(50%,50%,50%);stroke-opacity:1;stroke-miterlimit:10;" d="M 0.00053125 0.0018125 L 38.535687 17.970562 " transform="matrix(1,0,0,-1,77.769,106.744)"/>
<path style="fill:none;stroke-width:0.3985;stroke-linecap:butt;stroke-linejoin:miter;stroke:rgb(50%,50%,50%);stroke-opacity:1;stroke-miterlimit:10;" d="M 0.00053125 0.0018125 L 36.82475 21.259625 " transform="matrix(1,0,0,-1,77.769,106.744)"/>
<path style="fill:none;stroke-width:0.3985;stroke-linecap:butt;stroke-linejoin:miter;stroke:rgb(50%,50%,50%);stroke-opacity:1;stroke-miterlimit:10;" d="M 0.00053125 0.0018125 L 34.828656 24.388531 " transform="matrix(1,0,0,-1,77.769,106.744)"/>
<path style="fill:none;stroke-width:0.3985;stroke-linecap:butt;stroke-linejoin:miter;stroke:rgb(50%,50%,50%);stroke-opacity:1;stroke-miterlimit:10;" d="M 0.00053125 0.0018125 L 32.570844 27.329937 " transform="matrix(1,0,0,-1,77.769,106.744)"/>
<path style="fill:none;stroke-width:0.3985;stroke-linecap:butt;stroke-linejoin:miter;stroke:rgb(50%,50%,50%);stroke-opacity:1;stroke-miterlimit:10;" d="M 0.00053125 0.0018125 L 30.066937 30.068219 " transform="matrix(1,0,0,-1,77.769,106.744)"/>
<path style="fill:none;stroke-width:0.3985;stroke-linecap:butt;stroke-linejoin:miter;stroke:rgb(50%,50%,50%);stroke-opacity:1;stroke-miterlimit:10;" d="M 0.00053125 0.0018125 L 27.332562 32.572125 " transform="matrix(1,0,0,-1,77.769,106.744)"/>
<path style="fill:none;stroke-width:0.3985;stroke-linecap:butt;stroke-linejoin:miter;stroke:rgb(50%,50%,50%);stroke-opacity:1;stroke-miterlimit:10;" d="M 0.00053125 0.0018125 L 24.38725 34.829937 " transform="matrix(1,0,0,-1,77.769,106.744)"/>
<path style="fill:none;stroke-width:0.3985;stroke-linecap:butt;stroke-linejoin:miter;stroke:rgb(50%,50%,50%);stroke-opacity:1;stroke-miterlimit:10;" d="M 0.00053125 0.0018125 L 21.258344 36.822125 " transform="matrix(1,0,0,-1,77.769,106.744)"/>
<path style="fill:none;stroke-width:0.3985;stroke-linecap:butt;stroke-linejoin:miter;stroke:rgb(50%,50%,50%);stroke-opacity:1;stroke-miterlimit:10;" d="M 0.00053125 0.0018125 L 17.969281 38.536969 " transform="matrix(1,0,0,-1,77.769,106.744)"/>
<path style="fill:none;stroke-width:0.3985;stroke-linecap:butt;stroke-linejoin:miter;stroke:rgb(50%,50%,50%);stroke-opacity:1;stroke-miterlimit:10;" d="M 0.00053125 0.0018125 L 14.5435 39.954937 " transform="matrix(1,0,0,-1,77.769,106.744)"/>
<path style="fill:none;stroke-width:0.3985;stroke-linecap:butt;stroke-linejoin:miter;stroke:rgb(50%,50%,50%);stroke-opacity:1;stroke-miterlimit:10;" d="M 0.00053125 0.0018125 L 11.004437 41.072125 " transform="matrix(1,0,0,-1,77.769,106.744)"/>
<path style="fill:none;stroke-width:0.3985;stroke-linecap:butt;stroke-linejoin:miter;stroke:rgb(50%,50%,50%);stroke-opacity:1;stroke-miterlimit:10;" d="M 0.00053125 0.0018125 L 7.383344 41.872906 " transform="matrix(1,0,0,-1,77.769,106.744)"/>
<path style="fill:none;stroke-width:0.3985;stroke-linecap:butt;stroke-linejoin:miter;stroke:rgb(50%,50%,50%);stroke-opacity:1;stroke-miterlimit:10;" d="M 0.00053125 0.0018125 L 3.707562 42.357281 " transform="matrix(1,0,0,-1,77.769,106.744)"/>
<path style="fill:none;stroke-width:0.3985;stroke-linecap:butt;stroke-linejoin:miter;stroke:rgb(50%,50%,50%);stroke-opacity:1;stroke-miterlimit:10;" d="M 0.00053125 0.0018125 L 0.00053125 42.521344 " transform="matrix(1,0,0,-1,77.769,106.744)"/>
<path style="fill:none;stroke-width:0.3985;stroke-linecap:butt;stroke-linejoin:miter;stroke:rgb(50%,50%,50%);stroke-opacity:1;stroke-miterlimit:10;" d="M 0.00053125 0.0018125 L -3.7065 42.357281 " transform="matrix(1,0,0,-1,77.769,106.744)"/>
<path style="fill:none;stroke-width:0.3985;stroke-linecap:butt;stroke-linejoin:miter;stroke:rgb(50%,50%,50%);stroke-opacity:1;stroke-miterlimit:10;" d="M 0.00053125 0.0018125 L -7.382281 41.872906 " transform="matrix(1,0,0,-1,77.769,106.744)"/>
<path style="fill:none;stroke-width:0.3985;stroke-linecap:butt;stroke-linejoin:miter;stroke:rgb(50%,50%,50%);stroke-opacity:1;stroke-miterlimit:10;" d="M 0.00053125 0.0018125 L -11.003375 41.072125 " transform="matrix(1,0,0,-1,77.769,106.744)"/>
<path style="fill:none;stroke-width:0.3985;stroke-linecap:butt;stroke-linejoin:miter;stroke:rgb(50%,50%,50%);stroke-opacity:1;stroke-miterlimit:10;" d="M 0.00053125 0.0018125 L -14.542438 39.954937 " transform="matrix(1,0,0,-1,77.769,106.744)"/>
<path style="fill:none;stroke-width:0.3985;stroke-linecap:butt;stroke-linejoin:miter;stroke:rgb(50%,50%,50%);stroke-opacity:1;stroke-miterlimit:10;" d="M 0.00053125 0.0018125 L -17.968219 38.536969 " transform="matrix(1,0,0,-1,77.769,106.744)"/>
<path style="fill:none;stroke-width:0.3985;stroke-linecap:butt;stroke-linejoin:miter;stroke:rgb(50%,50%,50%);stroke-opacity:1;stroke-miterlimit:10;" d="M 0.00053125 0.0018125 L -21.261188 36.822125 " transform="matrix(1,0,0,-1,77.769,106.744)"/>
<path style="fill:none;stroke-width:0.3985;stroke-linecap:butt;stroke-linejoin:miter;stroke:rgb(50%,50%,50%);stroke-opacity:1;stroke-miterlimit:10;" d="M 0.00053125 0.0018125 L -24.390094 34.829937 " transform="matrix(1,0,0,-1,77.769,106.744)"/>
<path style="fill:none;stroke-width:0.3985;stroke-linecap:butt;stroke-linejoin:miter;stroke:rgb(50%,50%,50%);stroke-opacity:1;stroke-miterlimit:10;" d="M 0.00053125 0.0018125 L -27.3315 32.572125 " transform="matrix(1,0,0,-1,77.769,106.744)"/>
<path style="fill:none;stroke-width:0.3985;stroke-linecap:butt;stroke-linejoin:miter;stroke:rgb(50%,50%,50%);stroke-opacity:1;stroke-miterlimit:10;" d="M 0.00053125 0.0018125 L -30.065875 30.068219 " transform="matrix(1,0,0,-1,77.769,106.744)"/>
<path style="fill:none;stroke-width:0.3985;stroke-linecap:butt;stroke-linejoin:miter;stroke:rgb(50%,50%,50%);stroke-opacity:1;stroke-miterlimit:10;" d="M 0.00053125 0.0018125 L -32.573688 27.329937 " transform="matrix(1,0,0,-1,77.769,106.744)"/>
<path style="fill:none;stroke-width:0.3985;stroke-linecap:butt;stroke-linejoin:miter;stroke:rgb(50%,50%,50%);stroke-opacity:1;stroke-miterlimit:10;" d="M 0.00053125 0.0018125 L -34.8315 24.388531 " transform="matrix(1,0,0,-1,77.769,106.744)"/>
<path style="fill:none;stroke-width:0.3985;stroke-linecap:butt;stroke-linejoin:miter;stroke:rgb(50%,50%,50%);stroke-opacity:1;stroke-miterlimit:10;" d="M 0.00053125 0.0018125 L -36.823688 21.259625 " transform="matrix(1,0,0,-1,77.769,106.744)"/>
<path style="fill:none;stroke-width:0.3985;stroke-linecap:butt;stroke-linejoin:miter;stroke:rgb(50%,50%,50%);stroke-opacity:1;stroke-miterlimit:10;" d="M 0.00053125 0.0018125 L -38.534625 17.970562 " transform="matrix(1,0,0,-1,77.769,106.744)"/>
<path style="fill:none;stroke-width:0.3985;stroke-linecap:butt;stroke-linejoin:miter;stroke:rgb(50%,50%,50%);stroke-opacity:1;stroke-miterlimit:10;" d="M 0.00053125 0.0018125 L -39.9565 14.544781 " transform="matrix(1,0,0,-1,77.769,106.744)"/>
<path style="fill:none;stroke-width:0.3985;stroke-linecap:butt;stroke-linejoin:miter;stroke:rgb(50%,50%,50%);stroke-opacity:1;stroke-miterlimit:10;" d="M 0.00053125 0.0018125 L -41.069781 11.005719 " transform="matrix(1,0,0,-1,77.769,106.744)"/>
<path style="fill:none;stroke-width:0.3985;stroke-linecap:butt;stroke-linejoin:miter;stroke:rgb(50%,50%,50%);stroke-opacity:1;stroke-miterlimit:10;" d="M 0.00053125 0.0018125 L -41.874469 7.384625 " transform="matrix(1,0,0,-1,77.769,106.744)"/>
<path style="fill:none;stroke-width:0.3985;stroke-linecap:butt;stroke-linejoin:miter;stroke:rgb(50%,50%,50%);stroke-opacity:1;stroke-miterlimit:10;" d="M 0.00053125 0.0018125 L -42.358844 3.704937 " transform="matrix(1,0,0,-1,77.769,106.744)"/>
<path style="fill:none;stroke-width:0.3985;stroke-linecap:butt;stroke-linejoin:miter;stroke:rgb(50%,50%,50%);stroke-opacity:1;stroke-miterlimit:10;" d="M 0.00053125 0.0018125 L -42.519 0.0018125 " transform="matrix(1,0,0,-1,77.769,106.744)"/>
<path style="fill:none;stroke-width:0.3985;stroke-linecap:butt;stroke-linejoin:miter;stroke:rgb(50%,50%,50%);stroke-opacity:1;stroke-miterlimit:10;" d="M 0.00053125 0.0018125 L -42.358844 -3.705219 " transform="matrix(1,0,0,-1,77.769,106.744)"/>
<path style="fill:none;stroke-width:0.3985;stroke-linecap:butt;stroke-linejoin:miter;stroke:rgb(50%,50%,50%);stroke-opacity:1;stroke-miterlimit:10;" d="M 0.00053125 0.0018125 L -41.874469 -7.384906 " transform="matrix(1,0,0,-1,77.769,106.744)"/>
<path style="fill:none;stroke-width:0.3985;stroke-linecap:butt;stroke-linejoin:miter;stroke:rgb(50%,50%,50%);stroke-opacity:1;stroke-miterlimit:10;" d="M 0.00053125 0.0018125 L -41.069781 -11.006 " transform="matrix(1,0,0,-1,77.769,106.744)"/>
<path style="fill:none;stroke-width:0.3985;stroke-linecap:butt;stroke-linejoin:miter;stroke:rgb(50%,50%,50%);stroke-opacity:1;stroke-miterlimit:10;" d="M 0.00053125 0.0018125 L -39.9565 -14.541156 " transform="matrix(1,0,0,-1,77.769,106.744)"/>
<path style="fill:none;stroke-width:0.3985;stroke-linecap:butt;stroke-linejoin:miter;stroke:rgb(50%,50%,50%);stroke-opacity:1;stroke-miterlimit:10;" d="M 0.00053125 0.0018125 L -38.534625 -17.970844 " transform="matrix(1,0,0,-1,77.769,106.744)"/>
<path style="fill:none;stroke-width:0.3985;stroke-linecap:butt;stroke-linejoin:miter;stroke:rgb(50%,50%,50%);stroke-opacity:1;stroke-miterlimit:10;" d="M 0.00053125 0.0018125 L -36.823688 -21.259906 " transform="matrix(1,0,0,-1,77.769,106.744)"/>
<path style="fill:none;stroke-width:0.3985;stroke-linecap:butt;stroke-linejoin:miter;stroke:rgb(50%,50%,50%);stroke-opacity:1;stroke-miterlimit:10;" d="M 0.00053125 0.0018125 L -34.8315 -24.388813 " transform="matrix(1,0,0,-1,77.769,106.744)"/>
<path style="fill:none;stroke-width:0.3985;stroke-linecap:butt;stroke-linejoin:miter;stroke:rgb(50%,50%,50%);stroke-opacity:1;stroke-miterlimit:10;" d="M 0.00053125 0.0018125 L -32.573688 -27.330219 " transform="matrix(1,0,0,-1,77.769,106.744)"/>
<path style="fill:none;stroke-width:0.3985;stroke-linecap:butt;stroke-linejoin:miter;stroke:rgb(50%,50%,50%);stroke-opacity:1;stroke-miterlimit:10;" d="M 0.00053125 0.0018125 L -30.065875 -30.064594 " transform="matrix(1,0,0,-1,77.769,106.744)"/>
<path style="fill:none;stroke-width:0.3985;stroke-linecap:butt;stroke-linejoin:miter;stroke:rgb(50%,50%,50%);stroke-opacity:1;stroke-miterlimit:10;" d="M 0.00053125 0.0018125 L -27.3315 -32.572406 " transform="matrix(1,0,0,-1,77.769,106.744)"/>
<path style="fill:none;stroke-width:0.3985;stroke-linecap:butt;stroke-linejoin:miter;stroke:rgb(50%,50%,50%);stroke-opacity:1;stroke-miterlimit:10;" d="M 0.00053125 0.0018125 L -24.390094 -34.830219 " transform="matrix(1,0,0,-1,77.769,106.744)"/>
<path style="fill:none;stroke-width:0.3985;stroke-linecap:butt;stroke-linejoin:miter;stroke:rgb(50%,50%,50%);stroke-opacity:1;stroke-miterlimit:10;" d="M 0.00053125 0.0018125 L -21.261188 -36.822406 " transform="matrix(1,0,0,-1,77.769,106.744)"/>
<path style="fill:none;stroke-width:0.3985;stroke-linecap:butt;stroke-linejoin:miter;stroke:rgb(50%,50%,50%);stroke-opacity:1;stroke-miterlimit:10;" d="M 0.00053125 0.0018125 L -17.968219 -38.53725 " transform="matrix(1,0,0,-1,77.769,106.744)"/>
<path style="fill:none;stroke-width:0.3985;stroke-linecap:butt;stroke-linejoin:miter;stroke:rgb(50%,50%,50%);stroke-opacity:1;stroke-miterlimit:10;" d="M 0.00053125 0.0018125 L -14.542438 -39.955219 " transform="matrix(1,0,0,-1,77.769,106.744)"/>
<path style="fill:none;stroke-width:0.3985;stroke-linecap:butt;stroke-linejoin:miter;stroke:rgb(50%,50%,50%);stroke-opacity:1;stroke-miterlimit:10;" d="M 0.00053125 0.0018125 L -11.003375 -41.072406 " transform="matrix(1,0,0,-1,77.769,106.744)"/>
<path style="fill:none;stroke-width:0.3985;stroke-linecap:butt;stroke-linejoin:miter;stroke:rgb(50%,50%,50%);stroke-opacity:1;stroke-miterlimit:10;" d="M 0.00053125 0.0018125 L -7.382281 -41.873188 " transform="matrix(1,0,0,-1,77.769,106.744)"/>
<path style="fill:none;stroke-width:0.3985;stroke-linecap:butt;stroke-linejoin:miter;stroke:rgb(50%,50%,50%);stroke-opacity:1;stroke-miterlimit:10;" d="M 0.00053125 0.0018125 L -3.7065 -42.357563 " transform="matrix(1,0,0,-1,77.769,106.744)"/>
<path style="fill:none;stroke-width:0.3985;stroke-linecap:butt;stroke-linejoin:miter;stroke:rgb(50%,50%,50%);stroke-opacity:1;stroke-miterlimit:10;" d="M 0.00053125 0.0018125 L 0.00053125 -42.521625 " transform="matrix(1,0,0,-1,77.769,106.744)"/>
<path style="fill:none;stroke-width:0.3985;stroke-linecap:butt;stroke-linejoin:miter;stroke:rgb(50%,50%,50%);stroke-opacity:1;stroke-miterlimit:10;" d="M 0.00053125 0.0018125 L 3.707562 -42.357563 " transform="matrix(1,0,0,-1,77.769,106.744)"/>
<path style="fill:none;stroke-width:0.3985;stroke-linecap:butt;stroke-linejoin:miter;stroke:rgb(50%,50%,50%);stroke-opacity:1;stroke-miterlimit:10;" d="M 0.00053125 0.0018125 L 7.383344 -41.873188 " transform="matrix(1,0,0,-1,77.769,106.744)"/>
<path style="fill:none;stroke-width:0.3985;stroke-linecap:butt;stroke-linejoin:miter;stroke:rgb(50%,50%,50%);stroke-opacity:1;stroke-miterlimit:10;" d="M 0.00053125 0.0018125 L 11.004437 -41.072406 " transform="matrix(1,0,0,-1,77.769,106.744)"/>
<path style="fill:none;stroke-width:0.3985;stroke-linecap:butt;stroke-linejoin:miter;stroke:rgb(50%,50%,50%);stroke-opacity:1;stroke-miterlimit:10;" d="M 0.00053125 0.0018125 L 14.5435 -39.955219 " transform="matrix(1,0,0,-1,77.769,106.744)"/>
<path style="fill:none;stroke-width:0.3985;stroke-linecap:butt;stroke-linejoin:miter;stroke:rgb(50%,50%,50%);stroke-opacity:1;stroke-miterlimit:10;" d="M 0.00053125 0.0018125 L 17.969281 -38.53725 " transform="matrix(1,0,0,-1,77.769,106.744)"/>
<path style="fill:none;stroke-width:0.3985;stroke-linecap:butt;stroke-linejoin:miter;stroke:rgb(50%,50%,50%);stroke-opacity:1;stroke-miterlimit:10;" d="M 0.00053125 0.0018125 L 21.258344 -36.822406 " transform="matrix(1,0,0,-1,77.769,106.744)"/>
<path style="fill:none;stroke-width:0.3985;stroke-linecap:butt;stroke-linejoin:miter;stroke:rgb(50%,50%,50%);stroke-opacity:1;stroke-miterlimit:10;" d="M 0.00053125 0.0018125 L 24.38725 -34.830219 " transform="matrix(1,0,0,-1,77.769,106.744)"/>
<path style="fill:none;stroke-width:0.3985;stroke-linecap:butt;stroke-linejoin:miter;stroke:rgb(50%,50%,50%);stroke-opacity:1;stroke-miterlimit:10;" d="M 0.00053125 0.0018125 L 27.332562 -32.572406 " transform="matrix(1,0,0,-1,77.769,106.744)"/>
<path style="fill:none;stroke-width:0.3985;stroke-linecap:butt;stroke-linejoin:miter;stroke:rgb(50%,50%,50%);stroke-opacity:1;stroke-miterlimit:10;" d="M 0.00053125 0.0018125 L 30.066937 -30.064594 " transform="matrix(1,0,0,-1,77.769,106.744)"/>
<path style="fill:none;stroke-width:0.3985;stroke-linecap:butt;stroke-linejoin:miter;stroke:rgb(50%,50%,50%);stroke-opacity:1;stroke-miterlimit:10;" d="M 0.00053125 0.0018125 L 32.570844 -27.330219 " transform="matrix(1,0,0,-1,77.769,106.744)"/>
<path style="fill:none;stroke-width:0.3985;stroke-linecap:butt;stroke-linejoin:miter;stroke:rgb(50%,50%,50%);stroke-opacity:1;stroke-miterlimit:10;" d="M 0.00053125 0.0018125 L 34.828656 -24.388813 " transform="matrix(1,0,0,-1,77.769,106.744)"/>
<path style="fill:none;stroke-width:0.3985;stroke-linecap:butt;stroke-linejoin:miter;stroke:rgb(50%,50%,50%);stroke-opacity:1;stroke-miterlimit:10;" d="M 0.00053125 0.0018125 L 36.82475 -21.259906 " transform="matrix(1,0,0,-1,77.769,106.744)"/>
<path style="fill:none;stroke-width:0.3985;stroke-linecap:butt;stroke-linejoin:miter;stroke:rgb(50%,50%,50%);stroke-opacity:1;stroke-miterlimit:10;" d="M 0.00053125 0.0018125 L 38.535687 -17.970844 " transform="matrix(1,0,0,-1,77.769,106.744)"/>
<path style="fill:none;stroke-width:0.3985;stroke-linecap:butt;stroke-linejoin:miter;stroke:rgb(50%,50%,50%);stroke-opacity:1;stroke-miterlimit:10;" d="M 0.00053125 0.0018125 L 39.957562 -14.541156 " transform="matrix(1,0,0,-1,77.769,106.744)"/>
<path style="fill:none;stroke-width:0.3985;stroke-linecap:butt;stroke-linejoin:miter;stroke:rgb(50%,50%,50%);stroke-opacity:1;stroke-miterlimit:10;" d="M 0.00053125 0.0018125 L 41.070844 -11.006 " transform="matrix(1,0,0,-1,77.769,106.744)"/>
<path style="fill:none;stroke-width:0.3985;stroke-linecap:butt;stroke-linejoin:miter;stroke:rgb(50%,50%,50%);stroke-opacity:1;stroke-miterlimit:10;" d="M 0.00053125 0.0018125 L 41.875531 -7.384906 " transform="matrix(1,0,0,-1,77.769,106.744)"/>
<path style="fill:none;stroke-width:0.3985;stroke-linecap:butt;stroke-linejoin:miter;stroke:rgb(50%,50%,50%);stroke-opacity:1;stroke-miterlimit:10;" d="M 0.00053125 0.0018125 L 42.359906 -3.705219 " transform="matrix(1,0,0,-1,77.769,106.744)"/>
<g clip-path="url(#clip2)" clip-rule="nonzero">
<path style="fill:none;stroke-width:3.9851;stroke-linecap:butt;stroke-linejoin:miter;stroke:rgb(100%,100%,100%);stroke-opacity:1;stroke-miterlimit:10;" d="M 46.773969 0.0018125 C 46.773969 25.829937 25.832562 46.771344 0.00053125 46.771344 C -25.8315 46.771344 -46.772906 25.829937 -46.772906 0.0018125 C -46.772906 -25.830219 -25.8315 -46.771625 0.00053125 -46.771625 C 25.832562 -46.771625 46.773969 -25.830219 46.773969 0.0018125 Z M 46.773969 0.0018125 " transform="matrix(1,0,0,-1,77.769,106.744)"/>
</g>
<path style="fill:none;stroke-width:0.3985;stroke-linecap:butt;stroke-linejoin:miter;stroke:rgb(100%,100%,100%);stroke-opacity:1;stroke-miterlimit:10;" d="M 42.520062 0.0018125 C 42.520062 23.482281 23.484906 42.521344 0.00053125 42.521344 C -23.483844 42.521344 -42.519 23.482281 -42.519 0.0018125 C -42.519 -23.482563 -23.483844 -42.521625 0.00053125 -42.521625 C 23.484906 -42.521625 42.520062 -23.482563 42.520062 0.0018125 Z M 42.520062 0.0018125 " transform="matrix(1,0,0,-1,77.769,106.744)"/>
<path style="fill-rule:nonzero;fill:rgb(50%,50%,50%);fill-opacity:1;stroke-width:0.99628;stroke-linecap:butt;stroke-linejoin:miter;stroke:rgb(100%,100%,100%);stroke-opacity:1;stroke-miterlimit:10;" d="M 5.6685 0.0018125 C 5.6685 3.130719 3.129437 5.669781 0.00053125 5.669781 C -3.132281 5.669781 -5.667438 3.130719 -5.667438 0.0018125 C -5.667438 -3.131 -3.132281 -5.670063 0.00053125 -5.670063 C 3.129437 -5.670063 5.6685 -3.131 5.6685 0.0018125 Z M 5.6685 0.0018125 " transform="matrix(1,0,0,-1,77.769,106.744)"/>
<path style=" stroke:none;fill-rule:nonzero;fill:rgb(100%,100%,100%);fill-opacity:1;" d="M 79.761719 106.742188 C 79.761719 105.644531 78.871094 104.75 77.769531 104.75 C 76.667969 104.75 75.777344 105.644531 75.777344 106.742188 C 75.777344 107.84375 76.667969 108.738281 77.769531 108.738281 C 78.871094 108.738281 79.761719 107.84375 79.761719 106.742188 Z M 79.761719 106.742188 "/>
<path style="fill:none;stroke-width:0.3985;stroke-linecap:butt;stroke-linejoin:miter;stroke:rgb(50%,50%,50%);stroke-opacity:1;stroke-miterlimit:10;" d="M 170.082562 0.0018125 L 212.602094 0.0018125 " transform="matrix(1,0,0,-1,77.769,106.744)"/>
<path style="fill:none;stroke-width:0.3985;stroke-linecap:butt;stroke-linejoin:miter;stroke:rgb(50%,50%,50%);stroke-opacity:1;stroke-miterlimit:10;" d="M 170.082562 0.0018125 L 212.438031 3.704937 " transform="matrix(1,0,0,-1,77.769,106.744)"/>
<path style="fill:none;stroke-width:0.3985;stroke-linecap:butt;stroke-linejoin:miter;stroke:rgb(50%,50%,50%);stroke-opacity:1;stroke-miterlimit:10;" d="M 170.082562 0.0018125 L 211.953656 7.384625 " transform="matrix(1,0,0,-1,77.769,106.744)"/>
<path style="fill:none;stroke-width:0.3985;stroke-linecap:butt;stroke-linejoin:miter;stroke:rgb(50%,50%,50%);stroke-opacity:1;stroke-miterlimit:10;" d="M 170.082562 0.0018125 L 211.152875 11.005719 " transform="matrix(1,0,0,-1,77.769,106.744)"/>
<path style="fill:none;stroke-width:0.3985;stroke-linecap:butt;stroke-linejoin:miter;stroke:rgb(50%,50%,50%);stroke-opacity:1;stroke-miterlimit:10;" d="M 170.082562 0.0018125 L 210.035687 14.544781 " transform="matrix(1,0,0,-1,77.769,106.744)"/>
<path style="fill:none;stroke-width:0.3985;stroke-linecap:butt;stroke-linejoin:miter;stroke:rgb(50%,50%,50%);stroke-opacity:1;stroke-miterlimit:10;" d="M 170.082562 0.0018125 L 208.617719 17.970562 " transform="matrix(1,0,0,-1,77.769,106.744)"/>
<path style="fill:none;stroke-width:0.3985;stroke-linecap:butt;stroke-linejoin:miter;stroke:rgb(50%,50%,50%);stroke-opacity:1;stroke-miterlimit:10;" d="M 170.082562 0.0018125 L 206.902875 21.259625 " transform="matrix(1,0,0,-1,77.769,106.744)"/>
<path style="fill:none;stroke-width:0.3985;stroke-linecap:butt;stroke-linejoin:miter;stroke:rgb(50%,50%,50%);stroke-opacity:1;stroke-miterlimit:10;" d="M 170.082562 0.0018125 L 204.910687 24.388531 " transform="matrix(1,0,0,-1,77.769,106.744)"/>
<path style="fill:none;stroke-width:0.3985;stroke-linecap:butt;stroke-linejoin:miter;stroke:rgb(50%,50%,50%);stroke-opacity:1;stroke-miterlimit:10;" d="M 170.082562 0.0018125 L 202.652875 27.329937 " transform="matrix(1,0,0,-1,77.769,106.744)"/>
<path style="fill:none;stroke-width:0.3985;stroke-linecap:butt;stroke-linejoin:miter;stroke:rgb(50%,50%,50%);stroke-opacity:1;stroke-miterlimit:10;" d="M 170.082562 0.0018125 L 200.148969 30.068219 " transform="matrix(1,0,0,-1,77.769,106.744)"/>
<path style="fill:none;stroke-width:0.3985;stroke-linecap:butt;stroke-linejoin:miter;stroke:rgb(50%,50%,50%);stroke-opacity:1;stroke-miterlimit:10;" d="M 170.082562 0.0018125 L 197.410687 32.572125 " transform="matrix(1,0,0,-1,77.769,106.744)"/>
<path style="fill:none;stroke-width:0.3985;stroke-linecap:butt;stroke-linejoin:miter;stroke:rgb(50%,50%,50%);stroke-opacity:1;stroke-miterlimit:10;" d="M 170.082562 0.0018125 L 194.469281 34.829937 " transform="matrix(1,0,0,-1,77.769,106.744)"/>
<path style="fill:none;stroke-width:0.3985;stroke-linecap:butt;stroke-linejoin:miter;stroke:rgb(50%,50%,50%);stroke-opacity:1;stroke-miterlimit:10;" d="M 170.082562 0.0018125 L 191.340375 36.822125 " transform="matrix(1,0,0,-1,77.769,106.744)"/>
<path style="fill:none;stroke-width:0.3985;stroke-linecap:butt;stroke-linejoin:miter;stroke:rgb(50%,50%,50%);stroke-opacity:1;stroke-miterlimit:10;" d="M 170.082562 0.0018125 L 188.051312 38.536969 " transform="matrix(1,0,0,-1,77.769,106.744)"/>
<path style="fill:none;stroke-width:0.3985;stroke-linecap:butt;stroke-linejoin:miter;stroke:rgb(50%,50%,50%);stroke-opacity:1;stroke-miterlimit:10;" d="M 170.082562 0.0018125 L 184.625531 39.954937 " transform="matrix(1,0,0,-1,77.769,106.744)"/>
<path style="fill:none;stroke-width:0.3985;stroke-linecap:butt;stroke-linejoin:miter;stroke:rgb(50%,50%,50%);stroke-opacity:1;stroke-miterlimit:10;" d="M 170.082562 0.0018125 L 181.086469 41.072125 " transform="matrix(1,0,0,-1,77.769,106.744)"/>
<path style="fill:none;stroke-width:0.3985;stroke-linecap:butt;stroke-linejoin:miter;stroke:rgb(50%,50%,50%);stroke-opacity:1;stroke-miterlimit:10;" d="M 170.082562 0.0018125 L 177.465375 41.872906 " transform="matrix(1,0,0,-1,77.769,106.744)"/>
<path style="fill:none;stroke-width:0.3985;stroke-linecap:butt;stroke-linejoin:miter;stroke:rgb(50%,50%,50%);stroke-opacity:1;stroke-miterlimit:10;" d="M 170.082562 0.0018125 L 173.785687 42.357281 " transform="matrix(1,0,0,-1,77.769,106.744)"/>
<path style="fill:none;stroke-width:0.3985;stroke-linecap:butt;stroke-linejoin:miter;stroke:rgb(50%,50%,50%);stroke-opacity:1;stroke-miterlimit:10;" d="M 170.082562 0.0018125 L 170.082562 42.521344 " transform="matrix(1,0,0,-1,77.769,106.744)"/>
<path style="fill:none;stroke-width:0.3985;stroke-linecap:butt;stroke-linejoin:miter;stroke:rgb(50%,50%,50%);stroke-opacity:1;stroke-miterlimit:10;" d="M 170.082562 0.0018125 L 166.375531 42.357281 " transform="matrix(1,0,0,-1,77.769,106.744)"/>
<path style="fill:none;stroke-width:0.3985;stroke-linecap:butt;stroke-linejoin:miter;stroke:rgb(50%,50%,50%);stroke-opacity:1;stroke-miterlimit:10;" d="M 170.082562 0.0018125 L 162.695844 41.872906 " transform="matrix(1,0,0,-1,77.769,106.744)"/>
<path style="fill:none;stroke-width:0.3985;stroke-linecap:butt;stroke-linejoin:miter;stroke:rgb(50%,50%,50%);stroke-opacity:1;stroke-miterlimit:10;" d="M 170.082562 0.0018125 L 159.07475 41.072125 " transform="matrix(1,0,0,-1,77.769,106.744)"/>
<path style="fill:none;stroke-width:0.3985;stroke-linecap:butt;stroke-linejoin:miter;stroke:rgb(50%,50%,50%);stroke-opacity:1;stroke-miterlimit:10;" d="M 170.082562 0.0018125 L 155.539594 39.954937 " transform="matrix(1,0,0,-1,77.769,106.744)"/>
<path style="fill:none;stroke-width:0.3985;stroke-linecap:butt;stroke-linejoin:miter;stroke:rgb(50%,50%,50%);stroke-opacity:1;stroke-miterlimit:10;" d="M 170.082562 0.0018125 L 152.109906 38.536969 " transform="matrix(1,0,0,-1,77.769,106.744)"/>
<path style="fill:none;stroke-width:0.3985;stroke-linecap:butt;stroke-linejoin:miter;stroke:rgb(50%,50%,50%);stroke-opacity:1;stroke-miterlimit:10;" d="M 170.082562 0.0018125 L 148.820844 36.822125 " transform="matrix(1,0,0,-1,77.769,106.744)"/>
<path style="fill:none;stroke-width:0.3985;stroke-linecap:butt;stroke-linejoin:miter;stroke:rgb(50%,50%,50%);stroke-opacity:1;stroke-miterlimit:10;" d="M 170.082562 0.0018125 L 145.691937 34.829937 " transform="matrix(1,0,0,-1,77.769,106.744)"/>
<path style="fill:none;stroke-width:0.3985;stroke-linecap:butt;stroke-linejoin:miter;stroke:rgb(50%,50%,50%);stroke-opacity:1;stroke-miterlimit:10;" d="M 170.082562 0.0018125 L 142.750531 32.572125 " transform="matrix(1,0,0,-1,77.769,106.744)"/>
<path style="fill:none;stroke-width:0.3985;stroke-linecap:butt;stroke-linejoin:miter;stroke:rgb(50%,50%,50%);stroke-opacity:1;stroke-miterlimit:10;" d="M 170.082562 0.0018125 L 140.016156 30.068219 " transform="matrix(1,0,0,-1,77.769,106.744)"/>
<path style="fill:none;stroke-width:0.3985;stroke-linecap:butt;stroke-linejoin:miter;stroke:rgb(50%,50%,50%);stroke-opacity:1;stroke-miterlimit:10;" d="M 170.082562 0.0018125 L 137.508344 27.329937 " transform="matrix(1,0,0,-1,77.769,106.744)"/>
<path style="fill:none;stroke-width:0.3985;stroke-linecap:butt;stroke-linejoin:miter;stroke:rgb(50%,50%,50%);stroke-opacity:1;stroke-miterlimit:10;" d="M 170.082562 0.0018125 L 135.250531 24.388531 " transform="matrix(1,0,0,-1,77.769,106.744)"/>
<path style="fill:none;stroke-width:0.3985;stroke-linecap:butt;stroke-linejoin:miter;stroke:rgb(50%,50%,50%);stroke-opacity:1;stroke-miterlimit:10;" d="M 170.082562 0.0018125 L 133.258344 21.259625 " transform="matrix(1,0,0,-1,77.769,106.744)"/>
<path style="fill:none;stroke-width:0.3985;stroke-linecap:butt;stroke-linejoin:miter;stroke:rgb(50%,50%,50%);stroke-opacity:1;stroke-miterlimit:10;" d="M 170.082562 0.0018125 L 131.5435 17.970562 " transform="matrix(1,0,0,-1,77.769,106.744)"/>
<path style="fill:none;stroke-width:0.3985;stroke-linecap:butt;stroke-linejoin:miter;stroke:rgb(50%,50%,50%);stroke-opacity:1;stroke-miterlimit:10;" d="M 170.082562 0.0018125 L 130.125531 14.544781 " transform="matrix(1,0,0,-1,77.769,106.744)"/>
<path style="fill:none;stroke-width:0.3985;stroke-linecap:butt;stroke-linejoin:miter;stroke:rgb(50%,50%,50%);stroke-opacity:1;stroke-miterlimit:10;" d="M 170.082562 0.0018125 L 129.008344 11.005719 " transform="matrix(1,0,0,-1,77.769,106.744)"/>
<path style="fill:none;stroke-width:0.3985;stroke-linecap:butt;stroke-linejoin:miter;stroke:rgb(50%,50%,50%);stroke-opacity:1;stroke-miterlimit:10;" d="M 170.082562 0.0018125 L 128.207562 7.384625 " transform="matrix(1,0,0,-1,77.769,106.744)"/>
<path style="fill:none;stroke-width:0.3985;stroke-linecap:butt;stroke-linejoin:miter;stroke:rgb(50%,50%,50%);stroke-opacity:1;stroke-miterlimit:10;" d="M 170.082562 0.0018125 L 127.723187 3.704937 " transform="matrix(1,0,0,-1,77.769,106.744)"/>
<path style="fill:none;stroke-width:0.3985;stroke-linecap:butt;stroke-linejoin:miter;stroke:rgb(50%,50%,50%);stroke-opacity:1;stroke-miterlimit:10;" d="M 170.082562 0.0018125 L 127.559125 0.0018125 " transform="matrix(1,0,0,-1,77.769,106.744)"/>
<path style="fill:none;stroke-width:0.3985;stroke-linecap:butt;stroke-linejoin:miter;stroke:rgb(50%,50%,50%);stroke-opacity:1;stroke-miterlimit:10;" d="M 170.082562 0.0018125 L 127.723187 -3.705219 " transform="matrix(1,0,0,-1,77.769,106.744)"/>
<path style="fill:none;stroke-width:0.3985;stroke-linecap:butt;stroke-linejoin:miter;stroke:rgb(50%,50%,50%);stroke-opacity:1;stroke-miterlimit:10;" d="M 170.082562 0.0018125 L 128.207562 -7.384906 " transform="matrix(1,0,0,-1,77.769,106.744)"/>
<path style="fill:none;stroke-width:0.3985;stroke-linecap:butt;stroke-linejoin:miter;stroke:rgb(50%,50%,50%);stroke-opacity:1;stroke-miterlimit:10;" d="M 170.082562 0.0018125 L 129.008344 -11.006 " transform="matrix(1,0,0,-1,77.769,106.744)"/>
<path style="fill:none;stroke-width:0.3985;stroke-linecap:butt;stroke-linejoin:miter;stroke:rgb(50%,50%,50%);stroke-opacity:1;stroke-miterlimit:10;" d="M 170.082562 0.0018125 L 130.125531 -14.541156 " transform="matrix(1,0,0,-1,77.769,106.744)"/>
<path style="fill:none;stroke-width:0.3985;stroke-linecap:butt;stroke-linejoin:miter;stroke:rgb(50%,50%,50%);stroke-opacity:1;stroke-miterlimit:10;" d="M 170.082562 0.0018125 L 131.5435 -17.970844 " transform="matrix(1,0,0,-1,77.769,106.744)"/>
<path style="fill:none;stroke-width:0.3985;stroke-linecap:butt;stroke-linejoin:miter;stroke:rgb(50%,50%,50%);stroke-opacity:1;stroke-miterlimit:10;" d="M 170.082562 0.0018125 L 133.258344 -21.259906 " transform="matrix(1,0,0,-1,77.769,106.744)"/>
<path style="fill:none;stroke-width:0.3985;stroke-linecap:butt;stroke-linejoin:miter;stroke:rgb(50%,50%,50%);stroke-opacity:1;stroke-miterlimit:10;" d="M 170.082562 0.0018125 L 135.250531 -24.388813 " transform="matrix(1,0,0,-1,77.769,106.744)"/>
<path style="fill:none;stroke-width:0.3985;stroke-linecap:butt;stroke-linejoin:miter;stroke:rgb(50%,50%,50%);stroke-opacity:1;stroke-miterlimit:10;" d="M 170.082562 0.0018125 L 137.508344 -27.330219 " transform="matrix(1,0,0,-1,77.769,106.744)"/>
<path style="fill:none;stroke-width:0.3985;stroke-linecap:butt;stroke-linejoin:miter;stroke:rgb(50%,50%,50%);stroke-opacity:1;stroke-miterlimit:10;" d="M 170.082562 0.0018125 L 140.016156 -30.064594 " transform="matrix(1,0,0,-1,77.769,106.744)"/>
<path style="fill:none;stroke-width:0.3985;stroke-linecap:butt;stroke-linejoin:miter;stroke:rgb(50%,50%,50%);stroke-opacity:1;stroke-miterlimit:10;" d="M 170.082562 0.0018125 L 142.750531 -32.572406 " transform="matrix(1,0,0,-1,77.769,106.744)"/>
<path style="fill:none;stroke-width:0.3985;stroke-linecap:butt;stroke-linejoin:miter;stroke:rgb(50%,50%,50%);stroke-opacity:1;stroke-miterlimit:10;" d="M 170.082562 0.0018125 L 145.691937 -34.830219 " transform="matrix(1,0,0,-1,77.769,106.744)"/>
<path style="fill:none;stroke-width:0.3985;stroke-linecap:butt;stroke-linejoin:miter;stroke:rgb(50%,50%,50%);stroke-opacity:1;stroke-miterlimit:10;" d="M 170.082562 0.0018125 L 148.820844 -36.822406 " transform="matrix(1,0,0,-1,77.769,106.744)"/>
<path style="fill:none;stroke-width:0.3985;stroke-linecap:butt;stroke-linejoin:miter;stroke:rgb(50%,50%,50%);stroke-opacity:1;stroke-miterlimit:10;" d="M 170.082562 0.0018125 L 152.109906 -38.53725 " transform="matrix(1,0,0,-1,77.769,106.744)"/>
<path style="fill:none;stroke-width:0.3985;stroke-linecap:butt;stroke-linejoin:miter;stroke:rgb(50%,50%,50%);stroke-opacity:1;stroke-miterlimit:10;" d="M 170.082562 0.0018125 L 155.539594 -39.955219 " transform="matrix(1,0,0,-1,77.769,106.744)"/>
<path style="fill:none;stroke-width:0.3985;stroke-linecap:butt;stroke-linejoin:miter;stroke:rgb(50%,50%,50%);stroke-opacity:1;stroke-miterlimit:10;" d="M 170.082562 0.0018125 L 159.07475 -41.072406 " transform="matrix(1,0,0,-1,77.769,106.744)"/>
<path style="fill:none;stroke-width:0.3985;stroke-linecap:butt;stroke-linejoin:miter;stroke:rgb(50%,50%,50%);stroke-opacity:1;stroke-miterlimit:10;" d="M 170.082562 0.0018125 L 162.695844 -41.873188 " transform="matrix(1,0,0,-1,77.769,106.744)"/>
<path style="fill:none;stroke-width:0.3985;stroke-linecap:butt;stroke-linejoin:miter;stroke:rgb(50%,50%,50%);stroke-opacity:1;stroke-miterlimit:10;" d="M 170.082562 0.0018125 L 166.375531 -42.357563 " transform="matrix(1,0,0,-1,77.769,106.744)"/>
<path style="fill:none;stroke-width:0.3985;stroke-linecap:butt;stroke-linejoin:miter;stroke:rgb(50%,50%,50%);stroke-opacity:1;stroke-miterlimit:10;" d="M 170.082562 0.0018125 L 170.082562 -42.521625 " transform="matrix(1,0,0,-1,77.769,106.744)"/>
<path style="fill:none;stroke-width:0.3985;stroke-linecap:butt;stroke-linejoin:miter;stroke:rgb(50%,50%,50%);stroke-opacity:1;stroke-miterlimit:10;" d="M 170.082562 0.0018125 L 173.785687 -42.357563 " transform="matrix(1,0,0,-1,77.769,106.744)"/>
<path style="fill:none;stroke-width:0.3985;stroke-linecap:butt;stroke-linejoin:miter;stroke:rgb(50%,50%,50%);stroke-opacity:1;stroke-miterlimit:10;" d="M 170.082562 0.0018125 L 177.465375 -41.873188 " transform="matrix(1,0,0,-1,77.769,106.744)"/>
<path style="fill:none;stroke-width:0.3985;stroke-linecap:butt;stroke-linejoin:miter;stroke:rgb(50%,50%,50%);stroke-opacity:1;stroke-miterlimit:10;" d="M 170.082562 0.0018125 L 181.086469 -41.072406 " transform="matrix(1,0,0,-1,77.769,106.744)"/>
<path style="fill:none;stroke-width:0.3985;stroke-linecap:butt;stroke-linejoin:miter;stroke:rgb(50%,50%,50%);stroke-opacity:1;stroke-miterlimit:10;" d="M 170.082562 0.0018125 L 184.625531 -39.955219 " transform="matrix(1,0,0,-1,77.769,106.744)"/>
<path style="fill:none;stroke-width:0.3985;stroke-linecap:butt;stroke-linejoin:miter;stroke:rgb(50%,50%,50%);stroke-opacity:1;stroke-miterlimit:10;" d="M 170.082562 0.0018125 L 188.051312 -38.53725 " transform="matrix(1,0,0,-1,77.769,106.744)"/>
<path style="fill:none;stroke-width:0.3985;stroke-linecap:butt;stroke-linejoin:miter;stroke:rgb(50%,50%,50%);stroke-opacity:1;stroke-miterlimit:10;" d="M 170.082562 0.0018125 L 191.340375 -36.822406 " transform="matrix(1,0,0,-1,77.769,106.744)"/>
<path style="fill:none;stroke-width:0.3985;stroke-linecap:butt;stroke-linejoin:miter;stroke:rgb(50%,50%,50%);stroke-opacity:1;stroke-miterlimit:10;" d="M 170.082562 0.0018125 L 194.469281 -34.830219 " transform="matrix(1,0,0,-1,77.769,106.744)"/>
<path style="fill:none;stroke-width:0.3985;stroke-linecap:butt;stroke-linejoin:miter;stroke:rgb(50%,50%,50%);stroke-opacity:1;stroke-miterlimit:10;" d="M 170.082562 0.0018125 L 197.410687 -32.572406 " transform="matrix(1,0,0,-1,77.769,106.744)"/>
<path style="fill:none;stroke-width:0.3985;stroke-linecap:butt;stroke-linejoin:miter;stroke:rgb(50%,50%,50%);stroke-opacity:1;stroke-miterlimit:10;" d="M 170.082562 0.0018125 L 200.148969 -30.064594 " transform="matrix(1,0,0,-1,77.769,106.744)"/>
<path style="fill:none;stroke-width:0.3985;stroke-linecap:butt;stroke-linejoin:miter;stroke:rgb(50%,50%,50%);stroke-opacity:1;stroke-miterlimit:10;" d="M 170.082562 0.0018125 L 202.652875 -27.330219 " transform="matrix(1,0,0,-1,77.769,106.744)"/>
<path style="fill:none;stroke-width:0.3985;stroke-linecap:butt;stroke-linejoin:miter;stroke:rgb(50%,50%,50%);stroke-opacity:1;stroke-miterlimit:10;" d="M 170.082562 0.0018125 L 204.910687 -24.388813 " transform="matrix(1,0,0,-1,77.769,106.744)"/>
<path style="fill:none;stroke-width:0.3985;stroke-linecap:butt;stroke-linejoin:miter;stroke:rgb(50%,50%,50%);stroke-opacity:1;stroke-miterlimit:10;" d="M 170.082562 0.0018125 L 206.902875 -21.259906 " transform="matrix(1,0,0,-1,77.769,106.744)"/>
<path style="fill:none;stroke-width:0.3985;stroke-linecap:butt;stroke-linejoin:miter;stroke:rgb(50%,50%,50%);stroke-opacity:1;stroke-miterlimit:10;" d="M 170.082562 0.0018125 L 208.617719 -17.970844 " transform="matrix(1,0,0,-1,77.769,106.744)"/>
<path style="fill:none;stroke-width:0.3985;stroke-linecap:butt;stroke-linejoin:miter;stroke:rgb(50%,50%,50%);stroke-opacity:1;stroke-miterlimit:10;" d="M 170.082562 0.0018125 L 210.035687 -14.541156 " transform="matrix(1,0,0,-1,77.769,106.744)"/>
<path style="fill:none;stroke-width:0.3985;stroke-linecap:butt;stroke-linejoin:miter;stroke:rgb(50%,50%,50%);stroke-opacity:1;stroke-miterlimit:10;" d="M 170.082562 0.0018125 L 211.152875 -11.006 " transform="matrix(1,0,0,-1,77.769,106.744)"/>
<path style="fill:none;stroke-width:0.3985;stroke-linecap:butt;stroke-linejoin:miter;stroke:rgb(50%,50%,50%);stroke-opacity:1;stroke-miterlimit:10;" d="M 170.082562 0.0018125 L 211.953656 -7.384906 " transform="matrix(1,0,0,-1,77.769,106.744)"/>
<path style="fill:none;stroke-width:0.3985;stroke-linecap:butt;stroke-linejoin:miter;stroke:rgb(50%,50%,50%);stroke-opacity:1;stroke-miterlimit:10;" d="M 170.082562 0.0018125 L 212.438031 -3.705219 " transform="matrix(1,0,0,-1,77.769,106.744)"/>
<g clip-path="url(#clip3)" clip-rule="nonzero">
<path style="fill:none;stroke-width:3.9851;stroke-linecap:butt;stroke-linejoin:miter;stroke:rgb(100%,100%,100%);stroke-opacity:1;stroke-miterlimit:10;" d="M 216.852094 0.0018125 C 216.852094 25.829937 195.914594 46.771344 170.082562 46.771344 C 144.250531 46.771344 123.309125 25.829937 123.309125 0.0018125 C 123.309125 -25.830219 144.250531 -46.771625 170.082562 -46.771625 C 195.914594 -46.771625 216.852094 -25.830219 216.852094 0.0018125 Z M 216.852094 0.0018125 " transform="matrix(1,0,0,-1,77.769,106.744)"/>
</g>
<path style="fill:none;stroke-width:0.3985;stroke-linecap:butt;stroke-linejoin:miter;stroke:rgb(100%,100%,100%);stroke-opacity:1;stroke-miterlimit:10;" d="M 212.602094 0.0018125 C 212.602094 23.482281 193.563031 42.521344 170.082562 42.521344 C 146.598187 42.521344 127.559125 23.482281 127.559125 0.0018125 C 127.559125 -23.482563 146.598187 -42.521625 170.082562 -42.521625 C 193.563031 -42.521625 212.602094 -23.482563 212.602094 0.0018125 Z M 212.602094 0.0018125 " transform="matrix(1,0,0,-1,77.769,106.744)"/>
<path style=" stroke:none;fill-rule:nonzero;fill:rgb(100%,100%,100%);fill-opacity:1;" d="M 249.84375 106.742188 C 249.84375 105.644531 248.949219 104.75 247.851562 104.75 C 246.75 104.75 245.855469 105.644531 245.855469 106.742188 C 245.855469 107.84375 246.75 108.738281 247.851562 108.738281 C 248.949219 108.738281 249.84375 107.84375 249.84375 106.742188 Z M 249.84375 106.742188 "/>
<path style="fill:none;stroke-width:0.99628;stroke-linecap:butt;stroke-linejoin:miter;stroke:rgb(100%,100%,100%);stroke-opacity:1;stroke-miterlimit:10;" d="M 0.00053125 5.669781 L 62.363812 11.33775 M 0.00053125 -5.670063 L 62.363812 -11.338031 " transform="matrix(1,0,0,-1,77.769,106.744)"/>
<path style="fill:none;stroke-width:1.99255;stroke-linecap:butt;stroke-linejoin:miter;stroke:rgb(100%,100%,100%);stroke-opacity:1;stroke-miterlimit:10;" d="M 62.363812 0.0018125 L 73.703656 -17.009906 M 62.363812 0.0018125 L 51.023969 17.009625 " transform="matrix(1,0,0,-1,77.769,106.744)"/>
<path style="fill:none;stroke-width:3.9851;stroke-linecap:butt;stroke-linejoin:miter;stroke:rgb(100%,100%,100%);stroke-opacity:1;stroke-miterlimit:10;" d="M 47.621625 17.009625 L 54.992719 15.3065 " transform="matrix(1,0,0,-1,77.769,106.744)"/>
<path style="fill:none;stroke-width:2.83466;stroke-linecap:butt;stroke-linejoin:miter;stroke:rgb(0%,67.016602%,75.021362%);stroke-opacity:1;stroke-miterlimit:10;" d="M 170.082562 0.0018125 L 157.883344 26.158062 C 156.020062 30.158062 153.582562 36.853375 152.438031 41.111187 L 139.098187 90.90025 " transform="matrix(1,0,0,-1,77.769,106.744)"/>
<path style="fill:none;stroke-width:2.83466;stroke-linecap:butt;stroke-linejoin:miter;stroke:rgb(0%,67.016602%,75.021362%);stroke-opacity:1;stroke-miterlimit:10;" d="M 170.082562 0.0018125 L 156.984906 25.704937 C 154.977094 29.642437 152.305219 36.251812 151.016156 40.466656 L 135.945844 89.763531 " transform="matrix(1,0,0,-1,77.769,106.744)"/>
<path style="fill:none;stroke-width:2.83466;stroke-linecap:butt;stroke-linejoin:miter;stroke:rgb(0%,67.016602%,75.021362%);stroke-opacity:1;stroke-miterlimit:10;" d="M 170.078656 -0.00209375 L 157.430219 25.935406 C 155.496625 29.904156 152.941937 36.5565 151.727094 40.794781 L 137.516156 90.345562 " transform="matrix(1,0,0,-1,77.769,106.744)"/>
<path style="fill:none;stroke-width:4.252;stroke-linecap:butt;stroke-linejoin:miter;stroke:rgb(0%,67.016602%,75.021362%);stroke-opacity:1;stroke-miterlimit:10;" d="M 137.516156 90.345562 L 138.254437 86.158062 L 149.594281 86.158062 L 148.176312 86.158062 " transform="matrix(1,0,0,-1,77.769,106.744)"/>
<path style="fill:none;stroke-width:4.252;stroke-linecap:butt;stroke-linejoin:miter;stroke:rgb(0%,67.016602%,75.021362%);stroke-opacity:1;stroke-miterlimit:10;" d="M 148.176312 86.158062 L 160.453656 79.068219 " transform="matrix(1,0,0,-1,77.769,106.744)"/>
<g clip-path="url(#clip4)" clip-rule="nonzero">
<path style="fill:none;stroke-width:4.252;stroke-linecap:butt;stroke-linejoin:miter;stroke:rgb(100%,100%,100%);stroke-opacity:1;stroke-miterlimit:10;" d="M 160.453656 79.068219 L 172.727094 71.982281 " transform="matrix(1,0,0,-1,77.769,106.744)"/>
</g>
<path style="fill:none;stroke-width:4.252;stroke-linecap:butt;stroke-linejoin:miter;stroke:rgb(0%,67.016602%,75.021362%);stroke-opacity:1;stroke-miterlimit:10;" d="M 148.176312 86.158062 L 135.902875 93.244 " transform="matrix(1,0,0,-1,77.769,106.744)"/>
<path style="fill:none;stroke-width:4.252;stroke-linecap:butt;stroke-linejoin:miter;stroke:rgb(100%,100%,100%);stroke-opacity:1;stroke-miterlimit:10;" d="M 135.902875 93.244 L 123.629437 100.329937 " transform="matrix(1,0,0,-1,77.769,106.744)"/>
<g clip-path="url(#clip5)" clip-rule="nonzero">
<path style="fill:none;stroke-width:5.66934;stroke-linecap:butt;stroke-linejoin:miter;stroke:rgb(0%,67.016602%,75.021362%);stroke-opacity:1;stroke-miterlimit:10;" d="M 62.363812 0.0018125 L 148.277875 60.158062 L 144.398969 70.814312 L 46.691937 53.583844 L 62.363812 0.0018125 " transform="matrix(1,0,0,-1,77.769,106.744)"/>
</g>
<path style="fill:none;stroke-width:2.83466;stroke-linecap:butt;stroke-linejoin:miter;stroke:rgb(0%,67.016602%,75.021362%);stroke-opacity:1;stroke-miterlimit:10;" d="M 0.00053125 0.0018125 L 62.363812 0.0018125 M 0.00053125 0.0018125 L 50.109906 50.111187 M 0.00053125 0.0018125 L 48.777875 51.404156 M 0.00053125 0.0018125 L 62.32475 2.177594 " transform="matrix(1,0,0,-1,77.769,106.744)"/>
<path style="fill:none;stroke-width:3.4016;stroke-linecap:butt;stroke-linejoin:miter;stroke:rgb(0%,67.016602%,75.021362%);stroke-opacity:1;stroke-miterlimit:10;" d="M 46.691937 53.583844 L 39.660687 78.107281 L 40.441937 75.384625 " transform="matrix(1,0,0,-1,77.769,106.744)"/>
<path style="fill-rule:nonzero;fill:rgb(50%,50%,50%);fill-opacity:1;stroke-width:1.99255;stroke-linecap:butt;stroke-linejoin:miter;stroke:rgb(100%,100%,100%);stroke-opacity:1;stroke-miterlimit:10;" d="M 73.69975 0.0018125 C 73.69975 6.263531 68.625531 11.33775 62.363812 11.33775 C 56.102094 11.33775 51.023969 6.263531 51.023969 0.0018125 C 51.023969 -6.263813 56.102094 -11.338031 62.363812 -11.338031 C 68.625531 -11.338031 73.69975 -6.263813 73.69975 0.0018125 Z M 73.69975 0.0018125 " transform="matrix(1,0,0,-1,77.769,106.744)"/>
<path style=" stroke:none;fill-rule:nonzero;fill:rgb(100%,100%,100%);fill-opacity:1;" d="M 142.964844 106.742188 C 142.964844 105.179688 141.699219 103.910156 140.132812 103.910156 C 138.566406 103.910156 137.296875 105.179688 137.296875 106.742188 C 137.296875 108.308594 138.566406 109.578125 140.132812 109.578125 C 141.699219 109.578125 142.964844 108.308594 142.964844 106.742188 Z M 142.964844 106.742188 "/>
<g clip-path="url(#clip6)" clip-rule="nonzero">
<path style="fill:none;stroke-width:3.9851;stroke-linecap:butt;stroke-linejoin:miter;stroke:rgb(100%,100%,100%);stroke-opacity:1;stroke-miterlimit:10;" d="M 68.031781 -16.439594 L 75.969281 -15.873188 " transform="matrix(1,0,0,-1,77.769,106.744)"/>
</g>
<path style="fill:none;stroke-width:1.99255;stroke-linecap:butt;stroke-linejoin:miter;stroke:rgb(100%,100%,100%);stroke-opacity:1;stroke-miterlimit:10;" d="M 62.363812 0.0018125 L 73.703656 -17.009906 " transform="matrix(1,0,0,-1,77.769,106.744)"/>
<path style=" stroke:none;fill-rule:nonzero;fill:rgb(100%,100%,100%);fill-opacity:1;" d="M 120.175781 31.015625 L 138.582031 27.769531 C 139.664062 27.578125 140.542969 26.53125 140.542969 25.429688 L 140.542969 26.582031 C 140.542969 25.480469 139.652344 24.585938 138.550781 24.585938 L 119.859375 24.585938 C 118.757812 24.585938 116.988281 24.433594 115.902344 24.242188 L 100.289062 21.488281 C 99.207031 21.296875 98.632812 21.980469 99.007812 23.015625 L 102.492188 32.585938 C 102.867188 33.621094 104.046875 34.28125 105.128906 34.058594 L 116.257812 31.761719 C 117.335938 31.539062 119.089844 31.207031 120.175781 31.015625 Z M 120.175781 31.015625 "/>
<g clip-path="url(#clip7)" clip-rule="nonzero">
<path style="fill:none;stroke-width:1.99255;stroke-linecap:butt;stroke-linejoin:miter;stroke:rgb(75%,50%,25%);stroke-opacity:1;stroke-miterlimit:10;" d="M -23.386188 -40.506 L -65.628375 -16.115375 " transform="matrix(1,0,0,-1,77.769,106.744)"/>
</g>
<path style=" stroke:none;fill-rule:nonzero;fill:rgb(75%,50%,25%);fill-opacity:1;" d="M 5.285156 118.902344 C 7.097656 120.457031 9.738281 123.503906 11.253906 126.15625 L 14.550781 120.445312 C 11.496094 120.457031 7.535156 119.695312 5.285156 118.902344 "/>
<g clip-path="url(#clip8)" clip-rule="nonzero">
<path style="fill:none;stroke-width:1.99255;stroke-linecap:butt;stroke-linejoin:miter;stroke:rgb(75%,50%,25%);stroke-opacity:1;stroke-miterlimit:10;" d="M -35.827594 -30.064594 L -67.17525 7.294781 " transform="matrix(1,0,0,-1,77.769,106.744)"/>
</g>
<path style=" stroke:none;fill-rule:nonzero;fill:rgb(75%,50%,25%);fill-opacity:1;" d="M 5.496094 93.378906 C 6.671875 95.460938 8.109375 99.234375 8.628906 102.25 L 13.6875 98.003906 C 10.808594 96.96875 7.34375 94.894531 5.496094 93.378906 "/>
<path style="fill:none;stroke-width:1.99255;stroke-linecap:butt;stroke-linejoin:miter;stroke:rgb(75%,50%,25%);stroke-opacity:1;stroke-miterlimit:10;" d="M -43.952594 -15.998188 L -60.640094 29.853375 " transform="matrix(1,0,0,-1,77.769,106.744)"/>
<path style=" stroke:none;fill-rule:nonzero;fill:rgb(75%,50%,25%);fill-opacity:1;" d="M 14.425781 69.464844 C 14.816406 71.816406 14.878906 75.839844 14.335938 78.839844 L 20.523438 76.589844 C 18.179688 74.640625 15.640625 71.515625 14.425781 69.464844 "/>
</g>
</svg>
