<?xml version="1.0" encoding="UTF-8"?>
<svg xmlns="http://www.w3.org/2000/svg" xmlns:xlink="http://www.w3.org/1999/xlink" width="136.457" height="113.784" viewBox="0 0 136.457 113.784">
<defs>
<clipPath id="clip-0">
<path clip-rule="nonzero" d="M 28 0 L 29 0 L 29 113.785156 L 28 113.785156 Z M 28 0 "/>
</clipPath>
<clipPath id="clip-1">
<path clip-rule="nonzero" d="M 31 0 L 32 0 L 32 113.785156 L 31 113.785156 Z M 31 0 "/>
</clipPath>
<clipPath id="clip-2">
<path clip-rule="nonzero" d="M 34 0 L 35 0 L 35 113.785156 L 34 113.785156 Z M 34 0 "/>
</clipPath>
<clipPath id="clip-3">
<path clip-rule="nonzero" d="M 36 0 L 38 0 L 38 113.785156 L 36 113.785156 Z M 36 0 "/>
</clipPath>
<clipPath id="clip-4">
<path clip-rule="nonzero" d="M 39 0 L 41 0 L 41 113.785156 L 39 113.785156 Z M 39 0 "/>
</clipPath>
<clipPath id="clip-5">
<path clip-rule="nonzero" d="M 42 0 L 43 0 L 43 113.785156 L 42 113.785156 Z M 42 0 "/>
</clipPath>
<clipPath id="clip-6">
<path clip-rule="nonzero" d="M 45 0 L 46 0 L 46 113.785156 L 45 113.785156 Z M 45 0 "/>
</clipPath>
<clipPath id="clip-7">
<path clip-rule="nonzero" d="M 48 0 L 49 0 L 49 113.785156 L 48 113.785156 Z M 48 0 "/>
</clipPath>
<clipPath id="clip-8">
<path clip-rule="nonzero" d="M 51 0 L 52 0 L 52 113.785156 L 51 113.785156 Z M 51 0 "/>
</clipPath>
<clipPath id="clip-9">
<path clip-rule="nonzero" d="M 53 0 L 55 0 L 55 113.785156 L 53 113.785156 Z M 53 0 "/>
</clipPath>
<clipPath id="clip-10">
<path clip-rule="nonzero" d="M 56 0 L 58 0 L 58 113.785156 L 56 113.785156 Z M 56 0 "/>
</clipPath>
<clipPath id="clip-11">
<path clip-rule="nonzero" d="M 59 0 L 60 0 L 60 113.785156 L 59 113.785156 Z M 59 0 "/>
</clipPath>
<clipPath id="clip-12">
<path clip-rule="nonzero" d="M 62 0 L 63 0 L 63 113.785156 L 62 113.785156 Z M 62 0 "/>
</clipPath>
<clipPath id="clip-13">
<path clip-rule="nonzero" d="M 65 0 L 66 0 L 66 113.785156 L 65 113.785156 Z M 65 0 "/>
</clipPath>
<clipPath id="clip-14">
<path clip-rule="nonzero" d="M 68 0 L 69 0 L 69 113.785156 L 68 113.785156 Z M 68 0 "/>
</clipPath>
<clipPath id="clip-15">
<path clip-rule="nonzero" d="M 70 0 L 72 0 L 72 113.785156 L 70 113.785156 Z M 70 0 "/>
</clipPath>
<clipPath id="clip-16">
<path clip-rule="nonzero" d="M 73 0 L 75 0 L 75 113.785156 L 73 113.785156 Z M 73 0 "/>
</clipPath>
<clipPath id="clip-17">
<path clip-rule="nonzero" d="M 76 0 L 77 0 L 77 113.785156 L 76 113.785156 Z M 76 0 "/>
</clipPath>
<clipPath id="clip-18">
<path clip-rule="nonzero" d="M 79 0 L 80 0 L 80 113.785156 L 79 113.785156 Z M 79 0 "/>
</clipPath>
<clipPath id="clip-19">
<path clip-rule="nonzero" d="M 83 65 L 87 65 L 87 113.785156 L 83 113.785156 Z M 83 65 "/>
</clipPath>
<clipPath id="clip-20">
<path clip-rule="nonzero" d="M 79 0 L 136.457031 0 L 136.457031 103 L 79 103 Z M 79 0 "/>
</clipPath>
<clipPath id="clip-21">
<path clip-rule="nonzero" d="M 79 11 L 136.457031 11 L 136.457031 113.785156 L 79 113.785156 Z M 79 11 "/>
</clipPath>
<clipPath id="clip-22">
<path clip-rule="nonzero" d="M 79 0 L 136.457031 0 L 136.457031 106 L 79 106 Z M 79 0 "/>
</clipPath>
<clipPath id="clip-23">
<path clip-rule="nonzero" d="M 79 8 L 136.457031 8 L 136.457031 113.785156 L 79 113.785156 Z M 79 8 "/>
</clipPath>
<clipPath id="clip-24">
<path clip-rule="nonzero" d="M 79 0 L 136.457031 0 L 136.457031 108 L 79 108 Z M 79 0 "/>
</clipPath>
<clipPath id="clip-25">
<path clip-rule="nonzero" d="M 79 5 L 136.457031 5 L 136.457031 113.785156 L 79 113.785156 Z M 79 5 "/>
</clipPath>
</defs>
<path fill="none" stroke-width="0.3985" stroke-linecap="butt" stroke-linejoin="miter" stroke="rgb(0%, 0%, 0%)" stroke-opacity="1" stroke-miterlimit="10" d="M -85.039781 0.001375 L -68.785875 0.001375 " transform="matrix(1, 0, 0, -1, 85.239, 56.892)"/>
<path fill-rule="nonzero" fill="rgb(0%, 0%, 0%)" fill-opacity="1" d="M 20.042969 56.890625 C 18.980469 56.691406 17.25 56.09375 16.054688 55.398438 L 16.054688 58.386719 C 17.25 57.6875 18.980469 57.089844 20.042969 56.890625 "/>
<g clip-path="url(#clip-0)">
<path fill="none" stroke-width="0.3985" stroke-linecap="butt" stroke-linejoin="miter" stroke="rgb(0%, 0%, 0%)" stroke-opacity="1" stroke-miterlimit="10" d="M -56.692125 -56.693937 L -56.692125 56.692781 " transform="matrix(1, 0, 0, -1, 85.239, 56.892)"/>
</g>
<g clip-path="url(#clip-1)">
<path fill="none" stroke-width="0.3985" stroke-linecap="butt" stroke-linejoin="miter" stroke="rgb(0%, 0%, 0%)" stroke-opacity="1" stroke-miterlimit="10" d="M -53.860094 -56.693937 L -53.860094 56.692781 " transform="matrix(1, 0, 0, -1, 85.239, 56.892)"/>
</g>
<g clip-path="url(#clip-2)">
<path fill="none" stroke-width="0.3985" stroke-linecap="butt" stroke-linejoin="miter" stroke="rgb(0%, 0%, 0%)" stroke-opacity="1" stroke-miterlimit="10" d="M -51.024156 -56.693937 L -51.024156 56.692781 " transform="matrix(1, 0, 0, -1, 85.239, 56.892)"/>
</g>
<g clip-path="url(#clip-3)">
<path fill="none" stroke-width="0.3985" stroke-linecap="butt" stroke-linejoin="miter" stroke="rgb(0%, 0%, 0%)" stroke-opacity="1" stroke-miterlimit="10" d="M -48.188219 -56.693937 L -48.188219 56.692781 " transform="matrix(1, 0, 0, -1, 85.239, 56.892)"/>
</g>
<g clip-path="url(#clip-4)">
<path fill="none" stroke-width="0.3985" stroke-linecap="butt" stroke-linejoin="miter" stroke="rgb(0%, 0%, 0%)" stroke-opacity="1" stroke-miterlimit="10" d="M -45.352281 -56.693937 L -45.352281 56.692781 " transform="matrix(1, 0, 0, -1, 85.239, 56.892)"/>
</g>
<g clip-path="url(#clip-5)">
<path fill="none" stroke-width="0.3985" stroke-linecap="butt" stroke-linejoin="miter" stroke="rgb(0%, 0%, 0%)" stroke-opacity="1" stroke-miterlimit="10" d="M -42.52025 -56.693937 L -42.52025 56.692781 " transform="matrix(1, 0, 0, -1, 85.239, 56.892)"/>
</g>
<g clip-path="url(#clip-6)">
<path fill="none" stroke-width="0.3985" stroke-linecap="butt" stroke-linejoin="miter" stroke="rgb(0%, 0%, 0%)" stroke-opacity="1" stroke-miterlimit="10" d="M -39.684313 -56.693937 L -39.684313 56.692781 " transform="matrix(1, 0, 0, -1, 85.239, 56.892)"/>
</g>
<g clip-path="url(#clip-7)">
<path fill="none" stroke-width="0.3985" stroke-linecap="butt" stroke-linejoin="miter" stroke="rgb(0%, 0%, 0%)" stroke-opacity="1" stroke-miterlimit="10" d="M -36.848375 -56.693937 L -36.848375 56.692781 " transform="matrix(1, 0, 0, -1, 85.239, 56.892)"/>
</g>
<g clip-path="url(#clip-8)">
<path fill="none" stroke-width="0.3985" stroke-linecap="butt" stroke-linejoin="miter" stroke="rgb(0%, 0%, 0%)" stroke-opacity="1" stroke-miterlimit="10" d="M -34.016344 -56.693937 L -34.016344 56.692781 " transform="matrix(1, 0, 0, -1, 85.239, 56.892)"/>
</g>
<g clip-path="url(#clip-9)">
<path fill="none" stroke-width="0.3985" stroke-linecap="butt" stroke-linejoin="miter" stroke="rgb(0%, 0%, 0%)" stroke-opacity="1" stroke-miterlimit="10" d="M -31.180406 -56.693937 L -31.180406 56.692781 " transform="matrix(1, 0, 0, -1, 85.239, 56.892)"/>
</g>
<g clip-path="url(#clip-10)">
<path fill="none" stroke-width="0.3985" stroke-linecap="butt" stroke-linejoin="miter" stroke="rgb(0%, 0%, 0%)" stroke-opacity="1" stroke-miterlimit="10" d="M -28.344469 -56.693937 L -28.344469 56.692781 " transform="matrix(1, 0, 0, -1, 85.239, 56.892)"/>
</g>
<g clip-path="url(#clip-11)">
<path fill="none" stroke-width="0.3985" stroke-linecap="butt" stroke-linejoin="miter" stroke="rgb(0%, 0%, 0%)" stroke-opacity="1" stroke-miterlimit="10" d="M -25.508531 -56.693937 L -25.508531 56.692781 " transform="matrix(1, 0, 0, -1, 85.239, 56.892)"/>
</g>
<g clip-path="url(#clip-12)">
<path fill="none" stroke-width="0.3985" stroke-linecap="butt" stroke-linejoin="miter" stroke="rgb(0%, 0%, 0%)" stroke-opacity="1" stroke-miterlimit="10" d="M -22.6765 -56.693937 L -22.6765 56.692781 " transform="matrix(1, 0, 0, -1, 85.239, 56.892)"/>
</g>
<g clip-path="url(#clip-13)">
<path fill="none" stroke-width="0.3985" stroke-linecap="butt" stroke-linejoin="miter" stroke="rgb(0%, 0%, 0%)" stroke-opacity="1" stroke-miterlimit="10" d="M -19.840563 -56.693937 L -19.840563 56.692781 " transform="matrix(1, 0, 0, -1, 85.239, 56.892)"/>
</g>
<g clip-path="url(#clip-14)">
<path fill="none" stroke-width="0.3985" stroke-linecap="butt" stroke-linejoin="miter" stroke="rgb(0%, 0%, 0%)" stroke-opacity="1" stroke-miterlimit="10" d="M -17.004625 -56.693937 L -17.004625 56.692781 " transform="matrix(1, 0, 0, -1, 85.239, 56.892)"/>
</g>
<g clip-path="url(#clip-15)">
<path fill="none" stroke-width="0.3985" stroke-linecap="butt" stroke-linejoin="miter" stroke="rgb(0%, 0%, 0%)" stroke-opacity="1" stroke-miterlimit="10" d="M -14.172594 -56.693937 L -14.172594 56.692781 " transform="matrix(1, 0, 0, -1, 85.239, 56.892)"/>
</g>
<g clip-path="url(#clip-16)">
<path fill="none" stroke-width="0.3985" stroke-linecap="butt" stroke-linejoin="miter" stroke="rgb(0%, 0%, 0%)" stroke-opacity="1" stroke-miterlimit="10" d="M -11.336656 -56.693937 L -11.336656 56.692781 " transform="matrix(1, 0, 0, -1, 85.239, 56.892)"/>
</g>
<g clip-path="url(#clip-17)">
<path fill="none" stroke-width="0.3985" stroke-linecap="butt" stroke-linejoin="miter" stroke="rgb(0%, 0%, 0%)" stroke-opacity="1" stroke-miterlimit="10" d="M -8.500719 -56.693937 L -8.500719 56.692781 " transform="matrix(1, 0, 0, -1, 85.239, 56.892)"/>
</g>
<g clip-path="url(#clip-18)">
<path fill="none" stroke-width="0.3985" stroke-linecap="butt" stroke-linejoin="miter" stroke="rgb(0%, 0%, 0%)" stroke-opacity="1" stroke-miterlimit="10" d="M -5.664781 -56.693937 L -5.664781 56.692781 " transform="matrix(1, 0, 0, -1, 85.239, 56.892)"/>
</g>
<g clip-path="url(#clip-19)">
<path fill-rule="nonzero" fill="rgb(0%, 0%, 0%)" fill-opacity="1" stroke-width="0.3985" stroke-linecap="butt" stroke-linejoin="miter" stroke="rgb(0%, 0%, 0%)" stroke-opacity="1" stroke-miterlimit="10" d="M 1.41725 -56.693937 L 1.41725 -8.502531 L -1.418688 -8.502531 L -1.418688 -56.693937 Z M 1.41725 -56.693937 " transform="matrix(1, 0, 0, -1, 85.239, 56.892)"/>
</g>
<path fill-rule="nonzero" fill="rgb(0%, 0%, 0%)" fill-opacity="1" stroke-width="0.3985" stroke-linecap="butt" stroke-linejoin="miter" stroke="rgb(0%, 0%, 0%)" stroke-opacity="1" stroke-miterlimit="10" d="M 1.41725 -2.834562 L 1.41725 2.833406 L -1.418688 2.833406 L -1.418688 -2.834562 Z M 1.41725 -2.834562 " transform="matrix(1, 0, 0, -1, 85.239, 56.892)"/>
<path fill-rule="nonzero" fill="rgb(0%, 0%, 0%)" fill-opacity="1" stroke-width="0.3985" stroke-linecap="butt" stroke-linejoin="miter" stroke="rgb(0%, 0%, 0%)" stroke-opacity="1" stroke-miterlimit="10" d="M 1.41725 56.692781 L 1.41725 8.505281 L -1.418688 8.505281 L -1.418688 56.692781 Z M 1.41725 56.692781 " transform="matrix(1, 0, 0, -1, 85.239, 56.892)"/>
<path fill-rule="nonzero" fill="rgb(100%, 0%, 0%)" fill-opacity="1" stroke-width="0.3985" stroke-linecap="butt" stroke-linejoin="miter" stroke="rgb(100%, 0%, 0%)" stroke-opacity="1" stroke-miterlimit="10" d="M 1.41725 5.669344 C 1.41725 6.450594 0.784437 7.087313 -0.00071875 7.087313 C -0.781969 7.087313 -1.418688 6.450594 -1.418688 5.669344 C -1.418688 4.888094 -0.781969 4.251375 -0.00071875 4.251375 C 0.784437 4.251375 1.41725 4.888094 1.41725 5.669344 Z M 1.41725 5.669344 " transform="matrix(1, 0, 0, -1, 85.239, 56.892)"/>
<path fill-rule="nonzero" fill="rgb(100%, 0%, 0%)" fill-opacity="1" stroke-width="0.3985" stroke-linecap="butt" stroke-linejoin="miter" stroke="rgb(100%, 0%, 0%)" stroke-opacity="1" stroke-miterlimit="10" d="M 1.41725 -5.6705 C 1.41725 -4.885344 0.784437 -4.252531 -0.00071875 -4.252531 C -0.781969 -4.252531 -1.418688 -4.885344 -1.418688 -5.6705 C -1.418688 -6.45175 -0.781969 -7.088469 -0.00071875 -7.088469 C 0.784437 -7.088469 1.41725 -6.45175 1.41725 -5.6705 Z M 1.41725 -5.6705 " transform="matrix(1, 0, 0, -1, 85.239, 56.892)"/>
<path fill="none" stroke-width="0.3985" stroke-linecap="butt" stroke-linejoin="miter" stroke="rgb(0%, 0%, 0%)" stroke-opacity="1" stroke-miterlimit="10" d="M -0.00071875 2.833406 C 1.565687 2.833406 2.835219 4.102938 2.835219 5.669344 C 2.835219 7.23575 1.565687 8.505281 -0.00071875 8.505281 " transform="matrix(1, 0, 0, -1, 85.239, 56.892)"/>
<path fill="none" stroke-width="0.3985" stroke-linecap="butt" stroke-linejoin="miter" stroke="rgb(0%, 0%, 0%)" stroke-opacity="1" stroke-miterlimit="10" d="M -0.00071875 -8.502531 C 1.565687 -8.502531 2.835219 -7.233 2.835219 -5.6705 C 2.835219 -4.104094 1.565687 -2.834562 -0.00071875 -2.834562 " transform="matrix(1, 0, 0, -1, 85.239, 56.892)"/>
<path fill="none" stroke-width="0.3985" stroke-linecap="butt" stroke-linejoin="miter" stroke="rgb(0%, 0%, 0%)" stroke-opacity="1" stroke-miterlimit="10" d="M -0.00071875 0.001375 C 3.132094 0.001375 5.671156 2.536531 5.671156 5.669344 C 5.671156 8.802156 3.132094 11.337313 -0.00071875 11.337313 " transform="matrix(1, 0, 0, -1, 85.239, 56.892)"/>
<path fill="none" stroke-width="0.3985" stroke-linecap="butt" stroke-linejoin="miter" stroke="rgb(0%, 0%, 0%)" stroke-opacity="1" stroke-miterlimit="10" d="M -0.00071875 -11.338469 C 3.132094 -11.338469 5.671156 -8.799406 5.671156 -5.6705 C 5.671156 -2.537687 3.132094 0.001375 -0.00071875 0.001375 " transform="matrix(1, 0, 0, -1, 85.239, 56.892)"/>
<path fill="none" stroke-width="0.3985" stroke-linecap="butt" stroke-linejoin="miter" stroke="rgb(0%, 0%, 0%)" stroke-opacity="1" stroke-miterlimit="10" d="M -0.00071875 -2.834562 C 4.694594 -2.834562 8.503187 0.974031 8.503187 5.669344 C 8.503187 10.364656 4.694594 14.17325 -0.00071875 14.17325 " transform="matrix(1, 0, 0, -1, 85.239, 56.892)"/>
<path fill="none" stroke-width="0.3985" stroke-linecap="butt" stroke-linejoin="miter" stroke="rgb(0%, 0%, 0%)" stroke-opacity="1" stroke-miterlimit="10" d="M -0.00071875 -14.174406 C 4.694594 -14.174406 8.503187 -10.365812 8.503187 -5.6705 C 8.503187 -0.971281 4.694594 2.833406 -0.00071875 2.833406 " transform="matrix(1, 0, 0, -1, 85.239, 56.892)"/>
<path fill="none" stroke-width="0.3985" stroke-linecap="butt" stroke-linejoin="miter" stroke="rgb(0%, 0%, 0%)" stroke-opacity="1" stroke-miterlimit="10" d="M -0.00071875 -5.6705 C 6.261 -5.6705 11.339125 -0.592375 11.339125 5.669344 C 11.339125 11.931063 6.261 17.009188 -0.00071875 17.009188 " transform="matrix(1, 0, 0, -1, 85.239, 56.892)"/>
<path fill="none" stroke-width="0.3985" stroke-linecap="butt" stroke-linejoin="miter" stroke="rgb(0%, 0%, 0%)" stroke-opacity="1" stroke-miterlimit="10" d="M -0.00071875 -17.006437 C 6.261 -17.006437 11.339125 -11.932219 11.339125 -5.6705 C 11.339125 0.591219 6.261 5.669344 -0.00071875 5.669344 " transform="matrix(1, 0, 0, -1, 85.239, 56.892)"/>
<path fill="none" stroke-width="0.3985" stroke-linecap="butt" stroke-linejoin="miter" stroke="rgb(0%, 0%, 0%)" stroke-opacity="1" stroke-miterlimit="10" d="M -0.00071875 -8.502531 C 7.827406 -8.502531 14.171156 -2.158781 14.171156 5.669344 C 14.171156 13.497469 7.827406 19.841219 -0.00071875 19.841219 " transform="matrix(1, 0, 0, -1, 85.239, 56.892)"/>
<path fill="none" stroke-width="0.3985" stroke-linecap="butt" stroke-linejoin="miter" stroke="rgb(0%, 0%, 0%)" stroke-opacity="1" stroke-miterlimit="10" d="M -0.00071875 -19.842375 C 7.827406 -19.842375 14.171156 -13.494719 14.171156 -5.6705 C 14.171156 2.157625 7.827406 8.501375 -0.00071875 8.501375 " transform="matrix(1, 0, 0, -1, 85.239, 56.892)"/>
<path fill="none" stroke-width="0.3985" stroke-linecap="butt" stroke-linejoin="miter" stroke="rgb(0%, 0%, 0%)" stroke-opacity="1" stroke-miterlimit="10" d="M -0.00071875 -11.338469 C 9.393812 -11.338469 17.007094 -3.725187 17.007094 5.669344 C 17.007094 15.063875 9.393812 22.677156 -0.00071875 22.677156 " transform="matrix(1, 0, 0, -1, 85.239, 56.892)"/>
<path fill="none" stroke-width="0.3985" stroke-linecap="butt" stroke-linejoin="miter" stroke="rgb(0%, 0%, 0%)" stroke-opacity="1" stroke-miterlimit="10" d="M -0.00071875 -22.674406 C 9.393812 -22.674406 17.007094 -15.061125 17.007094 -5.6705 C 17.007094 3.724031 9.393812 11.337313 -0.00071875 11.337313 " transform="matrix(1, 0, 0, -1, 85.239, 56.892)"/>
<path fill="none" stroke-width="0.3985" stroke-linecap="butt" stroke-linejoin="miter" stroke="rgb(0%, 0%, 0%)" stroke-opacity="1" stroke-miterlimit="10" d="M -0.00071875 -14.1705 C 10.956312 -14.1705 19.843031 -5.287687 19.843031 5.669344 C 19.843031 16.626375 10.956312 25.509188 -0.00071875 25.509188 " transform="matrix(1, 0, 0, -1, 85.239, 56.892)"/>
<path fill="none" stroke-width="0.3985" stroke-linecap="butt" stroke-linejoin="miter" stroke="rgb(0%, 0%, 0%)" stroke-opacity="1" stroke-miterlimit="10" d="M -0.00071875 -25.510344 C 10.956312 -25.510344 19.843031 -16.627531 19.843031 -5.6705 C 19.843031 5.290438 10.956312 14.17325 -0.00071875 14.17325 " transform="matrix(1, 0, 0, -1, 85.239, 56.892)"/>
<path fill="none" stroke-width="0.3985" stroke-linecap="butt" stroke-linejoin="miter" stroke="rgb(0%, 0%, 0%)" stroke-opacity="1" stroke-miterlimit="10" d="M -0.00071875 -17.006437 C 12.522719 -17.006437 22.675062 -6.854094 22.675062 5.669344 C 22.675062 18.192781 12.522719 28.345125 -0.00071875 28.345125 " transform="matrix(1, 0, 0, -1, 85.239, 56.892)"/>
<path fill="none" stroke-width="0.3985" stroke-linecap="butt" stroke-linejoin="miter" stroke="rgb(0%, 0%, 0%)" stroke-opacity="1" stroke-miterlimit="10" d="M -0.00071875 -28.346281 C 12.522719 -28.346281 22.675062 -18.193937 22.675062 -5.6705 C 22.675062 6.852938 12.522719 17.005281 -0.00071875 17.005281 " transform="matrix(1, 0, 0, -1, 85.239, 56.892)"/>
<path fill="none" stroke-width="0.3985" stroke-linecap="butt" stroke-linejoin="miter" stroke="rgb(0%, 0%, 0%)" stroke-opacity="1" stroke-miterlimit="10" d="M -0.00071875 -19.842375 C 14.089125 -19.842375 25.511 -8.4205 25.511 5.669344 C 25.511 19.759188 14.089125 31.181063 -0.00071875 31.181063 " transform="matrix(1, 0, 0, -1, 85.239, 56.892)"/>
<path fill="none" stroke-width="0.3985" stroke-linecap="butt" stroke-linejoin="miter" stroke="rgb(0%, 0%, 0%)" stroke-opacity="1" stroke-miterlimit="10" d="M -0.00071875 -31.178312 C 14.089125 -31.178312 25.511 -19.756437 25.511 -5.6705 C 25.511 8.419344 14.089125 19.841219 -0.00071875 19.841219 " transform="matrix(1, 0, 0, -1, 85.239, 56.892)"/>
<path fill="none" stroke-width="0.3985" stroke-linecap="butt" stroke-linejoin="miter" stroke="rgb(0%, 0%, 0%)" stroke-opacity="1" stroke-miterlimit="10" d="M -0.00071875 -22.674406 C 15.655531 -22.674406 28.343031 -9.986906 28.343031 5.669344 C 28.343031 21.325594 15.655531 34.013094 -0.00071875 34.013094 " transform="matrix(1, 0, 0, -1, 85.239, 56.892)"/>
<path fill="none" stroke-width="0.3985" stroke-linecap="butt" stroke-linejoin="miter" stroke="rgb(0%, 0%, 0%)" stroke-opacity="1" stroke-miterlimit="10" d="M -0.00071875 -34.01425 C 15.655531 -34.01425 28.343031 -21.322844 28.343031 -5.6705 C 28.343031 9.98575 15.655531 22.677156 -0.00071875 22.677156 " transform="matrix(1, 0, 0, -1, 85.239, 56.892)"/>
<path fill="none" stroke-width="0.3985" stroke-linecap="butt" stroke-linejoin="miter" stroke="rgb(0%, 0%, 0%)" stroke-opacity="1" stroke-miterlimit="10" d="M -0.00071875 -25.510344 C 17.218031 -25.510344 31.178969 -11.549406 31.178969 5.669344 C 31.178969 22.888094 17.218031 36.849031 -0.00071875 36.849031 " transform="matrix(1, 0, 0, -1, 85.239, 56.892)"/>
<path fill="none" stroke-width="0.3985" stroke-linecap="butt" stroke-linejoin="miter" stroke="rgb(0%, 0%, 0%)" stroke-opacity="1" stroke-miterlimit="10" d="M -0.00071875 -36.850187 C 17.218031 -36.850187 31.178969 -22.88925 31.178969 -5.6705 C 31.178969 11.552156 17.218031 25.509188 -0.00071875 25.509188 " transform="matrix(1, 0, 0, -1, 85.239, 56.892)"/>
<path fill="none" stroke-width="0.3985" stroke-linecap="butt" stroke-linejoin="miter" stroke="rgb(0%, 0%, 0%)" stroke-opacity="1" stroke-miterlimit="10" d="M -0.00071875 -28.342375 C 18.784437 -28.342375 34.014906 -13.115812 34.014906 5.669344 C 34.014906 24.4545 18.784437 39.681063 -0.00071875 39.681063 " transform="matrix(1, 0, 0, -1, 85.239, 56.892)"/>
<path fill="none" stroke-width="0.3985" stroke-linecap="butt" stroke-linejoin="miter" stroke="rgb(0%, 0%, 0%)" stroke-opacity="1" stroke-miterlimit="10" d="M -0.00071875 -39.682219 C 18.784437 -39.682219 34.014906 -24.455656 34.014906 -5.6705 C 34.014906 13.114656 18.784437 28.345125 -0.00071875 28.345125 " transform="matrix(1, 0, 0, -1, 85.239, 56.892)"/>
<path fill="none" stroke-width="0.3985" stroke-linecap="butt" stroke-linejoin="miter" stroke="rgb(0%, 0%, 0%)" stroke-opacity="1" stroke-miterlimit="10" d="M -0.00071875 -31.178312 C 20.350844 -31.178312 36.846937 -14.682219 36.846937 5.669344 C 36.846937 26.020906 20.350844 42.517 -0.00071875 42.517 " transform="matrix(1, 0, 0, -1, 85.239, 56.892)"/>
<path fill="none" stroke-width="0.3985" stroke-linecap="butt" stroke-linejoin="miter" stroke="rgb(0%, 0%, 0%)" stroke-opacity="1" stroke-miterlimit="10" d="M -0.00071875 -42.518156 C 20.350844 -42.518156 36.846937 -26.018156 36.846937 -5.6705 C 36.846937 14.681063 20.350844 31.177156 -0.00071875 31.177156 " transform="matrix(1, 0, 0, -1, 85.239, 56.892)"/>
<path fill="none" stroke-width="0.3985" stroke-linecap="butt" stroke-linejoin="miter" stroke="rgb(0%, 0%, 0%)" stroke-opacity="1" stroke-miterlimit="10" d="M -0.00071875 -34.01425 C 21.91725 -34.01425 39.682875 -16.248625 39.682875 5.669344 C 39.682875 27.587313 21.91725 45.352938 -0.00071875 45.352938 " transform="matrix(1, 0, 0, -1, 85.239, 56.892)"/>
<path fill="none" stroke-width="0.3985" stroke-linecap="butt" stroke-linejoin="miter" stroke="rgb(0%, 0%, 0%)" stroke-opacity="1" stroke-miterlimit="10" d="M -0.00071875 -45.350187 C 21.91725 -45.350187 39.682875 -27.584562 39.682875 -5.6705 C 39.682875 16.247469 21.91725 34.013094 -0.00071875 34.013094 " transform="matrix(1, 0, 0, -1, 85.239, 56.892)"/>
<path fill="none" stroke-width="0.3985" stroke-linecap="butt" stroke-linejoin="miter" stroke="rgb(0%, 0%, 0%)" stroke-opacity="1" stroke-miterlimit="10" d="M -0.00071875 -36.846281 C 23.47975 -36.846281 42.514906 -17.811125 42.514906 5.669344 C 42.514906 29.149813 23.47975 48.184969 -0.00071875 48.184969 " transform="matrix(1, 0, 0, -1, 85.239, 56.892)"/>
<path fill="none" stroke-width="0.3985" stroke-linecap="butt" stroke-linejoin="miter" stroke="rgb(0%, 0%, 0%)" stroke-opacity="1" stroke-miterlimit="10" d="M -0.00071875 -48.186125 C 23.47975 -48.186125 42.514906 -29.150969 42.514906 -5.6705 C 42.514906 17.813875 23.47975 36.849031 -0.00071875 36.849031 " transform="matrix(1, 0, 0, -1, 85.239, 56.892)"/>
<g clip-path="url(#clip-20)">
<path fill="none" stroke-width="0.3985" stroke-linecap="butt" stroke-linejoin="miter" stroke="rgb(0%, 0%, 0%)" stroke-opacity="1" stroke-miterlimit="10" d="M -0.00071875 -39.682219 C 25.046156 -39.682219 45.350844 -19.377531 45.350844 5.669344 C 45.350844 30.716219 25.046156 51.020906 -0.00071875 51.020906 " transform="matrix(1, 0, 0, -1, 85.239, 56.892)"/>
</g>
<g clip-path="url(#clip-21)">
<path fill="none" stroke-width="0.3985" stroke-linecap="butt" stroke-linejoin="miter" stroke="rgb(0%, 0%, 0%)" stroke-opacity="1" stroke-miterlimit="10" d="M -0.00071875 -51.022062 C 25.046156 -51.022062 45.350844 -30.717375 45.350844 -5.6705 C 45.350844 19.376375 25.046156 39.681063 -0.00071875 39.681063 " transform="matrix(1, 0, 0, -1, 85.239, 56.892)"/>
</g>
<g clip-path="url(#clip-22)">
<path fill="none" stroke-width="0.3985" stroke-linecap="butt" stroke-linejoin="miter" stroke="rgb(0%, 0%, 0%)" stroke-opacity="1" stroke-miterlimit="10" d="M -0.00071875 -42.518156 C 26.612562 -42.518156 48.186781 -20.943937 48.186781 5.669344 C 48.186781 32.282625 26.612562 53.852938 -0.00071875 53.852938 " transform="matrix(1, 0, 0, -1, 85.239, 56.892)"/>
</g>
<g clip-path="url(#clip-23)">
<path fill="none" stroke-width="0.3985" stroke-linecap="butt" stroke-linejoin="miter" stroke="rgb(0%, 0%, 0%)" stroke-opacity="1" stroke-miterlimit="10" d="M -0.00071875 -53.854094 C 26.612562 -53.854094 48.186781 -32.279875 48.186781 -5.6705 C 48.186781 20.942781 26.612562 42.517 -0.00071875 42.517 " transform="matrix(1, 0, 0, -1, 85.239, 56.892)"/>
</g>
<g clip-path="url(#clip-24)">
<path fill="none" stroke-width="0.3985" stroke-linecap="butt" stroke-linejoin="miter" stroke="rgb(0%, 0%, 0%)" stroke-opacity="1" stroke-miterlimit="10" d="M -0.00071875 -45.350187 C 28.178969 -45.350187 51.018812 -22.510344 51.018812 5.669344 C 51.018812 33.849031 28.178969 56.688875 -0.00071875 56.688875 " transform="matrix(1, 0, 0, -1, 85.239, 56.892)"/>
</g>
<g clip-path="url(#clip-25)">
<path fill="none" stroke-width="0.3985" stroke-linecap="butt" stroke-linejoin="miter" stroke="rgb(0%, 0%, 0%)" stroke-opacity="1" stroke-miterlimit="10" d="M -0.00071875 -56.690031 C 28.178969 -56.690031 51.018812 -33.846281 51.018812 -5.6705 C 51.018812 22.509188 28.178969 45.349031 -0.00071875 45.349031 " transform="matrix(1, 0, 0, -1, 85.239, 56.892)"/>
</g>
</svg>
