<?xml version="1.0" encoding="UTF-8"?>
<svg xmlns="http://www.w3.org/2000/svg" xmlns:xlink="http://www.w3.org/1999/xlink" width="148.273pt" height="122.768pt" viewBox="0 0 148.273 122.768" version="1.1">
<defs>
<clipPath id="clip1">
  <path d="M 84 10 L 147 10 L 147 122.769531 L 84 122.769531 Z M 84 10 "/>
</clipPath>
</defs>
<g id="surface1">
<path style="fill-rule:nonzero;fill:rgb(0%,0%,0%);fill-opacity:1;stroke-width:0.3985;stroke-linecap:butt;stroke-linejoin:miter;stroke:rgb(100%,100%,100%);stroke-opacity:1;stroke-miterlimit:10;" d="M -89.527781 -61.186312 L -89.527781 61.184781 L 58.347219 61.184781 L 58.347219 -61.186312 Z M -89.527781 -61.186312 " transform="matrix(1,0,0,-1,89.727,61.384)"/>
<path style="fill-rule:nonzero;fill:rgb(0%,0%,0%);fill-opacity:1;stroke-width:0.3985;stroke-linecap:butt;stroke-linejoin:miter;stroke:rgb(100%,100%,100%);stroke-opacity:1;stroke-miterlimit:10;" d="M -89.527781 -61.186312 L -89.527781 61.184781 L 58.347219 61.184781 L 58.347219 -61.186312 Z M -89.527781 -61.186312 " transform="matrix(1,0,0,-1,89.727,61.384)"/>
<path style="fill:none;stroke-width:0.3985;stroke-linecap:butt;stroke-linejoin:miter;stroke:rgb(100%,100%,100%);stroke-opacity:1;stroke-miterlimit:10;" d="M -85.0395 0.0011875 L -68.785594 0.0011875 " transform="matrix(1,0,0,-1,89.727,61.384)"/>
<path style=" stroke:none;fill-rule:nonzero;fill:rgb(100%,100%,100%);fill-opacity:1;" d="M 24.527344 61.382812 C 23.464844 61.183594 21.738281 60.585938 20.542969 59.890625 L 20.542969 62.878906 C 21.738281 62.179688 23.464844 61.582031 24.527344 61.382812 "/>
<path style="fill:none;stroke-width:0.3985;stroke-linecap:butt;stroke-linejoin:miter;stroke:rgb(100%,100%,100%);stroke-opacity:1;stroke-miterlimit:10;" d="M -56.691844 -56.694125 L -56.691844 56.692594 " transform="matrix(1,0,0,-1,89.727,61.384)"/>
<path style="fill:none;stroke-width:0.3985;stroke-linecap:butt;stroke-linejoin:miter;stroke:rgb(100%,100%,100%);stroke-opacity:1;stroke-miterlimit:10;" d="M -53.859813 -56.694125 L -53.859813 56.692594 " transform="matrix(1,0,0,-1,89.727,61.384)"/>
<path style="fill:none;stroke-width:0.3985;stroke-linecap:butt;stroke-linejoin:miter;stroke:rgb(100%,100%,100%);stroke-opacity:1;stroke-miterlimit:10;" d="M -51.023875 -56.694125 L -51.023875 56.692594 " transform="matrix(1,0,0,-1,89.727,61.384)"/>
<path style="fill:none;stroke-width:0.3985;stroke-linecap:butt;stroke-linejoin:miter;stroke:rgb(100%,100%,100%);stroke-opacity:1;stroke-miterlimit:10;" d="M -48.187938 -56.694125 L -48.187938 56.692594 " transform="matrix(1,0,0,-1,89.727,61.384)"/>
<path style="fill:none;stroke-width:0.3985;stroke-linecap:butt;stroke-linejoin:miter;stroke:rgb(100%,100%,100%);stroke-opacity:1;stroke-miterlimit:10;" d="M -45.355906 -56.694125 L -45.355906 56.692594 " transform="matrix(1,0,0,-1,89.727,61.384)"/>
<path style="fill:none;stroke-width:0.3985;stroke-linecap:butt;stroke-linejoin:miter;stroke:rgb(100%,100%,100%);stroke-opacity:1;stroke-miterlimit:10;" d="M -42.519969 -56.694125 L -42.519969 56.692594 " transform="matrix(1,0,0,-1,89.727,61.384)"/>
<path style="fill:none;stroke-width:0.3985;stroke-linecap:butt;stroke-linejoin:miter;stroke:rgb(100%,100%,100%);stroke-opacity:1;stroke-miterlimit:10;" d="M -39.684031 -56.694125 L -39.684031 56.692594 " transform="matrix(1,0,0,-1,89.727,61.384)"/>
<path style="fill:none;stroke-width:0.3985;stroke-linecap:butt;stroke-linejoin:miter;stroke:rgb(100%,100%,100%);stroke-opacity:1;stroke-miterlimit:10;" d="M -36.848094 -56.694125 L -36.848094 56.692594 " transform="matrix(1,0,0,-1,89.727,61.384)"/>
<path style="fill:none;stroke-width:0.3985;stroke-linecap:butt;stroke-linejoin:miter;stroke:rgb(100%,100%,100%);stroke-opacity:1;stroke-miterlimit:10;" d="M -34.016063 -56.694125 L -34.016063 56.692594 " transform="matrix(1,0,0,-1,89.727,61.384)"/>
<path style="fill:none;stroke-width:0.3985;stroke-linecap:butt;stroke-linejoin:miter;stroke:rgb(100%,100%,100%);stroke-opacity:1;stroke-miterlimit:10;" d="M -31.180125 -56.694125 L -31.180125 56.692594 " transform="matrix(1,0,0,-1,89.727,61.384)"/>
<path style="fill:none;stroke-width:0.3985;stroke-linecap:butt;stroke-linejoin:miter;stroke:rgb(100%,100%,100%);stroke-opacity:1;stroke-miterlimit:10;" d="M -28.344188 -56.694125 L -28.344188 56.692594 " transform="matrix(1,0,0,-1,89.727,61.384)"/>
<path style="fill:none;stroke-width:0.3985;stroke-linecap:butt;stroke-linejoin:miter;stroke:rgb(100%,100%,100%);stroke-opacity:1;stroke-miterlimit:10;" d="M -25.512156 -56.694125 L -25.512156 56.692594 " transform="matrix(1,0,0,-1,89.727,61.384)"/>
<path style="fill:none;stroke-width:0.3985;stroke-linecap:butt;stroke-linejoin:miter;stroke:rgb(100%,100%,100%);stroke-opacity:1;stroke-miterlimit:10;" d="M -22.676219 -56.694125 L -22.676219 56.692594 " transform="matrix(1,0,0,-1,89.727,61.384)"/>
<path style="fill:none;stroke-width:0.3985;stroke-linecap:butt;stroke-linejoin:miter;stroke:rgb(100%,100%,100%);stroke-opacity:1;stroke-miterlimit:10;" d="M -19.840281 -56.694125 L -19.840281 56.692594 " transform="matrix(1,0,0,-1,89.727,61.384)"/>
<path style="fill:none;stroke-width:0.3985;stroke-linecap:butt;stroke-linejoin:miter;stroke:rgb(100%,100%,100%);stroke-opacity:1;stroke-miterlimit:10;" d="M -17.004344 -56.694125 L -17.004344 56.692594 " transform="matrix(1,0,0,-1,89.727,61.384)"/>
<path style="fill:none;stroke-width:0.3985;stroke-linecap:butt;stroke-linejoin:miter;stroke:rgb(100%,100%,100%);stroke-opacity:1;stroke-miterlimit:10;" d="M -14.172313 -56.694125 L -14.172313 56.692594 " transform="matrix(1,0,0,-1,89.727,61.384)"/>
<path style="fill:none;stroke-width:0.3985;stroke-linecap:butt;stroke-linejoin:miter;stroke:rgb(100%,100%,100%);stroke-opacity:1;stroke-miterlimit:10;" d="M -11.336375 -56.694125 L -11.336375 56.692594 " transform="matrix(1,0,0,-1,89.727,61.384)"/>
<path style="fill:none;stroke-width:0.3985;stroke-linecap:butt;stroke-linejoin:miter;stroke:rgb(100%,100%,100%);stroke-opacity:1;stroke-miterlimit:10;" d="M -8.500438 -56.694125 L -8.500438 56.692594 " transform="matrix(1,0,0,-1,89.727,61.384)"/>
<path style="fill:none;stroke-width:0.3985;stroke-linecap:butt;stroke-linejoin:miter;stroke:rgb(100%,100%,100%);stroke-opacity:1;stroke-miterlimit:10;" d="M -5.6645 -56.694125 L -5.6645 56.692594 " transform="matrix(1,0,0,-1,89.727,61.384)"/>
<path style="fill-rule:nonzero;fill:rgb(0%,0%,0%);fill-opacity:1;stroke-width:0.3985;stroke-linecap:butt;stroke-linejoin:miter;stroke:rgb(100%,100%,100%);stroke-opacity:1;stroke-miterlimit:10;" d="M 1.417531 -56.694125 L 1.417531 -8.502719 L -1.418406 -8.502719 L -1.418406 -56.694125 Z M 1.417531 -56.694125 " transform="matrix(1,0,0,-1,89.727,61.384)"/>
<path style="fill-rule:nonzero;fill:rgb(0%,0%,0%);fill-opacity:1;stroke-width:0.3985;stroke-linecap:butt;stroke-linejoin:miter;stroke:rgb(100%,100%,100%);stroke-opacity:1;stroke-miterlimit:10;" d="M 1.417531 -2.83475 L 1.417531 2.833219 L -1.418406 2.833219 L -1.418406 -2.83475 Z M 1.417531 -2.83475 " transform="matrix(1,0,0,-1,89.727,61.384)"/>
<path style="fill-rule:nonzero;fill:rgb(0%,0%,0%);fill-opacity:1;stroke-width:0.3985;stroke-linecap:butt;stroke-linejoin:miter;stroke:rgb(100%,100%,100%);stroke-opacity:1;stroke-miterlimit:10;" d="M 1.417531 56.692594 L 1.417531 8.505094 L -1.418406 8.505094 L -1.418406 56.692594 Z M 1.417531 56.692594 " transform="matrix(1,0,0,-1,89.727,61.384)"/>
<path style="fill-rule:nonzero;fill:rgb(100%,0%,0%);fill-opacity:1;stroke-width:0.3985;stroke-linecap:butt;stroke-linejoin:miter;stroke:rgb(100%,0%,0%);stroke-opacity:1;stroke-miterlimit:10;" d="M 1.417531 5.669156 C 1.417531 6.450406 0.784719 7.087125 -0.0004375 7.087125 C -0.781688 7.087125 -1.418406 6.450406 -1.418406 5.669156 C -1.418406 4.887906 -0.781688 4.251188 -0.0004375 4.251188 C 0.784719 4.251188 1.417531 4.887906 1.417531 5.669156 Z M 1.417531 5.669156 " transform="matrix(1,0,0,-1,89.727,61.384)"/>
<path style="fill-rule:nonzero;fill:rgb(100%,0%,0%);fill-opacity:1;stroke-width:0.3985;stroke-linecap:butt;stroke-linejoin:miter;stroke:rgb(100%,0%,0%);stroke-opacity:1;stroke-miterlimit:10;" d="M 1.417531 -5.670687 C 1.417531 -4.885531 0.784719 -4.252719 -0.0004375 -4.252719 C -0.781688 -4.252719 -1.418406 -4.885531 -1.418406 -5.670687 C -1.418406 -6.451937 -0.781688 -7.08475 -0.0004375 -7.08475 C 0.784719 -7.08475 1.417531 -6.451937 1.417531 -5.670687 Z M 1.417531 -5.670687 " transform="matrix(1,0,0,-1,89.727,61.384)"/>
<path style="fill:none;stroke-width:0.3985;stroke-linecap:butt;stroke-linejoin:miter;stroke:rgb(100%,100%,100%);stroke-opacity:1;stroke-miterlimit:10;" d="M -0.0004375 8.505094 C 1.565969 8.505094 2.8355 7.235563 2.8355 5.669156 C 2.8355 4.10275 1.565969 2.833219 -0.0004375 2.833219 M -0.0004375 11.337125 C 3.132375 11.337125 5.671437 8.801969 5.671437 5.669156 C 5.671437 2.536344 3.132375 0.0011875 -0.0004375 0.0011875 M -0.0004375 14.173063 C 4.698781 14.173063 8.503469 10.364469 8.503469 5.669156 C 8.503469 0.973844 4.698781 -2.83475 -0.0004375 -2.83475 M -0.0004375 17.009 C 6.261281 17.009 11.339406 11.930875 11.339406 5.669156 C 11.339406 -0.592562 6.261281 -5.670687 -0.0004375 -5.670687 M -0.0004375 19.844938 C 7.827687 19.844938 14.175344 13.497281 14.175344 5.669156 C 14.175344 -2.158969 7.827687 -8.506625 -0.0004375 -8.506625 M -0.0004375 22.676969 C 9.394094 22.676969 17.007375 15.063688 17.007375 5.669156 C 17.007375 -3.725375 9.394094 -11.338656 -0.0004375 -11.338656 M -0.0004375 25.512906 C 10.9605 25.512906 19.843312 16.630094 19.843312 5.669156 C 19.843312 -5.291781 10.9605 -14.174594 -0.0004375 -14.174594 M -0.0004375 28.348844 C 12.526906 28.348844 22.67925 18.1965 22.67925 5.669156 C 22.67925 -6.854281 12.526906 -17.010531 -0.0004375 -17.010531 M -0.0004375 31.184781 C 14.089406 31.184781 25.515187 19.759 25.515187 5.669156 C 25.515187 -8.420687 14.089406 -19.842562 -0.0004375 -19.842562 M -0.0004375 34.016813 C 15.655812 34.016813 28.347219 21.325406 28.347219 5.669156 C 28.347219 -9.987094 15.655812 -22.6785 -0.0004375 -22.6785 M -0.0004375 36.85275 C 17.222219 36.85275 31.183156 22.891813 31.183156 5.669156 C 31.183156 -11.5535 17.222219 -25.514437 -0.0004375 -25.514437 M -0.0004375 39.688688 C 18.788625 39.688688 34.019094 24.458219 34.019094 5.669156 C 34.019094 -13.119906 18.788625 -28.350375 -0.0004375 -28.350375 M -0.0004375 42.520719 C 20.355031 42.520719 36.851125 26.024625 36.851125 5.669156 C 36.851125 -14.682406 20.355031 -31.182406 -0.0004375 -31.182406 M -0.0004375 45.356656 C 21.917531 45.356656 39.687062 27.587125 39.687062 5.669156 C 39.687062 -16.248812 21.917531 -34.018344 -0.0004375 -34.018344 M -0.0004375 48.192594 C 23.483937 48.192594 42.523 29.153531 42.523 5.669156 C 42.523 -17.815219 23.483937 -36.854281 -0.0004375 -36.854281 M -0.0004375 51.028531 C 25.050344 51.028531 45.358937 30.719938 45.358937 5.669156 C 45.358937 -19.381625 25.050344 -39.690219 -0.0004375 -39.690219 M -0.0004375 53.860563 C 26.61675 53.860563 48.190969 32.286344 48.190969 5.669156 C 48.190969 -20.948031 26.61675 -42.52225 -0.0004375 -42.52225 M -0.0004375 56.6965 C 28.183156 56.6965 51.026906 33.85275 51.026906 5.669156 C 51.026906 -22.514437 28.183156 -45.358187 -0.0004375 -45.358187 " transform="matrix(1,0,0,-1,89.727,61.384)"/>
<g clip-path="url(#clip1)" clip-rule="nonzero">
<path style="fill:none;stroke-width:0.3985;stroke-linecap:butt;stroke-linejoin:miter;stroke:rgb(100%,100%,100%);stroke-opacity:1;stroke-miterlimit:10;" d="M -0.0004375 -2.83475 C 1.565969 -2.83475 2.8355 -4.104281 2.8355 -5.670687 C 2.8355 -7.233187 1.565969 -8.502719 -0.0004375 -8.502719 M -0.0004375 0.0011875 C 3.132375 0.0011875 5.671437 -2.537875 5.671437 -5.670687 C 5.671437 -8.799594 3.132375 -11.338656 -0.0004375 -11.338656 M -0.0004375 2.837125 C 4.698781 2.837125 8.503469 -0.971469 8.503469 -5.670687 C 8.503469 -10.366 4.698781 -14.174594 -0.0004375 -14.174594 M -0.0004375 5.669156 C 6.261281 5.669156 11.339406 0.594938 11.339406 -5.670687 C 11.339406 -11.932406 6.261281 -17.010531 -0.0004375 -17.010531 M -0.0004375 8.505094 C 7.827687 8.505094 14.175344 2.157438 14.175344 -5.670687 C 14.175344 -13.498812 7.827687 -19.842562 -0.0004375 -19.842562 M -0.0004375 11.341031 C 9.394094 11.341031 17.007375 3.723844 17.007375 -5.670687 C 17.007375 -15.061312 9.394094 -22.6785 -0.0004375 -22.6785 M -0.0004375 14.173063 C 10.9605 14.173063 19.843312 5.29025 19.843312 -5.670687 C 19.843312 -16.627719 10.9605 -25.514437 -0.0004375 -25.514437 M -0.0004375 17.009 C 12.526906 17.009 22.67925 6.856656 22.67925 -5.670687 C 22.67925 -18.194125 12.526906 -28.346469 -0.0004375 -28.346469 M -0.0004375 19.844938 C 14.089406 19.844938 25.515187 8.423063 25.515187 -5.670687 C 25.515187 -19.760531 14.089406 -31.182406 -0.0004375 -31.182406 M -0.0004375 22.680875 C 15.655812 22.680875 28.347219 9.985563 28.347219 -5.670687 C 28.347219 -21.326937 15.655812 -34.018344 -0.0004375 -34.018344 M -0.0004375 25.512906 C 17.222219 25.512906 31.183156 11.551969 31.183156 -5.670687 C 31.183156 -22.893344 17.222219 -36.854281 -0.0004375 -36.854281 M -0.0004375 28.348844 C 18.788625 28.348844 34.019094 13.118375 34.019094 -5.670687 C 34.019094 -24.455844 18.788625 -39.686312 -0.0004375 -39.686312 M -0.0004375 31.184781 C 20.355031 31.184781 36.851125 14.684781 36.851125 -5.670687 C 36.851125 -26.02225 20.355031 -42.52225 -0.0004375 -42.52225 M -0.0004375 34.016813 C 21.917531 34.016813 39.687062 16.251188 39.687062 -5.670687 C 39.687062 -27.588656 21.917531 -45.358187 -0.0004375 -45.358187 M -0.0004375 36.85275 C 23.483937 36.85275 42.523 17.817594 42.523 -5.670687 C 42.523 -29.155062 23.483937 -48.190219 -0.0004375 -48.190219 M -0.0004375 39.688688 C 25.050344 39.688688 45.358937 19.380094 45.358937 -5.670687 C 45.358937 -30.721469 25.050344 -51.026156 -0.0004375 -51.026156 M -0.0004375 42.524625 C 26.61675 42.524625 48.190969 20.9465 48.190969 -5.670687 C 48.190969 -32.283969 26.61675 -53.862094 -0.0004375 -53.862094 M -0.0004375 45.356656 C 28.183156 45.356656 51.026906 22.512906 51.026906 -5.670687 C 51.026906 -33.850375 28.183156 -56.698031 -0.0004375 -56.698031 " transform="matrix(1,0,0,-1,89.727,61.384)"/>
</g>
</g>
</svg>
