<?xml version="1.0" encoding="UTF-8"?>
<svg xmlns="http://www.w3.org/2000/svg" xmlns:xlink="http://www.w3.org/1999/xlink" width="145.036pt" height="122.363pt" viewBox="0 0 145.036 122.363" version="1.1">
<defs>
<clipPath id="clip1">
  <path d="M 0 0 L 145.035156 0 L 145.035156 122.363281 L 0 122.363281 Z M 0 0 "/>
</clipPath>
<clipPath id="clip2">
  <path d="M 83 0 L 145.035156 0 L 145.035156 113 L 83 113 Z M 83 0 "/>
</clipPath>
<clipPath id="clip3">
  <path d="M 83 10 L 145.035156 10 L 145.035156 122.363281 L 83 122.363281 Z M 83 10 "/>
</clipPath>
</defs>
<g id="surface1">
<g clip-path="url(#clip1)" clip-rule="nonzero">
<path style=" stroke:none;fill-rule:nonzero;fill:rgb(0%,0%,0%);fill-opacity:1;" d="M 0 122.363281 L 0 0 L 145.035156 0 L 145.035156 122.363281 Z M 0 122.363281 "/>
<path style=" stroke:none;fill-rule:nonzero;fill:rgb(0%,0%,0%);fill-opacity:1;" d="M 0 122.363281 L 0 0 L 145.035156 0 L 145.035156 122.363281 Z M 0 122.363281 "/>
</g>
<path style="fill:none;stroke-width:0.3985;stroke-linecap:butt;stroke-linejoin:miter;stroke:rgb(100%,100%,100%);stroke-opacity:1;stroke-miterlimit:10;" d="M -85.039719 0.0013125 L -68.785812 0.0013125 " transform="matrix(1,0,0,-1,89.528,61.181)"/>
<path style=" stroke:none;fill-rule:nonzero;fill:rgb(100%,100%,100%);fill-opacity:1;" d="M 24.332031 61.179688 C 23.265625 60.980469 21.539062 60.382812 20.34375 59.6875 L 20.34375 62.675781 C 21.539062 61.976562 23.265625 61.378906 24.332031 61.179688 "/>
<path style="fill:none;stroke-width:0.3985;stroke-linecap:butt;stroke-linejoin:miter;stroke:rgb(100%,100%,100%);stroke-opacity:1;stroke-miterlimit:10;" d="M -56.692062 -56.694 L -56.692062 56.692719 " transform="matrix(1,0,0,-1,89.528,61.181)"/>
<path style="fill:none;stroke-width:0.3985;stroke-linecap:butt;stroke-linejoin:miter;stroke:rgb(100%,100%,100%);stroke-opacity:1;stroke-miterlimit:10;" d="M -53.860031 -56.694 L -53.860031 56.692719 " transform="matrix(1,0,0,-1,89.528,61.181)"/>
<path style="fill:none;stroke-width:0.3985;stroke-linecap:butt;stroke-linejoin:miter;stroke:rgb(100%,100%,100%);stroke-opacity:1;stroke-miterlimit:10;" d="M -51.024094 -56.694 L -51.024094 56.692719 " transform="matrix(1,0,0,-1,89.528,61.181)"/>
<path style="fill:none;stroke-width:0.3985;stroke-linecap:butt;stroke-linejoin:miter;stroke:rgb(100%,100%,100%);stroke-opacity:1;stroke-miterlimit:10;" d="M -48.188156 -56.694 L -48.188156 56.692719 " transform="matrix(1,0,0,-1,89.528,61.181)"/>
<path style="fill:none;stroke-width:0.3985;stroke-linecap:butt;stroke-linejoin:miter;stroke:rgb(100%,100%,100%);stroke-opacity:1;stroke-miterlimit:10;" d="M -45.356125 -56.694 L -45.356125 56.692719 " transform="matrix(1,0,0,-1,89.528,61.181)"/>
<path style="fill:none;stroke-width:0.3985;stroke-linecap:butt;stroke-linejoin:miter;stroke:rgb(100%,100%,100%);stroke-opacity:1;stroke-miterlimit:10;" d="M -42.520187 -56.694 L -42.520187 56.692719 " transform="matrix(1,0,0,-1,89.528,61.181)"/>
<path style="fill:none;stroke-width:0.3985;stroke-linecap:butt;stroke-linejoin:miter;stroke:rgb(100%,100%,100%);stroke-opacity:1;stroke-miterlimit:10;" d="M -39.68425 -56.694 L -39.68425 56.692719 " transform="matrix(1,0,0,-1,89.528,61.181)"/>
<path style="fill:none;stroke-width:0.3985;stroke-linecap:butt;stroke-linejoin:miter;stroke:rgb(100%,100%,100%);stroke-opacity:1;stroke-miterlimit:10;" d="M -36.848312 -56.694 L -36.848312 56.692719 " transform="matrix(1,0,0,-1,89.528,61.181)"/>
<path style="fill:none;stroke-width:0.3985;stroke-linecap:butt;stroke-linejoin:miter;stroke:rgb(100%,100%,100%);stroke-opacity:1;stroke-miterlimit:10;" d="M -34.016281 -56.694 L -34.016281 56.692719 " transform="matrix(1,0,0,-1,89.528,61.181)"/>
<path style="fill:none;stroke-width:0.3985;stroke-linecap:butt;stroke-linejoin:miter;stroke:rgb(100%,100%,100%);stroke-opacity:1;stroke-miterlimit:10;" d="M -31.180344 -56.694 L -31.180344 56.692719 " transform="matrix(1,0,0,-1,89.528,61.181)"/>
<path style="fill:none;stroke-width:0.3985;stroke-linecap:butt;stroke-linejoin:miter;stroke:rgb(100%,100%,100%);stroke-opacity:1;stroke-miterlimit:10;" d="M -28.344406 -56.694 L -28.344406 56.692719 " transform="matrix(1,0,0,-1,89.528,61.181)"/>
<path style="fill:none;stroke-width:0.3985;stroke-linecap:butt;stroke-linejoin:miter;stroke:rgb(100%,100%,100%);stroke-opacity:1;stroke-miterlimit:10;" d="M -25.508469 -56.694 L -25.508469 56.692719 " transform="matrix(1,0,0,-1,89.528,61.181)"/>
<path style="fill:none;stroke-width:0.3985;stroke-linecap:butt;stroke-linejoin:miter;stroke:rgb(100%,100%,100%);stroke-opacity:1;stroke-miterlimit:10;" d="M -22.676437 -56.694 L -22.676437 56.692719 " transform="matrix(1,0,0,-1,89.528,61.181)"/>
<path style="fill:none;stroke-width:0.3985;stroke-linecap:butt;stroke-linejoin:miter;stroke:rgb(100%,100%,100%);stroke-opacity:1;stroke-miterlimit:10;" d="M -19.8405 -56.694 L -19.8405 56.692719 " transform="matrix(1,0,0,-1,89.528,61.181)"/>
<path style="fill:none;stroke-width:0.3985;stroke-linecap:butt;stroke-linejoin:miter;stroke:rgb(100%,100%,100%);stroke-opacity:1;stroke-miterlimit:10;" d="M -17.004562 -56.694 L -17.004562 56.692719 " transform="matrix(1,0,0,-1,89.528,61.181)"/>
<path style="fill:none;stroke-width:0.3985;stroke-linecap:butt;stroke-linejoin:miter;stroke:rgb(100%,100%,100%);stroke-opacity:1;stroke-miterlimit:10;" d="M -14.172531 -56.694 L -14.172531 56.692719 " transform="matrix(1,0,0,-1,89.528,61.181)"/>
<path style="fill:none;stroke-width:0.3985;stroke-linecap:butt;stroke-linejoin:miter;stroke:rgb(100%,100%,100%);stroke-opacity:1;stroke-miterlimit:10;" d="M -11.336594 -56.694 L -11.336594 56.692719 " transform="matrix(1,0,0,-1,89.528,61.181)"/>
<path style="fill:none;stroke-width:0.3985;stroke-linecap:butt;stroke-linejoin:miter;stroke:rgb(100%,100%,100%);stroke-opacity:1;stroke-miterlimit:10;" d="M -8.500656 -56.694 L -8.500656 56.692719 " transform="matrix(1,0,0,-1,89.528,61.181)"/>
<path style="fill:none;stroke-width:0.3985;stroke-linecap:butt;stroke-linejoin:miter;stroke:rgb(100%,100%,100%);stroke-opacity:1;stroke-miterlimit:10;" d="M -5.664719 -56.694 L -5.664719 56.692719 " transform="matrix(1,0,0,-1,89.528,61.181)"/>
<path style="fill-rule:nonzero;fill:rgb(100%,100%,100%);fill-opacity:1;stroke-width:0.3985;stroke-linecap:butt;stroke-linejoin:miter;stroke:rgb(100%,100%,100%);stroke-opacity:1;stroke-miterlimit:10;" d="M 1.417313 -56.694 L 1.417313 -8.502594 L -1.418625 -8.502594 L -1.418625 -56.694 Z M 1.417313 -56.694 " transform="matrix(1,0,0,-1,89.528,61.181)"/>
<path style="fill-rule:nonzero;fill:rgb(100%,100%,100%);fill-opacity:1;stroke-width:0.3985;stroke-linecap:butt;stroke-linejoin:miter;stroke:rgb(100%,100%,100%);stroke-opacity:1;stroke-miterlimit:10;" d="M 1.417313 -2.834625 L 1.417313 2.833344 L -1.418625 2.833344 L -1.418625 -2.834625 Z M 1.417313 -2.834625 " transform="matrix(1,0,0,-1,89.528,61.181)"/>
<path style="fill-rule:nonzero;fill:rgb(100%,100%,100%);fill-opacity:1;stroke-width:0.3985;stroke-linecap:butt;stroke-linejoin:miter;stroke:rgb(100%,100%,100%);stroke-opacity:1;stroke-miterlimit:10;" d="M 1.417313 56.692719 L 1.417313 8.505219 L -1.418625 8.505219 L -1.418625 56.692719 Z M 1.417313 56.692719 " transform="matrix(1,0,0,-1,89.528,61.181)"/>
<path style="fill-rule:nonzero;fill:rgb(100%,0%,0%);fill-opacity:1;stroke-width:0.3985;stroke-linecap:butt;stroke-linejoin:miter;stroke:rgb(100%,0%,0%);stroke-opacity:1;stroke-miterlimit:10;" d="M 1.417313 5.669281 C 1.417313 6.450531 0.7845 7.08725 -0.00065625 7.08725 C -0.781906 7.08725 -1.418625 6.450531 -1.418625 5.669281 C -1.418625 4.888031 -0.781906 4.251312 -0.00065625 4.251312 C 0.7845 4.251312 1.417313 4.888031 1.417313 5.669281 Z M 1.417313 5.669281 " transform="matrix(1,0,0,-1,89.528,61.181)"/>
<path style="fill-rule:nonzero;fill:rgb(100%,0%,0%);fill-opacity:1;stroke-width:0.3985;stroke-linecap:butt;stroke-linejoin:miter;stroke:rgb(100%,0%,0%);stroke-opacity:1;stroke-miterlimit:10;" d="M 1.417313 -5.670563 C 1.417313 -4.885406 0.7845 -4.252594 -0.00065625 -4.252594 C -0.781906 -4.252594 -1.418625 -4.885406 -1.418625 -5.670563 C -1.418625 -6.451813 -0.781906 -7.088531 -0.00065625 -7.088531 C 0.7845 -7.088531 1.417313 -6.451813 1.417313 -5.670563 Z M 1.417313 -5.670563 " transform="matrix(1,0,0,-1,89.528,61.181)"/>
<path style="fill:none;stroke-width:0.3985;stroke-linecap:butt;stroke-linejoin:miter;stroke:rgb(100%,100%,100%);stroke-opacity:1;stroke-miterlimit:10;" d="M -0.00065625 2.833344 C 1.56575 2.833344 2.835281 4.102875 2.835281 5.669281 C 2.835281 7.235687 1.56575 8.505219 -0.00065625 8.505219 " transform="matrix(1,0,0,-1,89.528,61.181)"/>
<path style="fill:none;stroke-width:0.3985;stroke-linecap:butt;stroke-linejoin:miter;stroke:rgb(100%,100%,100%);stroke-opacity:1;stroke-miterlimit:10;" d="M -0.00065625 -8.502594 C 1.56575 -8.502594 2.835281 -7.233063 2.835281 -5.670563 C 2.835281 -4.104156 1.56575 -2.834625 -0.00065625 -2.834625 " transform="matrix(1,0,0,-1,89.528,61.181)"/>
<path style="fill:none;stroke-width:0.3985;stroke-linecap:butt;stroke-linejoin:miter;stroke:rgb(100%,100%,100%);stroke-opacity:1;stroke-miterlimit:10;" d="M -0.00065625 0.0013125 C 3.132156 0.0013125 5.671219 2.536469 5.671219 5.669281 C 5.671219 8.802094 3.132156 11.33725 -0.00065625 11.33725 " transform="matrix(1,0,0,-1,89.528,61.181)"/>
<path style="fill:none;stroke-width:0.3985;stroke-linecap:butt;stroke-linejoin:miter;stroke:rgb(100%,100%,100%);stroke-opacity:1;stroke-miterlimit:10;" d="M -0.00065625 -11.338531 C 3.132156 -11.338531 5.671219 -8.799469 5.671219 -5.670563 C 5.671219 -2.53775 3.132156 0.0013125 -0.00065625 0.0013125 " transform="matrix(1,0,0,-1,89.528,61.181)"/>
<path style="fill:none;stroke-width:0.3985;stroke-linecap:butt;stroke-linejoin:miter;stroke:rgb(100%,100%,100%);stroke-opacity:1;stroke-miterlimit:10;" d="M -0.00065625 -2.834625 C 4.694656 -2.834625 8.50325 0.973969 8.50325 5.669281 C 8.50325 10.364594 4.694656 14.173187 -0.00065625 14.173187 " transform="matrix(1,0,0,-1,89.528,61.181)"/>
<path style="fill:none;stroke-width:0.3985;stroke-linecap:butt;stroke-linejoin:miter;stroke:rgb(100%,100%,100%);stroke-opacity:1;stroke-miterlimit:10;" d="M -0.00065625 -14.174469 C 4.694656 -14.174469 8.50325 -10.365875 8.50325 -5.670563 C 8.50325 -0.971344 4.694656 2.833344 -0.00065625 2.833344 " transform="matrix(1,0,0,-1,89.528,61.181)"/>
<path style="fill:none;stroke-width:0.3985;stroke-linecap:butt;stroke-linejoin:miter;stroke:rgb(100%,100%,100%);stroke-opacity:1;stroke-miterlimit:10;" d="M -0.00065625 -5.670563 C 6.261063 -5.670563 11.339188 -0.592438 11.339188 5.669281 C 11.339188 11.931 6.261063 17.009125 -0.00065625 17.009125 " transform="matrix(1,0,0,-1,89.528,61.181)"/>
<path style="fill:none;stroke-width:0.3985;stroke-linecap:butt;stroke-linejoin:miter;stroke:rgb(100%,100%,100%);stroke-opacity:1;stroke-miterlimit:10;" d="M -0.00065625 -17.0065 C 6.261063 -17.0065 11.339188 -11.932281 11.339188 -5.670563 C 11.339188 0.591156 6.261063 5.669281 -0.00065625 5.669281 " transform="matrix(1,0,0,-1,89.528,61.181)"/>
<path style="fill:none;stroke-width:0.3985;stroke-linecap:butt;stroke-linejoin:miter;stroke:rgb(100%,100%,100%);stroke-opacity:1;stroke-miterlimit:10;" d="M -0.00065625 -8.502594 C 7.827469 -8.502594 14.171219 -2.158844 14.171219 5.669281 C 14.171219 13.497406 7.827469 19.841156 -0.00065625 19.841156 " transform="matrix(1,0,0,-1,89.528,61.181)"/>
<path style="fill:none;stroke-width:0.3985;stroke-linecap:butt;stroke-linejoin:miter;stroke:rgb(100%,100%,100%);stroke-opacity:1;stroke-miterlimit:10;" d="M -0.00065625 -19.842438 C 7.827469 -19.842438 14.171219 -13.494781 14.171219 -5.670563 C 14.171219 2.157562 7.827469 8.501312 -0.00065625 8.501312 " transform="matrix(1,0,0,-1,89.528,61.181)"/>
<path style="fill:none;stroke-width:0.3985;stroke-linecap:butt;stroke-linejoin:miter;stroke:rgb(100%,100%,100%);stroke-opacity:1;stroke-miterlimit:10;" d="M -0.00065625 -11.338531 C 9.393875 -11.338531 17.007156 -3.72525 17.007156 5.669281 C 17.007156 15.063812 9.393875 22.677094 -0.00065625 22.677094 " transform="matrix(1,0,0,-1,89.528,61.181)"/>
<path style="fill:none;stroke-width:0.3985;stroke-linecap:butt;stroke-linejoin:miter;stroke:rgb(100%,100%,100%);stroke-opacity:1;stroke-miterlimit:10;" d="M -0.00065625 -22.674469 C 9.393875 -22.674469 17.007156 -15.061188 17.007156 -5.670563 C 17.007156 3.723969 9.393875 11.33725 -0.00065625 11.33725 " transform="matrix(1,0,0,-1,89.528,61.181)"/>
<path style="fill:none;stroke-width:0.3985;stroke-linecap:butt;stroke-linejoin:miter;stroke:rgb(100%,100%,100%);stroke-opacity:1;stroke-miterlimit:10;" d="M -0.00065625 -14.170563 C 10.956375 -14.170563 19.843094 -5.28775 19.843094 5.669281 C 19.843094 16.626312 10.956375 25.509125 -0.00065625 25.509125 " transform="matrix(1,0,0,-1,89.528,61.181)"/>
<path style="fill:none;stroke-width:0.3985;stroke-linecap:butt;stroke-linejoin:miter;stroke:rgb(100%,100%,100%);stroke-opacity:1;stroke-miterlimit:10;" d="M -0.00065625 -25.510406 C 10.956375 -25.510406 19.843094 -16.627594 19.843094 -5.670563 C 19.843094 5.290375 10.956375 14.173187 -0.00065625 14.173187 " transform="matrix(1,0,0,-1,89.528,61.181)"/>
<path style="fill:none;stroke-width:0.3985;stroke-linecap:butt;stroke-linejoin:miter;stroke:rgb(100%,100%,100%);stroke-opacity:1;stroke-miterlimit:10;" d="M -0.00065625 -17.0065 C 12.522781 -17.0065 22.675125 -6.854156 22.675125 5.669281 C 22.675125 18.192719 12.522781 28.345062 -0.00065625 28.345062 " transform="matrix(1,0,0,-1,89.528,61.181)"/>
<path style="fill:none;stroke-width:0.3985;stroke-linecap:butt;stroke-linejoin:miter;stroke:rgb(100%,100%,100%);stroke-opacity:1;stroke-miterlimit:10;" d="M -0.00065625 -28.346344 C 12.522781 -28.346344 22.675125 -18.194 22.675125 -5.670563 C 22.675125 6.852875 12.522781 17.005219 -0.00065625 17.005219 " transform="matrix(1,0,0,-1,89.528,61.181)"/>
<path style="fill:none;stroke-width:0.3985;stroke-linecap:butt;stroke-linejoin:miter;stroke:rgb(100%,100%,100%);stroke-opacity:1;stroke-miterlimit:10;" d="M -0.00065625 -19.842438 C 14.089188 -19.842438 25.511063 -8.420563 25.511063 5.669281 C 25.511063 19.759125 14.089188 31.181 -0.00065625 31.181 " transform="matrix(1,0,0,-1,89.528,61.181)"/>
<path style="fill:none;stroke-width:0.3985;stroke-linecap:butt;stroke-linejoin:miter;stroke:rgb(100%,100%,100%);stroke-opacity:1;stroke-miterlimit:10;" d="M -0.00065625 -31.178375 C 14.089188 -31.178375 25.511063 -19.7565 25.511063 -5.670563 C 25.511063 8.419281 14.089188 19.841156 -0.00065625 19.841156 " transform="matrix(1,0,0,-1,89.528,61.181)"/>
<path style="fill:none;stroke-width:0.3985;stroke-linecap:butt;stroke-linejoin:miter;stroke:rgb(100%,100%,100%);stroke-opacity:1;stroke-miterlimit:10;" d="M -0.00065625 -22.674469 C 15.655594 -22.674469 28.343094 -9.986969 28.343094 5.669281 C 28.343094 21.325531 15.655594 34.013031 -0.00065625 34.013031 " transform="matrix(1,0,0,-1,89.528,61.181)"/>
<path style="fill:none;stroke-width:0.3985;stroke-linecap:butt;stroke-linejoin:miter;stroke:rgb(100%,100%,100%);stroke-opacity:1;stroke-miterlimit:10;" d="M -0.00065625 -34.014313 C 15.655594 -34.014313 28.343094 -21.322906 28.343094 -5.670563 C 28.343094 9.985687 15.655594 22.677094 -0.00065625 22.677094 " transform="matrix(1,0,0,-1,89.528,61.181)"/>
<path style="fill:none;stroke-width:0.3985;stroke-linecap:butt;stroke-linejoin:miter;stroke:rgb(100%,100%,100%);stroke-opacity:1;stroke-miterlimit:10;" d="M -0.00065625 -25.510406 C 17.218094 -25.510406 31.179031 -11.549469 31.179031 5.669281 C 31.179031 22.888031 17.218094 36.848969 -0.00065625 36.848969 " transform="matrix(1,0,0,-1,89.528,61.181)"/>
<path style="fill:none;stroke-width:0.3985;stroke-linecap:butt;stroke-linejoin:miter;stroke:rgb(100%,100%,100%);stroke-opacity:1;stroke-miterlimit:10;" d="M -0.00065625 -36.85025 C 17.218094 -36.85025 31.179031 -22.889313 31.179031 -5.670563 C 31.179031 11.552094 17.218094 25.509125 -0.00065625 25.509125 " transform="matrix(1,0,0,-1,89.528,61.181)"/>
<path style="fill:none;stroke-width:0.3985;stroke-linecap:butt;stroke-linejoin:miter;stroke:rgb(100%,100%,100%);stroke-opacity:1;stroke-miterlimit:10;" d="M -0.00065625 -28.342438 C 18.7845 -28.342438 34.014969 -13.115875 34.014969 5.669281 C 34.014969 24.454437 18.7845 39.681 -0.00065625 39.681 " transform="matrix(1,0,0,-1,89.528,61.181)"/>
<path style="fill:none;stroke-width:0.3985;stroke-linecap:butt;stroke-linejoin:miter;stroke:rgb(100%,100%,100%);stroke-opacity:1;stroke-miterlimit:10;" d="M -0.00065625 -39.682281 C 18.7845 -39.682281 34.014969 -24.455719 34.014969 -5.670563 C 34.014969 13.114594 18.7845 28.345062 -0.00065625 28.345062 " transform="matrix(1,0,0,-1,89.528,61.181)"/>
<path style="fill:none;stroke-width:0.3985;stroke-linecap:butt;stroke-linejoin:miter;stroke:rgb(100%,100%,100%);stroke-opacity:1;stroke-miterlimit:10;" d="M -0.00065625 -31.178375 C 20.350906 -31.178375 36.847 -14.682281 36.847 5.669281 C 36.847 26.020844 20.350906 42.516937 -0.00065625 42.516937 " transform="matrix(1,0,0,-1,89.528,61.181)"/>
<path style="fill:none;stroke-width:0.3985;stroke-linecap:butt;stroke-linejoin:miter;stroke:rgb(100%,100%,100%);stroke-opacity:1;stroke-miterlimit:10;" d="M -0.00065625 -42.518219 C 20.350906 -42.518219 36.847 -26.018219 36.847 -5.670563 C 36.847 14.681 20.350906 31.177094 -0.00065625 31.177094 " transform="matrix(1,0,0,-1,89.528,61.181)"/>
<path style="fill:none;stroke-width:0.3985;stroke-linecap:butt;stroke-linejoin:miter;stroke:rgb(100%,100%,100%);stroke-opacity:1;stroke-miterlimit:10;" d="M -0.00065625 -34.014313 C 21.917313 -34.014313 39.682938 -16.248688 39.682938 5.669281 C 39.682938 27.58725 21.917313 45.352875 -0.00065625 45.352875 " transform="matrix(1,0,0,-1,89.528,61.181)"/>
<path style="fill:none;stroke-width:0.3985;stroke-linecap:butt;stroke-linejoin:miter;stroke:rgb(100%,100%,100%);stroke-opacity:1;stroke-miterlimit:10;" d="M -0.00065625 -45.35025 C 21.917313 -45.35025 39.682938 -27.584625 39.682938 -5.670563 C 39.682938 16.247406 21.917313 34.013031 -0.00065625 34.013031 " transform="matrix(1,0,0,-1,89.528,61.181)"/>
<path style="fill:none;stroke-width:0.3985;stroke-linecap:butt;stroke-linejoin:miter;stroke:rgb(100%,100%,100%);stroke-opacity:1;stroke-miterlimit:10;" d="M -0.00065625 -36.846344 C 23.479813 -36.846344 42.514969 -17.811188 42.514969 5.669281 C 42.514969 29.14975 23.479813 48.184906 -0.00065625 48.184906 " transform="matrix(1,0,0,-1,89.528,61.181)"/>
<path style="fill:none;stroke-width:0.3985;stroke-linecap:butt;stroke-linejoin:miter;stroke:rgb(100%,100%,100%);stroke-opacity:1;stroke-miterlimit:10;" d="M -0.00065625 -48.186188 C 23.479813 -48.186188 42.514969 -29.151031 42.514969 -5.670563 C 42.514969 17.813812 23.479813 36.848969 -0.00065625 36.848969 " transform="matrix(1,0,0,-1,89.528,61.181)"/>
<path style="fill:none;stroke-width:0.3985;stroke-linecap:butt;stroke-linejoin:miter;stroke:rgb(100%,100%,100%);stroke-opacity:1;stroke-miterlimit:10;" d="M -0.00065625 -39.682281 C 25.046219 -39.682281 45.350906 -19.377594 45.350906 5.669281 C 45.350906 30.716156 25.046219 51.020844 -0.00065625 51.020844 " transform="matrix(1,0,0,-1,89.528,61.181)"/>
<path style="fill:none;stroke-width:0.3985;stroke-linecap:butt;stroke-linejoin:miter;stroke:rgb(100%,100%,100%);stroke-opacity:1;stroke-miterlimit:10;" d="M -0.00065625 -51.022125 C 25.046219 -51.022125 45.350906 -30.717438 45.350906 -5.670563 C 45.350906 19.376312 25.046219 39.681 -0.00065625 39.681 " transform="matrix(1,0,0,-1,89.528,61.181)"/>
<path style="fill:none;stroke-width:0.3985;stroke-linecap:butt;stroke-linejoin:miter;stroke:rgb(100%,100%,100%);stroke-opacity:1;stroke-miterlimit:10;" d="M -0.00065625 -42.518219 C 26.612625 -42.518219 48.186844 -20.944 48.186844 5.669281 C 48.186844 32.282562 26.612625 53.856781 -0.00065625 53.856781 " transform="matrix(1,0,0,-1,89.528,61.181)"/>
<path style="fill:none;stroke-width:0.3985;stroke-linecap:butt;stroke-linejoin:miter;stroke:rgb(100%,100%,100%);stroke-opacity:1;stroke-miterlimit:10;" d="M -0.00065625 -53.854156 C 26.612625 -53.854156 48.186844 -32.279938 48.186844 -5.670563 C 48.186844 20.942719 26.612625 42.516937 -0.00065625 42.516937 " transform="matrix(1,0,0,-1,89.528,61.181)"/>
<g clip-path="url(#clip2)" clip-rule="nonzero">
<path style="fill:none;stroke-width:0.3985;stroke-linecap:butt;stroke-linejoin:miter;stroke:rgb(100%,100%,100%);stroke-opacity:1;stroke-miterlimit:10;" d="M -0.00065625 -45.35025 C 28.179031 -45.35025 51.018875 -22.510406 51.018875 5.669281 C 51.018875 33.848969 28.179031 56.688812 -0.00065625 56.688812 " transform="matrix(1,0,0,-1,89.528,61.181)"/>
</g>
<g clip-path="url(#clip3)" clip-rule="nonzero">
<path style="fill:none;stroke-width:0.3985;stroke-linecap:butt;stroke-linejoin:miter;stroke:rgb(100%,100%,100%);stroke-opacity:1;stroke-miterlimit:10;" d="M -0.00065625 -56.690094 C 28.179031 -56.690094 51.018875 -33.846344 51.018875 -5.670563 C 51.018875 22.509125 28.179031 45.348969 -0.00065625 45.348969 " transform="matrix(1,0,0,-1,89.528,61.181)"/>
</g>
</g>
</svg>
