<?xml version="1.0" encoding="UTF-8"?>
<svg xmlns="http://www.w3.org/2000/svg" xmlns:xlink="http://www.w3.org/1999/xlink" width="147.875pt" height="122.369pt" viewBox="0 0 147.875 122.369" version="1.1">
<defs>
<clipPath id="clip1">
  <path d="M 0 0 L 147.875 0 L 147.875 122.367188 L 0 122.367188 Z M 0 0 "/>
</clipPath>
<clipPath id="clip2">
  <path d="M 83 10 L 147 10 L 147 122.367188 L 83 122.367188 Z M 83 10 "/>
</clipPath>
</defs>
<g id="surface1">
<g clip-path="url(#clip1)" clip-rule="nonzero">
<path style=" stroke:none;fill-rule:nonzero;fill:rgb(0%,0%,0%);fill-opacity:1;" d="M 0 122.371094 L 0 0 L 147.875 0 L 147.875 122.371094 Z M 0 122.371094 "/>
<path style=" stroke:none;fill-rule:nonzero;fill:rgb(0%,0%,0%);fill-opacity:1;" d="M 0 122.371094 L 0 0 L 147.875 0 L 147.875 122.371094 Z M 0 122.371094 "/>
</g>
<path style="fill:none;stroke-width:0.3985;stroke-linecap:butt;stroke-linejoin:miter;stroke:rgb(100%,100%,100%);stroke-opacity:1;stroke-miterlimit:10;" d="M -85.039719 0.00040625 L -68.785812 0.00040625 " transform="matrix(1,0,0,-1,89.528,61.184)"/>
<path style=" stroke:none;fill-rule:nonzero;fill:rgb(100%,100%,100%);fill-opacity:1;" d="M 24.332031 61.183594 C 23.265625 60.984375 21.539062 60.386719 20.34375 59.691406 L 20.34375 62.679688 C 21.539062 61.980469 23.265625 61.382812 24.332031 61.183594 "/>
<path style="fill:none;stroke-width:0.3985;stroke-linecap:butt;stroke-linejoin:miter;stroke:rgb(100%,100%,100%);stroke-opacity:1;stroke-miterlimit:10;" d="M -56.692062 -56.694906 L -56.692062 56.691812 " transform="matrix(1,0,0,-1,89.528,61.184)"/>
<path style="fill:none;stroke-width:0.3985;stroke-linecap:butt;stroke-linejoin:miter;stroke:rgb(100%,100%,100%);stroke-opacity:1;stroke-miterlimit:10;" d="M -53.860031 -56.694906 L -53.860031 56.691812 " transform="matrix(1,0,0,-1,89.528,61.184)"/>
<path style="fill:none;stroke-width:0.3985;stroke-linecap:butt;stroke-linejoin:miter;stroke:rgb(100%,100%,100%);stroke-opacity:1;stroke-miterlimit:10;" d="M -51.024094 -56.694906 L -51.024094 56.691812 " transform="matrix(1,0,0,-1,89.528,61.184)"/>
<path style="fill:none;stroke-width:0.3985;stroke-linecap:butt;stroke-linejoin:miter;stroke:rgb(100%,100%,100%);stroke-opacity:1;stroke-miterlimit:10;" d="M -48.188156 -56.694906 L -48.188156 56.691812 " transform="matrix(1,0,0,-1,89.528,61.184)"/>
<path style="fill:none;stroke-width:0.3985;stroke-linecap:butt;stroke-linejoin:miter;stroke:rgb(100%,100%,100%);stroke-opacity:1;stroke-miterlimit:10;" d="M -45.356125 -56.694906 L -45.356125 56.691812 " transform="matrix(1,0,0,-1,89.528,61.184)"/>
<path style="fill:none;stroke-width:0.3985;stroke-linecap:butt;stroke-linejoin:miter;stroke:rgb(100%,100%,100%);stroke-opacity:1;stroke-miterlimit:10;" d="M -42.520187 -56.694906 L -42.520187 56.691812 " transform="matrix(1,0,0,-1,89.528,61.184)"/>
<path style="fill:none;stroke-width:0.3985;stroke-linecap:butt;stroke-linejoin:miter;stroke:rgb(100%,100%,100%);stroke-opacity:1;stroke-miterlimit:10;" d="M -39.68425 -56.694906 L -39.68425 56.691812 " transform="matrix(1,0,0,-1,89.528,61.184)"/>
<path style="fill:none;stroke-width:0.3985;stroke-linecap:butt;stroke-linejoin:miter;stroke:rgb(100%,100%,100%);stroke-opacity:1;stroke-miterlimit:10;" d="M -36.848312 -56.694906 L -36.848312 56.691812 " transform="matrix(1,0,0,-1,89.528,61.184)"/>
<path style="fill:none;stroke-width:0.3985;stroke-linecap:butt;stroke-linejoin:miter;stroke:rgb(100%,100%,100%);stroke-opacity:1;stroke-miterlimit:10;" d="M -34.016281 -56.694906 L -34.016281 56.691812 " transform="matrix(1,0,0,-1,89.528,61.184)"/>
<path style="fill:none;stroke-width:0.3985;stroke-linecap:butt;stroke-linejoin:miter;stroke:rgb(100%,100%,100%);stroke-opacity:1;stroke-miterlimit:10;" d="M -31.180344 -56.694906 L -31.180344 56.691812 " transform="matrix(1,0,0,-1,89.528,61.184)"/>
<path style="fill:none;stroke-width:0.3985;stroke-linecap:butt;stroke-linejoin:miter;stroke:rgb(100%,100%,100%);stroke-opacity:1;stroke-miterlimit:10;" d="M -28.344406 -56.694906 L -28.344406 56.691812 " transform="matrix(1,0,0,-1,89.528,61.184)"/>
<path style="fill:none;stroke-width:0.3985;stroke-linecap:butt;stroke-linejoin:miter;stroke:rgb(100%,100%,100%);stroke-opacity:1;stroke-miterlimit:10;" d="M -25.508469 -56.694906 L -25.508469 56.691812 " transform="matrix(1,0,0,-1,89.528,61.184)"/>
<path style="fill:none;stroke-width:0.3985;stroke-linecap:butt;stroke-linejoin:miter;stroke:rgb(100%,100%,100%);stroke-opacity:1;stroke-miterlimit:10;" d="M -22.676437 -56.694906 L -22.676437 56.691812 " transform="matrix(1,0,0,-1,89.528,61.184)"/>
<path style="fill:none;stroke-width:0.3985;stroke-linecap:butt;stroke-linejoin:miter;stroke:rgb(100%,100%,100%);stroke-opacity:1;stroke-miterlimit:10;" d="M -19.8405 -56.694906 L -19.8405 56.691812 " transform="matrix(1,0,0,-1,89.528,61.184)"/>
<path style="fill:none;stroke-width:0.3985;stroke-linecap:butt;stroke-linejoin:miter;stroke:rgb(100%,100%,100%);stroke-opacity:1;stroke-miterlimit:10;" d="M -17.004562 -56.694906 L -17.004562 56.691812 " transform="matrix(1,0,0,-1,89.528,61.184)"/>
<path style="fill:none;stroke-width:0.3985;stroke-linecap:butt;stroke-linejoin:miter;stroke:rgb(100%,100%,100%);stroke-opacity:1;stroke-miterlimit:10;" d="M -14.172531 -56.694906 L -14.172531 56.691812 " transform="matrix(1,0,0,-1,89.528,61.184)"/>
<path style="fill:none;stroke-width:0.3985;stroke-linecap:butt;stroke-linejoin:miter;stroke:rgb(100%,100%,100%);stroke-opacity:1;stroke-miterlimit:10;" d="M -11.336594 -56.694906 L -11.336594 56.691812 " transform="matrix(1,0,0,-1,89.528,61.184)"/>
<path style="fill:none;stroke-width:0.3985;stroke-linecap:butt;stroke-linejoin:miter;stroke:rgb(100%,100%,100%);stroke-opacity:1;stroke-miterlimit:10;" d="M -8.500656 -56.694906 L -8.500656 56.691812 " transform="matrix(1,0,0,-1,89.528,61.184)"/>
<path style="fill:none;stroke-width:0.3985;stroke-linecap:butt;stroke-linejoin:miter;stroke:rgb(100%,100%,100%);stroke-opacity:1;stroke-miterlimit:10;" d="M -5.664719 -56.694906 L -5.664719 56.691812 " transform="matrix(1,0,0,-1,89.528,61.184)"/>
<path style="fill-rule:nonzero;fill:rgb(100%,100%,100%);fill-opacity:1;stroke-width:0.3985;stroke-linecap:butt;stroke-linejoin:miter;stroke:rgb(100%,100%,100%);stroke-opacity:1;stroke-miterlimit:10;" d="M 1.417313 -56.694906 L 1.417313 -8.5035 L -1.418625 -8.5035 L -1.418625 -56.694906 Z M 1.417313 -56.694906 " transform="matrix(1,0,0,-1,89.528,61.184)"/>
<path style="fill-rule:nonzero;fill:rgb(100%,100%,100%);fill-opacity:1;stroke-width:0.3985;stroke-linecap:butt;stroke-linejoin:miter;stroke:rgb(100%,100%,100%);stroke-opacity:1;stroke-miterlimit:10;" d="M 1.417313 -2.835531 L 1.417313 2.836344 L -1.418625 2.836344 L -1.418625 -2.835531 Z M 1.417313 -2.835531 " transform="matrix(1,0,0,-1,89.528,61.184)"/>
<path style="fill-rule:nonzero;fill:rgb(100%,100%,100%);fill-opacity:1;stroke-width:0.3985;stroke-linecap:butt;stroke-linejoin:miter;stroke:rgb(100%,100%,100%);stroke-opacity:1;stroke-miterlimit:10;" d="M 1.417313 56.691812 L 1.417313 8.504312 L -1.418625 8.504312 L -1.418625 56.691812 Z M 1.417313 56.691812 " transform="matrix(1,0,0,-1,89.528,61.184)"/>
<path style="fill-rule:nonzero;fill:rgb(100%,0%,0%);fill-opacity:1;stroke-width:0.3985;stroke-linecap:butt;stroke-linejoin:miter;stroke:rgb(100%,0%,0%);stroke-opacity:1;stroke-miterlimit:10;" d="M 1.417313 5.668375 C 1.417313 6.453531 0.7845 7.086344 -0.00065625 7.086344 C -0.781906 7.086344 -1.418625 6.453531 -1.418625 5.668375 C -1.418625 4.887125 -0.781906 4.250406 -0.00065625 4.250406 C 0.7845 4.250406 1.417313 4.887125 1.417313 5.668375 Z M 1.417313 5.668375 " transform="matrix(1,0,0,-1,89.528,61.184)"/>
<path style="fill-rule:nonzero;fill:rgb(100%,0%,0%);fill-opacity:1;stroke-width:0.3985;stroke-linecap:butt;stroke-linejoin:miter;stroke:rgb(100%,0%,0%);stroke-opacity:1;stroke-miterlimit:10;" d="M 1.417313 -5.667563 C 1.417313 -4.886313 0.7845 -4.2535 -0.00065625 -4.2535 C -0.781906 -4.2535 -1.418625 -4.886313 -1.418625 -5.667563 C -1.418625 -6.452719 -0.781906 -7.085531 -0.00065625 -7.085531 C 0.7845 -7.085531 1.417313 -6.452719 1.417313 -5.667563 Z M 1.417313 -5.667563 " transform="matrix(1,0,0,-1,89.528,61.184)"/>
<path style="fill:none;stroke-width:0.3985;stroke-linecap:butt;stroke-linejoin:miter;stroke:rgb(100%,100%,100%);stroke-opacity:1;stroke-miterlimit:10;" d="M -0.00065625 8.504312 C 1.56575 8.504312 2.835281 7.234781 2.835281 5.668375 C 2.835281 4.101969 1.56575 2.836344 -0.00065625 2.836344 M -0.00065625 11.34025 C 3.132156 11.34025 5.671219 8.801187 5.671219 5.668375 C 5.671219 2.539469 3.132156 0.00040625 -0.00065625 0.00040625 M -0.00065625 14.172281 C 4.698563 14.172281 8.50325 10.367594 8.50325 5.668375 C 8.50325 0.973062 4.698563 -2.835531 -0.00065625 -2.835531 M -0.00065625 17.008219 C 6.261063 17.008219 11.339188 11.930094 11.339188 5.668375 C 11.339188 -0.593344 6.261063 -5.671469 -0.00065625 -5.671469 M -0.00065625 19.844156 C 7.827469 19.844156 14.175125 13.4965 14.175125 5.668375 C 14.175125 -2.15975 7.827469 -8.5035 -0.00065625 -8.5035 M -0.00065625 22.680094 C 9.393875 22.680094 17.007156 15.062906 17.007156 5.668375 C 17.007156 -3.726156 9.393875 -11.339438 -0.00065625 -11.339438 M -0.00065625 25.512125 C 10.960281 25.512125 19.843094 16.629312 19.843094 5.668375 C 19.843094 -5.288656 10.960281 -14.175375 -0.00065625 -14.175375 M -0.00065625 28.348062 C 12.526688 28.348062 22.679031 18.195719 22.679031 5.668375 C 22.679031 -6.855063 12.526688 -17.011313 -0.00065625 -17.011313 M -0.00065625 31.184 C 14.089188 31.184 25.514969 19.762125 25.514969 5.668375 C 25.514969 -8.421469 14.089188 -19.843344 -0.00065625 -19.843344 M -0.00065625 34.016031 C 15.655594 34.016031 28.347 21.324625 28.347 5.668375 C 28.347 -9.987875 15.655594 -22.679281 -0.00065625 -22.679281 M -0.00065625 36.851969 C 17.222 36.851969 31.182938 22.891031 31.182938 5.668375 C 31.182938 -11.554281 17.222 -25.515219 -0.00065625 -25.515219 M -0.00065625 39.687906 C 18.788406 39.687906 34.018875 24.457437 34.018875 5.668375 C 34.018875 -13.116781 18.788406 -28.34725 -0.00065625 -28.34725 M -0.00065625 42.523844 C 20.354813 42.523844 36.854813 26.023844 36.854813 5.668375 C 36.854813 -14.683188 20.354813 -31.183188 -0.00065625 -31.183188 M -0.00065625 45.355875 C 21.921219 45.355875 39.686844 27.59025 39.686844 5.668375 C 39.686844 -16.249594 21.921219 -34.019125 -0.00065625 -34.019125 M -0.00065625 48.191812 C 23.483719 48.191812 42.522781 29.15275 42.522781 5.668375 C 42.522781 -17.816 23.483719 -36.855063 -0.00065625 -36.855063 M -0.00065625 51.02775 C 25.050125 51.02775 45.358719 30.719156 45.358719 5.668375 C 45.358719 -19.382406 25.050125 -39.687094 -0.00065625 -39.687094 M -0.00065625 53.859781 C 26.616531 53.859781 48.19075 32.285562 48.19075 5.668375 C 48.19075 -20.948813 26.616531 -42.523031 -0.00065625 -42.523031 M -0.00065625 56.695719 C 28.182938 56.695719 51.026688 33.851969 51.026688 5.668375 C 51.026688 -22.511313 28.182938 -45.358969 -0.00065625 -45.358969 " transform="matrix(1,0,0,-1,89.528,61.184)"/>
<g clip-path="url(#clip2)" clip-rule="nonzero">
<path style="fill:none;stroke-width:0.3985;stroke-linecap:butt;stroke-linejoin:miter;stroke:rgb(100%,100%,100%);stroke-opacity:1;stroke-miterlimit:10;" d="M -0.00065625 -2.835531 C 1.56575 -2.835531 2.835281 -4.105063 2.835281 -5.667563 C 2.835281 -7.233969 1.56575 -8.5035 -0.00065625 -8.5035 M -0.00065625 0.00040625 C 3.132156 0.00040625 5.671219 -2.538656 5.671219 -5.667563 C 5.671219 -8.800375 3.132156 -11.339438 -0.00065625 -11.339438 M -0.00065625 2.836344 C 4.698563 2.836344 8.50325 -0.97225 8.50325 -5.667563 C 8.50325 -10.366781 4.698563 -14.175375 -0.00065625 -14.175375 M -0.00065625 5.668375 C 6.261063 5.668375 11.339188 0.594156 11.339188 -5.667563 C 11.339188 -11.933188 6.261063 -17.007406 -0.00065625 -17.007406 M -0.00065625 8.504312 C 7.827469 8.504312 14.175125 2.160562 14.175125 -5.667563 C 14.175125 -13.495688 7.827469 -19.843344 -0.00065625 -19.843344 M -0.00065625 11.34025 C 9.393875 11.34025 17.007156 3.723062 17.007156 -5.667563 C 17.007156 -15.062094 9.393875 -22.679281 -0.00065625 -22.679281 M -0.00065625 14.176187 C 10.960281 14.176187 19.843094 5.289469 19.843094 -5.667563 C 19.843094 -16.6285 10.960281 -25.511313 -0.00065625 -25.511313 M -0.00065625 17.008219 C 12.526688 17.008219 22.679031 6.855875 22.679031 -5.667563 C 22.679031 -18.194906 12.526688 -28.34725 -0.00065625 -28.34725 M -0.00065625 19.844156 C 14.089188 19.844156 25.514969 8.422281 25.514969 -5.667563 C 25.514969 -19.761313 14.089188 -31.183188 -0.00065625 -31.183188 M -0.00065625 22.680094 C 15.655594 22.680094 28.347 9.988687 28.347 -5.667563 C 28.347 -21.327719 15.655594 -34.019125 -0.00065625 -34.019125 M -0.00065625 25.512125 C 17.222 25.512125 31.182938 11.551187 31.182938 -5.667563 C 31.182938 -22.890219 17.222 -36.851156 -0.00065625 -36.851156 M -0.00065625 28.348062 C 18.788406 28.348062 34.018875 13.117594 34.018875 -5.667563 C 34.018875 -24.456625 18.788406 -39.687094 -0.00065625 -39.687094 M -0.00065625 31.184 C 20.354813 31.184 36.854813 14.684 36.854813 -5.667563 C 36.854813 -26.023031 20.354813 -42.523031 -0.00065625 -42.523031 M -0.00065625 34.019937 C 21.921219 34.019937 39.686844 16.250406 39.686844 -5.667563 C 39.686844 -27.589438 21.921219 -45.358969 -0.00065625 -45.358969 M -0.00065625 36.851969 C 23.483719 36.851969 42.522781 17.816812 42.522781 -5.667563 C 42.522781 -29.155844 23.483719 -48.191 -0.00065625 -48.191 M -0.00065625 39.687906 C 25.050125 39.687906 45.358719 19.383219 45.358719 -5.667563 C 45.358719 -30.718344 25.050125 -51.026938 -0.00065625 -51.026938 M -0.00065625 42.523844 C 26.616531 42.523844 48.19075 20.945719 48.19075 -5.667563 C 48.19075 -32.28475 26.616531 -53.862875 -0.00065625 -53.862875 M -0.00065625 45.359781 C 28.182938 45.359781 51.026688 22.512125 51.026688 -5.667563 C 51.026688 -33.851156 28.182938 -56.694906 -0.00065625 -56.694906 " transform="matrix(1,0,0,-1,89.528,61.184)"/>
</g>
</g>
</svg>
