<?xml version="1.0" encoding="UTF-8"?>
<svg xmlns="http://www.w3.org/2000/svg" xmlns:xlink="http://www.w3.org/1999/xlink" width="139.296pt" height="113.79pt" viewBox="0 0 139.296 113.79" version="1.1">
<defs>
<clipPath id="clip1">
  <path d="M 28 0 L 29 0 L 29 113.789062 L 28 113.789062 Z M 28 0 "/>
</clipPath>
<clipPath id="clip2">
  <path d="M 31 0 L 32 0 L 32 113.789062 L 31 113.789062 Z M 31 0 "/>
</clipPath>
<clipPath id="clip3">
  <path d="M 34 0 L 35 0 L 35 113.789062 L 34 113.789062 Z M 34 0 "/>
</clipPath>
<clipPath id="clip4">
  <path d="M 36 0 L 38 0 L 38 113.789062 L 36 113.789062 Z M 36 0 "/>
</clipPath>
<clipPath id="clip5">
  <path d="M 39 0 L 41 0 L 41 113.789062 L 39 113.789062 Z M 39 0 "/>
</clipPath>
<clipPath id="clip6">
  <path d="M 42 0 L 43 0 L 43 113.789062 L 42 113.789062 Z M 42 0 "/>
</clipPath>
<clipPath id="clip7">
  <path d="M 45 0 L 46 0 L 46 113.789062 L 45 113.789062 Z M 45 0 "/>
</clipPath>
<clipPath id="clip8">
  <path d="M 48 0 L 49 0 L 49 113.789062 L 48 113.789062 Z M 48 0 "/>
</clipPath>
<clipPath id="clip9">
  <path d="M 51 0 L 52 0 L 52 113.789062 L 51 113.789062 Z M 51 0 "/>
</clipPath>
<clipPath id="clip10">
  <path d="M 53 0 L 55 0 L 55 113.789062 L 53 113.789062 Z M 53 0 "/>
</clipPath>
<clipPath id="clip11">
  <path d="M 56 0 L 58 0 L 58 113.789062 L 56 113.789062 Z M 56 0 "/>
</clipPath>
<clipPath id="clip12">
  <path d="M 59 0 L 60 0 L 60 113.789062 L 59 113.789062 Z M 59 0 "/>
</clipPath>
<clipPath id="clip13">
  <path d="M 62 0 L 63 0 L 63 113.789062 L 62 113.789062 Z M 62 0 "/>
</clipPath>
<clipPath id="clip14">
  <path d="M 65 0 L 66 0 L 66 113.789062 L 65 113.789062 Z M 65 0 "/>
</clipPath>
<clipPath id="clip15">
  <path d="M 68 0 L 69 0 L 69 113.789062 L 68 113.789062 Z M 68 0 "/>
</clipPath>
<clipPath id="clip16">
  <path d="M 70 0 L 72 0 L 72 113.789062 L 70 113.789062 Z M 70 0 "/>
</clipPath>
<clipPath id="clip17">
  <path d="M 73 0 L 75 0 L 75 113.789062 L 73 113.789062 Z M 73 0 "/>
</clipPath>
<clipPath id="clip18">
  <path d="M 76 0 L 77 0 L 77 113.789062 L 76 113.789062 Z M 76 0 "/>
</clipPath>
<clipPath id="clip19">
  <path d="M 79 0 L 80 0 L 80 113.789062 L 79 113.789062 Z M 79 0 "/>
</clipPath>
<clipPath id="clip20">
  <path d="M 83 65 L 87 65 L 87 113.789062 L 83 113.789062 Z M 83 65 "/>
</clipPath>
<clipPath id="clip21">
  <path d="M 79 0 L 139.296875 0 L 139.296875 108 L 79 108 Z M 79 0 "/>
</clipPath>
<clipPath id="clip22">
  <path d="M 79 5 L 139.296875 5 L 139.296875 113.789062 L 79 113.789062 Z M 79 5 "/>
</clipPath>
</defs>
<g id="surface1">
<path style="fill:none;stroke-width:0.3985;stroke-linecap:butt;stroke-linejoin:miter;stroke:rgb(0%,0%,0%);stroke-opacity:1;stroke-miterlimit:10;" d="M -85.039781 0.00046875 L -68.785875 0.00046875 " transform="matrix(1,0,0,-1,85.239,56.895)"/>
<path style=" stroke:none;fill-rule:nonzero;fill:rgb(0%,0%,0%);fill-opacity:1;" d="M 20.042969 56.894531 C 18.980469 56.695312 17.25 56.097656 16.054688 55.402344 L 16.054688 58.390625 C 17.25 57.691406 18.980469 57.09375 20.042969 56.894531 "/>
<g clip-path="url(#clip1)" clip-rule="nonzero">
<path style="fill:none;stroke-width:0.3985;stroke-linecap:butt;stroke-linejoin:miter;stroke:rgb(0%,0%,0%);stroke-opacity:1;stroke-miterlimit:10;" d="M -56.692125 -56.694844 L -56.692125 56.691875 " transform="matrix(1,0,0,-1,85.239,56.895)"/>
</g>
<g clip-path="url(#clip2)" clip-rule="nonzero">
<path style="fill:none;stroke-width:0.3985;stroke-linecap:butt;stroke-linejoin:miter;stroke:rgb(0%,0%,0%);stroke-opacity:1;stroke-miterlimit:10;" d="M -53.860094 -56.694844 L -53.860094 56.691875 " transform="matrix(1,0,0,-1,85.239,56.895)"/>
</g>
<g clip-path="url(#clip3)" clip-rule="nonzero">
<path style="fill:none;stroke-width:0.3985;stroke-linecap:butt;stroke-linejoin:miter;stroke:rgb(0%,0%,0%);stroke-opacity:1;stroke-miterlimit:10;" d="M -51.024156 -56.694844 L -51.024156 56.691875 " transform="matrix(1,0,0,-1,85.239,56.895)"/>
</g>
<g clip-path="url(#clip4)" clip-rule="nonzero">
<path style="fill:none;stroke-width:0.3985;stroke-linecap:butt;stroke-linejoin:miter;stroke:rgb(0%,0%,0%);stroke-opacity:1;stroke-miterlimit:10;" d="M -48.188219 -56.694844 L -48.188219 56.691875 " transform="matrix(1,0,0,-1,85.239,56.895)"/>
</g>
<g clip-path="url(#clip5)" clip-rule="nonzero">
<path style="fill:none;stroke-width:0.3985;stroke-linecap:butt;stroke-linejoin:miter;stroke:rgb(0%,0%,0%);stroke-opacity:1;stroke-miterlimit:10;" d="M -45.352281 -56.694844 L -45.352281 56.691875 " transform="matrix(1,0,0,-1,85.239,56.895)"/>
</g>
<g clip-path="url(#clip6)" clip-rule="nonzero">
<path style="fill:none;stroke-width:0.3985;stroke-linecap:butt;stroke-linejoin:miter;stroke:rgb(0%,0%,0%);stroke-opacity:1;stroke-miterlimit:10;" d="M -42.52025 -56.694844 L -42.52025 56.691875 " transform="matrix(1,0,0,-1,85.239,56.895)"/>
</g>
<g clip-path="url(#clip7)" clip-rule="nonzero">
<path style="fill:none;stroke-width:0.3985;stroke-linecap:butt;stroke-linejoin:miter;stroke:rgb(0%,0%,0%);stroke-opacity:1;stroke-miterlimit:10;" d="M -39.684313 -56.694844 L -39.684313 56.691875 " transform="matrix(1,0,0,-1,85.239,56.895)"/>
</g>
<g clip-path="url(#clip8)" clip-rule="nonzero">
<path style="fill:none;stroke-width:0.3985;stroke-linecap:butt;stroke-linejoin:miter;stroke:rgb(0%,0%,0%);stroke-opacity:1;stroke-miterlimit:10;" d="M -36.848375 -56.694844 L -36.848375 56.691875 " transform="matrix(1,0,0,-1,85.239,56.895)"/>
</g>
<g clip-path="url(#clip9)" clip-rule="nonzero">
<path style="fill:none;stroke-width:0.3985;stroke-linecap:butt;stroke-linejoin:miter;stroke:rgb(0%,0%,0%);stroke-opacity:1;stroke-miterlimit:10;" d="M -34.016344 -56.694844 L -34.016344 56.691875 " transform="matrix(1,0,0,-1,85.239,56.895)"/>
</g>
<g clip-path="url(#clip10)" clip-rule="nonzero">
<path style="fill:none;stroke-width:0.3985;stroke-linecap:butt;stroke-linejoin:miter;stroke:rgb(0%,0%,0%);stroke-opacity:1;stroke-miterlimit:10;" d="M -31.180406 -56.694844 L -31.180406 56.691875 " transform="matrix(1,0,0,-1,85.239,56.895)"/>
</g>
<g clip-path="url(#clip11)" clip-rule="nonzero">
<path style="fill:none;stroke-width:0.3985;stroke-linecap:butt;stroke-linejoin:miter;stroke:rgb(0%,0%,0%);stroke-opacity:1;stroke-miterlimit:10;" d="M -28.344469 -56.694844 L -28.344469 56.691875 " transform="matrix(1,0,0,-1,85.239,56.895)"/>
</g>
<g clip-path="url(#clip12)" clip-rule="nonzero">
<path style="fill:none;stroke-width:0.3985;stroke-linecap:butt;stroke-linejoin:miter;stroke:rgb(0%,0%,0%);stroke-opacity:1;stroke-miterlimit:10;" d="M -25.508531 -56.694844 L -25.508531 56.691875 " transform="matrix(1,0,0,-1,85.239,56.895)"/>
</g>
<g clip-path="url(#clip13)" clip-rule="nonzero">
<path style="fill:none;stroke-width:0.3985;stroke-linecap:butt;stroke-linejoin:miter;stroke:rgb(0%,0%,0%);stroke-opacity:1;stroke-miterlimit:10;" d="M -22.6765 -56.694844 L -22.6765 56.691875 " transform="matrix(1,0,0,-1,85.239,56.895)"/>
</g>
<g clip-path="url(#clip14)" clip-rule="nonzero">
<path style="fill:none;stroke-width:0.3985;stroke-linecap:butt;stroke-linejoin:miter;stroke:rgb(0%,0%,0%);stroke-opacity:1;stroke-miterlimit:10;" d="M -19.840563 -56.694844 L -19.840563 56.691875 " transform="matrix(1,0,0,-1,85.239,56.895)"/>
</g>
<g clip-path="url(#clip15)" clip-rule="nonzero">
<path style="fill:none;stroke-width:0.3985;stroke-linecap:butt;stroke-linejoin:miter;stroke:rgb(0%,0%,0%);stroke-opacity:1;stroke-miterlimit:10;" d="M -17.004625 -56.694844 L -17.004625 56.691875 " transform="matrix(1,0,0,-1,85.239,56.895)"/>
</g>
<g clip-path="url(#clip16)" clip-rule="nonzero">
<path style="fill:none;stroke-width:0.3985;stroke-linecap:butt;stroke-linejoin:miter;stroke:rgb(0%,0%,0%);stroke-opacity:1;stroke-miterlimit:10;" d="M -14.172594 -56.694844 L -14.172594 56.691875 " transform="matrix(1,0,0,-1,85.239,56.895)"/>
</g>
<g clip-path="url(#clip17)" clip-rule="nonzero">
<path style="fill:none;stroke-width:0.3985;stroke-linecap:butt;stroke-linejoin:miter;stroke:rgb(0%,0%,0%);stroke-opacity:1;stroke-miterlimit:10;" d="M -11.336656 -56.694844 L -11.336656 56.691875 " transform="matrix(1,0,0,-1,85.239,56.895)"/>
</g>
<g clip-path="url(#clip18)" clip-rule="nonzero">
<path style="fill:none;stroke-width:0.3985;stroke-linecap:butt;stroke-linejoin:miter;stroke:rgb(0%,0%,0%);stroke-opacity:1;stroke-miterlimit:10;" d="M -8.500719 -56.694844 L -8.500719 56.691875 " transform="matrix(1,0,0,-1,85.239,56.895)"/>
</g>
<g clip-path="url(#clip19)" clip-rule="nonzero">
<path style="fill:none;stroke-width:0.3985;stroke-linecap:butt;stroke-linejoin:miter;stroke:rgb(0%,0%,0%);stroke-opacity:1;stroke-miterlimit:10;" d="M -5.664781 -56.694844 L -5.664781 56.691875 " transform="matrix(1,0,0,-1,85.239,56.895)"/>
</g>
<g clip-path="url(#clip20)" clip-rule="nonzero">
<path style="fill-rule:nonzero;fill:rgb(0%,0%,0%);fill-opacity:1;stroke-width:0.3985;stroke-linecap:butt;stroke-linejoin:miter;stroke:rgb(0%,0%,0%);stroke-opacity:1;stroke-miterlimit:10;" d="M 1.41725 -56.694844 L 1.41725 -8.503437 L -1.418688 -8.503437 L -1.418688 -56.694844 Z M 1.41725 -56.694844 " transform="matrix(1,0,0,-1,85.239,56.895)"/>
</g>
<path style="fill-rule:nonzero;fill:rgb(0%,0%,0%);fill-opacity:1;stroke-width:0.3985;stroke-linecap:butt;stroke-linejoin:miter;stroke:rgb(0%,0%,0%);stroke-opacity:1;stroke-miterlimit:10;" d="M 1.41725 -2.835469 L 1.41725 2.836406 L -1.418688 2.836406 L -1.418688 -2.835469 Z M 1.41725 -2.835469 " transform="matrix(1,0,0,-1,85.239,56.895)"/>
<path style="fill-rule:nonzero;fill:rgb(0%,0%,0%);fill-opacity:1;stroke-width:0.3985;stroke-linecap:butt;stroke-linejoin:miter;stroke:rgb(0%,0%,0%);stroke-opacity:1;stroke-miterlimit:10;" d="M 1.41725 56.691875 L 1.41725 8.504375 L -1.418688 8.504375 L -1.418688 56.691875 Z M 1.41725 56.691875 " transform="matrix(1,0,0,-1,85.239,56.895)"/>
<path style="fill-rule:nonzero;fill:rgb(100%,0%,0%);fill-opacity:1;stroke-width:0.3985;stroke-linecap:butt;stroke-linejoin:miter;stroke:rgb(100%,0%,0%);stroke-opacity:1;stroke-miterlimit:10;" d="M 1.41725 5.668438 C 1.41725 6.453594 0.784437 7.086406 -0.00071875 7.086406 C -0.781969 7.086406 -1.418688 6.453594 -1.418688 5.668438 C -1.418688 4.887188 -0.781969 4.250469 -0.00071875 4.250469 C 0.784437 4.250469 1.41725 4.887188 1.41725 5.668438 Z M 1.41725 5.668438 " transform="matrix(1,0,0,-1,85.239,56.895)"/>
<path style="fill-rule:nonzero;fill:rgb(100%,0%,0%);fill-opacity:1;stroke-width:0.3985;stroke-linecap:butt;stroke-linejoin:miter;stroke:rgb(100%,0%,0%);stroke-opacity:1;stroke-miterlimit:10;" d="M 1.41725 -5.6675 C 1.41725 -4.88625 0.784437 -4.253437 -0.00071875 -4.253437 C -0.781969 -4.253437 -1.418688 -4.88625 -1.418688 -5.6675 C -1.418688 -6.452656 -0.781969 -7.085469 -0.00071875 -7.085469 C 0.784437 -7.085469 1.41725 -6.452656 1.41725 -5.6675 Z M 1.41725 -5.6675 " transform="matrix(1,0,0,-1,85.239,56.895)"/>
<g clip-path="url(#clip21)" clip-rule="nonzero">
<path style="fill:none;stroke-width:0.3985;stroke-linecap:butt;stroke-linejoin:miter;stroke:rgb(0%,0%,0%);stroke-opacity:1;stroke-miterlimit:10;" d="M -0.00071875 8.504375 C 1.565687 8.504375 2.835219 7.234844 2.835219 5.668438 C 2.835219 4.102031 1.565687 2.8325 -0.00071875 2.8325 M -0.00071875 11.340313 C 3.132094 11.340313 5.671156 8.80125 5.671156 5.668438 C 5.671156 2.539531 3.132094 0.00046875 -0.00071875 0.00046875 M -0.00071875 14.172344 C 4.6985 14.172344 8.503187 10.367656 8.503187 5.668438 C 8.503187 0.973125 4.6985 -2.835469 -0.00071875 -2.835469 M -0.00071875 17.008281 C 6.261 17.008281 11.339125 11.930156 11.339125 5.668438 C 11.339125 -0.593281 6.261 -5.671406 -0.00071875 -5.671406 M -0.00071875 19.844219 C 7.827406 19.844219 14.175062 13.496563 14.175062 5.668438 C 14.175062 -2.159687 7.827406 -8.503437 -0.00071875 -8.503437 M -0.00071875 22.680156 C 9.393812 22.680156 17.011 15.062969 17.011 5.668438 C 17.011 -3.726094 9.393812 -11.339375 -0.00071875 -11.339375 M -0.00071875 25.512188 C 10.960219 25.512188 19.843031 16.629375 19.843031 5.668438 C 19.843031 -5.288594 10.960219 -14.175312 -0.00071875 -14.175312 M -0.00071875 28.348125 C 12.526625 28.348125 22.678969 18.195781 22.678969 5.668438 C 22.678969 -6.855 12.526625 -17.01125 -0.00071875 -17.01125 M -0.00071875 31.184063 C 14.089125 31.184063 25.514906 19.762188 25.514906 5.668438 C 25.514906 -8.421406 14.089125 -19.843281 -0.00071875 -19.843281 M -0.00071875 34.016094 C 15.655531 34.016094 28.346937 21.324688 28.346937 5.668438 C 28.346937 -9.987812 15.655531 -22.679219 -0.00071875 -22.679219 M -0.00071875 36.852031 C 17.221937 36.852031 31.182875 22.891094 31.182875 5.668438 C 31.182875 -11.554219 17.221937 -25.515156 -0.00071875 -25.515156 M -0.00071875 39.687969 C 18.788344 39.687969 34.018812 24.4575 34.018812 5.668438 C 34.018812 -13.120625 18.788344 -28.347187 -0.00071875 -28.347187 M -0.00071875 42.523906 C 20.35475 42.523906 36.85475 26.023906 36.85475 5.668438 C 36.85475 -14.683125 20.35475 -31.183125 -0.00071875 -31.183125 M -0.00071875 45.355938 C 21.921156 45.355938 39.686781 27.590313 39.686781 5.668438 C 39.686781 -16.249531 21.921156 -34.019062 -0.00071875 -34.019062 M -0.00071875 48.191875 C 23.483656 48.191875 42.522719 29.152813 42.522719 5.668438 C 42.522719 -17.815937 23.483656 -36.855 -0.00071875 -36.855 M -0.00071875 51.027813 C 25.050062 51.027813 45.358656 30.719219 45.358656 5.668438 C 45.358656 -19.382344 25.050062 -39.687031 -0.00071875 -39.687031 M -0.00071875 53.859844 C 26.616469 53.859844 48.190687 32.285625 48.190687 5.668438 C 48.190687 -20.94875 26.616469 -42.522969 -0.00071875 -42.522969 M -0.00071875 56.695781 C 28.182875 56.695781 51.026625 33.852031 51.026625 5.668438 C 51.026625 -22.51125 28.182875 -45.358906 -0.00071875 -45.358906 " transform="matrix(1,0,0,-1,85.239,56.895)"/>
</g>
<g clip-path="url(#clip22)" clip-rule="nonzero">
<path style="fill:none;stroke-width:0.3985;stroke-linecap:butt;stroke-linejoin:miter;stroke:rgb(0%,0%,0%);stroke-opacity:1;stroke-miterlimit:10;" d="M -0.00071875 -2.835469 C 1.565687 -2.835469 2.835219 -4.105 2.835219 -5.6675 C 2.835219 -7.233906 1.565687 -8.503437 -0.00071875 -8.503437 M -0.00071875 0.00046875 C 3.132094 0.00046875 5.671156 -2.538594 5.671156 -5.6675 C 5.671156 -8.800312 3.132094 -11.339375 -0.00071875 -11.339375 M -0.00071875 2.836406 C 4.6985 2.836406 8.503187 -0.972187 8.503187 -5.6675 C 8.503187 -10.366719 4.6985 -14.175312 -0.00071875 -14.175312 M -0.00071875 5.668438 C 6.261 5.668438 11.339125 0.594219 11.339125 -5.6675 C 11.339125 -11.933125 6.261 -17.007344 -0.00071875 -17.007344 M -0.00071875 8.504375 C 7.827406 8.504375 14.175062 2.160625 14.175062 -5.6675 C 14.175062 -13.499531 7.827406 -19.843281 -0.00071875 -19.843281 M -0.00071875 11.340313 C 9.393812 11.340313 17.011 3.723125 17.011 -5.6675 C 17.011 -15.062031 9.393812 -22.679219 -0.00071875 -22.679219 M -0.00071875 14.17625 C 10.960219 14.17625 19.843031 5.289531 19.843031 -5.6675 C 19.843031 -16.628437 10.960219 -25.515156 -0.00071875 -25.515156 M -0.00071875 17.008281 C 12.526625 17.008281 22.678969 6.855938 22.678969 -5.6675 C 22.678969 -18.194844 12.526625 -28.347187 -0.00071875 -28.347187 M -0.00071875 19.844219 C 14.089125 19.844219 25.514906 8.422344 25.514906 -5.6675 C 25.514906 -19.76125 14.089125 -31.183125 -0.00071875 -31.183125 M -0.00071875 22.680156 C 15.655531 22.680156 28.346937 9.98875 28.346937 -5.6675 C 28.346937 -21.327656 15.655531 -34.019062 -0.00071875 -34.019062 M -0.00071875 25.512188 C 17.221937 25.512188 31.182875 11.55125 31.182875 -5.6675 C 31.182875 -22.890156 17.221937 -36.851094 -0.00071875 -36.851094 M -0.00071875 28.348125 C 18.788344 28.348125 34.018812 13.117656 34.018812 -5.6675 C 34.018812 -24.456562 18.788344 -39.687031 -0.00071875 -39.687031 M -0.00071875 31.184063 C 20.35475 31.184063 36.85475 14.684063 36.85475 -5.6675 C 36.85475 -26.022969 20.35475 -42.522969 -0.00071875 -42.522969 M -0.00071875 34.02 C 21.921156 34.02 39.686781 16.250469 39.686781 -5.6675 C 39.686781 -27.589375 21.921156 -45.358906 -0.00071875 -45.358906 M -0.00071875 36.852031 C 23.483656 36.852031 42.522719 17.816875 42.522719 -5.6675 C 42.522719 -29.155781 23.483656 -48.190937 -0.00071875 -48.190937 M -0.00071875 39.687969 C 25.050062 39.687969 45.358656 19.383281 45.358656 -5.6675 C 45.358656 -30.718281 25.050062 -51.026875 -0.00071875 -51.026875 M -0.00071875 42.523906 C 26.616469 42.523906 48.190687 20.945781 48.190687 -5.6675 C 48.190687 -32.284687 26.616469 -53.862812 -0.00071875 -53.862812 M -0.00071875 45.359844 C 28.182875 45.359844 51.026625 22.512188 51.026625 -5.6675 C 51.026625 -33.851094 28.182875 -56.694844 -0.00071875 -56.694844 " transform="matrix(1,0,0,-1,85.239,56.895)"/>
</g>
</g>
</svg>
