<?xml version="1.0" encoding="UTF-8"?>
<svg xmlns="http://www.w3.org/2000/svg" xmlns:xlink="http://www.w3.org/1999/xlink" width="148.561" height="114.183" viewBox="0 0 148.561 114.183">
<defs>
<clipPath id="clip-0">
<path clip-rule="nonzero" d="M 91 0 L 92 0 L 92 114.183594 L 91 114.183594 Z M 91 0 "/>
</clipPath>
<clipPath id="clip-1">
<path clip-rule="nonzero" d="M 83 113 L 99 113 L 99 114.183594 L 83 114.183594 Z M 83 113 "/>
</clipPath>
<clipPath id="clip-2">
<path clip-rule="nonzero" d="M 147 0 L 148.5625 0 L 148.5625 114.183594 L 147 114.183594 Z M 147 0 "/>
</clipPath>
</defs>
<path fill="none" stroke-width="0.79701" stroke-linecap="butt" stroke-linejoin="miter" stroke="rgb(0%, 0%, 0%)" stroke-opacity="1" stroke-miterlimit="10" d="M 0.00034375 0.0005 L -28.347313 0.0005 L -28.347313 12.473156 M -28.347313 44.21925 L -28.347313 56.691906 L 0.00034375 56.691906 L 0.00034375 32.316906 M 0.00034375 24.379406 L 0.00034375 0.0005 " transform="matrix(1, 0, 0, -1, 34.777, 85.438)"/>
<path fill="none" stroke-width="1.59404" stroke-linecap="butt" stroke-linejoin="bevel" stroke="rgb(0%, 0%, 0%)" stroke-opacity="1" stroke-miterlimit="10" d="M -28.027 11.676281 C -31.316063 11.676281 -33.980125 13.543469 -33.980125 15.84425 C -33.980125 18.145031 -31.316063 20.012219 -28.027 20.012219 C -31.316063 20.012219 -33.980125 21.8755 -33.980125 24.180187 C -33.980125 26.480969 -31.316063 28.348156 -28.027 28.348156 C -31.316063 28.348156 -33.980125 30.211437 -33.980125 32.516125 C -33.980125 34.816906 -31.316063 36.684094 -28.027 36.684094 C -31.316063 36.684094 -33.980125 38.547375 -33.980125 40.852062 C -33.980125 43.152844 -31.316063 45.016125 -28.027 45.016125 " transform="matrix(1, 0, 0, -1, 34.777, 85.438)"/>
<path fill="none" stroke-width="1.59404" stroke-linecap="butt" stroke-linejoin="miter" stroke="rgb(0%, 0%, 0%)" stroke-opacity="1" stroke-miterlimit="10" d="M 11.906594 32.316906 L -11.905906 32.316906 M 11.906594 24.379406 L -11.905906 24.379406 " transform="matrix(1, 0, 0, -1, 34.777, 85.438)"/>
<path fill="none" stroke-width="0.79701" stroke-linecap="butt" stroke-linejoin="miter" stroke="rgb(0%, 0%, 0%)" stroke-opacity="1" stroke-miterlimit="10" d="M 28.348 28.348156 L 37.855812 28.348156 " transform="matrix(1, 0, 0, -1, 34.777, 85.438)"/>
<path fill-rule="nonzero" fill="rgb(0%, 0%, 0%)" fill-opacity="1" d="M 77.296875 57.089844 C 75.914062 56.832031 73.671875 56.054688 72.117188 55.148438 L 72.117188 59.035156 C 73.671875 58.128906 75.914062 57.351562 77.296875 57.089844 "/>
<g clip-path="url(#clip-0)">
<path fill="none" stroke-width="0.79701" stroke-linecap="butt" stroke-linejoin="miter" stroke="rgb(0%, 0%, 0%)" stroke-opacity="1" stroke-miterlimit="10" d="M 56.69175 -28.347156 L 56.69175 12.473156 M 56.69175 44.21925 L 56.69175 85.039562 " transform="matrix(1, 0, 0, -1, 34.777, 85.438)"/>
</g>
<path fill="none" stroke-width="1.59404" stroke-linecap="butt" stroke-linejoin="bevel" stroke="rgb(0%, 0%, 0%)" stroke-opacity="1" stroke-miterlimit="10" d="M 57.012062 11.676281 C 53.723 11.676281 51.058937 13.543469 51.058937 15.84425 C 51.058937 18.145031 53.723 20.012219 57.012062 20.012219 C 53.723 20.012219 51.058937 21.8755 51.058937 24.180187 C 51.058937 26.480969 53.723 28.348156 57.012062 28.348156 C 53.723 28.348156 51.058937 30.211437 51.058937 32.516125 C 51.058937 34.816906 53.723 36.684094 57.012062 36.684094 C 53.723 36.684094 51.058937 38.547375 51.058937 40.852062 C 51.058937 43.152844 53.723 45.016125 57.012062 45.016125 " transform="matrix(1, 0, 0, -1, 34.777, 85.438)"/>
<g clip-path="url(#clip-1)">
<path fill="none" stroke-width="0.79701" stroke-linecap="butt" stroke-linejoin="miter" stroke="rgb(0%, 0%, 0%)" stroke-opacity="1" stroke-miterlimit="10" d="M 49.605812 -28.347156 L 63.781594 -28.347156 " transform="matrix(1, 0, 0, -1, 34.777, 85.438)"/>
</g>
<path fill="none" stroke-width="0.79701" stroke-linecap="butt" stroke-linejoin="miter" stroke="rgb(0%, 0%, 0%)" stroke-opacity="1" stroke-miterlimit="10" d="M 49.605812 85.039562 L 63.781594 85.039562 " transform="matrix(1, 0, 0, -1, 34.777, 85.438)"/>
<path fill="none" stroke-width="0.79701" stroke-linecap="butt" stroke-linejoin="miter" stroke="rgb(0%, 0%, 0%)" stroke-opacity="1" stroke-miterlimit="10" d="M 85.039406 28.348156 L 94.551125 28.348156 " transform="matrix(1, 0, 0, -1, 34.777, 85.438)"/>
<path fill-rule="nonzero" fill="rgb(0%, 0%, 0%)" fill-opacity="1" d="M 133.992188 57.089844 C 132.609375 56.832031 130.363281 56.054688 128.808594 55.148438 L 128.808594 59.035156 C 130.363281 58.128906 132.609375 57.351562 133.992188 57.089844 "/>
<g clip-path="url(#clip-2)">
<path fill="none" stroke-width="0.79701" stroke-linecap="butt" stroke-linejoin="miter" stroke="rgb(0%, 0%, 0%)" stroke-opacity="1" stroke-miterlimit="10" d="M 113.387062 -28.347156 L 113.387062 85.039562 " transform="matrix(1, 0, 0, -1, 34.777, 85.438)"/>
</g>
</svg>
