<?xml version="1.0" encoding="UTF-8"?>
<svg xmlns="http://www.w3.org/2000/svg" xmlns:xlink="http://www.w3.org/1999/xlink" width="113.784pt" height="113.784pt" viewBox="0 0 113.784 113.784" version="1.1">
<defs>
<clipPath id="clip1">
  <path d="M 28 0 L 29 0 L 29 113.785156 L 28 113.785156 Z M 28 0 "/>
</clipPath>
<clipPath id="clip2">
  <path d="M 42 0 L 43 0 L 43 113.785156 L 42 113.785156 Z M 42 0 "/>
</clipPath>
<clipPath id="clip3">
  <path d="M 56 0 L 58 0 L 58 113.785156 L 56 113.785156 Z M 56 0 "/>
</clipPath>
<clipPath id="clip4">
  <path d="M 70 0 L 72 0 L 72 113.785156 L 70 113.785156 Z M 70 0 "/>
</clipPath>
<clipPath id="clip5">
  <path d="M 85 0 L 86 0 L 86 113.785156 L 85 113.785156 Z M 85 0 "/>
</clipPath>
<clipPath id="clip6">
  <path d="M 83 85 L 87 85 L 87 113.785156 L 83 113.785156 Z M 83 85 "/>
</clipPath>
<clipPath id="clip7">
  <path d="M 79 0 L 113.785156 0 L 113.785156 113.785156 L 79 113.785156 Z M 79 0 "/>
</clipPath>
</defs>
<g id="surface1">
<g clip-path="url(#clip1)" clip-rule="nonzero">
<path style="fill:none;stroke-width:0.3985;stroke-linecap:butt;stroke-linejoin:miter;stroke:rgb(0%,0%,0%);stroke-opacity:1;stroke-miterlimit:10;" d="M -56.692125 -56.693937 L -56.692125 56.692781 " transform="matrix(1,0,0,-1,85.239,56.892)"/>
</g>
<g clip-path="url(#clip2)" clip-rule="nonzero">
<path style="fill:none;stroke-width:0.3985;stroke-linecap:butt;stroke-linejoin:miter;stroke:rgb(0%,0%,0%);stroke-opacity:1;stroke-miterlimit:10;" d="M -42.52025 -56.693937 L -42.52025 56.692781 " transform="matrix(1,0,0,-1,85.239,56.892)"/>
</g>
<g clip-path="url(#clip3)" clip-rule="nonzero">
<path style="fill:none;stroke-width:0.3985;stroke-linecap:butt;stroke-linejoin:miter;stroke:rgb(0%,0%,0%);stroke-opacity:1;stroke-miterlimit:10;" d="M -28.348375 -56.693937 L -28.348375 56.692781 " transform="matrix(1,0,0,-1,85.239,56.892)"/>
</g>
<g clip-path="url(#clip4)" clip-rule="nonzero">
<path style="fill:none;stroke-width:0.3985;stroke-linecap:butt;stroke-linejoin:miter;stroke:rgb(0%,0%,0%);stroke-opacity:1;stroke-miterlimit:10;" d="M -14.172594 -56.693937 L -14.172594 56.692781 " transform="matrix(1,0,0,-1,85.239,56.892)"/>
</g>
<g clip-path="url(#clip5)" clip-rule="nonzero">
<path style="fill:none;stroke-width:0.3985;stroke-linecap:butt;stroke-linejoin:miter;stroke:rgb(0%,0%,0%);stroke-opacity:1;stroke-miterlimit:10;" d="M -0.00071875 -56.693937 L -0.00071875 56.692781 " transform="matrix(1,0,0,-1,85.239,56.892)"/>
</g>
<path style="fill:none;stroke-width:0.3985;stroke-linecap:butt;stroke-linejoin:miter;stroke:rgb(0%,0%,0%);stroke-opacity:1;stroke-miterlimit:10;" d="M -85.039781 0.001375 L -68.785875 0.001375 " transform="matrix(1,0,0,-1,85.239,56.892)"/>
<path style=" stroke:none;fill-rule:nonzero;fill:rgb(0%,0%,0%);fill-opacity:1;" d="M 20.042969 56.890625 C 18.980469 56.691406 17.25 56.09375 16.054688 55.398438 L 16.054688 58.386719 C 17.25 57.6875 18.980469 57.089844 20.042969 56.890625 "/>
<g clip-path="url(#clip6)" clip-rule="nonzero">
<path style="fill-rule:nonzero;fill:rgb(0%,0%,0%);fill-opacity:1;stroke-width:0.3985;stroke-linecap:butt;stroke-linejoin:miter;stroke:rgb(0%,0%,0%);stroke-opacity:1;stroke-miterlimit:10;" d="M 1.41725 -56.693937 L 1.41725 -28.346281 L -1.418688 -28.346281 L -1.418688 -56.693937 Z M 1.41725 -56.693937 " transform="matrix(1,0,0,-1,85.239,56.892)"/>
</g>
<path style="fill-rule:nonzero;fill:rgb(0%,0%,0%);fill-opacity:1;stroke-width:0.3985;stroke-linecap:butt;stroke-linejoin:miter;stroke:rgb(0%,0%,0%);stroke-opacity:1;stroke-miterlimit:10;" d="M 1.41725 56.692781 L 1.41725 28.345125 L -1.418688 28.345125 L -1.418688 56.692781 Z M 1.41725 56.692781 " transform="matrix(1,0,0,-1,85.239,56.892)"/>
<path style="fill-rule:nonzero;fill:rgb(100%,0%,0%);fill-opacity:1;stroke-width:0.3985;stroke-linecap:butt;stroke-linejoin:miter;stroke:rgb(100%,0%,0%);stroke-opacity:1;stroke-miterlimit:10;" d="M 1.41725 -28.346281 C 1.41725 -27.565031 0.784437 -26.928312 -0.00071875 -26.928312 C -0.781969 -26.928312 -1.418688 -27.565031 -1.418688 -28.346281 C -1.418688 -29.131437 -0.781969 -29.76425 -0.00071875 -29.76425 C 0.784437 -29.76425 1.41725 -29.131437 1.41725 -28.346281 Z M 1.41725 -28.346281 " transform="matrix(1,0,0,-1,85.239,56.892)"/>
<path style="fill:none;stroke-width:0.3985;stroke-linecap:butt;stroke-linejoin:miter;stroke:rgb(0%,0%,100%);stroke-opacity:1;stroke-miterlimit:10;" d="M -0.00071875 -42.522062 C 7.827406 -42.522062 14.175062 -36.174406 14.175062 -28.346281 C 14.175062 -20.518156 7.827406 -14.174406 -0.00071875 -14.174406 " transform="matrix(1,0,0,-1,85.239,56.892)"/>
<path style="fill-rule:nonzero;fill:rgb(100%,0%,0%);fill-opacity:1;stroke-width:0.3985;stroke-linecap:butt;stroke-linejoin:miter;stroke:rgb(100%,0%,0%);stroke-opacity:1;stroke-miterlimit:10;" d="M 1.41725 -14.174406 C 1.41725 -13.38925 0.784437 -12.756437 -0.00071875 -12.756437 C -0.781969 -12.756437 -1.418688 -13.38925 -1.418688 -14.174406 C -1.418688 -14.955656 -0.781969 -15.592375 -0.00071875 -15.592375 C 0.784437 -15.592375 1.41725 -14.955656 1.41725 -14.174406 Z M 1.41725 -14.174406 " transform="matrix(1,0,0,-1,85.239,56.892)"/>
<path style="fill:none;stroke-width:0.3985;stroke-linecap:butt;stroke-linejoin:miter;stroke:rgb(0%,0%,100%);stroke-opacity:1;stroke-miterlimit:10;" d="M -0.00071875 -28.346281 C 7.827406 -28.346281 14.175062 -22.002531 14.175062 -14.174406 C 14.175062 -6.346281 7.827406 0.001375 -0.00071875 0.001375 " transform="matrix(1,0,0,-1,85.239,56.892)"/>
<path style="fill-rule:nonzero;fill:rgb(100%,0%,0%);fill-opacity:1;stroke-width:0.3985;stroke-linecap:butt;stroke-linejoin:miter;stroke:rgb(100%,0%,0%);stroke-opacity:1;stroke-miterlimit:10;" d="M 1.41725 0.001375 C 1.41725 0.782625 0.784437 1.419344 -0.00071875 1.419344 C -0.781969 1.419344 -1.418688 0.782625 -1.418688 0.001375 C -1.418688 -0.783781 -0.781969 -1.416594 -0.00071875 -1.416594 C 0.784437 -1.416594 1.41725 -0.783781 1.41725 0.001375 Z M 1.41725 0.001375 " transform="matrix(1,0,0,-1,85.239,56.892)"/>
<path style="fill:none;stroke-width:0.3985;stroke-linecap:butt;stroke-linejoin:miter;stroke:rgb(0%,0%,100%);stroke-opacity:1;stroke-miterlimit:10;" d="M -0.00071875 -14.174406 C 7.827406 -14.174406 14.175062 -7.82675 14.175062 0.001375 C 14.175062 7.8295 7.827406 14.17325 -0.00071875 14.17325 " transform="matrix(1,0,0,-1,85.239,56.892)"/>
<path style="fill-rule:nonzero;fill:rgb(100%,0%,0%);fill-opacity:1;stroke-width:0.3985;stroke-linecap:butt;stroke-linejoin:miter;stroke:rgb(100%,0%,0%);stroke-opacity:1;stroke-miterlimit:10;" d="M 1.41725 14.17325 C 1.41725 14.9545 0.784437 15.591219 -0.00071875 15.591219 C -0.781969 15.591219 -1.418688 14.9545 -1.418688 14.17325 C -1.418688 13.392 -0.781969 12.755281 -0.00071875 12.755281 C 0.784437 12.755281 1.41725 13.392 1.41725 14.17325 Z M 1.41725 14.17325 " transform="matrix(1,0,0,-1,85.239,56.892)"/>
<path style="fill:none;stroke-width:0.3985;stroke-linecap:butt;stroke-linejoin:miter;stroke:rgb(0%,0%,100%);stroke-opacity:1;stroke-miterlimit:10;" d="M -0.00071875 0.001375 C 7.827406 0.001375 14.175062 6.345125 14.175062 14.17325 C 14.175062 22.001375 7.827406 28.345125 -0.00071875 28.345125 " transform="matrix(1,0,0,-1,85.239,56.892)"/>
<path style="fill-rule:nonzero;fill:rgb(100%,0%,0%);fill-opacity:1;stroke-width:0.3985;stroke-linecap:butt;stroke-linejoin:miter;stroke:rgb(100%,0%,0%);stroke-opacity:1;stroke-miterlimit:10;" d="M 1.41725 28.345125 C 1.41725 29.130281 0.784437 29.763094 -0.00071875 29.763094 C -0.781969 29.763094 -1.418688 29.130281 -1.418688 28.345125 C -1.418688 27.563875 -0.781969 26.931063 -0.00071875 26.931063 C 0.784437 26.931063 1.41725 27.563875 1.41725 28.345125 Z M 1.41725 28.345125 " transform="matrix(1,0,0,-1,85.239,56.892)"/>
<path style="fill:none;stroke-width:0.3985;stroke-linecap:butt;stroke-linejoin:miter;stroke:rgb(0%,0%,100%);stroke-opacity:1;stroke-miterlimit:10;" d="M -0.00071875 14.17325 C 7.827406 14.17325 14.175062 20.517 14.175062 28.345125 C 14.175062 36.17325 7.827406 42.520906 -0.00071875 42.520906 " transform="matrix(1,0,0,-1,85.239,56.892)"/>
<path style="fill:none;stroke-width:0.3985;stroke-linecap:butt;stroke-linejoin:miter;stroke:rgb(0%,0%,0%);stroke-opacity:1;stroke-miterlimit:10;" d="M -0.00071875 -42.522062 C 7.827406 -42.522062 14.175062 -36.174406 14.175062 -28.346281 L 14.175062 28.345125 C 14.175062 36.17325 7.827406 42.520906 -0.00071875 42.520906 " transform="matrix(1,0,0,-1,85.239,56.892)"/>
<g clip-path="url(#clip7)" clip-rule="nonzero">
<path style="fill:none;stroke-width:0.3985;stroke-linecap:butt;stroke-linejoin:miter;stroke:rgb(0%,0%,0%);stroke-opacity:1;stroke-miterlimit:10;" d="M -0.00071875 -56.693937 C 15.655531 -56.693937 28.346937 -44.002531 28.346937 -28.346281 L 28.346937 28.345125 C 28.346937 44.001375 15.655531 56.692781 -0.00071875 56.692781 " transform="matrix(1,0,0,-1,85.239,56.892)"/>
</g>
</g>
</svg>
