<?xml version="1.0" encoding="UTF-8"?>
<svg xmlns="http://www.w3.org/2000/svg" xmlns:xlink="http://www.w3.org/1999/xlink" width="122.762pt" height="122.762pt" viewBox="0 0 122.762 122.762" version="1.1">
<defs>
<clipPath id="clip1">
  <path d="M 0 0 L 122.761719 0 L 122.761719 122.761719 L 0 122.761719 Z M 0 0 "/>
</clipPath>
<clipPath id="clip2">
  <path d="M 84 0 L 122.761719 0 L 122.761719 122.761719 L 84 122.761719 Z M 84 0 "/>
</clipPath>
</defs>
<g id="surface1">
<g clip-path="url(#clip1)" clip-rule="nonzero">
<path style="fill-rule:nonzero;fill:rgb(0%,0%,0%);fill-opacity:1;stroke-width:0.3985;stroke-linecap:butt;stroke-linejoin:miter;stroke:rgb(100%,100%,100%);stroke-opacity:1;stroke-miterlimit:10;" d="M -89.527781 -61.1815 L -89.527781 61.181781 L 32.8355 61.181781 L 32.8355 -61.1815 Z M -89.527781 -61.1815 " transform="matrix(1,0,0,-1,89.727,61.381)"/>
<path style="fill-rule:nonzero;fill:rgb(0%,0%,0%);fill-opacity:1;stroke-width:0.3985;stroke-linecap:butt;stroke-linejoin:miter;stroke:rgb(100%,100%,100%);stroke-opacity:1;stroke-miterlimit:10;" d="M -89.527781 -61.1815 L -89.527781 61.181781 L 32.8355 61.181781 L 32.8355 -61.1815 Z M -89.527781 -61.1815 " transform="matrix(1,0,0,-1,89.727,61.381)"/>
</g>
<path style="fill:none;stroke-width:0.3985;stroke-linecap:butt;stroke-linejoin:miter;stroke:rgb(100%,100%,100%);stroke-opacity:1;stroke-miterlimit:10;" d="M -56.691844 -56.693219 L -56.691844 56.6935 " transform="matrix(1,0,0,-1,89.727,61.381)"/>
<path style="fill:none;stroke-width:0.3985;stroke-linecap:butt;stroke-linejoin:miter;stroke:rgb(100%,100%,100%);stroke-opacity:1;stroke-miterlimit:10;" d="M -42.519969 -56.693219 L -42.519969 56.6935 " transform="matrix(1,0,0,-1,89.727,61.381)"/>
<path style="fill:none;stroke-width:0.3985;stroke-linecap:butt;stroke-linejoin:miter;stroke:rgb(100%,100%,100%);stroke-opacity:1;stroke-miterlimit:10;" d="M -28.348094 -56.693219 L -28.348094 56.6935 " transform="matrix(1,0,0,-1,89.727,61.381)"/>
<path style="fill:none;stroke-width:0.3985;stroke-linecap:butt;stroke-linejoin:miter;stroke:rgb(100%,100%,100%);stroke-opacity:1;stroke-miterlimit:10;" d="M -14.172313 -56.693219 L -14.172313 56.6935 " transform="matrix(1,0,0,-1,89.727,61.381)"/>
<path style="fill:none;stroke-width:0.3985;stroke-linecap:butt;stroke-linejoin:miter;stroke:rgb(100%,100%,100%);stroke-opacity:1;stroke-miterlimit:10;" d="M -0.0004375 -56.693219 L -0.0004375 56.6935 " transform="matrix(1,0,0,-1,89.727,61.381)"/>
<path style="fill:none;stroke-width:0.3985;stroke-linecap:butt;stroke-linejoin:miter;stroke:rgb(100%,100%,100%);stroke-opacity:1;stroke-miterlimit:10;" d="M -85.0395 -0.0018125 L -68.785594 -0.0018125 " transform="matrix(1,0,0,-1,89.727,61.381)"/>
<path style=" stroke:none;fill-rule:nonzero;fill:rgb(100%,100%,100%);fill-opacity:1;" d="M 24.527344 61.382812 C 23.464844 61.183594 21.738281 60.585938 20.542969 59.886719 L 20.542969 62.875 C 21.738281 62.179688 23.464844 61.582031 24.527344 61.382812 "/>
<path style="fill-rule:nonzero;fill:rgb(0%,0%,0%);fill-opacity:1;stroke-width:0.3985;stroke-linecap:butt;stroke-linejoin:miter;stroke:rgb(100%,100%,100%);stroke-opacity:1;stroke-miterlimit:10;" d="M 1.417531 -56.693219 L 1.417531 -28.345562 L -1.418406 -28.345562 L -1.418406 -56.693219 Z M 1.417531 -56.693219 " transform="matrix(1,0,0,-1,89.727,61.381)"/>
<path style="fill-rule:nonzero;fill:rgb(0%,0%,0%);fill-opacity:1;stroke-width:0.3985;stroke-linecap:butt;stroke-linejoin:miter;stroke:rgb(100%,100%,100%);stroke-opacity:1;stroke-miterlimit:10;" d="M 1.417531 56.6935 L 1.417531 28.345844 L -1.418406 28.345844 L -1.418406 56.6935 Z M 1.417531 56.6935 " transform="matrix(1,0,0,-1,89.727,61.381)"/>
<path style="fill-rule:nonzero;fill:rgb(100%,0%,0%);fill-opacity:1;stroke-width:0.3985;stroke-linecap:butt;stroke-linejoin:miter;stroke:rgb(100%,0%,0%);stroke-opacity:1;stroke-miterlimit:10;" d="M 1.417531 -28.345562 C 1.417531 -27.564312 0.784719 -26.927594 -0.0004375 -26.927594 C -0.781688 -26.927594 -1.418406 -27.564312 -1.418406 -28.345562 C -1.418406 -29.130719 -0.781688 -29.763531 -0.0004375 -29.763531 C 0.784719 -29.763531 1.417531 -29.130719 1.417531 -28.345562 Z M 1.417531 -28.345562 " transform="matrix(1,0,0,-1,89.727,61.381)"/>
<path style="fill:none;stroke-width:0.3985;stroke-linecap:butt;stroke-linejoin:miter;stroke:rgb(0%,67.83905%,93.728638%);stroke-opacity:1;stroke-miterlimit:10;" d="M -0.0004375 -42.521344 C 7.827687 -42.521344 14.171437 -36.173687 14.171437 -28.345562 C 14.171437 -20.517437 7.827687 -14.173687 -0.0004375 -14.173687 " transform="matrix(1,0,0,-1,89.727,61.381)"/>
<path style="fill-rule:nonzero;fill:rgb(100%,0%,0%);fill-opacity:1;stroke-width:0.3985;stroke-linecap:butt;stroke-linejoin:miter;stroke:rgb(100%,0%,0%);stroke-opacity:1;stroke-miterlimit:10;" d="M 1.417531 -14.173687 C 1.417531 -13.392437 0.784719 -12.755719 -0.0004375 -12.755719 C -0.781688 -12.755719 -1.418406 -13.392437 -1.418406 -14.173687 C -1.418406 -14.954937 -0.781688 -15.591656 -0.0004375 -15.591656 C 0.784719 -15.591656 1.417531 -14.954937 1.417531 -14.173687 Z M 1.417531 -14.173687 " transform="matrix(1,0,0,-1,89.727,61.381)"/>
<path style="fill:none;stroke-width:0.3985;stroke-linecap:butt;stroke-linejoin:miter;stroke:rgb(0%,67.83905%,93.728638%);stroke-opacity:1;stroke-miterlimit:10;" d="M -0.0004375 -28.345562 C 7.827687 -28.345562 14.171437 -22.001812 14.171437 -14.173687 C 14.171437 -6.345562 7.827687 -0.0018125 -0.0004375 -0.0018125 " transform="matrix(1,0,0,-1,89.727,61.381)"/>
<path style="fill-rule:nonzero;fill:rgb(100%,0%,0%);fill-opacity:1;stroke-width:0.3985;stroke-linecap:butt;stroke-linejoin:miter;stroke:rgb(100%,0%,0%);stroke-opacity:1;stroke-miterlimit:10;" d="M 1.417531 -0.0018125 C 1.417531 0.783344 0.784719 1.416156 -0.0004375 1.416156 C -0.781688 1.416156 -1.418406 0.783344 -1.418406 -0.0018125 C -1.418406 -0.783062 -0.781688 -1.415875 -0.0004375 -1.415875 C 0.784719 -1.415875 1.417531 -0.783062 1.417531 -0.0018125 Z M 1.417531 -0.0018125 " transform="matrix(1,0,0,-1,89.727,61.381)"/>
<path style="fill:none;stroke-width:0.3985;stroke-linecap:butt;stroke-linejoin:miter;stroke:rgb(0%,67.83905%,93.728638%);stroke-opacity:1;stroke-miterlimit:10;" d="M -0.0004375 -14.173687 C 7.827687 -14.173687 14.171437 -7.826031 14.171437 -0.0018125 C 14.171437 7.826313 7.827687 14.173969 -0.0004375 14.173969 " transform="matrix(1,0,0,-1,89.727,61.381)"/>
<path style="fill-rule:nonzero;fill:rgb(100%,0%,0%);fill-opacity:1;stroke-width:0.3985;stroke-linecap:butt;stroke-linejoin:miter;stroke:rgb(100%,0%,0%);stroke-opacity:1;stroke-miterlimit:10;" d="M 1.417531 14.173969 C 1.417531 14.955219 0.784719 15.591938 -0.0004375 15.591938 C -0.781688 15.591938 -1.418406 14.955219 -1.418406 14.173969 C -1.418406 13.388813 -0.781688 12.756 -0.0004375 12.756 C 0.784719 12.756 1.417531 13.388813 1.417531 14.173969 Z M 1.417531 14.173969 " transform="matrix(1,0,0,-1,89.727,61.381)"/>
<path style="fill:none;stroke-width:0.3985;stroke-linecap:butt;stroke-linejoin:miter;stroke:rgb(0%,67.83905%,93.728638%);stroke-opacity:1;stroke-miterlimit:10;" d="M -0.0004375 -0.0018125 C 7.827687 -0.0018125 14.171437 6.345844 14.171437 14.173969 C 14.171437 22.002094 7.827687 28.345844 -0.0004375 28.345844 " transform="matrix(1,0,0,-1,89.727,61.381)"/>
<path style="fill-rule:nonzero;fill:rgb(100%,0%,0%);fill-opacity:1;stroke-width:0.3985;stroke-linecap:butt;stroke-linejoin:miter;stroke:rgb(100%,0%,0%);stroke-opacity:1;stroke-miterlimit:10;" d="M 1.417531 28.345844 C 1.417531 29.131 0.784719 29.763813 -0.0004375 29.763813 C -0.781688 29.763813 -1.418406 29.131 -1.418406 28.345844 C -1.418406 27.564594 -0.781688 26.927875 -0.0004375 26.927875 C 0.784719 26.927875 1.417531 27.564594 1.417531 28.345844 Z M 1.417531 28.345844 " transform="matrix(1,0,0,-1,89.727,61.381)"/>
<path style="fill:none;stroke-width:0.3985;stroke-linecap:butt;stroke-linejoin:miter;stroke:rgb(0%,67.83905%,93.728638%);stroke-opacity:1;stroke-miterlimit:10;" d="M -0.0004375 14.173969 C 7.827687 14.173969 14.171437 20.517719 14.171437 28.345844 C 14.171437 36.173969 7.827687 42.521625 -0.0004375 42.521625 " transform="matrix(1,0,0,-1,89.727,61.381)"/>
<path style="fill:none;stroke-width:0.3985;stroke-linecap:butt;stroke-linejoin:miter;stroke:rgb(100%,100%,100%);stroke-opacity:1;stroke-miterlimit:10;" d="M -0.0004375 -42.521344 C 7.827687 -42.521344 14.171437 -36.173687 14.171437 -28.345562 L 14.171437 28.345844 C 14.171437 36.173969 7.827687 42.521625 -0.0004375 42.521625 " transform="matrix(1,0,0,-1,89.727,61.381)"/>
<g clip-path="url(#clip2)" clip-rule="nonzero">
<path style="fill:none;stroke-width:0.3985;stroke-linecap:butt;stroke-linejoin:miter;stroke:rgb(100%,100%,100%);stroke-opacity:1;stroke-miterlimit:10;" d="M -0.0004375 -56.693219 C 15.655812 -56.693219 28.347219 -44.001812 28.347219 -28.345562 L 28.347219 28.345844 C 28.347219 44.002094 15.655812 56.6935 -0.0004375 56.6935 " transform="matrix(1,0,0,-1,89.727,61.381)"/>
</g>
</g>
</svg>
