<?xml version="1.0" encoding="UTF-8"?>
<svg xmlns="http://www.w3.org/2000/svg" xmlns:xlink="http://www.w3.org/1999/xlink" width="122.363" height="122.363" viewBox="0 0 122.363 122.363">
<defs>
<clipPath id="clip-0">
<path clip-rule="nonzero" d="M 83 0 L 122.363281 0 L 122.363281 122.363281 L 83 122.363281 Z M 83 0 "/>
</clipPath>
</defs>
<path fill-rule="nonzero" fill="rgb(0%, 0%, 0%)" fill-opacity="1" d="M 0 122.363281 L 0 0 L 122.363281 0 L 122.363281 122.363281 Z M 0 122.363281 "/>
<path fill-rule="nonzero" fill="rgb(0%, 0%, 0%)" fill-opacity="1" d="M 0 122.363281 L 0 0 L 122.363281 0 L 122.363281 122.363281 Z M 0 122.363281 "/>
<path fill="none" stroke-width="0.3985" stroke-linecap="butt" stroke-linejoin="miter" stroke="rgb(100%, 100%, 100%)" stroke-opacity="1" stroke-miterlimit="10" d="M -56.692062 -56.694 L -56.692062 56.692719 " transform="matrix(1, 0, 0, -1, 89.528, 61.181)"/>
<path fill="none" stroke-width="0.3985" stroke-linecap="butt" stroke-linejoin="miter" stroke="rgb(100%, 100%, 100%)" stroke-opacity="1" stroke-miterlimit="10" d="M -42.520187 -56.694 L -42.520187 56.692719 " transform="matrix(1, 0, 0, -1, 89.528, 61.181)"/>
<path fill="none" stroke-width="0.3985" stroke-linecap="butt" stroke-linejoin="miter" stroke="rgb(100%, 100%, 100%)" stroke-opacity="1" stroke-miterlimit="10" d="M -28.348312 -56.694 L -28.348312 56.692719 " transform="matrix(1, 0, 0, -1, 89.528, 61.181)"/>
<path fill="none" stroke-width="0.3985" stroke-linecap="butt" stroke-linejoin="miter" stroke="rgb(100%, 100%, 100%)" stroke-opacity="1" stroke-miterlimit="10" d="M -14.172531 -56.694 L -14.172531 56.692719 " transform="matrix(1, 0, 0, -1, 89.528, 61.181)"/>
<path fill="none" stroke-width="0.3985" stroke-linecap="butt" stroke-linejoin="miter" stroke="rgb(100%, 100%, 100%)" stroke-opacity="1" stroke-miterlimit="10" d="M -0.00065625 -56.694 L -0.00065625 56.692719 " transform="matrix(1, 0, 0, -1, 89.528, 61.181)"/>
<path fill="none" stroke-width="0.3985" stroke-linecap="butt" stroke-linejoin="miter" stroke="rgb(100%, 100%, 100%)" stroke-opacity="1" stroke-miterlimit="10" d="M -85.039719 0.0013125 L -68.785812 0.0013125 " transform="matrix(1, 0, 0, -1, 89.528, 61.181)"/>
<path fill-rule="nonzero" fill="rgb(100%, 100%, 100%)" fill-opacity="1" d="M 24.332031 61.179688 C 23.265625 60.980469 21.539062 60.382812 20.34375 59.6875 L 20.34375 62.675781 C 21.539062 61.976562 23.265625 61.378906 24.332031 61.179688 "/>
<path fill-rule="nonzero" fill="rgb(100%, 100%, 100%)" fill-opacity="1" stroke-width="0.3985" stroke-linecap="butt" stroke-linejoin="miter" stroke="rgb(100%, 100%, 100%)" stroke-opacity="1" stroke-miterlimit="10" d="M 1.417313 -56.694 L 1.417313 -28.346344 L -1.418625 -28.346344 L -1.418625 -56.694 Z M 1.417313 -56.694 " transform="matrix(1, 0, 0, -1, 89.528, 61.181)"/>
<path fill-rule="nonzero" fill="rgb(100%, 100%, 100%)" fill-opacity="1" stroke-width="0.3985" stroke-linecap="butt" stroke-linejoin="miter" stroke="rgb(100%, 100%, 100%)" stroke-opacity="1" stroke-miterlimit="10" d="M 1.417313 56.692719 L 1.417313 28.345062 L -1.418625 28.345062 L -1.418625 56.692719 Z M 1.417313 56.692719 " transform="matrix(1, 0, 0, -1, 89.528, 61.181)"/>
<path fill-rule="nonzero" fill="rgb(100%, 0%, 0%)" fill-opacity="1" stroke-width="0.3985" stroke-linecap="butt" stroke-linejoin="miter" stroke="rgb(100%, 0%, 0%)" stroke-opacity="1" stroke-miterlimit="10" d="M 1.417313 -28.346344 C 1.417313 -27.565094 0.7845 -26.928375 -0.00065625 -26.928375 C -0.781906 -26.928375 -1.418625 -27.565094 -1.418625 -28.346344 C -1.418625 -29.1315 -0.781906 -29.764313 -0.00065625 -29.764313 C 0.7845 -29.764313 1.417313 -29.1315 1.417313 -28.346344 Z M 1.417313 -28.346344 " transform="matrix(1, 0, 0, -1, 89.528, 61.181)"/>
<path fill="none" stroke-width="0.3985" stroke-linecap="butt" stroke-linejoin="miter" stroke="rgb(0%, 67.83905%, 93.728638%)" stroke-opacity="1" stroke-miterlimit="10" d="M -0.00065625 -42.522125 C 7.827469 -42.522125 14.175125 -36.174469 14.175125 -28.346344 C 14.175125 -20.518219 7.827469 -14.174469 -0.00065625 -14.174469 " transform="matrix(1, 0, 0, -1, 89.528, 61.181)"/>
<path fill-rule="nonzero" fill="rgb(100%, 0%, 0%)" fill-opacity="1" stroke-width="0.3985" stroke-linecap="butt" stroke-linejoin="miter" stroke="rgb(100%, 0%, 0%)" stroke-opacity="1" stroke-miterlimit="10" d="M 1.417313 -14.174469 C 1.417313 -13.389313 0.7845 -12.7565 -0.00065625 -12.7565 C -0.781906 -12.7565 -1.418625 -13.389313 -1.418625 -14.174469 C -1.418625 -14.955719 -0.781906 -15.592438 -0.00065625 -15.592438 C 0.7845 -15.592438 1.417313 -14.955719 1.417313 -14.174469 Z M 1.417313 -14.174469 " transform="matrix(1, 0, 0, -1, 89.528, 61.181)"/>
<path fill="none" stroke-width="0.3985" stroke-linecap="butt" stroke-linejoin="miter" stroke="rgb(0%, 67.83905%, 93.728638%)" stroke-opacity="1" stroke-miterlimit="10" d="M -0.00065625 -28.346344 C 7.827469 -28.346344 14.175125 -22.002594 14.175125 -14.174469 C 14.175125 -6.346344 7.827469 0.0013125 -0.00065625 0.0013125 " transform="matrix(1, 0, 0, -1, 89.528, 61.181)"/>
<path fill-rule="nonzero" fill="rgb(100%, 0%, 0%)" fill-opacity="1" stroke-width="0.3985" stroke-linecap="butt" stroke-linejoin="miter" stroke="rgb(100%, 0%, 0%)" stroke-opacity="1" stroke-miterlimit="10" d="M 1.417313 0.0013125 C 1.417313 0.782562 0.7845 1.419281 -0.00065625 1.419281 C -0.781906 1.419281 -1.418625 0.782562 -1.418625 0.0013125 C -1.418625 -0.783844 -0.781906 -1.416656 -0.00065625 -1.416656 C 0.7845 -1.416656 1.417313 -0.783844 1.417313 0.0013125 Z M 1.417313 0.0013125 " transform="matrix(1, 0, 0, -1, 89.528, 61.181)"/>
<path fill="none" stroke-width="0.3985" stroke-linecap="butt" stroke-linejoin="miter" stroke="rgb(0%, 67.83905%, 93.728638%)" stroke-opacity="1" stroke-miterlimit="10" d="M -0.00065625 -14.174469 C 7.827469 -14.174469 14.175125 -7.826813 14.175125 0.0013125 C 14.175125 7.829437 7.827469 14.173187 -0.00065625 14.173187 " transform="matrix(1, 0, 0, -1, 89.528, 61.181)"/>
<path fill-rule="nonzero" fill="rgb(100%, 0%, 0%)" fill-opacity="1" stroke-width="0.3985" stroke-linecap="butt" stroke-linejoin="miter" stroke="rgb(100%, 0%, 0%)" stroke-opacity="1" stroke-miterlimit="10" d="M 1.417313 14.173187 C 1.417313 14.954437 0.7845 15.591156 -0.00065625 15.591156 C -0.781906 15.591156 -1.418625 14.954437 -1.418625 14.173187 C -1.418625 13.391937 -0.781906 12.755219 -0.00065625 12.755219 C 0.7845 12.755219 1.417313 13.391937 1.417313 14.173187 Z M 1.417313 14.173187 " transform="matrix(1, 0, 0, -1, 89.528, 61.181)"/>
<path fill="none" stroke-width="0.3985" stroke-linecap="butt" stroke-linejoin="miter" stroke="rgb(0%, 67.83905%, 93.728638%)" stroke-opacity="1" stroke-miterlimit="10" d="M -0.00065625 0.0013125 C 7.827469 0.0013125 14.175125 6.345062 14.175125 14.173187 C 14.175125 22.001312 7.827469 28.345062 -0.00065625 28.345062 " transform="matrix(1, 0, 0, -1, 89.528, 61.181)"/>
<path fill-rule="nonzero" fill="rgb(100%, 0%, 0%)" fill-opacity="1" stroke-width="0.3985" stroke-linecap="butt" stroke-linejoin="miter" stroke="rgb(100%, 0%, 0%)" stroke-opacity="1" stroke-miterlimit="10" d="M 1.417313 28.345062 C 1.417313 29.130219 0.7845 29.763031 -0.00065625 29.763031 C -0.781906 29.763031 -1.418625 29.130219 -1.418625 28.345062 C -1.418625 27.563812 -0.781906 26.931 -0.00065625 26.931 C 0.7845 26.931 1.417313 27.563812 1.417313 28.345062 Z M 1.417313 28.345062 " transform="matrix(1, 0, 0, -1, 89.528, 61.181)"/>
<path fill="none" stroke-width="0.3985" stroke-linecap="butt" stroke-linejoin="miter" stroke="rgb(0%, 67.83905%, 93.728638%)" stroke-opacity="1" stroke-miterlimit="10" d="M -0.00065625 14.173187 C 7.827469 14.173187 14.175125 20.520844 14.175125 28.345062 C 14.175125 36.173187 7.827469 42.520844 -0.00065625 42.520844 " transform="matrix(1, 0, 0, -1, 89.528, 61.181)"/>
<path fill="none" stroke-width="0.3985" stroke-linecap="butt" stroke-linejoin="miter" stroke="rgb(100%, 100%, 100%)" stroke-opacity="1" stroke-miterlimit="10" d="M -0.00065625 -42.522125 C 7.827469 -42.522125 14.175125 -36.174469 14.175125 -28.346344 L 14.175125 28.345062 C 14.175125 36.173187 7.827469 42.520844 -0.00065625 42.520844 " transform="matrix(1, 0, 0, -1, 89.528, 61.181)"/>
<g clip-path="url(#clip-0)">
<path fill="none" stroke-width="0.3985" stroke-linecap="butt" stroke-linejoin="miter" stroke="rgb(100%, 100%, 100%)" stroke-opacity="1" stroke-miterlimit="10" d="M -0.00065625 -56.694 C 15.655594 -56.694 28.347 -44.002594 28.347 -28.346344 L 28.347 28.345062 C 28.347 44.001312 15.655594 56.692719 -0.00065625 56.692719 " transform="matrix(1, 0, 0, -1, 89.528, 61.181)"/>
</g>
</svg>
