<?xml version="1.0" encoding="UTF-8"?>
<svg xmlns="http://www.w3.org/2000/svg" xmlns:xlink="http://www.w3.org/1999/xlink" width="151.108pt" height="151.108pt" viewBox="0 0 151.108 151.108" version="1.1">
<g id="surface1">
<path style=" stroke:none;fill-rule:nonzero;fill:rgb(0%,0%,0%);fill-opacity:1;" d="M 0.199219 150.910156 L 0.199219 0.199219 L 150.910156 0.199219 L 150.910156 150.910156 Z M 0.199219 150.910156 "/>
<path style="fill:none;stroke-width:0.3985;stroke-linecap:butt;stroke-linejoin:miter;stroke:rgb(100%,100%,100%);stroke-opacity:1;stroke-miterlimit:10;" d="M -75.354781 -75.356156 L -75.354781 75.354781 L 75.356156 75.354781 L 75.356156 -75.356156 Z M -75.354781 -75.356156 " transform="matrix(1,0,0,-1,75.554,75.554)"/>
<path style=" stroke:none;fill-rule:nonzero;fill:rgb(0%,0%,0%);fill-opacity:1;" d="M 0.199219 150.910156 L 0.199219 0.199219 L 150.910156 0.199219 L 150.910156 150.910156 Z M 0.199219 150.910156 "/>
<path style="fill:none;stroke-width:0.3985;stroke-linecap:butt;stroke-linejoin:miter;stroke:rgb(100%,100%,100%);stroke-opacity:1;stroke-miterlimit:10;" d="M -75.354781 -75.356156 L -75.354781 75.354781 L 75.356156 75.354781 L 75.356156 -75.356156 Z M -75.354781 -75.356156 " transform="matrix(1,0,0,-1,75.554,75.554)"/>
<path style="fill:none;stroke-width:0.3985;stroke-linecap:butt;stroke-linejoin:miter;stroke:rgb(100%,100%,100%);stroke-opacity:1;stroke-miterlimit:10;" d="M 14.172562 -0.0006875 C 14.172562 7.827438 7.828812 14.175094 0.0006875 14.175094 C -7.827438 14.175094 -14.175094 7.827438 -14.175094 -0.0006875 C -14.175094 -7.828812 -7.827438 -14.172562 0.0006875 -14.172562 C 7.828812 -14.172562 14.172562 -7.828812 14.172562 -0.0006875 Z M 14.172562 -0.0006875 " transform="matrix(1,0,0,-1,75.554,75.554)"/>
<path style="fill:none;stroke-width:0.3985;stroke-linecap:butt;stroke-linejoin:miter;stroke:rgb(100%,100%,100%);stroke-opacity:1;stroke-miterlimit:10;" d="M 28.348344 -0.0006875 C 28.348344 15.655563 15.656937 28.346969 0.0006875 28.346969 C -15.655563 28.346969 -28.346969 15.655563 -28.346969 -0.0006875 C -28.346969 -15.656937 -15.655563 -28.348344 0.0006875 -28.348344 C 15.656937 -28.348344 28.348344 -15.656937 28.348344 -0.0006875 Z M 28.348344 -0.0006875 " transform="matrix(1,0,0,-1,75.554,75.554)"/>
<path style="fill:none;stroke-width:0.3985;stroke-linecap:butt;stroke-linejoin:miter;stroke:rgb(100%,100%,100%);stroke-opacity:1;stroke-miterlimit:10;" d="M 42.520219 -0.0006875 C 42.520219 23.483688 23.485062 42.518844 0.0006875 42.518844 C -23.483688 42.518844 -42.518844 23.483688 -42.518844 -0.0006875 C -42.518844 -23.485062 -23.483688 -42.520219 0.0006875 -42.520219 C 23.485062 -42.520219 42.520219 -23.485062 42.520219 -0.0006875 Z M 42.520219 -0.0006875 " transform="matrix(1,0,0,-1,75.554,75.554)"/>
<path style="fill:none;stroke-width:0.3985;stroke-linecap:butt;stroke-linejoin:miter;stroke:rgb(100%,100%,100%);stroke-opacity:1;stroke-miterlimit:10;" d="M 56.692094 -0.0006875 C 56.692094 31.311813 31.313187 56.694625 0.0006875 56.694625 C -31.311813 56.694625 -56.694625 31.311813 -56.694625 -0.0006875 C -56.694625 -31.313187 -31.311813 -56.692094 0.0006875 -56.692094 C 31.313187 -56.692094 56.692094 -31.313187 56.692094 -0.0006875 Z M 56.692094 -0.0006875 " transform="matrix(1,0,0,-1,75.554,75.554)"/>
<path style="fill:none;stroke-width:0.3985;stroke-linecap:butt;stroke-linejoin:miter;stroke:rgb(0%,67.83905%,93.728638%);stroke-opacity:1;stroke-miterlimit:10;" d="M 7.086625 -12.274125 C 13.863969 -16.188187 22.535844 -13.863969 26.446 -7.086625 C 30.360062 -0.309281 28.03975 8.362594 21.2585 12.27275 C 16.875687 14.804 11.469437 14.804 7.086625 12.27275 " transform="matrix(1,0,0,-1,75.554,75.554)"/>
<path style="fill-rule:nonzero;fill:rgb(100%,0%,0%);fill-opacity:1;stroke-width:0.3985;stroke-linecap:butt;stroke-linejoin:miter;stroke:rgb(100%,0%,0%);stroke-opacity:1;stroke-miterlimit:10;" d="M 15.590531 -0.0006875 C 15.590531 0.784469 14.957719 1.417281 14.172562 1.417281 C 13.391312 1.417281 12.754594 0.784469 12.754594 -0.0006875 C 12.754594 -0.781937 13.391312 -1.418656 14.172562 -1.418656 C 14.957719 -1.418656 15.590531 -0.781937 15.590531 -0.0006875 Z M 15.590531 -0.0006875 " transform="matrix(1,0,0,-1,75.554,75.554)"/>
<path style="fill:none;stroke-width:0.3985;stroke-linecap:butt;stroke-linejoin:miter;stroke:rgb(0%,67.83905%,93.728638%);stroke-opacity:1;stroke-miterlimit:10;" d="M 13.692094 -3.668656 C 21.250687 -1.641312 25.738969 6.128219 23.711625 13.690719 C 21.688187 21.253219 13.91475 25.737594 6.35225 23.714156 C 1.461625 22.401656 -2.358688 18.581344 -3.667281 13.690719 " transform="matrix(1,0,0,-1,75.554,75.554)"/>
<path style="fill-rule:nonzero;fill:rgb(100%,0%,0%);fill-opacity:1;stroke-width:0.3985;stroke-linecap:butt;stroke-linejoin:miter;stroke:rgb(100%,0%,0%);stroke-opacity:1;stroke-miterlimit:10;" d="M 11.438187 10.02275 C 11.438187 10.804 10.805375 11.440719 10.020219 11.440719 C 9.238969 11.440719 8.606156 10.804 8.606156 10.02275 C 8.606156 9.237594 9.238969 8.604781 10.020219 8.604781 C 10.805375 8.604781 11.438187 9.237594 11.438187 10.02275 Z M 11.438187 10.02275 " transform="matrix(1,0,0,-1,75.554,75.554)"/>
<path style="fill:none;stroke-width:0.3985;stroke-linecap:butt;stroke-linejoin:miter;stroke:rgb(0%,67.83905%,93.728638%);stroke-opacity:1;stroke-miterlimit:10;" d="M 12.274125 7.08525 C 16.188187 13.8665 13.863969 22.534469 7.086625 26.448531 C 0.309281 30.362594 -8.362594 28.038375 -12.27275 21.261031 C -14.804 16.874313 -14.804 11.471969 -12.27275 7.08525 " transform="matrix(1,0,0,-1,75.554,75.554)"/>
<path style="fill-rule:nonzero;fill:rgb(100%,0%,0%);fill-opacity:1;stroke-width:0.3985;stroke-linecap:butt;stroke-linejoin:miter;stroke:rgb(100%,0%,0%);stroke-opacity:1;stroke-miterlimit:10;" d="M 1.418656 14.175094 C 1.418656 14.956344 0.781937 15.589156 0.0006875 15.589156 C -0.784469 15.589156 -1.417281 14.956344 -1.417281 14.175094 C -1.417281 13.389938 -0.784469 12.757125 0.0006875 12.757125 C 0.781937 12.757125 1.418656 13.389938 1.418656 14.175094 Z M 1.418656 14.175094 " transform="matrix(1,0,0,-1,75.554,75.554)"/>
<path style="fill:none;stroke-width:0.3985;stroke-linecap:butt;stroke-linejoin:miter;stroke:rgb(0%,67.83905%,93.728638%);stroke-opacity:1;stroke-miterlimit:10;" d="M 3.668656 13.690719 C 1.641312 21.249313 -6.128219 25.737594 -13.690719 23.714156 C -21.253219 21.686813 -25.737594 13.913375 -23.714156 6.354781 C -22.401656 1.464156 -18.581344 -2.360062 -13.690719 -3.668656 " transform="matrix(1,0,0,-1,75.554,75.554)"/>
<path style="fill-rule:nonzero;fill:rgb(100%,0%,0%);fill-opacity:1;stroke-width:0.3985;stroke-linecap:butt;stroke-linejoin:miter;stroke:rgb(100%,0%,0%);stroke-opacity:1;stroke-miterlimit:10;" d="M -8.604781 10.02275 C -8.604781 10.804 -9.237594 11.440719 -10.02275 11.440719 C -10.804 11.440719 -11.440719 10.804 -11.440719 10.02275 C -11.440719 9.237594 -10.804 8.604781 -10.02275 8.604781 C -9.237594 8.604781 -8.604781 9.237594 -8.604781 10.02275 Z M -8.604781 10.02275 " transform="matrix(1,0,0,-1,75.554,75.554)"/>
<path style="fill:none;stroke-width:0.3985;stroke-linecap:butt;stroke-linejoin:miter;stroke:rgb(0%,67.83905%,93.728638%);stroke-opacity:1;stroke-miterlimit:10;" d="M -7.08525 12.27275 C -13.8665 16.186813 -22.534469 13.8665 -26.448531 7.08525 C -30.362594 0.307906 -28.038375 -8.360062 -21.261031 -12.274125 C -16.874313 -14.805375 -11.471969 -14.805375 -7.08525 -12.274125 " transform="matrix(1,0,0,-1,75.554,75.554)"/>
<path style="fill-rule:nonzero;fill:rgb(100%,0%,0%);fill-opacity:1;stroke-width:0.3985;stroke-linecap:butt;stroke-linejoin:miter;stroke:rgb(100%,0%,0%);stroke-opacity:1;stroke-miterlimit:10;" d="M -12.757125 -0.0006875 C -12.757125 0.784469 -13.389938 1.417281 -14.175094 1.417281 C -14.956344 1.417281 -15.589156 0.784469 -15.589156 -0.0006875 C -15.589156 -0.781937 -14.956344 -1.418656 -14.175094 -1.418656 C -13.389938 -1.418656 -12.757125 -0.781937 -12.757125 -0.0006875 Z M -12.757125 -0.0006875 " transform="matrix(1,0,0,-1,75.554,75.554)"/>
<path style="fill:none;stroke-width:0.3985;stroke-linecap:butt;stroke-linejoin:miter;stroke:rgb(0%,67.83905%,93.728638%);stroke-opacity:1;stroke-miterlimit:10;" d="M -13.690719 3.667281 C -21.249313 1.643844 -25.737594 -6.129594 -23.714156 -13.692094 C -21.686813 -21.250687 -13.913375 -25.738969 -6.354781 -23.711625 C -1.464156 -22.403031 2.360062 -18.582719 3.668656 -13.692094 " transform="matrix(1,0,0,-1,75.554,75.554)"/>
<path style="fill-rule:nonzero;fill:rgb(100%,0%,0%);fill-opacity:1;stroke-width:0.3985;stroke-linecap:butt;stroke-linejoin:miter;stroke:rgb(100%,0%,0%);stroke-opacity:1;stroke-miterlimit:10;" d="M -8.604781 -10.020219 C -8.604781 -9.238969 -9.237594 -8.606156 -10.02275 -8.606156 C -10.804 -8.606156 -11.440719 -9.238969 -11.440719 -10.020219 C -11.440719 -10.805375 -10.804 -11.438187 -10.02275 -11.438187 C -9.237594 -11.438187 -8.604781 -10.805375 -8.604781 -10.020219 Z M -8.604781 -10.020219 " transform="matrix(1,0,0,-1,75.554,75.554)"/>
<path style="fill:none;stroke-width:0.3985;stroke-linecap:butt;stroke-linejoin:miter;stroke:rgb(0%,67.83905%,93.728638%);stroke-opacity:1;stroke-miterlimit:10;" d="M -12.27275 -7.086625 C -16.186813 -13.863969 -13.8665 -22.535844 -7.08525 -26.446 C -0.307906 -30.360062 8.360062 -28.03975 12.274125 -21.2585 C 14.805375 -16.875687 14.805375 -11.469437 12.274125 -7.086625 " transform="matrix(1,0,0,-1,75.554,75.554)"/>
<path style="fill-rule:nonzero;fill:rgb(100%,0%,0%);fill-opacity:1;stroke-width:0.3985;stroke-linecap:butt;stroke-linejoin:miter;stroke:rgb(100%,0%,0%);stroke-opacity:1;stroke-miterlimit:10;" d="M 1.418656 -14.172562 C 1.418656 -13.391312 0.781937 -12.754594 0.0006875 -12.754594 C -0.784469 -12.754594 -1.417281 -13.391312 -1.417281 -14.172562 C -1.417281 -14.957719 -0.784469 -15.590531 0.0006875 -15.590531 C 0.781937 -15.590531 1.418656 -14.957719 1.418656 -14.172562 Z M 1.418656 -14.172562 " transform="matrix(1,0,0,-1,75.554,75.554)"/>
<path style="fill:none;stroke-width:0.3985;stroke-linecap:butt;stroke-linejoin:miter;stroke:rgb(0%,67.83905%,93.728638%);stroke-opacity:1;stroke-miterlimit:10;" d="M -3.667281 -13.692094 C -1.643844 -21.250687 6.129594 -25.738969 13.692094 -23.711625 C 21.250687 -21.688187 25.738969 -13.91475 23.711625 -6.35225 C 22.403031 -1.461625 18.582719 2.358688 13.692094 3.667281 " transform="matrix(1,0,0,-1,75.554,75.554)"/>
<path style="fill-rule:nonzero;fill:rgb(100%,0%,0%);fill-opacity:1;stroke-width:0.3985;stroke-linecap:butt;stroke-linejoin:miter;stroke:rgb(100%,0%,0%);stroke-opacity:1;stroke-miterlimit:10;" d="M 11.438187 -10.020219 C 11.438187 -9.238969 10.805375 -8.606156 10.020219 -8.606156 C 9.238969 -8.606156 8.606156 -9.238969 8.606156 -10.020219 C 8.606156 -10.805375 9.238969 -11.438187 10.020219 -11.438187 C 10.805375 -11.438187 11.438187 -10.805375 11.438187 -10.020219 Z M 11.438187 -10.020219 " transform="matrix(1,0,0,-1,75.554,75.554)"/>
<path style="fill:none;stroke-width:0.3985;stroke-linecap:butt;stroke-linejoin:miter;stroke:rgb(0%,67.83905%,93.728638%);stroke-opacity:1;stroke-miterlimit:10;" d="M 40.059281 -13.957719 C 47.766312 -15.317094 55.117875 -10.168656 56.47725 -2.461625 C 57.356156 2.526656 55.5085 7.604781 51.629594 10.858688 C 48.422562 13.550094 44.184281 14.686813 40.059281 13.96025 " transform="matrix(1,0,0,-1,75.554,75.554)"/>
<path style="fill-rule:nonzero;fill:rgb(100%,0%,0%);fill-opacity:1;stroke-width:0.3985;stroke-linecap:butt;stroke-linejoin:miter;stroke:rgb(100%,0%,0%);stroke-opacity:1;stroke-miterlimit:10;" d="M 43.938187 -0.0006875 C 43.938187 0.784469 43.301469 1.417281 42.520219 1.417281 C 41.738969 1.417281 41.10225 0.784469 41.10225 -0.0006875 C 41.10225 -0.781937 41.738969 -1.418656 42.520219 -1.418656 C 43.301469 -1.418656 43.938187 -0.781937 43.938187 -0.0006875 Z M 43.938187 -0.0006875 " transform="matrix(1,0,0,-1,75.554,75.554)"/>
<path style="fill:none;stroke-width:0.3985;stroke-linecap:butt;stroke-linejoin:miter;stroke:rgb(0%,67.83905%,93.728638%);stroke-opacity:1;stroke-miterlimit:10;" d="M 42.418656 0.58525 C 50.125687 1.944625 55.274125 9.296188 53.91475 17.003219 C 53.035844 21.9915 49.563187 26.128219 44.805375 27.862594 C 40.867875 29.296188 36.496781 28.913375 32.867875 26.815719 " transform="matrix(1,0,0,-1,75.554,75.554)"/>
<path style="fill-rule:nonzero;fill:rgb(100%,0%,0%);fill-opacity:1;stroke-width:0.3985;stroke-linecap:butt;stroke-linejoin:miter;stroke:rgb(100%,0%,0%);stroke-opacity:1;stroke-miterlimit:10;" d="M 41.371781 14.542281 C 41.371781 15.327438 40.738969 15.96025 39.957719 15.96025 C 39.172562 15.96025 38.53975 15.327438 38.53975 14.542281 C 38.53975 13.761031 39.172562 13.124313 39.957719 13.124313 C 40.738969 13.124313 41.371781 13.761031 41.371781 14.542281 Z M 41.371781 14.542281 " transform="matrix(1,0,0,-1,75.554,75.554)"/>
<path style="fill:none;stroke-width:0.3985;stroke-linecap:butt;stroke-linejoin:miter;stroke:rgb(0%,67.83905%,93.728638%);stroke-opacity:1;stroke-miterlimit:10;" d="M 39.656937 15.057906 C 46.438187 18.971969 48.7585 27.639938 44.844437 34.417281 C 42.313187 38.804 37.6335 41.503219 32.571 41.503219 C 28.3835 41.503219 24.406937 39.651656 21.715531 36.440719 " transform="matrix(1,0,0,-1,75.554,75.554)"/>
<path style="fill-rule:nonzero;fill:rgb(100%,0%,0%);fill-opacity:1;stroke-width:0.3985;stroke-linecap:butt;stroke-linejoin:miter;stroke:rgb(100%,0%,0%);stroke-opacity:1;stroke-miterlimit:10;" d="M 33.988969 27.331344 C 33.988969 28.112594 33.356156 28.749313 32.571 28.749313 C 31.78975 28.749313 31.153031 28.112594 31.153031 27.331344 C 31.153031 26.550094 31.78975 25.913375 32.571 25.913375 C 33.356156 25.913375 33.988969 26.550094 33.988969 27.331344 Z M 33.988969 27.331344 " transform="matrix(1,0,0,-1,75.554,75.554)"/>
<path style="fill:none;stroke-width:0.3985;stroke-linecap:butt;stroke-linejoin:miter;stroke:rgb(0%,67.83905%,93.728638%);stroke-opacity:1;stroke-miterlimit:10;" d="M 32.117875 27.714156 C 37.149125 33.71025 36.367875 42.64775 30.371781 47.682906 C 26.492875 50.936813 21.168656 51.874313 16.410844 50.143844 C 12.47725 48.71025 9.375687 45.608688 7.942094 41.671188 " transform="matrix(1,0,0,-1,75.554,75.554)"/>
<path style="fill-rule:nonzero;fill:rgb(100%,0%,0%);fill-opacity:1;stroke-width:0.3985;stroke-linecap:butt;stroke-linejoin:miter;stroke:rgb(100%,0%,0%);stroke-opacity:1;stroke-miterlimit:10;" d="M 22.676469 36.823531 C 22.676469 37.604781 22.043656 38.2415 21.2585 38.2415 C 20.47725 38.2415 19.844437 37.604781 19.844437 36.823531 C 19.844437 36.042281 20.47725 35.405563 21.2585 35.405563 C 22.043656 35.405563 22.676469 36.042281 22.676469 36.823531 Z M 22.676469 36.823531 " transform="matrix(1,0,0,-1,75.554,75.554)"/>
<path style="fill:none;stroke-width:0.3985;stroke-linecap:butt;stroke-linejoin:miter;stroke:rgb(0%,67.83905%,93.728638%);stroke-opacity:1;stroke-miterlimit:10;" d="M 20.703812 37.026656 C 23.379594 44.382125 19.586625 52.514938 12.231156 55.194625 C 7.473344 56.925094 2.153031 55.987594 -1.725875 52.733688 C -4.936813 50.038375 -6.788375 46.061813 -6.788375 41.874313 " transform="matrix(1,0,0,-1,75.554,75.554)"/>
<path style="fill-rule:nonzero;fill:rgb(100%,0%,0%);fill-opacity:1;stroke-width:0.3985;stroke-linecap:butt;stroke-linejoin:miter;stroke:rgb(100%,0%,0%);stroke-opacity:1;stroke-miterlimit:10;" d="M 8.801469 41.874313 C 8.801469 42.655563 8.16475 43.292281 7.3835 43.292281 C 6.60225 43.292281 5.965531 42.655563 5.965531 41.874313 C 5.965531 41.093063 6.60225 40.456344 7.3835 40.456344 C 8.16475 40.456344 8.801469 41.093063 8.801469 41.874313 Z M 8.801469 41.874313 " transform="matrix(1,0,0,-1,75.554,75.554)"/>
<path style="fill:none;stroke-width:0.3985;stroke-linecap:butt;stroke-linejoin:miter;stroke:rgb(0%,67.83905%,93.728638%);stroke-opacity:1;stroke-miterlimit:10;" d="M 6.78975 41.874313 C 6.78975 49.702438 0.446 56.046188 -7.382125 56.046188 C -12.444625 56.046188 -17.128219 53.346969 -19.659469 48.96025 C -21.753219 45.33525 -22.136031 40.964156 -20.702438 37.026656 " transform="matrix(1,0,0,-1,75.554,75.554)"/>
<path style="fill-rule:nonzero;fill:rgb(100%,0%,0%);fill-opacity:1;stroke-width:0.3985;stroke-linecap:butt;stroke-linejoin:miter;stroke:rgb(100%,0%,0%);stroke-opacity:1;stroke-miterlimit:10;" d="M -5.964156 41.874313 C -5.964156 42.655563 -6.600875 43.292281 -7.382125 43.292281 C -8.167281 43.292281 -8.800094 42.655563 -8.800094 41.874313 C -8.800094 41.093063 -8.167281 40.456344 -7.382125 40.456344 C -6.600875 40.456344 -5.964156 41.093063 -5.964156 41.874313 Z M -5.964156 41.874313 " transform="matrix(1,0,0,-1,75.554,75.554)"/>
<path style="fill:none;stroke-width:0.3985;stroke-linecap:butt;stroke-linejoin:miter;stroke:rgb(0%,67.83905%,93.728638%);stroke-opacity:1;stroke-miterlimit:10;" d="M -7.940719 41.671188 C -10.620406 49.026656 -18.753219 52.819625 -26.108688 50.143844 C -30.8665 48.409469 -34.339156 44.268844 -35.218063 39.284469 C -35.944625 35.159469 -34.811813 30.921188 -32.1165 27.714156 " transform="matrix(1,0,0,-1,75.554,75.554)"/>
<path style="fill-rule:nonzero;fill:rgb(100%,0%,0%);fill-opacity:1;stroke-width:0.3985;stroke-linecap:butt;stroke-linejoin:miter;stroke:rgb(100%,0%,0%);stroke-opacity:1;stroke-miterlimit:10;" d="M -19.843063 36.823531 C -19.843063 37.604781 -20.475875 38.2415 -21.261031 38.2415 C -22.042281 38.2415 -22.679 37.604781 -22.679 36.823531 C -22.679 36.042281 -22.042281 35.405563 -21.261031 35.405563 C -20.475875 35.405563 -19.843063 36.042281 -19.843063 36.823531 Z M -19.843063 36.823531 " transform="matrix(1,0,0,-1,75.554,75.554)"/>
<path style="fill:none;stroke-width:0.3985;stroke-linecap:butt;stroke-linejoin:miter;stroke:rgb(0%,67.83905%,93.728638%);stroke-opacity:1;stroke-miterlimit:10;" d="M -21.714156 36.440719 C -26.745406 42.436813 -35.686813 43.221969 -41.682906 38.190719 C -45.561813 34.932906 -47.409469 29.854781 -46.530563 24.870406 C -45.804 20.745406 -43.284469 17.151656 -39.659469 15.057906 " transform="matrix(1,0,0,-1,75.554,75.554)"/>
<path style="fill-rule:nonzero;fill:rgb(100%,0%,0%);fill-opacity:1;stroke-width:0.3985;stroke-linecap:butt;stroke-linejoin:miter;stroke:rgb(100%,0%,0%);stroke-opacity:1;stroke-miterlimit:10;" d="M -31.155563 27.331344 C -31.155563 28.112594 -31.788375 28.749313 -32.573531 28.749313 C -33.354781 28.749313 -33.987594 28.112594 -33.987594 27.331344 C -33.987594 26.550094 -33.354781 25.913375 -32.573531 25.913375 C -31.788375 25.913375 -31.155563 26.550094 -31.155563 27.331344 Z M -31.155563 27.331344 " transform="matrix(1,0,0,-1,75.554,75.554)"/>
<path style="fill:none;stroke-width:0.3985;stroke-linecap:butt;stroke-linejoin:miter;stroke:rgb(0%,67.83905%,93.728638%);stroke-opacity:1;stroke-miterlimit:10;" d="M -32.870406 26.815719 C -39.64775 30.729781 -48.315719 28.409469 -52.229781 21.628219 C -54.761031 17.245406 -54.761031 11.839156 -52.229781 7.456344 C -50.136031 3.827438 -46.542281 1.311813 -42.417281 0.58525 " transform="matrix(1,0,0,-1,75.554,75.554)"/>
<path style="fill-rule:nonzero;fill:rgb(100%,0%,0%);fill-opacity:1;stroke-width:0.3985;stroke-linecap:butt;stroke-linejoin:miter;stroke:rgb(100%,0%,0%);stroke-opacity:1;stroke-miterlimit:10;" d="M -38.538375 14.542281 C -38.538375 15.327438 -39.175094 15.96025 -39.956344 15.96025 C -40.737594 15.96025 -41.374313 15.327438 -41.374313 14.542281 C -41.374313 13.761031 -40.737594 13.124313 -39.956344 13.124313 C -39.175094 13.124313 -38.538375 13.761031 -38.538375 14.542281 Z M -38.538375 14.542281 " transform="matrix(1,0,0,-1,75.554,75.554)"/>
<path style="fill:none;stroke-width:0.3985;stroke-linecap:butt;stroke-linejoin:miter;stroke:rgb(0%,67.83905%,93.728638%);stroke-opacity:1;stroke-miterlimit:10;" d="M -40.057906 13.956344 C -47.768844 15.315719 -55.120406 10.171188 -56.479781 2.46025 C -57.358688 -2.524125 -55.511031 -7.60225 -51.632125 -10.856156 C -48.421188 -13.551469 -44.182906 -14.684281 -40.057906 -13.957719 " transform="matrix(1,0,0,-1,75.554,75.554)"/>
<path style="fill-rule:nonzero;fill:rgb(100%,0%,0%);fill-opacity:1;stroke-width:0.3985;stroke-linecap:butt;stroke-linejoin:miter;stroke:rgb(100%,0%,0%);stroke-opacity:1;stroke-miterlimit:10;" d="M -41.100875 -0.0006875 C -41.100875 0.784469 -41.737594 1.417281 -42.518844 1.417281 C -43.304 1.417281 -43.936813 0.784469 -43.936813 -0.0006875 C -43.936813 -0.781937 -43.304 -1.418656 -42.518844 -1.418656 C -41.737594 -1.418656 -41.100875 -0.781937 -41.100875 -0.0006875 Z M -41.100875 -0.0006875 " transform="matrix(1,0,0,-1,75.554,75.554)"/>
<path style="fill:none;stroke-width:0.3985;stroke-linecap:butt;stroke-linejoin:miter;stroke:rgb(0%,67.83905%,93.728638%);stroke-opacity:1;stroke-miterlimit:10;" d="M -42.417281 -0.586625 C -50.124313 -1.942094 -55.27275 -9.293656 -53.913375 -17.004594 C -53.034469 -21.988969 -49.561813 -26.129594 -44.804 -27.860062 C -40.8665 -29.293656 -36.495406 -28.910844 -32.870406 -26.817094 " transform="matrix(1,0,0,-1,75.554,75.554)"/>
<path style="fill-rule:nonzero;fill:rgb(100%,0%,0%);fill-opacity:1;stroke-width:0.3985;stroke-linecap:butt;stroke-linejoin:miter;stroke:rgb(100%,0%,0%);stroke-opacity:1;stroke-miterlimit:10;" d="M -38.538375 -14.543656 C -38.538375 -13.7585 -39.175094 -13.125687 -39.956344 -13.125687 C -40.737594 -13.125687 -41.374313 -13.7585 -41.374313 -14.543656 C -41.374313 -15.324906 -40.737594 -15.961625 -39.956344 -15.961625 C -39.175094 -15.961625 -38.538375 -15.324906 -38.538375 -14.543656 Z M -38.538375 -14.543656 " transform="matrix(1,0,0,-1,75.554,75.554)"/>
<path style="fill:none;stroke-width:0.3985;stroke-linecap:butt;stroke-linejoin:miter;stroke:rgb(0%,67.83905%,93.728638%);stroke-opacity:1;stroke-miterlimit:10;" d="M -39.659469 -15.055375 C -46.436813 -18.969437 -48.761031 -27.641312 -44.846969 -34.418656 C -42.315719 -38.801469 -37.636031 -41.504594 -32.573531 -41.504594 C -28.382125 -41.504594 -24.405563 -39.653031 -21.714156 -36.442094 " transform="matrix(1,0,0,-1,75.554,75.554)"/>
<path style="fill-rule:nonzero;fill:rgb(100%,0%,0%);fill-opacity:1;stroke-width:0.3985;stroke-linecap:butt;stroke-linejoin:miter;stroke:rgb(100%,0%,0%);stroke-opacity:1;stroke-miterlimit:10;" d="M -31.155563 -27.332719 C -31.155563 -26.547562 -31.788375 -25.91475 -32.573531 -25.91475 C -33.354781 -25.91475 -33.987594 -26.547562 -33.987594 -27.332719 C -33.987594 -28.113969 -33.354781 -28.750687 -32.573531 -28.750687 C -31.788375 -28.750687 -31.155563 -28.113969 -31.155563 -27.332719 Z M -31.155563 -27.332719 " transform="matrix(1,0,0,-1,75.554,75.554)"/>
<path style="fill:none;stroke-width:0.3985;stroke-linecap:butt;stroke-linejoin:miter;stroke:rgb(0%,67.83905%,93.728638%);stroke-opacity:1;stroke-miterlimit:10;" d="M -32.1165 -27.711625 C -37.14775 -33.707719 -36.3665 -42.649125 -30.370406 -47.680375 C -26.4915 -50.934281 -21.171188 -51.875687 -16.413375 -50.141312 C -12.475875 -48.707719 -9.374313 -45.606156 -7.940719 -41.672562 " transform="matrix(1,0,0,-1,75.554,75.554)"/>
<path style="fill-rule:nonzero;fill:rgb(100%,0%,0%);fill-opacity:1;stroke-width:0.3985;stroke-linecap:butt;stroke-linejoin:miter;stroke:rgb(100%,0%,0%);stroke-opacity:1;stroke-miterlimit:10;" d="M -19.843063 -36.824906 C -19.843063 -36.03975 -20.475875 -35.406937 -21.261031 -35.406937 C -22.042281 -35.406937 -22.679 -36.03975 -22.679 -36.824906 C -22.679 -37.606156 -22.042281 -38.242875 -21.261031 -38.242875 C -20.475875 -38.242875 -19.843063 -37.606156 -19.843063 -36.824906 Z M -19.843063 -36.824906 " transform="matrix(1,0,0,-1,75.554,75.554)"/>
<path style="fill:none;stroke-width:0.3985;stroke-linecap:butt;stroke-linejoin:miter;stroke:rgb(0%,67.83905%,93.728638%);stroke-opacity:1;stroke-miterlimit:10;" d="M -20.702438 -37.028031 C -23.378219 -44.3835 -19.58525 -52.516312 -12.229781 -55.192094 C -7.471969 -56.926469 -2.151656 -55.985062 1.72725 -52.731156 C 4.934281 -50.03975 6.78975 -46.063187 6.78975 -41.875687 " transform="matrix(1,0,0,-1,75.554,75.554)"/>
<path style="fill-rule:nonzero;fill:rgb(100%,0%,0%);fill-opacity:1;stroke-width:0.3985;stroke-linecap:butt;stroke-linejoin:miter;stroke:rgb(100%,0%,0%);stroke-opacity:1;stroke-miterlimit:10;" d="M -5.964156 -41.875687 C -5.964156 -41.090531 -6.600875 -40.457719 -7.382125 -40.457719 C -8.167281 -40.457719 -8.800094 -41.090531 -8.800094 -41.875687 C -8.800094 -42.656937 -8.167281 -43.293656 -7.382125 -43.293656 C -6.600875 -43.293656 -5.964156 -42.656937 -5.964156 -41.875687 Z M -5.964156 -41.875687 " transform="matrix(1,0,0,-1,75.554,75.554)"/>
<path style="fill:none;stroke-width:0.3985;stroke-linecap:butt;stroke-linejoin:miter;stroke:rgb(0%,67.83905%,93.728638%);stroke-opacity:1;stroke-miterlimit:10;" d="M -6.788375 -41.875687 C -6.788375 -49.703812 -0.444625 -56.047562 7.3835 -56.047562 C 12.446 -56.047562 17.125687 -53.344437 19.656937 -48.961625 C 21.750687 -45.332719 22.1335 -40.961625 20.703812 -37.028031 " transform="matrix(1,0,0,-1,75.554,75.554)"/>
<path style="fill-rule:nonzero;fill:rgb(100%,0%,0%);fill-opacity:1;stroke-width:0.3985;stroke-linecap:butt;stroke-linejoin:miter;stroke:rgb(100%,0%,0%);stroke-opacity:1;stroke-miterlimit:10;" d="M 8.801469 -41.875687 C 8.801469 -41.090531 8.16475 -40.457719 7.3835 -40.457719 C 6.60225 -40.457719 5.965531 -41.090531 5.965531 -41.875687 C 5.965531 -42.656937 6.60225 -43.293656 7.3835 -43.293656 C 8.16475 -43.293656 8.801469 -42.656937 8.801469 -41.875687 Z M 8.801469 -41.875687 " transform="matrix(1,0,0,-1,75.554,75.554)"/>
<path style="fill:none;stroke-width:0.3985;stroke-linecap:butt;stroke-linejoin:miter;stroke:rgb(0%,67.83905%,93.728638%);stroke-opacity:1;stroke-miterlimit:10;" d="M 7.942094 -41.672562 C 10.617875 -49.028031 18.750687 -52.821 26.106156 -50.141312 C 30.863969 -48.410844 34.340531 -44.270219 35.219437 -39.285844 C 35.946 -35.160844 34.809281 -30.922562 32.117875 -27.711625 " transform="matrix(1,0,0,-1,75.554,75.554)"/>
<path style="fill-rule:nonzero;fill:rgb(100%,0%,0%);fill-opacity:1;stroke-width:0.3985;stroke-linecap:butt;stroke-linejoin:miter;stroke:rgb(100%,0%,0%);stroke-opacity:1;stroke-miterlimit:10;" d="M 22.676469 -36.824906 C 22.676469 -36.03975 22.043656 -35.406937 21.2585 -35.406937 C 20.47725 -35.406937 19.844437 -36.03975 19.844437 -36.824906 C 19.844437 -37.606156 20.47725 -38.242875 21.2585 -38.242875 C 22.043656 -38.242875 22.676469 -37.606156 22.676469 -36.824906 Z M 22.676469 -36.824906 " transform="matrix(1,0,0,-1,75.554,75.554)"/>
<path style="fill:none;stroke-width:0.3985;stroke-linecap:butt;stroke-linejoin:miter;stroke:rgb(0%,67.83905%,93.728638%);stroke-opacity:1;stroke-miterlimit:10;" d="M 21.715531 -36.442094 C 26.746781 -42.438187 35.688187 -43.219437 41.684281 -38.188187 C 45.559281 -34.934281 47.410844 -29.856156 46.531937 -24.871781 C 45.801469 -20.746781 43.285844 -17.153031 39.656937 -15.055375 " transform="matrix(1,0,0,-1,75.554,75.554)"/>
<path style="fill-rule:nonzero;fill:rgb(100%,0%,0%);fill-opacity:1;stroke-width:0.3985;stroke-linecap:butt;stroke-linejoin:miter;stroke:rgb(100%,0%,0%);stroke-opacity:1;stroke-miterlimit:10;" d="M 33.988969 -27.332719 C 33.988969 -26.547562 33.356156 -25.91475 32.571 -25.91475 C 31.78975 -25.91475 31.153031 -26.547562 31.153031 -27.332719 C 31.153031 -28.113969 31.78975 -28.750687 32.571 -28.750687 C 33.356156 -28.750687 33.988969 -28.113969 33.988969 -27.332719 Z M 33.988969 -27.332719 " transform="matrix(1,0,0,-1,75.554,75.554)"/>
<path style="fill:none;stroke-width:0.3985;stroke-linecap:butt;stroke-linejoin:miter;stroke:rgb(0%,67.83905%,93.728638%);stroke-opacity:1;stroke-miterlimit:10;" d="M 32.867875 -26.817094 C 39.649125 -30.731156 48.317094 -28.406937 52.231156 -21.629594 C 54.762406 -17.246781 54.762406 -11.840531 52.231156 -7.457719 C 50.137406 -3.828812 46.543656 -1.313187 42.418656 -0.582719 " transform="matrix(1,0,0,-1,75.554,75.554)"/>
<path style="fill-rule:nonzero;fill:rgb(100%,0%,0%);fill-opacity:1;stroke-width:0.3985;stroke-linecap:butt;stroke-linejoin:miter;stroke:rgb(100%,0%,0%);stroke-opacity:1;stroke-miterlimit:10;" d="M 41.371781 -14.543656 C 41.371781 -13.7585 40.738969 -13.125687 39.957719 -13.125687 C 39.172562 -13.125687 38.53975 -13.7585 38.53975 -14.543656 C 38.53975 -15.324906 39.172562 -15.961625 39.957719 -15.961625 C 40.738969 -15.961625 41.371781 -15.324906 41.371781 -14.543656 Z M 41.371781 -14.543656 " transform="matrix(1,0,0,-1,75.554,75.554)"/>
<path style="fill:none;stroke-width:0.3985;stroke-linecap:butt;stroke-linejoin:miter;stroke:rgb(100%,100%,100%);stroke-opacity:1;stroke-miterlimit:10;" d="M 56.692094 -0.0006875 L 67.281937 -0.0006875 " transform="matrix(1,0,0,-1,75.554,75.554)"/>
<path style=" stroke:none;fill-rule:nonzero;fill:rgb(100%,100%,100%);fill-opacity:1;" d="M 146.421875 75.554688 C 145.359375 75.355469 143.632812 74.757812 142.4375 74.058594 L 142.4375 77.046875 C 143.632812 76.351562 145.359375 75.753906 146.421875 75.554688 "/>
<path style="fill:none;stroke-width:0.3985;stroke-linecap:butt;stroke-linejoin:miter;stroke:rgb(100%,100%,100%);stroke-opacity:1;stroke-miterlimit:10;" d="M 40.086625 40.089156 L 47.574906 47.573531 " transform="matrix(1,0,0,-1,75.554,75.554)"/>
<path style=" stroke:none;fill-rule:nonzero;fill:rgb(100%,100%,100%);fill-opacity:1;" d="M 125.664062 25.445312 C 124.773438 26.054688 123.128906 26.851562 121.789062 27.203125 L 123.902344 29.316406 C 124.253906 27.980469 125.054688 26.335938 125.664062 25.445312 "/>
<path style="fill:none;stroke-width:0.3985;stroke-linecap:butt;stroke-linejoin:miter;stroke:rgb(100%,100%,100%);stroke-opacity:1;stroke-miterlimit:10;" d="M 0.0006875 56.694625 L 0.0006875 67.280563 " transform="matrix(1,0,0,-1,75.554,75.554)"/>
<path style=" stroke:none;fill-rule:nonzero;fill:rgb(100%,100%,100%);fill-opacity:1;" d="M 75.554688 4.6875 C 75.355469 5.75 74.757812 7.476562 74.058594 8.671875 L 77.046875 8.671875 C 76.351562 7.476562 75.753906 5.75 75.554688 4.6875 "/>
<path style="fill:none;stroke-width:0.3985;stroke-linecap:butt;stroke-linejoin:miter;stroke:rgb(100%,100%,100%);stroke-opacity:1;stroke-miterlimit:10;" d="M -40.089156 40.089156 L -47.573531 47.573531 " transform="matrix(1,0,0,-1,75.554,75.554)"/>
<path style=" stroke:none;fill-rule:nonzero;fill:rgb(100%,100%,100%);fill-opacity:1;" d="M 25.445312 25.445312 C 26.054688 26.335938 26.851562 27.980469 27.203125 29.316406 L 29.316406 27.203125 C 27.980469 26.851562 26.335938 26.054688 25.445312 25.445312 "/>
<path style="fill:none;stroke-width:0.3985;stroke-linecap:butt;stroke-linejoin:miter;stroke:rgb(100%,100%,100%);stroke-opacity:1;stroke-miterlimit:10;" d="M -56.694625 -0.0006875 L -67.280563 -0.0006875 " transform="matrix(1,0,0,-1,75.554,75.554)"/>
<path style=" stroke:none;fill-rule:nonzero;fill:rgb(100%,100%,100%);fill-opacity:1;" d="M 4.6875 75.554688 C 5.75 75.753906 7.476562 76.351562 8.671875 77.046875 L 8.671875 74.058594 C 7.476562 74.757812 5.75 75.355469 4.6875 75.554688 "/>
<path style="fill:none;stroke-width:0.3985;stroke-linecap:butt;stroke-linejoin:miter;stroke:rgb(100%,100%,100%);stroke-opacity:1;stroke-miterlimit:10;" d="M -40.089156 -40.086625 L -47.573531 -47.574906 " transform="matrix(1,0,0,-1,75.554,75.554)"/>
<path style=" stroke:none;fill-rule:nonzero;fill:rgb(100%,100%,100%);fill-opacity:1;" d="M 25.445312 125.664062 C 26.335938 125.054688 27.980469 124.253906 29.316406 123.902344 L 27.203125 121.789062 C 26.851562 123.128906 26.054688 124.773438 25.445312 125.664062 "/>
<path style="fill:none;stroke-width:0.3985;stroke-linecap:butt;stroke-linejoin:miter;stroke:rgb(100%,100%,100%);stroke-opacity:1;stroke-miterlimit:10;" d="M 0.0006875 -56.692094 L 0.0006875 -67.281937 " transform="matrix(1,0,0,-1,75.554,75.554)"/>
<path style=" stroke:none;fill-rule:nonzero;fill:rgb(100%,100%,100%);fill-opacity:1;" d="M 75.554688 146.421875 C 75.753906 145.359375 76.351562 143.632812 77.046875 142.4375 L 74.058594 142.4375 C 74.757812 143.632812 75.355469 145.359375 75.554688 146.421875 "/>
<path style="fill:none;stroke-width:0.3985;stroke-linecap:butt;stroke-linejoin:miter;stroke:rgb(100%,100%,100%);stroke-opacity:1;stroke-miterlimit:10;" d="M 40.086625 -40.086625 L 47.574906 -47.574906 " transform="matrix(1,0,0,-1,75.554,75.554)"/>
<path style=" stroke:none;fill-rule:nonzero;fill:rgb(100%,100%,100%);fill-opacity:1;" d="M 125.664062 125.664062 C 125.054688 124.773438 124.253906 123.128906 123.902344 121.789062 L 121.789062 123.902344 C 123.128906 124.253906 124.773438 125.054688 125.664062 125.664062 "/>
<path style="fill-rule:nonzero;fill:rgb(100%,0%,0%);fill-opacity:1;stroke-width:0.3985;stroke-linecap:butt;stroke-linejoin:miter;stroke:rgb(100%,0%,0%);stroke-opacity:1;stroke-miterlimit:10;" d="M 1.418656 -0.0006875 C 1.418656 0.784469 0.781937 1.417281 0.0006875 1.417281 C -0.784469 1.417281 -1.417281 0.784469 -1.417281 -0.0006875 C -1.417281 -0.781937 -0.784469 -1.418656 0.0006875 -1.418656 C 0.781937 -1.418656 1.418656 -0.781937 1.418656 -0.0006875 Z M 1.418656 -0.0006875 " transform="matrix(1,0,0,-1,75.554,75.554)"/>
</g>
</svg>
