<?xml version="1.0" encoding="UTF-8"?>
<svg xmlns="http://www.w3.org/2000/svg" xmlns:xlink="http://www.w3.org/1999/xlink" width="150.71pt" height="150.71pt" viewBox="0 0 150.71 150.71" version="1.1">
<g id="surface1">
<path style=" stroke:none;fill-rule:nonzero;fill:rgb(0%,0%,0%);fill-opacity:1;" d="M 0 150.710938 L 0 0 L 150.710938 0 L 150.710938 150.710938 Z M 0 150.710938 "/>
<path style=" stroke:none;fill-rule:nonzero;fill:rgb(0%,0%,0%);fill-opacity:1;" d="M 0 150.710938 L 0 0 L 150.710938 0 L 150.710938 150.710938 Z M 0 150.710938 "/>
<path style="fill:none;stroke-width:0.3985;stroke-linecap:butt;stroke-linejoin:miter;stroke:rgb(100%,100%,100%);stroke-opacity:1;stroke-miterlimit:10;" d="M 14.172344 -0.00046875 C 14.172344 7.827656 7.828594 14.175312 0.00046875 14.175312 C -7.827656 14.175312 -14.175312 7.827656 -14.175312 -0.00046875 C -14.175312 -7.828594 -7.827656 -14.172344 0.00046875 -14.172344 C 7.828594 -14.172344 14.172344 -7.828594 14.172344 -0.00046875 Z M 14.172344 -0.00046875 " transform="matrix(1,0,0,-1,75.355,75.355)"/>
<path style="fill:none;stroke-width:0.3985;stroke-linecap:butt;stroke-linejoin:miter;stroke:rgb(100%,100%,100%);stroke-opacity:1;stroke-miterlimit:10;" d="M 28.348125 -0.00046875 C 28.348125 15.655781 15.656719 28.347187 0.00046875 28.347187 C -15.655781 28.347187 -28.347187 15.655781 -28.347187 -0.00046875 C -28.347187 -15.656719 -15.655781 -28.348125 0.00046875 -28.348125 C 15.656719 -28.348125 28.348125 -15.656719 28.348125 -0.00046875 Z M 28.348125 -0.00046875 " transform="matrix(1,0,0,-1,75.355,75.355)"/>
<path style="fill:none;stroke-width:0.3985;stroke-linecap:butt;stroke-linejoin:miter;stroke:rgb(100%,100%,100%);stroke-opacity:1;stroke-miterlimit:10;" d="M 42.52 -0.00046875 C 42.52 23.483906 23.484844 42.519062 0.00046875 42.519062 C -23.483906 42.519062 -42.519062 23.483906 -42.519062 -0.00046875 C -42.519062 -23.484844 -23.483906 -42.52 0.00046875 -42.52 C 23.484844 -42.52 42.52 -23.484844 42.52 -0.00046875 Z M 42.52 -0.00046875 " transform="matrix(1,0,0,-1,75.355,75.355)"/>
<path style="fill:none;stroke-width:0.3985;stroke-linecap:butt;stroke-linejoin:miter;stroke:rgb(100%,100%,100%);stroke-opacity:1;stroke-miterlimit:10;" d="M 56.691875 -0.00046875 C 56.691875 31.312031 31.312969 56.694844 0.00046875 56.694844 C -31.312031 56.694844 -56.694844 31.312031 -56.694844 -0.00046875 C -56.694844 -31.312969 -31.312031 -56.691875 0.00046875 -56.691875 C 31.312969 -56.691875 56.691875 -31.312969 56.691875 -0.00046875 Z M 56.691875 -0.00046875 " transform="matrix(1,0,0,-1,75.355,75.355)"/>
<path style="fill:none;stroke-width:0.3985;stroke-linecap:butt;stroke-linejoin:miter;stroke:rgb(0%,67.83905%,93.728638%);stroke-opacity:1;stroke-miterlimit:10;" d="M 7.086406 -12.273906 C 13.86375 -16.187969 22.535625 -13.86375 26.449688 -7.086406 C 30.359844 -0.309063 28.039531 8.358906 21.258281 12.272969 C 16.875469 14.804219 11.473125 14.804219 7.086406 12.272969 " transform="matrix(1,0,0,-1,75.355,75.355)"/>
<path style="fill-rule:nonzero;fill:rgb(100%,0%,0%);fill-opacity:1;stroke-width:0.3985;stroke-linecap:butt;stroke-linejoin:miter;stroke:rgb(100%,0%,0%);stroke-opacity:1;stroke-miterlimit:10;" d="M 15.590313 -0.00046875 C 15.590313 0.784687 14.9575 1.4175 14.172344 1.4175 C 13.391094 1.4175 12.754375 0.784687 12.754375 -0.00046875 C 12.754375 -0.781719 13.391094 -1.418438 14.172344 -1.418438 C 14.9575 -1.418438 15.590313 -0.781719 15.590313 -0.00046875 Z M 15.590313 -0.00046875 " transform="matrix(1,0,0,-1,75.355,75.355)"/>
<path style="fill:none;stroke-width:0.3985;stroke-linecap:butt;stroke-linejoin:miter;stroke:rgb(0%,67.83905%,93.728638%);stroke-opacity:1;stroke-miterlimit:10;" d="M 13.691875 -3.668438 C 21.250469 -1.641094 25.73875 6.128437 23.711406 13.690937 C 21.687969 21.249531 13.914531 25.737812 6.352031 23.714375 C 1.461406 22.401875 -2.358906 18.581562 -3.6675 13.690937 " transform="matrix(1,0,0,-1,75.355,75.355)"/>
<path style="fill-rule:nonzero;fill:rgb(100%,0%,0%);fill-opacity:1;stroke-width:0.3985;stroke-linecap:butt;stroke-linejoin:miter;stroke:rgb(100%,0%,0%);stroke-opacity:1;stroke-miterlimit:10;" d="M 11.437969 10.022969 C 11.437969 10.804219 10.805156 11.440937 10.02 11.440937 C 9.23875 11.440937 8.605938 10.804219 8.605938 10.022969 C 8.605938 9.237812 9.23875 8.605 10.02 8.605 C 10.805156 8.605 11.437969 9.237812 11.437969 10.022969 Z M 11.437969 10.022969 " transform="matrix(1,0,0,-1,75.355,75.355)"/>
<path style="fill:none;stroke-width:0.3985;stroke-linecap:butt;stroke-linejoin:miter;stroke:rgb(0%,67.83905%,93.728638%);stroke-opacity:1;stroke-miterlimit:10;" d="M 12.273906 7.085469 C 16.187969 13.866719 13.86375 22.534687 7.086406 26.44875 C 0.309063 30.362812 -8.358906 28.038594 -12.272969 21.26125 C -14.804219 16.874531 -14.804219 11.472187 -12.272969 7.085469 " transform="matrix(1,0,0,-1,75.355,75.355)"/>
<path style="fill-rule:nonzero;fill:rgb(100%,0%,0%);fill-opacity:1;stroke-width:0.3985;stroke-linecap:butt;stroke-linejoin:miter;stroke:rgb(100%,0%,0%);stroke-opacity:1;stroke-miterlimit:10;" d="M 1.418438 14.175312 C 1.418438 14.956562 0.781719 15.589375 0.00046875 15.589375 C -0.784687 15.589375 -1.4175 14.956562 -1.4175 14.175312 C -1.4175 13.390156 -0.784687 12.757344 0.00046875 12.757344 C 0.781719 12.757344 1.418438 13.390156 1.418438 14.175312 Z M 1.418438 14.175312 " transform="matrix(1,0,0,-1,75.355,75.355)"/>
<path style="fill:none;stroke-width:0.3985;stroke-linecap:butt;stroke-linejoin:miter;stroke:rgb(0%,67.83905%,93.728638%);stroke-opacity:1;stroke-miterlimit:10;" d="M 3.668438 13.690937 C 1.641094 21.249531 -6.128437 25.737812 -13.690937 23.710469 C -21.249531 21.687031 -25.737812 13.913594 -23.714375 6.355 C -22.401875 1.464375 -18.581562 -2.359844 -13.690937 -3.668438 " transform="matrix(1,0,0,-1,75.355,75.355)"/>
<path style="fill-rule:nonzero;fill:rgb(100%,0%,0%);fill-opacity:1;stroke-width:0.3985;stroke-linecap:butt;stroke-linejoin:miter;stroke:rgb(100%,0%,0%);stroke-opacity:1;stroke-miterlimit:10;" d="M -8.605 10.022969 C -8.605 10.804219 -9.237812 11.440937 -10.022969 11.440937 C -10.804219 11.440937 -11.440937 10.804219 -11.440937 10.022969 C -11.440937 9.237812 -10.804219 8.605 -10.022969 8.605 C -9.237812 8.605 -8.605 9.237812 -8.605 10.022969 Z M -8.605 10.022969 " transform="matrix(1,0,0,-1,75.355,75.355)"/>
<path style="fill:none;stroke-width:0.3985;stroke-linecap:butt;stroke-linejoin:miter;stroke:rgb(0%,67.83905%,93.728638%);stroke-opacity:1;stroke-miterlimit:10;" d="M -7.085469 12.272969 C -13.866719 16.187031 -22.534687 13.866719 -26.44875 7.085469 C -30.362812 0.308125 -28.038594 -8.359844 -21.26125 -12.273906 C -16.874531 -14.805156 -11.472187 -14.805156 -7.085469 -12.273906 " transform="matrix(1,0,0,-1,75.355,75.355)"/>
<path style="fill-rule:nonzero;fill:rgb(100%,0%,0%);fill-opacity:1;stroke-width:0.3985;stroke-linecap:butt;stroke-linejoin:miter;stroke:rgb(100%,0%,0%);stroke-opacity:1;stroke-miterlimit:10;" d="M -12.757344 -0.00046875 C -12.757344 0.784687 -13.390156 1.4175 -14.175312 1.4175 C -14.956562 1.4175 -15.589375 0.784687 -15.589375 -0.00046875 C -15.589375 -0.781719 -14.956562 -1.418438 -14.175312 -1.418438 C -13.390156 -1.418438 -12.757344 -0.781719 -12.757344 -0.00046875 Z M -12.757344 -0.00046875 " transform="matrix(1,0,0,-1,75.355,75.355)"/>
<path style="fill:none;stroke-width:0.3985;stroke-linecap:butt;stroke-linejoin:miter;stroke:rgb(0%,67.83905%,93.728638%);stroke-opacity:1;stroke-miterlimit:10;" d="M -13.690937 3.6675 C -21.249531 1.644062 -25.737812 -6.129375 -23.710469 -13.691875 C -21.687031 -21.250469 -13.913594 -25.73875 -6.355 -23.711406 C -1.464375 -22.402813 2.359844 -18.5825 3.668438 -13.691875 " transform="matrix(1,0,0,-1,75.355,75.355)"/>
<path style="fill-rule:nonzero;fill:rgb(100%,0%,0%);fill-opacity:1;stroke-width:0.3985;stroke-linecap:butt;stroke-linejoin:miter;stroke:rgb(100%,0%,0%);stroke-opacity:1;stroke-miterlimit:10;" d="M -8.605 -10.02 C -8.605 -9.23875 -9.237812 -8.605938 -10.022969 -8.605938 C -10.804219 -8.605938 -11.440937 -9.23875 -11.440937 -10.02 C -11.440937 -10.805156 -10.804219 -11.437969 -10.022969 -11.437969 C -9.237812 -11.437969 -8.605 -10.805156 -8.605 -10.02 Z M -8.605 -10.02 " transform="matrix(1,0,0,-1,75.355,75.355)"/>
<path style="fill:none;stroke-width:0.3985;stroke-linecap:butt;stroke-linejoin:miter;stroke:rgb(0%,67.83905%,93.728638%);stroke-opacity:1;stroke-miterlimit:10;" d="M -12.272969 -7.086406 C -16.187031 -13.86375 -13.866719 -22.535625 -7.085469 -26.449688 C -0.308125 -30.359844 8.359844 -28.039531 12.273906 -21.258281 C 14.805156 -16.875469 14.805156 -11.473125 12.273906 -7.086406 " transform="matrix(1,0,0,-1,75.355,75.355)"/>
<path style="fill-rule:nonzero;fill:rgb(100%,0%,0%);fill-opacity:1;stroke-width:0.3985;stroke-linecap:butt;stroke-linejoin:miter;stroke:rgb(100%,0%,0%);stroke-opacity:1;stroke-miterlimit:10;" d="M 1.418438 -14.172344 C 1.418438 -13.391094 0.781719 -12.754375 0.00046875 -12.754375 C -0.784687 -12.754375 -1.4175 -13.391094 -1.4175 -14.172344 C -1.4175 -14.9575 -0.784687 -15.590313 0.00046875 -15.590313 C 0.781719 -15.590313 1.418438 -14.9575 1.418438 -14.172344 Z M 1.418438 -14.172344 " transform="matrix(1,0,0,-1,75.355,75.355)"/>
<path style="fill:none;stroke-width:0.3985;stroke-linecap:butt;stroke-linejoin:miter;stroke:rgb(0%,67.83905%,93.728638%);stroke-opacity:1;stroke-miterlimit:10;" d="M -3.6675 -13.691875 C -1.644062 -21.250469 6.129375 -25.73875 13.691875 -23.711406 C 21.250469 -21.687969 25.73875 -13.914531 23.711406 -6.352031 C 22.402813 -1.461406 18.5825 2.358906 13.691875 3.6675 " transform="matrix(1,0,0,-1,75.355,75.355)"/>
<path style="fill-rule:nonzero;fill:rgb(100%,0%,0%);fill-opacity:1;stroke-width:0.3985;stroke-linecap:butt;stroke-linejoin:miter;stroke:rgb(100%,0%,0%);stroke-opacity:1;stroke-miterlimit:10;" d="M 11.437969 -10.02 C 11.437969 -9.23875 10.805156 -8.605938 10.02 -8.605938 C 9.23875 -8.605938 8.605938 -9.23875 8.605938 -10.02 C 8.605938 -10.805156 9.23875 -11.437969 10.02 -11.437969 C 10.805156 -11.437969 11.437969 -10.805156 11.437969 -10.02 Z M 11.437969 -10.02 " transform="matrix(1,0,0,-1,75.355,75.355)"/>
<path style="fill:none;stroke-width:0.3985;stroke-linecap:butt;stroke-linejoin:miter;stroke:rgb(0%,67.83905%,93.728638%);stroke-opacity:1;stroke-miterlimit:10;" d="M 40.059063 -13.9575 C 47.766094 -15.316875 55.117656 -10.168438 56.477031 -2.461406 C 57.355938 2.526875 55.508281 7.605 51.629375 10.858906 C 48.422344 13.550312 44.184063 14.687031 40.059063 13.956562 " transform="matrix(1,0,0,-1,75.355,75.355)"/>
<path style="fill-rule:nonzero;fill:rgb(100%,0%,0%);fill-opacity:1;stroke-width:0.3985;stroke-linecap:butt;stroke-linejoin:miter;stroke:rgb(100%,0%,0%);stroke-opacity:1;stroke-miterlimit:10;" d="M 43.937969 -0.00046875 C 43.937969 0.784687 43.30125 1.4175 42.52 1.4175 C 41.73875 1.4175 41.102031 0.784687 41.102031 -0.00046875 C 41.102031 -0.781719 41.73875 -1.418438 42.52 -1.418438 C 43.30125 -1.418438 43.937969 -0.781719 43.937969 -0.00046875 Z M 43.937969 -0.00046875 " transform="matrix(1,0,0,-1,75.355,75.355)"/>
<path style="fill:none;stroke-width:0.3985;stroke-linecap:butt;stroke-linejoin:miter;stroke:rgb(0%,67.83905%,93.728638%);stroke-opacity:1;stroke-miterlimit:10;" d="M 42.418438 0.585469 C 50.125469 1.944844 55.273906 9.296406 53.914531 17.003437 C 53.035625 21.991719 49.562969 26.128437 44.805156 27.862812 C 40.867656 29.2925 36.496563 28.913594 32.867656 26.815937 " transform="matrix(1,0,0,-1,75.355,75.355)"/>
<path style="fill-rule:nonzero;fill:rgb(100%,0%,0%);fill-opacity:1;stroke-width:0.3985;stroke-linecap:butt;stroke-linejoin:miter;stroke:rgb(100%,0%,0%);stroke-opacity:1;stroke-miterlimit:10;" d="M 41.375469 14.5425 C 41.375469 15.32375 40.73875 15.960469 39.9575 15.960469 C 39.172344 15.960469 38.539531 15.32375 38.539531 14.5425 C 38.539531 13.76125 39.172344 13.124531 39.9575 13.124531 C 40.73875 13.124531 41.375469 13.76125 41.375469 14.5425 Z M 41.375469 14.5425 " transform="matrix(1,0,0,-1,75.355,75.355)"/>
<path style="fill:none;stroke-width:0.3985;stroke-linecap:butt;stroke-linejoin:miter;stroke:rgb(0%,67.83905%,93.728638%);stroke-opacity:1;stroke-miterlimit:10;" d="M 39.656719 15.058125 C 46.437969 18.972187 48.758281 27.640156 44.848125 34.4175 C 42.316875 38.804219 37.633281 41.503437 32.570781 41.503437 C 28.383281 41.503437 24.406719 39.651875 21.715313 36.440937 " transform="matrix(1,0,0,-1,75.355,75.355)"/>
<path style="fill-rule:nonzero;fill:rgb(100%,0%,0%);fill-opacity:1;stroke-width:0.3985;stroke-linecap:butt;stroke-linejoin:miter;stroke:rgb(100%,0%,0%);stroke-opacity:1;stroke-miterlimit:10;" d="M 33.98875 27.331562 C 33.98875 28.112812 33.355938 28.749531 32.570781 28.749531 C 31.789531 28.749531 31.152813 28.112812 31.152813 27.331562 C 31.152813 26.550312 31.789531 25.913594 32.570781 25.913594 C 33.355938 25.913594 33.98875 26.550312 33.98875 27.331562 Z M 33.98875 27.331562 " transform="matrix(1,0,0,-1,75.355,75.355)"/>
<path style="fill:none;stroke-width:0.3985;stroke-linecap:butt;stroke-linejoin:miter;stroke:rgb(0%,67.83905%,93.728638%);stroke-opacity:1;stroke-miterlimit:10;" d="M 32.117656 27.714375 C 37.148906 33.710469 36.367656 42.647969 30.371563 47.679219 C 26.492656 50.937031 21.168438 51.874531 16.410625 50.144062 C 12.477031 48.710469 9.375469 45.608906 7.941875 41.671406 " transform="matrix(1,0,0,-1,75.355,75.355)"/>
<path style="fill-rule:nonzero;fill:rgb(100%,0%,0%);fill-opacity:1;stroke-width:0.3985;stroke-linecap:butt;stroke-linejoin:miter;stroke:rgb(100%,0%,0%);stroke-opacity:1;stroke-miterlimit:10;" d="M 22.67625 36.82375 C 22.67625 37.605 22.043438 38.241719 21.258281 38.241719 C 20.477031 38.241719 19.844219 37.605 19.844219 36.82375 C 19.844219 36.0425 20.477031 35.405781 21.258281 35.405781 C 22.043438 35.405781 22.67625 36.0425 22.67625 36.82375 Z M 22.67625 36.82375 " transform="matrix(1,0,0,-1,75.355,75.355)"/>
<path style="fill:none;stroke-width:0.3985;stroke-linecap:butt;stroke-linejoin:miter;stroke:rgb(0%,67.83905%,93.728638%);stroke-opacity:1;stroke-miterlimit:10;" d="M 20.703594 37.026875 C 23.379375 44.382344 19.586406 52.515156 12.230938 55.194844 C 7.473125 56.925312 2.152813 55.987812 -1.726094 52.733906 C -4.937031 50.038594 -6.788594 46.062031 -6.788594 41.874531 " transform="matrix(1,0,0,-1,75.355,75.355)"/>
<path style="fill-rule:nonzero;fill:rgb(100%,0%,0%);fill-opacity:1;stroke-width:0.3985;stroke-linecap:butt;stroke-linejoin:miter;stroke:rgb(100%,0%,0%);stroke-opacity:1;stroke-miterlimit:10;" d="M 8.80125 41.874531 C 8.80125 42.655781 8.164531 43.2925 7.383281 43.2925 C 6.602031 43.2925 5.965313 42.655781 5.965313 41.874531 C 5.965313 41.093281 6.602031 40.456562 7.383281 40.456562 C 8.164531 40.456562 8.80125 41.093281 8.80125 41.874531 Z M 8.80125 41.874531 " transform="matrix(1,0,0,-1,75.355,75.355)"/>
<path style="fill:none;stroke-width:0.3985;stroke-linecap:butt;stroke-linejoin:miter;stroke:rgb(0%,67.83905%,93.728638%);stroke-opacity:1;stroke-miterlimit:10;" d="M 6.789531 41.874531 C 6.789531 49.702656 0.445781 56.046406 -7.382344 56.046406 C -12.444844 56.046406 -17.128437 53.347187 -19.659687 48.960469 C -21.753437 45.331562 -22.13625 40.964375 -20.702656 37.026875 " transform="matrix(1,0,0,-1,75.355,75.355)"/>
<path style="fill-rule:nonzero;fill:rgb(100%,0%,0%);fill-opacity:1;stroke-width:0.3985;stroke-linecap:butt;stroke-linejoin:miter;stroke:rgb(100%,0%,0%);stroke-opacity:1;stroke-miterlimit:10;" d="M -5.964375 41.874531 C -5.964375 42.655781 -6.601094 43.2925 -7.382344 43.2925 C -8.1675 43.2925 -8.800312 42.655781 -8.800312 41.874531 C -8.800312 41.093281 -8.1675 40.456562 -7.382344 40.456562 C -6.601094 40.456562 -5.964375 41.093281 -5.964375 41.874531 Z M -5.964375 41.874531 " transform="matrix(1,0,0,-1,75.355,75.355)"/>
<path style="fill:none;stroke-width:0.3985;stroke-linecap:butt;stroke-linejoin:miter;stroke:rgb(0%,67.83905%,93.728638%);stroke-opacity:1;stroke-miterlimit:10;" d="M -7.940937 41.671406 C -10.616719 49.026875 -18.753437 52.819844 -26.108906 50.144062 C -30.866719 48.409687 -34.339375 44.269062 -35.218281 39.284687 C -35.944844 35.159687 -34.808125 30.921406 -32.116719 27.714375 " transform="matrix(1,0,0,-1,75.355,75.355)"/>
<path style="fill-rule:nonzero;fill:rgb(100%,0%,0%);fill-opacity:1;stroke-width:0.3985;stroke-linecap:butt;stroke-linejoin:miter;stroke:rgb(100%,0%,0%);stroke-opacity:1;stroke-miterlimit:10;" d="M -19.843281 36.82375 C -19.843281 37.605 -20.476094 38.241719 -21.26125 38.241719 C -22.0425 38.241719 -22.679219 37.605 -22.679219 36.82375 C -22.679219 36.0425 -22.0425 35.405781 -21.26125 35.405781 C -20.476094 35.405781 -19.843281 36.0425 -19.843281 36.82375 Z M -19.843281 36.82375 " transform="matrix(1,0,0,-1,75.355,75.355)"/>
<path style="fill:none;stroke-width:0.3985;stroke-linecap:butt;stroke-linejoin:miter;stroke:rgb(0%,67.83905%,93.728638%);stroke-opacity:1;stroke-miterlimit:10;" d="M -21.714375 36.440937 C -26.745625 42.437031 -35.687031 43.222187 -41.683125 38.190937 C -45.562031 34.933125 -47.409687 29.855 -46.530781 24.870625 C -45.804219 20.745625 -43.284687 17.151875 -39.659687 15.058125 " transform="matrix(1,0,0,-1,75.355,75.355)"/>
<path style="fill-rule:nonzero;fill:rgb(100%,0%,0%);fill-opacity:1;stroke-width:0.3985;stroke-linecap:butt;stroke-linejoin:miter;stroke:rgb(100%,0%,0%);stroke-opacity:1;stroke-miterlimit:10;" d="M -31.155781 27.331562 C -31.155781 28.112812 -31.788594 28.749531 -32.57375 28.749531 C -33.355 28.749531 -33.987812 28.112812 -33.987812 27.331562 C -33.987812 26.550312 -33.355 25.913594 -32.57375 25.913594 C -31.788594 25.913594 -31.155781 26.550312 -31.155781 27.331562 Z M -31.155781 27.331562 " transform="matrix(1,0,0,-1,75.355,75.355)"/>
<path style="fill:none;stroke-width:0.3985;stroke-linecap:butt;stroke-linejoin:miter;stroke:rgb(0%,67.83905%,93.728638%);stroke-opacity:1;stroke-miterlimit:10;" d="M -32.870625 26.815937 C -39.647969 30.73 -48.315937 28.409687 -52.23 21.628437 C -54.76125 17.245625 -54.76125 11.839375 -52.23 7.456562 C -50.13625 3.827656 -46.5425 1.312031 -42.4175 0.585469 " transform="matrix(1,0,0,-1,75.355,75.355)"/>
<path style="fill-rule:nonzero;fill:rgb(100%,0%,0%);fill-opacity:1;stroke-width:0.3985;stroke-linecap:butt;stroke-linejoin:miter;stroke:rgb(100%,0%,0%);stroke-opacity:1;stroke-miterlimit:10;" d="M -38.538594 14.5425 C -38.538594 15.32375 -39.171406 15.960469 -39.956562 15.960469 C -40.737812 15.960469 -41.374531 15.32375 -41.374531 14.5425 C -41.374531 13.76125 -40.737812 13.124531 -39.956562 13.124531 C -39.171406 13.124531 -38.538594 13.76125 -38.538594 14.5425 Z M -38.538594 14.5425 " transform="matrix(1,0,0,-1,75.355,75.355)"/>
<path style="fill:none;stroke-width:0.3985;stroke-linecap:butt;stroke-linejoin:miter;stroke:rgb(0%,67.83905%,93.728638%);stroke-opacity:1;stroke-miterlimit:10;" d="M -40.058125 13.956562 C -47.769062 15.315937 -55.120625 10.171406 -56.48 2.460469 C -57.358906 -2.523906 -55.507344 -7.602031 -51.632344 -10.855938 C -48.421406 -13.55125 -44.183125 -14.684063 -40.058125 -13.9575 " transform="matrix(1,0,0,-1,75.355,75.355)"/>
<path style="fill-rule:nonzero;fill:rgb(100%,0%,0%);fill-opacity:1;stroke-width:0.3985;stroke-linecap:butt;stroke-linejoin:miter;stroke:rgb(100%,0%,0%);stroke-opacity:1;stroke-miterlimit:10;" d="M -41.101094 -0.00046875 C -41.101094 0.784687 -41.737812 1.4175 -42.519062 1.4175 C -43.304219 1.4175 -43.937031 0.784687 -43.937031 -0.00046875 C -43.937031 -0.781719 -43.304219 -1.418438 -42.519062 -1.418438 C -41.737812 -1.418438 -41.101094 -0.781719 -41.101094 -0.00046875 Z M -41.101094 -0.00046875 " transform="matrix(1,0,0,-1,75.355,75.355)"/>
<path style="fill:none;stroke-width:0.3985;stroke-linecap:butt;stroke-linejoin:miter;stroke:rgb(0%,67.83905%,93.728638%);stroke-opacity:1;stroke-miterlimit:10;" d="M -42.4175 -0.586406 C -50.124531 -1.945781 -55.272969 -9.293438 -53.913594 -17.004375 C -53.034687 -21.98875 -49.562031 -26.129375 -44.804219 -27.859844 C -40.866719 -29.293438 -36.495625 -28.910625 -32.870625 -26.816875 " transform="matrix(1,0,0,-1,75.355,75.355)"/>
<path style="fill-rule:nonzero;fill:rgb(100%,0%,0%);fill-opacity:1;stroke-width:0.3985;stroke-linecap:butt;stroke-linejoin:miter;stroke:rgb(100%,0%,0%);stroke-opacity:1;stroke-miterlimit:10;" d="M -38.538594 -14.543438 C -38.538594 -13.758281 -39.171406 -13.125469 -39.956562 -13.125469 C -40.737812 -13.125469 -41.374531 -13.758281 -41.374531 -14.543438 C -41.374531 -15.324688 -40.737812 -15.961406 -39.956562 -15.961406 C -39.171406 -15.961406 -38.538594 -15.324688 -38.538594 -14.543438 Z M -38.538594 -14.543438 " transform="matrix(1,0,0,-1,75.355,75.355)"/>
<path style="fill:none;stroke-width:0.3985;stroke-linecap:butt;stroke-linejoin:miter;stroke:rgb(0%,67.83905%,93.728638%);stroke-opacity:1;stroke-miterlimit:10;" d="M -39.659687 -15.055156 C -46.437031 -18.969219 -48.76125 -27.641094 -44.847187 -34.418438 C -42.315937 -38.80125 -37.63625 -41.504375 -32.57375 -41.504375 C -28.382344 -41.504375 -24.405781 -39.652813 -21.714375 -36.441875 " transform="matrix(1,0,0,-1,75.355,75.355)"/>
<path style="fill-rule:nonzero;fill:rgb(100%,0%,0%);fill-opacity:1;stroke-width:0.3985;stroke-linecap:butt;stroke-linejoin:miter;stroke:rgb(100%,0%,0%);stroke-opacity:1;stroke-miterlimit:10;" d="M -31.155781 -27.3325 C -31.155781 -26.547344 -31.788594 -25.914531 -32.57375 -25.914531 C -33.355 -25.914531 -33.987812 -26.547344 -33.987812 -27.3325 C -33.987812 -28.11375 -33.355 -28.750469 -32.57375 -28.750469 C -31.788594 -28.750469 -31.155781 -28.11375 -31.155781 -27.3325 Z M -31.155781 -27.3325 " transform="matrix(1,0,0,-1,75.355,75.355)"/>
<path style="fill:none;stroke-width:0.3985;stroke-linecap:butt;stroke-linejoin:miter;stroke:rgb(0%,67.83905%,93.728638%);stroke-opacity:1;stroke-miterlimit:10;" d="M -32.116719 -27.711406 C -37.147969 -33.7075 -36.366719 -42.648906 -30.370625 -47.680156 C -26.491719 -50.934063 -21.171406 -51.875469 -16.413594 -50.141094 C -12.476094 -48.711406 -9.374531 -45.605938 -7.940937 -41.672344 " transform="matrix(1,0,0,-1,75.355,75.355)"/>
<path style="fill-rule:nonzero;fill:rgb(100%,0%,0%);fill-opacity:1;stroke-width:0.3985;stroke-linecap:butt;stroke-linejoin:miter;stroke:rgb(100%,0%,0%);stroke-opacity:1;stroke-miterlimit:10;" d="M -19.843281 -36.824688 C -19.843281 -36.039531 -20.476094 -35.406719 -21.26125 -35.406719 C -22.0425 -35.406719 -22.679219 -36.039531 -22.679219 -36.824688 C -22.679219 -37.605938 -22.0425 -38.242656 -21.26125 -38.242656 C -20.476094 -38.242656 -19.843281 -37.605938 -19.843281 -36.824688 Z M -19.843281 -36.824688 " transform="matrix(1,0,0,-1,75.355,75.355)"/>
<path style="fill:none;stroke-width:0.3985;stroke-linecap:butt;stroke-linejoin:miter;stroke:rgb(0%,67.83905%,93.728638%);stroke-opacity:1;stroke-miterlimit:10;" d="M -20.702656 -37.027813 C -23.378437 -44.383281 -19.585469 -52.516094 -12.23 -55.191875 C -7.472187 -56.92625 -2.151875 -55.984844 1.727031 -52.730938 C 4.937969 -50.039531 6.789531 -46.062969 6.789531 -41.875469 " transform="matrix(1,0,0,-1,75.355,75.355)"/>
<path style="fill-rule:nonzero;fill:rgb(100%,0%,0%);fill-opacity:1;stroke-width:0.3985;stroke-linecap:butt;stroke-linejoin:miter;stroke:rgb(100%,0%,0%);stroke-opacity:1;stroke-miterlimit:10;" d="M -5.964375 -41.875469 C -5.964375 -41.090313 -6.601094 -40.4575 -7.382344 -40.4575 C -8.1675 -40.4575 -8.800312 -41.090313 -8.800312 -41.875469 C -8.800312 -42.656719 -8.1675 -43.293438 -7.382344 -43.293438 C -6.601094 -43.293438 -5.964375 -42.656719 -5.964375 -41.875469 Z M -5.964375 -41.875469 " transform="matrix(1,0,0,-1,75.355,75.355)"/>
<path style="fill:none;stroke-width:0.3985;stroke-linecap:butt;stroke-linejoin:miter;stroke:rgb(0%,67.83905%,93.728638%);stroke-opacity:1;stroke-miterlimit:10;" d="M -6.788594 -41.875469 C -6.788594 -49.703594 -0.444844 -56.047344 7.383281 -56.047344 C 12.445781 -56.047344 17.125469 -53.344219 19.656719 -48.961406 C 21.754375 -45.3325 22.133281 -40.961406 20.703594 -37.027813 " transform="matrix(1,0,0,-1,75.355,75.355)"/>
<path style="fill-rule:nonzero;fill:rgb(100%,0%,0%);fill-opacity:1;stroke-width:0.3985;stroke-linecap:butt;stroke-linejoin:miter;stroke:rgb(100%,0%,0%);stroke-opacity:1;stroke-miterlimit:10;" d="M 8.80125 -41.875469 C 8.80125 -41.090313 8.164531 -40.4575 7.383281 -40.4575 C 6.602031 -40.4575 5.965313 -41.090313 5.965313 -41.875469 C 5.965313 -42.656719 6.602031 -43.293438 7.383281 -43.293438 C 8.164531 -43.293438 8.80125 -42.656719 8.80125 -41.875469 Z M 8.80125 -41.875469 " transform="matrix(1,0,0,-1,75.355,75.355)"/>
<path style="fill:none;stroke-width:0.3985;stroke-linecap:butt;stroke-linejoin:miter;stroke:rgb(0%,67.83905%,93.728638%);stroke-opacity:1;stroke-miterlimit:10;" d="M 7.941875 -41.672344 C 10.617656 -49.027813 18.750469 -52.820781 26.105938 -50.141094 C 30.86375 -48.410625 34.340313 -44.27 35.219219 -39.285625 C 35.945781 -35.160625 34.809063 -30.922344 32.117656 -27.711406 " transform="matrix(1,0,0,-1,75.355,75.355)"/>
<path style="fill-rule:nonzero;fill:rgb(100%,0%,0%);fill-opacity:1;stroke-width:0.3985;stroke-linecap:butt;stroke-linejoin:miter;stroke:rgb(100%,0%,0%);stroke-opacity:1;stroke-miterlimit:10;" d="M 22.67625 -36.824688 C 22.67625 -36.039531 22.043438 -35.406719 21.258281 -35.406719 C 20.477031 -35.406719 19.844219 -36.039531 19.844219 -36.824688 C 19.844219 -37.605938 20.477031 -38.242656 21.258281 -38.242656 C 22.043438 -38.242656 22.67625 -37.605938 22.67625 -36.824688 Z M 22.67625 -36.824688 " transform="matrix(1,0,0,-1,75.355,75.355)"/>
<path style="fill:none;stroke-width:0.3985;stroke-linecap:butt;stroke-linejoin:miter;stroke:rgb(0%,67.83905%,93.728638%);stroke-opacity:1;stroke-miterlimit:10;" d="M 21.715313 -36.441875 C 26.746563 -42.437969 35.687969 -43.219219 41.684063 -38.187969 C 45.559063 -34.934063 47.410625 -29.855938 46.531719 -24.871563 C 45.80125 -20.746563 43.285625 -17.152813 39.660625 -15.055156 " transform="matrix(1,0,0,-1,75.355,75.355)"/>
<path style="fill-rule:nonzero;fill:rgb(100%,0%,0%);fill-opacity:1;stroke-width:0.3985;stroke-linecap:butt;stroke-linejoin:miter;stroke:rgb(100%,0%,0%);stroke-opacity:1;stroke-miterlimit:10;" d="M 33.98875 -27.3325 C 33.98875 -26.547344 33.355938 -25.914531 32.570781 -25.914531 C 31.789531 -25.914531 31.152813 -26.547344 31.152813 -27.3325 C 31.152813 -28.11375 31.789531 -28.750469 32.570781 -28.750469 C 33.355938 -28.750469 33.98875 -28.11375 33.98875 -27.3325 Z M 33.98875 -27.3325 " transform="matrix(1,0,0,-1,75.355,75.355)"/>
<path style="fill:none;stroke-width:0.3985;stroke-linecap:butt;stroke-linejoin:miter;stroke:rgb(0%,67.83905%,93.728638%);stroke-opacity:1;stroke-miterlimit:10;" d="M 32.867656 -26.816875 C 39.648906 -30.730938 48.316875 -28.406719 52.230938 -21.629375 C 54.762188 -17.246563 54.762188 -11.840313 52.230938 -7.4575 C 50.137188 -3.828594 46.543438 -1.312969 42.418438 -0.586406 " transform="matrix(1,0,0,-1,75.355,75.355)"/>
<path style="fill-rule:nonzero;fill:rgb(100%,0%,0%);fill-opacity:1;stroke-width:0.3985;stroke-linecap:butt;stroke-linejoin:miter;stroke:rgb(100%,0%,0%);stroke-opacity:1;stroke-miterlimit:10;" d="M 41.375469 -14.543438 C 41.375469 -13.758281 40.73875 -13.125469 39.9575 -13.125469 C 39.172344 -13.125469 38.539531 -13.758281 38.539531 -14.543438 C 38.539531 -15.324688 39.172344 -15.961406 39.9575 -15.961406 C 40.73875 -15.961406 41.375469 -15.324688 41.375469 -14.543438 Z M 41.375469 -14.543438 " transform="matrix(1,0,0,-1,75.355,75.355)"/>
<path style="fill:none;stroke-width:0.3985;stroke-linecap:butt;stroke-linejoin:miter;stroke:rgb(100%,100%,100%);stroke-opacity:1;stroke-miterlimit:10;" d="M 56.691875 -0.00046875 L 67.281719 -0.00046875 " transform="matrix(1,0,0,-1,75.355,75.355)"/>
<path style=" stroke:none;fill-rule:nonzero;fill:rgb(100%,100%,100%);fill-opacity:1;" d="M 146.222656 75.355469 C 145.160156 75.15625 143.433594 74.558594 142.238281 73.859375 L 142.238281 76.847656 C 143.433594 76.152344 145.160156 75.554688 146.222656 75.355469 "/>
<path style="fill:none;stroke-width:0.3985;stroke-linecap:butt;stroke-linejoin:miter;stroke:rgb(100%,100%,100%);stroke-opacity:1;stroke-miterlimit:10;" d="M 40.090313 40.089375 L 47.574688 47.57375 " transform="matrix(1,0,0,-1,75.355,75.355)"/>
<path style=" stroke:none;fill-rule:nonzero;fill:rgb(100%,100%,100%);fill-opacity:1;" d="M 125.464844 25.246094 C 124.574219 25.855469 122.929688 26.652344 121.589844 27.003906 L 123.703125 29.121094 C 124.054688 27.78125 124.855469 26.136719 125.464844 25.246094 "/>
<path style="fill:none;stroke-width:0.3985;stroke-linecap:butt;stroke-linejoin:miter;stroke:rgb(100%,100%,100%);stroke-opacity:1;stroke-miterlimit:10;" d="M 0.00046875 56.694844 L 0.00046875 67.280781 " transform="matrix(1,0,0,-1,75.355,75.355)"/>
<path style=" stroke:none;fill-rule:nonzero;fill:rgb(100%,100%,100%);fill-opacity:1;" d="M 75.355469 4.488281 C 75.15625 5.550781 74.558594 7.277344 73.859375 8.472656 L 76.847656 8.472656 C 76.152344 7.277344 75.554688 5.550781 75.355469 4.488281 "/>
<path style="fill:none;stroke-width:0.3985;stroke-linecap:butt;stroke-linejoin:miter;stroke:rgb(100%,100%,100%);stroke-opacity:1;stroke-miterlimit:10;" d="M -40.089375 40.089375 L -47.57375 47.57375 " transform="matrix(1,0,0,-1,75.355,75.355)"/>
<path style=" stroke:none;fill-rule:nonzero;fill:rgb(100%,100%,100%);fill-opacity:1;" d="M 25.246094 25.246094 C 25.855469 26.136719 26.652344 27.78125 27.003906 29.121094 L 29.121094 27.003906 C 27.78125 26.652344 26.136719 25.855469 25.246094 25.246094 "/>
<path style="fill:none;stroke-width:0.3985;stroke-linecap:butt;stroke-linejoin:miter;stroke:rgb(100%,100%,100%);stroke-opacity:1;stroke-miterlimit:10;" d="M -56.694844 -0.00046875 L -67.280781 -0.00046875 " transform="matrix(1,0,0,-1,75.355,75.355)"/>
<path style=" stroke:none;fill-rule:nonzero;fill:rgb(100%,100%,100%);fill-opacity:1;" d="M 4.488281 75.355469 C 5.550781 75.554688 7.277344 76.152344 8.472656 76.847656 L 8.472656 73.859375 C 7.277344 74.558594 5.550781 75.15625 4.488281 75.355469 "/>
<path style="fill:none;stroke-width:0.3985;stroke-linecap:butt;stroke-linejoin:miter;stroke:rgb(100%,100%,100%);stroke-opacity:1;stroke-miterlimit:10;" d="M -40.089375 -40.090313 L -47.57375 -47.574688 " transform="matrix(1,0,0,-1,75.355,75.355)"/>
<path style=" stroke:none;fill-rule:nonzero;fill:rgb(100%,100%,100%);fill-opacity:1;" d="M 25.246094 125.464844 C 26.136719 124.855469 27.78125 124.054688 29.121094 123.703125 L 27.003906 121.589844 C 26.652344 122.929688 25.855469 124.574219 25.246094 125.464844 "/>
<path style="fill:none;stroke-width:0.3985;stroke-linecap:butt;stroke-linejoin:miter;stroke:rgb(100%,100%,100%);stroke-opacity:1;stroke-miterlimit:10;" d="M 0.00046875 -56.691875 L 0.00046875 -67.281719 " transform="matrix(1,0,0,-1,75.355,75.355)"/>
<path style=" stroke:none;fill-rule:nonzero;fill:rgb(100%,100%,100%);fill-opacity:1;" d="M 75.355469 146.222656 C 75.554688 145.160156 76.152344 143.433594 76.847656 142.238281 L 73.859375 142.238281 C 74.558594 143.433594 75.15625 145.160156 75.355469 146.222656 "/>
<path style="fill:none;stroke-width:0.3985;stroke-linecap:butt;stroke-linejoin:miter;stroke:rgb(100%,100%,100%);stroke-opacity:1;stroke-miterlimit:10;" d="M 40.090313 -40.090313 L 47.574688 -47.574688 " transform="matrix(1,0,0,-1,75.355,75.355)"/>
<path style=" stroke:none;fill-rule:nonzero;fill:rgb(100%,100%,100%);fill-opacity:1;" d="M 125.464844 125.464844 C 124.855469 124.574219 124.054688 122.929688 123.703125 121.589844 L 121.589844 123.703125 C 122.929688 124.054688 124.574219 124.855469 125.464844 125.464844 "/>
<path style="fill-rule:nonzero;fill:rgb(100%,0%,0%);fill-opacity:1;stroke-width:0.3985;stroke-linecap:butt;stroke-linejoin:miter;stroke:rgb(100%,0%,0%);stroke-opacity:1;stroke-miterlimit:10;" d="M 1.418438 -0.00046875 C 1.418438 0.784687 0.781719 1.4175 0.00046875 1.4175 C -0.784687 1.4175 -1.4175 0.784687 -1.4175 -0.00046875 C -1.4175 -0.781719 -0.784687 -1.418438 0.00046875 -1.418438 C 0.781719 -1.418438 1.418438 -0.781719 1.418438 -0.00046875 Z M 1.418438 -0.00046875 " transform="matrix(1,0,0,-1,75.355,75.355)"/>
</g>
</svg>
