<?xml version="1.0" encoding="UTF-8"?>
<svg xmlns="http://www.w3.org/2000/svg" xmlns:xlink="http://www.w3.org/1999/xlink" width="142.131pt" height="142.131pt" viewBox="0 0 142.131 142.131" version="1.1">
<g id="surface1">
<path style="fill:none;stroke-width:0.3985;stroke-linecap:butt;stroke-linejoin:miter;stroke:rgb(0%,0%,0%);stroke-opacity:1;stroke-miterlimit:10;" d="M 14.173281 -0.00040625 C 14.173281 7.827719 7.829531 14.171469 0.00140625 14.171469 C -7.826719 14.171469 -14.174375 7.827719 -14.174375 -0.00040625 C -14.174375 -7.828531 -7.826719 -14.172281 0.00140625 -14.172281 C 7.829531 -14.172281 14.173281 -7.828531 14.173281 -0.00040625 Z M 14.173281 -0.00040625 " transform="matrix(1,0,0,-1,71.065,71.066)"/>
<path style="fill:none;stroke-width:0.3985;stroke-linecap:butt;stroke-linejoin:miter;stroke:rgb(0%,0%,0%);stroke-opacity:1;stroke-miterlimit:10;" d="M 28.345156 -0.00040625 C 28.345156 15.655844 15.65375 28.34725 0.00140625 28.34725 C -15.654844 28.34725 -28.34625 15.655844 -28.34625 -0.00040625 C -28.34625 -15.656656 -15.654844 -28.348062 0.00140625 -28.348062 C 15.65375 -28.348062 28.345156 -15.656656 28.345156 -0.00040625 Z M 28.345156 -0.00040625 " transform="matrix(1,0,0,-1,71.065,71.066)"/>
<path style="fill:none;stroke-width:0.3985;stroke-linecap:butt;stroke-linejoin:miter;stroke:rgb(0%,0%,0%);stroke-opacity:1;stroke-miterlimit:10;" d="M 42.520938 -0.00040625 C 42.520938 23.483969 23.481875 42.519125 0.00140625 42.519125 C -23.482969 42.519125 -42.522031 23.483969 -42.522031 -0.00040625 C -42.522031 -23.484781 -23.482969 -42.519937 0.00140625 -42.519937 C 23.481875 -42.519937 42.520938 -23.484781 42.520938 -0.00040625 Z M 42.520938 -0.00040625 " transform="matrix(1,0,0,-1,71.065,71.066)"/>
<path style="fill:none;stroke-width:0.3985;stroke-linecap:butt;stroke-linejoin:miter;stroke:rgb(0%,0%,0%);stroke-opacity:1;stroke-miterlimit:10;" d="M 56.692813 -0.00040625 C 56.692813 31.312094 31.31 56.694906 0.00140625 56.694906 C -31.311094 56.694906 -56.693906 31.312094 -56.693906 -0.00040625 C -56.693906 -31.312906 -31.311094 -56.691812 0.00140625 -56.691812 C 31.31 -56.691812 56.692813 -31.312906 56.692813 -0.00040625 Z M 56.692813 -0.00040625 " transform="matrix(1,0,0,-1,71.065,71.066)"/>
<path style="fill:none;stroke-width:0.3985;stroke-linecap:butt;stroke-linejoin:miter;stroke:rgb(0%,67.83905%,93.728638%);stroke-opacity:1;stroke-miterlimit:10;" d="M 7.087344 -12.273844 C 13.864688 -16.187906 22.532656 -13.863687 26.446719 -7.086344 C 30.360781 -0.309 28.040469 8.358969 21.259219 12.273031 C 16.876406 14.804281 11.470156 14.804281 7.087344 12.273031 " transform="matrix(1,0,0,-1,71.065,71.066)"/>
<path style="fill-rule:nonzero;fill:rgb(100%,0%,0%);fill-opacity:1;stroke-width:0.3985;stroke-linecap:butt;stroke-linejoin:miter;stroke:rgb(100%,0%,0%);stroke-opacity:1;stroke-miterlimit:10;" d="M 15.59125 -0.00040625 C 15.59125 0.78475 14.954531 1.417563 14.173281 1.417563 C 13.392031 1.417563 12.755313 0.78475 12.755313 -0.00040625 C 12.755313 -0.781656 13.392031 -1.418375 14.173281 -1.418375 C 14.954531 -1.418375 15.59125 -0.781656 15.59125 -0.00040625 Z M 15.59125 -0.00040625 " transform="matrix(1,0,0,-1,71.065,71.066)"/>
<path style="fill:none;stroke-width:0.3985;stroke-linecap:butt;stroke-linejoin:miter;stroke:rgb(0%,67.83905%,93.728638%);stroke-opacity:1;stroke-miterlimit:10;" d="M 13.688906 -3.668375 C 21.251406 -1.641031 25.739688 6.1285 23.712344 13.691 C 21.685 21.249594 13.915469 25.737875 6.352969 23.714438 C 1.462344 22.401938 -2.357969 18.581625 -3.670469 13.691 " transform="matrix(1,0,0,-1,71.065,71.066)"/>
<path style="fill-rule:nonzero;fill:rgb(100%,0%,0%);fill-opacity:1;stroke-width:0.3985;stroke-linecap:butt;stroke-linejoin:miter;stroke:rgb(100%,0%,0%);stroke-opacity:1;stroke-miterlimit:10;" d="M 11.438906 10.023031 C 11.438906 10.804281 10.806094 11.441 10.020938 11.441 C 9.239688 11.441 8.602969 10.804281 8.602969 10.023031 C 8.602969 9.237875 9.239688 8.605063 10.020938 8.605063 C 10.806094 8.605063 11.438906 9.237875 11.438906 10.023031 Z M 11.438906 10.023031 " transform="matrix(1,0,0,-1,71.065,71.066)"/>
<path style="fill:none;stroke-width:0.3985;stroke-linecap:butt;stroke-linejoin:miter;stroke:rgb(0%,67.83905%,93.728638%);stroke-opacity:1;stroke-miterlimit:10;" d="M 12.274844 7.085531 C 16.188906 13.866781 13.864688 22.53475 7.087344 26.448813 C 0.306094 30.362875 -8.361875 28.038656 -12.275937 21.261313 C -14.807187 16.874594 -14.807187 11.47225 -12.275937 7.085531 " transform="matrix(1,0,0,-1,71.065,71.066)"/>
<path style="fill-rule:nonzero;fill:rgb(100%,0%,0%);fill-opacity:1;stroke-width:0.3985;stroke-linecap:butt;stroke-linejoin:miter;stroke:rgb(100%,0%,0%);stroke-opacity:1;stroke-miterlimit:10;" d="M 1.415469 14.171469 C 1.415469 14.956625 0.782656 15.589438 0.00140625 15.589438 C -0.78375 15.589438 -1.416562 14.956625 -1.416562 14.171469 C -1.416562 13.390219 -0.78375 12.757406 0.00140625 12.757406 C 0.782656 12.757406 1.415469 13.390219 1.415469 14.171469 Z M 1.415469 14.171469 " transform="matrix(1,0,0,-1,71.065,71.066)"/>
<path style="fill:none;stroke-width:0.3985;stroke-linecap:butt;stroke-linejoin:miter;stroke:rgb(0%,67.83905%,93.728638%);stroke-opacity:1;stroke-miterlimit:10;" d="M 3.669375 13.691 C 1.642031 21.249594 -6.131406 25.737875 -13.69 23.710531 C -21.2525 21.687094 -25.736875 13.913656 -23.713437 6.355063 C -22.400937 1.464438 -18.580625 -2.359781 -13.69 -3.668375 " transform="matrix(1,0,0,-1,71.065,71.066)"/>
<path style="fill-rule:nonzero;fill:rgb(100%,0%,0%);fill-opacity:1;stroke-width:0.3985;stroke-linecap:butt;stroke-linejoin:miter;stroke:rgb(100%,0%,0%);stroke-opacity:1;stroke-miterlimit:10;" d="M -8.604062 10.023031 C -8.604062 10.804281 -9.240781 11.441 -10.022031 11.441 C -10.803281 11.441 -11.44 10.804281 -11.44 10.023031 C -11.44 9.237875 -10.803281 8.605063 -10.022031 8.605063 C -9.240781 8.605063 -8.604062 9.237875 -8.604062 10.023031 Z M -8.604062 10.023031 " transform="matrix(1,0,0,-1,71.065,71.066)"/>
<path style="fill:none;stroke-width:0.3985;stroke-linecap:butt;stroke-linejoin:miter;stroke:rgb(0%,67.83905%,93.728638%);stroke-opacity:1;stroke-miterlimit:10;" d="M -7.088437 12.273031 C -13.865781 16.187094 -22.53375 13.866781 -26.447812 7.085531 C -30.361875 0.308188 -28.037656 -8.359781 -21.260312 -12.273844 C -16.873594 -14.805094 -11.47125 -14.805094 -7.088437 -12.273844 " transform="matrix(1,0,0,-1,71.065,71.066)"/>
<path style="fill-rule:nonzero;fill:rgb(100%,0%,0%);fill-opacity:1;stroke-width:0.3985;stroke-linecap:butt;stroke-linejoin:miter;stroke:rgb(100%,0%,0%);stroke-opacity:1;stroke-miterlimit:10;" d="M -12.756406 -0.00040625 C -12.756406 0.78475 -13.389219 1.417563 -14.174375 1.417563 C -14.955625 1.417563 -15.592344 0.78475 -15.592344 -0.00040625 C -15.592344 -0.781656 -14.955625 -1.418375 -14.174375 -1.418375 C -13.389219 -1.418375 -12.756406 -0.781656 -12.756406 -0.00040625 Z M -12.756406 -0.00040625 " transform="matrix(1,0,0,-1,71.065,71.066)"/>
<path style="fill:none;stroke-width:0.3985;stroke-linecap:butt;stroke-linejoin:miter;stroke:rgb(0%,67.83905%,93.728638%);stroke-opacity:1;stroke-miterlimit:10;" d="M -13.69 3.667563 C -21.2525 1.644125 -25.736875 -6.129312 -23.713437 -13.691812 C -21.686094 -21.250406 -13.912656 -25.738687 -6.354062 -23.711344 C -1.463437 -22.40275 2.356875 -18.582437 3.669375 -13.691812 " transform="matrix(1,0,0,-1,71.065,71.066)"/>
<path style="fill-rule:nonzero;fill:rgb(100%,0%,0%);fill-opacity:1;stroke-width:0.3985;stroke-linecap:butt;stroke-linejoin:miter;stroke:rgb(100%,0%,0%);stroke-opacity:1;stroke-miterlimit:10;" d="M -8.604062 -10.023844 C -8.604062 -9.238687 -9.240781 -8.605875 -10.022031 -8.605875 C -10.803281 -8.605875 -11.44 -9.238687 -11.44 -10.023844 C -11.44 -10.805094 -10.803281 -11.437906 -10.022031 -11.437906 C -9.240781 -11.437906 -8.604062 -10.805094 -8.604062 -10.023844 Z M -8.604062 -10.023844 " transform="matrix(1,0,0,-1,71.065,71.066)"/>
<path style="fill:none;stroke-width:0.3985;stroke-linecap:butt;stroke-linejoin:miter;stroke:rgb(0%,67.83905%,93.728638%);stroke-opacity:1;stroke-miterlimit:10;" d="M -12.275937 -7.086344 C -16.19 -13.867594 -13.865781 -22.535562 -7.088437 -26.449625 C -0.307187 -30.363687 8.360781 -28.039469 12.274844 -21.258219 C 14.806094 -16.875406 14.806094 -11.473062 12.274844 -7.086344 " transform="matrix(1,0,0,-1,71.065,71.066)"/>
<path style="fill-rule:nonzero;fill:rgb(100%,0%,0%);fill-opacity:1;stroke-width:0.3985;stroke-linecap:butt;stroke-linejoin:miter;stroke:rgb(100%,0%,0%);stroke-opacity:1;stroke-miterlimit:10;" d="M 1.415469 -14.172281 C 1.415469 -13.391031 0.782656 -12.754312 0.00140625 -12.754312 C -0.78375 -12.754312 -1.416562 -13.391031 -1.416562 -14.172281 C -1.416562 -14.957437 -0.78375 -15.59025 0.00140625 -15.59025 C 0.782656 -15.59025 1.415469 -14.957437 1.415469 -14.172281 Z M 1.415469 -14.172281 " transform="matrix(1,0,0,-1,71.065,71.066)"/>
<path style="fill:none;stroke-width:0.3985;stroke-linecap:butt;stroke-linejoin:miter;stroke:rgb(0%,67.83905%,93.728638%);stroke-opacity:1;stroke-miterlimit:10;" d="M -3.666562 -13.691812 C -1.643125 -21.250406 6.130313 -25.738687 13.688906 -23.711344 C 21.251406 -21.687906 25.739688 -13.914469 23.712344 -6.351969 C 22.40375 -1.461344 18.579531 2.358969 13.688906 3.667563 " transform="matrix(1,0,0,-1,71.065,71.066)"/>
<path style="fill-rule:nonzero;fill:rgb(100%,0%,0%);fill-opacity:1;stroke-width:0.3985;stroke-linecap:butt;stroke-linejoin:miter;stroke:rgb(100%,0%,0%);stroke-opacity:1;stroke-miterlimit:10;" d="M 11.438906 -10.023844 C 11.438906 -9.238687 10.806094 -8.605875 10.020938 -8.605875 C 9.239688 -8.605875 8.602969 -9.238687 8.602969 -10.023844 C 8.602969 -10.805094 9.239688 -11.437906 10.020938 -11.437906 C 10.806094 -11.437906 11.438906 -10.805094 11.438906 -10.023844 Z M 11.438906 -10.023844 " transform="matrix(1,0,0,-1,71.065,71.066)"/>
<path style="fill:none;stroke-width:0.3985;stroke-linecap:butt;stroke-linejoin:miter;stroke:rgb(0%,67.83905%,93.728638%);stroke-opacity:1;stroke-miterlimit:10;" d="M 40.06 -13.957437 C 47.767031 -15.316812 55.118594 -10.168375 56.477969 -2.461344 C 57.356875 2.526938 55.509219 7.605063 51.630313 10.858969 C 48.423281 13.550375 44.185 14.687094 40.06 13.956625 " transform="matrix(1,0,0,-1,71.065,71.066)"/>
<path style="fill-rule:nonzero;fill:rgb(100%,0%,0%);fill-opacity:1;stroke-width:0.3985;stroke-linecap:butt;stroke-linejoin:miter;stroke:rgb(100%,0%,0%);stroke-opacity:1;stroke-miterlimit:10;" d="M 43.938906 -0.00040625 C 43.938906 0.78475 43.302188 1.417563 42.520938 1.417563 C 41.735781 1.417563 41.102969 0.78475 41.102969 -0.00040625 C 41.102969 -0.781656 41.735781 -1.418375 42.520938 -1.418375 C 43.302188 -1.418375 43.938906 -0.781656 43.938906 -0.00040625 Z M 43.938906 -0.00040625 " transform="matrix(1,0,0,-1,71.065,71.066)"/>
<path style="fill:none;stroke-width:0.3985;stroke-linecap:butt;stroke-linejoin:miter;stroke:rgb(0%,67.83905%,93.728638%);stroke-opacity:1;stroke-miterlimit:10;" d="M 42.415469 0.585531 C 50.126406 1.944906 55.274844 9.296469 53.915469 17.0035 C 53.036563 21.991781 49.56 26.1285 44.802188 27.862875 C 40.868594 29.292563 36.4975 28.913656 32.868594 26.816 " transform="matrix(1,0,0,-1,71.065,71.066)"/>
<path style="fill-rule:nonzero;fill:rgb(100%,0%,0%);fill-opacity:1;stroke-width:0.3985;stroke-linecap:butt;stroke-linejoin:miter;stroke:rgb(100%,0%,0%);stroke-opacity:1;stroke-miterlimit:10;" d="M 41.3725 14.542563 C 41.3725 15.323813 40.739688 15.960531 39.954531 15.960531 C 39.173281 15.960531 38.540469 15.323813 38.540469 14.542563 C 38.540469 13.761313 39.173281 13.124594 39.954531 13.124594 C 40.739688 13.124594 41.3725 13.761313 41.3725 14.542563 Z M 41.3725 14.542563 " transform="matrix(1,0,0,-1,71.065,71.066)"/>
<path style="fill:none;stroke-width:0.3985;stroke-linecap:butt;stroke-linejoin:miter;stroke:rgb(0%,67.83905%,93.728638%);stroke-opacity:1;stroke-miterlimit:10;" d="M 39.657656 15.058188 C 46.438906 18.97225 48.759219 27.640219 44.845156 34.417563 C 42.313906 38.804281 37.634219 41.5035 32.571719 41.5035 C 28.384219 41.5035 24.407656 39.651938 21.71625 36.441 " transform="matrix(1,0,0,-1,71.065,71.066)"/>
<path style="fill-rule:nonzero;fill:rgb(100%,0%,0%);fill-opacity:1;stroke-width:0.3985;stroke-linecap:butt;stroke-linejoin:miter;stroke:rgb(100%,0%,0%);stroke-opacity:1;stroke-miterlimit:10;" d="M 33.989688 27.331625 C 33.989688 28.112875 33.352969 28.749594 32.571719 28.749594 C 31.790469 28.749594 31.15375 28.112875 31.15375 27.331625 C 31.15375 26.550375 31.790469 25.913656 32.571719 25.913656 C 33.352969 25.913656 33.989688 26.550375 33.989688 27.331625 Z M 33.989688 27.331625 " transform="matrix(1,0,0,-1,71.065,71.066)"/>
<path style="fill:none;stroke-width:0.3985;stroke-linecap:butt;stroke-linejoin:miter;stroke:rgb(0%,67.83905%,93.728638%);stroke-opacity:1;stroke-miterlimit:10;" d="M 32.118594 27.714438 C 37.149844 33.710531 36.368594 42.648031 30.368594 47.679281 C 26.493594 50.937094 21.169375 51.874594 16.411563 50.144125 C 12.474063 48.710531 9.3725 45.608969 7.942813 41.671469 " transform="matrix(1,0,0,-1,71.065,71.066)"/>
<path style="fill-rule:nonzero;fill:rgb(100%,0%,0%);fill-opacity:1;stroke-width:0.3985;stroke-linecap:butt;stroke-linejoin:miter;stroke:rgb(100%,0%,0%);stroke-opacity:1;stroke-miterlimit:10;" d="M 22.677188 36.823813 C 22.677188 37.605063 22.044375 38.241781 21.259219 38.241781 C 20.477969 38.241781 19.84125 37.605063 19.84125 36.823813 C 19.84125 36.042563 20.477969 35.405844 21.259219 35.405844 C 22.044375 35.405844 22.677188 36.042563 22.677188 36.823813 Z M 22.677188 36.823813 " transform="matrix(1,0,0,-1,71.065,71.066)"/>
<path style="fill:none;stroke-width:0.3985;stroke-linecap:butt;stroke-linejoin:miter;stroke:rgb(0%,67.83905%,93.728638%);stroke-opacity:1;stroke-miterlimit:10;" d="M 20.700625 37.026938 C 23.380313 44.382406 19.587344 52.515219 12.231875 55.194906 C 7.474063 56.925375 2.149844 55.987875 -1.729062 52.730063 C -4.936094 50.038656 -6.791562 46.062094 -6.791562 41.874594 " transform="matrix(1,0,0,-1,71.065,71.066)"/>
<path style="fill-rule:nonzero;fill:rgb(100%,0%,0%);fill-opacity:1;stroke-width:0.3985;stroke-linecap:butt;stroke-linejoin:miter;stroke:rgb(100%,0%,0%);stroke-opacity:1;stroke-miterlimit:10;" d="M 8.802188 41.874594 C 8.802188 42.655844 8.165469 43.292563 7.384219 43.292563 C 6.599063 43.292563 5.96625 42.655844 5.96625 41.874594 C 5.96625 41.093344 6.599063 40.456625 7.384219 40.456625 C 8.165469 40.456625 8.802188 41.093344 8.802188 41.874594 Z M 8.802188 41.874594 " transform="matrix(1,0,0,-1,71.065,71.066)"/>
<path style="fill:none;stroke-width:0.3985;stroke-linecap:butt;stroke-linejoin:miter;stroke:rgb(0%,67.83905%,93.728638%);stroke-opacity:1;stroke-miterlimit:10;" d="M 6.790469 41.874594 C 6.790469 49.702719 0.442813 56.046469 -7.385312 56.046469 C -12.447812 56.046469 -17.1275 53.34725 -19.65875 48.960531 C -21.7525 45.331625 -22.135312 40.964438 -20.701719 37.026938 " transform="matrix(1,0,0,-1,71.065,71.066)"/>
<path style="fill-rule:nonzero;fill:rgb(100%,0%,0%);fill-opacity:1;stroke-width:0.3985;stroke-linecap:butt;stroke-linejoin:miter;stroke:rgb(100%,0%,0%);stroke-opacity:1;stroke-miterlimit:10;" d="M -5.967344 41.874594 C -5.967344 42.655844 -6.600156 43.292563 -7.385312 43.292563 C -8.166562 43.292563 -8.799375 42.655844 -8.799375 41.874594 C -8.799375 41.093344 -8.166562 40.456625 -7.385312 40.456625 C -6.600156 40.456625 -5.967344 41.093344 -5.967344 41.874594 Z M -5.967344 41.874594 " transform="matrix(1,0,0,-1,71.065,71.066)"/>
<path style="fill:none;stroke-width:0.3985;stroke-linecap:butt;stroke-linejoin:miter;stroke:rgb(0%,67.83905%,93.728638%);stroke-opacity:1;stroke-miterlimit:10;" d="M -7.94 41.671469 C -10.619687 49.026938 -18.7525 52.819906 -26.107969 50.140219 C -30.865781 48.40975 -34.338437 44.269125 -35.217344 39.28475 C -35.943906 35.15975 -34.811094 30.921469 -32.115781 27.714438 " transform="matrix(1,0,0,-1,71.065,71.066)"/>
<path style="fill-rule:nonzero;fill:rgb(100%,0%,0%);fill-opacity:1;stroke-width:0.3985;stroke-linecap:butt;stroke-linejoin:miter;stroke:rgb(100%,0%,0%);stroke-opacity:1;stroke-miterlimit:10;" d="M -19.842344 36.823813 C -19.842344 37.605063 -20.479062 38.241781 -21.260312 38.241781 C -22.041562 38.241781 -22.678281 37.605063 -22.678281 36.823813 C -22.678281 36.042563 -22.041562 35.405844 -21.260312 35.405844 C -20.479062 35.405844 -19.842344 36.042563 -19.842344 36.823813 Z M -19.842344 36.823813 " transform="matrix(1,0,0,-1,71.065,71.066)"/>
<path style="fill:none;stroke-width:0.3985;stroke-linecap:butt;stroke-linejoin:miter;stroke:rgb(0%,67.83905%,93.728638%);stroke-opacity:1;stroke-miterlimit:10;" d="M -21.713437 36.441 C -26.744687 42.437094 -35.686094 43.22225 -41.682187 38.187094 C -45.561094 34.933188 -47.40875 29.855063 -46.529844 24.870688 C -45.803281 20.745688 -43.287656 17.151938 -39.65875 15.058188 " transform="matrix(1,0,0,-1,71.065,71.066)"/>
<path style="fill-rule:nonzero;fill:rgb(100%,0%,0%);fill-opacity:1;stroke-width:0.3985;stroke-linecap:butt;stroke-linejoin:miter;stroke:rgb(100%,0%,0%);stroke-opacity:1;stroke-miterlimit:10;" d="M -31.154844 27.331625 C -31.154844 28.112875 -31.787656 28.749594 -32.572812 28.749594 C -33.354062 28.749594 -33.990781 28.112875 -33.990781 27.331625 C -33.990781 26.550375 -33.354062 25.913656 -32.572812 25.913656 C -31.787656 25.913656 -31.154844 26.550375 -31.154844 27.331625 Z M -31.154844 27.331625 " transform="matrix(1,0,0,-1,71.065,71.066)"/>
<path style="fill:none;stroke-width:0.3985;stroke-linecap:butt;stroke-linejoin:miter;stroke:rgb(0%,67.83905%,93.728638%);stroke-opacity:1;stroke-miterlimit:10;" d="M -32.869687 26.816 C -39.647031 30.730063 -48.315 28.40975 -52.229062 21.6285 C -54.760312 17.245688 -54.760312 11.839438 -52.229062 7.456625 C -50.135312 3.827719 -46.541562 1.312094 -42.416562 0.585531 " transform="matrix(1,0,0,-1,71.065,71.066)"/>
<path style="fill-rule:nonzero;fill:rgb(100%,0%,0%);fill-opacity:1;stroke-width:0.3985;stroke-linecap:butt;stroke-linejoin:miter;stroke:rgb(100%,0%,0%);stroke-opacity:1;stroke-miterlimit:10;" d="M -38.537656 14.542563 C -38.537656 15.323813 -39.174375 15.960531 -39.955625 15.960531 C -40.740781 15.960531 -41.373594 15.323813 -41.373594 14.542563 C -41.373594 13.761313 -40.740781 13.124594 -39.955625 13.124594 C -39.174375 13.124594 -38.537656 13.761313 -38.537656 14.542563 Z M -38.537656 14.542563 " transform="matrix(1,0,0,-1,71.065,71.066)"/>
<path style="fill:none;stroke-width:0.3985;stroke-linecap:butt;stroke-linejoin:miter;stroke:rgb(0%,67.83905%,93.728638%);stroke-opacity:1;stroke-miterlimit:10;" d="M -40.057187 13.956625 C -47.768125 15.316 -55.119687 10.171469 -56.479062 2.460531 C -57.357969 -2.523844 -55.510312 -7.601969 -51.631406 -10.855875 C -48.420469 -13.551187 -44.186094 -14.684 -40.057187 -13.957437 " transform="matrix(1,0,0,-1,71.065,71.066)"/>
<path style="fill-rule:nonzero;fill:rgb(100%,0%,0%);fill-opacity:1;stroke-width:0.3985;stroke-linecap:butt;stroke-linejoin:miter;stroke:rgb(100%,0%,0%);stroke-opacity:1;stroke-miterlimit:10;" d="M -41.104062 -0.00040625 C -41.104062 0.78475 -41.736875 1.417563 -42.522031 1.417563 C -43.303281 1.417563 -43.936094 0.78475 -43.936094 -0.00040625 C -43.936094 -0.781656 -43.303281 -1.418375 -42.522031 -1.418375 C -41.736875 -1.418375 -41.104062 -0.781656 -41.104062 -0.00040625 Z M -41.104062 -0.00040625 " transform="matrix(1,0,0,-1,71.065,71.066)"/>
<path style="fill:none;stroke-width:0.3985;stroke-linecap:butt;stroke-linejoin:miter;stroke:rgb(0%,67.83905%,93.728638%);stroke-opacity:1;stroke-miterlimit:10;" d="M -42.416562 -0.586344 C -50.1275 -1.945719 -55.272031 -9.293375 -53.912656 -17.004312 C -53.03375 -21.988687 -49.561094 -26.129312 -44.803281 -27.859781 C -40.865781 -29.293375 -36.498594 -28.910562 -32.869687 -26.816812 " transform="matrix(1,0,0,-1,71.065,71.066)"/>
<path style="fill-rule:nonzero;fill:rgb(100%,0%,0%);fill-opacity:1;stroke-width:0.3985;stroke-linecap:butt;stroke-linejoin:miter;stroke:rgb(100%,0%,0%);stroke-opacity:1;stroke-miterlimit:10;" d="M -38.537656 -14.543375 C -38.537656 -13.758219 -39.174375 -13.125406 -39.955625 -13.125406 C -40.740781 -13.125406 -41.373594 -13.758219 -41.373594 -14.543375 C -41.373594 -15.324625 -40.740781 -15.961344 -39.955625 -15.961344 C -39.174375 -15.961344 -38.537656 -15.324625 -38.537656 -14.543375 Z M -38.537656 -14.543375 " transform="matrix(1,0,0,-1,71.065,71.066)"/>
<path style="fill:none;stroke-width:0.3985;stroke-linecap:butt;stroke-linejoin:miter;stroke:rgb(0%,67.83905%,93.728638%);stroke-opacity:1;stroke-miterlimit:10;" d="M -39.65875 -15.059 C -46.436094 -18.969156 -48.760312 -27.641031 -44.84625 -34.418375 C -42.315 -38.801187 -37.635312 -41.504312 -32.572812 -41.504312 C -28.381406 -41.504312 -24.40875 -39.65275 -21.713437 -36.441812 " transform="matrix(1,0,0,-1,71.065,71.066)"/>
<path style="fill-rule:nonzero;fill:rgb(100%,0%,0%);fill-opacity:1;stroke-width:0.3985;stroke-linecap:butt;stroke-linejoin:miter;stroke:rgb(100%,0%,0%);stroke-opacity:1;stroke-miterlimit:10;" d="M -31.154844 -27.332437 C -31.154844 -26.547281 -31.787656 -25.914469 -32.572812 -25.914469 C -33.354062 -25.914469 -33.990781 -26.547281 -33.990781 -27.332437 C -33.990781 -28.113687 -33.354062 -28.750406 -32.572812 -28.750406 C -31.787656 -28.750406 -31.154844 -28.113687 -31.154844 -27.332437 Z M -31.154844 -27.332437 " transform="matrix(1,0,0,-1,71.065,71.066)"/>
<path style="fill:none;stroke-width:0.3985;stroke-linecap:butt;stroke-linejoin:miter;stroke:rgb(0%,67.83905%,93.728638%);stroke-opacity:1;stroke-miterlimit:10;" d="M -32.115781 -27.711344 C -37.147031 -33.711344 -36.365781 -42.648844 -30.369687 -47.680094 C -26.490781 -50.934 -21.170469 -51.875406 -16.412656 -50.141031 C -12.475156 -48.711344 -9.373594 -45.605875 -7.94 -41.672281 " transform="matrix(1,0,0,-1,71.065,71.066)"/>
<path style="fill-rule:nonzero;fill:rgb(100%,0%,0%);fill-opacity:1;stroke-width:0.3985;stroke-linecap:butt;stroke-linejoin:miter;stroke:rgb(100%,0%,0%);stroke-opacity:1;stroke-miterlimit:10;" d="M -19.842344 -36.824625 C -19.842344 -36.039469 -20.479062 -35.406656 -21.260312 -35.406656 C -22.041562 -35.406656 -22.678281 -36.039469 -22.678281 -36.824625 C -22.678281 -37.605875 -22.041562 -38.242594 -21.260312 -38.242594 C -20.479062 -38.242594 -19.842344 -37.605875 -19.842344 -36.824625 Z M -19.842344 -36.824625 " transform="matrix(1,0,0,-1,71.065,71.066)"/>
<path style="fill:none;stroke-width:0.3985;stroke-linecap:butt;stroke-linejoin:miter;stroke:rgb(0%,67.83905%,93.728638%);stroke-opacity:1;stroke-miterlimit:10;" d="M -20.701719 -37.02775 C -23.3775 -44.383219 -19.588437 -52.516031 -12.232969 -55.191812 C -7.475156 -56.926187 -2.150937 -55.984781 1.727969 -52.730875 C 4.935 -50.039469 6.790469 -46.062906 6.790469 -41.875406 " transform="matrix(1,0,0,-1,71.065,71.066)"/>
<path style="fill-rule:nonzero;fill:rgb(100%,0%,0%);fill-opacity:1;stroke-width:0.3985;stroke-linecap:butt;stroke-linejoin:miter;stroke:rgb(100%,0%,0%);stroke-opacity:1;stroke-miterlimit:10;" d="M -5.967344 -41.875406 C -5.967344 -41.09025 -6.600156 -40.457437 -7.385312 -40.457437 C -8.166562 -40.457437 -8.799375 -41.09025 -8.799375 -41.875406 C -8.799375 -42.656656 -8.166562 -43.293375 -7.385312 -43.293375 C -6.600156 -43.293375 -5.967344 -42.656656 -5.967344 -41.875406 Z M -5.967344 -41.875406 " transform="matrix(1,0,0,-1,71.065,71.066)"/>
<path style="fill:none;stroke-width:0.3985;stroke-linecap:butt;stroke-linejoin:miter;stroke:rgb(0%,67.83905%,93.728638%);stroke-opacity:1;stroke-miterlimit:10;" d="M -6.791562 -41.875406 C -6.791562 -49.703531 -0.443906 -56.047281 7.384219 -56.047281 C 12.446719 -56.047281 17.126406 -53.344156 19.657656 -48.961344 C 21.751406 -45.332437 22.134219 -40.961344 20.700625 -37.02775 " transform="matrix(1,0,0,-1,71.065,71.066)"/>
<path style="fill-rule:nonzero;fill:rgb(100%,0%,0%);fill-opacity:1;stroke-width:0.3985;stroke-linecap:butt;stroke-linejoin:miter;stroke:rgb(100%,0%,0%);stroke-opacity:1;stroke-miterlimit:10;" d="M 8.802188 -41.875406 C 8.802188 -41.09025 8.165469 -40.457437 7.384219 -40.457437 C 6.599063 -40.457437 5.96625 -41.09025 5.96625 -41.875406 C 5.96625 -42.656656 6.599063 -43.293375 7.384219 -43.293375 C 8.165469 -43.293375 8.802188 -42.656656 8.802188 -41.875406 Z M 8.802188 -41.875406 " transform="matrix(1,0,0,-1,71.065,71.066)"/>
<path style="fill:none;stroke-width:0.3985;stroke-linecap:butt;stroke-linejoin:miter;stroke:rgb(0%,67.83905%,93.728638%);stroke-opacity:1;stroke-miterlimit:10;" d="M 7.942813 -41.672281 C 10.618594 -49.02775 18.751406 -52.820719 26.106875 -50.141031 C 30.864688 -48.410562 34.337344 -44.269937 35.220156 -39.285562 C 35.946719 -35.160562 34.81 -30.922281 32.118594 -27.711344 " transform="matrix(1,0,0,-1,71.065,71.066)"/>
<path style="fill-rule:nonzero;fill:rgb(100%,0%,0%);fill-opacity:1;stroke-width:0.3985;stroke-linecap:butt;stroke-linejoin:miter;stroke:rgb(100%,0%,0%);stroke-opacity:1;stroke-miterlimit:10;" d="M 22.677188 -36.824625 C 22.677188 -36.039469 22.044375 -35.406656 21.259219 -35.406656 C 20.477969 -35.406656 19.84125 -36.039469 19.84125 -36.824625 C 19.84125 -37.605875 20.477969 -38.242594 21.259219 -38.242594 C 22.044375 -38.242594 22.677188 -37.605875 22.677188 -36.824625 Z M 22.677188 -36.824625 " transform="matrix(1,0,0,-1,71.065,71.066)"/>
<path style="fill:none;stroke-width:0.3985;stroke-linecap:butt;stroke-linejoin:miter;stroke:rgb(0%,67.83905%,93.728638%);stroke-opacity:1;stroke-miterlimit:10;" d="M 21.71625 -36.441812 C 26.7475 -42.437906 35.685 -43.219156 41.681094 -38.187906 C 45.56 -34.934 47.407656 -29.855875 46.52875 -24.8715 C 45.802188 -20.7465 43.286563 -17.15275 39.657656 -15.059 " transform="matrix(1,0,0,-1,71.065,71.066)"/>
<path style="fill-rule:nonzero;fill:rgb(100%,0%,0%);fill-opacity:1;stroke-width:0.3985;stroke-linecap:butt;stroke-linejoin:miter;stroke:rgb(100%,0%,0%);stroke-opacity:1;stroke-miterlimit:10;" d="M 33.989688 -27.332437 C 33.989688 -26.547281 33.352969 -25.914469 32.571719 -25.914469 C 31.790469 -25.914469 31.15375 -26.547281 31.15375 -27.332437 C 31.15375 -28.113687 31.790469 -28.750406 32.571719 -28.750406 C 33.352969 -28.750406 33.989688 -28.113687 33.989688 -27.332437 Z M 33.989688 -27.332437 " transform="matrix(1,0,0,-1,71.065,71.066)"/>
<path style="fill:none;stroke-width:0.3985;stroke-linecap:butt;stroke-linejoin:miter;stroke:rgb(0%,67.83905%,93.728638%);stroke-opacity:1;stroke-miterlimit:10;" d="M 32.868594 -26.816812 C 39.649844 -30.730875 48.317813 -28.406656 52.231875 -21.629312 C 54.763125 -17.2465 54.763125 -11.84025 52.231875 -7.457437 C 50.134219 -3.828531 46.544375 -1.312906 42.415469 -0.586344 " transform="matrix(1,0,0,-1,71.065,71.066)"/>
<path style="fill-rule:nonzero;fill:rgb(100%,0%,0%);fill-opacity:1;stroke-width:0.3985;stroke-linecap:butt;stroke-linejoin:miter;stroke:rgb(100%,0%,0%);stroke-opacity:1;stroke-miterlimit:10;" d="M 41.3725 -14.543375 C 41.3725 -13.758219 40.739688 -13.125406 39.954531 -13.125406 C 39.173281 -13.125406 38.540469 -13.758219 38.540469 -14.543375 C 38.540469 -15.324625 39.173281 -15.961344 39.954531 -15.961344 C 40.739688 -15.961344 41.3725 -15.324625 41.3725 -14.543375 Z M 41.3725 -14.543375 " transform="matrix(1,0,0,-1,71.065,71.066)"/>
<path style="fill:none;stroke-width:0.3985;stroke-linecap:butt;stroke-linejoin:miter;stroke:rgb(0%,0%,0%);stroke-opacity:1;stroke-miterlimit:10;" d="M 56.692813 -0.00040625 L 67.27875 -0.00040625 " transform="matrix(1,0,0,-1,71.065,71.066)"/>
<path style=" stroke:none;fill-rule:nonzero;fill:rgb(0%,0%,0%);fill-opacity:1;" d="M 141.933594 71.066406 C 140.871094 70.867188 139.140625 70.269531 137.945312 69.570312 L 137.945312 72.558594 C 139.140625 71.863281 140.871094 71.265625 141.933594 71.066406 "/>
<path style="fill:none;stroke-width:0.3985;stroke-linecap:butt;stroke-linejoin:miter;stroke:rgb(0%,0%,0%);stroke-opacity:1;stroke-miterlimit:10;" d="M 40.087344 40.089438 L 47.575625 47.573813 " transform="matrix(1,0,0,-1,71.065,71.066)"/>
<path style=" stroke:none;fill-rule:nonzero;fill:rgb(0%,0%,0%);fill-opacity:1;" d="M 121.175781 20.957031 C 120.28125 21.566406 118.640625 22.363281 117.300781 22.714844 L 119.414062 24.832031 C 119.765625 23.492188 120.566406 21.847656 121.175781 20.957031 "/>
<path style="fill:none;stroke-width:0.3985;stroke-linecap:butt;stroke-linejoin:miter;stroke:rgb(0%,0%,0%);stroke-opacity:1;stroke-miterlimit:10;" d="M 0.00140625 56.694906 L 0.00140625 67.280844 " transform="matrix(1,0,0,-1,71.065,71.066)"/>
<path style=" stroke:none;fill-rule:nonzero;fill:rgb(0%,0%,0%);fill-opacity:1;" d="M 71.066406 0.199219 C 70.867188 1.261719 70.269531 2.988281 69.570312 4.183594 L 72.558594 4.183594 C 71.863281 2.988281 71.265625 1.261719 71.066406 0.199219 "/>
<path style="fill:none;stroke-width:0.3985;stroke-linecap:butt;stroke-linejoin:miter;stroke:rgb(0%,0%,0%);stroke-opacity:1;stroke-miterlimit:10;" d="M -40.088437 40.089438 L -47.572812 47.573813 " transform="matrix(1,0,0,-1,71.065,71.066)"/>
<path style=" stroke:none;fill-rule:nonzero;fill:rgb(0%,0%,0%);fill-opacity:1;" d="M 20.953125 20.957031 C 21.566406 21.847656 22.363281 23.492188 22.714844 24.832031 L 24.828125 22.714844 C 23.492188 22.363281 21.847656 21.566406 20.953125 20.957031 "/>
<path style="fill:none;stroke-width:0.3985;stroke-linecap:butt;stroke-linejoin:miter;stroke:rgb(0%,0%,0%);stroke-opacity:1;stroke-miterlimit:10;" d="M -56.693906 -0.00040625 L -67.279844 -0.00040625 " transform="matrix(1,0,0,-1,71.065,71.066)"/>
<path style=" stroke:none;fill-rule:nonzero;fill:rgb(0%,0%,0%);fill-opacity:1;" d="M 0.199219 71.066406 C 1.261719 71.265625 2.988281 71.863281 4.183594 72.558594 L 4.183594 69.570312 C 2.988281 70.269531 1.261719 70.867188 0.199219 71.066406 "/>
<path style="fill:none;stroke-width:0.3985;stroke-linecap:butt;stroke-linejoin:miter;stroke:rgb(0%,0%,0%);stroke-opacity:1;stroke-miterlimit:10;" d="M -40.088437 -40.09025 L -47.572812 -47.574625 " transform="matrix(1,0,0,-1,71.065,71.066)"/>
<path style=" stroke:none;fill-rule:nonzero;fill:rgb(0%,0%,0%);fill-opacity:1;" d="M 20.953125 121.175781 C 21.847656 120.566406 23.492188 119.765625 24.828125 119.414062 L 22.714844 117.300781 C 22.363281 118.640625 21.566406 120.285156 20.953125 121.175781 "/>
<path style="fill:none;stroke-width:0.3985;stroke-linecap:butt;stroke-linejoin:miter;stroke:rgb(0%,0%,0%);stroke-opacity:1;stroke-miterlimit:10;" d="M 0.00140625 -56.691812 L 0.00140625 -67.281656 " transform="matrix(1,0,0,-1,71.065,71.066)"/>
<path style=" stroke:none;fill-rule:nonzero;fill:rgb(0%,0%,0%);fill-opacity:1;" d="M 71.066406 141.933594 C 71.265625 140.871094 71.863281 139.144531 72.558594 137.949219 L 69.570312 137.949219 C 70.269531 139.144531 70.867188 140.871094 71.066406 141.933594 "/>
<path style="fill:none;stroke-width:0.3985;stroke-linecap:butt;stroke-linejoin:miter;stroke:rgb(0%,0%,0%);stroke-opacity:1;stroke-miterlimit:10;" d="M 40.087344 -40.09025 L 47.575625 -47.574625 " transform="matrix(1,0,0,-1,71.065,71.066)"/>
<path style=" stroke:none;fill-rule:nonzero;fill:rgb(0%,0%,0%);fill-opacity:1;" d="M 121.175781 121.175781 C 120.566406 120.285156 119.765625 118.640625 119.414062 117.300781 L 117.300781 119.414062 C 118.640625 119.765625 120.28125 120.566406 121.175781 121.175781 "/>
<path style="fill-rule:nonzero;fill:rgb(100%,0%,0%);fill-opacity:1;stroke-width:0.3985;stroke-linecap:butt;stroke-linejoin:miter;stroke:rgb(100%,0%,0%);stroke-opacity:1;stroke-miterlimit:10;" d="M 1.415469 -0.00040625 C 1.415469 0.78475 0.782656 1.417563 0.00140625 1.417563 C -0.78375 1.417563 -1.416562 0.78475 -1.416562 -0.00040625 C -1.416562 -0.781656 -0.78375 -1.418375 0.00140625 -1.418375 C 0.782656 -1.418375 1.415469 -0.781656 1.415469 -0.00040625 Z M 1.415469 -0.00040625 " transform="matrix(1,0,0,-1,71.065,71.066)"/>
</g>
</svg>
