<?xml version="1.0" encoding="UTF-8"?>
<svg xmlns="http://www.w3.org/2000/svg" xmlns:xlink="http://www.w3.org/1999/xlink" width="262.331" height="178.953" viewBox="0 0 262.331 178.953">
<path fill-rule="nonzero" fill="rgb(0%, 0%, 0%)" fill-opacity="1" d="M 0 178.953125 L 0 0 L 262.332031 0 L 262.332031 178.953125 Z M 0 178.953125 "/>
<path fill-rule="nonzero" fill="rgb(0%, 0%, 0%)" fill-opacity="1" d="M 0 178.953125 L 0 0 L 262.332031 0 L 262.332031 178.953125 Z M 0 178.953125 "/>
<path fill-rule="nonzero" fill="rgb(100%, 100%, 100%)" fill-opacity="1" d="M 4.289062 174.664062 L 4.289062 4.289062 L 258.042969 4.289062 L 258.042969 174.664062 Z M 4.289062 174.664062 "/>
<path fill="none" stroke-width="0.3985" stroke-linecap="butt" stroke-linejoin="miter" stroke="rgb(100%, 100%, 100%)" stroke-opacity="1" stroke-miterlimit="10" d="M 0.001375 -0.00078125 C 0.001375 -0.00078125 5.638094 1.178906 7.770906 1.632031 C 9.903719 2.08125 13.294344 2.807813 15.384188 3.260938 C 17.474031 3.714063 20.790438 4.436719 22.837313 4.889844 C 24.884188 5.342969 28.130281 6.069531 30.130281 6.522656 C 32.134188 6.971875 35.309969 7.698438 37.267 8.151563 C 39.224031 8.604688 42.3295 9.33125 44.243563 9.780469 C 46.157625 10.233594 49.192781 10.960156 51.063875 11.413281 C 52.934969 11.8625 55.899813 12.589063 57.724031 13.042188 C 59.552156 13.495313 62.442781 14.221875 64.227937 14.671094 C 66.009187 15.124219 68.833406 15.850781 70.571687 16.303906 C 72.309969 16.757031 75.059969 17.479688 76.755281 17.932813 C 78.450594 18.385938 81.130281 19.1125 82.782625 19.561719 C 84.431062 20.014844 87.044344 20.741406 88.649812 21.194531 C 90.255281 21.647656 92.794344 22.370313 94.356844 22.823438 C 95.919344 23.276563 98.392 24.003125 99.907625 24.45625 C 101.427156 24.905469 103.825594 25.632031 105.302156 26.085156 C 106.774812 26.538281 109.102937 27.260938 110.532625 27.714063 C 111.966219 28.167188 114.224031 28.89375 115.61075 29.346875 C 116.993562 29.796094 119.181062 30.522656 120.524812 30.975781 C 121.868562 31.428906 123.98575 32.151563 125.282625 32.604688 C 126.5795 33.057813 128.626375 33.784375 129.880281 34.2375 C 131.134187 34.686719 133.11075 35.413281 134.321687 35.866406 C 135.532625 36.319531 137.438875 37.046094 138.602937 37.495313 C 139.770906 37.948438 141.606844 38.675 142.727937 39.128125 C 143.849031 39.58125 145.614656 40.303906 146.692781 40.757031 C 147.770906 41.210156 149.462312 41.936719 150.497469 42.385938 C 151.532625 42.839063 153.153719 43.565625 154.145906 44.01875 C 155.134187 44.471875 156.688875 45.194531 157.634187 45.647656 C 158.5795 46.100781 160.063875 46.827344 160.966219 47.276563 C 161.868562 47.729688 163.278719 48.45625 164.138094 48.909375 C 164.993562 49.3625 166.337312 50.085156 167.149812 50.538281 C 167.962312 50.991406 169.23575 51.717969 170.005281 52.171094 C 170.774812 52.620313 171.974031 53.346875 172.700594 53.8 C 173.427156 54.253125 174.556062 54.975781 175.239656 55.428906 C 175.919344 55.882031 176.977937 56.608594 177.618562 57.061719 C 178.255281 57.510938 179.243562 58.2375 179.837312 58.690625 C 180.431062 59.14375 181.349031 59.866406 181.899812 60.319531 C 182.450594 60.772656 183.294344 61.499219 183.802156 61.952344 C 184.309969 62.401563 185.083406 63.128125 185.54825 63.58125 C 186.009187 64.034375 186.716219 64.760938 187.134187 65.210156 C 187.552156 65.663281 188.184969 66.389844 188.559969 66.842969 C 188.934969 67.296094 189.497469 68.01875 189.8295 68.471875 C 190.157625 68.925 190.653719 69.651563 190.938875 70.100781 C 191.224031 70.553906 191.649812 71.280469 191.892 71.733594 C 192.134187 72.186719 192.48575 72.909375 192.684969 73.3625 C 192.880281 73.815625 193.165437 74.542188 193.317781 74.991406 C 193.474031 75.444531 193.684969 76.171094 193.794344 76.624219 C 193.903719 77.077344 194.044344 77.8 194.11075 78.253125 C 194.177156 78.70625 194.247469 79.432813 194.270906 79.885938 C 194.294344 80.335156 194.294344 81.061719 194.270906 81.514844 C 194.247469 81.967969 194.177156 82.690625 194.11075 83.14375 C 194.04825 83.596875 193.903719 84.323438 193.794344 84.776563 C 193.684969 85.225781 193.474031 85.952344 193.321687 86.405469 C 193.165437 86.858594 192.884187 87.58125 192.684969 88.034375 C 192.489656 88.4875 192.134187 89.214063 191.892 89.667188 C 191.649812 90.116406 191.227937 90.842969 190.942781 91.296094 C 190.657625 91.749219 190.161531 92.475781 189.833406 92.925 C 189.501375 93.378125 188.938875 94.104688 188.563875 94.557813 C 188.188875 95.010938 187.556062 95.733594 187.138094 96.186719 C 186.720125 96.639844 186.013094 97.366406 185.552156 97.815625 C 185.087312 98.26875 184.313875 98.995313 183.806062 99.448438 C 183.302156 99.901563 182.4545 100.624219 181.903719 101.077344 C 181.352937 101.530469 180.434969 102.257031 179.841219 102.70625 C 179.247469 103.159375 178.259187 103.885938 177.622469 104.339063 C 176.98575 104.792188 175.927156 105.514844 175.243562 105.967969 C 174.559969 106.421094 173.431062 107.147656 172.708406 107.600781 C 171.981844 108.05 170.782625 108.776563 170.009187 109.229688 C 169.239656 109.682813 167.970125 110.405469 167.157625 110.858594 C 166.341219 111.311719 165.001375 112.038281 164.142 112.491406 C 163.286531 112.940625 161.872469 113.667188 160.974031 114.120313 C 160.071687 114.573438 158.587312 115.3 157.642 115.749219 C 156.696687 116.202344 155.142 116.928906 154.153719 117.382031 C 153.165437 117.83125 151.540437 118.557813 150.505281 119.010938 C 149.474031 119.464063 147.778719 120.190625 146.700594 120.639844 C 145.622469 121.092969 143.856844 121.819531 142.73575 122.272656 C 141.614656 122.725781 139.778719 123.448438 138.614656 123.901563 C 137.446687 124.354688 135.540437 125.08125 134.333406 125.530469 C 133.122469 125.983594 131.145906 126.710156 129.892 127.163281 C 128.638094 127.616406 126.591219 128.339063 125.294344 128.792188 C 123.993562 129.245313 121.876375 129.971875 120.536531 130.425 C 119.192781 130.874219 117.005281 131.600781 115.618562 132.053906 C 114.23575 132.507031 111.974031 133.229688 110.544344 133.682813 C 109.114656 134.135938 106.786531 134.8625 105.313875 135.315625 C 103.837312 135.764844 101.438875 136.491406 99.919344 136.944531 C 98.403719 137.397656 95.934969 138.120313 94.372469 138.573438 C 92.809969 139.026563 90.267 139.753125 88.661531 140.20625 C 87.056062 140.655469 84.446687 141.382031 82.794344 141.835156 C 81.145906 142.288281 78.462312 143.014844 76.767 143.464063 C 75.075594 143.917188 72.321687 144.64375 70.583406 145.096875 C 68.845125 145.55 66.024812 146.272656 64.239656 146.725781 C 62.458406 147.178906 59.567781 147.905469 57.739656 148.354688 C 55.911531 148.807813 52.950594 149.534375 51.0795 149.9875 C 49.208406 150.440625 46.17325 151.163281 44.259188 151.616406 C 42.345125 152.069531 39.239656 152.796094 37.282625 153.245313 C 35.325594 153.698438 32.149813 154.425 30.145906 154.878125 C 28.145906 155.33125 24.899813 156.053906 22.852938 156.507031 C 20.806063 156.960156 17.489656 157.686719 15.399813 158.139844 C 13.309969 158.589063 9.92325 159.315625 7.786531 159.76875 C 5.653719 160.221875 0.017 161.397656 0.017 161.397656 " transform="matrix(1, 0, 0, -1, 57.358, 170.175)"/>
<path fill="none" stroke-width="0.3985" stroke-linecap="butt" stroke-linejoin="miter" stroke="rgb(100%, 0%, 0%)" stroke-opacity="1" stroke-miterlimit="10" d="M -48.580656 160.592969 L 3.880281 160.592969 L 170.005281 80.702344 " transform="matrix(1, 0, 0, -1, 57.358, 170.175)"/>
<path fill="none" stroke-width="0.3985" stroke-linecap="butt" stroke-linejoin="miter" stroke="rgb(100%, 0%, 0%)" stroke-opacity="1" stroke-miterlimit="10" d="M -48.580656 154.885938 L 30.11075 154.885938 L 170.005281 80.702344 " transform="matrix(1, 0, 0, -1, 57.358, 170.175)"/>
<path fill="none" stroke-width="0.3985" stroke-linecap="butt" stroke-linejoin="miter" stroke="rgb(100%, 0%, 0%)" stroke-opacity="1" stroke-miterlimit="10" d="M -48.580656 149.178906 L 54.395906 149.178906 L 170.005281 80.702344 " transform="matrix(1, 0, 0, -1, 57.358, 170.175)"/>
<path fill="none" stroke-width="0.3985" stroke-linecap="butt" stroke-linejoin="miter" stroke="rgb(100%, 0%, 0%)" stroke-opacity="1" stroke-miterlimit="10" d="M -48.580656 143.475781 L 76.73575 143.475781 L 170.005281 80.702344 " transform="matrix(1, 0, 0, -1, 57.358, 170.175)"/>
<path fill="none" stroke-width="0.3985" stroke-linecap="butt" stroke-linejoin="miter" stroke="rgb(100%, 0%, 0%)" stroke-opacity="1" stroke-miterlimit="10" d="M -48.580656 137.76875 L 97.138094 137.76875 L 170.005281 80.702344 " transform="matrix(1, 0, 0, -1, 57.358, 170.175)"/>
<path fill="none" stroke-width="0.3985" stroke-linecap="butt" stroke-linejoin="miter" stroke="rgb(100%, 0%, 0%)" stroke-opacity="1" stroke-miterlimit="10" d="M -48.580656 132.061719 L 115.595125 132.061719 L 170.005281 80.702344 " transform="matrix(1, 0, 0, -1, 57.358, 170.175)"/>
<path fill="none" stroke-width="0.3985" stroke-linecap="butt" stroke-linejoin="miter" stroke="rgb(100%, 0%, 0%)" stroke-opacity="1" stroke-miterlimit="10" d="M -48.580656 126.354688 L 132.106844 126.354688 L 170.005281 80.702344 " transform="matrix(1, 0, 0, -1, 57.358, 170.175)"/>
<path fill="none" stroke-width="0.3985" stroke-linecap="butt" stroke-linejoin="miter" stroke="rgb(100%, 0%, 0%)" stroke-opacity="1" stroke-miterlimit="10" d="M -48.580656 120.651563 L 146.681062 120.651563 L 170.005281 80.702344 " transform="matrix(1, 0, 0, -1, 57.358, 170.175)"/>
<path fill="none" stroke-width="0.3985" stroke-linecap="butt" stroke-linejoin="miter" stroke="rgb(100%, 0%, 0%)" stroke-opacity="1" stroke-miterlimit="10" d="M -48.580656 114.944531 L 159.309969 114.944531 L 170.005281 80.702344 " transform="matrix(1, 0, 0, -1, 57.358, 170.175)"/>
<path fill="none" stroke-width="0.3985" stroke-linecap="butt" stroke-linejoin="miter" stroke="rgb(100%, 0%, 0%)" stroke-opacity="1" stroke-miterlimit="10" d="M -48.580656 109.2375 L 169.997469 109.2375 L 170.005281 80.702344 " transform="matrix(1, 0, 0, -1, 57.358, 170.175)"/>
<path fill="none" stroke-width="0.3985" stroke-linecap="butt" stroke-linejoin="miter" stroke="rgb(100%, 0%, 0%)" stroke-opacity="1" stroke-miterlimit="10" d="M -48.580656 103.530469 L 178.739656 103.530469 L 170.005281 80.702344 " transform="matrix(1, 0, 0, -1, 57.358, 170.175)"/>
<path fill="none" stroke-width="0.3985" stroke-linecap="butt" stroke-linejoin="miter" stroke="rgb(100%, 0%, 0%)" stroke-opacity="1" stroke-miterlimit="10" d="M -48.580656 97.827344 L 185.540437 97.827344 L 170.005281 80.702344 " transform="matrix(1, 0, 0, -1, 57.358, 170.175)"/>
<path fill="none" stroke-width="0.3985" stroke-linecap="butt" stroke-linejoin="miter" stroke="rgb(100%, 0%, 0%)" stroke-opacity="1" stroke-miterlimit="10" d="M -48.580656 92.120313 L 190.399812 92.120313 L 170.005281 80.702344 " transform="matrix(1, 0, 0, -1, 57.358, 170.175)"/>
<path fill="none" stroke-width="0.3985" stroke-linecap="butt" stroke-linejoin="miter" stroke="rgb(100%, 0%, 0%)" stroke-opacity="1" stroke-miterlimit="10" d="M -48.580656 86.413281 L 193.317781 86.413281 L 170.005281 80.702344 " transform="matrix(1, 0, 0, -1, 57.358, 170.175)"/>
<path fill="none" stroke-width="0.3985" stroke-linecap="butt" stroke-linejoin="miter" stroke="rgb(100%, 0%, 0%)" stroke-opacity="1" stroke-miterlimit="10" d="M -48.580656 80.70625 L 194.290437 80.70625 L 170.005281 80.702344 " transform="matrix(1, 0, 0, -1, 57.358, 170.175)"/>
<path fill="none" stroke-width="0.3985" stroke-linecap="butt" stroke-linejoin="miter" stroke="rgb(100%, 0%, 0%)" stroke-opacity="1" stroke-miterlimit="10" d="M -48.580656 75.003125 L 193.321687 75.003125 L 170.005281 80.702344 " transform="matrix(1, 0, 0, -1, 57.358, 170.175)"/>
<path fill="none" stroke-width="0.3985" stroke-linecap="butt" stroke-linejoin="miter" stroke="rgb(100%, 0%, 0%)" stroke-opacity="1" stroke-miterlimit="10" d="M -48.580656 69.296094 L 190.411531 69.296094 L 170.005281 80.702344 " transform="matrix(1, 0, 0, -1, 57.358, 170.175)"/>
<path fill="none" stroke-width="0.3985" stroke-linecap="butt" stroke-linejoin="miter" stroke="rgb(100%, 0%, 0%)" stroke-opacity="1" stroke-miterlimit="10" d="M -48.580656 63.589063 L 185.556062 63.589063 L 170.005281 80.702344 " transform="matrix(1, 0, 0, -1, 57.358, 170.175)"/>
<path fill="none" stroke-width="0.3985" stroke-linecap="butt" stroke-linejoin="miter" stroke="rgb(100%, 0%, 0%)" stroke-opacity="1" stroke-miterlimit="10" d="M -48.580656 57.885938 L 178.759187 57.885938 L 170.005281 80.702344 " transform="matrix(1, 0, 0, -1, 57.358, 170.175)"/>
<path fill="none" stroke-width="0.3985" stroke-linecap="butt" stroke-linejoin="miter" stroke="rgb(100%, 0%, 0%)" stroke-opacity="1" stroke-miterlimit="10" d="M -48.580656 52.178906 L 170.020906 52.178906 L 170.005281 80.702344 " transform="matrix(1, 0, 0, -1, 57.358, 170.175)"/>
<path fill="none" stroke-width="0.3985" stroke-linecap="butt" stroke-linejoin="miter" stroke="rgb(100%, 0%, 0%)" stroke-opacity="1" stroke-miterlimit="10" d="M -48.580656 46.471875 L 159.337312 46.471875 L 170.005281 80.702344 " transform="matrix(1, 0, 0, -1, 57.358, 170.175)"/>
<path fill="none" stroke-width="0.3985" stroke-linecap="butt" stroke-linejoin="miter" stroke="rgb(100%, 0%, 0%)" stroke-opacity="1" stroke-miterlimit="10" d="M -48.580656 40.764844 L 146.712312 40.764844 L 170.005281 80.702344 " transform="matrix(1, 0, 0, -1, 57.358, 170.175)"/>
<path fill="none" stroke-width="0.3985" stroke-linecap="butt" stroke-linejoin="miter" stroke="rgb(100%, 0%, 0%)" stroke-opacity="1" stroke-miterlimit="10" d="M -48.580656 35.061719 L 132.145906 35.061719 L 170.005281 80.702344 " transform="matrix(1, 0, 0, -1, 57.358, 170.175)"/>
<path fill="none" stroke-width="0.3985" stroke-linecap="butt" stroke-linejoin="miter" stroke="rgb(100%, 0%, 0%)" stroke-opacity="1" stroke-miterlimit="10" d="M -48.580656 29.354688 L 115.634187 29.354688 L 170.005281 80.702344 " transform="matrix(1, 0, 0, -1, 57.358, 170.175)"/>
<path fill="none" stroke-width="0.3985" stroke-linecap="butt" stroke-linejoin="miter" stroke="rgb(100%, 0%, 0%)" stroke-opacity="1" stroke-miterlimit="10" d="M -48.580656 23.647656 L 97.184969 23.647656 L 170.005281 80.702344 " transform="matrix(1, 0, 0, -1, 57.358, 170.175)"/>
<path fill="none" stroke-width="0.3985" stroke-linecap="butt" stroke-linejoin="miter" stroke="rgb(100%, 0%, 0%)" stroke-opacity="1" stroke-miterlimit="10" d="M -48.580656 17.940625 L 76.786531 17.940625 L 170.005281 80.702344 " transform="matrix(1, 0, 0, -1, 57.358, 170.175)"/>
<path fill="none" stroke-width="0.3985" stroke-linecap="butt" stroke-linejoin="miter" stroke="rgb(100%, 0%, 0%)" stroke-opacity="1" stroke-miterlimit="10" d="M -48.580656 12.2375 L 54.450594 12.2375 L 170.005281 80.702344 " transform="matrix(1, 0, 0, -1, 57.358, 170.175)"/>
<path fill="none" stroke-width="0.3985" stroke-linecap="butt" stroke-linejoin="miter" stroke="rgb(100%, 0%, 0%)" stroke-opacity="1" stroke-miterlimit="10" d="M -48.580656 6.530469 L 30.169344 6.530469 L 170.005281 80.702344 " transform="matrix(1, 0, 0, -1, 57.358, 170.175)"/>
<path fill="none" stroke-width="0.3985" stroke-linecap="butt" stroke-linejoin="miter" stroke="rgb(100%, 0%, 0%)" stroke-opacity="1" stroke-miterlimit="10" d="M -48.580656 0.823438 L 3.946688 0.823438 L 170.005281 80.702344 " transform="matrix(1, 0, 0, -1, 57.358, 170.175)"/>
</svg>
