<?xml version="1.0" encoding="UTF-8"?>
<svg xmlns="http://www.w3.org/2000/svg" xmlns:xlink="http://www.w3.org/1999/xlink" width="253.752pt" height="170.374pt" viewBox="0 0 253.752 170.374" version="1.1">
<defs>
<clipPath id="clip1">
  <path d="M 47 0 L 253 0 L 253 170.375 L 47 170.375 Z M 47 0 "/>
</clipPath>
<clipPath id="clip2">
  <path d="M 0 79 L 229 79 L 229 170.375 L 0 170.375 Z M 0 79 "/>
</clipPath>
</defs>
<g id="surface1">
<path style=" stroke:none;fill-rule:nonzero;fill:rgb(0%,0%,0%);fill-opacity:1;" d="M 0 170.375 L 0 -0.00390625 L 253.753906 -0.00390625 L 253.753906 170.375 Z M 0 170.375 "/>
<path style=" stroke:none;fill-rule:nonzero;fill:rgb(0%,0%,0%);fill-opacity:1;" d="M 0 170.375 L 0 -0.00390625 L 253.753906 -0.00390625 L 253.753906 170.375 Z M 0 170.375 "/>
<g clip-path="url(#clip1)" clip-rule="nonzero">
<path style="fill:none;stroke-width:0.3985;stroke-linecap:butt;stroke-linejoin:miter;stroke:rgb(100%,100%,100%);stroke-opacity:1;stroke-miterlimit:10;" d="M -0.00159375 -0.00171875 C -0.00159375 -0.00171875 5.635125 1.177969 7.771844 1.631094 C 9.904656 2.084219 13.291375 2.806875 15.381219 3.26 C 17.474969 3.713125 20.791375 4.439687 22.83825 4.888906 C 24.881219 5.342031 28.127312 6.068594 30.131219 6.521719 C 32.135125 6.974844 35.310906 7.6975 37.267937 8.150625 C 39.224969 8.60375 42.330437 9.330312 44.2445 9.783437 C 46.158562 10.232656 49.193719 10.959219 51.064812 11.412344 C 52.935906 11.865469 55.896844 12.588125 57.724969 13.04125 C 59.553094 13.494375 62.443719 14.220937 64.228875 14.674062 C 66.010125 15.123281 68.830437 15.849844 70.568719 16.302969 C 72.307 16.756094 75.060906 17.482656 76.756219 17.931875 C 78.447625 18.385 81.131219 19.111562 82.779656 19.564687 C 84.432 20.013906 87.041375 20.740469 88.65075 21.193594 C 90.256219 21.646719 92.795281 22.373281 94.357781 22.8225 C 95.920281 23.275625 98.389031 24.002187 99.908562 24.455312 C 101.428094 24.908437 103.826531 25.631094 105.299187 26.084219 C 106.77575 26.537344 109.103875 27.263906 110.533562 27.713125 C 111.96325 28.16625 114.221062 28.892812 115.607781 29.345937 C 116.9945 29.799062 119.182 30.521719 120.52575 30.974844 C 121.865594 31.427969 123.982781 32.154531 125.283562 32.607656 C 126.580437 33.056875 128.627312 33.783437 129.881219 34.236562 C 131.135125 34.689687 133.111687 35.412344 134.322625 35.865469 C 135.533562 36.318594 137.439812 37.045156 138.603875 37.498281 C 139.771844 37.9475 141.603875 38.674062 142.728875 39.127187 C 143.849969 39.580312 145.615594 40.302969 146.693719 40.756094 C 147.771844 41.209219 149.46325 41.935781 150.498406 42.388906 C 151.533562 42.838125 153.154656 43.564687 154.146844 44.017812 C 155.135125 44.470937 156.689812 45.1975 157.635125 45.646719 C 158.580437 46.099844 160.064812 46.826406 160.96325 47.279531 C 161.865594 47.732656 163.279656 48.455312 164.135125 48.908437 C 164.9945 49.361562 166.334344 50.088125 167.15075 50.537344 C 167.96325 50.990469 169.232781 51.717031 170.006219 52.170156 C 170.77575 52.623281 171.974969 53.345937 172.701531 53.799062 C 173.428094 54.252187 174.557 54.97875 175.236687 55.427969 C 175.920281 55.881094 176.978875 56.607656 177.615594 57.060781 C 178.256219 57.513906 179.2445 58.236562 179.83825 58.689687 C 180.432 59.142812 181.349969 59.869375 181.90075 60.3225 C 182.447625 60.771719 183.295281 61.498281 183.803094 61.951406 C 184.307 62.404531 185.084344 63.127187 185.545281 63.580312 C 186.010125 64.033437 186.71325 64.76 187.131219 65.213125 C 187.549187 65.662344 188.185906 66.388906 188.560906 66.842031 C 188.935906 67.295156 189.498406 68.017812 189.830437 68.470937 C 190.158562 68.924062 190.654656 69.650625 190.939812 70.10375 C 191.224969 70.552969 191.65075 71.279531 191.892937 71.732656 C 192.131219 72.185781 192.486687 72.912344 192.685906 73.361562 C 192.881219 73.814687 193.166375 74.54125 193.318719 74.994375 C 193.471062 75.4475 193.685906 76.170156 193.795281 76.623281 C 193.904656 77.076406 194.045281 77.802969 194.111687 78.252187 C 194.178094 78.705312 194.248406 79.431875 194.271844 79.885 C 194.291375 80.338125 194.291375 81.060781 194.271844 81.513906 C 194.248406 81.967031 194.178094 82.693594 194.111687 83.142812 C 194.045281 83.595937 193.904656 84.3225 193.795281 84.775625 C 193.685906 85.22875 193.474969 85.951406 193.318719 86.404531 C 193.166375 86.857656 192.885125 87.584219 192.685906 88.037344 C 192.486687 88.486562 192.135125 89.213125 191.892937 89.66625 C 191.65075 90.119375 191.228875 90.842031 190.939812 91.295156 C 190.654656 91.748281 190.162469 92.474844 189.830437 92.927969 C 189.502312 93.377187 188.935906 94.10375 188.564812 94.556875 C 188.189812 95.01 187.553094 95.736562 187.135125 96.185781 C 186.717156 96.638906 186.014031 97.365469 185.549187 97.818594 C 185.08825 98.267812 184.310906 98.994375 183.807 99.4475 C 183.299187 99.900625 182.455437 100.627187 181.904656 101.076406 C 181.353875 101.529531 180.435906 102.256094 179.842156 102.709219 C 179.248406 103.162344 178.260125 103.885 177.623406 104.338125 C 176.982781 104.79125 175.924187 105.517812 175.2445 105.967031 C 174.560906 106.420156 173.432 107.146719 172.705437 107.599844 C 171.978875 108.052969 170.779656 108.775625 170.010125 109.22875 C 169.240594 109.681875 167.971062 110.408437 167.158562 110.861562 C 166.342156 111.310781 165.002312 112.037344 164.142937 112.490469 C 163.287469 112.943594 161.873406 113.66625 160.971062 114.119375 C 160.068719 114.5725 158.58825 115.299062 157.642937 115.752187 C 156.697625 116.201406 155.142937 116.927969 154.154656 117.381094 C 153.162469 117.834219 151.541375 118.556875 150.506219 119.01 C 149.471062 119.463125 147.779656 120.189687 146.701531 120.642812 C 145.623406 121.092031 143.857781 121.818594 142.736687 122.271719 C 141.615594 122.724844 139.779656 123.451406 138.611687 123.900625 C 137.447625 124.35375 135.541375 125.080312 134.330437 125.533437 C 133.123406 125.986562 131.146844 126.709219 129.892937 127.162344 C 128.639031 127.615469 126.592156 128.342031 125.291375 128.79125 C 123.9945 129.244375 121.877312 129.970937 120.537469 130.424062 C 119.193719 130.877187 117.006219 131.599844 115.6195 132.052969 C 114.232781 132.506094 111.974969 133.232656 110.545281 133.681875 C 109.115594 134.135 106.787469 134.861562 105.310906 135.314687 C 103.83825 135.767812 101.439812 136.490469 99.920281 136.943594 C 98.404656 137.396719 95.932 138.123281 94.3695 138.576406 C 92.807 139.025625 90.267937 139.752187 88.662469 140.205312 C 87.057 140.658437 84.443719 141.381094 82.795281 141.834219 C 81.142937 142.287344 78.46325 143.013906 76.767937 143.467031 C 75.076531 143.91625 72.322625 144.642812 70.584344 145.095937 C 68.846062 145.549062 66.021844 146.271719 64.240594 146.724844 C 62.459344 147.177969 59.564812 147.904531 57.740594 148.357656 C 55.912469 148.806875 52.947625 149.533437 51.080437 149.986562 C 49.209344 150.439687 46.174187 151.16625 44.260125 151.615469 C 42.346062 152.068594 39.240594 152.795156 37.283562 153.248281 C 35.326531 153.701406 32.15075 154.424062 30.146844 154.877187 C 28.142937 155.330312 24.896844 156.056875 22.853875 156.506094 C 20.807 156.959219 17.490594 157.685781 15.40075 158.138906 C 13.310906 158.592031 9.920281 159.314687 7.787469 159.767812 C 5.654656 160.220937 0.0179375 161.396719 0.0179375 161.396719 " transform="matrix(1,0,0,-1,53.068,165.885)"/>
</g>
<path style="fill:none;stroke-width:0.3985;stroke-linecap:butt;stroke-linejoin:miter;stroke:rgb(100%,0%,0%);stroke-opacity:1;stroke-miterlimit:10;" d="M -48.579719 160.592031 L 3.881219 160.592031 L 170.002312 80.701406 " transform="matrix(1,0,0,-1,53.068,165.885)"/>
<path style="fill:none;stroke-width:0.3985;stroke-linecap:butt;stroke-linejoin:miter;stroke:rgb(100%,0%,0%);stroke-opacity:1;stroke-miterlimit:10;" d="M -48.579719 154.885 L 30.111687 154.885 L 170.002312 80.701406 " transform="matrix(1,0,0,-1,53.068,165.885)"/>
<path style="fill:none;stroke-width:0.3985;stroke-linecap:butt;stroke-linejoin:miter;stroke:rgb(100%,0%,0%);stroke-opacity:1;stroke-miterlimit:10;" d="M -48.579719 149.177969 L 54.392937 149.177969 L 170.002312 80.701406 " transform="matrix(1,0,0,-1,53.068,165.885)"/>
<path style="fill:none;stroke-width:0.3985;stroke-linecap:butt;stroke-linejoin:miter;stroke:rgb(100%,0%,0%);stroke-opacity:1;stroke-miterlimit:10;" d="M -48.579719 143.474844 L 76.736687 143.474844 L 170.002312 80.701406 " transform="matrix(1,0,0,-1,53.068,165.885)"/>
<path style="fill:none;stroke-width:0.3985;stroke-linecap:butt;stroke-linejoin:miter;stroke:rgb(100%,0%,0%);stroke-opacity:1;stroke-miterlimit:10;" d="M -48.579719 137.767812 L 97.135125 137.767812 L 170.002312 80.701406 " transform="matrix(1,0,0,-1,53.068,165.885)"/>
<path style="fill:none;stroke-width:0.3985;stroke-linecap:butt;stroke-linejoin:miter;stroke:rgb(100%,0%,0%);stroke-opacity:1;stroke-miterlimit:10;" d="M -48.579719 132.060781 L 115.592156 132.060781 L 170.002312 80.701406 " transform="matrix(1,0,0,-1,53.068,165.885)"/>
<path style="fill:none;stroke-width:0.3985;stroke-linecap:butt;stroke-linejoin:miter;stroke:rgb(100%,0%,0%);stroke-opacity:1;stroke-miterlimit:10;" d="M -48.579719 126.357656 L 132.107781 126.357656 L 170.002312 80.701406 " transform="matrix(1,0,0,-1,53.068,165.885)"/>
<path style="fill:none;stroke-width:0.3985;stroke-linecap:butt;stroke-linejoin:miter;stroke:rgb(100%,0%,0%);stroke-opacity:1;stroke-miterlimit:10;" d="M -48.579719 120.650625 L 146.678094 120.650625 L 170.002312 80.701406 " transform="matrix(1,0,0,-1,53.068,165.885)"/>
<path style="fill:none;stroke-width:0.3985;stroke-linecap:butt;stroke-linejoin:miter;stroke:rgb(100%,0%,0%);stroke-opacity:1;stroke-miterlimit:10;" d="M -48.579719 114.943594 L 159.310906 114.943594 L 170.002312 80.701406 " transform="matrix(1,0,0,-1,53.068,165.885)"/>
<path style="fill:none;stroke-width:0.3985;stroke-linecap:butt;stroke-linejoin:miter;stroke:rgb(100%,0%,0%);stroke-opacity:1;stroke-miterlimit:10;" d="M -48.579719 109.236562 L 169.9945 109.236562 L 170.002312 80.701406 " transform="matrix(1,0,0,-1,53.068,165.885)"/>
<path style="fill:none;stroke-width:0.3985;stroke-linecap:butt;stroke-linejoin:miter;stroke:rgb(100%,0%,0%);stroke-opacity:1;stroke-miterlimit:10;" d="M -48.579719 103.533437 L 178.740594 103.533437 L 170.002312 80.701406 " transform="matrix(1,0,0,-1,53.068,165.885)"/>
<path style="fill:none;stroke-width:0.3985;stroke-linecap:butt;stroke-linejoin:miter;stroke:rgb(100%,0%,0%);stroke-opacity:1;stroke-miterlimit:10;" d="M -48.579719 97.826406 L 185.541375 97.826406 L 170.002312 80.701406 " transform="matrix(1,0,0,-1,53.068,165.885)"/>
<path style="fill:none;stroke-width:0.3985;stroke-linecap:butt;stroke-linejoin:miter;stroke:rgb(100%,0%,0%);stroke-opacity:1;stroke-miterlimit:10;" d="M -48.579719 92.119375 L 190.40075 92.119375 L 170.002312 80.701406 " transform="matrix(1,0,0,-1,53.068,165.885)"/>
<path style="fill:none;stroke-width:0.3985;stroke-linecap:butt;stroke-linejoin:miter;stroke:rgb(100%,0%,0%);stroke-opacity:1;stroke-miterlimit:10;" d="M -48.579719 86.412344 L 193.318719 86.412344 L 170.002312 80.701406 " transform="matrix(1,0,0,-1,53.068,165.885)"/>
<path style="fill:none;stroke-width:0.3985;stroke-linecap:butt;stroke-linejoin:miter;stroke:rgb(100%,0%,0%);stroke-opacity:1;stroke-miterlimit:10;" d="M -48.579719 80.709219 L 194.291375 80.709219 L 170.002312 80.701406 " transform="matrix(1,0,0,-1,53.068,165.885)"/>
<path style="fill:none;stroke-width:0.3985;stroke-linecap:butt;stroke-linejoin:miter;stroke:rgb(100%,0%,0%);stroke-opacity:1;stroke-miterlimit:10;" d="M -48.579719 75.002187 L 193.322625 75.002187 L 170.002312 80.701406 " transform="matrix(1,0,0,-1,53.068,165.885)"/>
<path style="fill:none;stroke-width:0.3985;stroke-linecap:butt;stroke-linejoin:miter;stroke:rgb(100%,0%,0%);stroke-opacity:1;stroke-miterlimit:10;" d="M -48.579719 69.295156 L 190.408562 69.295156 L 170.002312 80.701406 " transform="matrix(1,0,0,-1,53.068,165.885)"/>
<path style="fill:none;stroke-width:0.3985;stroke-linecap:butt;stroke-linejoin:miter;stroke:rgb(100%,0%,0%);stroke-opacity:1;stroke-miterlimit:10;" d="M -48.579719 63.592031 L 185.557 63.592031 L 170.002312 80.701406 " transform="matrix(1,0,0,-1,53.068,165.885)"/>
<path style="fill:none;stroke-width:0.3985;stroke-linecap:butt;stroke-linejoin:miter;stroke:rgb(100%,0%,0%);stroke-opacity:1;stroke-miterlimit:10;" d="M -48.579719 57.885 L 178.760125 57.885 L 170.002312 80.701406 " transform="matrix(1,0,0,-1,53.068,165.885)"/>
<path style="fill:none;stroke-width:0.3985;stroke-linecap:butt;stroke-linejoin:miter;stroke:rgb(100%,0%,0%);stroke-opacity:1;stroke-miterlimit:10;" d="M -48.579719 52.177969 L 170.021844 52.177969 L 170.002312 80.701406 " transform="matrix(1,0,0,-1,53.068,165.885)"/>
<path style="fill:none;stroke-width:0.3985;stroke-linecap:butt;stroke-linejoin:miter;stroke:rgb(100%,0%,0%);stroke-opacity:1;stroke-miterlimit:10;" d="M -48.579719 46.470937 L 159.33825 46.470937 L 170.002312 80.701406 " transform="matrix(1,0,0,-1,53.068,165.885)"/>
<path style="fill:none;stroke-width:0.3985;stroke-linecap:butt;stroke-linejoin:miter;stroke:rgb(100%,0%,0%);stroke-opacity:1;stroke-miterlimit:10;" d="M -48.579719 40.767812 L 146.71325 40.767812 L 170.002312 80.701406 " transform="matrix(1,0,0,-1,53.068,165.885)"/>
<path style="fill:none;stroke-width:0.3985;stroke-linecap:butt;stroke-linejoin:miter;stroke:rgb(100%,0%,0%);stroke-opacity:1;stroke-miterlimit:10;" d="M -48.579719 35.060781 L 132.146844 35.060781 L 170.002312 80.701406 " transform="matrix(1,0,0,-1,53.068,165.885)"/>
<path style="fill:none;stroke-width:0.3985;stroke-linecap:butt;stroke-linejoin:miter;stroke:rgb(100%,0%,0%);stroke-opacity:1;stroke-miterlimit:10;" d="M -48.579719 29.35375 L 115.635125 29.35375 L 170.002312 80.701406 " transform="matrix(1,0,0,-1,53.068,165.885)"/>
<path style="fill:none;stroke-width:0.3985;stroke-linecap:butt;stroke-linejoin:miter;stroke:rgb(100%,0%,0%);stroke-opacity:1;stroke-miterlimit:10;" d="M -48.579719 23.646719 L 97.182 23.646719 L 170.002312 80.701406 " transform="matrix(1,0,0,-1,53.068,165.885)"/>
<path style="fill:none;stroke-width:0.3985;stroke-linecap:butt;stroke-linejoin:miter;stroke:rgb(100%,0%,0%);stroke-opacity:1;stroke-miterlimit:10;" d="M -48.579719 17.943594 L 76.787469 17.943594 L 170.002312 80.701406 " transform="matrix(1,0,0,-1,53.068,165.885)"/>
<path style="fill:none;stroke-width:0.3985;stroke-linecap:butt;stroke-linejoin:miter;stroke:rgb(100%,0%,0%);stroke-opacity:1;stroke-miterlimit:10;" d="M -48.579719 12.236562 L 54.451531 12.236562 L 170.002312 80.701406 " transform="matrix(1,0,0,-1,53.068,165.885)"/>
<path style="fill:none;stroke-width:0.3985;stroke-linecap:butt;stroke-linejoin:miter;stroke:rgb(100%,0%,0%);stroke-opacity:1;stroke-miterlimit:10;" d="M -48.579719 6.529531 L 30.170281 6.529531 L 170.002312 80.701406 " transform="matrix(1,0,0,-1,53.068,165.885)"/>
<g clip-path="url(#clip2)" clip-rule="nonzero">
<path style="fill:none;stroke-width:0.3985;stroke-linecap:butt;stroke-linejoin:miter;stroke:rgb(100%,0%,0%);stroke-opacity:1;stroke-miterlimit:10;" d="M -48.579719 0.8225 L 3.947625 0.8225 L 170.002312 80.701406 " transform="matrix(1,0,0,-1,53.068,165.885)"/>
</g>
</g>
</svg>
