<?xml version="1.0" encoding="UTF-8"?>
<svg xmlns="http://www.w3.org/2000/svg" xmlns:xlink="http://www.w3.org/1999/xlink" width="254.15pt" height="170.772pt" viewBox="0 0 254.15 170.772" version="1.1">
<defs>
<clipPath id="clip1">
  <path d="M 0 0 L 254 0 L 254 170.773438 L 0 170.773438 Z M 0 0 "/>
</clipPath>
<clipPath id="clip2">
  <path d="M 0 0 L 254.148438 0 L 254.148438 170.773438 L 0 170.773438 Z M 0 0 "/>
</clipPath>
<clipPath id="clip3">
  <path d="M 0 0 L 254 0 L 254 170.773438 L 0 170.773438 Z M 0 0 "/>
</clipPath>
<clipPath id="clip4">
  <path d="M 0 0 L 254.148438 0 L 254.148438 170.773438 L 0 170.773438 Z M 0 0 "/>
</clipPath>
<clipPath id="clip5">
  <path d="M 47 0 L 254 0 L 254 170.773438 L 47 170.773438 Z M 47 0 "/>
</clipPath>
<clipPath id="clip6">
  <path d="M 0 79 L 229 79 L 229 170.773438 L 0 170.773438 Z M 0 79 "/>
</clipPath>
</defs>
<g id="surface1">
<g clip-path="url(#clip1)" clip-rule="nonzero">
<path style=" stroke:none;fill-rule:nonzero;fill:rgb(0%,0%,0%);fill-opacity:1;" d="M 0.199219 170.574219 L 0.199219 0.195312 L 253.953125 0.195312 L 253.953125 170.574219 Z M 0.199219 170.574219 "/>
</g>
<g clip-path="url(#clip2)" clip-rule="nonzero">
<path style="fill:none;stroke-width:0.3985;stroke-linecap:butt;stroke-linejoin:miter;stroke:rgb(100%,100%,100%);stroke-opacity:1;stroke-miterlimit:10;" d="M -53.067781 -4.490219 L -53.067781 165.888688 L 200.686125 165.888688 L 200.686125 -4.490219 Z M -53.067781 -4.490219 " transform="matrix(1,0,0,-1,53.267,166.084)"/>
</g>
<g clip-path="url(#clip3)" clip-rule="nonzero">
<path style=" stroke:none;fill-rule:nonzero;fill:rgb(0%,0%,0%);fill-opacity:1;" d="M 0.199219 170.574219 L 0.199219 0.195312 L 253.953125 0.195312 L 253.953125 170.574219 Z M 0.199219 170.574219 "/>
</g>
<g clip-path="url(#clip4)" clip-rule="nonzero">
<path style="fill:none;stroke-width:0.3985;stroke-linecap:butt;stroke-linejoin:miter;stroke:rgb(100%,100%,100%);stroke-opacity:1;stroke-miterlimit:10;" d="M -53.067781 -4.490219 L -53.067781 165.888688 L 200.686125 165.888688 L 200.686125 -4.490219 Z M -53.067781 -4.490219 " transform="matrix(1,0,0,-1,53.267,166.084)"/>
</g>
<g clip-path="url(#clip5)" clip-rule="nonzero">
<path style="fill:none;stroke-width:0.3985;stroke-linecap:butt;stroke-linejoin:miter;stroke:rgb(100%,100%,100%);stroke-opacity:1;stroke-miterlimit:10;" d="M -0.001375 -0.0019375 C -0.001375 -0.0019375 5.635344 1.17775 7.772062 1.630875 C 9.904875 2.084 13.291594 2.806656 15.381437 3.259781 C 17.471281 3.712906 20.791594 4.439469 22.834562 4.892594 C 24.881437 5.341813 28.127531 6.068375 30.131437 6.5215 C 32.135344 6.974625 35.311125 7.697281 37.268156 8.150406 C 39.225187 8.603531 42.330656 9.330094 44.244719 9.783219 C 46.158781 10.232438 49.193937 10.959 51.065031 11.412125 C 52.936125 11.86525 55.897062 12.591813 57.725187 13.041031 C 59.549406 13.494156 62.443937 14.220719 64.225188 14.673844 C 66.010344 15.123063 68.830656 15.849625 70.568938 16.30275 C 72.307219 16.755875 75.061125 17.482438 76.756438 17.931656 C 78.447844 18.384781 81.131438 19.111344 82.779875 19.564469 C 84.432219 20.017594 87.041594 20.74025 88.650969 21.193375 C 90.256438 21.6465 92.7955 22.373063 94.358 22.822281 C 95.9205 23.275406 98.38925 24.001969 99.908781 24.455094 C 101.428313 24.908219 103.82675 25.630875 105.299406 26.084 C 106.775969 26.537125 109.104094 27.263688 110.533781 27.716813 C 111.963469 28.166031 114.221281 28.892594 115.608 29.345719 C 116.994719 29.798844 119.182219 30.5215 120.525969 30.974625 C 121.865813 31.42775 123.983 32.154313 125.283781 32.607438 C 126.580656 33.056656 128.627531 33.783219 129.881438 34.236344 C 131.135344 34.689469 133.111906 35.412125 134.322844 35.86525 C 135.533781 36.318375 137.436125 37.044938 138.604094 37.498063 C 139.772063 37.947281 141.604094 38.673844 142.729094 39.126969 C 143.850188 39.580094 145.615813 40.306656 146.693938 40.755875 C 147.772063 41.209 149.463469 41.935563 150.498625 42.388688 C 151.533781 42.841813 153.154875 43.564469 154.147063 44.017594 C 155.135344 44.470719 156.690031 45.197281 157.635344 45.6465 C 158.580656 46.099625 160.061125 46.826188 160.963469 47.279313 C 161.865813 47.732438 163.279875 48.455094 164.135344 48.908219 C 164.994719 49.361344 166.334563 50.087906 167.150969 50.537125 C 167.963469 50.99025 169.233 51.716813 170.006438 52.169938 C 170.775969 52.623063 171.975188 53.345719 172.70175 53.798844 C 173.428313 54.251969 174.557219 54.978531 175.236906 55.431656 C 175.9205 55.880875 176.979094 56.607438 177.615813 57.060563 C 178.256438 57.513688 179.244719 58.236344 179.838469 58.689469 C 180.432219 59.142594 181.350188 59.869156 181.900969 60.322281 C 182.447844 60.7715 183.2955 61.498063 183.803313 61.951188 C 184.307219 62.404313 185.084563 63.126969 185.5455 63.580094 C 186.010344 64.033219 186.713469 64.759781 187.131438 65.212906 C 187.549406 65.662125 188.186125 66.388688 188.561125 66.841813 C 188.936125 67.294938 189.498625 68.0215 189.830656 68.470719 C 190.158781 68.923844 190.654875 69.650406 190.940031 70.103531 C 191.225188 70.556656 191.647063 71.279313 191.88925 71.732438 C 192.131438 72.185563 192.486906 72.912125 192.682219 73.361344 C 192.881438 73.814469 193.162688 74.541031 193.318938 74.994156 C 193.471281 75.447281 193.686125 76.169938 193.7955 76.623063 C 193.904875 77.076188 194.0455 77.80275 194.111906 78.251969 C 194.178313 78.705094 194.248625 79.431656 194.272063 79.884781 C 194.291594 80.337906 194.291594 81.060563 194.272063 81.513688 C 194.248625 81.966813 194.178313 82.693375 194.111906 83.1465 C 194.0455 83.595719 193.904875 84.322281 193.7955 84.775406 C 193.686125 85.228531 193.475188 85.951188 193.318938 86.404313 C 193.166594 86.857438 192.885344 87.584 192.686125 88.037125 C 192.486906 88.486344 192.135344 89.212906 191.893156 89.666031 C 191.650969 90.119156 191.229094 90.845719 190.940031 91.294938 C 190.654875 91.748063 190.162688 92.474625 189.830656 92.92775 C 189.502531 93.376969 188.936125 94.103531 188.565031 94.556656 C 188.190031 95.009781 187.553313 95.736344 187.135344 96.185563 C 186.717375 96.638688 186.01425 97.36525 185.549406 97.818375 C 185.088469 98.2715 184.311125 98.994156 183.807219 99.447281 C 183.299406 99.900406 182.45175 100.626969 181.904875 101.076188 C 181.354094 101.529313 180.436125 102.255875 179.842375 102.709 C 179.248625 103.162125 178.260344 103.884781 177.623625 104.337906 C 176.983 104.791031 175.924406 105.517594 175.244719 105.970719 C 174.561125 106.419938 173.432219 107.1465 172.705656 107.599625 C 171.979094 108.05275 170.779875 108.775406 170.010344 109.228531 C 169.240813 109.681656 167.971281 110.408219 167.154875 110.861344 C 166.342375 111.310563 165.002531 112.037125 164.143156 112.49025 C 163.283781 112.943375 161.873625 113.666031 160.971281 114.119156 C 160.068938 114.572281 158.588469 115.298844 157.643156 115.751969 C 156.697844 116.201188 155.143156 116.92775 154.154875 117.380875 C 153.162688 117.834 151.541594 118.560563 150.506438 119.009781 C 149.471281 119.462906 147.779875 120.189469 146.70175 120.642594 C 145.623625 121.095719 143.858 121.818375 142.736906 122.2715 C 141.615813 122.724625 139.779875 123.451188 138.611906 123.900406 C 137.447844 124.353531 135.541594 125.080094 134.330656 125.533219 C 133.123625 125.986344 131.147063 126.709 129.893156 127.162125 C 128.63925 127.61525 126.592375 128.341813 125.291594 128.791031 C 123.994719 129.244156 121.877531 129.970719 120.537688 130.423844 C 119.193938 130.876969 117.006438 131.599625 115.619719 132.05275 C 114.233 132.505875 111.975188 133.232438 110.5455 133.685563 C 109.115813 134.134781 106.787688 134.861344 105.311125 135.314469 C 103.838469 135.767594 101.440031 136.49025 99.9205 136.943375 C 98.400969 137.3965 95.932219 138.123063 94.369719 138.576188 C 92.807219 139.025406 90.268156 139.751969 88.662688 140.205094 C 87.057219 140.658219 84.443938 141.380875 82.7955 141.834 C 81.143156 142.287125 78.463469 143.013688 76.768156 143.466813 C 75.072844 143.916031 72.322844 144.642594 70.584563 145.095719 C 68.846281 145.548844 66.022063 146.275406 64.240813 146.724625 C 62.459562 147.17775 59.565031 147.904313 57.740812 148.357438 C 55.912687 148.810563 52.947844 149.533219 51.080656 149.986344 C 49.209562 150.439469 46.174406 151.166031 44.260344 151.61525 C 42.346281 152.068375 39.240812 152.794938 37.283781 153.248063 C 35.32675 153.701188 32.150969 154.423844 30.147062 154.876969 C 28.143156 155.330094 24.897062 156.056656 22.854094 156.505875 C 20.807219 156.959 17.490812 157.685563 15.400969 158.138688 C 13.311125 158.591813 9.9205 159.314469 7.787687 159.767594 C 5.654875 160.220719 0.0181562 161.400406 0.0181562 161.400406 " transform="matrix(1,0,0,-1,53.267,166.084)"/>
</g>
<path style="fill:none;stroke-width:0.3985;stroke-linecap:butt;stroke-linejoin:miter;stroke:rgb(100%,0%,0%);stroke-opacity:1;stroke-miterlimit:10;" d="M -48.5795 160.591813 L 3.881437 160.591813 L 170.002531 80.701188 " transform="matrix(1,0,0,-1,53.267,166.084)"/>
<path style="fill:none;stroke-width:0.3985;stroke-linecap:butt;stroke-linejoin:miter;stroke:rgb(100%,0%,0%);stroke-opacity:1;stroke-miterlimit:10;" d="M -48.5795 154.884781 L 30.111906 154.884781 L 170.002531 80.701188 " transform="matrix(1,0,0,-1,53.267,166.084)"/>
<path style="fill:none;stroke-width:0.3985;stroke-linecap:butt;stroke-linejoin:miter;stroke:rgb(100%,0%,0%);stroke-opacity:1;stroke-miterlimit:10;" d="M -48.5795 149.181656 L 54.393156 149.181656 L 170.002531 80.701188 " transform="matrix(1,0,0,-1,53.267,166.084)"/>
<path style="fill:none;stroke-width:0.3985;stroke-linecap:butt;stroke-linejoin:miter;stroke:rgb(100%,0%,0%);stroke-opacity:1;stroke-miterlimit:10;" d="M -48.5795 143.474625 L 76.736906 143.474625 L 170.002531 80.701188 " transform="matrix(1,0,0,-1,53.267,166.084)"/>
<path style="fill:none;stroke-width:0.3985;stroke-linecap:butt;stroke-linejoin:miter;stroke:rgb(100%,0%,0%);stroke-opacity:1;stroke-miterlimit:10;" d="M -48.5795 137.767594 L 97.135344 137.767594 L 170.002531 80.701188 " transform="matrix(1,0,0,-1,53.267,166.084)"/>
<path style="fill:none;stroke-width:0.3985;stroke-linecap:butt;stroke-linejoin:miter;stroke:rgb(100%,0%,0%);stroke-opacity:1;stroke-miterlimit:10;" d="M -48.5795 132.060563 L 115.592375 132.060563 L 170.002531 80.701188 " transform="matrix(1,0,0,-1,53.267,166.084)"/>
<path style="fill:none;stroke-width:0.3985;stroke-linecap:butt;stroke-linejoin:miter;stroke:rgb(100%,0%,0%);stroke-opacity:1;stroke-miterlimit:10;" d="M -48.5795 126.357438 L 132.108 126.357438 L 170.002531 80.701188 " transform="matrix(1,0,0,-1,53.267,166.084)"/>
<path style="fill:none;stroke-width:0.3985;stroke-linecap:butt;stroke-linejoin:miter;stroke:rgb(100%,0%,0%);stroke-opacity:1;stroke-miterlimit:10;" d="M -48.5795 120.650406 L 146.678313 120.650406 L 170.002531 80.701188 " transform="matrix(1,0,0,-1,53.267,166.084)"/>
<path style="fill:none;stroke-width:0.3985;stroke-linecap:butt;stroke-linejoin:miter;stroke:rgb(100%,0%,0%);stroke-opacity:1;stroke-miterlimit:10;" d="M -48.5795 114.943375 L 159.307219 114.943375 L 170.002531 80.701188 " transform="matrix(1,0,0,-1,53.267,166.084)"/>
<path style="fill:none;stroke-width:0.3985;stroke-linecap:butt;stroke-linejoin:miter;stroke:rgb(100%,0%,0%);stroke-opacity:1;stroke-miterlimit:10;" d="M -48.5795 109.236344 L 169.994719 109.236344 L 170.002531 80.701188 " transform="matrix(1,0,0,-1,53.267,166.084)"/>
<path style="fill:none;stroke-width:0.3985;stroke-linecap:butt;stroke-linejoin:miter;stroke:rgb(100%,0%,0%);stroke-opacity:1;stroke-miterlimit:10;" d="M -48.5795 103.533219 L 178.740813 103.533219 L 170.002531 80.701188 " transform="matrix(1,0,0,-1,53.267,166.084)"/>
<path style="fill:none;stroke-width:0.3985;stroke-linecap:butt;stroke-linejoin:miter;stroke:rgb(100%,0%,0%);stroke-opacity:1;stroke-miterlimit:10;" d="M -48.5795 97.826188 L 185.541594 97.826188 L 170.002531 80.701188 " transform="matrix(1,0,0,-1,53.267,166.084)"/>
<path style="fill:none;stroke-width:0.3985;stroke-linecap:butt;stroke-linejoin:miter;stroke:rgb(100%,0%,0%);stroke-opacity:1;stroke-miterlimit:10;" d="M -48.5795 92.119156 L 190.400969 92.119156 L 170.002531 80.701188 " transform="matrix(1,0,0,-1,53.267,166.084)"/>
<path style="fill:none;stroke-width:0.3985;stroke-linecap:butt;stroke-linejoin:miter;stroke:rgb(100%,0%,0%);stroke-opacity:1;stroke-miterlimit:10;" d="M -48.5795 86.412125 L 193.318938 86.412125 L 170.002531 80.701188 " transform="matrix(1,0,0,-1,53.267,166.084)"/>
<path style="fill:none;stroke-width:0.3985;stroke-linecap:butt;stroke-linejoin:miter;stroke:rgb(100%,0%,0%);stroke-opacity:1;stroke-miterlimit:10;" d="M -48.5795 80.709 L 194.291594 80.709 L 170.002531 80.701188 " transform="matrix(1,0,0,-1,53.267,166.084)"/>
<path style="fill:none;stroke-width:0.3985;stroke-linecap:butt;stroke-linejoin:miter;stroke:rgb(100%,0%,0%);stroke-opacity:1;stroke-miterlimit:10;" d="M -48.5795 75.001969 L 193.322844 75.001969 L 170.002531 80.701188 " transform="matrix(1,0,0,-1,53.267,166.084)"/>
<path style="fill:none;stroke-width:0.3985;stroke-linecap:butt;stroke-linejoin:miter;stroke:rgb(100%,0%,0%);stroke-opacity:1;stroke-miterlimit:10;" d="M -48.5795 69.294938 L 190.408781 69.294938 L 170.002531 80.701188 " transform="matrix(1,0,0,-1,53.267,166.084)"/>
<path style="fill:none;stroke-width:0.3985;stroke-linecap:butt;stroke-linejoin:miter;stroke:rgb(100%,0%,0%);stroke-opacity:1;stroke-miterlimit:10;" d="M -48.5795 63.591813 L 185.557219 63.591813 L 170.002531 80.701188 " transform="matrix(1,0,0,-1,53.267,166.084)"/>
<path style="fill:none;stroke-width:0.3985;stroke-linecap:butt;stroke-linejoin:miter;stroke:rgb(100%,0%,0%);stroke-opacity:1;stroke-miterlimit:10;" d="M -48.5795 57.884781 L 178.760344 57.884781 L 170.002531 80.701188 " transform="matrix(1,0,0,-1,53.267,166.084)"/>
<path style="fill:none;stroke-width:0.3985;stroke-linecap:butt;stroke-linejoin:miter;stroke:rgb(100%,0%,0%);stroke-opacity:1;stroke-miterlimit:10;" d="M -48.5795 52.17775 L 170.018156 52.17775 L 170.002531 80.701188 " transform="matrix(1,0,0,-1,53.267,166.084)"/>
<path style="fill:none;stroke-width:0.3985;stroke-linecap:butt;stroke-linejoin:miter;stroke:rgb(100%,0%,0%);stroke-opacity:1;stroke-miterlimit:10;" d="M -48.5795 46.470719 L 159.338469 46.470719 L 170.002531 80.701188 " transform="matrix(1,0,0,-1,53.267,166.084)"/>
<path style="fill:none;stroke-width:0.3985;stroke-linecap:butt;stroke-linejoin:miter;stroke:rgb(100%,0%,0%);stroke-opacity:1;stroke-miterlimit:10;" d="M -48.5795 40.767594 L 146.713469 40.767594 L 170.002531 80.701188 " transform="matrix(1,0,0,-1,53.267,166.084)"/>
<path style="fill:none;stroke-width:0.3985;stroke-linecap:butt;stroke-linejoin:miter;stroke:rgb(100%,0%,0%);stroke-opacity:1;stroke-miterlimit:10;" d="M -48.5795 35.060563 L 132.147063 35.060563 L 170.002531 80.701188 " transform="matrix(1,0,0,-1,53.267,166.084)"/>
<path style="fill:none;stroke-width:0.3985;stroke-linecap:butt;stroke-linejoin:miter;stroke:rgb(100%,0%,0%);stroke-opacity:1;stroke-miterlimit:10;" d="M -48.5795 29.353531 L 115.635344 29.353531 L 170.002531 80.701188 " transform="matrix(1,0,0,-1,53.267,166.084)"/>
<path style="fill:none;stroke-width:0.3985;stroke-linecap:butt;stroke-linejoin:miter;stroke:rgb(100%,0%,0%);stroke-opacity:1;stroke-miterlimit:10;" d="M -48.5795 23.6465 L 97.182219 23.6465 L 170.002531 80.701188 " transform="matrix(1,0,0,-1,53.267,166.084)"/>
<path style="fill:none;stroke-width:0.3985;stroke-linecap:butt;stroke-linejoin:miter;stroke:rgb(100%,0%,0%);stroke-opacity:1;stroke-miterlimit:10;" d="M -48.5795 17.943375 L 76.787688 17.943375 L 170.002531 80.701188 " transform="matrix(1,0,0,-1,53.267,166.084)"/>
<path style="fill:none;stroke-width:0.3985;stroke-linecap:butt;stroke-linejoin:miter;stroke:rgb(100%,0%,0%);stroke-opacity:1;stroke-miterlimit:10;" d="M -48.5795 12.236344 L 54.45175 12.236344 L 170.002531 80.701188 " transform="matrix(1,0,0,-1,53.267,166.084)"/>
<path style="fill:none;stroke-width:0.3985;stroke-linecap:butt;stroke-linejoin:miter;stroke:rgb(100%,0%,0%);stroke-opacity:1;stroke-miterlimit:10;" d="M -48.5795 6.529313 L 30.1705 6.529313 L 170.002531 80.701188 " transform="matrix(1,0,0,-1,53.267,166.084)"/>
<g clip-path="url(#clip6)" clip-rule="nonzero">
<path style="fill:none;stroke-width:0.3985;stroke-linecap:butt;stroke-linejoin:miter;stroke:rgb(100%,0%,0%);stroke-opacity:1;stroke-miterlimit:10;" d="M -48.5795 0.822281 L 3.947844 0.822281 L 170.002531 80.701188 " transform="matrix(1,0,0,-1,53.267,166.084)"/>
</g>
</g>
</svg>
