<?xml version="1.0" encoding="UTF-8"?>
<svg xmlns="http://www.w3.org/2000/svg" xmlns:xlink="http://www.w3.org/1999/xlink" width="245.173pt" height="161.795pt" viewBox="0 0 245.173 161.795" version="1.1">
<defs>
<clipPath id="clip1">
  <path d="M 43 0 L 245.171875 0 L 245.171875 161.796875 L 43 161.796875 Z M 43 0 "/>
</clipPath>
<clipPath id="clip2">
  <path d="M 0 69 L 245.171875 69 L 245.171875 87 L 0 87 Z M 0 69 "/>
</clipPath>
<clipPath id="clip3">
  <path d="M 0 75 L 245.171875 75 L 245.171875 87 L 0 87 Z M 0 75 "/>
</clipPath>
<clipPath id="clip4">
  <path d="M 0 75 L 245.171875 75 L 245.171875 93 L 0 93 Z M 0 75 "/>
</clipPath>
<clipPath id="clip5">
  <path d="M 0 75 L 225 75 L 225 161.796875 L 0 161.796875 Z M 0 75 "/>
</clipPath>
</defs>
<g id="surface1">
<g clip-path="url(#clip1)" clip-rule="nonzero">
<path style="fill:none;stroke-width:0.3985;stroke-linecap:butt;stroke-linejoin:miter;stroke:rgb(0%,0%,0%);stroke-opacity:1;stroke-miterlimit:10;" d="M -0.00165625 -0.00165625 C -0.00165625 -0.00165625 5.635062 1.178031 7.771781 1.631156 C 9.904594 2.084281 13.291312 2.806937 15.381156 3.260062 C 17.474906 3.713187 20.791312 4.43975 22.838187 4.888969 C 24.881156 5.342094 28.12725 6.068656 30.131156 6.521781 C 32.135062 6.974906 35.310844 7.697562 37.267875 8.150687 C 39.224906 8.603812 42.330375 9.330375 44.244437 9.7835 C 46.1585 10.232719 49.193656 10.959281 51.06475 11.412406 C 52.935844 11.865531 55.896781 12.588187 57.724906 13.041312 C 59.553031 13.494437 62.443656 14.221 64.228813 14.674125 C 66.010063 15.123344 68.830375 15.849906 70.568656 16.303031 C 72.306938 16.756156 75.060844 17.478812 76.756156 17.931937 C 78.451469 18.385062 81.131156 19.111625 82.779594 19.56475 C 84.431938 20.013969 87.041313 20.740531 88.650688 21.193656 C 90.256156 21.646781 92.795219 22.373344 94.357719 22.822562 C 95.920219 23.275687 98.388969 24.00225 99.9085 24.455375 C 101.428031 24.9085 103.826469 25.631156 105.299125 26.084281 C 106.775688 26.537406 109.103813 27.263969 110.5335 27.713187 C 111.963188 28.166312 114.221 28.892875 115.607719 29.346 C 116.994438 29.799125 119.181938 30.521781 120.525688 30.974906 C 121.865531 31.428031 123.982719 32.154594 125.2835 32.607719 C 126.580375 33.056937 128.62725 33.7835 129.881156 34.236625 C 131.135063 34.68975 133.111625 35.412406 134.322563 35.865531 C 135.5335 36.318656 137.43975 37.045219 138.603813 37.498344 C 139.771781 37.947562 141.603813 38.674125 142.728813 39.12725 C 143.849906 39.580375 145.615531 40.303031 146.693656 40.756156 C 147.771781 41.209281 149.463188 41.935844 150.498344 42.388969 C 151.5335 42.838187 153.154594 43.56475 154.146781 44.017875 C 155.135063 44.471 156.68975 45.197562 157.635063 45.646781 C 158.580375 46.099906 160.06475 46.826469 160.963188 47.279594 C 161.865531 47.728812 163.279594 48.455375 164.135063 48.9085 C 164.994438 49.361625 166.334281 50.088187 167.150688 50.537406 C 167.963188 50.990531 169.232719 51.717094 170.006156 52.170219 C 170.775688 52.623344 171.974906 53.346 172.701469 53.799125 C 173.428031 54.25225 174.556938 54.978812 175.236625 55.428031 C 175.920219 55.881156 176.978813 56.607719 177.615531 57.060844 C 178.256156 57.513969 179.244438 58.236625 179.838188 58.68975 C 180.431938 59.142875 181.349906 59.869437 181.900688 60.322562 C 182.447563 60.771781 183.295219 61.498344 183.803031 61.951469 C 184.306938 62.404594 185.084281 63.12725 185.545219 63.580375 C 186.010063 64.0335 186.713188 64.760062 187.131156 65.213187 C 187.549125 65.662406 188.185844 66.388969 188.560844 66.842094 C 188.935844 67.295219 189.498344 68.017875 189.830375 68.471 C 190.1585 68.924125 190.654594 69.650687 190.93975 70.103812 C 191.224906 70.553031 191.650688 71.279594 191.892875 71.732719 C 192.135063 72.185844 192.486625 72.912406 192.685844 73.361625 C 192.881156 73.81475 193.166313 74.541312 193.318656 74.994437 C 193.471 75.447562 193.685844 76.170219 193.795219 76.623344 C 193.904594 77.076469 194.045219 77.803031 194.111625 78.25225 C 194.178031 78.705375 194.248344 79.431937 194.271781 79.885062 C 194.291313 80.338187 194.291313 81.060844 194.271781 81.513969 C 194.248344 81.967094 194.178031 82.693656 194.111625 83.142875 C 194.045219 83.596 193.904594 84.322562 193.795219 84.775687 C 193.685844 85.228812 193.474906 85.951469 193.318656 86.404594 C 193.166313 86.857719 192.885063 87.584281 192.685844 88.037406 C 192.486625 88.486625 192.135063 89.213187 191.892875 89.666312 C 191.650688 90.119437 191.228813 90.842094 190.943656 91.295219 C 190.654594 91.748344 190.162406 92.474906 189.830375 92.928031 C 189.50225 93.37725 188.935844 94.103812 188.56475 94.556937 C 188.18975 95.010062 187.553031 95.732719 187.135063 96.185844 C 186.717094 96.638969 186.013969 97.365531 185.549125 97.818656 C 185.088188 98.267875 184.310844 98.994437 183.806938 99.447562 C 183.299125 99.900687 182.455375 100.62725 181.904594 101.076469 C 181.353813 101.529594 180.435844 102.256156 179.842094 102.709281 C 179.248344 103.162406 178.260063 103.885062 177.623344 104.338187 C 176.982719 104.791312 175.924125 105.517875 175.244438 105.967094 C 174.560844 106.420219 173.431938 107.146781 172.705375 107.599906 C 171.978813 108.053031 170.779594 108.775687 170.010063 109.228812 C 169.240531 109.681937 167.971 110.4085 167.1585 110.857719 C 166.342094 111.310844 165.00225 112.037406 164.142875 112.490531 C 163.287406 112.943656 161.873344 113.666312 160.971 114.119437 C 160.068656 114.572562 158.588188 115.299125 157.642875 115.75225 C 156.697563 116.201469 155.142875 116.928031 154.154594 117.381156 C 153.162406 117.834281 151.541313 118.556937 150.506156 119.010062 C 149.471 119.463187 147.779594 120.18975 146.701469 120.642875 C 145.623344 121.092094 143.857719 121.818656 142.736625 122.271781 C 141.615531 122.724906 139.779594 123.451469 138.611625 123.900687 C 137.447563 124.353812 135.541313 125.080375 134.330375 125.5335 C 133.123344 125.982719 131.146781 126.709281 129.892875 127.162406 C 128.638969 127.615531 126.592094 128.342094 125.291313 128.791312 C 123.994438 129.244437 121.87725 129.971 120.537406 130.424125 C 119.193656 130.87725 117.006156 131.599906 115.619438 132.053031 C 114.232719 132.506156 111.974906 133.232719 110.545219 133.681937 C 109.115531 134.135062 106.787406 134.861625 105.310844 135.31475 C 103.838188 135.767875 101.43975 136.490531 99.920219 136.943656 C 98.404594 137.396781 95.931938 138.123344 94.369438 138.576469 C 92.810844 139.025687 90.267875 139.75225 88.662406 140.205375 C 87.056938 140.6585 84.443656 141.381156 82.795219 141.834281 C 81.142875 142.287406 78.463188 143.013969 76.767875 143.467094 C 75.076469 143.916312 72.322563 144.642875 70.584281 145.096 C 68.846 145.549125 66.021781 146.271781 64.240531 146.724906 C 62.459281 147.178031 59.56475 147.904594 57.740531 148.357719 C 55.912406 148.806937 52.951469 149.5335 51.080375 149.986625 C 49.209281 150.43975 46.174125 151.166312 44.260062 151.615531 C 42.346 152.068656 39.240531 152.795219 37.2835 153.248344 C 35.326469 153.701469 32.150687 154.424125 30.146781 154.87725 C 28.146781 155.330375 24.896781 156.056937 22.853812 156.506156 C 20.806937 156.959281 17.490531 157.685844 15.400687 158.138969 C 13.310844 158.592094 9.920219 159.31475 7.787406 159.767875 C 5.654594 160.221 0.017875 161.396781 0.017875 161.396781 " transform="matrix(1,0,0,-1,48.779,161.596)"/>
</g>
<path style="fill:none;stroke-width:0.3985;stroke-linecap:butt;stroke-linejoin:miter;stroke:rgb(100%,0%,0%);stroke-opacity:1;stroke-miterlimit:10;" d="M -48.579781 160.592094 L 3.881156 160.592094 L 170.00225 80.701469 " transform="matrix(1,0,0,-1,48.779,161.596)"/>
<path style="fill:none;stroke-width:0.3985;stroke-linecap:butt;stroke-linejoin:miter;stroke:rgb(100%,0%,0%);stroke-opacity:1;stroke-miterlimit:10;" d="M -48.579781 154.885062 L 30.111625 154.885062 L 170.00225 80.701469 " transform="matrix(1,0,0,-1,48.779,161.596)"/>
<path style="fill:none;stroke-width:0.3985;stroke-linecap:butt;stroke-linejoin:miter;stroke:rgb(100%,0%,0%);stroke-opacity:1;stroke-miterlimit:10;" d="M -48.579781 149.178031 L 54.392875 149.178031 L 170.00225 80.701469 " transform="matrix(1,0,0,-1,48.779,161.596)"/>
<path style="fill:none;stroke-width:0.3985;stroke-linecap:butt;stroke-linejoin:miter;stroke:rgb(100%,0%,0%);stroke-opacity:1;stroke-miterlimit:10;" d="M -48.579781 143.474906 L 76.736625 143.474906 L 170.00225 80.701469 " transform="matrix(1,0,0,-1,48.779,161.596)"/>
<path style="fill:none;stroke-width:0.3985;stroke-linecap:butt;stroke-linejoin:miter;stroke:rgb(100%,0%,0%);stroke-opacity:1;stroke-miterlimit:10;" d="M -48.579781 137.767875 L 97.135063 137.767875 L 170.00225 80.701469 " transform="matrix(1,0,0,-1,48.779,161.596)"/>
<path style="fill:none;stroke-width:0.3985;stroke-linecap:butt;stroke-linejoin:miter;stroke:rgb(100%,0%,0%);stroke-opacity:1;stroke-miterlimit:10;" d="M -48.579781 132.060844 L 115.592094 132.060844 L 170.00225 80.701469 " transform="matrix(1,0,0,-1,48.779,161.596)"/>
<path style="fill:none;stroke-width:0.3985;stroke-linecap:butt;stroke-linejoin:miter;stroke:rgb(100%,0%,0%);stroke-opacity:1;stroke-miterlimit:10;" d="M -48.579781 126.357719 L 132.107719 126.357719 L 170.00225 80.701469 " transform="matrix(1,0,0,-1,48.779,161.596)"/>
<path style="fill:none;stroke-width:0.3985;stroke-linecap:butt;stroke-linejoin:miter;stroke:rgb(100%,0%,0%);stroke-opacity:1;stroke-miterlimit:10;" d="M -48.579781 120.650687 L 146.678031 120.650687 L 170.00225 80.701469 " transform="matrix(1,0,0,-1,48.779,161.596)"/>
<path style="fill:none;stroke-width:0.3985;stroke-linecap:butt;stroke-linejoin:miter;stroke:rgb(100%,0%,0%);stroke-opacity:1;stroke-miterlimit:10;" d="M -48.579781 114.943656 L 159.310844 114.943656 L 170.00225 80.701469 " transform="matrix(1,0,0,-1,48.779,161.596)"/>
<path style="fill:none;stroke-width:0.3985;stroke-linecap:butt;stroke-linejoin:miter;stroke:rgb(100%,0%,0%);stroke-opacity:1;stroke-miterlimit:10;" d="M -48.579781 109.236625 L 169.994438 109.236625 L 170.00225 80.701469 " transform="matrix(1,0,0,-1,48.779,161.596)"/>
<path style="fill:none;stroke-width:0.3985;stroke-linecap:butt;stroke-linejoin:miter;stroke:rgb(100%,0%,0%);stroke-opacity:1;stroke-miterlimit:10;" d="M -48.579781 103.5335 L 178.740531 103.5335 L 170.00225 80.701469 " transform="matrix(1,0,0,-1,48.779,161.596)"/>
<path style="fill:none;stroke-width:0.3985;stroke-linecap:butt;stroke-linejoin:miter;stroke:rgb(100%,0%,0%);stroke-opacity:1;stroke-miterlimit:10;" d="M -48.579781 97.826469 L 185.541313 97.826469 L 170.00225 80.701469 " transform="matrix(1,0,0,-1,48.779,161.596)"/>
<path style="fill:none;stroke-width:0.3985;stroke-linecap:butt;stroke-linejoin:miter;stroke:rgb(100%,0%,0%);stroke-opacity:1;stroke-miterlimit:10;" d="M -48.579781 92.119437 L 190.400688 92.119437 L 170.00225 80.701469 " transform="matrix(1,0,0,-1,48.779,161.596)"/>
<g clip-path="url(#clip2)" clip-rule="nonzero">
<path style="fill:none;stroke-width:0.3985;stroke-linecap:butt;stroke-linejoin:miter;stroke:rgb(100%,0%,0%);stroke-opacity:1;stroke-miterlimit:10;" d="M -48.579781 86.412406 L 193.318656 86.412406 L 170.00225 80.701469 " transform="matrix(1,0,0,-1,48.779,161.596)"/>
</g>
<g clip-path="url(#clip3)" clip-rule="nonzero">
<path style="fill:none;stroke-width:0.3985;stroke-linecap:butt;stroke-linejoin:miter;stroke:rgb(100%,0%,0%);stroke-opacity:1;stroke-miterlimit:10;" d="M -48.579781 80.709281 L 194.291313 80.709281 L 170.00225 80.701469 " transform="matrix(1,0,0,-1,48.779,161.596)"/>
</g>
<g clip-path="url(#clip4)" clip-rule="nonzero">
<path style="fill:none;stroke-width:0.3985;stroke-linecap:butt;stroke-linejoin:miter;stroke:rgb(100%,0%,0%);stroke-opacity:1;stroke-miterlimit:10;" d="M -48.579781 75.00225 L 193.322563 75.00225 L 170.00225 80.701469 " transform="matrix(1,0,0,-1,48.779,161.596)"/>
</g>
<path style="fill:none;stroke-width:0.3985;stroke-linecap:butt;stroke-linejoin:miter;stroke:rgb(100%,0%,0%);stroke-opacity:1;stroke-miterlimit:10;" d="M -48.579781 69.295219 L 190.4085 69.295219 L 170.00225 80.701469 " transform="matrix(1,0,0,-1,48.779,161.596)"/>
<path style="fill:none;stroke-width:0.3985;stroke-linecap:butt;stroke-linejoin:miter;stroke:rgb(100%,0%,0%);stroke-opacity:1;stroke-miterlimit:10;" d="M -48.579781 63.588187 L 185.556938 63.588187 L 170.00225 80.701469 " transform="matrix(1,0,0,-1,48.779,161.596)"/>
<path style="fill:none;stroke-width:0.3985;stroke-linecap:butt;stroke-linejoin:miter;stroke:rgb(100%,0%,0%);stroke-opacity:1;stroke-miterlimit:10;" d="M -48.579781 57.885062 L 178.760063 57.885062 L 170.00225 80.701469 " transform="matrix(1,0,0,-1,48.779,161.596)"/>
<path style="fill:none;stroke-width:0.3985;stroke-linecap:butt;stroke-linejoin:miter;stroke:rgb(100%,0%,0%);stroke-opacity:1;stroke-miterlimit:10;" d="M -48.579781 52.178031 L 170.021781 52.178031 L 170.00225 80.701469 " transform="matrix(1,0,0,-1,48.779,161.596)"/>
<path style="fill:none;stroke-width:0.3985;stroke-linecap:butt;stroke-linejoin:miter;stroke:rgb(100%,0%,0%);stroke-opacity:1;stroke-miterlimit:10;" d="M -48.579781 46.471 L 159.338188 46.471 L 170.00225 80.701469 " transform="matrix(1,0,0,-1,48.779,161.596)"/>
<path style="fill:none;stroke-width:0.3985;stroke-linecap:butt;stroke-linejoin:miter;stroke:rgb(100%,0%,0%);stroke-opacity:1;stroke-miterlimit:10;" d="M -48.579781 40.767875 L 146.713188 40.767875 L 170.00225 80.701469 " transform="matrix(1,0,0,-1,48.779,161.596)"/>
<path style="fill:none;stroke-width:0.3985;stroke-linecap:butt;stroke-linejoin:miter;stroke:rgb(100%,0%,0%);stroke-opacity:1;stroke-miterlimit:10;" d="M -48.579781 35.060844 L 132.146781 35.060844 L 170.00225 80.701469 " transform="matrix(1,0,0,-1,48.779,161.596)"/>
<path style="fill:none;stroke-width:0.3985;stroke-linecap:butt;stroke-linejoin:miter;stroke:rgb(100%,0%,0%);stroke-opacity:1;stroke-miterlimit:10;" d="M -48.579781 29.353812 L 115.635063 29.353812 L 170.00225 80.701469 " transform="matrix(1,0,0,-1,48.779,161.596)"/>
<path style="fill:none;stroke-width:0.3985;stroke-linecap:butt;stroke-linejoin:miter;stroke:rgb(100%,0%,0%);stroke-opacity:1;stroke-miterlimit:10;" d="M -48.579781 23.646781 L 97.181938 23.646781 L 170.00225 80.701469 " transform="matrix(1,0,0,-1,48.779,161.596)"/>
<path style="fill:none;stroke-width:0.3985;stroke-linecap:butt;stroke-linejoin:miter;stroke:rgb(100%,0%,0%);stroke-opacity:1;stroke-miterlimit:10;" d="M -48.579781 17.943656 L 76.787406 17.943656 L 170.00225 80.701469 " transform="matrix(1,0,0,-1,48.779,161.596)"/>
<path style="fill:none;stroke-width:0.3985;stroke-linecap:butt;stroke-linejoin:miter;stroke:rgb(100%,0%,0%);stroke-opacity:1;stroke-miterlimit:10;" d="M -48.579781 12.236625 L 54.451469 12.236625 L 170.00225 80.701469 " transform="matrix(1,0,0,-1,48.779,161.596)"/>
<path style="fill:none;stroke-width:0.3985;stroke-linecap:butt;stroke-linejoin:miter;stroke:rgb(100%,0%,0%);stroke-opacity:1;stroke-miterlimit:10;" d="M -48.579781 6.529594 L 30.170219 6.529594 L 170.00225 80.701469 " transform="matrix(1,0,0,-1,48.779,161.596)"/>
<g clip-path="url(#clip5)" clip-rule="nonzero">
<path style="fill:none;stroke-width:0.3985;stroke-linecap:butt;stroke-linejoin:miter;stroke:rgb(100%,0%,0%);stroke-opacity:1;stroke-miterlimit:10;" d="M -48.579781 0.822562 L 3.947562 0.822562 L 170.00225 80.701469 " transform="matrix(1,0,0,-1,48.779,161.596)"/>
</g>
</g>
</svg>
