<?xml version="1.0" encoding="UTF-8"?>
<svg xmlns="http://www.w3.org/2000/svg" xmlns:xlink="http://www.w3.org/1999/xlink" width="130.696pt" height="125.644pt" viewBox="0 0 130.696 125.644" version="1.1">
<defs>
<clipPath id="clip1">
  <path d="M 0 0 L 130.695312 0 L 130.695312 125.644531 L 0 125.644531 Z M 0 0 "/>
</clipPath>
<clipPath id="clip2">
  <path d="M 0 48 L 130.695312 48 L 130.695312 69 L 0 69 Z M 0 48 "/>
</clipPath>
<clipPath id="clip3">
  <path d="M 0 52 L 130.695312 52 L 130.695312 69 L 0 69 Z M 0 52 "/>
</clipPath>
<clipPath id="clip4">
  <path d="M 0 57 L 130.695312 57 L 130.695312 69 L 0 69 Z M 0 57 "/>
</clipPath>
<clipPath id="clip5">
  <path d="M 0 57 L 130.695312 57 L 130.695312 73 L 0 73 Z M 0 57 "/>
</clipPath>
<clipPath id="clip6">
  <path d="M 0 57 L 130.695312 57 L 130.695312 78 L 0 78 Z M 0 57 "/>
</clipPath>
<clipPath id="clip7">
  <path d="M 0 57 L 119 57 L 119 125.644531 L 0 125.644531 Z M 0 57 "/>
</clipPath>
</defs>
<g id="surface1">
<g clip-path="url(#clip1)" clip-rule="nonzero">
<path style="fill:none;stroke-width:0.3985;stroke-linecap:butt;stroke-linejoin:miter;stroke:rgb(0%,0%,0%);stroke-opacity:1;stroke-miterlimit:10;" d="M 0.00021875 -0.0003125 C 0.00021875 -0.0003125 3.633031 0.91375 5.008031 1.265313 C 6.386938 1.616875 8.570531 2.179375 9.918188 2.530938 C 11.265844 2.8825 13.402563 3.445 14.722875 3.796563 C 16.043188 4.148125 18.133031 4.710625 19.426 5.062188 C 20.715063 5.409844 22.765844 5.97625 24.027563 6.323906 C 25.289281 6.675469 27.289281 7.237969 28.523656 7.589531 C 29.758031 7.941094 31.715063 8.503594 32.922094 8.855156 C 34.129125 9.206719 36.039281 9.769219 37.215063 10.120781 C 38.39475 10.472344 40.258031 11.034844 41.406469 11.386406 C 42.554906 11.737969 44.375219 12.300469 45.496313 12.652031 C 46.617406 13.003594 48.390844 13.566094 49.484594 13.917656 C 50.578344 14.269219 52.304906 14.831719 53.371313 15.183281 C 54.433813 15.530938 56.117406 16.097344 57.152563 16.445 C 58.187719 16.796563 59.824438 17.359063 60.83225 17.710625 C 61.840063 18.062188 63.433813 18.624688 64.410375 18.97625 C 65.390844 19.327813 66.937719 19.890313 67.886938 20.241875 C 68.840063 20.593438 70.340063 21.155938 71.261938 21.5075 C 72.183813 21.859063 73.640844 22.421563 74.535375 22.773125 C 75.426 23.124688 76.836156 23.687188 77.703344 24.03875 C 78.570531 24.390313 79.933813 24.952813 80.76975 25.304375 C 81.605688 25.652031 82.926 26.218438 83.734594 26.566094 C 84.543188 26.917656 85.816625 27.480156 86.597875 27.831719 C 87.379125 28.183281 88.605688 28.745781 89.359594 29.097344 C 90.109594 29.448906 91.293188 30.011406 92.015844 30.362969 C 92.742406 30.714531 93.879125 31.277031 94.574438 31.628594 C 95.26975 31.980156 96.359594 32.542656 97.027563 32.894219 C 97.695531 33.245781 98.742406 33.808281 99.379125 34.159844 C 100.015844 34.511406 101.01975 35.073906 101.629125 35.425469 C 102.2385 35.773125 103.195531 36.339531 103.773656 36.687188 C 104.355688 37.03875 105.265844 37.60125 105.820531 37.952813 C 106.375219 38.304375 107.2385 38.866875 107.761938 39.218438 C 108.289281 39.57 109.105688 40.1325 109.601781 40.484063 C 110.097875 40.835625 110.871313 41.398125 111.340063 41.749688 C 111.808813 42.10125 112.539281 42.66375 112.976781 43.015313 C 113.418188 43.366875 114.097875 43.929375 114.511938 44.280938 C 114.922094 44.628594 115.558813 45.195 115.941625 45.542656 C 116.324438 45.894219 116.918188 46.456719 117.26975 46.808281 C 117.625219 47.159844 118.172094 47.722344 118.500219 48.073906 C 118.824438 48.425469 119.324438 48.987969 119.625219 49.339531 C 119.922094 49.691094 120.375219 50.253594 120.64475 50.605156 C 120.914281 50.956719 121.324438 51.519219 121.566625 51.870781 C 121.808813 52.222344 122.172094 52.784844 122.383031 53.136406 C 122.597875 53.487969 122.914281 54.050469 123.101781 54.402031 C 123.285375 54.749688 123.558813 55.316094 123.715063 55.66375 C 123.871313 56.015313 124.097875 56.577813 124.222875 56.929375 C 124.351781 57.280938 124.535375 57.843438 124.633031 58.195 C 124.734594 58.546563 124.871313 59.109063 124.941625 59.460625 C 125.011938 59.812188 125.101781 60.374688 125.14475 60.72625 C 125.187719 61.077813 125.234594 61.640313 125.246313 61.991875 C 125.261938 62.343438 125.261938 62.905938 125.246313 63.2575 C 125.234594 63.609063 125.187719 64.171563 125.14475 64.523125 C 125.101781 64.870781 125.011938 65.437188 124.941625 65.784844 C 124.871313 66.136406 124.734594 66.698906 124.633031 67.050469 C 124.535375 67.402031 124.351781 67.964531 124.226781 68.316094 C 124.097875 68.667656 123.871313 69.230156 123.715063 69.581719 C 123.558813 69.933281 123.285375 70.495781 123.101781 70.847344 C 122.918188 71.198906 122.597875 71.761406 122.386938 72.112969 C 122.172094 72.464531 121.808813 73.027031 121.566625 73.378594 C 121.328344 73.730156 120.918188 74.292656 120.648656 74.644219 C 120.379125 74.991875 119.922094 75.558281 119.625219 75.905938 C 119.328344 76.2575 118.828344 76.82 118.500219 77.171563 C 118.176 77.523125 117.629125 78.085625 117.273656 78.437188 C 116.918188 78.78875 116.328344 79.35125 115.945531 79.702813 C 115.562719 80.054375 114.926 80.616875 114.515844 80.968438 C 114.101781 81.32 113.422094 81.8825 112.980688 82.234063 C 112.539281 82.585625 111.812719 83.148125 111.343969 83.499688 C 110.875219 83.85125 110.101781 84.41375 109.605688 84.765313 C 109.109594 85.112969 108.293188 85.679375 107.765844 86.027031 C 107.242406 86.378594 106.379125 86.941094 105.824438 87.292656 C 105.26975 87.644219 104.3635 88.206719 103.781469 88.558281 C 103.199438 88.909844 102.242406 89.472344 101.633031 89.823906 C 101.023656 90.175469 100.023656 90.737969 99.383031 91.089531 C 98.746313 91.441094 97.699438 92.003594 97.031469 92.355156 C 96.367406 92.706719 95.273656 93.269219 94.578344 93.620781 C 93.883031 93.972344 92.746313 94.534844 92.023656 94.886406 C 91.301 95.234063 90.117406 95.800469 89.3635 96.148125 C 88.6135 96.499688 87.383031 97.062188 86.605688 97.41375 C 85.824438 97.765313 84.551 98.327813 83.742406 98.679375 C 82.933813 99.030938 81.6135 99.593438 80.777563 99.945 C 79.941625 100.296563 78.574438 100.859063 77.711156 101.210625 C 76.843969 101.562188 75.433813 102.124688 74.539281 102.47625 C 73.648656 102.827813 72.191625 103.390313 71.26975 103.741875 C 70.347875 104.089531 68.847875 104.655938 67.89475 105.003594 C 66.945531 105.355156 65.398656 105.917656 64.418188 106.269219 C 63.441625 106.620781 61.847875 107.183281 60.840063 107.534844 C 59.836156 107.886406 58.195531 108.448906 57.160375 108.800469 C 56.125219 109.152031 54.441625 109.714531 53.379125 110.066094 C 52.312719 110.417656 50.586156 110.980156 49.492406 111.331719 C 48.402563 111.683281 46.625219 112.245781 45.508031 112.597344 C 44.386938 112.948906 42.566625 113.511406 41.418188 113.862969 C 40.26975 114.210625 38.402563 114.777031 37.226781 115.124688 C 36.047094 115.47625 34.136938 116.03875 32.929906 116.390313 C 31.726781 116.741875 29.76975 117.304375 28.535375 117.655938 C 27.301 118.0075 25.301 118.57 24.035375 118.921563 C 22.773656 119.273125 20.726781 119.835625 19.437719 120.187188 C 18.14475 120.53875 16.051 121.10125 14.734594 121.452813 C 13.414281 121.804375 11.277563 122.366875 9.929906 122.718438 C 8.58225 123.07 6.398656 123.6325 5.01975 123.984063 C 3.64475 124.331719 0.0119375 125.245781 0.0119375 125.245781 " transform="matrix(1,0,0,-1,3.324,125.445)"/>
</g>
<path style="fill:none;stroke-width:0.3985;stroke-linecap:butt;stroke-linejoin:miter;stroke:rgb(100%,0%,0%);stroke-opacity:1;stroke-miterlimit:10;" d="M -0.0036875 124.620781 L 2.500219 124.620781 L 109.601781 62.624688 " transform="matrix(1,0,0,-1,3.324,125.445)"/>
<path style="fill:none;stroke-width:0.3985;stroke-linecap:butt;stroke-linejoin:miter;stroke:rgb(100%,0%,0%);stroke-opacity:1;stroke-miterlimit:10;" d="M -0.0036875 120.195 L 19.410375 120.195 L 109.601781 62.624688 " transform="matrix(1,0,0,-1,3.324,125.445)"/>
<path style="fill:none;stroke-width:0.3985;stroke-linecap:butt;stroke-linejoin:miter;stroke:rgb(100%,0%,0%);stroke-opacity:1;stroke-miterlimit:10;" d="M -0.0036875 115.765313 L 35.070531 115.765313 L 109.601781 62.624688 " transform="matrix(1,0,0,-1,3.324,125.445)"/>
<path style="fill:none;stroke-width:0.3985;stroke-linecap:butt;stroke-linejoin:miter;stroke:rgb(100%,0%,0%);stroke-opacity:1;stroke-miterlimit:10;" d="M -0.0036875 111.339531 L 49.472875 111.339531 L 109.601781 62.624688 " transform="matrix(1,0,0,-1,3.324,125.445)"/>
<path style="fill:none;stroke-width:0.3985;stroke-linecap:butt;stroke-linejoin:miter;stroke:rgb(100%,0%,0%);stroke-opacity:1;stroke-miterlimit:10;" d="M -0.0036875 106.909844 L 62.625219 106.909844 L 109.601781 62.624688 " transform="matrix(1,0,0,-1,3.324,125.445)"/>
<path style="fill:none;stroke-width:0.3985;stroke-linecap:butt;stroke-linejoin:miter;stroke:rgb(100%,0%,0%);stroke-opacity:1;stroke-miterlimit:10;" d="M -0.0036875 102.480156 L 74.523656 102.480156 L 109.601781 62.624688 " transform="matrix(1,0,0,-1,3.324,125.445)"/>
<path style="fill:none;stroke-width:0.3985;stroke-linecap:butt;stroke-linejoin:miter;stroke:rgb(100%,0%,0%);stroke-opacity:1;stroke-miterlimit:10;" d="M -0.0036875 98.054375 L 85.172094 98.054375 L 109.601781 62.624688 " transform="matrix(1,0,0,-1,3.324,125.445)"/>
<path style="fill:none;stroke-width:0.3985;stroke-linecap:butt;stroke-linejoin:miter;stroke:rgb(100%,0%,0%);stroke-opacity:1;stroke-miterlimit:10;" d="M -0.0036875 93.624688 L 94.566625 93.624688 L 109.601781 62.624688 " transform="matrix(1,0,0,-1,3.324,125.445)"/>
<path style="fill:none;stroke-width:0.3985;stroke-linecap:butt;stroke-linejoin:miter;stroke:rgb(100%,0%,0%);stroke-opacity:1;stroke-miterlimit:10;" d="M -0.0036875 89.198906 L 102.70725 89.198906 L 109.601781 62.624688 " transform="matrix(1,0,0,-1,3.324,125.445)"/>
<path style="fill:none;stroke-width:0.3985;stroke-linecap:butt;stroke-linejoin:miter;stroke:rgb(100%,0%,0%);stroke-opacity:1;stroke-miterlimit:10;" d="M -0.0036875 84.769219 L 109.597875 84.769219 L 109.601781 62.624688 " transform="matrix(1,0,0,-1,3.324,125.445)"/>
<path style="fill:none;stroke-width:0.3985;stroke-linecap:butt;stroke-linejoin:miter;stroke:rgb(100%,0%,0%);stroke-opacity:1;stroke-miterlimit:10;" d="M -0.0036875 80.343438 L 115.234594 80.343438 L 109.601781 62.624688 " transform="matrix(1,0,0,-1,3.324,125.445)"/>
<path style="fill:none;stroke-width:0.3985;stroke-linecap:butt;stroke-linejoin:miter;stroke:rgb(100%,0%,0%);stroke-opacity:1;stroke-miterlimit:10;" d="M -0.0036875 75.91375 L 119.621313 75.91375 L 109.601781 62.624688 " transform="matrix(1,0,0,-1,3.324,125.445)"/>
<g clip-path="url(#clip2)" clip-rule="nonzero">
<path style="fill:none;stroke-width:0.3985;stroke-linecap:butt;stroke-linejoin:miter;stroke:rgb(100%,0%,0%);stroke-opacity:1;stroke-miterlimit:10;" d="M -0.0036875 71.487969 L 122.754125 71.487969 L 109.601781 62.624688 " transform="matrix(1,0,0,-1,3.324,125.445)"/>
</g>
<g clip-path="url(#clip3)" clip-rule="nonzero">
<path style="fill:none;stroke-width:0.3985;stroke-linecap:butt;stroke-linejoin:miter;stroke:rgb(100%,0%,0%);stroke-opacity:1;stroke-miterlimit:10;" d="M -0.0036875 67.058281 L 124.633031 67.058281 L 109.601781 62.624688 " transform="matrix(1,0,0,-1,3.324,125.445)"/>
</g>
<g clip-path="url(#clip4)" clip-rule="nonzero">
<path style="fill:none;stroke-width:0.3985;stroke-linecap:butt;stroke-linejoin:miter;stroke:rgb(100%,0%,0%);stroke-opacity:1;stroke-miterlimit:10;" d="M -0.0036875 62.628594 L 125.261938 62.628594 L 109.601781 62.624688 " transform="matrix(1,0,0,-1,3.324,125.445)"/>
</g>
<g clip-path="url(#clip5)" clip-rule="nonzero">
<path style="fill:none;stroke-width:0.3985;stroke-linecap:butt;stroke-linejoin:miter;stroke:rgb(100%,0%,0%);stroke-opacity:1;stroke-miterlimit:10;" d="M -0.0036875 58.202813 L 124.636938 58.202813 L 109.601781 62.624688 " transform="matrix(1,0,0,-1,3.324,125.445)"/>
</g>
<g clip-path="url(#clip6)" clip-rule="nonzero">
<path style="fill:none;stroke-width:0.3985;stroke-linecap:butt;stroke-linejoin:miter;stroke:rgb(100%,0%,0%);stroke-opacity:1;stroke-miterlimit:10;" d="M -0.0036875 53.773125 L 122.758031 53.773125 L 109.601781 62.624688 " transform="matrix(1,0,0,-1,3.324,125.445)"/>
</g>
<path style="fill:none;stroke-width:0.3985;stroke-linecap:butt;stroke-linejoin:miter;stroke:rgb(100%,0%,0%);stroke-opacity:1;stroke-miterlimit:10;" d="M -0.0036875 49.347344 L 119.629125 49.347344 L 109.601781 62.624688 " transform="matrix(1,0,0,-1,3.324,125.445)"/>
<path style="fill:none;stroke-width:0.3985;stroke-linecap:butt;stroke-linejoin:miter;stroke:rgb(100%,0%,0%);stroke-opacity:1;stroke-miterlimit:10;" d="M -0.0036875 44.917656 L 115.246313 44.917656 L 109.601781 62.624688 " transform="matrix(1,0,0,-1,3.324,125.445)"/>
<path style="fill:none;stroke-width:0.3985;stroke-linecap:butt;stroke-linejoin:miter;stroke:rgb(100%,0%,0%);stroke-opacity:1;stroke-miterlimit:10;" d="M -0.0036875 40.491875 L 109.6135 40.491875 L 109.601781 62.624688 " transform="matrix(1,0,0,-1,3.324,125.445)"/>
<path style="fill:none;stroke-width:0.3985;stroke-linecap:butt;stroke-linejoin:miter;stroke:rgb(100%,0%,0%);stroke-opacity:1;stroke-miterlimit:10;" d="M -0.0036875 36.062188 L 102.726781 36.062188 L 109.601781 62.624688 " transform="matrix(1,0,0,-1,3.324,125.445)"/>
<path style="fill:none;stroke-width:0.3985;stroke-linecap:butt;stroke-linejoin:miter;stroke:rgb(100%,0%,0%);stroke-opacity:1;stroke-miterlimit:10;" d="M -0.0036875 31.636406 L 94.586156 31.636406 L 109.601781 62.624688 " transform="matrix(1,0,0,-1,3.324,125.445)"/>
<path style="fill:none;stroke-width:0.3985;stroke-linecap:butt;stroke-linejoin:miter;stroke:rgb(100%,0%,0%);stroke-opacity:1;stroke-miterlimit:10;" d="M -0.0036875 27.206719 L 85.195531 27.206719 L 109.601781 62.624688 " transform="matrix(1,0,0,-1,3.324,125.445)"/>
<path style="fill:none;stroke-width:0.3985;stroke-linecap:butt;stroke-linejoin:miter;stroke:rgb(100%,0%,0%);stroke-opacity:1;stroke-miterlimit:10;" d="M -0.0036875 22.780938 L 74.551 22.780938 L 109.601781 62.624688 " transform="matrix(1,0,0,-1,3.324,125.445)"/>
<path style="fill:none;stroke-width:0.3985;stroke-linecap:butt;stroke-linejoin:miter;stroke:rgb(100%,0%,0%);stroke-opacity:1;stroke-miterlimit:10;" d="M -0.0036875 18.35125 L 62.656469 18.35125 L 109.601781 62.624688 " transform="matrix(1,0,0,-1,3.324,125.445)"/>
<path style="fill:none;stroke-width:0.3985;stroke-linecap:butt;stroke-linejoin:miter;stroke:rgb(100%,0%,0%);stroke-opacity:1;stroke-miterlimit:10;" d="M -0.0036875 13.921563 L 49.504125 13.921563 L 109.601781 62.624688 " transform="matrix(1,0,0,-1,3.324,125.445)"/>
<path style="fill:none;stroke-width:0.3985;stroke-linecap:butt;stroke-linejoin:miter;stroke:rgb(100%,0%,0%);stroke-opacity:1;stroke-miterlimit:10;" d="M -0.0036875 9.495781 L 35.105688 9.495781 L 109.601781 62.624688 " transform="matrix(1,0,0,-1,3.324,125.445)"/>
<g clip-path="url(#clip7)" clip-rule="nonzero">
<path style="fill:none;stroke-width:0.3985;stroke-linecap:butt;stroke-linejoin:miter;stroke:rgb(100%,0%,0%);stroke-opacity:1;stroke-miterlimit:10;" d="M -0.0036875 5.066094 L 19.449438 5.066094 L 109.601781 62.624688 " transform="matrix(1,0,0,-1,3.324,125.445)"/>
<path style="fill:none;stroke-width:0.3985;stroke-linecap:butt;stroke-linejoin:miter;stroke:rgb(100%,0%,0%);stroke-opacity:1;stroke-miterlimit:10;" d="M -0.0036875 0.640313 L 2.547094 0.640313 L 109.601781 62.624688 " transform="matrix(1,0,0,-1,3.324,125.445)"/>
</g>
</g>
</svg>
