<?xml version="1.0" encoding="UTF-8"?>
<svg xmlns="http://www.w3.org/2000/svg" xmlns:xlink="http://www.w3.org/1999/xlink" width="130.694pt" height="126.444pt" viewBox="0 0 130.694 126.444" version="1.1">
<defs>
<clipPath id="clip1">
  <path d="M 0 0 L 130.695312 0 L 130.695312 80 L 0 80 Z M 0 0 "/>
</clipPath>
<clipPath id="clip2">
  <path d="M 0 46 L 130.695312 46 L 130.695312 126.445312 L 0 126.445312 Z M 0 46 "/>
</clipPath>
<clipPath id="clip3">
  <path d="M 0 48 L 130.695312 48 L 130.695312 69 L 0 69 Z M 0 48 "/>
</clipPath>
<clipPath id="clip4">
  <path d="M 0 53 L 130.695312 53 L 130.695312 69 L 0 69 Z M 0 53 "/>
</clipPath>
<clipPath id="clip5">
  <path d="M 0 57 L 130.695312 57 L 130.695312 69 L 0 69 Z M 0 57 "/>
</clipPath>
<clipPath id="clip6">
  <path d="M 0 57 L 130.695312 57 L 130.695312 74 L 0 74 Z M 0 57 "/>
</clipPath>
<clipPath id="clip7">
  <path d="M 0 57 L 130.695312 57 L 130.695312 78 L 0 78 Z M 0 57 "/>
</clipPath>
</defs>
<g id="surface1">
<g clip-path="url(#clip1)" clip-rule="nonzero">
<path style="fill:none;stroke-width:1.19553;stroke-linecap:butt;stroke-linejoin:miter;stroke:rgb(0%,0%,0%);stroke-opacity:1;stroke-miterlimit:10;" d="M -0.0006875 125.25225 C -0.0006875 125.25225 0.913375 125.021781 1.264938 124.931938 C 1.6165 124.846 2.179 124.701469 2.530563 124.615531 C 2.882125 124.525688 3.444625 124.385063 3.796188 124.295219 C 4.14775 124.205375 4.71025 124.060844 5.061813 123.971 C 5.413375 123.881156 5.975875 123.736625 6.327438 123.646781 C 6.675094 123.556938 7.2415 123.412406 7.589156 123.322563 C 7.940719 123.232719 8.503219 123.088188 8.854781 122.994438 C 9.206344 122.904594 9.768844 122.760063 10.120406 122.666313 C 10.471969 122.576469 11.034469 122.428031 11.386031 122.334281 C 11.737594 122.244438 12.300094 122.096 12.651656 122.00225 C 13.003219 121.912406 13.565719 121.763969 13.917281 121.670219 C 14.268844 121.576469 14.831344 121.428031 15.182906 121.334281 C 15.534469 121.240531 16.096969 121.088188 16.448531 120.994438 C 16.796188 120.900688 17.362594 120.748344 17.71025 120.654594 C 18.061813 120.560844 18.624313 120.4085 18.975875 120.310844 C 19.327438 120.217094 19.889938 120.06475 20.2415 119.967094 C 20.593063 119.869438 21.155563 119.717094 21.507125 119.619438 C 21.858688 119.525688 22.421188 119.369438 22.77275 119.271781 C 23.124313 119.174125 23.686813 119.017875 24.038375 118.920219 C 24.389938 118.822563 24.952438 118.666313 25.304 118.568656 C 25.655563 118.471 26.218063 118.310844 26.569625 118.213188 C 26.917281 118.115531 27.483688 117.955375 27.831344 117.857719 C 28.182906 117.756156 28.745406 117.596 29.096969 117.494438 C 29.448531 117.396781 30.011031 117.236625 30.362594 117.135063 C 30.714156 117.0335 31.276656 116.869438 31.628219 116.767875 C 31.979781 116.666313 32.542281 116.506156 32.893844 116.400688 C 33.245406 116.299125 33.807906 116.135063 34.159469 116.0335 C 34.511031 115.928031 35.073531 115.763969 35.425094 115.6585 C 35.776656 115.556938 36.339156 115.388969 36.690719 115.287406 C 37.038375 115.181938 37.604781 115.013969 37.952438 114.9085 C 38.304 114.803031 38.8665 114.635063 39.218063 114.529594 C 39.569625 114.420219 40.132125 114.25225 40.483688 114.146781 C 40.83525 114.037406 41.39775 113.865531 41.749313 113.760063 C 42.100875 113.650688 42.663375 113.478813 43.014938 113.369438 C 43.3665 113.260063 43.929 113.088188 44.280563 112.978813 C 44.632125 112.869438 45.194625 112.693656 45.546188 112.584281 C 45.89775 112.474906 46.46025 112.295219 46.811813 112.185844 C 47.159469 112.076469 47.725875 111.896781 48.073531 111.7835 C 48.425094 111.674125 48.987594 111.490531 49.339156 111.381156 C 49.690719 111.267875 50.253219 111.084281 50.604781 110.971 C 50.956344 110.857719 51.518844 110.674125 51.870406 110.560844 C 52.221969 110.443656 52.784469 110.260063 53.136031 110.146781 C 53.487594 110.029594 54.050094 109.842094 54.401656 109.724906 C 54.753219 109.611625 55.315719 109.420219 55.667281 109.303031 C 56.018844 109.185844 56.581344 108.998344 56.932906 108.87725 C 57.280563 108.760063 57.846969 108.568656 58.194625 108.447563 C 58.546188 108.326469 59.108688 108.135063 59.46025 108.013969 C 59.811813 107.892875 60.374313 107.697563 60.725875 107.576469 C 61.077438 107.451469 61.639938 107.256156 61.9915 107.131156 C 62.343063 107.010063 62.905563 106.810844 63.257125 106.685844 C 63.608688 106.560844 64.171188 106.357719 64.52275 106.232719 C 64.874313 106.107719 65.436813 105.904594 65.788375 105.775688 C 66.139938 105.650688 66.702438 105.443656 67.054 105.31475 C 67.401656 105.185844 67.968063 104.978813 68.315719 104.849906 C 68.667281 104.717094 69.229781 104.510063 69.581344 104.37725 C 69.932906 104.244438 70.495406 104.0335 70.846969 103.900688 C 71.198531 103.767875 71.761031 103.553031 72.112594 103.416313 C 72.464156 103.2835 73.026656 103.06475 73.378219 102.928031 C 73.729781 102.791313 74.292281 102.572563 74.643844 102.435844 C 74.995406 102.295219 75.557906 102.072563 75.909469 101.931938 C 76.261031 101.795219 76.823531 101.568656 77.175094 101.428031 C 77.52275 101.2835 78.089156 101.056938 78.436813 100.912406 C 78.788375 100.767875 79.350875 100.537406 79.702438 100.392875 C 80.054 100.244438 80.6165 100.010063 80.968063 99.865531 C 81.319625 99.717094 81.882125 99.478813 82.233688 99.326469 C 82.58525 99.178031 83.14775 98.935844 83.499313 98.7835 C 83.850875 98.631156 84.413375 98.385063 84.764938 98.232719 C 85.1165 98.076469 85.679 97.826469 86.030563 97.670219 C 86.382125 97.513969 86.944625 97.260063 87.296188 97.099906 C 87.643844 96.943656 88.21025 96.685844 88.557906 96.521781 C 88.909469 96.361625 89.471969 96.096 89.823531 95.931938 C 90.175094 95.767875 90.737594 95.50225 91.089156 95.334281 C 91.440719 95.166313 92.003219 94.892875 92.354781 94.721 C 92.706344 94.549125 93.268844 94.271781 93.620406 94.099906 C 93.971969 93.924125 94.534469 93.638969 94.886031 93.463188 C 95.237594 93.2835 95.800094 92.994438 96.151656 92.81475 C 96.503219 92.631156 97.065719 92.334281 97.417281 92.150688 C 97.764938 91.963188 98.331344 91.662406 98.679 91.471 C 99.030563 91.279594 99.596969 90.971 99.944625 90.775688 C 100.296188 90.580375 100.858688 90.263969 101.21025 90.06475 C 101.561813 89.861625 102.124313 89.537406 102.475875 89.330375 C 102.827438 89.12725 103.389938 88.791313 103.7415 88.580375 C 104.093063 88.369438 104.655563 88.021781 105.007125 87.806938 C 105.358688 87.588188 105.921188 87.232719 106.27275 87.006156 C 106.624313 86.779594 107.186813 86.412406 107.538375 86.178031 C 107.886031 85.947563 108.452438 85.56475 108.804 85.322563 C 109.151656 85.080375 109.718063 84.685844 110.065719 84.431938 C 110.417281 84.181938 110.979781 83.767875 111.331344 83.506156 C 111.682906 83.240531 112.245406 82.810844 112.596969 82.5335 C 112.948531 82.256156 113.511031 81.803031 113.862594 81.513969 C 114.214156 81.221 114.776656 80.740531 115.128219 80.431938 C 115.479781 80.123344 116.042281 79.615531 116.393844 79.2835 C 116.745406 78.951469 117.307906 78.404594 117.659469 78.049125 C 118.011031 77.68975 118.573531 77.099906 118.925094 76.705375 C 119.27275 76.31475 119.839156 75.662406 120.186813 75.221 C 120.538375 74.779594 121.100875 74.045219 121.452438 73.537406 C 121.804 73.025688 122.3665 72.174125 122.718063 71.537406 C 123.069625 70.900688 123.632125 70.107719 123.983688 68.935844 C 124.33525 67.760063 125.249313 63.068656 125.249313 63.068656 " transform="matrix(1,0,0,-1,3.321,125.846)"/>
</g>
<g clip-path="url(#clip2)" clip-rule="nonzero">
<path style="fill:none;stroke-width:1.19553;stroke-linecap:butt;stroke-linejoin:miter;stroke:rgb(0%,0%,0%);stroke-opacity:1;stroke-miterlimit:10;" d="M -0.0006875 -0.00165625 C -0.0006875 -0.00165625 0.913375 0.228813 1.264938 0.318656 C 1.6165 0.404594 2.179 0.545219 2.530563 0.635063 C 2.882125 0.724906 3.444625 0.865531 3.796188 0.955375 C 4.14775 1.045219 4.71025 1.18975 5.061813 1.279594 C 5.413375 1.369438 5.975875 1.510063 6.327438 1.599906 C 6.675094 1.693656 7.2415 1.838188 7.589156 1.928031 C 7.940719 2.017875 8.503219 2.162406 8.854781 2.256156 C 9.206344 2.346 9.768844 2.490531 10.120406 2.584281 C 10.471969 2.674125 11.034469 2.822563 11.386031 2.912406 C 11.737594 3.006156 12.300094 3.154594 12.651656 3.248344 C 13.003219 3.338188 13.565719 3.486625 13.917281 3.580375 C 14.268844 3.674125 14.831344 3.822563 15.182906 3.916313 C 15.534469 4.010063 16.096969 4.162406 16.448531 4.256156 C 16.796188 4.349906 17.362594 4.50225 17.71025 4.596 C 18.061813 4.68975 18.624313 4.842094 18.975875 4.93975 C 19.327438 5.0335 19.889938 5.185844 20.2415 5.2835 C 20.593063 5.37725 21.155563 5.5335 21.507125 5.631156 C 21.858688 5.724906 22.421188 5.881156 22.77275 5.978813 C 23.124313 6.076469 23.686813 6.232719 24.038375 6.330375 C 24.389938 6.428031 24.952438 6.584281 25.304 6.681938 C 25.655563 6.779594 26.218063 6.93975 26.569625 7.037406 C 26.917281 7.135063 27.483688 7.295219 27.831344 7.392875 C 28.182906 7.494438 28.745406 7.654594 29.096969 7.756156 C 29.448531 7.853813 30.011031 8.013969 30.362594 8.115531 C 30.714156 8.217094 31.276656 8.381156 31.628219 8.482719 C 31.979781 8.584281 32.542281 8.744438 32.893844 8.849906 C 33.245406 8.951469 33.807906 9.115531 34.159469 9.217094 C 34.511031 9.322563 35.073531 9.486625 35.425094 9.588188 C 35.776656 9.693656 36.339156 9.861625 36.690719 9.963188 C 37.038375 10.068656 37.604781 10.236625 37.952438 10.342094 C 38.304 10.447563 38.8665 10.615531 39.218063 10.721 C 39.569625 10.826469 40.132125 10.998344 40.483688 11.103813 C 40.83525 11.213188 41.39775 11.385063 41.749313 11.490531 C 42.100875 11.599906 42.663375 11.771781 43.014938 11.881156 C 43.3665 11.986625 43.929 12.162406 44.280563 12.271781 C 44.632125 12.381156 45.194625 12.556938 45.546188 12.666313 C 45.89775 12.775688 46.46025 12.955375 46.811813 13.06475 C 47.159469 13.174125 47.725875 13.353813 48.073531 13.467094 C 48.425094 13.576469 48.987594 13.756156 49.339156 13.869438 C 49.690719 13.982719 50.253219 14.166313 50.604781 14.279594 C 50.956344 14.392875 51.518844 14.576469 51.870406 14.68975 C 52.221969 14.803031 52.784469 14.990531 53.136031 15.103813 C 53.487594 15.221 54.050094 15.4085 54.401656 15.525688 C 54.753219 15.638969 55.315719 15.830375 55.667281 15.947563 C 56.018844 16.06475 56.581344 16.25225 56.932906 16.373344 C 57.280563 16.490531 57.846969 16.681938 58.194625 16.803031 C 58.546188 16.924125 59.108688 17.115531 59.46025 17.236625 C 59.811813 17.357719 60.374313 17.553031 60.725875 17.674125 C 61.077438 17.799125 61.639938 17.994438 61.9915 18.119438 C 62.343063 18.240531 62.905563 18.43975 63.257125 18.56475 C 63.608688 18.68975 64.171188 18.888969 64.52275 19.017875 C 64.874313 19.142875 65.436813 19.346 65.788375 19.474906 C 66.139938 19.599906 66.702438 19.806938 67.054 19.935844 C 67.401656 20.06475 67.968063 20.271781 68.315719 20.400688 C 68.667281 20.529594 69.229781 20.740531 69.581344 20.873344 C 69.932906 21.006156 70.495406 21.217094 70.846969 21.349906 C 71.198531 21.482719 71.761031 21.697563 72.112594 21.834281 C 72.464156 21.967094 73.026656 22.185844 73.378219 22.322563 C 73.729781 22.459281 74.292281 22.678031 74.643844 22.81475 C 74.995406 22.955375 75.557906 23.178031 75.909469 23.31475 C 76.261031 23.455375 76.823531 23.681938 77.175094 23.822563 C 77.52275 23.967094 78.089156 24.193656 78.436813 24.338188 C 78.788375 24.482719 79.350875 24.713188 79.702438 24.857719 C 80.054 25.00225 80.6165 25.240531 80.968063 25.385063 C 81.319625 25.5335 81.882125 25.771781 82.233688 25.924125 C 82.58525 26.072563 83.14775 26.31475 83.499313 26.467094 C 83.850875 26.619438 84.413375 26.865531 84.764938 27.017875 C 85.1165 27.174125 85.679 27.420219 86.030563 27.580375 C 86.382125 27.736625 86.944625 27.990531 87.296188 28.146781 C 87.643844 28.306938 88.21025 28.56475 88.557906 28.728813 C 88.909469 28.888969 89.471969 29.150688 89.823531 29.318656 C 90.175094 29.482719 90.737594 29.748344 91.089156 29.916313 C 91.440719 30.084281 92.003219 30.357719 92.354781 30.529594 C 92.706344 30.701469 93.268844 30.978813 93.620406 31.150688 C 93.971969 31.326469 94.534469 31.607719 94.886031 31.787406 C 95.237594 31.967094 95.800094 32.256156 96.151656 32.435844 C 96.503219 32.619438 97.065719 32.912406 97.417281 33.099906 C 97.764938 33.287406 98.331344 33.588188 98.679 33.779594 C 99.030563 33.971 99.596969 34.279594 99.944625 34.474906 C 100.296188 34.670219 100.858688 34.986625 101.21025 35.185844 C 101.561813 35.388969 102.124313 35.713188 102.475875 35.920219 C 102.827438 36.123344 103.389938 36.459281 103.7415 36.670219 C 104.093063 36.881156 104.655563 37.224906 105.007125 37.443656 C 105.358688 37.662406 105.921188 38.017875 106.27275 38.244438 C 106.624313 38.471 107.186813 38.838188 107.538375 39.072563 C 107.886031 39.303031 108.452438 39.685844 108.804 39.928031 C 109.151656 40.170219 109.718063 40.56475 110.065719 40.818656 C 110.417281 41.068656 110.979781 41.482719 111.331344 41.744438 C 111.682906 42.010063 112.245406 42.43975 112.596969 42.717094 C 112.948531 42.994438 113.511031 43.447563 113.862594 43.736625 C 114.214156 44.029594 114.776656 44.510063 115.128219 44.818656 C 115.479781 45.12725 116.042281 45.635063 116.393844 45.967094 C 116.745406 46.299125 117.307906 46.846 117.659469 47.201469 C 118.011031 47.560844 118.573531 48.150688 118.925094 48.545219 C 119.27275 48.935844 119.839156 49.588188 120.186813 50.029594 C 120.538375 50.471 121.100875 51.205375 121.452438 51.713188 C 121.804 52.224906 122.3665 53.076469 122.718063 53.713188 C 123.069625 54.349906 123.632125 55.138969 123.983688 56.31475 C 124.33525 57.490531 125.249313 62.181938 125.249313 62.181938 " transform="matrix(1,0,0,-1,3.321,125.846)"/>
</g>
<path style="fill:none;stroke-width:0.3985;stroke-linecap:butt;stroke-linejoin:miter;stroke:rgb(100%,0%,0%);stroke-opacity:1;stroke-miterlimit:10;" d="M -0.0006875 115.763969 L 35.069625 115.763969 L 109.596969 62.623344 " transform="matrix(1,0,0,-1,3.321,125.846)"/>
<path style="fill:none;stroke-width:0.3985;stroke-linecap:butt;stroke-linejoin:miter;stroke:rgb(100%,0%,0%);stroke-opacity:1;stroke-miterlimit:10;" d="M -0.0006875 111.338188 L 49.475875 111.338188 L 109.596969 62.623344 " transform="matrix(1,0,0,-1,3.321,125.846)"/>
<path style="fill:none;stroke-width:0.3985;stroke-linecap:butt;stroke-linejoin:miter;stroke:rgb(100%,0%,0%);stroke-opacity:1;stroke-miterlimit:10;" d="M -0.0006875 106.9085 L 62.624313 106.9085 L 109.596969 62.623344 " transform="matrix(1,0,0,-1,3.321,125.846)"/>
<path style="fill:none;stroke-width:0.3985;stroke-linecap:butt;stroke-linejoin:miter;stroke:rgb(100%,0%,0%);stroke-opacity:1;stroke-miterlimit:10;" d="M -0.0006875 102.482719 L 74.52275 102.482719 L 109.596969 62.623344 " transform="matrix(1,0,0,-1,3.321,125.846)"/>
<path style="fill:none;stroke-width:0.3985;stroke-linecap:butt;stroke-linejoin:miter;stroke:rgb(100%,0%,0%);stroke-opacity:1;stroke-miterlimit:10;" d="M -0.0006875 98.053031 L 85.171188 98.053031 L 109.596969 62.623344 " transform="matrix(1,0,0,-1,3.321,125.846)"/>
<path style="fill:none;stroke-width:0.3985;stroke-linecap:butt;stroke-linejoin:miter;stroke:rgb(100%,0%,0%);stroke-opacity:1;stroke-miterlimit:10;" d="M -0.0006875 93.623344 L 94.565719 93.623344 L 109.596969 62.623344 " transform="matrix(1,0,0,-1,3.321,125.846)"/>
<path style="fill:none;stroke-width:0.3985;stroke-linecap:butt;stroke-linejoin:miter;stroke:rgb(100%,0%,0%);stroke-opacity:1;stroke-miterlimit:10;" d="M -0.0006875 89.197563 L 102.706344 89.197563 L 109.596969 62.623344 " transform="matrix(1,0,0,-1,3.321,125.846)"/>
<path style="fill:none;stroke-width:0.3985;stroke-linecap:butt;stroke-linejoin:miter;stroke:rgb(100%,0%,0%);stroke-opacity:1;stroke-miterlimit:10;" d="M -0.0006875 84.767875 L 109.593063 84.767875 L 109.596969 62.623344 " transform="matrix(1,0,0,-1,3.321,125.846)"/>
<path style="fill:none;stroke-width:0.3985;stroke-linecap:butt;stroke-linejoin:miter;stroke:rgb(100%,0%,0%);stroke-opacity:1;stroke-miterlimit:10;" d="M -0.0006875 80.342094 L 115.229781 80.342094 L 109.596969 62.623344 " transform="matrix(1,0,0,-1,3.321,125.846)"/>
<path style="fill:none;stroke-width:0.3985;stroke-linecap:butt;stroke-linejoin:miter;stroke:rgb(100%,0%,0%);stroke-opacity:1;stroke-miterlimit:10;" d="M -0.0006875 75.912406 L 119.6165 75.912406 L 109.596969 62.623344 " transform="matrix(1,0,0,-1,3.321,125.846)"/>
<g clip-path="url(#clip3)" clip-rule="nonzero">
<path style="fill:none;stroke-width:0.3985;stroke-linecap:butt;stroke-linejoin:miter;stroke:rgb(100%,0%,0%);stroke-opacity:1;stroke-miterlimit:10;" d="M -0.0006875 71.486625 L 122.749313 71.486625 L 109.596969 62.623344 " transform="matrix(1,0,0,-1,3.321,125.846)"/>
</g>
<g clip-path="url(#clip4)" clip-rule="nonzero">
<path style="fill:none;stroke-width:0.3985;stroke-linecap:butt;stroke-linejoin:miter;stroke:rgb(100%,0%,0%);stroke-opacity:1;stroke-miterlimit:10;" d="M -0.0006875 67.056938 L 124.628219 67.056938 L 109.596969 62.623344 " transform="matrix(1,0,0,-1,3.321,125.846)"/>
</g>
<g clip-path="url(#clip5)" clip-rule="nonzero">
<path style="fill:none;stroke-width:0.3985;stroke-linecap:butt;stroke-linejoin:miter;stroke:rgb(100%,0%,0%);stroke-opacity:1;stroke-miterlimit:10;" d="M -0.0006875 62.631156 L 125.253219 62.631156 L 109.596969 62.623344 " transform="matrix(1,0,0,-1,3.321,125.846)"/>
</g>
<g clip-path="url(#clip6)" clip-rule="nonzero">
<path style="fill:none;stroke-width:0.3985;stroke-linecap:butt;stroke-linejoin:miter;stroke:rgb(100%,0%,0%);stroke-opacity:1;stroke-miterlimit:10;" d="M -0.0006875 58.201469 L 124.632125 58.201469 L 109.596969 62.623344 " transform="matrix(1,0,0,-1,3.321,125.846)"/>
</g>
<g clip-path="url(#clip7)" clip-rule="nonzero">
<path style="fill:none;stroke-width:0.3985;stroke-linecap:butt;stroke-linejoin:miter;stroke:rgb(100%,0%,0%);stroke-opacity:1;stroke-miterlimit:10;" d="M -0.0006875 53.775688 L 122.753219 53.775688 L 109.596969 62.623344 " transform="matrix(1,0,0,-1,3.321,125.846)"/>
</g>
<path style="fill:none;stroke-width:0.3985;stroke-linecap:butt;stroke-linejoin:miter;stroke:rgb(100%,0%,0%);stroke-opacity:1;stroke-miterlimit:10;" d="M -0.0006875 49.346 L 119.624313 49.346 L 109.596969 62.623344 " transform="matrix(1,0,0,-1,3.321,125.846)"/>
<path style="fill:none;stroke-width:0.3985;stroke-linecap:butt;stroke-linejoin:miter;stroke:rgb(100%,0%,0%);stroke-opacity:1;stroke-miterlimit:10;" d="M -0.0006875 44.916313 L 115.2415 44.916313 L 109.596969 62.623344 " transform="matrix(1,0,0,-1,3.321,125.846)"/>
<path style="fill:none;stroke-width:0.3985;stroke-linecap:butt;stroke-linejoin:miter;stroke:rgb(100%,0%,0%);stroke-opacity:1;stroke-miterlimit:10;" d="M -0.0006875 40.490531 L 109.608688 40.490531 L 109.596969 62.623344 " transform="matrix(1,0,0,-1,3.321,125.846)"/>
<path style="fill:none;stroke-width:0.3985;stroke-linecap:butt;stroke-linejoin:miter;stroke:rgb(100%,0%,0%);stroke-opacity:1;stroke-miterlimit:10;" d="M -0.0006875 36.060844 L 102.721969 36.060844 L 109.596969 62.623344 " transform="matrix(1,0,0,-1,3.321,125.846)"/>
<path style="fill:none;stroke-width:0.3985;stroke-linecap:butt;stroke-linejoin:miter;stroke:rgb(100%,0%,0%);stroke-opacity:1;stroke-miterlimit:10;" d="M -0.0006875 31.635063 L 94.581344 31.635063 L 109.596969 62.623344 " transform="matrix(1,0,0,-1,3.321,125.846)"/>
<path style="fill:none;stroke-width:0.3985;stroke-linecap:butt;stroke-linejoin:miter;stroke:rgb(100%,0%,0%);stroke-opacity:1;stroke-miterlimit:10;" d="M -0.0006875 27.205375 L 85.190719 27.205375 L 109.596969 62.623344 " transform="matrix(1,0,0,-1,3.321,125.846)"/>
<path style="fill:none;stroke-width:0.3985;stroke-linecap:butt;stroke-linejoin:miter;stroke:rgb(100%,0%,0%);stroke-opacity:1;stroke-miterlimit:10;" d="M -0.0006875 22.779594 L 74.550094 22.779594 L 109.596969 62.623344 " transform="matrix(1,0,0,-1,3.321,125.846)"/>
<path style="fill:none;stroke-width:0.3985;stroke-linecap:butt;stroke-linejoin:miter;stroke:rgb(100%,0%,0%);stroke-opacity:1;stroke-miterlimit:10;" d="M -0.0006875 18.349906 L 62.651656 18.349906 L 109.596969 62.623344 " transform="matrix(1,0,0,-1,3.321,125.846)"/>
<path style="fill:none;stroke-width:0.3985;stroke-linecap:butt;stroke-linejoin:miter;stroke:rgb(100%,0%,0%);stroke-opacity:1;stroke-miterlimit:10;" d="M -0.0006875 13.924125 L 49.503219 13.924125 L 109.596969 62.623344 " transform="matrix(1,0,0,-1,3.321,125.846)"/>
<path style="fill:none;stroke-width:0.3985;stroke-linecap:butt;stroke-linejoin:miter;stroke:rgb(100%,0%,0%);stroke-opacity:1;stroke-miterlimit:10;" d="M -0.0006875 9.494438 L 35.104781 9.494438 L 109.596969 62.623344 " transform="matrix(1,0,0,-1,3.321,125.846)"/>
</g>
</svg>
