<?xml version="1.0" encoding="UTF-8"?>
<svg xmlns="http://www.w3.org/2000/svg" xmlns:xlink="http://www.w3.org/1999/xlink" width="130.696pt" height="126.441pt" viewBox="0 0 130.696 126.441" version="1.1">
<defs>
<clipPath id="clip1">
  <path d="M 0 0 L 130.695312 0 L 130.695312 126.441406 L 0 126.441406 Z M 0 0 "/>
</clipPath>
<clipPath id="clip2">
  <path d="M 0 48 L 130.695312 48 L 130.695312 69 L 0 69 Z M 0 48 "/>
</clipPath>
<clipPath id="clip3">
  <path d="M 0 53 L 130.695312 53 L 130.695312 69 L 0 69 Z M 0 53 "/>
</clipPath>
<clipPath id="clip4">
  <path d="M 0 57 L 130.695312 57 L 130.695312 69 L 0 69 Z M 0 57 "/>
</clipPath>
<clipPath id="clip5">
  <path d="M 0 57 L 130.695312 57 L 130.695312 74 L 0 74 Z M 0 57 "/>
</clipPath>
<clipPath id="clip6">
  <path d="M 0 57 L 130.695312 57 L 130.695312 78 L 0 78 Z M 0 57 "/>
</clipPath>
<clipPath id="clip7">
  <path d="M 0 57 L 119 57 L 119 126.441406 L 0 126.441406 Z M 0 57 "/>
</clipPath>
</defs>
<g id="surface1">
<g clip-path="url(#clip1)" clip-rule="nonzero">
<path style="fill:none;stroke-width:1.19553;stroke-linecap:butt;stroke-linejoin:miter;stroke:rgb(0%,0%,0%);stroke-opacity:1;stroke-miterlimit:10;" d="M 0.00021875 -0.00075 C 0.00021875 -0.00075 3.633031 0.913313 5.008031 1.264875 C 6.386938 1.616438 8.570531 2.178938 9.918188 2.5305 C 11.265844 2.882063 13.402563 3.444563 14.722875 3.796125 C 16.043188 4.147688 18.133031 4.710188 19.426 5.06175 C 20.715063 5.413313 22.765844 5.975813 24.027563 6.327375 C 25.289281 6.675031 27.289281 7.241438 28.523656 7.589094 C 29.758031 7.940656 31.715063 8.503156 32.922094 8.854719 C 34.129125 9.206281 36.039281 9.768781 37.215063 10.120344 C 38.39475 10.471906 40.258031 11.034406 41.406469 11.385969 C 42.554906 11.737531 44.375219 12.300031 45.496313 12.651594 C 46.617406 13.003156 48.390844 13.565656 49.484594 13.917219 C 50.578344 14.268781 52.304906 14.831281 53.371313 15.182844 C 54.433813 15.534406 56.117406 16.096906 57.152563 16.448469 C 58.187719 16.796125 59.824438 17.362531 60.83225 17.710188 C 61.840063 18.06175 63.433813 18.62425 64.410375 18.975813 C 65.390844 19.327375 66.937719 19.889875 67.886938 20.241438 C 68.840063 20.593 70.340063 21.1555 71.261938 21.507063 C 72.183813 21.858625 73.640844 22.421125 74.535375 22.772688 C 75.426 23.12425 76.836156 23.68675 77.703344 24.038313 C 78.570531 24.389875 79.933813 24.952375 80.76975 25.303938 C 81.605688 25.6555 82.926 26.218 83.734594 26.569563 C 84.543188 26.917219 85.816625 27.483625 86.597875 27.831281 C 87.379125 28.182844 88.605688 28.745344 89.359594 29.096906 C 90.109594 29.448469 91.293188 30.010969 92.015844 30.362531 C 92.742406 30.714094 93.879125 31.276594 94.574438 31.628156 C 95.26975 31.979719 96.359594 32.542219 97.027563 32.893781 C 97.695531 33.245344 98.742406 33.807844 99.379125 34.159406 C 100.015844 34.510969 101.01975 35.073469 101.629125 35.425031 C 102.2385 35.772688 103.195531 36.339094 103.773656 36.68675 C 104.355688 37.038313 105.265844 37.600813 105.820531 37.952375 C 106.375219 38.303938 107.2385 38.866438 107.761938 39.218 C 108.289281 39.569563 109.105688 40.132063 109.601781 40.483625 C 110.097875 40.835188 110.871313 41.397688 111.340063 41.74925 C 111.808813 42.100813 112.539281 42.663313 112.976781 43.014875 C 113.418188 43.366438 114.097875 43.928938 114.511938 44.2805 C 114.922094 44.632063 115.558813 45.194563 115.941625 45.546125 C 116.324438 45.893781 116.918188 46.460188 117.26975 46.807844 C 117.625219 47.159406 118.172094 47.721906 118.500219 48.073469 C 118.824438 48.425031 119.324438 48.987531 119.625219 49.339094 C 119.922094 49.690656 120.375219 50.253156 120.64475 50.604719 C 120.914281 50.956281 121.324438 51.518781 121.566625 51.870344 C 121.808813 52.221906 122.172094 52.784406 122.383031 53.135969 C 122.597875 53.487531 122.914281 54.050031 123.101781 54.401594 C 123.285375 54.753156 123.558813 55.315656 123.715063 55.667219 C 123.871313 56.014875 124.097875 56.581281 124.222875 56.928938 C 124.351781 57.2805 124.535375 57.843 124.633031 58.194563 C 124.734594 58.546125 124.871313 59.108625 124.941625 59.460188 C 125.011938 59.81175 125.101781 60.37425 125.14475 60.725813 C 125.187719 61.077375 125.234594 61.639875 125.246313 61.991438 C 125.261938 62.343 125.261938 62.9055 125.246313 63.257063 C 125.234594 63.608625 125.187719 64.171125 125.14475 64.522688 C 125.101781 64.87425 125.011938 65.43675 124.941625 65.788313 C 124.871313 66.135969 124.734594 66.702375 124.633031 67.050031 C 124.535375 67.401594 124.351781 67.964094 124.226781 68.315656 C 124.097875 68.667219 123.871313 69.229719 123.715063 69.581281 C 123.558813 69.932844 123.285375 70.495344 123.101781 70.846906 C 122.918188 71.198469 122.597875 71.760969 122.386938 72.112531 C 122.172094 72.464094 121.808813 73.026594 121.566625 73.378156 C 121.328344 73.729719 120.918188 74.292219 120.648656 74.643781 C 120.379125 74.995344 119.922094 75.557844 119.625219 75.909406 C 119.328344 76.257063 118.828344 76.823469 118.500219 77.171125 C 118.176 77.522688 117.629125 78.085188 117.273656 78.43675 C 116.918188 78.788313 116.328344 79.350813 115.945531 79.702375 C 115.562719 80.053938 114.926 80.616438 114.515844 80.968 C 114.101781 81.319563 113.422094 81.882063 112.980688 82.233625 C 112.539281 82.585188 111.812719 83.147688 111.343969 83.49925 C 110.875219 83.850813 110.101781 84.413313 109.605688 84.764875 C 109.109594 85.116438 108.293188 85.678938 107.765844 86.0305 C 107.242406 86.378156 106.379125 86.944563 105.824438 87.292219 C 105.26975 87.643781 104.3635 88.206281 103.781469 88.557844 C 103.199438 88.909406 102.242406 89.471906 101.633031 89.823469 C 101.023656 90.175031 100.023656 90.737531 99.383031 91.089094 C 98.746313 91.440656 97.699438 92.003156 97.031469 92.354719 C 96.367406 92.706281 95.273656 93.268781 94.578344 93.620344 C 93.883031 93.971906 92.746313 94.534406 92.023656 94.885969 C 91.301 95.233625 90.117406 95.800031 89.3635 96.147688 C 88.6135 96.49925 87.383031 97.06175 86.605688 97.413313 C 85.824438 97.764875 84.551 98.327375 83.742406 98.678938 C 82.933813 99.0305 81.6135 99.593 80.777563 99.944563 C 79.941625 100.296125 78.574438 100.858625 77.711156 101.210188 C 76.843969 101.56175 75.433813 102.12425 74.539281 102.475813 C 73.648656 102.827375 72.191625 103.389875 71.26975 103.741438 C 70.347875 104.093 68.847875 104.6555 67.89475 105.007063 C 66.945531 105.354719 65.398656 105.921125 64.418188 106.268781 C 63.441625 106.620344 61.847875 107.182844 60.840063 107.534406 C 59.836156 107.885969 58.195531 108.448469 57.160375 108.800031 C 56.125219 109.151594 54.441625 109.714094 53.379125 110.065656 C 52.312719 110.417219 50.586156 110.979719 49.492406 111.331281 C 48.402563 111.682844 46.625219 112.245344 45.508031 112.596906 C 44.386938 112.948469 42.566625 113.510969 41.418188 113.862531 C 40.26975 114.214094 38.402563 114.776594 37.226781 115.128156 C 36.047094 115.475813 34.136938 116.042219 32.929906 116.389875 C 31.726781 116.741438 29.76975 117.303938 28.535375 117.6555 C 27.301 118.007063 25.301 118.569563 24.035375 118.921125 C 22.773656 119.272688 20.726781 119.835188 19.437719 120.18675 C 18.14475 120.538313 16.051 121.100813 14.734594 121.452375 C 13.414281 121.803938 11.277563 122.366438 9.929906 122.718 C 8.58225 123.069563 6.398656 123.632063 5.01975 123.983625 C 3.64475 124.335188 0.0119375 125.24925 0.0119375 125.24925 " transform="matrix(1,0,0,-1,3.324,125.843)"/>
</g>
<path style="fill:none;stroke-width:0.3985;stroke-linecap:butt;stroke-linejoin:miter;stroke:rgb(100%,0%,0%);stroke-opacity:1;stroke-miterlimit:10;" d="M -0.0036875 124.620344 L 2.500219 124.620344 L 109.601781 62.62425 " transform="matrix(1,0,0,-1,3.324,125.843)"/>
<path style="fill:none;stroke-width:0.3985;stroke-linecap:butt;stroke-linejoin:miter;stroke:rgb(100%,0%,0%);stroke-opacity:1;stroke-miterlimit:10;" d="M -0.0036875 120.194563 L 19.410375 120.194563 L 109.601781 62.62425 " transform="matrix(1,0,0,-1,3.324,125.843)"/>
<path style="fill:none;stroke-width:0.3985;stroke-linecap:butt;stroke-linejoin:miter;stroke:rgb(100%,0%,0%);stroke-opacity:1;stroke-miterlimit:10;" d="M -0.0036875 115.764875 L 35.070531 115.764875 L 109.601781 62.62425 " transform="matrix(1,0,0,-1,3.324,125.843)"/>
<path style="fill:none;stroke-width:0.3985;stroke-linecap:butt;stroke-linejoin:miter;stroke:rgb(100%,0%,0%);stroke-opacity:1;stroke-miterlimit:10;" d="M -0.0036875 111.339094 L 49.472875 111.339094 L 109.601781 62.62425 " transform="matrix(1,0,0,-1,3.324,125.843)"/>
<path style="fill:none;stroke-width:0.3985;stroke-linecap:butt;stroke-linejoin:miter;stroke:rgb(100%,0%,0%);stroke-opacity:1;stroke-miterlimit:10;" d="M -0.0036875 106.909406 L 62.625219 106.909406 L 109.601781 62.62425 " transform="matrix(1,0,0,-1,3.324,125.843)"/>
<path style="fill:none;stroke-width:0.3985;stroke-linecap:butt;stroke-linejoin:miter;stroke:rgb(100%,0%,0%);stroke-opacity:1;stroke-miterlimit:10;" d="M -0.0036875 102.483625 L 74.523656 102.483625 L 109.601781 62.62425 " transform="matrix(1,0,0,-1,3.324,125.843)"/>
<path style="fill:none;stroke-width:0.3985;stroke-linecap:butt;stroke-linejoin:miter;stroke:rgb(100%,0%,0%);stroke-opacity:1;stroke-miterlimit:10;" d="M -0.0036875 98.053938 L 85.172094 98.053938 L 109.601781 62.62425 " transform="matrix(1,0,0,-1,3.324,125.843)"/>
<path style="fill:none;stroke-width:0.3985;stroke-linecap:butt;stroke-linejoin:miter;stroke:rgb(100%,0%,0%);stroke-opacity:1;stroke-miterlimit:10;" d="M -0.0036875 93.62425 L 94.566625 93.62425 L 109.601781 62.62425 " transform="matrix(1,0,0,-1,3.324,125.843)"/>
<path style="fill:none;stroke-width:0.3985;stroke-linecap:butt;stroke-linejoin:miter;stroke:rgb(100%,0%,0%);stroke-opacity:1;stroke-miterlimit:10;" d="M -0.0036875 89.198469 L 102.70725 89.198469 L 109.601781 62.62425 " transform="matrix(1,0,0,-1,3.324,125.843)"/>
<path style="fill:none;stroke-width:0.3985;stroke-linecap:butt;stroke-linejoin:miter;stroke:rgb(100%,0%,0%);stroke-opacity:1;stroke-miterlimit:10;" d="M -0.0036875 84.768781 L 109.597875 84.768781 L 109.601781 62.62425 " transform="matrix(1,0,0,-1,3.324,125.843)"/>
<path style="fill:none;stroke-width:0.3985;stroke-linecap:butt;stroke-linejoin:miter;stroke:rgb(100%,0%,0%);stroke-opacity:1;stroke-miterlimit:10;" d="M -0.0036875 80.343 L 115.234594 80.343 L 109.601781 62.62425 " transform="matrix(1,0,0,-1,3.324,125.843)"/>
<path style="fill:none;stroke-width:0.3985;stroke-linecap:butt;stroke-linejoin:miter;stroke:rgb(100%,0%,0%);stroke-opacity:1;stroke-miterlimit:10;" d="M -0.0036875 75.913313 L 119.621313 75.913313 L 109.601781 62.62425 " transform="matrix(1,0,0,-1,3.324,125.843)"/>
<g clip-path="url(#clip2)" clip-rule="nonzero">
<path style="fill:none;stroke-width:0.3985;stroke-linecap:butt;stroke-linejoin:miter;stroke:rgb(100%,0%,0%);stroke-opacity:1;stroke-miterlimit:10;" d="M -0.0036875 71.487531 L 122.754125 71.487531 L 109.601781 62.62425 " transform="matrix(1,0,0,-1,3.324,125.843)"/>
</g>
<g clip-path="url(#clip3)" clip-rule="nonzero">
<path style="fill:none;stroke-width:0.3985;stroke-linecap:butt;stroke-linejoin:miter;stroke:rgb(100%,0%,0%);stroke-opacity:1;stroke-miterlimit:10;" d="M -0.0036875 67.057844 L 124.633031 67.057844 L 109.601781 62.62425 " transform="matrix(1,0,0,-1,3.324,125.843)"/>
</g>
<g clip-path="url(#clip4)" clip-rule="nonzero">
<path style="fill:none;stroke-width:0.3985;stroke-linecap:butt;stroke-linejoin:miter;stroke:rgb(100%,0%,0%);stroke-opacity:1;stroke-miterlimit:10;" d="M -0.0036875 62.632063 L 125.261938 62.632063 L 109.601781 62.62425 " transform="matrix(1,0,0,-1,3.324,125.843)"/>
</g>
<g clip-path="url(#clip5)" clip-rule="nonzero">
<path style="fill:none;stroke-width:0.3985;stroke-linecap:butt;stroke-linejoin:miter;stroke:rgb(100%,0%,0%);stroke-opacity:1;stroke-miterlimit:10;" d="M -0.0036875 58.202375 L 124.636938 58.202375 L 109.601781 62.62425 " transform="matrix(1,0,0,-1,3.324,125.843)"/>
</g>
<g clip-path="url(#clip6)" clip-rule="nonzero">
<path style="fill:none;stroke-width:0.3985;stroke-linecap:butt;stroke-linejoin:miter;stroke:rgb(100%,0%,0%);stroke-opacity:1;stroke-miterlimit:10;" d="M -0.0036875 53.776594 L 122.758031 53.776594 L 109.601781 62.62425 " transform="matrix(1,0,0,-1,3.324,125.843)"/>
</g>
<path style="fill:none;stroke-width:0.3985;stroke-linecap:butt;stroke-linejoin:miter;stroke:rgb(100%,0%,0%);stroke-opacity:1;stroke-miterlimit:10;" d="M -0.0036875 49.346906 L 119.629125 49.346906 L 109.601781 62.62425 " transform="matrix(1,0,0,-1,3.324,125.843)"/>
<path style="fill:none;stroke-width:0.3985;stroke-linecap:butt;stroke-linejoin:miter;stroke:rgb(100%,0%,0%);stroke-opacity:1;stroke-miterlimit:10;" d="M -0.0036875 44.917219 L 115.246313 44.917219 L 109.601781 62.62425 " transform="matrix(1,0,0,-1,3.324,125.843)"/>
<path style="fill:none;stroke-width:0.3985;stroke-linecap:butt;stroke-linejoin:miter;stroke:rgb(100%,0%,0%);stroke-opacity:1;stroke-miterlimit:10;" d="M -0.0036875 40.491438 L 109.6135 40.491438 L 109.601781 62.62425 " transform="matrix(1,0,0,-1,3.324,125.843)"/>
<path style="fill:none;stroke-width:0.3985;stroke-linecap:butt;stroke-linejoin:miter;stroke:rgb(100%,0%,0%);stroke-opacity:1;stroke-miterlimit:10;" d="M -0.0036875 36.06175 L 102.726781 36.06175 L 109.601781 62.62425 " transform="matrix(1,0,0,-1,3.324,125.843)"/>
<path style="fill:none;stroke-width:0.3985;stroke-linecap:butt;stroke-linejoin:miter;stroke:rgb(100%,0%,0%);stroke-opacity:1;stroke-miterlimit:10;" d="M -0.0036875 31.635969 L 94.586156 31.635969 L 109.601781 62.62425 " transform="matrix(1,0,0,-1,3.324,125.843)"/>
<path style="fill:none;stroke-width:0.3985;stroke-linecap:butt;stroke-linejoin:miter;stroke:rgb(100%,0%,0%);stroke-opacity:1;stroke-miterlimit:10;" d="M -0.0036875 27.206281 L 85.195531 27.206281 L 109.601781 62.62425 " transform="matrix(1,0,0,-1,3.324,125.843)"/>
<path style="fill:none;stroke-width:0.3985;stroke-linecap:butt;stroke-linejoin:miter;stroke:rgb(100%,0%,0%);stroke-opacity:1;stroke-miterlimit:10;" d="M -0.0036875 22.7805 L 74.551 22.7805 L 109.601781 62.62425 " transform="matrix(1,0,0,-1,3.324,125.843)"/>
<path style="fill:none;stroke-width:0.3985;stroke-linecap:butt;stroke-linejoin:miter;stroke:rgb(100%,0%,0%);stroke-opacity:1;stroke-miterlimit:10;" d="M -0.0036875 18.350813 L 62.656469 18.350813 L 109.601781 62.62425 " transform="matrix(1,0,0,-1,3.324,125.843)"/>
<path style="fill:none;stroke-width:0.3985;stroke-linecap:butt;stroke-linejoin:miter;stroke:rgb(100%,0%,0%);stroke-opacity:1;stroke-miterlimit:10;" d="M -0.0036875 13.925031 L 49.504125 13.925031 L 109.601781 62.62425 " transform="matrix(1,0,0,-1,3.324,125.843)"/>
<path style="fill:none;stroke-width:0.3985;stroke-linecap:butt;stroke-linejoin:miter;stroke:rgb(100%,0%,0%);stroke-opacity:1;stroke-miterlimit:10;" d="M -0.0036875 9.495344 L 35.105688 9.495344 L 109.601781 62.62425 " transform="matrix(1,0,0,-1,3.324,125.843)"/>
<g clip-path="url(#clip7)" clip-rule="nonzero">
<path style="fill:none;stroke-width:0.3985;stroke-linecap:butt;stroke-linejoin:miter;stroke:rgb(100%,0%,0%);stroke-opacity:1;stroke-miterlimit:10;" d="M -0.0036875 5.065656 L 19.449438 5.065656 L 109.601781 62.62425 " transform="matrix(1,0,0,-1,3.324,125.843)"/>
<path style="fill:none;stroke-width:0.3985;stroke-linecap:butt;stroke-linejoin:miter;stroke:rgb(100%,0%,0%);stroke-opacity:1;stroke-miterlimit:10;" d="M -0.0036875 0.639875 L 2.547094 0.639875 L 109.601781 62.62425 " transform="matrix(1,0,0,-1,3.324,125.843)"/>
</g>
</g>
</svg>
