<?xml version="1.0" encoding="UTF-8"?>
<svg xmlns="http://www.w3.org/2000/svg" xmlns:xlink="http://www.w3.org/1999/xlink" width="199.721pt" height="161.795pt" viewBox="0 0 199.721 161.795" version="1.1">
<defs>
<clipPath id="clip1">
  <path d="M 0 63 L 199.722656 63 L 199.722656 87 L 0 87 Z M 0 63 "/>
</clipPath>
<clipPath id="clip2">
  <path d="M 0 69 L 199.722656 69 L 199.722656 87 L 0 87 Z M 0 69 "/>
</clipPath>
<clipPath id="clip3">
  <path d="M 0 75 L 199.722656 75 L 199.722656 87 L 0 87 Z M 0 75 "/>
</clipPath>
<clipPath id="clip4">
  <path d="M 0 75 L 199.722656 75 L 199.722656 93 L 0 93 Z M 0 75 "/>
</clipPath>
<clipPath id="clip5">
  <path d="M 0 75 L 199.722656 75 L 199.722656 98 L 0 98 Z M 0 75 "/>
</clipPath>
<clipPath id="clip6">
  <path d="M 0 75 L 179 75 L 179 161.796875 L 0 161.796875 Z M 0 75 "/>
</clipPath>
</defs>
<g id="surface1">
<path style="fill:none;stroke-width:0.3985;stroke-linecap:butt;stroke-linejoin:miter;stroke:rgb(0%,0%,0%);stroke-opacity:1;stroke-miterlimit:10;" d="M -0.00178125 -0.00165625 C -0.00178125 -0.00165625 5.634938 1.178031 7.771656 1.631156 C 9.904469 2.084281 13.291187 2.806937 15.381031 3.260062 C 17.474781 3.713187 20.791187 4.43975 22.838062 4.888969 C 24.881031 5.342094 28.127125 6.068656 30.131031 6.521781 C 32.134937 6.974906 35.310719 7.697562 37.26775 8.150687 C 39.224781 8.603812 42.33025 9.330375 44.244312 9.7835 C 46.158375 10.232719 49.193531 10.959281 51.064625 11.412406 C 52.935719 11.865531 55.896656 12.588187 57.724781 13.041312 C 59.552906 13.494437 62.443531 14.221 64.228688 14.674125 C 66.009938 15.123344 68.83025 15.849906 70.568531 16.303031 C 72.306813 16.756156 75.060719 17.478812 76.756031 17.931937 C 78.451344 18.385062 81.131031 19.111625 82.783375 19.56475 C 84.431813 20.013969 87.041188 20.740531 88.650563 21.193656 C 90.256031 21.646781 92.795094 22.373344 94.357594 22.822562 C 95.920094 23.275687 98.388844 24.00225 99.908375 24.455375 C 101.427906 24.9085 103.826344 25.631156 105.299 26.084281 C 106.775563 26.537406 109.103688 27.263969 110.533375 27.713187 C 111.963063 28.166312 114.220875 28.892875 115.607594 29.346 C 116.994313 29.799125 119.181813 30.521781 120.525563 30.974906 C 121.865406 31.428031 123.982594 32.154594 125.283375 32.607719 C 126.58025 33.056937 128.627125 33.7835 129.881031 34.236625 C 131.134938 34.68975 133.1115 35.412406 134.322438 35.865531 C 135.533375 36.318656 137.439625 37.045219 138.603688 37.498344 C 139.771656 37.947562 141.603688 38.674125 142.728688 39.12725 C 143.849781 39.580375 145.615406 40.303031 146.693531 40.756156 C 147.771656 41.209281 149.463063 41.935844 150.498219 42.388969 C 151.533375 42.838187 153.154469 43.56475 154.146656 44.017875 C 155.134938 44.471 156.689625 45.197562 157.634938 45.646781 C 158.58025 46.099906 160.064625 46.826469 160.966969 47.279594 C 161.865406 47.728812 163.279469 48.455375 164.138844 48.9085 C 164.994313 49.361625 166.334156 50.088187 167.150563 50.537406 C 167.963063 50.990531 169.2365 51.717094 170.006031 52.170219 C 170.775563 52.623344 171.974781 53.346 172.701344 53.799125 C 173.427906 54.25225 174.556813 54.978812 175.2365 55.428031 C 175.920094 55.881156 176.978688 56.607719 177.615406 57.060844 C 178.256031 57.513969 179.244313 58.236625 179.838063 58.68975 C 180.431813 59.142875 181.349781 59.869437 181.900563 60.322562 C 182.447438 60.771781 183.295094 61.498344 183.802906 61.951469 C 184.306813 62.404594 185.084156 63.12725 185.545094 63.580375 C 186.009938 64.0335 186.713063 64.760062 187.131031 65.213187 C 187.552906 65.662406 188.185719 66.388969 188.560719 66.842094 C 188.935719 67.295219 189.498219 68.017875 189.83025 68.471 C 190.158375 68.924125 190.654469 69.650687 190.939625 70.103812 C 191.224781 70.553031 191.650563 71.279594 191.89275 71.732719 C 192.134938 72.185844 192.4865 72.912406 192.685719 73.361625 C 192.881031 73.81475 193.166188 74.541312 193.318531 74.994437 C 193.470875 75.447562 193.685719 76.170219 193.795094 76.623344 C 193.904469 77.076469 194.045094 77.803031 194.1115 78.25225 C 194.177906 78.705375 194.248219 79.431937 194.271656 79.885062 C 194.291188 80.338187 194.291188 81.060844 194.271656 81.513969 C 194.248219 81.967094 194.177906 82.693656 194.1115 83.142875 C 194.045094 83.596 193.904469 84.322562 193.795094 84.775687 C 193.685719 85.228812 193.474781 85.951469 193.318531 86.404594 C 193.166188 86.857719 192.884938 87.584281 192.685719 88.037406 C 192.4865 88.486625 192.134938 89.213187 191.89275 89.666312 C 191.650563 90.119437 191.228688 90.842094 190.943531 91.295219 C 190.654469 91.748344 190.162281 92.474906 189.83025 92.928031 C 189.502125 93.37725 188.935719 94.103812 188.564625 94.556937 C 188.189625 95.010062 187.552906 95.732719 187.134938 96.185844 C 186.716969 96.638969 186.013844 97.365531 185.549 97.818656 C 185.088063 98.267875 184.310719 98.994437 183.806813 99.447562 C 183.299 99.900687 182.45525 100.62725 181.904469 101.076469 C 181.353688 101.529594 180.435719 102.256156 179.841969 102.709281 C 179.248219 103.162406 178.259938 103.885062 177.623219 104.338187 C 176.982594 104.791312 175.924 105.517875 175.244313 105.967094 C 174.560719 106.420219 173.431813 107.146781 172.70525 107.599906 C 171.978688 108.053031 170.779469 108.775687 170.009938 109.228812 C 169.240406 109.681937 167.970875 110.4085 167.158375 110.857719 C 166.341969 111.310844 165.002125 112.037406 164.14275 112.490531 C 163.287281 112.943656 161.873219 113.666312 160.970875 114.119437 C 160.068531 114.572562 158.588063 115.299125 157.64275 115.75225 C 156.697438 116.201469 155.14275 116.928031 154.154469 117.381156 C 153.162281 117.834281 151.541188 118.556937 150.506031 119.010062 C 149.470875 119.463187 147.779469 120.18975 146.701344 120.642875 C 145.623219 121.092094 143.857594 121.818656 142.7365 122.271781 C 141.615406 122.724906 139.779469 123.451469 138.6115 123.900687 C 137.447438 124.353812 135.541188 125.080375 134.33025 125.5335 C 133.123219 125.982719 131.146656 126.709281 129.89275 127.162406 C 128.638844 127.615531 126.591969 128.342094 125.295094 128.791312 C 123.994313 129.244437 121.877125 129.971 120.537281 130.424125 C 119.193531 130.87725 117.006031 131.599906 115.619313 132.053031 C 114.232594 132.506156 111.974781 133.232719 110.545094 133.681937 C 109.115406 134.135062 106.787281 134.861625 105.310719 135.31475 C 103.838063 135.767875 101.439625 136.490531 99.920094 136.943656 C 98.404469 137.396781 95.931813 138.123344 94.369313 138.576469 C 92.810719 139.025687 90.26775 139.75225 88.662281 140.205375 C 87.056813 140.6585 84.443531 141.381156 82.795094 141.834281 C 81.146656 142.287406 78.463063 143.013969 76.76775 143.467094 C 75.076344 143.916312 72.322438 144.642875 70.584156 145.096 C 68.845875 145.549125 66.021656 146.271781 64.240406 146.724906 C 62.459156 147.178031 59.564625 147.904594 57.740406 148.357719 C 55.912281 148.806937 52.951344 149.5335 51.08025 149.986625 C 49.209156 150.43975 46.174 151.166312 44.259937 151.615531 C 42.345875 152.068656 39.240406 152.795219 37.283375 153.248344 C 35.326344 153.701469 32.150562 154.424125 30.146656 154.87725 C 28.146656 155.330375 24.900562 156.056937 22.853687 156.506156 C 20.806812 156.959281 17.490406 157.685844 15.400562 158.138969 C 13.310719 158.592094 9.924 159.31475 7.787281 159.767875 C 5.654469 160.221 0.01775 161.396781 0.01775 161.396781 " transform="matrix(1,0,0,-1,3.326,161.596)"/>
<path style="fill:none;stroke-width:0.3985;stroke-linecap:butt;stroke-linejoin:miter;stroke:rgb(100%,0%,0%);stroke-opacity:1;stroke-miterlimit:10;" d="M -0.0056875 160.592094 L 3.881031 160.592094 L 170.002125 80.701469 " transform="matrix(1,0,0,-1,3.326,161.596)"/>
<path style="fill:none;stroke-width:0.3985;stroke-linecap:butt;stroke-linejoin:miter;stroke:rgb(100%,0%,0%);stroke-opacity:1;stroke-miterlimit:10;" d="M -0.0056875 154.885062 L 30.1115 154.885062 L 170.002125 80.701469 " transform="matrix(1,0,0,-1,3.326,161.596)"/>
<path style="fill:none;stroke-width:0.3985;stroke-linecap:butt;stroke-linejoin:miter;stroke:rgb(100%,0%,0%);stroke-opacity:1;stroke-miterlimit:10;" d="M -0.0056875 149.178031 L 54.39275 149.178031 L 170.002125 80.701469 " transform="matrix(1,0,0,-1,3.326,161.596)"/>
<path style="fill:none;stroke-width:0.3985;stroke-linecap:butt;stroke-linejoin:miter;stroke:rgb(100%,0%,0%);stroke-opacity:1;stroke-miterlimit:10;" d="M -0.0056875 143.474906 L 76.7365 143.474906 L 170.002125 80.701469 " transform="matrix(1,0,0,-1,3.326,161.596)"/>
<path style="fill:none;stroke-width:0.3985;stroke-linecap:butt;stroke-linejoin:miter;stroke:rgb(100%,0%,0%);stroke-opacity:1;stroke-miterlimit:10;" d="M -0.0056875 137.767875 L 97.134938 137.767875 L 170.002125 80.701469 " transform="matrix(1,0,0,-1,3.326,161.596)"/>
<path style="fill:none;stroke-width:0.3985;stroke-linecap:butt;stroke-linejoin:miter;stroke:rgb(100%,0%,0%);stroke-opacity:1;stroke-miterlimit:10;" d="M -0.0056875 132.060844 L 115.591969 132.060844 L 170.002125 80.701469 " transform="matrix(1,0,0,-1,3.326,161.596)"/>
<path style="fill:none;stroke-width:0.3985;stroke-linecap:butt;stroke-linejoin:miter;stroke:rgb(100%,0%,0%);stroke-opacity:1;stroke-miterlimit:10;" d="M -0.0056875 126.357719 L 132.107594 126.357719 L 170.002125 80.701469 " transform="matrix(1,0,0,-1,3.326,161.596)"/>
<path style="fill:none;stroke-width:0.3985;stroke-linecap:butt;stroke-linejoin:miter;stroke:rgb(100%,0%,0%);stroke-opacity:1;stroke-miterlimit:10;" d="M -0.0056875 120.650687 L 146.677906 120.650687 L 170.002125 80.701469 " transform="matrix(1,0,0,-1,3.326,161.596)"/>
<path style="fill:none;stroke-width:0.3985;stroke-linecap:butt;stroke-linejoin:miter;stroke:rgb(100%,0%,0%);stroke-opacity:1;stroke-miterlimit:10;" d="M -0.0056875 114.943656 L 159.310719 114.943656 L 170.002125 80.701469 " transform="matrix(1,0,0,-1,3.326,161.596)"/>
<path style="fill:none;stroke-width:0.3985;stroke-linecap:butt;stroke-linejoin:miter;stroke:rgb(100%,0%,0%);stroke-opacity:1;stroke-miterlimit:10;" d="M -0.0056875 109.236625 L 169.994313 109.236625 L 170.002125 80.701469 " transform="matrix(1,0,0,-1,3.326,161.596)"/>
<path style="fill:none;stroke-width:0.3985;stroke-linecap:butt;stroke-linejoin:miter;stroke:rgb(100%,0%,0%);stroke-opacity:1;stroke-miterlimit:10;" d="M -0.0056875 103.5335 L 178.740406 103.5335 L 170.002125 80.701469 " transform="matrix(1,0,0,-1,3.326,161.596)"/>
<path style="fill:none;stroke-width:0.3985;stroke-linecap:butt;stroke-linejoin:miter;stroke:rgb(100%,0%,0%);stroke-opacity:1;stroke-miterlimit:10;" d="M -0.0056875 97.826469 L 185.541188 97.826469 L 170.002125 80.701469 " transform="matrix(1,0,0,-1,3.326,161.596)"/>
<g clip-path="url(#clip1)" clip-rule="nonzero">
<path style="fill:none;stroke-width:0.3985;stroke-linecap:butt;stroke-linejoin:miter;stroke:rgb(100%,0%,0%);stroke-opacity:1;stroke-miterlimit:10;" d="M -0.0056875 92.119437 L 190.400563 92.119437 L 170.002125 80.701469 " transform="matrix(1,0,0,-1,3.326,161.596)"/>
</g>
<g clip-path="url(#clip2)" clip-rule="nonzero">
<path style="fill:none;stroke-width:0.3985;stroke-linecap:butt;stroke-linejoin:miter;stroke:rgb(100%,0%,0%);stroke-opacity:1;stroke-miterlimit:10;" d="M -0.0056875 86.412406 L 193.318531 86.412406 L 170.002125 80.701469 " transform="matrix(1,0,0,-1,3.326,161.596)"/>
</g>
<g clip-path="url(#clip3)" clip-rule="nonzero">
<path style="fill:none;stroke-width:0.3985;stroke-linecap:butt;stroke-linejoin:miter;stroke:rgb(100%,0%,0%);stroke-opacity:1;stroke-miterlimit:10;" d="M -0.0056875 80.709281 L 194.291188 80.709281 L 170.002125 80.701469 " transform="matrix(1,0,0,-1,3.326,161.596)"/>
</g>
<g clip-path="url(#clip4)" clip-rule="nonzero">
<path style="fill:none;stroke-width:0.3985;stroke-linecap:butt;stroke-linejoin:miter;stroke:rgb(100%,0%,0%);stroke-opacity:1;stroke-miterlimit:10;" d="M -0.0056875 75.00225 L 193.322438 75.00225 L 170.002125 80.701469 " transform="matrix(1,0,0,-1,3.326,161.596)"/>
</g>
<g clip-path="url(#clip5)" clip-rule="nonzero">
<path style="fill:none;stroke-width:0.3985;stroke-linecap:butt;stroke-linejoin:miter;stroke:rgb(100%,0%,0%);stroke-opacity:1;stroke-miterlimit:10;" d="M -0.0056875 69.295219 L 190.408375 69.295219 L 170.002125 80.701469 " transform="matrix(1,0,0,-1,3.326,161.596)"/>
</g>
<path style="fill:none;stroke-width:0.3985;stroke-linecap:butt;stroke-linejoin:miter;stroke:rgb(100%,0%,0%);stroke-opacity:1;stroke-miterlimit:10;" d="M -0.0056875 63.588187 L 185.556813 63.588187 L 170.002125 80.701469 " transform="matrix(1,0,0,-1,3.326,161.596)"/>
<path style="fill:none;stroke-width:0.3985;stroke-linecap:butt;stroke-linejoin:miter;stroke:rgb(100%,0%,0%);stroke-opacity:1;stroke-miterlimit:10;" d="M -0.0056875 57.885062 L 178.759938 57.885062 L 170.002125 80.701469 " transform="matrix(1,0,0,-1,3.326,161.596)"/>
<path style="fill:none;stroke-width:0.3985;stroke-linecap:butt;stroke-linejoin:miter;stroke:rgb(100%,0%,0%);stroke-opacity:1;stroke-miterlimit:10;" d="M -0.0056875 52.178031 L 170.021656 52.178031 L 170.002125 80.701469 " transform="matrix(1,0,0,-1,3.326,161.596)"/>
<path style="fill:none;stroke-width:0.3985;stroke-linecap:butt;stroke-linejoin:miter;stroke:rgb(100%,0%,0%);stroke-opacity:1;stroke-miterlimit:10;" d="M -0.0056875 46.471 L 159.338063 46.471 L 170.002125 80.701469 " transform="matrix(1,0,0,-1,3.326,161.596)"/>
<path style="fill:none;stroke-width:0.3985;stroke-linecap:butt;stroke-linejoin:miter;stroke:rgb(100%,0%,0%);stroke-opacity:1;stroke-miterlimit:10;" d="M -0.0056875 40.767875 L 146.713063 40.767875 L 170.002125 80.701469 " transform="matrix(1,0,0,-1,3.326,161.596)"/>
<path style="fill:none;stroke-width:0.3985;stroke-linecap:butt;stroke-linejoin:miter;stroke:rgb(100%,0%,0%);stroke-opacity:1;stroke-miterlimit:10;" d="M -0.0056875 35.060844 L 132.146656 35.060844 L 170.002125 80.701469 " transform="matrix(1,0,0,-1,3.326,161.596)"/>
<path style="fill:none;stroke-width:0.3985;stroke-linecap:butt;stroke-linejoin:miter;stroke:rgb(100%,0%,0%);stroke-opacity:1;stroke-miterlimit:10;" d="M -0.0056875 29.353812 L 115.634938 29.353812 L 170.002125 80.701469 " transform="matrix(1,0,0,-1,3.326,161.596)"/>
<path style="fill:none;stroke-width:0.3985;stroke-linecap:butt;stroke-linejoin:miter;stroke:rgb(100%,0%,0%);stroke-opacity:1;stroke-miterlimit:10;" d="M -0.0056875 23.646781 L 97.181813 23.646781 L 170.002125 80.701469 " transform="matrix(1,0,0,-1,3.326,161.596)"/>
<path style="fill:none;stroke-width:0.3985;stroke-linecap:butt;stroke-linejoin:miter;stroke:rgb(100%,0%,0%);stroke-opacity:1;stroke-miterlimit:10;" d="M -0.0056875 17.943656 L 76.787281 17.943656 L 170.002125 80.701469 " transform="matrix(1,0,0,-1,3.326,161.596)"/>
<path style="fill:none;stroke-width:0.3985;stroke-linecap:butt;stroke-linejoin:miter;stroke:rgb(100%,0%,0%);stroke-opacity:1;stroke-miterlimit:10;" d="M -0.0056875 12.236625 L 54.451344 12.236625 L 170.002125 80.701469 " transform="matrix(1,0,0,-1,3.326,161.596)"/>
<path style="fill:none;stroke-width:0.3985;stroke-linecap:butt;stroke-linejoin:miter;stroke:rgb(100%,0%,0%);stroke-opacity:1;stroke-miterlimit:10;" d="M -0.0056875 6.529594 L 30.170094 6.529594 L 170.002125 80.701469 " transform="matrix(1,0,0,-1,3.326,161.596)"/>
<g clip-path="url(#clip6)" clip-rule="nonzero">
<path style="fill:none;stroke-width:0.3985;stroke-linecap:butt;stroke-linejoin:miter;stroke:rgb(100%,0%,0%);stroke-opacity:1;stroke-miterlimit:10;" d="M -0.0056875 0.822562 L 3.947438 0.822562 L 170.002125 80.701469 " transform="matrix(1,0,0,-1,3.326,161.596)"/>
</g>
</g>
</svg>
