<?xml version="1.0" encoding="UTF-8"?>
<svg xmlns="http://www.w3.org/2000/svg" xmlns:xlink="http://www.w3.org/1999/xlink" width="47.641" height="47.641" viewBox="0 0 47.641 47.641">
<defs>
<clipPath id="clip-0">
<path clip-rule="nonzero" d="M 0 0 L 47.640625 0 L 47.640625 47.640625 L 0 47.640625 Z M 0 0 "/>
</clipPath>
</defs>
<g clip-path="url(#clip-0)">
<path fill-rule="nonzero" fill="rgb(0%, 0%, 0%)" fill-opacity="1" d="M 0 47.640625 L 0 0 L 47.640625 0 L 47.640625 47.640625 Z M 0 47.640625 "/>
<path fill-rule="nonzero" fill="rgb(0%, 0%, 0%)" fill-opacity="1" d="M 0 47.640625 L 0 0 L 47.640625 0 L 47.640625 47.640625 Z M 0 47.640625 "/>
<path fill="none" stroke-width="0.3985" stroke-linecap="butt" stroke-linejoin="miter" stroke="rgb(100%, 100%, 100%)" stroke-opacity="1" stroke-miterlimit="10" d="M 12.801094 5.391312 C 12.449531 6.699906 12.027656 7.430375 11.070625 8.387406 L 12.738594 9.653031 C 12.738594 9.653031 12.7425 9.653031 12.7425 9.653031 C 12.746406 9.656937 12.750312 9.660844 12.758125 9.66475 C 12.762031 9.668656 12.769844 9.676469 12.777656 9.684281 C 12.785469 9.692094 12.797187 9.699906 12.805 9.711625 C 12.816719 9.719437 12.832344 9.735062 12.844062 9.746781 C 12.855781 9.7585 12.875312 9.778031 12.887031 9.78975 C 12.89875 9.805375 12.922187 9.828812 12.937812 9.844437 C 12.953437 9.863969 12.980781 9.891312 12.996406 9.910844 C 13.012031 9.930375 13.043281 9.965531 13.062812 9.988969 C 13.078437 10.012406 13.113594 10.055375 13.133125 10.078812 C 13.152656 10.106156 13.187812 10.153031 13.21125 10.184281 C 13.230781 10.215531 13.269844 10.270219 13.293281 10.305375 C 13.316719 10.340531 13.355781 10.399125 13.383125 10.442094 C 13.406562 10.481156 13.449531 10.547562 13.476875 10.594437 C 13.504219 10.637406 13.547187 10.715531 13.574531 10.766312 C 13.601875 10.813187 13.64875 10.899125 13.676094 10.957719 C 13.703437 11.012406 13.750312 11.110062 13.781562 11.172562 C 13.812812 11.235062 13.859687 11.340531 13.890937 11.410844 C 13.918281 11.481156 13.969062 11.60225 14.000312 11.680375 C 14.031562 11.754594 14.078437 11.887406 14.109687 11.973344 C 14.140937 12.059281 14.187812 12.207719 14.219062 12.301469 C 14.250312 12.399125 14.297187 12.559281 14.324531 12.66475 C 14.351875 12.774125 14.39875 12.949906 14.426094 13.067094 C 14.453437 13.184281 14.519844 13.516312 14.519844 13.516312 C 14.2425 13.996781 13.996406 14.238969 13.515937 14.520219 C 13.515937 14.520219 13.187812 14.449906 13.070625 14.426469 C 12.953437 14.399125 12.77375 14.35225 12.668281 14.324906 C 12.562812 14.293656 12.39875 14.246781 12.305 14.219437 C 12.207344 14.188187 12.058906 14.137406 11.972969 14.106156 C 11.887031 14.078812 11.758125 14.028031 11.68 13.996781 C 11.601875 13.969437 11.480781 13.918656 11.410469 13.887406 C 11.340156 13.856156 11.234687 13.809281 11.172187 13.781937 C 11.109687 13.750687 11.015937 13.703812 10.957344 13.676469 C 10.902656 13.645219 10.816719 13.60225 10.765937 13.574906 C 10.715156 13.543656 10.640937 13.500687 10.594062 13.473344 C 10.551094 13.449906 10.480781 13.406937 10.441719 13.379594 C 10.402656 13.356156 10.340156 13.317094 10.305 13.293656 C 10.269844 13.270219 10.215156 13.231156 10.183906 13.207719 C 10.156562 13.188187 10.109687 13.153031 10.082344 13.129594 C 10.055 13.110062 10.015937 13.078812 9.9925 13.059281 C 9.969062 13.03975 9.933906 13.012406 9.914375 12.996781 C 9.894844 12.97725 9.863594 12.953812 9.847969 12.938187 C 9.828437 12.922562 9.805 12.899125 9.793281 12.887406 C 9.777656 12.875687 9.758125 12.85225 9.746406 12.840531 C 9.734687 12.832719 9.719062 12.813187 9.71125 12.805375 C 9.703437 12.797562 9.691719 12.781937 9.683906 12.778031 C 9.68 12.770219 9.672187 12.7585 9.668281 12.754594 C 9.660469 12.750687 9.656562 12.746781 9.656562 12.742875 C 9.652656 12.738969 9.652656 12.738969 9.652656 12.738969 L 8.390937 11.071 C 7.433906 12.028031 6.699531 12.449906 5.394844 12.801469 L 6.207344 14.72725 C 6.207344 14.72725 6.207344 14.731156 6.207344 14.731156 C 6.21125 14.735062 6.21125 14.742875 6.215156 14.746781 C 6.215156 14.754594 6.222969 14.766312 6.222969 14.774125 C 6.226875 14.781937 6.230781 14.801469 6.234687 14.813187 C 6.238594 14.824906 6.246406 14.844437 6.250312 14.860062 C 6.254219 14.875687 6.262031 14.903031 6.265937 14.922562 C 6.269844 14.942094 6.277656 14.973344 6.281562 14.996781 C 6.285469 15.016312 6.293281 15.055375 6.301094 15.082719 C 6.305 15.106156 6.312812 15.153031 6.316719 15.180375 C 6.320625 15.211625 6.328437 15.262406 6.332344 15.297562 C 6.33625 15.328812 6.344062 15.387406 6.347969 15.426469 C 6.351875 15.461625 6.355781 15.528031 6.359687 15.571 C 6.363594 15.613969 6.3675 15.684281 6.371406 15.735062 C 6.371406 15.781937 6.375312 15.860062 6.375312 15.910844 C 6.375312 15.965531 6.375312 16.051469 6.375312 16.110062 C 6.371406 16.168656 6.3675 16.262406 6.3675 16.328812 C 6.363594 16.391312 6.355781 16.496781 6.351875 16.567094 C 6.344062 16.6335 6.332344 16.750687 6.324531 16.824906 C 6.312812 16.903031 6.297187 17.031937 6.285469 17.113969 C 6.27375 17.196 6.250312 17.332719 6.234687 17.422562 C 6.215156 17.512406 6.183906 17.66475 6.164375 17.762406 C 6.140937 17.860062 6.101875 18.024125 6.074531 18.1335 C 6.043281 18.238969 5.996406 18.41475 5.96125 18.531937 C 5.922187 18.645219 5.816719 18.965531 5.816719 18.965531 C 5.33625 19.242875 5.000312 19.332719 4.445625 19.332719 C 4.445625 19.332719 4.191719 19.110062 4.105781 19.028031 C 4.015937 18.946 3.883125 18.817094 3.808906 18.738969 C 3.730781 18.660844 3.613594 18.53975 3.543281 18.465531 C 3.476875 18.391312 3.375312 18.274125 3.312812 18.203812 C 3.254219 18.137406 3.164375 18.028031 3.113594 17.965531 C 3.062812 17.899125 2.984687 17.793656 2.937812 17.735062 C 2.890937 17.672562 2.824531 17.578812 2.785469 17.520219 C 2.746406 17.465531 2.683906 17.375687 2.652656 17.321 C 2.6175 17.270219 2.566719 17.188187 2.535469 17.137406 C 2.504219 17.090531 2.46125 17.012406 2.437812 16.965531 C 2.410469 16.922562 2.371406 16.85225 2.351875 16.809281 C 2.328437 16.766312 2.297187 16.703812 2.277656 16.66475 C 2.258125 16.625687 2.230781 16.567094 2.215156 16.531937 C 2.199531 16.496781 2.176094 16.446 2.164375 16.41475 C 2.152656 16.3835 2.133125 16.332719 2.121406 16.305375 C 2.109687 16.278031 2.094062 16.235062 2.08625 16.211625 C 2.078437 16.188187 2.062812 16.149125 2.058906 16.125687 C 2.051094 16.106156 2.039375 16.074906 2.035469 16.055375 C 2.031562 16.03975 2.02375 16.012406 2.019844 15.996781 C 2.015937 15.981156 2.008125 15.957719 2.004219 15.946 C 2.004219 15.934281 2.000312 15.918656 1.996406 15.906937 C 1.996406 15.899125 1.9925 15.887406 1.9925 15.879594 C 1.9925 15.871781 1.988594 15.867875 1.988594 15.863969 C 1.988594 15.860062 1.988594 15.860062 1.988594 15.860062 L 1.730781 13.781937 C 0.426094 14.129594 -0.425469 14.129594 -1.730156 13.781937 L -1.987969 15.860062 C -1.987969 15.860062 -1.987969 15.860062 -1.991875 15.863969 C -1.991875 15.867875 -1.991875 15.871781 -1.991875 15.879594 C -1.991875 15.887406 -1.995781 15.899125 -1.995781 15.906937 C -1.999688 15.918656 -2.003594 15.934281 -2.0075 15.946 C -2.0075 15.957719 -2.015313 15.981156 -2.019219 15.996781 C -2.023125 16.012406 -2.030938 16.03975 -2.034844 16.055375 C -2.042656 16.074906 -2.050469 16.106156 -2.058281 16.125687 C -2.066094 16.149125 -2.077813 16.188187 -2.085625 16.211625 C -2.093438 16.235062 -2.109063 16.278031 -2.120781 16.305375 C -2.1325 16.332719 -2.152031 16.3835 -2.16375 16.41475 C -2.175469 16.446 -2.198906 16.496781 -2.214531 16.531937 C -2.230156 16.567094 -2.2575 16.625687 -2.277031 16.66475 C -2.296563 16.703812 -2.327813 16.766312 -2.35125 16.809281 C -2.374688 16.85225 -2.409844 16.922562 -2.437188 16.965531 C -2.460625 17.012406 -2.5075 17.090531 -2.534844 17.137406 C -2.566094 17.188187 -2.616875 17.270219 -2.652031 17.321 C -2.687188 17.375687 -2.745781 17.465531 -2.784844 17.520219 C -2.823906 17.578812 -2.890313 17.672562 -2.937188 17.735062 C -2.984063 17.793656 -3.062188 17.899125 -3.112969 17.965531 C -3.167656 18.028031 -3.253594 18.137406 -3.316094 18.203812 C -3.374688 18.274125 -3.47625 18.391312 -3.546563 18.465531 C -3.612969 18.53975 -3.730156 18.660844 -3.808281 18.738969 C -3.886406 18.817094 -4.015313 18.946 -4.105156 19.028031 C -4.195 19.110062 -4.445 19.332719 -4.445 19.332719 C -4.999688 19.332719 -5.335625 19.242875 -5.816094 18.965531 C -5.816094 18.965531 -5.921563 18.645219 -5.956719 18.531937 C -5.991875 18.41475 -6.042656 18.238969 -6.07 18.1335 C -6.10125 18.024125 -6.140313 17.863969 -6.159844 17.762406 C -6.183281 17.66475 -6.214531 17.512406 -6.230156 17.422562 C -6.249688 17.332719 -6.269219 17.196 -6.284844 17.113969 C -6.296563 17.031937 -6.312188 16.903031 -6.323906 16.824906 C -6.331719 16.750687 -6.343438 16.6335 -6.347344 16.567094 C -6.355156 16.496781 -6.362969 16.391312 -6.362969 16.328812 C -6.366875 16.266312 -6.370781 16.168656 -6.370781 16.110062 C -6.374688 16.051469 -6.374688 15.965531 -6.374688 15.910844 C -6.370781 15.860062 -6.370781 15.781937 -6.366875 15.735062 C -6.366875 15.688187 -6.362969 15.613969 -6.359063 15.571 C -6.355156 15.528031 -6.35125 15.465531 -6.347344 15.426469 C -6.343438 15.387406 -6.335625 15.332719 -6.331719 15.297562 C -6.327813 15.262406 -6.32 15.211625 -6.316094 15.180375 C -6.312188 15.153031 -6.304375 15.106156 -6.296563 15.082719 C -6.292656 15.055375 -6.284844 15.016312 -6.280938 14.996781 C -6.277031 14.973344 -6.269219 14.942094 -6.265313 14.922562 C -6.261406 14.903031 -6.253594 14.875687 -6.249688 14.860062 C -6.245781 14.848344 -6.237969 14.824906 -6.234063 14.813187 C -6.230156 14.801469 -6.22625 14.785844 -6.222344 14.774125 C -6.218438 14.766312 -6.214531 14.754594 -6.214531 14.746781 C -6.210625 14.742875 -6.210625 14.735062 -6.206719 14.735062 C -6.206719 14.731156 -6.206719 14.72725 -6.206719 14.72725 L -5.394219 12.801469 C -6.698906 12.449906 -7.433281 12.028031 -8.386406 11.071 L -9.652031 12.738969 C -9.652031 12.738969 -9.652031 12.742875 -9.655938 12.742875 C -9.655938 12.746781 -9.659844 12.750687 -9.66375 12.754594 C -9.667656 12.762406 -9.679375 12.770219 -9.683281 12.778031 C -9.691094 12.785844 -9.702813 12.797562 -9.710625 12.805375 C -9.718438 12.817094 -9.734063 12.832719 -9.745781 12.844437 C -9.7575 12.856156 -9.777031 12.875687 -9.792656 12.887406 C -9.804375 12.899125 -9.827813 12.922562 -9.847344 12.938187 C -9.862969 12.953812 -9.890313 12.981156 -9.909844 12.996781 C -9.929375 13.012406 -9.964531 13.043656 -9.987969 13.063187 C -10.011406 13.078812 -10.054375 13.113969 -10.081719 13.1335 C -10.109063 13.153031 -10.152031 13.188187 -10.183281 13.211625 C -10.214531 13.231156 -10.269219 13.270219 -10.304375 13.293656 C -10.339531 13.317094 -10.402031 13.356156 -10.441094 13.3835 C -10.480156 13.406937 -10.546563 13.449906 -10.593438 13.47725 C -10.636406 13.500687 -10.714531 13.547562 -10.765313 13.574906 C -10.816094 13.60225 -10.902031 13.649125 -10.956719 13.676469 C -11.011406 13.703812 -11.109063 13.750687 -11.171563 13.781937 C -11.234063 13.809281 -11.339531 13.860062 -11.409844 13.887406 C -11.480156 13.918656 -11.60125 13.969437 -11.679375 14.000687 C -11.7575 14.031937 -11.886406 14.078812 -11.972344 14.110062 C -12.058281 14.137406 -12.206719 14.188187 -12.300469 14.219437 C -12.398125 14.246781 -12.558281 14.297562 -12.667656 14.324906 C -12.773125 14.35225 -12.948906 14.399125 -13.07 14.426469 C -13.187188 14.453812 -13.515313 14.520219 -13.515313 14.520219 C -13.995781 14.242875 -14.241875 13.996781 -14.519219 13.516312 C -14.519219 13.516312 -14.452813 13.188187 -14.425469 13.071 C -14.398125 12.953812 -14.35125 12.774125 -14.323906 12.668656 C -14.296563 12.559281 -14.245781 12.399125 -14.218438 12.305375 C -14.187188 12.207719 -14.136406 12.059281 -14.109063 11.973344 C -14.077813 11.887406 -14.027031 11.7585 -13.999688 11.680375 C -13.968438 11.60225 -13.917656 11.481156 -13.886406 11.410844 C -13.859063 11.340531 -13.808281 11.235062 -13.780938 11.172562 C -13.749688 11.110062 -13.702813 11.016312 -13.675469 10.957719 C -13.648125 10.903031 -13.60125 10.817094 -13.573906 10.766312 C -13.546563 10.715531 -13.499688 10.637406 -13.47625 10.594437 C -13.448906 10.547562 -13.405938 10.481156 -13.3825 10.442094 C -13.355156 10.403031 -13.316094 10.340531 -13.292656 10.305375 C -13.269219 10.270219 -13.230156 10.215531 -13.210625 10.184281 C -13.187188 10.153031 -13.152031 10.110062 -13.1325 10.082719 C -13.109063 10.055375 -13.077813 10.012406 -13.062188 9.988969 C -13.042656 9.965531 -13.011406 9.934281 -12.995781 9.91475 C -12.980156 9.891312 -12.952813 9.863969 -12.937188 9.848344 C -12.921563 9.828812 -12.902031 9.805375 -12.886406 9.793656 C -12.874688 9.778031 -12.855156 9.7585 -12.843438 9.746781 C -12.831719 9.735062 -12.816094 9.719437 -12.804375 9.711625 C -12.796563 9.703812 -12.784844 9.692094 -12.777031 9.684281 C -12.769219 9.680375 -12.761406 9.668656 -12.753594 9.66475 C -12.749688 9.660844 -12.745781 9.656937 -12.741875 9.656937 C -12.741875 9.653031 -12.737969 9.653031 -12.737969 9.653031 L -11.07 8.387406 C -12.027031 7.434281 -12.448906 6.699906 -12.800469 5.395219 L -14.72625 6.207719 C -14.72625 6.207719 -14.730156 6.207719 -14.734063 6.207719 C -14.734063 6.211625 -14.741875 6.211625 -14.749688 6.215531 C -14.753594 6.215531 -14.765313 6.219437 -14.773125 6.223344 C -14.784844 6.22725 -14.800469 6.231156 -14.812188 6.235062 C -14.823906 6.238969 -14.847344 6.246781 -14.862969 6.250687 C -14.878594 6.254594 -14.905938 6.262406 -14.921563 6.266312 C -14.941094 6.270219 -14.972344 6.278031 -14.995781 6.281937 C -15.019219 6.285844 -15.054375 6.293656 -15.081719 6.301469 C -15.109063 6.305375 -15.152031 6.313187 -15.183281 6.317094 C -15.210625 6.321 -15.261406 6.328812 -15.296563 6.332719 C -15.331719 6.336625 -15.386406 6.344437 -15.425469 6.348344 C -15.464531 6.35225 -15.527031 6.356156 -15.57 6.360062 C -15.612969 6.363969 -15.687188 6.367875 -15.734063 6.367875 C -15.780938 6.371781 -15.859063 6.375687 -15.909844 6.375687 C -15.964531 6.375687 -16.050469 6.375687 -16.109063 6.371781 C -16.167656 6.371781 -16.265313 6.367875 -16.327813 6.363969 C -16.390313 6.363969 -16.495781 6.356156 -16.566094 6.348344 C -16.636406 6.344437 -16.749688 6.332719 -16.823906 6.324906 C -16.902031 6.313187 -17.030938 6.297562 -17.112969 6.285844 C -17.195 6.274125 -17.331719 6.250687 -17.421563 6.231156 C -17.511406 6.215531 -17.66375 6.184281 -17.761406 6.160844 C -17.862969 6.141312 -18.027031 6.10225 -18.1325 6.071 C -18.237969 6.043656 -18.41375 5.996781 -18.530938 5.957719 C -18.644219 5.922562 -18.964531 5.817094 -18.964531 5.817094 C -19.241875 5.336625 -19.331719 5.000687 -19.331719 4.446 C -19.331719 4.446 -19.109063 4.192094 -19.027031 4.106156 C -18.945 4.016312 -18.816094 3.8835 -18.737969 3.805375 C -18.659844 3.731156 -18.53875 3.613969 -18.464531 3.543656 C -18.390313 3.47725 -18.273125 3.375687 -18.206719 3.313187 C -18.136406 3.254594 -18.030938 3.16475 -17.964531 3.113969 C -17.898125 3.063187 -17.792656 2.981156 -17.734063 2.938187 C -17.671563 2.891312 -17.577813 2.824906 -17.523125 2.785844 C -17.464531 2.742875 -17.374688 2.684281 -17.323906 2.649125 C -17.269219 2.617875 -17.187188 2.567094 -17.136406 2.535844 C -17.089531 2.504594 -17.011406 2.461625 -16.968438 2.434281 C -16.921563 2.410844 -16.85125 2.371781 -16.808281 2.35225 C -16.769219 2.328812 -16.702813 2.297562 -16.66375 2.278031 C -16.624688 2.2585 -16.566094 2.231156 -16.530938 2.215531 C -16.495781 2.199906 -16.445 2.176469 -16.41375 2.16475 C -16.3825 2.149125 -16.335625 2.1335 -16.304375 2.121781 C -16.277031 2.110062 -16.234063 2.094437 -16.210625 2.086625 C -16.187188 2.078812 -16.148125 2.063187 -16.128594 2.059281 C -16.105156 2.051469 -16.073906 2.03975 -16.058281 2.035844 C -16.03875 2.031937 -16.011406 2.024125 -15.995781 2.020219 C -15.980156 2.016312 -15.956719 2.0085 -15.945 2.004594 C -15.933281 2.004594 -15.917656 2.000687 -15.905938 1.996781 C -15.898125 1.996781 -15.886406 1.992875 -15.878594 1.992875 C -15.874688 1.992875 -15.866875 1.988969 -15.862969 1.988969 C -15.862969 1.988969 -15.859063 1.988969 -15.859063 1.988969 L -13.780938 1.72725 C -14.1325 0.426469 -14.1325 -0.425094 -13.780938 -1.729781 L -15.859063 -1.987594 C -15.859063 -1.987594 -15.862969 -1.9915 -15.862969 -1.9915 C -15.866875 -1.9915 -15.874688 -1.9915 -15.878594 -1.9915 C -15.886406 -1.9915 -15.898125 -1.995406 -15.905938 -1.999313 C -15.917656 -1.999313 -15.933281 -2.003219 -15.945 -2.007125 C -15.956719 -2.007125 -15.980156 -2.014938 -15.995781 -2.018844 C -16.011406 -2.02275 -16.03875 -2.030563 -16.058281 -2.034469 C -16.073906 -2.042281 -16.105156 -2.050094 -16.128594 -2.057906 C -16.148125 -2.065719 -16.187188 -2.077438 -16.210625 -2.08525 C -16.234063 -2.093063 -16.277031 -2.108688 -16.304375 -2.120406 C -16.335625 -2.132125 -16.3825 -2.151656 -16.41375 -2.163375 C -16.445 -2.179 -16.495781 -2.198531 -16.530938 -2.214156 C -16.566094 -2.229781 -16.624688 -2.257125 -16.66375 -2.276656 C -16.702813 -2.296188 -16.769219 -2.327438 -16.808281 -2.350875 C -16.85125 -2.374313 -16.921563 -2.409469 -16.968438 -2.436813 C -17.011406 -2.46025 -17.089531 -2.507125 -17.136406 -2.534469 C -17.187188 -2.565719 -17.269219 -2.6165 -17.323906 -2.651656 C -17.374688 -2.686813 -17.464531 -2.745406 -17.523125 -2.784469 C -17.577813 -2.823531 -17.671563 -2.889938 -17.734063 -2.936813 C -17.792656 -2.983688 -17.898125 -3.061813 -17.964531 -3.112594 C -18.030938 -3.167281 -18.136406 -3.253219 -18.206719 -3.315719 C -18.273125 -3.374313 -18.390313 -3.475875 -18.464531 -3.546188 C -18.53875 -3.612594 -18.659844 -3.729781 -18.737969 -3.807906 C -18.816094 -3.886031 -18.945 -4.014938 -19.027031 -4.104781 C -19.109063 -4.194625 -19.331719 -4.444625 -19.331719 -4.444625 C -19.331719 -4.999313 -19.241875 -5.33525 -18.964531 -5.815719 C -18.964531 -5.815719 -18.648125 -5.921188 -18.530938 -5.956344 C -18.41375 -5.9915 -18.237969 -6.042281 -18.1325 -6.069625 C -18.027031 -6.100875 -17.862969 -6.139938 -17.765313 -6.163375 C -17.66375 -6.182906 -17.515313 -6.214156 -17.425469 -6.229781 C -17.335625 -6.249313 -17.198906 -6.27275 -17.112969 -6.284469 C -17.030938 -6.296188 -16.902031 -6.311813 -16.827813 -6.323531 C -16.749688 -6.331344 -16.636406 -6.343063 -16.566094 -6.346969 C -16.495781 -6.354781 -16.390313 -6.362594 -16.327813 -6.362594 C -16.265313 -6.3665 -16.167656 -6.370406 -16.109063 -6.370406 C -16.050469 -6.374313 -15.964531 -6.374313 -15.91375 -6.374313 C -15.859063 -6.374313 -15.780938 -6.370406 -15.734063 -6.3665 C -15.687188 -6.3665 -15.612969 -6.362594 -15.57 -6.358688 C -15.527031 -6.354781 -15.464531 -6.350875 -15.425469 -6.346969 C -15.386406 -6.343063 -15.331719 -6.33525 -15.296563 -6.331344 C -15.261406 -6.327438 -15.210625 -6.319625 -15.183281 -6.315719 C -15.152031 -6.311813 -15.109063 -6.304 -15.081719 -6.300094 C -15.054375 -6.292281 -15.019219 -6.284469 -14.995781 -6.280563 C -14.972344 -6.276656 -14.941094 -6.268844 -14.921563 -6.264938 C -14.905938 -6.261031 -14.878594 -6.253219 -14.862969 -6.249313 C -14.847344 -6.245406 -14.823906 -6.237594 -14.812188 -6.233688 C -14.800469 -6.229781 -14.784844 -6.225875 -14.777031 -6.221969 C -14.765313 -6.221969 -14.753594 -6.214156 -14.749688 -6.214156 C -14.741875 -6.21025 -14.737969 -6.21025 -14.734063 -6.206344 C -14.730156 -6.206344 -14.730156 -6.206344 -14.730156 -6.206344 L -12.800469 -5.393844 C -12.448906 -6.698531 -12.027031 -7.432906 -11.07 -8.389938 L -12.737969 -9.651656 C -12.737969 -9.651656 -12.741875 -9.651656 -12.745781 -9.655563 C -12.745781 -9.655563 -12.753594 -9.659469 -12.7575 -9.667281 C -12.761406 -9.671188 -12.769219 -9.679 -12.777031 -9.682906 C -12.784844 -9.690719 -12.796563 -9.702438 -12.808281 -9.71025 C -12.816094 -9.718063 -12.831719 -9.733688 -12.843438 -9.745406 C -12.855156 -9.757125 -12.874688 -9.776656 -12.886406 -9.792281 C -12.902031 -9.804 -12.921563 -9.827438 -12.937188 -9.846969 C -12.952813 -9.862594 -12.980156 -9.889938 -12.995781 -9.909469 C -13.015313 -9.932906 -13.042656 -9.964156 -13.062188 -9.987594 C -13.081719 -10.011031 -13.112969 -10.054 -13.1325 -10.081344 C -13.152031 -10.108688 -13.187188 -10.151656 -13.210625 -10.182906 C -13.234063 -10.214156 -13.269219 -10.268844 -13.292656 -10.304 C -13.316094 -10.339156 -13.359063 -10.401656 -13.3825 -10.440719 C -13.409844 -10.479781 -13.448906 -10.546188 -13.47625 -10.593063 C -13.503594 -10.636031 -13.546563 -10.714156 -13.573906 -10.764938 C -13.60125 -10.815719 -13.648125 -10.901656 -13.675469 -10.956344 C -13.706719 -11.014938 -13.753594 -11.108688 -13.780938 -11.171188 C -13.812188 -11.233688 -13.859063 -11.339156 -13.890313 -11.409469 C -13.917656 -11.479781 -13.968438 -11.600875 -13.999688 -11.679 C -14.030938 -11.757125 -14.077813 -11.886031 -14.109063 -11.971969 C -14.140313 -12.057906 -14.187188 -12.206344 -14.218438 -12.304 C -14.249688 -12.39775 -14.296563 -12.557906 -14.323906 -12.667281 C -14.35125 -12.77275 -14.398125 -12.948531 -14.425469 -13.069625 C -14.452813 -13.186813 -14.519219 -13.514938 -14.519219 -13.514938 C -14.241875 -13.995406 -13.995781 -14.2415 -13.515313 -14.518844 C -13.515313 -14.518844 -13.187188 -14.452438 -13.07 -14.425094 C -12.952813 -14.39775 -12.773125 -14.350875 -12.667656 -14.323531 C -12.562188 -14.296188 -12.398125 -14.249313 -12.304375 -14.218063 C -12.206719 -14.186813 -12.062188 -14.139938 -11.972344 -14.108688 C -11.886406 -14.077438 -11.7575 -14.030563 -11.679375 -13.999313 C -11.60125 -13.968063 -11.480156 -13.917281 -11.409844 -13.886031 C -11.339531 -13.858688 -11.234063 -13.807906 -11.171563 -13.780563 C -11.109063 -13.749313 -11.015313 -13.702438 -10.956719 -13.675094 C -10.902031 -13.64775 -10.816094 -13.600875 -10.765313 -13.573531 C -10.714531 -13.546188 -10.640313 -13.503219 -10.593438 -13.475875 C -10.550469 -13.448531 -10.480156 -13.405563 -10.441094 -13.382125 C -10.402031 -13.354781 -10.339531 -13.315719 -10.304375 -13.292281 C -10.269219 -13.268844 -10.218438 -13.229781 -10.187188 -13.21025 C -10.155938 -13.186813 -10.109063 -13.151656 -10.081719 -13.132125 C -10.054375 -13.112594 -10.015313 -13.077438 -9.991875 -13.061813 C -9.968438 -13.042281 -9.933281 -13.011031 -9.91375 -12.995406 C -9.894219 -12.979781 -9.862969 -12.952438 -9.847344 -12.936813 C -9.831719 -12.921188 -9.804375 -12.901656 -9.792656 -12.886031 C -9.777031 -12.874313 -9.7575 -12.854781 -9.745781 -12.843063 C -9.734063 -12.831344 -9.718438 -12.815719 -9.710625 -12.804 C -9.702813 -12.796188 -9.691094 -12.784469 -9.683281 -12.776656 C -9.679375 -12.768844 -9.671563 -12.761031 -9.667656 -12.753219 C -9.66375 -12.749313 -9.659844 -12.745406 -9.655938 -12.7415 C -9.655938 -12.7415 -9.652031 -12.737594 -9.652031 -12.737594 L -8.390313 -11.069625 C -7.433281 -12.026656 -6.698906 -12.448531 -5.394219 -12.800094 L -6.206719 -14.729781 C -6.206719 -14.729781 -6.206719 -14.729781 -6.210625 -14.733688 C -6.210625 -14.737594 -6.214531 -14.7415 -6.214531 -14.749313 C -6.218438 -14.753219 -6.222344 -14.764938 -6.222344 -14.776656 C -6.22625 -14.784469 -6.234063 -14.800094 -6.234063 -14.811813 C -6.237969 -14.823531 -6.245781 -14.846969 -6.249688 -14.862594 C -6.253594 -14.878219 -6.261406 -14.905563 -6.265313 -14.921188 C -6.269219 -14.940719 -6.277031 -14.971969 -6.280938 -14.995406 C -6.28875 -15.018844 -6.296563 -15.054 -6.300469 -15.081344 C -6.304375 -15.108688 -6.312188 -15.151656 -6.316094 -15.182906 C -6.32 -15.21025 -6.327813 -15.261031 -6.331719 -15.296188 C -6.335625 -15.331344 -6.343438 -15.386031 -6.347344 -15.425094 C -6.35125 -15.464156 -6.359063 -15.526656 -6.359063 -15.569625 C -6.362969 -15.612594 -6.366875 -15.686813 -6.370781 -15.733688 C -6.370781 -15.780563 -6.374688 -15.858688 -6.374688 -15.913375 C -6.374688 -15.964156 -6.374688 -16.050094 -6.374688 -16.108688 C -6.370781 -16.167281 -6.370781 -16.264938 -6.366875 -16.327438 C -6.362969 -16.389938 -6.355156 -16.495406 -6.35125 -16.565719 C -6.343438 -16.636031 -6.331719 -16.749313 -6.323906 -16.827438 C -6.316094 -16.901656 -6.296563 -17.030563 -6.284844 -17.112594 C -6.273125 -17.194625 -6.249688 -17.331344 -6.234063 -17.421188 C -6.214531 -17.514938 -6.183281 -17.663375 -6.16375 -17.764938 C -6.140313 -17.862594 -6.10125 -18.026656 -6.073906 -18.132125 C -6.046563 -18.237594 -5.995781 -18.413375 -5.960625 -18.530563 C -5.925469 -18.64775 -5.816094 -18.964156 -5.816094 -18.964156 C -5.335625 -19.2415 -4.999688 -19.331344 -4.445 -19.331344 C -4.445 -19.331344 -4.195 -19.108688 -4.105156 -19.026656 C -4.015313 -18.944625 -3.886406 -18.815719 -3.808281 -18.737594 C -3.730156 -18.659469 -3.612969 -18.538375 -3.546563 -18.464156 C -3.47625 -18.389938 -3.374688 -18.276656 -3.316094 -18.206344 C -3.253594 -18.136031 -3.167656 -18.030563 -3.112969 -17.964156 C -3.062188 -17.89775 -2.984063 -17.796188 -2.937188 -17.733688 C -2.890313 -17.671188 -2.823906 -17.577438 -2.784844 -17.52275 C -2.745781 -17.464156 -2.687188 -17.374313 -2.652031 -17.323531 C -2.616875 -17.268844 -2.566094 -17.186813 -2.534844 -17.139938 C -2.5075 -17.089156 -2.460625 -17.011031 -2.437188 -16.968063 C -2.409844 -16.921188 -2.374688 -16.850875 -2.35125 -16.807906 C -2.327813 -16.768844 -2.296563 -16.702438 -2.277031 -16.663375 C -2.2575 -16.624313 -2.230156 -16.565719 -2.214531 -16.530563 C -2.198906 -16.499313 -2.175469 -16.444625 -2.16375 -16.413375 C -2.152031 -16.382125 -2.1325 -16.33525 -2.120781 -16.307906 C -2.109063 -16.276656 -2.093438 -16.237594 -2.085625 -16.21025 C -2.077813 -16.186813 -2.066094 -16.14775 -2.058281 -16.128219 C -2.050469 -16.104781 -2.042656 -16.073531 -2.034844 -16.057906 C -2.030938 -16.038375 -2.023125 -16.011031 -2.019219 -15.995406 C -2.015313 -15.979781 -2.0075 -15.956344 -2.0075 -15.944625 C -2.003594 -15.932906 -1.999688 -15.917281 -1.995781 -15.909469 C -1.995781 -15.89775 -1.991875 -15.886031 -1.991875 -15.878219 C -1.991875 -15.874313 -1.991875 -15.8665 -1.991875 -15.862594 C -1.987969 -15.862594 -1.987969 -15.858688 -1.987969 -15.858688 L -1.730156 -13.780563 C -0.425469 -14.132125 0.426094 -14.132125 1.730781 -13.780563 L 1.988594 -15.858688 C 1.988594 -15.858688 1.988594 -15.862594 1.988594 -15.862594 C 1.988594 -15.8665 1.9925 -15.874313 1.9925 -15.878219 C 1.9925 -15.886031 1.996406 -15.89775 1.996406 -15.909469 C 2.000312 -15.917281 2.004219 -15.932906 2.004219 -15.944625 C 2.008125 -15.956344 2.015937 -15.979781 2.019844 -15.995406 C 2.02375 -16.011031 2.031562 -16.038375 2.035469 -16.057906 C 2.039375 -16.073531 2.051094 -16.104781 2.058906 -16.128219 C 2.062812 -16.14775 2.078437 -16.186813 2.08625 -16.21025 C 2.094062 -16.237594 2.109687 -16.276656 2.121406 -16.307906 C 2.133125 -16.33525 2.152656 -16.382125 2.164375 -16.413375 C 2.176094 -16.444625 2.199531 -16.499313 2.215156 -16.530563 C 2.230781 -16.565719 2.258125 -16.624313 2.277656 -16.663375 C 2.297187 -16.702438 2.328437 -16.768844 2.351875 -16.807906 C 2.371406 -16.850875 2.410469 -16.921188 2.437812 -16.968063 C 2.46125 -17.011031 2.504219 -17.089156 2.535469 -17.139938 C 2.566719 -17.186813 2.6175 -17.268844 2.652656 -17.323531 C 2.683906 -17.374313 2.746406 -17.464156 2.785469 -17.52275 C 2.824531 -17.577438 2.890937 -17.671188 2.937812 -17.733688 C 2.984687 -17.796188 3.062812 -17.89775 3.113594 -17.964156 C 3.164375 -18.030563 3.254219 -18.136031 3.312812 -18.206344 C 3.375312 -18.276656 3.476875 -18.389938 3.543281 -18.464156 C 3.613594 -18.538375 3.730781 -18.659469 3.808906 -18.737594 C 3.883125 -18.815719 4.015937 -18.944625 4.105781 -19.026656 C 4.191719 -19.108688 4.445625 -19.331344 4.445625 -19.331344 C 5.000312 -19.331344 5.33625 -19.2415 5.816719 -18.964156 C 5.816719 -18.964156 5.922187 -18.64775 5.957344 -18.530563 C 5.9925 -18.417281 6.043281 -18.237594 6.070625 -18.132125 C 6.097969 -18.026656 6.140937 -17.862594 6.160469 -17.764938 C 6.183906 -17.667281 6.215156 -17.514938 6.230781 -17.425094 C 6.246406 -17.33525 6.269844 -17.198531 6.281562 -17.112594 C 6.297187 -17.030563 6.312812 -16.901656 6.320625 -16.827438 C 6.332344 -16.749313 6.344062 -16.636031 6.347969 -16.565719 C 6.355781 -16.495406 6.359687 -16.389938 6.363594 -16.327438 C 6.3675 -16.264938 6.371406 -16.167281 6.371406 -16.108688 C 6.371406 -16.054 6.375312 -15.964156 6.371406 -15.913375 C 6.371406 -15.858688 6.371406 -15.780563 6.3675 -15.733688 C 6.3675 -15.686813 6.363594 -15.612594 6.359687 -15.569625 C 6.355781 -15.530563 6.351875 -15.464156 6.347969 -15.425094 C 6.344062 -15.386031 6.33625 -15.331344 6.332344 -15.296188 C 6.328437 -15.264938 6.320625 -15.21025 6.316719 -15.182906 C 6.312812 -15.151656 6.301094 -15.108688 6.297187 -15.081344 C 6.293281 -15.057906 6.285469 -15.018844 6.281562 -14.995406 C 6.277656 -14.971969 6.269844 -14.940719 6.265937 -14.925094 C 6.258125 -14.905563 6.254219 -14.878219 6.250312 -14.862594 C 6.2425 -14.846969 6.238594 -14.823531 6.234687 -14.811813 C 6.230781 -14.800094 6.226875 -14.784469 6.222969 -14.776656 C 6.219062 -14.768844 6.215156 -14.753219 6.215156 -14.749313 C 6.21125 -14.7415 6.207344 -14.737594 6.207344 -14.733688 C 6.207344 -14.729781 6.203437 -14.729781 6.203437 -14.729781 L 5.390937 -12.800094 C 6.699531 -12.452438 7.433906 -12.026656 8.387031 -11.073531 L 9.652656 -12.737594 C 9.652656 -12.737594 9.652656 -12.7415 9.656562 -12.745406 C 9.656562 -12.745406 9.660469 -12.753219 9.664375 -12.757125 C 9.668281 -12.761031 9.676094 -12.77275 9.683906 -12.776656 C 9.691719 -12.784469 9.699531 -12.796188 9.71125 -12.807906 C 9.719062 -12.815719 9.734687 -12.831344 9.746406 -12.843063 C 9.758125 -12.854781 9.777656 -12.874313 9.789375 -12.886031 C 9.805 -12.901656 9.828437 -12.921188 9.844062 -12.936813 C 9.863594 -12.952438 9.890937 -12.979781 9.910469 -12.995406 C 9.93 -13.014938 9.965156 -13.042281 9.988594 -13.061813 C 10.012031 -13.081344 10.055 -13.112594 10.082344 -13.132125 C 10.109687 -13.151656 10.152656 -13.186813 10.183906 -13.21025 C 10.215156 -13.233688 10.269844 -13.268844 10.305 -13.292281 C 10.340156 -13.315719 10.39875 -13.358688 10.441719 -13.382125 C 10.480781 -13.409469 10.547187 -13.448531 10.594062 -13.475875 C 10.637031 -13.503219 10.715156 -13.546188 10.765937 -13.573531 C 10.816719 -13.600875 10.89875 -13.64775 10.957344 -13.675094 C 11.012031 -13.706344 11.109687 -13.753219 11.172187 -13.780563 C 11.234687 -13.811813 11.340156 -13.858688 11.410469 -13.889938 C 11.480781 -13.921188 11.601875 -13.968063 11.68 -13.999313 C 11.758125 -14.030563 11.887031 -14.077438 11.972969 -14.108688 C 12.058906 -14.139938 12.207344 -14.190719 12.301094 -14.218063 C 12.39875 -14.249313 12.558906 -14.296188 12.664375 -14.323531 C 12.77375 -14.354781 12.949531 -14.39775 13.066719 -14.425094 C 13.187812 -14.452438 13.515937 -14.518844 13.515937 -14.518844 C 13.996406 -14.2415 14.2425 -13.999313 14.519844 -13.514938 C 14.519844 -13.514938 14.453437 -13.186813 14.426094 -13.069625 C 14.39875 -12.952438 14.351875 -12.77275 14.324531 -12.667281 C 14.293281 -12.561813 14.246406 -12.401656 14.219062 -12.304 C 14.187812 -12.206344 14.137031 -12.061813 14.105781 -11.975875 C 14.078437 -11.886031 14.027656 -11.757125 13.996406 -11.679 C 13.969062 -11.600875 13.918281 -11.479781 13.887031 -11.409469 C 13.855781 -11.339156 13.808906 -11.233688 13.781562 -11.171188 C 13.750312 -11.108688 13.703437 -11.014938 13.676094 -10.96025 C 13.64875 -10.901656 13.601875 -10.815719 13.574531 -10.764938 C 13.543281 -10.714156 13.500312 -10.639938 13.472969 -10.593063 C 13.449531 -10.550094 13.406562 -10.483688 13.383125 -10.440719 C 13.355781 -10.401656 13.316719 -10.343063 13.293281 -10.304 C 13.269844 -10.268844 13.230781 -10.218063 13.207344 -10.186813 C 13.187812 -10.155563 13.152656 -10.108688 13.133125 -10.081344 C 13.109687 -10.054 13.078437 -10.014938 13.058906 -9.9915 C 13.043281 -9.968063 13.012031 -9.932906 12.996406 -9.913375 C 12.976875 -9.893844 12.953437 -9.862594 12.937812 -9.846969 C 12.922187 -9.831344 12.89875 -9.807906 12.887031 -9.792281 C 12.875312 -9.776656 12.851875 -9.757125 12.844062 -9.745406 C 12.832344 -9.733688 12.812812 -9.718063 12.805 -9.71025 C 12.797187 -9.702438 12.785469 -9.690719 12.777656 -9.686813 C 12.769844 -9.679 12.758125 -9.671188 12.754219 -9.667281 C 12.750312 -9.663375 12.746406 -9.659469 12.7425 -9.655563 C 12.7425 -9.655563 12.738594 -9.651656 12.738594 -9.651656 L 11.070625 -8.389938 C 12.027656 -7.432906 12.449531 -6.698531 12.801094 -5.393844 L 14.726875 -6.206344 C 14.726875 -6.206344 14.730781 -6.206344 14.734687 -6.21025 C 14.734687 -6.21025 14.7425 -6.214156 14.750312 -6.214156 C 14.754219 -6.218063 14.765937 -6.221969 14.77375 -6.225875 C 14.785469 -6.225875 14.801094 -6.233688 14.812812 -6.237594 C 14.824531 -6.237594 14.847969 -6.245406 14.859687 -6.249313 C 14.875312 -6.253219 14.902656 -6.261031 14.922187 -6.264938 C 14.941719 -6.268844 14.972969 -6.276656 14.996406 -6.280563 C 15.015937 -6.288375 15.055 -6.296188 15.082344 -6.300094 C 15.105781 -6.304 15.152656 -6.311813 15.18 -6.315719 C 15.21125 -6.319625 15.262031 -6.327438 15.297187 -6.331344 C 15.328437 -6.33525 15.387031 -6.343063 15.426094 -6.346969 C 15.46125 -6.350875 15.527656 -6.358688 15.570625 -6.358688 C 15.613594 -6.362594 15.683906 -6.3665 15.734687 -6.370406 C 15.781562 -6.370406 15.859687 -6.374313 15.910469 -6.374313 C 15.965156 -6.374313 16.051094 -6.374313 16.109687 -6.374313 C 16.168281 -6.370406 16.265937 -6.370406 16.328437 -6.3665 C 16.390937 -6.362594 16.496406 -6.354781 16.566719 -6.350875 C 16.633125 -6.343063 16.750312 -6.331344 16.824531 -6.323531 C 16.902656 -6.315719 17.031562 -6.296188 17.113594 -6.284469 C 17.195625 -6.27275 17.332344 -6.249313 17.422187 -6.233688 C 17.512031 -6.214156 17.664375 -6.186813 17.762031 -6.163375 C 17.859687 -6.139938 18.02375 -6.100875 18.133125 -6.073531 C 18.238594 -6.046188 18.414375 -5.995406 18.531562 -5.96025 C 18.644844 -5.925094 18.965156 -5.815719 18.965156 -5.815719 C 19.2425 -5.33525 19.332344 -4.999313 19.332344 -4.444625 C 19.332344 -4.444625 19.109687 -4.194625 19.027656 -4.104781 C 18.945625 -4.014938 18.816719 -3.886031 18.738594 -3.807906 C 18.660469 -3.729781 18.539375 -3.612594 18.465156 -3.546188 C 18.390937 -3.475875 18.27375 -3.374313 18.207344 -3.315719 C 18.137031 -3.253219 18.027656 -3.167281 17.965156 -3.112594 C 17.89875 -3.061813 17.793281 -2.983688 17.734687 -2.936813 C 17.672187 -2.889938 17.578437 -2.823531 17.519844 -2.784469 C 17.465156 -2.745406 17.375312 -2.686813 17.324531 -2.651656 C 17.269844 -2.6165 17.187812 -2.565719 17.137031 -2.534469 C 17.090156 -2.507125 17.012031 -2.46025 16.969062 -2.436813 C 16.922187 -2.409469 16.851875 -2.374313 16.808906 -2.350875 C 16.765937 -2.327438 16.703437 -2.296188 16.664375 -2.276656 C 16.625312 -2.257125 16.566719 -2.229781 16.531562 -2.214156 C 16.496406 -2.198531 16.445625 -2.179 16.414375 -2.163375 C 16.383125 -2.151656 16.33625 -2.132125 16.305 -2.120406 C 16.277656 -2.108688 16.234687 -2.093063 16.21125 -2.08525 C 16.187812 -2.077438 16.14875 -2.065719 16.129219 -2.057906 C 16.105781 -2.050094 16.074531 -2.042281 16.055 -2.034469 C 16.039375 -2.030563 16.012031 -2.02275 15.996406 -2.018844 C 15.980781 -2.014938 15.957344 -2.007125 15.945625 -2.007125 C 15.933906 -2.003219 15.918281 -1.999313 15.906562 -1.999313 C 15.89875 -1.995406 15.887031 -1.9915 15.879219 -1.9915 C 15.875312 -1.9915 15.8675 -1.9915 15.863594 -1.9915 C 15.859687 -1.9915 15.859687 -1.987594 15.859687 -1.987594 L 13.781562 -1.729781 C 14.133125 -0.425094 14.133125 0.426469 13.781562 1.72725 L 15.859687 1.988969 C 15.859687 1.988969 15.859687 1.988969 15.863594 1.988969 C 15.8675 1.988969 15.875312 1.992875 15.879219 1.992875 C 15.887031 1.992875 15.89875 1.996781 15.906562 1.996781 C 15.918281 2.000687 15.933906 2.004594 15.945625 2.004594 C 15.957344 2.0085 15.980781 2.016312 15.996406 2.020219 C 16.012031 2.024125 16.039375 2.031937 16.055 2.035844 C 16.074531 2.03975 16.105781 2.051469 16.129219 2.059281 C 16.14875 2.063187 16.187812 2.078812 16.21125 2.086625 C 16.234687 2.094437 16.277656 2.110062 16.305 2.121781 C 16.33625 2.1335 16.383125 2.149125 16.414375 2.16475 C 16.445625 2.176469 16.496406 2.199906 16.531562 2.215531 C 16.566719 2.231156 16.625312 2.2585 16.664375 2.278031 C 16.703437 2.297562 16.765937 2.328812 16.808906 2.35225 C 16.851875 2.371781 16.922187 2.410844 16.969062 2.434281 C 17.012031 2.461625 17.090156 2.504594 17.137031 2.535844 C 17.187812 2.567094 17.269844 2.617875 17.324531 2.649125 C 17.375312 2.684281 17.465156 2.742875 17.519844 2.785844 C 17.578437 2.824906 17.672187 2.891312 17.734687 2.938187 C 17.793281 2.981156 17.89875 3.063187 17.965156 3.113969 C 18.027656 3.16475 18.137031 3.254594 18.207344 3.313187 C 18.27375 3.375687 18.390937 3.47725 18.465156 3.543656 C 18.539375 3.613969 18.660469 3.731156 18.738594 3.805375 C 18.816719 3.8835 18.945625 4.016312 19.027656 4.106156 C 19.109687 4.192094 19.332344 4.446 19.332344 4.446 C 19.332344 4.996781 19.2425 5.336625 18.965156 5.817094 C 18.965156 5.817094 18.644844 5.922562 18.531562 5.957719 C 18.414375 5.992875 18.238594 6.043656 18.133125 6.071 C 18.02375 6.098344 17.863594 6.137406 17.762031 6.160844 C 17.664375 6.184281 17.515937 6.215531 17.422187 6.231156 C 17.332344 6.246781 17.195625 6.270219 17.113594 6.281937 C 17.031562 6.297562 16.902656 6.313187 16.828437 6.321 C 16.750312 6.332719 16.633125 6.340531 16.566719 6.348344 C 16.496406 6.35225 16.390937 6.360062 16.328437 6.363969 C 16.265937 6.367875 16.168281 6.371781 16.109687 6.371781 C 16.051094 6.371781 15.965156 6.371781 15.910469 6.371781 C 15.859687 6.371781 15.781562 6.367875 15.734687 6.367875 C 15.687812 6.363969 15.613594 6.363969 15.570625 6.360062 C 15.527656 6.356156 15.465156 6.35225 15.426094 6.348344 C 15.387031 6.344437 15.332344 6.336625 15.297187 6.332719 C 15.262031 6.328812 15.21125 6.321 15.183906 6.317094 C 15.152656 6.309281 15.109687 6.301469 15.082344 6.297562 C 15.055 6.293656 15.015937 6.285844 14.996406 6.281937 C 14.972969 6.278031 14.941719 6.270219 14.922187 6.266312 C 14.906562 6.2585 14.879219 6.250687 14.863594 6.246781 C 14.847969 6.242875 14.824531 6.238969 14.812812 6.235062 C 14.801094 6.231156 14.785469 6.22725 14.777656 6.223344 C 14.765937 6.219437 14.754219 6.215531 14.750312 6.211625 C 14.7425 6.211625 14.738594 6.207719 14.734687 6.207719 C 14.730781 6.207719 14.726875 6.203812 14.726875 6.203812 Z M 12.801094 5.391312 " transform="matrix(1, 0, 0, -1, 23.82, 23.821)"/>
</g>
</svg>
