<?xml version="1.0" encoding="UTF-8"?>
<svg xmlns="http://www.w3.org/2000/svg" xmlns:xlink="http://www.w3.org/1999/xlink" width="39.062pt" height="39.062pt" viewBox="0 0 39.062 39.062" version="1.1">
<g id="surface1">
<path style="fill:none;stroke-width:0.3985;stroke-linecap:butt;stroke-linejoin:miter;stroke:rgb(0%,0%,0%);stroke-opacity:1;stroke-miterlimit:10;" d="M 12.801031 5.394281 C 12.449469 6.698969 12.027594 7.433344 11.070562 8.386469 L 12.738531 9.652094 C 12.738531 9.652094 12.742437 9.652094 12.742437 9.656 C 12.746344 9.656 12.75025 9.659906 12.758062 9.663813 C 12.761969 9.667719 12.769781 9.679438 12.777594 9.683344 C 12.785406 9.691156 12.797125 9.702875 12.804937 9.710688 C 12.816656 9.7185 12.832281 9.734125 12.844 9.745844 C 12.855719 9.757563 12.87525 9.777094 12.886969 9.792719 C 12.898687 9.804438 12.922125 9.827875 12.93775 9.8435 C 12.953375 9.863031 12.980719 9.890375 12.996344 9.909906 C 13.011969 9.929438 13.043219 9.964594 13.06275 9.988031 C 13.078375 10.011469 13.113531 10.054438 13.133062 10.081781 C 13.152594 10.109125 13.18775 10.152094 13.211187 10.183344 C 13.230719 10.214594 13.269781 10.269281 13.293219 10.304438 C 13.316656 10.339594 13.355719 10.398188 13.383062 10.441156 C 13.4065 10.480219 13.449469 10.546625 13.476812 10.5935 C 13.504156 10.636469 13.547125 10.714594 13.574469 10.765375 C 13.601812 10.816156 13.648687 10.902094 13.676031 10.956781 C 13.703375 11.011469 13.75025 11.109125 13.7815 11.171625 C 13.81275 11.234125 13.859625 11.339594 13.890875 11.409906 C 13.918219 11.480219 13.969 11.601313 14.00025 11.679438 C 14.0315 11.757563 14.078375 11.886469 14.109625 11.972406 C 14.140875 12.058344 14.18775 12.206781 14.219 12.300531 C 14.25025 12.398188 14.297125 12.558344 14.324469 12.667719 C 14.351812 12.773188 14.398687 12.948969 14.426031 13.070063 C 14.453375 13.18725 14.519781 13.515375 14.519781 13.515375 C 14.242437 13.995844 13.996344 14.241938 13.515875 14.519281 C 13.515875 14.519281 13.18775 14.452875 13.070562 14.425531 C 12.953375 14.398188 12.773687 14.351313 12.668219 14.323969 C 12.56275 14.296625 12.398687 14.245844 12.304937 14.2185 C 12.207281 14.18725 12.058844 14.136469 11.972906 14.109125 C 11.886969 14.077875 11.758062 14.027094 11.679937 13.99975 C 11.601812 13.9685 11.480719 13.917719 11.410406 13.886469 C 11.340094 13.859125 11.234625 13.808344 11.172125 13.781 C 11.109625 13.74975 11.015875 13.702875 10.957281 13.675531 C 10.902594 13.648188 10.816656 13.601313 10.765875 13.573969 C 10.715094 13.546625 10.640875 13.49975 10.594 13.476313 C 10.551031 13.448969 10.480719 13.406 10.441656 13.382563 C 10.402594 13.355219 10.340094 13.316156 10.304937 13.292719 C 10.269781 13.269281 10.215094 13.230219 10.18775 13.210688 C 10.1565 13.18725 10.109625 13.152094 10.082281 13.132563 C 10.054937 13.109125 10.015875 13.077875 9.992437 13.06225 C 9.969 13.042719 9.933844 13.011469 9.914312 12.995844 C 9.894781 12.980219 9.863531 12.952875 9.847906 12.93725 C 9.828375 12.921625 9.804937 12.902094 9.793219 12.886469 C 9.777594 12.87475 9.758062 12.855219 9.746344 12.8435 C 9.734625 12.831781 9.719 12.816156 9.711187 12.804438 C 9.703375 12.796625 9.691656 12.784906 9.683844 12.777094 C 9.679937 12.769281 9.672125 12.761469 9.668219 12.753656 C 9.664312 12.74975 9.6565 12.745844 9.6565 12.741938 C 9.652594 12.741938 9.652594 12.738031 9.652594 12.738031 L 8.390875 11.070063 C 7.433844 12.027094 6.699469 12.448969 5.394781 12.800531 L 6.207281 14.726313 C 6.207281 14.726313 6.207281 14.730219 6.207281 14.734125 C 6.211187 14.734125 6.211187 14.741938 6.215094 14.74975 C 6.215094 14.753656 6.222906 14.765375 6.222906 14.773188 C 6.226812 14.784906 6.230719 14.800531 6.234625 14.81225 C 6.238531 14.823969 6.246344 14.847406 6.25025 14.863031 C 6.254156 14.878656 6.261969 14.902094 6.265875 14.921625 C 6.269781 14.941156 6.277594 14.972406 6.2815 14.995844 C 6.285406 15.015375 6.293219 15.054438 6.301031 15.081781 C 6.304937 15.109125 6.31275 15.152094 6.316656 15.183344 C 6.320562 15.210688 6.328375 15.261469 6.332281 15.296625 C 6.336187 15.331781 6.344 15.386469 6.347906 15.425531 C 6.351812 15.464594 6.355719 15.527094 6.359625 15.570063 C 6.363531 15.613031 6.367437 15.68725 6.371344 15.734125 C 6.371344 15.781 6.37525 15.859125 6.37525 15.909906 C 6.37525 15.964594 6.37525 16.050531 6.37525 16.109125 C 6.371344 16.167719 6.367437 16.265375 6.367437 16.327875 C 6.363531 16.390375 6.355719 16.495844 6.351812 16.566156 C 6.344 16.632563 6.332281 16.74975 6.324469 16.823969 C 6.31275 16.902094 6.297125 17.031 6.285406 17.113031 C 6.273687 17.195063 6.25025 17.331781 6.234625 17.421625 C 6.215094 17.511469 6.183844 17.663813 6.164312 17.761469 C 6.140875 17.863031 6.101812 18.023188 6.074469 18.132563 C 6.043219 18.238031 5.996344 18.413813 5.961187 18.531 C 5.926031 18.644281 5.816656 18.964594 5.816656 18.964594 C 5.336187 19.241938 5.00025 19.331781 4.445562 19.331781 C 4.445562 19.331781 4.191656 19.109125 4.105719 19.027094 C 4.015875 18.945063 3.883062 18.816156 3.808844 18.738031 C 3.730719 18.659906 3.613531 18.538813 3.543219 18.464594 C 3.476812 18.390375 3.37525 18.273188 3.31275 18.206781 C 3.254156 18.136469 3.164312 18.031 3.113531 17.964594 C 3.06275 17.898188 2.984625 17.792719 2.93775 17.734125 C 2.890875 17.671625 2.824469 17.577875 2.785406 17.519281 C 2.746344 17.464594 2.683844 17.37475 2.652594 17.323969 C 2.617437 17.269281 2.566656 17.18725 2.535406 17.136469 C 2.504156 17.089594 2.461187 17.011469 2.43775 16.9685 C 2.410406 16.921625 2.371344 16.851313 2.351812 16.808344 C 2.328375 16.769281 2.297125 16.702875 2.277594 16.663813 C 2.258062 16.62475 2.230719 16.566156 2.215094 16.531 C 2.199469 16.495844 2.176031 16.445063 2.164312 16.413813 C 2.152594 16.382563 2.133062 16.335688 2.121344 16.304438 C 2.109625 16.277094 2.094 16.234125 2.086187 16.210688 C 2.078375 16.18725 2.06275 16.148188 2.058844 16.128656 C 2.051031 16.105219 2.039312 16.073969 2.035406 16.058344 C 2.0315 16.038813 2.023687 16.011469 2.019781 15.995844 C 2.015875 15.980219 2.008062 15.956781 2.004156 15.945063 C 2.004156 15.933344 2.00025 15.917719 1.996344 15.906 C 1.996344 15.898188 1.992437 15.886469 1.992437 15.878656 C 1.992437 15.87475 1.992437 15.866938 1.988531 15.863031 C 1.988531 15.863031 1.988531 15.859125 1.988531 15.859125 L 1.730719 13.781 C 0.426031 14.132563 -0.425531 14.132563 -1.730219 13.781 L -1.988031 15.859125 C -1.988031 15.859125 -1.988031 15.863031 -1.991938 15.863031 C -1.991938 15.866938 -1.991938 15.87475 -1.991938 15.878656 C -1.991938 15.886469 -1.995844 15.898188 -1.995844 15.906 C -1.99975 15.917719 -2.003656 15.933344 -2.007563 15.945063 C -2.007563 15.956781 -2.015375 15.980219 -2.019281 15.995844 C -2.023188 16.011469 -2.031 16.038813 -2.034906 16.058344 C -2.042719 16.073969 -2.050531 16.105219 -2.058344 16.128656 C -2.066156 16.148188 -2.077875 16.18725 -2.085688 16.210688 C -2.0935 16.234125 -2.109125 16.277094 -2.120844 16.304438 C -2.132563 16.335688 -2.152094 16.382563 -2.163813 16.413813 C -2.175531 16.445063 -2.198969 16.495844 -2.214594 16.531 C -2.230219 16.566156 -2.257563 16.62475 -2.277094 16.663813 C -2.296625 16.702875 -2.327875 16.769281 -2.351313 16.808344 C -2.37475 16.851313 -2.409906 16.921625 -2.43725 16.9685 C -2.460688 17.011469 -2.507563 17.089594 -2.534906 17.136469 C -2.566156 17.18725 -2.616938 17.269281 -2.652094 17.323969 C -2.68725 17.37475 -2.745844 17.464594 -2.784906 17.519281 C -2.823969 17.577875 -2.890375 17.671625 -2.93725 17.734125 C -2.984125 17.792719 -3.06225 17.898188 -3.113031 17.964594 C -3.167719 18.031 -3.253656 18.136469 -3.316156 18.206781 C -3.37475 18.273188 -3.476313 18.390375 -3.542719 18.464594 C -3.613031 18.538813 -3.730219 18.659906 -3.808344 18.738031 C -3.886469 18.816156 -4.015375 18.945063 -4.105219 19.027094 C -4.195063 19.109125 -4.445063 19.331781 -4.445063 19.331781 C -4.99975 19.331781 -5.335688 19.241938 -5.816156 18.964594 C -5.816156 18.964594 -5.921625 18.648188 -5.956781 18.531 C -5.991938 18.413813 -6.042719 18.238031 -6.070063 18.132563 C -6.097406 18.027094 -6.140375 17.863031 -6.159906 17.765375 C -6.183344 17.663813 -6.214594 17.515375 -6.230219 17.425531 C -6.24975 17.335688 -6.269281 17.198969 -6.284906 17.113031 C -6.296625 17.031 -6.31225 16.902094 -6.320063 16.827875 C -6.331781 16.74975 -6.3435 16.636469 -6.347406 16.566156 C -6.355219 16.495844 -6.363031 16.390375 -6.363031 16.327875 C -6.366938 16.265375 -6.370844 16.167719 -6.370844 16.109125 C -6.37475 16.050531 -6.37475 15.964594 -6.37475 15.913813 C -6.370844 15.859125 -6.370844 15.781 -6.366938 15.734125 C -6.366938 15.68725 -6.363031 15.613031 -6.359125 15.570063 C -6.355219 15.527094 -6.351313 15.464594 -6.347406 15.425531 C -6.3435 15.386469 -6.335688 15.331781 -6.331781 15.296625 C -6.327875 15.261469 -6.320063 15.210688 -6.316156 15.183344 C -6.31225 15.152094 -6.304438 15.109125 -6.296625 15.081781 C -6.292719 15.054438 -6.284906 15.019281 -6.281 14.995844 C -6.277094 14.972406 -6.269281 14.941156 -6.265375 14.921625 C -6.261469 14.906 -6.253656 14.878656 -6.24975 14.863031 C -6.245844 14.847406 -6.238031 14.823969 -6.234125 14.81225 C -6.230219 14.800531 -6.226313 14.784906 -6.222406 14.777094 C -6.2185 14.765375 -6.214594 14.753656 -6.214594 14.74975 C -6.210688 14.741938 -6.210688 14.738031 -6.206781 14.734125 C -6.206781 14.730219 -6.206781 14.730219 -6.206781 14.730219 L -5.394281 12.800531 C -6.698969 12.448969 -7.433344 12.027094 -8.386469 11.070063 L -9.652094 12.738031 C -9.652094 12.738031 -9.652094 12.741938 -9.656 12.741938 C -9.656 12.745844 -9.659906 12.74975 -9.663813 12.757563 C -9.667719 12.761469 -9.679438 12.769281 -9.683344 12.777094 C -9.691156 12.784906 -9.702875 12.796625 -9.710688 12.808344 C -9.7185 12.816156 -9.734125 12.831781 -9.745844 12.8435 C -9.757563 12.855219 -9.777094 12.87475 -9.792719 12.886469 C -9.804438 12.902094 -9.827875 12.921625 -9.8435 12.93725 C -9.863031 12.952875 -9.890375 12.980219 -9.909906 12.995844 C -9.929438 13.015375 -9.964594 13.042719 -9.988031 13.06225 C -10.011469 13.081781 -10.054438 13.113031 -10.081781 13.132563 C -10.109125 13.152094 -10.152094 13.18725 -10.183344 13.210688 C -10.214594 13.234125 -10.269281 13.269281 -10.304438 13.292719 C -10.339594 13.316156 -10.398188 13.359125 -10.441156 13.382563 C -10.480219 13.409906 -10.546625 13.448969 -10.5935 13.476313 C -10.636469 13.503656 -10.714594 13.546625 -10.765375 13.573969 C -10.816156 13.601313 -10.902094 13.648188 -10.956781 13.675531 C -11.011469 13.706781 -11.109125 13.753656 -11.171625 13.781 C -11.234125 13.81225 -11.339594 13.859125 -11.409906 13.890375 C -11.480219 13.917719 -11.601313 13.9685 -11.679438 13.99975 C -11.757563 14.031 -11.886469 14.077875 -11.972406 14.109125 C -12.058344 14.140375 -12.206781 14.18725 -12.300531 14.2185 C -12.398188 14.24975 -12.558344 14.296625 -12.667719 14.323969 C -12.773188 14.351313 -12.948969 14.398188 -13.070063 14.425531 C -13.18725 14.452875 -13.515375 14.519281 -13.515375 14.519281 C -13.995844 14.241938 -14.241938 13.995844 -14.519281 13.515375 C -14.519281 13.515375 -14.452875 13.18725 -14.425531 13.070063 C -14.398188 12.952875 -14.351313 12.773188 -14.323969 12.667719 C -14.296625 12.56225 -14.245844 12.398188 -14.2185 12.304438 C -14.18725 12.206781 -14.136469 12.06225 -14.109125 11.972406 C -14.077875 11.886469 -14.027094 11.757563 -13.99975 11.679438 C -13.9685 11.601313 -13.917719 11.480219 -13.886469 11.409906 C -13.859125 11.339594 -13.808344 11.234125 -13.781 11.171625 C -13.74975 11.109125 -13.702875 11.015375 -13.675531 10.956781 C -13.648188 10.902094 -13.601313 10.816156 -13.573969 10.765375 C -13.546625 10.714594 -13.49975 10.640375 -13.476313 10.5935 C -13.448969 10.550531 -13.406 10.480219 -13.382563 10.441156 C -13.355219 10.402094 -13.316156 10.339594 -13.292719 10.304438 C -13.269281 10.269281 -13.230219 10.2185 -13.210688 10.18725 C -13.18725 10.156 -13.152094 10.109125 -13.132563 10.081781 C -13.109125 10.054438 -13.077875 10.015375 -13.06225 9.991938 C -13.042719 9.9685 -13.011469 9.933344 -12.995844 9.913813 C -12.980219 9.894281 -12.952875 9.863031 -12.93725 9.847406 C -12.921625 9.831781 -12.902094 9.804438 -12.886469 9.792719 C -12.87475 9.777094 -12.855219 9.757563 -12.8435 9.745844 C -12.831781 9.734125 -12.816156 9.7185 -12.804438 9.710688 C -12.796625 9.702875 -12.784906 9.691156 -12.777094 9.683344 C -12.769281 9.679438 -12.761469 9.671625 -12.753656 9.667719 C -12.74975 9.663813 -12.745844 9.659906 -12.741938 9.656 C -12.741938 9.656 -12.738031 9.652094 -12.738031 9.652094 L -11.070063 8.390375 C -12.027094 7.433344 -12.448969 6.698969 -12.800531 5.394281 L -14.726313 6.206781 C -14.726313 6.206781 -14.730219 6.206781 -14.734125 6.210688 C -14.734125 6.210688 -14.741938 6.210688 -14.74975 6.214594 C -14.753656 6.2185 -14.765375 6.222406 -14.773188 6.222406 C -14.784906 6.226313 -14.800531 6.234125 -14.81225 6.234125 C -14.823969 6.238031 -14.847406 6.245844 -14.863031 6.24975 C -14.878656 6.253656 -14.902094 6.261469 -14.921625 6.265375 C -14.941156 6.269281 -14.972406 6.277094 -14.995844 6.281 C -15.015375 6.288813 -15.054438 6.296625 -15.081781 6.300531 C -15.109125 6.304438 -15.152094 6.31225 -15.183344 6.316156 C -15.210688 6.320063 -15.261469 6.327875 -15.296625 6.331781 C -15.331781 6.335688 -15.386469 6.3435 -15.425531 6.347406 C -15.464594 6.351313 -15.527094 6.359125 -15.570063 6.359125 C -15.613031 6.363031 -15.68725 6.366938 -15.734125 6.370844 C -15.781 6.370844 -15.859125 6.37475 -15.909906 6.37475 C -15.964594 6.37475 -16.050531 6.37475 -16.109125 6.37475 C -16.167719 6.370844 -16.265375 6.370844 -16.327875 6.366938 C -16.390375 6.363031 -16.495844 6.355219 -16.566156 6.351313 C -16.632563 6.3435 -16.74975 6.331781 -16.823969 6.323969 C -16.902094 6.316156 -17.031 6.296625 -17.113031 6.284906 C -17.195063 6.273188 -17.331781 6.24975 -17.421625 6.234125 C -17.511469 6.214594 -17.663813 6.183344 -17.761469 6.163813 C -17.863031 6.140375 -18.023188 6.101313 -18.132563 6.073969 C -18.238031 6.042719 -18.413813 5.995844 -18.531 5.960688 C -18.644281 5.925531 -18.964594 5.816156 -18.964594 5.816156 C -19.241938 5.335688 -19.331781 4.99975 -19.331781 4.445063 C -19.331781 4.445063 -19.109125 4.195063 -19.027094 4.105219 C -18.945063 4.015375 -18.816156 3.886469 -18.738031 3.808344 C -18.659906 3.730219 -18.538813 3.613031 -18.464594 3.542719 C -18.390375 3.476313 -18.273188 3.37475 -18.206781 3.316156 C -18.136469 3.253656 -18.031 3.167719 -17.964594 3.113031 C -17.898188 3.06225 -17.792719 2.984125 -17.734125 2.93725 C -17.671625 2.890375 -17.577875 2.823969 -17.519281 2.784906 C -17.464594 2.745844 -17.37475 2.68725 -17.323969 2.652094 C -17.269281 2.616938 -17.18725 2.566156 -17.136469 2.534906 C -17.089594 2.507563 -17.011469 2.460688 -16.9685 2.43725 C -16.921625 2.409906 -16.851313 2.37475 -16.808344 2.351313 C -16.769281 2.327875 -16.702875 2.296625 -16.663813 2.277094 C -16.62475 2.257563 -16.566156 2.230219 -16.531 2.214594 C -16.495844 2.198969 -16.445063 2.175531 -16.413813 2.163813 C -16.382563 2.152094 -16.335688 2.132563 -16.304438 2.120844 C -16.277094 2.109125 -16.234125 2.0935 -16.210688 2.085688 C -16.18725 2.077875 -16.148188 2.066156 -16.128656 2.058344 C -16.105219 2.050531 -16.073969 2.042719 -16.058344 2.034906 C -16.038813 2.031 -16.011469 2.023188 -15.995844 2.019281 C -15.980219 2.015375 -15.956781 2.007563 -15.945063 2.007563 C -15.933344 2.003656 -15.917719 1.99975 -15.906 1.995844 C -15.898188 1.995844 -15.886469 1.991938 -15.878656 1.991938 C -15.87475 1.991938 -15.866938 1.991938 -15.863031 1.991938 C -15.863031 1.988031 -15.859125 1.988031 -15.859125 1.988031 L -13.781 1.730219 C -14.132563 0.425531 -14.132563 -0.426031 -13.781 -1.730719 L -15.859125 -1.988531 C -15.859125 -1.988531 -15.863031 -1.988531 -15.863031 -1.988531 C -15.866938 -1.992437 -15.87475 -1.992437 -15.878656 -1.992437 C -15.886469 -1.992437 -15.898188 -1.996344 -15.906 -1.996344 C -15.917719 -2.00025 -15.933344 -2.004156 -15.945063 -2.004156 C -15.956781 -2.008062 -15.980219 -2.015875 -15.995844 -2.019781 C -16.011469 -2.023687 -16.038813 -2.0315 -16.058344 -2.035406 C -16.073969 -2.039312 -16.105219 -2.051031 -16.128656 -2.058844 C -16.148188 -2.06275 -16.18725 -2.078375 -16.210688 -2.086187 C -16.234125 -2.094 -16.277094 -2.109625 -16.304438 -2.121344 C -16.335688 -2.133062 -16.382563 -2.152594 -16.413813 -2.164312 C -16.445063 -2.176031 -16.495844 -2.199469 -16.531 -2.215094 C -16.566156 -2.230719 -16.62475 -2.258062 -16.663813 -2.277594 C -16.702875 -2.297125 -16.769281 -2.328375 -16.808344 -2.351812 C -16.851313 -2.371344 -16.921625 -2.410406 -16.9685 -2.43775 C -17.011469 -2.461187 -17.089594 -2.504156 -17.136469 -2.535406 C -17.18725 -2.566656 -17.269281 -2.617437 -17.323969 -2.652594 C -17.37475 -2.683844 -17.464594 -2.746344 -17.519281 -2.785406 C -17.577875 -2.824469 -17.671625 -2.890875 -17.734125 -2.93775 C -17.792719 -2.984625 -17.898188 -3.06275 -17.964594 -3.113531 C -18.031 -3.164312 -18.136469 -3.254156 -18.206781 -3.31275 C -18.273188 -3.37525 -18.390375 -3.476812 -18.464594 -3.543219 C -18.538813 -3.613531 -18.659906 -3.730719 -18.738031 -3.808844 C -18.816156 -3.883062 -18.945063 -4.015875 -19.027094 -4.105719 C -19.109125 -4.191656 -19.331781 -4.445562 -19.331781 -4.445562 C -19.331781 -5.00025 -19.241938 -5.336187 -18.964594 -5.816656 C -18.964594 -5.816656 -18.648188 -5.922125 -18.531 -5.957281 C -18.413813 -5.992437 -18.238031 -6.043219 -18.132563 -6.070562 C -18.027094 -6.097906 -17.863031 -6.140875 -17.765375 -6.160406 C -17.663813 -6.183844 -17.515375 -6.215094 -17.425531 -6.230719 C -17.335688 -6.246344 -17.198969 -6.269781 -17.113031 -6.285406 C -17.031 -6.297125 -16.902094 -6.31275 -16.827875 -6.320562 C -16.74975 -6.332281 -16.636469 -6.344 -16.566156 -6.347906 C -16.495844 -6.355719 -16.390375 -6.359625 -16.327875 -6.363531 C -16.265375 -6.367437 -16.167719 -6.371344 -16.109125 -6.371344 C -16.050531 -6.371344 -15.964594 -6.37525 -15.913813 -6.371344 C -15.859125 -6.371344 -15.781 -6.371344 -15.734125 -6.367437 C -15.68725 -6.367437 -15.613031 -6.363531 -15.570063 -6.359625 C -15.527094 -6.355719 -15.464594 -6.351812 -15.425531 -6.347906 C -15.386469 -6.344 -15.331781 -6.336187 -15.296625 -6.332281 C -15.261469 -6.328375 -15.210688 -6.320562 -15.183344 -6.316656 C -15.152094 -6.31275 -15.109125 -6.301031 -15.081781 -6.297125 C -15.054438 -6.293219 -15.019281 -6.285406 -14.995844 -6.2815 C -14.972406 -6.277594 -14.941156 -6.269781 -14.921625 -6.265875 C -14.906 -6.258062 -14.878656 -6.254156 -14.863031 -6.25025 C -14.847406 -6.242437 -14.823969 -6.238531 -14.81225 -6.234625 C -14.800531 -6.230719 -14.784906 -6.226812 -14.777094 -6.222906 C -14.765375 -6.219 -14.753656 -6.215094 -14.74975 -6.215094 C -14.741938 -6.211187 -14.738031 -6.207281 -14.734125 -6.207281 C -14.730219 -6.207281 -14.730219 -6.203375 -14.730219 -6.203375 L -12.800531 -5.394781 C -12.448969 -6.699469 -12.027094 -7.433844 -11.070063 -8.386969 L -12.738031 -9.652594 C -12.738031 -9.652594 -12.741938 -9.652594 -12.741938 -9.6565 C -12.745844 -9.6565 -12.74975 -9.660406 -12.757563 -9.664312 C -12.761469 -9.668219 -12.769281 -9.676031 -12.777094 -9.683844 C -12.784906 -9.691656 -12.796625 -9.703375 -12.808344 -9.711187 C -12.816156 -9.719 -12.831781 -9.734625 -12.8435 -9.746344 C -12.855219 -9.758062 -12.87475 -9.777594 -12.886469 -9.789312 C -12.902094 -9.804937 -12.921625 -9.828375 -12.93725 -9.844 C -12.952875 -9.863531 -12.980219 -9.890875 -12.995844 -9.910406 C -13.015375 -9.929937 -13.042719 -9.965094 -13.06225 -9.988531 C -13.081781 -10.011969 -13.113031 -10.054937 -13.132563 -10.082281 C -13.152094 -10.109625 -13.18725 -10.152594 -13.210688 -10.183844 C -13.234125 -10.215094 -13.269281 -10.269781 -13.292719 -10.304937 C -13.316156 -10.340094 -13.359125 -10.398687 -13.382563 -10.441656 C -13.409906 -10.480719 -13.448969 -10.547125 -13.476313 -10.594 C -13.503656 -10.636969 -13.546625 -10.715094 -13.573969 -10.765875 C -13.601313 -10.816656 -13.648188 -10.898687 -13.675531 -10.957281 C -13.706781 -11.011969 -13.753656 -11.109625 -13.781 -11.172125 C -13.81225 -11.234625 -13.859125 -11.340094 -13.890375 -11.410406 C -13.917719 -11.480719 -13.9685 -11.601812 -13.99975 -11.679937 C -14.031 -11.758062 -14.077875 -11.886969 -14.109125 -11.972906 C -14.140375 -12.058844 -14.18725 -12.207281 -14.2185 -12.301031 C -14.24975 -12.398687 -14.296625 -12.558844 -14.323969 -12.664312 C -14.351313 -12.773687 -14.398188 -12.949469 -14.425531 -13.066656 C -14.452875 -13.18775 -14.519281 -13.515875 -14.519281 -13.515875 C -14.241938 -13.996344 -13.995844 -14.242437 -13.515375 -14.519781 C -13.515375 -14.519781 -13.18725 -14.453375 -13.070063 -14.426031 C -12.952875 -14.398687 -12.773188 -14.351812 -12.667719 -14.324469 C -12.56225 -14.293219 -12.398188 -14.246344 -12.304438 -14.219 C -12.206781 -14.18775 -12.06225 -14.136969 -11.972406 -14.105719 C -11.886469 -14.078375 -11.757563 -14.027594 -11.679438 -13.996344 C -11.601313 -13.969 -11.480219 -13.918219 -11.409906 -13.886969 C -11.339594 -13.859625 -11.234125 -13.808844 -11.171625 -13.7815 C -11.109125 -13.75025 -11.015375 -13.703375 -10.956781 -13.676031 C -10.902094 -13.648687 -10.816156 -13.601812 -10.765375 -13.574469 C -10.714594 -13.547125 -10.640375 -13.50025 -10.5935 -13.472906 C -10.550531 -13.449469 -10.480219 -13.4065 -10.441156 -13.383062 C -10.402094 -13.355719 -10.339594 -13.316656 -10.304438 -13.293219 C -10.269281 -13.269781 -10.2185 -13.230719 -10.18725 -13.207281 C -10.156 -13.18775 -10.109125 -13.152594 -10.081781 -13.133062 C -10.054438 -13.109625 -10.015375 -13.078375 -9.991938 -13.058844 C -9.9685 -13.043219 -9.933344 -13.011969 -9.913813 -12.996344 C -9.894281 -12.976812 -9.863031 -12.953375 -9.847406 -12.93775 C -9.831781 -12.922125 -9.804438 -12.898687 -9.792719 -12.886969 C -9.777094 -12.87525 -9.757563 -12.855719 -9.745844 -12.844 C -9.734125 -12.832281 -9.7185 -12.81275 -9.710688 -12.804937 C -9.702875 -12.797125 -9.691156 -12.785406 -9.683344 -12.777594 C -9.679438 -12.769781 -9.671625 -12.758062 -9.667719 -12.754156 C -9.663813 -12.75025 -9.659906 -12.746344 -9.656 -12.742437 C -9.656 -12.742437 -9.652094 -12.738531 -9.652094 -12.738531 L -8.390375 -11.070562 C -7.433344 -12.027594 -6.698969 -12.449469 -5.394281 -12.801031 L -6.206781 -14.726812 C -6.206781 -14.726812 -6.206781 -14.730719 -6.210688 -14.734625 C -6.210688 -14.734625 -6.210688 -14.742437 -6.214594 -14.75025 C -6.2185 -14.754156 -6.222406 -14.765875 -6.222406 -14.773687 C -6.226313 -14.785406 -6.234125 -14.801031 -6.234125 -14.81275 C -6.238031 -14.824469 -6.245844 -14.847906 -6.24975 -14.859625 C -6.253656 -14.87525 -6.261469 -14.902594 -6.265375 -14.922125 C -6.269281 -14.941656 -6.277094 -14.972906 -6.281 -14.996344 C -6.288813 -15.015875 -6.296625 -15.054937 -6.300531 -15.082281 C -6.304438 -15.105719 -6.31225 -15.152594 -6.316156 -15.179937 C -6.320063 -15.211187 -6.327875 -15.261969 -6.331781 -15.297125 C -6.335688 -15.328375 -6.3435 -15.386969 -6.347406 -15.426031 C -6.351313 -15.461187 -6.359125 -15.527594 -6.359125 -15.570562 C -6.363031 -15.613531 -6.366938 -15.683844 -6.370844 -15.734625 C -6.370844 -15.7815 -6.37475 -15.859625 -6.37475 -15.910406 C -6.37475 -15.965094 -6.37475 -16.051031 -6.37475 -16.109625 C -6.370844 -16.168219 -6.370844 -16.265875 -6.366938 -16.328375 C -6.363031 -16.390875 -6.355219 -16.496344 -6.351313 -16.566656 C -6.3435 -16.633062 -6.331781 -16.75025 -6.323969 -16.824469 C -6.316156 -16.902594 -6.296625 -17.0315 -6.284906 -17.113531 C -6.273188 -17.195562 -6.24975 -17.332281 -6.234125 -17.422125 C -6.214594 -17.511969 -6.183344 -17.664312 -6.163813 -17.761969 C -6.140375 -17.859625 -6.101313 -18.023687 -6.073969 -18.133062 C -6.042719 -18.238531 -5.995844 -18.414312 -5.960688 -18.5315 C -5.925531 -18.644781 -5.816156 -18.965094 -5.816156 -18.965094 C -5.335688 -19.242437 -4.99975 -19.332281 -4.445063 -19.332281 C -4.445063 -19.332281 -4.195063 -19.109625 -4.105219 -19.027594 C -4.015375 -18.945562 -3.886469 -18.816656 -3.808344 -18.738531 C -3.730219 -18.660406 -3.613031 -18.539312 -3.542719 -18.465094 C -3.476313 -18.390875 -3.37475 -18.273687 -3.316156 -18.207281 C -3.253656 -18.136969 -3.167719 -18.027594 -3.113031 -17.965094 C -3.06225 -17.898687 -2.984125 -17.793219 -2.93725 -17.734625 C -2.890375 -17.672125 -2.823969 -17.578375 -2.784906 -17.519781 C -2.745844 -17.465094 -2.68725 -17.37525 -2.652094 -17.324469 C -2.616938 -17.269781 -2.566156 -17.18775 -2.534906 -17.136969 C -2.507563 -17.090094 -2.460688 -17.011969 -2.43725 -16.969 C -2.409906 -16.922125 -2.37475 -16.851812 -2.351313 -16.808844 C -2.327875 -16.765875 -2.296625 -16.703375 -2.277094 -16.664312 C -2.257563 -16.62525 -2.230219 -16.566656 -2.214594 -16.5315 C -2.198969 -16.496344 -2.175531 -16.445562 -2.163813 -16.414312 C -2.152094 -16.383062 -2.132563 -16.336187 -2.120844 -16.304937 C -2.109125 -16.277594 -2.0935 -16.234625 -2.085688 -16.211187 C -2.077875 -16.18775 -2.066156 -16.148687 -2.058344 -16.129156 C -2.050531 -16.105719 -2.042719 -16.074469 -2.034906 -16.054937 C -2.031 -16.039312 -2.023188 -16.011969 -2.019281 -15.996344 C -2.015375 -15.980719 -2.007563 -15.957281 -2.007563 -15.945562 C -2.003656 -15.933844 -1.99975 -15.918219 -1.995844 -15.9065 C -1.995844 -15.898687 -1.991938 -15.886969 -1.991938 -15.879156 C -1.991938 -15.87525 -1.991938 -15.867437 -1.991938 -15.863531 C -1.988031 -15.859625 -1.988031 -15.859625 -1.988031 -15.859625 L -1.730219 -13.7815 C -0.425531 -14.133062 0.426031 -14.133062 1.730719 -13.7815 L 1.988531 -15.859625 C 1.988531 -15.859625 1.988531 -15.859625 1.988531 -15.863531 C 1.992437 -15.867437 1.992437 -15.87525 1.992437 -15.879156 C 1.992437 -15.886969 1.996344 -15.898687 1.996344 -15.9065 C 2.00025 -15.918219 2.004156 -15.933844 2.004156 -15.945562 C 2.008062 -15.957281 2.015875 -15.980719 2.019781 -15.996344 C 2.023687 -16.011969 2.0315 -16.039312 2.035406 -16.054937 C 2.039312 -16.074469 2.051031 -16.105719 2.058844 -16.129156 C 2.06275 -16.148687 2.078375 -16.18775 2.086187 -16.211187 C 2.094 -16.234625 2.109625 -16.277594 2.121344 -16.304937 C 2.133062 -16.336187 2.152594 -16.383062 2.164312 -16.414312 C 2.176031 -16.445562 2.199469 -16.496344 2.215094 -16.5315 C 2.230719 -16.566656 2.258062 -16.62525 2.277594 -16.664312 C 2.297125 -16.703375 2.328375 -16.765875 2.351812 -16.808844 C 2.371344 -16.851812 2.410406 -16.922125 2.43775 -16.969 C 2.461187 -17.011969 2.504156 -17.090094 2.535406 -17.136969 C 2.566656 -17.18775 2.617437 -17.269781 2.652594 -17.324469 C 2.683844 -17.37525 2.746344 -17.465094 2.785406 -17.519781 C 2.824469 -17.578375 2.890875 -17.672125 2.93775 -17.734625 C 2.984625 -17.793219 3.06275 -17.898687 3.113531 -17.965094 C 3.164312 -18.027594 3.254156 -18.136969 3.31275 -18.207281 C 3.37525 -18.273687 3.476812 -18.390875 3.543219 -18.465094 C 3.613531 -18.539312 3.730719 -18.660406 3.808844 -18.738531 C 3.883062 -18.816656 4.015875 -18.945562 4.105719 -19.027594 C 4.191656 -19.109625 4.445562 -19.332281 4.445562 -19.332281 C 5.00025 -19.332281 5.336187 -19.242437 5.816656 -18.965094 C 5.816656 -18.965094 5.922125 -18.644781 5.957281 -18.5315 C 5.992437 -18.414312 6.043219 -18.238531 6.070562 -18.133062 C 6.097906 -18.023687 6.140875 -17.863531 6.160406 -17.761969 C 6.183844 -17.664312 6.215094 -17.515875 6.230719 -17.422125 C 6.246344 -17.332281 6.269781 -17.195562 6.285406 -17.113531 C 6.297125 -17.0315 6.31275 -16.902594 6.320562 -16.828375 C 6.332281 -16.75025 6.344 -16.633062 6.347906 -16.566656 C 6.355719 -16.496344 6.359625 -16.390875 6.363531 -16.328375 C 6.367437 -16.265875 6.371344 -16.168219 6.371344 -16.109625 C 6.371344 -16.051031 6.37525 -15.965094 6.371344 -15.910406 C 6.371344 -15.859625 6.371344 -15.7815 6.367437 -15.734625 C 6.367437 -15.68775 6.363531 -15.613531 6.359625 -15.570562 C 6.355719 -15.527594 6.351812 -15.465094 6.347906 -15.426031 C 6.344 -15.386969 6.336187 -15.332281 6.332281 -15.297125 C 6.328375 -15.261969 6.320562 -15.211187 6.316656 -15.183844 C 6.31275 -15.152594 6.301031 -15.109625 6.297125 -15.082281 C 6.293219 -15.054937 6.285406 -15.015875 6.2815 -14.996344 C 6.277594 -14.972906 6.269781 -14.941656 6.265875 -14.922125 C 6.258062 -14.9065 6.254156 -14.879156 6.25025 -14.863531 C 6.242437 -14.847906 6.238531 -14.824469 6.234625 -14.81275 C 6.230719 -14.801031 6.226812 -14.785406 6.222906 -14.777594 C 6.219 -14.765875 6.215094 -14.754156 6.215094 -14.75025 C 6.211187 -14.742437 6.207281 -14.738531 6.207281 -14.734625 C 6.207281 -14.730719 6.203375 -14.726812 6.203375 -14.726812 L 5.394781 -12.801031 C 6.699469 -12.449469 7.433844 -12.027594 8.386969 -11.070562 L 9.652594 -12.738531 C 9.652594 -12.738531 9.652594 -12.742437 9.6565 -12.742437 C 9.6565 -12.746344 9.660406 -12.75025 9.664312 -12.758062 C 9.668219 -12.761969 9.676031 -12.769781 9.683844 -12.777594 C 9.691656 -12.785406 9.703375 -12.797125 9.711187 -12.804937 C 9.719 -12.816656 9.734625 -12.832281 9.746344 -12.844 C 9.758062 -12.855719 9.777594 -12.87525 9.789312 -12.886969 C 9.804937 -12.898687 9.828375 -12.922125 9.844 -12.93775 C 9.863531 -12.953375 9.890875 -12.980719 9.910406 -12.996344 C 9.929937 -13.011969 9.965094 -13.043219 9.988531 -13.06275 C 10.011969 -13.078375 10.054937 -13.113531 10.082281 -13.133062 C 10.109625 -13.152594 10.152594 -13.18775 10.183844 -13.211187 C 10.215094 -13.230719 10.269781 -13.269781 10.304937 -13.293219 C 10.340094 -13.316656 10.398687 -13.355719 10.441656 -13.383062 C 10.480719 -13.4065 10.547125 -13.449469 10.594 -13.476812 C 10.636969 -13.504156 10.715094 -13.547125 10.765875 -13.574469 C 10.816656 -13.601812 10.898687 -13.648687 10.957281 -13.676031 C 11.011969 -13.703375 11.109625 -13.75025 11.172125 -13.7815 C 11.234625 -13.81275 11.340094 -13.859625 11.410406 -13.890875 C 11.480719 -13.918219 11.601812 -13.969 11.679937 -14.00025 C 11.758062 -14.0315 11.886969 -14.078375 11.972906 -14.109625 C 12.058844 -14.140875 12.207281 -14.18775 12.301031 -14.219 C 12.398687 -14.25025 12.558844 -14.297125 12.664312 -14.324469 C 12.773687 -14.351812 12.949469 -14.398687 13.066656 -14.426031 C 13.18775 -14.453375 13.515875 -14.519781 13.515875 -14.519781 C 13.996344 -14.242437 14.242437 -13.996344 14.519781 -13.515875 C 14.519781 -13.515875 14.453375 -13.18775 14.426031 -13.070562 C 14.398687 -12.953375 14.351812 -12.773687 14.324469 -12.668219 C 14.293219 -12.56275 14.246344 -12.398687 14.219 -12.304937 C 14.18775 -12.207281 14.136969 -12.058844 14.105719 -11.972906 C 14.078375 -11.886969 14.027594 -11.758062 13.996344 -11.679937 C 13.969 -11.601812 13.918219 -11.480719 13.886969 -11.410406 C 13.859625 -11.340094 13.808844 -11.234625 13.7815 -11.172125 C 13.75025 -11.109625 13.703375 -11.015875 13.676031 -10.957281 C 13.648687 -10.902594 13.601812 -10.816656 13.574469 -10.765875 C 13.547125 -10.715094 13.50025 -10.640875 13.472906 -10.594 C 13.449469 -10.551031 13.4065 -10.480719 13.383062 -10.441656 C 13.355719 -10.402594 13.316656 -10.340094 13.293219 -10.304937 C 13.269781 -10.269781 13.230719 -10.215094 13.207281 -10.18775 C 13.18775 -10.1565 13.152594 -10.109625 13.133062 -10.082281 C 13.109625 -10.054937 13.078375 -10.015875 13.058844 -9.992437 C 13.043219 -9.969 13.011969 -9.933844 12.996344 -9.914312 C 12.976812 -9.894781 12.953375 -9.863531 12.93775 -9.847906 C 12.922125 -9.828375 12.898687 -9.804937 12.886969 -9.793219 C 12.87525 -9.777594 12.855719 -9.758062 12.844 -9.746344 C 12.832281 -9.734625 12.81275 -9.719 12.804937 -9.711187 C 12.797125 -9.703375 12.785406 -9.691656 12.777594 -9.683844 C 12.769781 -9.679937 12.758062 -9.672125 12.754156 -9.668219 C 12.75025 -9.664312 12.746344 -9.6565 12.742437 -9.6565 C 12.742437 -9.652594 12.738531 -9.652594 12.738531 -9.652594 L 11.070562 -8.390875 C 12.027594 -7.433844 12.449469 -6.699469 12.801031 -5.394781 L 14.726812 -6.207281 C 14.726812 -6.207281 14.730719 -6.207281 14.734625 -6.207281 C 14.734625 -6.211187 14.742437 -6.211187 14.75025 -6.215094 C 14.754156 -6.215094 14.765875 -6.222906 14.773687 -6.222906 C 14.785406 -6.226812 14.801031 -6.230719 14.81275 -6.234625 C 14.824469 -6.238531 14.847906 -6.246344 14.859625 -6.25025 C 14.87525 -6.254156 14.902594 -6.261969 14.922125 -6.265875 C 14.941656 -6.269781 14.972906 -6.277594 14.996344 -6.2815 C 15.015875 -6.285406 15.054937 -6.293219 15.082281 -6.301031 C 15.105719 -6.304937 15.152594 -6.31275 15.179937 -6.316656 C 15.211187 -6.320562 15.261969 -6.328375 15.297125 -6.332281 C 15.328375 -6.336187 15.386969 -6.344 15.426031 -6.347906 C 15.461187 -6.351812 15.527594 -6.355719 15.570562 -6.359625 C 15.613531 -6.363531 15.683844 -6.367437 15.734625 -6.371344 C 15.7815 -6.371344 15.859625 -6.37525 15.910406 -6.37525 C 15.965094 -6.37525 16.051031 -6.37525 16.109625 -6.37525 C 16.168219 -6.371344 16.265875 -6.367437 16.328375 -6.367437 C 16.390875 -6.363531 16.496344 -6.355719 16.566656 -6.351812 C 16.633062 -6.344 16.75025 -6.332281 16.824469 -6.324469 C 16.902594 -6.31275 17.0315 -6.297125 17.113531 -6.285406 C 17.195562 -6.273687 17.332281 -6.25025 17.422125 -6.234625 C 17.511969 -6.215094 17.664312 -6.183844 17.761969 -6.164312 C 17.859625 -6.140875 18.023687 -6.101812 18.133062 -6.074469 C 18.238531 -6.043219 18.414312 -5.996344 18.5315 -5.961187 C 18.644781 -5.926031 18.965094 -5.816656 18.965094 -5.816656 C 19.242437 -5.336187 19.332281 -5.00025 19.332281 -4.445562 C 19.332281 -4.445562 19.109625 -4.191656 19.027594 -4.105719 C 18.945562 -4.015875 18.816656 -3.883062 18.738531 -3.808844 C 18.660406 -3.730719 18.539312 -3.613531 18.465094 -3.543219 C 18.390875 -3.476812 18.273687 -3.37525 18.207281 -3.31275 C 18.136969 -3.254156 18.027594 -3.164312 17.965094 -3.113531 C 17.898687 -3.06275 17.793219 -2.984625 17.734625 -2.93775 C 17.672125 -2.890875 17.578375 -2.824469 17.519781 -2.785406 C 17.465094 -2.746344 17.37525 -2.683844 17.324469 -2.652594 C 17.269781 -2.617437 17.18775 -2.566656 17.136969 -2.535406 C 17.090094 -2.504156 17.011969 -2.461187 16.969 -2.43775 C 16.922125 -2.410406 16.851812 -2.371344 16.808844 -2.351812 C 16.765875 -2.328375 16.703375 -2.297125 16.664312 -2.277594 C 16.62525 -2.258062 16.566656 -2.230719 16.5315 -2.215094 C 16.496344 -2.199469 16.445562 -2.176031 16.414312 -2.164312 C 16.383062 -2.152594 16.336187 -2.133062 16.304937 -2.121344 C 16.277594 -2.109625 16.234625 -2.094 16.211187 -2.086187 C 16.18775 -2.078375 16.148687 -2.06275 16.129156 -2.058844 C 16.105719 -2.051031 16.074469 -2.039312 16.054937 -2.035406 C 16.039312 -2.0315 16.011969 -2.023687 15.996344 -2.019781 C 15.980719 -2.015875 15.957281 -2.008062 15.945562 -2.004156 C 15.933844 -2.004156 15.918219 -2.00025 15.9065 -1.996344 C 15.898687 -1.996344 15.886969 -1.992437 15.879156 -1.992437 C 15.87525 -1.992437 15.867437 -1.992437 15.863531 -1.988531 C 15.859625 -1.988531 15.859625 -1.988531 15.859625 -1.988531 L 13.7815 -1.730719 C 14.133062 -0.426031 14.133062 0.425531 13.7815 1.730219 L 15.859625 1.988031 C 15.859625 1.988031 15.859625 1.988031 15.863531 1.991938 C 15.867437 1.991938 15.87525 1.991938 15.879156 1.991938 C 15.886969 1.991938 15.898687 1.995844 15.9065 1.995844 C 15.918219 1.99975 15.933844 2.003656 15.945562 2.007563 C 15.957281 2.007563 15.980719 2.015375 15.996344 2.019281 C 16.011969 2.023188 16.039312 2.031 16.054937 2.034906 C 16.074469 2.042719 16.105719 2.050531 16.129156 2.058344 C 16.148687 2.066156 16.18775 2.077875 16.211187 2.085688 C 16.234625 2.0935 16.277594 2.109125 16.304937 2.120844 C 16.336187 2.132563 16.383062 2.152094 16.414312 2.163813 C 16.445562 2.175531 16.496344 2.198969 16.5315 2.214594 C 16.566656 2.230219 16.62525 2.257563 16.664312 2.277094 C 16.703375 2.296625 16.765875 2.327875 16.808844 2.351313 C 16.851812 2.37475 16.922125 2.409906 16.969 2.43725 C 17.011969 2.460688 17.090094 2.507563 17.136969 2.534906 C 17.18775 2.566156 17.269781 2.616938 17.324469 2.652094 C 17.37525 2.68725 17.465094 2.745844 17.519781 2.784906 C 17.578375 2.823969 17.672125 2.890375 17.734625 2.93725 C 17.793219 2.984125 17.898687 3.06225 17.965094 3.113031 C 18.027594 3.167719 18.136969 3.253656 18.207281 3.316156 C 18.273687 3.37475 18.390875 3.476313 18.465094 3.542719 C 18.539312 3.613031 18.660406 3.730219 18.738531 3.808344 C 18.816656 3.886469 18.945562 4.015375 19.027594 4.105219 C 19.109625 4.195063 19.332281 4.445063 19.332281 4.445063 C 19.332281 4.99975 19.242437 5.335688 18.965094 5.816156 C 18.965094 5.816156 18.644781 5.921625 18.5315 5.956781 C 18.414312 5.991938 18.238531 6.042719 18.133062 6.070063 C 18.023687 6.097406 17.863531 6.140375 17.761969 6.159906 C 17.664312 6.183344 17.515875 6.214594 17.422125 6.230219 C 17.332281 6.24975 17.195562 6.269281 17.113531 6.284906 C 17.0315 6.296625 16.902594 6.31225 16.828375 6.320063 C 16.75025 6.331781 16.633062 6.3435 16.566656 6.347406 C 16.496344 6.355219 16.390875 6.363031 16.328375 6.363031 C 16.265875 6.366938 16.168219 6.370844 16.109625 6.370844 C 16.051031 6.37475 15.965094 6.37475 15.910406 6.37475 C 15.859625 6.370844 15.7815 6.370844 15.734625 6.366938 C 15.68775 6.366938 15.613531 6.363031 15.570562 6.359125 C 15.527594 6.355219 15.465094 6.351313 15.426031 6.347406 C 15.386969 6.3435 15.332281 6.335688 15.297125 6.331781 C 15.261969 6.327875 15.211187 6.320063 15.183844 6.316156 C 15.152594 6.31225 15.109625 6.304438 15.082281 6.296625 C 15.054937 6.292719 15.015875 6.284906 14.996344 6.281 C 14.972906 6.277094 14.941656 6.269281 14.922125 6.265375 C 14.9065 6.261469 14.879156 6.253656 14.863531 6.24975 C 14.847906 6.245844 14.824469 6.238031 14.81275 6.234125 C 14.801031 6.230219 14.785406 6.226313 14.777594 6.222406 C 14.765875 6.2185 14.754156 6.214594 14.75025 6.214594 C 14.742437 6.210688 14.738531 6.210688 14.734625 6.206781 C 14.730719 6.206781 14.726812 6.206781 14.726812 6.206781 Z M 12.801031 5.394281 " transform="matrix(1,0,0,-1,19.531,19.531)"/>
</g>
</svg>
