<?xml version="1.0" encoding="UTF-8"?>
<svg xmlns="http://www.w3.org/2000/svg" xmlns:xlink="http://www.w3.org/1999/xlink" width="65.67pt" height="84.786pt" viewBox="0 0 65.67 84.786">
<defs>
<clipPath id="clip-0">
<path clip-rule="nonzero" d="M 0 0 L 65.671875 0 L 65.671875 84.785156 L 0 84.785156 Z M 0 0 "/>
</clipPath>
<clipPath id="clip-1">
<path clip-rule="nonzero" d="M 0 0 L 65.671875 0 L 65.671875 22 L 0 22 Z M 0 0 "/>
</clipPath>
<clipPath id="clip-2">
<path clip-rule="nonzero" d="M 39 4 L 65.671875 4 L 65.671875 73 L 39 73 Z M 39 4 "/>
</clipPath>
<clipPath id="clip-3">
<path clip-rule="nonzero" d="M 52 4 L 65.671875 4 L 65.671875 20 L 52 20 Z M 52 4 "/>
</clipPath>
</defs>
<g clip-path="url(#clip-0)">
<path fill-rule="nonzero" fill="rgb(0%, 0%, 0%)" fill-opacity="1" d="M 0 84.785156 L 0 0 L 65.671875 0 L 65.671875 84.785156 Z M 0 84.785156 "/>
<path fill-rule="nonzero" fill="rgb(0%, 0%, 0%)" fill-opacity="1" d="M 0 84.785156 L 0 0 L 65.671875 0 L 65.671875 84.785156 Z M 0 84.785156 "/>
</g>
<path fill-rule="nonzero" fill="rgb(69.999695%, 69.999695%, 69.999695%)" fill-opacity="1" d="M 61.183594 10.160156 C 61.183594 7.027344 48.492188 4.488281 32.835938 4.488281 C 17.179688 4.488281 4.488281 7.027344 4.488281 10.160156 C 4.488281 13.289062 17.179688 15.828125 32.835938 15.828125 C 48.492188 15.828125 61.183594 13.289062 61.183594 10.160156 Z M 61.183594 10.160156 "/>
<g clip-path="url(#clip-1)">
<path fill="none" stroke-width="0.3985" stroke-linecap="butt" stroke-linejoin="miter" stroke="rgb(100%, 100%, 100%)" stroke-opacity="1" stroke-miterlimit="10" d="M 28.348594 -14.175156 C 28.348594 -11.042344 15.657187 -8.503281 0.0009375 -8.503281 C -15.655313 -8.503281 -28.346719 -11.042344 -28.346719 -14.175156 C -28.346719 -17.304063 -15.655313 -19.843125 0.0009375 -19.843125 C 15.657187 -19.843125 28.348594 -17.304063 28.348594 -14.175156 Z M 28.348594 -14.175156 " transform="matrix(1, 0, 0, -1, 32.835, -4.015)"/>
</g>
<g clip-path="url(#clip-2)">
<path fill="none" stroke-width="0.3985" stroke-linecap="butt" stroke-linejoin="miter" stroke="rgb(100%, 100%, 100%)" stroke-opacity="1" stroke-dasharray="0.3985 0.99628" stroke-miterlimit="10" d="M 12.676719 -70.866563 L 12.997031 -67.425156 L 13.317344 -64.225938 L 13.637656 -61.245469 L 13.957969 -58.472031 L 14.274375 -55.882188 L 14.594687 -53.460313 L 14.915 -51.190781 L 15.235312 -49.065781 L 15.555625 -47.069688 L 15.875937 -45.190781 L 16.19625 -43.425156 L 16.516562 -41.757188 L 16.832969 -40.186875 L 17.153281 -38.7025 L 17.473594 -37.300156 L 17.793906 -35.972031 L 18.114219 -34.710313 L 18.434531 -33.518906 L 18.754844 -32.386094 L 19.07125 -31.307969 L 19.391562 -30.284531 L 19.711875 -29.307969 L 20.032187 -28.382188 L 20.3525 -27.495469 L 20.672812 -26.651719 L 20.993125 -25.847031 L 21.313437 -25.0775 L 21.629844 -24.339219 L 21.950156 -23.636094 L 22.270469 -22.960313 L 22.590781 -22.315781 L 22.911094 -21.698594 L 23.231406 -21.104844 L 23.551719 -20.534531 L 23.868125 -19.987656 L 24.188437 -19.464219 L 24.50875 -18.960313 L 24.829062 -18.472031 L 25.149375 -18.007188 L 25.469687 -17.557969 L 25.79 -17.124375 L 26.110312 -16.706406 L 26.426719 -16.307969 L 26.747031 -15.917344 L 27.067344 -15.54625 L 27.387656 -15.182969 L 27.707969 -14.835313 L 28.028281 -14.499375 L 28.348594 -14.175156 " transform="matrix(1, 0, 0, -1, 32.835, -4.015)"/>
</g>
<path fill="none" stroke-width="0.3985" stroke-linecap="butt" stroke-linejoin="miter" stroke="rgb(100%, 100%, 100%)" stroke-opacity="1" stroke-dasharray="0.3985 0.99628" stroke-miterlimit="10" d="M -28.346719 -14.175156 L -28.026406 -14.499375 L -27.706094 -14.835313 L -27.385781 -15.182969 L -27.065469 -15.54625 L -26.749063 -15.917344 L -26.42875 -16.307969 L -26.108438 -16.706406 L -25.788125 -17.124375 L -25.467813 -17.557969 L -25.1475 -18.007188 L -24.827188 -18.472031 L -24.510781 -18.960313 L -24.190469 -19.464219 L -23.870156 -19.987656 L -23.549844 -20.534531 L -23.229531 -21.104844 L -22.909219 -21.698594 L -22.588906 -22.315781 L -22.268594 -22.960313 L -21.952188 -23.636094 L -21.631875 -24.339219 L -21.311563 -25.0775 L -20.99125 -25.847031 L -20.670938 -26.651719 L -20.350625 -27.495469 L -20.030313 -28.382188 L -19.713906 -29.307969 L -19.393594 -30.284531 L -19.073281 -31.307969 L -18.752969 -32.386094 L -18.432656 -33.518906 L -18.112344 -34.710313 L -17.792031 -35.972031 L -17.471719 -37.300156 L -17.155313 -38.7025 L -16.835 -40.186875 L -16.514688 -41.757188 L -16.194375 -43.425156 L -15.874063 -45.190781 L -15.55375 -47.069688 L -15.233438 -49.065781 L -14.917031 -51.190781 L -14.596719 -53.460313 L -14.276406 -55.882188 L -13.956094 -58.472031 L -13.635781 -61.245469 L -13.315469 -64.225938 L -12.995156 -67.425156 L -12.67875 -70.866563 " transform="matrix(1, 0, 0, -1, 32.835, -4.015)"/>
<path fill="none" stroke-width="0.3985" stroke-linecap="butt" stroke-linejoin="miter" stroke="rgb(0%, 67.83905%, 93.728638%)" stroke-opacity="1" stroke-miterlimit="10" d="M 12.676719 -70.866563 L 11.793906 -80.741563 " transform="matrix(1, 0, 0, -1, 32.835, -4.015)"/>
<path fill-rule="nonzero" fill="rgb(0%, 67.83905%, 93.728638%)" fill-opacity="1" d="M 44.308594 80.296875 C 44.601562 79.257812 45.351562 77.589844 46.152344 76.460938 L 43.175781 76.195312 C 43.761719 77.449219 44.207031 79.222656 44.308594 80.296875 "/>
<path fill="none" stroke-width="0.3985" stroke-linecap="butt" stroke-linejoin="miter" stroke="rgb(0%, 67.83905%, 93.728638%)" stroke-opacity="1" stroke-miterlimit="10" d="M 14.801719 -51.968125 L 13.668906 -59.932969 " transform="matrix(1, 0, 0, -1, 32.835, -4.015)"/>
<path fill-rule="nonzero" fill="rgb(0%, 67.83905%, 93.728638%)" fill-opacity="1" d="M 45.996094 59.46875 C 46.34375 58.445312 47.179688 56.820312 48.039062 55.734375 L 45.082031 55.3125 C 45.601562 56.59375 45.949219 58.390625 45.996094 59.46875 "/>
<path fill="none" stroke-width="0.3985" stroke-linecap="butt" stroke-linejoin="miter" stroke="rgb(0%, 67.83905%, 93.728638%)" stroke-opacity="1" stroke-miterlimit="10" d="M 18.555625 -33.073594 L 16.950156 -38.804063 " transform="matrix(1, 0, 0, -1, 32.835, -4.015)"/>
<path fill-rule="nonzero" fill="rgb(0%, 67.83905%, 93.728638%)" fill-opacity="1" d="M 48.816406 38.242188 C 49.296875 37.273438 50.335938 35.769531 51.332031 34.808594 L 48.453125 34.003906 C 48.800781 35.339844 48.910156 37.164062 48.816406 38.242188 "/>
<g clip-path="url(#clip-3)">
<path fill="none" stroke-width="0.3985" stroke-linecap="butt" stroke-linejoin="miter" stroke="rgb(0%, 67.83905%, 93.728638%)" stroke-opacity="1" stroke-miterlimit="10" d="M 28.348594 -14.175156 L 24.872031 -17.651719 " transform="matrix(1, 0, 0, -1, 32.835, -4.015)"/>
</g>
<path fill-rule="nonzero" fill="rgb(0%, 67.83905%, 93.728638%)" fill-opacity="1" d="M 55.167969 16.171875 C 56.0625 15.5625 57.707031 14.761719 59.042969 14.410156 L 56.929688 12.296875 C 56.578125 13.636719 55.78125 15.277344 55.167969 16.171875 "/>
<path fill="none" stroke-width="0.3985" stroke-linecap="butt" stroke-linejoin="miter" stroke="rgb(0%, 67.83905%, 93.728638%)" stroke-opacity="1" stroke-miterlimit="10" d="M 6.336875 -70.866563 L 5.895469 -80.729844 " transform="matrix(1, 0, 0, -1, 32.835, -4.015)"/>
<path fill-rule="nonzero" fill="rgb(0%, 67.83905%, 93.728638%)" fill-opacity="1" d="M 38.570312 80.296875 C 38.820312 79.246094 39.492188 77.546875 40.242188 76.382812 L 37.257812 76.25 C 37.902344 77.476562 38.421875 79.226562 38.570312 80.296875 "/>
<path fill="none" stroke-width="0.3985" stroke-linecap="butt" stroke-linejoin="miter" stroke="rgb(0%, 67.83905%, 93.728638%)" stroke-opacity="1" stroke-miterlimit="10" d="M 7.403281 -51.968125 L 6.836875 -59.905625 " transform="matrix(1, 0, 0, -1, 32.835, -4.015)"/>
<path fill-rule="nonzero" fill="rgb(0%, 67.83905%, 93.728638%)" fill-opacity="1" d="M 39.417969 59.46875 C 39.691406 58.421875 40.410156 56.742188 41.191406 55.601562 L 38.210938 55.386719 C 38.820312 56.628906 39.292969 58.394531 39.417969 59.46875 "/>
<path fill="none" stroke-width="0.3985" stroke-linecap="butt" stroke-linejoin="miter" stroke="rgb(0%, 67.83905%, 93.728638%)" stroke-opacity="1" stroke-miterlimit="10" d="M 9.278281 -33.073594 L 8.489219 -38.706406 " transform="matrix(1, 0, 0, -1, 32.835, -4.015)"/>
<path fill-rule="nonzero" fill="rgb(0%, 67.83905%, 93.728638%)" fill-opacity="1" d="M 40.824219 38.242188 C 41.171875 37.21875 42.003906 35.589844 42.859375 34.503906 L 39.898438 34.089844 C 40.421875 35.367188 40.777344 37.164062 40.824219 38.242188 "/>
<path fill="none" stroke-width="0.3985" stroke-linecap="butt" stroke-linejoin="miter" stroke="rgb(0%, 67.83905%, 93.728638%)" stroke-opacity="1" stroke-miterlimit="10" d="M 14.172812 -14.175156 L 12.770469 -16.979844 " transform="matrix(1, 0, 0, -1, 32.835, -4.015)"/>
<path fill-rule="nonzero" fill="rgb(0%, 67.83905%, 93.728638%)" fill-opacity="1" d="M 44.003906 16.171875 C 44.65625 15.308594 45.964844 14.03125 47.121094 13.273438 L 44.449219 11.9375 C 44.539062 13.320312 44.300781 15.132812 44.003906 16.171875 "/>
<path fill="none" stroke-width="0.3985" stroke-linecap="butt" stroke-linejoin="miter" stroke="rgb(0%, 67.83905%, 93.728638%)" stroke-opacity="1" stroke-miterlimit="10" d="M 0.0009375 -70.866563 L 0.0009375 -80.725938 " transform="matrix(1, 0, 0, -1, 32.835, -4.015)"/>
<path fill-rule="nonzero" fill="rgb(0%, 67.83905%, 93.728638%)" fill-opacity="1" d="M 32.835938 80.296875 C 33.035156 79.234375 33.632812 77.507812 34.328125 76.3125 L 31.339844 76.3125 C 32.039062 77.507812 32.636719 79.234375 32.835938 80.296875 "/>
<path fill="none" stroke-width="0.3985" stroke-linecap="butt" stroke-linejoin="miter" stroke="rgb(0%, 67.83905%, 93.728638%)" stroke-opacity="1" stroke-miterlimit="10" d="M 0.0009375 -51.968125 L 0.0009375 -59.897813 " transform="matrix(1, 0, 0, -1, 32.835, -4.015)"/>
<path fill-rule="nonzero" fill="rgb(0%, 67.83905%, 93.728638%)" fill-opacity="1" d="M 32.835938 59.46875 C 33.035156 58.40625 33.632812 56.679688 34.328125 55.484375 L 31.339844 55.484375 C 32.039062 56.679688 32.636719 58.40625 32.835938 59.46875 "/>
<path fill="none" stroke-width="0.3985" stroke-linecap="butt" stroke-linejoin="miter" stroke="rgb(0%, 67.83905%, 93.728638%)" stroke-opacity="1" stroke-miterlimit="10" d="M 0.0009375 -33.073594 L 0.0009375 -38.67125 " transform="matrix(1, 0, 0, -1, 32.835, -4.015)"/>
<path fill-rule="nonzero" fill="rgb(0%, 67.83905%, 93.728638%)" fill-opacity="1" d="M 32.835938 38.242188 C 33.035156 37.179688 33.632812 35.453125 34.328125 34.257812 L 31.339844 34.257812 C 32.039062 35.453125 32.636719 37.179688 32.835938 38.242188 "/>
<path fill="none" stroke-width="0.3985" stroke-linecap="butt" stroke-linejoin="miter" stroke="rgb(0%, 67.83905%, 93.728638%)" stroke-opacity="1" stroke-miterlimit="10" d="M 0.0009375 -14.175156 L 0.0009375 -16.600938 " transform="matrix(1, 0, 0, -1, 32.835, -4.015)"/>
<path fill-rule="nonzero" fill="rgb(0%, 67.83905%, 93.728638%)" fill-opacity="1" d="M 32.835938 16.171875 C 33.035156 15.109375 33.632812 13.382812 34.328125 12.1875 L 31.339844 12.1875 C 32.039062 13.382812 32.636719 15.109375 32.835938 16.171875 "/>
<path fill="none" stroke-width="0.3985" stroke-linecap="butt" stroke-linejoin="miter" stroke="rgb(0%, 67.83905%, 93.728638%)" stroke-opacity="1" stroke-miterlimit="10" d="M -6.338906 -70.866563 L -5.8975 -80.729844 " transform="matrix(1, 0, 0, -1, 32.835, -4.015)"/>
<path fill-rule="nonzero" fill="rgb(0%, 67.83905%, 93.728638%)" fill-opacity="1" d="M 27.097656 80.296875 C 27.25 79.226562 27.769531 77.476562 28.414062 76.25 L 25.425781 76.382812 C 26.175781 77.546875 26.851562 79.246094 27.097656 80.296875 "/>
<path fill="none" stroke-width="0.3985" stroke-linecap="butt" stroke-linejoin="miter" stroke="rgb(0%, 67.83905%, 93.728638%)" stroke-opacity="1" stroke-miterlimit="10" d="M -7.401406 -51.968125 L -6.835 -59.905625 " transform="matrix(1, 0, 0, -1, 32.835, -4.015)"/>
<path fill-rule="nonzero" fill="rgb(0%, 67.83905%, 93.728638%)" fill-opacity="1" d="M 26.253906 59.46875 C 26.375 58.394531 26.851562 56.628906 27.460938 55.386719 L 24.480469 55.601562 C 25.261719 56.742188 25.980469 58.421875 26.253906 59.46875 "/>
<path fill="none" stroke-width="0.3985" stroke-linecap="butt" stroke-linejoin="miter" stroke="rgb(0%, 67.83905%, 93.728638%)" stroke-opacity="1" stroke-miterlimit="10" d="M -9.276406 -33.073594 L -8.487344 -38.706406 " transform="matrix(1, 0, 0, -1, 32.835, -4.015)"/>
<path fill-rule="nonzero" fill="rgb(0%, 67.83905%, 93.728638%)" fill-opacity="1" d="M 24.84375 38.242188 C 24.894531 37.164062 25.246094 35.367188 25.773438 34.089844 L 22.8125 34.503906 C 23.667969 35.589844 24.5 37.21875 24.84375 38.242188 "/>
<path fill="none" stroke-width="0.3985" stroke-linecap="butt" stroke-linejoin="miter" stroke="rgb(0%, 67.83905%, 93.728638%)" stroke-opacity="1" stroke-miterlimit="10" d="M -14.174844 -14.175156 L -12.7725 -16.979844 " transform="matrix(1, 0, 0, -1, 32.835, -4.015)"/>
<path fill-rule="nonzero" fill="rgb(0%, 67.83905%, 93.728638%)" fill-opacity="1" d="M 21.667969 16.171875 C 21.371094 15.132812 21.132812 13.320312 21.222656 11.9375 L 18.550781 13.277344 C 19.707031 14.03125 21.015625 15.308594 21.667969 16.171875 "/>
<path fill="none" stroke-width="0.3985" stroke-linecap="butt" stroke-linejoin="miter" stroke="rgb(0%, 67.83905%, 93.728638%)" stroke-opacity="1" stroke-miterlimit="10" d="M -12.67875 -70.866563 L -11.792031 -80.741563 " transform="matrix(1, 0, 0, -1, 32.835, -4.015)"/>
<path fill-rule="nonzero" fill="rgb(0%, 67.83905%, 93.728638%)" fill-opacity="1" d="M 21.359375 80.296875 C 21.464844 79.222656 21.90625 77.449219 22.496094 76.195312 L 19.515625 76.460938 C 20.320312 77.589844 21.066406 79.257812 21.359375 80.296875 "/>
<path fill="none" stroke-width="0.3985" stroke-linecap="butt" stroke-linejoin="miter" stroke="rgb(0%, 67.83905%, 93.728638%)" stroke-opacity="1" stroke-miterlimit="10" d="M -14.80375 -51.968125 L -13.667031 -59.932969 " transform="matrix(1, 0, 0, -1, 32.835, -4.015)"/>
<path fill-rule="nonzero" fill="rgb(0%, 67.83905%, 93.728638%)" fill-opacity="1" d="M 19.671875 59.46875 C 19.71875 58.390625 20.066406 56.59375 20.589844 55.3125 L 17.628906 55.734375 C 18.488281 56.820312 19.324219 58.445312 19.671875 59.46875 "/>
<path fill="none" stroke-width="0.3985" stroke-linecap="butt" stroke-linejoin="miter" stroke="rgb(0%, 67.83905%, 93.728638%)" stroke-opacity="1" stroke-miterlimit="10" d="M -18.55375 -33.073594 L -16.948281 -38.804063 " transform="matrix(1, 0, 0, -1, 32.835, -4.015)"/>
<path fill-rule="nonzero" fill="rgb(0%, 67.83905%, 93.728638%)" fill-opacity="1" d="M 16.855469 38.242188 C 16.761719 37.164062 16.871094 35.339844 17.21875 34 L 14.339844 34.808594 C 15.335938 35.773438 16.378906 37.273438 16.855469 38.242188 "/>
<path fill="none" stroke-width="0.3985" stroke-linecap="butt" stroke-linejoin="miter" stroke="rgb(0%, 67.83905%, 93.728638%)" stroke-opacity="1" stroke-miterlimit="10" d="M -28.346719 -14.175156 L -24.870156 -17.651719 " transform="matrix(1, 0, 0, -1, 32.835, -4.015)"/>
<path fill-rule="nonzero" fill="rgb(0%, 67.83905%, 93.728638%)" fill-opacity="1" d="M 10.5 16.171875 C 9.890625 15.277344 9.09375 13.636719 8.738281 12.296875 L 6.625 14.410156 C 7.964844 14.761719 9.609375 15.5625 10.5 16.171875 "/>
</svg>
