<?xml version="1.0" encoding="UTF-8"?>
<svg xmlns="http://www.w3.org/2000/svg" xmlns:xlink="http://www.w3.org/1999/xlink" width="57.091pt" height="76.207pt" viewBox="0 0 57.091 76.207">
<defs>
<clipPath id="clip-0">
<path clip-rule="nonzero" d="M 0 0 L 57.089844 0 L 57.089844 18 L 0 18 Z M 0 0 "/>
</clipPath>
<clipPath id="clip-1">
<path clip-rule="nonzero" d="M 35 0 L 57.089844 0 L 57.089844 69 L 35 69 Z M 35 0 "/>
</clipPath>
<clipPath id="clip-2">
<path clip-rule="nonzero" d="M 34 56 L 47 56 L 47 76.207031 L 34 76.207031 Z M 34 56 "/>
</clipPath>
<clipPath id="clip-3">
<path clip-rule="nonzero" d="M 38 71 L 42 71 L 42 76.207031 L 38 76.207031 Z M 38 71 "/>
</clipPath>
<clipPath id="clip-4">
<path clip-rule="nonzero" d="M 47 0 L 57.089844 0 L 57.089844 15 L 47 15 Z M 47 0 "/>
</clipPath>
<clipPath id="clip-5">
<path clip-rule="nonzero" d="M 28 56 L 41 56 L 41 76.207031 L 28 76.207031 Z M 28 56 "/>
</clipPath>
<clipPath id="clip-6">
<path clip-rule="nonzero" d="M 32 71 L 36 71 L 36 76.207031 L 32 76.207031 Z M 32 71 "/>
</clipPath>
<clipPath id="clip-7">
<path clip-rule="nonzero" d="M 27 72 L 31 72 L 31 76.207031 L 27 76.207031 Z M 27 72 "/>
</clipPath>
<clipPath id="clip-8">
<path clip-rule="nonzero" d="M 16 56 L 29 56 L 29 76.207031 L 16 76.207031 Z M 16 56 "/>
</clipPath>
<clipPath id="clip-9">
<path clip-rule="nonzero" d="M 21 71 L 25 71 L 25 76.207031 L 21 76.207031 Z M 21 71 "/>
</clipPath>
<clipPath id="clip-10">
<path clip-rule="nonzero" d="M 10 56 L 23 56 L 23 76.207031 L 10 76.207031 Z M 10 56 "/>
</clipPath>
<clipPath id="clip-11">
<path clip-rule="nonzero" d="M 15 71 L 19 71 L 19 76.207031 L 15 76.207031 Z M 15 71 "/>
</clipPath>
</defs>
<path fill-rule="nonzero" fill="rgb(89.99939%, 89.99939%, 89.99939%)" fill-opacity="1" d="M 56.894531 5.871094 C 56.894531 2.738281 44.203125 0.199219 28.546875 0.199219 C 12.890625 0.199219 0.199219 2.738281 0.199219 5.871094 C 0.199219 9 12.890625 11.539062 28.546875 11.539062 C 44.203125 11.539062 56.894531 9 56.894531 5.871094 Z M 56.894531 5.871094 "/>
<g clip-path="url(#clip-0)">
<path fill="none" stroke-width="0.3985" stroke-linecap="butt" stroke-linejoin="miter" stroke="rgb(0%, 0%, 0%)" stroke-opacity="1" stroke-miterlimit="10" d="M 28.348531 -14.175094 C 28.348531 -11.042281 15.657125 -8.503219 0.000875 -8.503219 C -15.655375 -8.503219 -28.346781 -11.042281 -28.346781 -14.175094 C -28.346781 -17.304 -15.655375 -19.843063 0.000875 -19.843063 C 15.657125 -19.843063 28.348531 -17.304 28.348531 -14.175094 Z M 28.348531 -14.175094 " transform="matrix(1, 0, 0, -1, 28.546, -8.304)"/>
</g>
<g clip-path="url(#clip-1)">
<path fill="none" stroke-width="0.3985" stroke-linecap="butt" stroke-linejoin="miter" stroke="rgb(0%, 0%, 0%)" stroke-opacity="1" stroke-dasharray="0.3985 0.99628" stroke-miterlimit="10" d="M 12.676656 -70.8665 L 12.996969 -67.425094 L 13.317281 -64.225875 L 13.637594 -61.249313 L 13.957906 -58.471969 L 14.274313 -55.882125 L 14.594625 -53.46025 L 14.914938 -51.190719 L 15.23525 -49.065719 L 15.555563 -47.069625 L 15.875875 -45.190719 L 16.196188 -43.425094 L 16.5165 -41.757125 L 16.832906 -40.186813 L 17.153219 -38.702438 L 17.473531 -37.300094 L 17.793844 -35.971969 L 18.114156 -34.71025 L 18.434469 -33.518844 L 18.754781 -32.386031 L 19.071188 -31.307906 L 19.3915 -30.284469 L 19.711813 -29.307906 L 20.032125 -28.382125 L 20.352438 -27.495406 L 20.67275 -26.651656 L 20.993063 -25.846969 L 21.313375 -25.077438 L 21.629781 -24.339156 L 21.950094 -23.636031 L 22.270406 -22.96025 L 22.590719 -22.315719 L 22.911031 -21.698531 L 23.231344 -21.104781 L 23.551656 -20.534469 L 23.868063 -19.987594 L 24.188375 -19.464156 L 24.508688 -18.96025 L 24.829 -18.471969 L 25.149313 -18.007125 L 25.469625 -17.557906 L 25.789938 -17.124313 L 26.11025 -16.706344 L 26.426656 -16.307906 L 26.746969 -15.917281 L 27.067281 -15.546188 L 27.387594 -15.182906 L 27.707906 -14.83525 L 28.028219 -14.499313 L 28.348531 -14.175094 " transform="matrix(1, 0, 0, -1, 28.546, -8.304)"/>
</g>
<path fill="none" stroke-width="0.3985" stroke-linecap="butt" stroke-linejoin="miter" stroke="rgb(0%, 0%, 0%)" stroke-opacity="1" stroke-dasharray="0.3985 0.99628" stroke-miterlimit="10" d="M -28.346781 -14.175094 L -28.026469 -14.499313 L -27.706156 -14.83525 L -27.385844 -15.182906 L -27.065531 -15.546188 L -26.749125 -15.917281 L -26.428812 -16.307906 L -26.1085 -16.706344 L -25.788187 -17.124313 L -25.467875 -17.557906 L -25.147562 -18.007125 L -24.82725 -18.471969 L -24.510844 -18.96025 L -24.190531 -19.464156 L -23.870219 -19.987594 L -23.549906 -20.534469 L -23.229594 -21.104781 L -22.909281 -21.698531 L -22.588969 -22.315719 L -22.268656 -22.96025 L -21.95225 -23.636031 L -21.631937 -24.339156 L -21.311625 -25.077438 L -20.991312 -25.846969 L -20.671 -26.651656 L -20.350687 -27.495406 L -20.030375 -28.382125 L -19.713969 -29.307906 L -19.393656 -30.284469 L -19.073344 -31.307906 L -18.753031 -32.386031 L -18.432719 -33.518844 L -18.112406 -34.71025 L -17.792094 -35.971969 L -17.471781 -37.300094 L -17.155375 -38.702438 L -16.835062 -40.186813 L -16.51475 -41.757125 L -16.194437 -43.425094 L -15.874125 -45.190719 L -15.553812 -47.069625 L -15.2335 -49.065719 L -14.917094 -51.190719 L -14.596781 -53.46025 L -14.276469 -55.882125 L -13.956156 -58.471969 L -13.635844 -61.249313 L -13.315531 -64.225875 L -12.995219 -67.425094 L -12.674906 -70.8665 " transform="matrix(1, 0, 0, -1, 28.546, -8.304)"/>
<g clip-path="url(#clip-2)">
<path fill="none" stroke-width="0.3985" stroke-linecap="butt" stroke-linejoin="miter" stroke="rgb(0%, 0%, 100%)" stroke-opacity="1" stroke-miterlimit="10" d="M 12.676656 -70.8665 L 11.793844 -80.7415 " transform="matrix(1, 0, 0, -1, 28.546, -8.304)"/>
</g>
<g clip-path="url(#clip-3)">
<path fill-rule="nonzero" fill="rgb(0%, 0%, 100%)" fill-opacity="1" d="M 40.019531 76.007812 C 40.3125 74.96875 41.0625 73.300781 41.863281 72.171875 L 38.886719 71.90625 C 39.472656 73.160156 39.917969 74.933594 40.019531 76.007812 "/>
</g>
<path fill="none" stroke-width="0.3985" stroke-linecap="butt" stroke-linejoin="miter" stroke="rgb(0%, 0%, 100%)" stroke-opacity="1" stroke-miterlimit="10" d="M 14.801656 -51.968063 L 13.668844 -59.932906 " transform="matrix(1, 0, 0, -1, 28.546, -8.304)"/>
<path fill-rule="nonzero" fill="rgb(0%, 0%, 100%)" fill-opacity="1" d="M 41.710938 55.179688 C 42.054688 54.15625 42.890625 52.53125 43.75 51.445312 L 40.792969 51.023438 C 41.3125 52.304688 41.660156 54.101562 41.710938 55.179688 "/>
<path fill="none" stroke-width="0.3985" stroke-linecap="butt" stroke-linejoin="miter" stroke="rgb(0%, 0%, 100%)" stroke-opacity="1" stroke-miterlimit="10" d="M 18.555563 -33.073531 L 16.950094 -38.804 " transform="matrix(1, 0, 0, -1, 28.546, -8.304)"/>
<path fill-rule="nonzero" fill="rgb(0%, 0%, 100%)" fill-opacity="1" d="M 44.527344 33.953125 C 45.007812 32.984375 46.046875 31.480469 47.042969 30.519531 L 44.164062 29.714844 C 44.511719 31.050781 44.621094 32.875 44.527344 33.953125 "/>
<g clip-path="url(#clip-4)">
<path fill="none" stroke-width="0.3985" stroke-linecap="butt" stroke-linejoin="miter" stroke="rgb(0%, 0%, 100%)" stroke-opacity="1" stroke-miterlimit="10" d="M 28.348531 -14.175094 L 24.871969 -17.651656 " transform="matrix(1, 0, 0, -1, 28.546, -8.304)"/>
</g>
<path fill-rule="nonzero" fill="rgb(0%, 0%, 100%)" fill-opacity="1" d="M 50.878906 11.882812 C 51.773438 11.273438 53.417969 10.472656 54.753906 10.121094 L 52.640625 8.007812 C 52.289062 9.347656 51.492188 10.988281 50.878906 11.882812 "/>
<g clip-path="url(#clip-5)">
<path fill="none" stroke-width="0.3985" stroke-linecap="butt" stroke-linejoin="miter" stroke="rgb(0%, 0%, 100%)" stroke-opacity="1" stroke-miterlimit="10" d="M 6.336813 -70.8665 L 5.895406 -80.729781 " transform="matrix(1, 0, 0, -1, 28.546, -8.304)"/>
</g>
<g clip-path="url(#clip-6)">
<path fill-rule="nonzero" fill="rgb(0%, 0%, 100%)" fill-opacity="1" d="M 34.28125 76.007812 C 34.53125 74.957031 35.203125 73.257812 35.953125 72.09375 L 32.96875 71.960938 C 33.613281 73.1875 34.132812 74.9375 34.28125 76.007812 "/>
</g>
<path fill="none" stroke-width="0.3985" stroke-linecap="butt" stroke-linejoin="miter" stroke="rgb(0%, 0%, 100%)" stroke-opacity="1" stroke-miterlimit="10" d="M 7.403219 -51.968063 L 6.836813 -59.905563 " transform="matrix(1, 0, 0, -1, 28.546, -8.304)"/>
<path fill-rule="nonzero" fill="rgb(0%, 0%, 100%)" fill-opacity="1" d="M 35.128906 55.179688 C 35.402344 54.132812 36.121094 52.453125 36.902344 51.3125 L 33.921875 51.097656 C 34.53125 52.339844 35.003906 54.105469 35.128906 55.179688 "/>
<path fill="none" stroke-width="0.3985" stroke-linecap="butt" stroke-linejoin="miter" stroke="rgb(0%, 0%, 100%)" stroke-opacity="1" stroke-miterlimit="10" d="M 9.278219 -33.073531 L 8.489156 -38.706344 " transform="matrix(1, 0, 0, -1, 28.546, -8.304)"/>
<path fill-rule="nonzero" fill="rgb(0%, 0%, 100%)" fill-opacity="1" d="M 36.539062 33.953125 C 36.882812 32.929688 37.714844 31.300781 38.570312 30.214844 L 35.609375 29.800781 C 36.136719 31.082031 36.488281 32.875 36.539062 33.953125 "/>
<path fill="none" stroke-width="0.3985" stroke-linecap="butt" stroke-linejoin="miter" stroke="rgb(0%, 0%, 100%)" stroke-opacity="1" stroke-miterlimit="10" d="M 14.17275 -14.175094 L 12.770406 -16.979781 " transform="matrix(1, 0, 0, -1, 28.546, -8.304)"/>
<path fill-rule="nonzero" fill="rgb(0%, 0%, 100%)" fill-opacity="1" d="M 39.714844 11.882812 C 40.367188 11.019531 41.675781 9.742188 42.832031 8.984375 L 40.160156 7.648438 C 40.25 9.03125 40.011719 10.84375 39.714844 11.882812 "/>
<path fill="none" stroke-width="0.3985" stroke-linecap="butt" stroke-linejoin="miter" stroke="rgb(0%, 0%, 100%)" stroke-opacity="1" stroke-miterlimit="10" d="M 0.000875 -70.8665 L 0.000875 -80.725875 " transform="matrix(1, 0, 0, -1, 28.546, -8.304)"/>
<g clip-path="url(#clip-7)">
<path fill-rule="nonzero" fill="rgb(0%, 0%, 100%)" fill-opacity="1" d="M 28.546875 76.007812 C 28.746094 74.945312 29.34375 73.21875 30.039062 72.023438 L 27.050781 72.023438 C 27.75 73.21875 28.347656 74.945312 28.546875 76.007812 "/>
</g>
<path fill="none" stroke-width="0.3985" stroke-linecap="butt" stroke-linejoin="miter" stroke="rgb(0%, 0%, 100%)" stroke-opacity="1" stroke-miterlimit="10" d="M 0.000875 -51.968063 L 0.000875 -59.89775 " transform="matrix(1, 0, 0, -1, 28.546, -8.304)"/>
<path fill-rule="nonzero" fill="rgb(0%, 0%, 100%)" fill-opacity="1" d="M 28.546875 55.179688 C 28.746094 54.117188 29.34375 52.390625 30.039062 51.195312 L 27.050781 51.195312 C 27.75 52.390625 28.347656 54.117188 28.546875 55.179688 "/>
<path fill="none" stroke-width="0.3985" stroke-linecap="butt" stroke-linejoin="miter" stroke="rgb(0%, 0%, 100%)" stroke-opacity="1" stroke-miterlimit="10" d="M 0.000875 -33.073531 L 0.000875 -38.671188 " transform="matrix(1, 0, 0, -1, 28.546, -8.304)"/>
<path fill-rule="nonzero" fill="rgb(0%, 0%, 100%)" fill-opacity="1" d="M 28.546875 33.953125 C 28.746094 32.890625 29.34375 31.164062 30.039062 29.96875 L 27.050781 29.96875 C 27.75 31.164062 28.347656 32.890625 28.546875 33.953125 "/>
<path fill="none" stroke-width="0.3985" stroke-linecap="butt" stroke-linejoin="miter" stroke="rgb(0%, 0%, 100%)" stroke-opacity="1" stroke-miterlimit="10" d="M 0.000875 -14.175094 L 0.000875 -16.600875 " transform="matrix(1, 0, 0, -1, 28.546, -8.304)"/>
<path fill-rule="nonzero" fill="rgb(0%, 0%, 100%)" fill-opacity="1" d="M 28.546875 11.882812 C 28.746094 10.820312 29.34375 9.09375 30.039062 7.898438 L 27.050781 7.898438 C 27.75 9.09375 28.347656 10.820312 28.546875 11.882812 "/>
<g clip-path="url(#clip-8)">
<path fill="none" stroke-width="0.3985" stroke-linecap="butt" stroke-linejoin="miter" stroke="rgb(0%, 0%, 100%)" stroke-opacity="1" stroke-miterlimit="10" d="M -6.338969 -70.8665 L -5.897562 -80.729781 " transform="matrix(1, 0, 0, -1, 28.546, -8.304)"/>
</g>
<g clip-path="url(#clip-9)">
<path fill-rule="nonzero" fill="rgb(0%, 0%, 100%)" fill-opacity="1" d="M 22.808594 76.007812 C 22.960938 74.9375 23.480469 73.1875 24.125 71.960938 L 21.136719 72.09375 C 21.886719 73.257812 22.5625 74.957031 22.808594 76.007812 "/>
</g>
<path fill="none" stroke-width="0.3985" stroke-linecap="butt" stroke-linejoin="miter" stroke="rgb(0%, 0%, 100%)" stroke-opacity="1" stroke-miterlimit="10" d="M -7.401469 -51.968063 L -6.835062 -59.905563 " transform="matrix(1, 0, 0, -1, 28.546, -8.304)"/>
<path fill-rule="nonzero" fill="rgb(0%, 0%, 100%)" fill-opacity="1" d="M 21.964844 55.179688 C 22.085938 54.105469 22.5625 52.339844 23.171875 51.097656 L 20.191406 51.3125 C 20.972656 52.453125 21.691406 54.132812 21.964844 55.179688 "/>
<path fill="none" stroke-width="0.3985" stroke-linecap="butt" stroke-linejoin="miter" stroke="rgb(0%, 0%, 100%)" stroke-opacity="1" stroke-miterlimit="10" d="M -9.276469 -33.073531 L -8.487406 -38.706344 " transform="matrix(1, 0, 0, -1, 28.546, -8.304)"/>
<path fill-rule="nonzero" fill="rgb(0%, 0%, 100%)" fill-opacity="1" d="M 20.554688 33.953125 C 20.605469 32.875 20.957031 31.078125 21.484375 29.800781 L 18.523438 30.214844 C 19.378906 31.300781 20.210938 32.929688 20.554688 33.953125 "/>
<path fill="none" stroke-width="0.3985" stroke-linecap="butt" stroke-linejoin="miter" stroke="rgb(0%, 0%, 100%)" stroke-opacity="1" stroke-miterlimit="10" d="M -14.174906 -14.175094 L -12.772562 -16.979781 " transform="matrix(1, 0, 0, -1, 28.546, -8.304)"/>
<path fill-rule="nonzero" fill="rgb(0%, 0%, 100%)" fill-opacity="1" d="M 17.378906 11.882812 C 17.082031 10.84375 16.84375 9.03125 16.933594 7.648438 L 14.261719 8.988281 C 15.417969 9.742188 16.726562 11.019531 17.378906 11.882812 "/>
<g clip-path="url(#clip-10)">
<path fill="none" stroke-width="0.3985" stroke-linecap="butt" stroke-linejoin="miter" stroke="rgb(0%, 0%, 100%)" stroke-opacity="1" stroke-miterlimit="10" d="M -12.674906 -70.8665 L -11.792094 -80.7415 " transform="matrix(1, 0, 0, -1, 28.546, -8.304)"/>
</g>
<g clip-path="url(#clip-11)">
<path fill-rule="nonzero" fill="rgb(0%, 0%, 100%)" fill-opacity="1" d="M 17.070312 76.007812 C 17.175781 74.933594 17.617188 73.160156 18.207031 71.90625 L 15.226562 72.171875 C 16.03125 73.300781 16.777344 74.96875 17.070312 76.007812 "/>
</g>
<path fill="none" stroke-width="0.3985" stroke-linecap="butt" stroke-linejoin="miter" stroke="rgb(0%, 0%, 100%)" stroke-opacity="1" stroke-miterlimit="10" d="M -14.803812 -51.968063 L -13.667094 -59.932906 " transform="matrix(1, 0, 0, -1, 28.546, -8.304)"/>
<path fill-rule="nonzero" fill="rgb(0%, 0%, 100%)" fill-opacity="1" d="M 15.382812 55.179688 C 15.429688 54.101562 15.777344 52.304688 16.300781 51.023438 L 13.339844 51.445312 C 14.199219 52.53125 15.035156 54.15625 15.382812 55.179688 "/>
<path fill="none" stroke-width="0.3985" stroke-linecap="butt" stroke-linejoin="miter" stroke="rgb(0%, 0%, 100%)" stroke-opacity="1" stroke-miterlimit="10" d="M -18.553812 -33.073531 L -16.948344 -38.804 " transform="matrix(1, 0, 0, -1, 28.546, -8.304)"/>
<path fill-rule="nonzero" fill="rgb(0%, 0%, 100%)" fill-opacity="1" d="M 12.566406 33.953125 C 12.472656 32.875 12.582031 31.050781 12.929688 29.710938 L 10.050781 30.519531 C 11.046875 31.484375 12.089844 32.984375 12.566406 33.953125 "/>
<path fill="none" stroke-width="0.3985" stroke-linecap="butt" stroke-linejoin="miter" stroke="rgb(0%, 0%, 100%)" stroke-opacity="1" stroke-miterlimit="10" d="M -28.346781 -14.175094 L -24.870219 -17.651656 " transform="matrix(1, 0, 0, -1, 28.546, -8.304)"/>
<path fill-rule="nonzero" fill="rgb(0%, 0%, 100%)" fill-opacity="1" d="M 6.210938 11.882812 C 5.601562 10.988281 4.804688 9.347656 4.449219 8.007812 L 2.335938 10.121094 C 3.675781 10.472656 5.320312 11.273438 6.210938 11.882812 "/>
</svg>
