<?xml version="1.0" encoding="UTF-8"?>
<svg xmlns="http://www.w3.org/2000/svg" xmlns:xlink="http://www.w3.org/1999/xlink" width="66.069" height="84.985" viewBox="0 0 66.069 84.985">
<defs>
<clipPath id="clip-0">
<path clip-rule="nonzero" d="M 0 0 L 66.070312 0 L 66.070312 84.984375 L 0 84.984375 Z M 0 0 "/>
</clipPath>
<clipPath id="clip-1">
<path clip-rule="nonzero" d="M 0 0 L 66.070312 0 L 66.070312 28 L 0 28 Z M 0 0 "/>
</clipPath>
<clipPath id="clip-2">
<path clip-rule="nonzero" d="M 34 0 L 66.070312 0 L 66.070312 79 L 34 79 Z M 34 0 "/>
</clipPath>
<clipPath id="clip-3">
<path clip-rule="nonzero" d="M 52 4 L 66.070312 4 L 66.070312 20 L 52 20 Z M 52 4 "/>
</clipPath>
</defs>
<g clip-path="url(#clip-0)">
<path fill-rule="nonzero" fill="rgb(0%, 0%, 0%)" fill-opacity="1" d="M 0 84.984375 L 0 0 L 66.070312 0 L 66.070312 84.984375 Z M 0 84.984375 "/>
<path fill-rule="nonzero" fill="rgb(0%, 0%, 0%)" fill-opacity="1" d="M 0 84.984375 L 0 0 L 66.070312 0 L 66.070312 84.984375 Z M 0 84.984375 "/>
</g>
<path fill-rule="nonzero" fill="rgb(69.999695%, 69.999695%, 69.999695%)" fill-opacity="1" d="M 61.378906 10.355469 C 61.378906 7.226562 48.691406 4.6875 33.035156 4.6875 C 17.378906 4.6875 4.6875 7.226562 4.6875 10.355469 C 4.6875 13.488281 17.378906 16.027344 33.035156 16.027344 C 48.691406 16.027344 61.378906 13.488281 61.378906 10.355469 Z M 61.378906 10.355469 "/>
<g clip-path="url(#clip-1)">
<path fill="none" stroke-width="0.79701" stroke-linecap="butt" stroke-linejoin="miter" stroke="rgb(100%, 100%, 100%)" stroke-opacity="1" stroke-miterlimit="10" d="M 28.344906 -14.171469 C 28.344906 -11.042563 15.657406 -8.5035 0.00115625 -8.5035 C -15.655094 -8.5035 -28.3465 -11.042563 -28.3465 -14.171469 C -28.3465 -17.304281 -15.655094 -19.843344 0.00115625 -19.843344 C 15.657406 -19.843344 28.344906 -17.304281 28.344906 -14.171469 Z M 28.344906 -14.171469 " transform="matrix(1, 0, 0, -1, 33.034, -3.816)"/>
</g>
<g clip-path="url(#clip-2)">
<path fill="none" stroke-width="0.79701" stroke-linecap="butt" stroke-linejoin="miter" stroke="rgb(100%, 100%, 100%)" stroke-opacity="1" stroke-miterlimit="10" d="M 12.676938 -70.866781 L 12.99725 -67.425375 L 13.317563 -64.22225 L 13.637875 -61.245688 L 13.958188 -58.47225 L 14.274594 -55.882406 L 14.594906 -53.460531 L 14.915219 -51.191 L 15.235531 -49.066 L 15.555844 -47.069906 L 15.876156 -45.191 L 16.196469 -43.425375 L 16.512875 -41.757406 L 16.833188 -40.187094 L 17.1535 -38.702719 L 17.473813 -37.300375 L 17.794125 -35.97225 L 18.114438 -34.710531 L 18.43475 -33.519125 L 18.755063 -32.386313 L 19.071469 -31.308188 L 19.391781 -30.28475 L 19.712094 -29.308188 L 20.032406 -28.382406 L 20.352719 -27.495688 L 20.673031 -26.651938 L 20.993344 -25.84725 L 21.30975 -25.077719 L 21.630063 -24.339438 L 21.950375 -23.636313 L 22.270688 -22.960531 L 22.591 -22.316 L 22.911313 -21.698813 L 23.231625 -21.105063 L 23.548031 -20.53475 L 23.868344 -19.987875 L 24.188656 -19.464438 L 24.508969 -18.960531 L 24.829281 -18.47225 L 25.149594 -18.007406 L 25.469906 -17.558188 L 25.790219 -17.124594 L 26.106625 -16.706625 L 26.426938 -16.304281 L 26.74725 -15.917563 L 27.067563 -15.546469 L 27.387875 -15.183188 L 27.708188 -14.835531 L 28.0285 -14.499594 L 28.344906 -14.171469 " transform="matrix(1, 0, 0, -1, 33.034, -3.816)"/>
</g>
<path fill="none" stroke-width="0.79701" stroke-linecap="butt" stroke-linejoin="miter" stroke="rgb(100%, 100%, 100%)" stroke-opacity="1" stroke-miterlimit="10" d="M -28.3465 -14.171469 L -28.026187 -14.499594 L -27.705875 -14.835531 L -27.385562 -15.183188 L -27.069156 -15.546469 L -26.748844 -15.917563 L -26.428531 -16.304281 L -26.108219 -16.706625 L -25.787906 -17.124594 L -25.467594 -17.558188 L -25.147281 -18.007406 L -24.830875 -18.47225 L -24.510562 -18.960531 L -24.19025 -19.464438 L -23.869937 -19.987875 L -23.549625 -20.53475 L -23.229312 -21.105063 L -22.909 -21.698813 L -22.588687 -22.316 L -22.272281 -22.960531 L -21.951969 -23.636313 L -21.631656 -24.339438 L -21.311344 -25.077719 L -20.991031 -25.84725 L -20.670719 -26.651938 L -20.350406 -27.495688 L -20.034 -28.382406 L -19.713687 -29.308188 L -19.393375 -30.28475 L -19.073062 -31.308188 L -18.75275 -32.386313 L -18.432437 -33.519125 L -18.112125 -34.710531 L -17.791812 -35.97225 L -17.475406 -37.300375 L -17.155094 -38.702719 L -16.834781 -40.187094 L -16.514469 -41.757406 L -16.194156 -43.425375 L -15.873844 -45.191 L -15.553531 -47.069906 L -15.237125 -49.066 L -14.916812 -51.191 L -14.5965 -53.460531 L -14.276187 -55.882406 L -13.955875 -58.47225 L -13.635562 -61.245688 L -13.31525 -64.22225 L -12.994937 -67.425375 L -12.678531 -70.866781 " transform="matrix(1, 0, 0, -1, 33.034, -3.816)"/>
<path fill="none" stroke-width="0.3985" stroke-linecap="butt" stroke-linejoin="miter" stroke="rgb(0%, 67.83905%, 93.728638%)" stroke-opacity="1" stroke-miterlimit="10" d="M 12.676938 -70.866781 L 11.794125 -80.741781 " transform="matrix(1, 0, 0, -1, 33.034, -3.816)"/>
<path fill-rule="nonzero" fill="rgb(0%, 67.83905%, 93.728638%)" fill-opacity="1" d="M 44.507812 80.496094 C 44.800781 79.457031 45.550781 77.789062 46.351562 76.660156 L 43.375 76.394531 C 43.960938 77.648438 44.402344 79.421875 44.507812 80.496094 "/>
<path fill="none" stroke-width="0.3985" stroke-linecap="butt" stroke-linejoin="miter" stroke="rgb(0%, 67.83905%, 93.728638%)" stroke-opacity="1" stroke-miterlimit="10" d="M 14.801938 -51.968344 L 13.669125 -59.933188 " transform="matrix(1, 0, 0, -1, 33.034, -3.816)"/>
<path fill-rule="nonzero" fill="rgb(0%, 67.83905%, 93.728638%)" fill-opacity="1" d="M 46.195312 59.667969 C 46.542969 58.644531 47.378906 57.019531 48.238281 55.933594 L 45.28125 55.511719 C 45.800781 56.792969 46.148438 58.585938 46.195312 59.667969 "/>
<path fill="none" stroke-width="0.3985" stroke-linecap="butt" stroke-linejoin="miter" stroke="rgb(0%, 67.83905%, 93.728638%)" stroke-opacity="1" stroke-miterlimit="10" d="M 18.555844 -33.069906 L 16.950375 -38.804281 " transform="matrix(1, 0, 0, -1, 33.034, -3.816)"/>
<path fill-rule="nonzero" fill="rgb(0%, 67.83905%, 93.728638%)" fill-opacity="1" d="M 49.015625 38.441406 C 49.492188 37.472656 50.535156 35.96875 51.53125 35.007812 L 48.652344 34.199219 C 49 35.539062 49.109375 37.363281 49.015625 38.441406 "/>
<g clip-path="url(#clip-3)">
<path fill="none" stroke-width="0.3985" stroke-linecap="butt" stroke-linejoin="miter" stroke="rgb(0%, 67.83905%, 93.728638%)" stroke-opacity="1" stroke-miterlimit="10" d="M 28.344906 -14.171469 L 24.87225 -17.651938 " transform="matrix(1, 0, 0, -1, 33.034, -3.816)"/>
</g>
<path fill-rule="nonzero" fill="rgb(0%, 67.83905%, 93.728638%)" fill-opacity="1" d="M 55.367188 16.371094 C 56.261719 15.761719 57.90625 14.960938 59.242188 14.609375 L 57.128906 12.496094 C 56.777344 13.835938 55.980469 15.476562 55.367188 16.371094 "/>
<path fill="none" stroke-width="0.3985" stroke-linecap="butt" stroke-linejoin="miter" stroke="rgb(0%, 67.83905%, 93.728638%)" stroke-opacity="1" stroke-miterlimit="10" d="M 6.337094 -70.866781 L 5.895688 -80.730063 " transform="matrix(1, 0, 0, -1, 33.034, -3.816)"/>
<path fill-rule="nonzero" fill="rgb(0%, 67.83905%, 93.728638%)" fill-opacity="1" d="M 38.769531 80.496094 C 39.019531 79.445312 39.691406 77.746094 40.441406 76.582031 L 37.457031 76.449219 C 38.097656 77.675781 38.621094 79.425781 38.769531 80.496094 "/>
<path fill="none" stroke-width="0.3985" stroke-linecap="butt" stroke-linejoin="miter" stroke="rgb(0%, 67.83905%, 93.728638%)" stroke-opacity="1" stroke-miterlimit="10" d="M 7.4035 -51.968344 L 6.837094 -59.905844 " transform="matrix(1, 0, 0, -1, 33.034, -3.816)"/>
<path fill-rule="nonzero" fill="rgb(0%, 67.83905%, 93.728638%)" fill-opacity="1" d="M 39.617188 59.667969 C 39.890625 58.621094 40.609375 56.941406 41.390625 55.800781 L 38.410156 55.585938 C 39.019531 56.828125 39.492188 58.59375 39.617188 59.667969 "/>
<path fill="none" stroke-width="0.3985" stroke-linecap="butt" stroke-linejoin="miter" stroke="rgb(0%, 67.83905%, 93.728638%)" stroke-opacity="1" stroke-miterlimit="10" d="M 9.2785 -33.069906 L 8.489438 -38.706625 " transform="matrix(1, 0, 0, -1, 33.034, -3.816)"/>
<path fill-rule="nonzero" fill="rgb(0%, 67.83905%, 93.728638%)" fill-opacity="1" d="M 41.023438 38.441406 C 41.371094 37.417969 42.203125 35.789062 43.058594 34.703125 L 40.097656 34.289062 C 40.621094 35.566406 40.976562 37.359375 41.023438 38.441406 "/>
<path fill="none" stroke-width="0.3985" stroke-linecap="butt" stroke-linejoin="miter" stroke="rgb(0%, 67.83905%, 93.728638%)" stroke-opacity="1" stroke-miterlimit="10" d="M 14.173031 -14.171469 L 12.770688 -16.980063 " transform="matrix(1, 0, 0, -1, 33.034, -3.816)"/>
<path fill-rule="nonzero" fill="rgb(0%, 67.83905%, 93.728638%)" fill-opacity="1" d="M 44.203125 16.371094 C 44.855469 15.507812 46.164062 14.230469 47.320312 13.472656 L 44.648438 12.136719 C 44.738281 13.519531 44.5 15.332031 44.203125 16.371094 "/>
<path fill="none" stroke-width="0.3985" stroke-linecap="butt" stroke-linejoin="miter" stroke="rgb(0%, 67.83905%, 93.728638%)" stroke-opacity="1" stroke-miterlimit="10" d="M 0.00115625 -70.866781 L 0.00115625 -80.726156 " transform="matrix(1, 0, 0, -1, 33.034, -3.816)"/>
<path fill-rule="nonzero" fill="rgb(0%, 67.83905%, 93.728638%)" fill-opacity="1" d="M 33.035156 80.496094 C 33.234375 79.433594 33.832031 77.707031 34.527344 76.511719 L 31.539062 76.511719 C 32.238281 77.707031 32.835938 79.433594 33.035156 80.496094 "/>
<path fill="none" stroke-width="0.3985" stroke-linecap="butt" stroke-linejoin="miter" stroke="rgb(0%, 67.83905%, 93.728638%)" stroke-opacity="1" stroke-miterlimit="10" d="M 0.00115625 -51.968344 L 0.00115625 -59.898031 " transform="matrix(1, 0, 0, -1, 33.034, -3.816)"/>
<path fill-rule="nonzero" fill="rgb(0%, 67.83905%, 93.728638%)" fill-opacity="1" d="M 33.035156 59.667969 C 33.234375 58.605469 33.832031 56.878906 34.527344 55.683594 L 31.539062 55.683594 C 32.238281 56.878906 32.835938 58.605469 33.035156 59.667969 "/>
<path fill="none" stroke-width="0.3985" stroke-linecap="butt" stroke-linejoin="miter" stroke="rgb(0%, 67.83905%, 93.728638%)" stroke-opacity="1" stroke-miterlimit="10" d="M 0.00115625 -33.069906 L 0.00115625 -38.671469 " transform="matrix(1, 0, 0, -1, 33.034, -3.816)"/>
<path fill-rule="nonzero" fill="rgb(0%, 67.83905%, 93.728638%)" fill-opacity="1" d="M 33.035156 38.441406 C 33.234375 37.378906 33.832031 35.652344 34.527344 34.457031 L 31.539062 34.457031 C 32.238281 35.652344 32.835938 37.378906 33.035156 38.441406 "/>
<path fill="none" stroke-width="0.3985" stroke-linecap="butt" stroke-linejoin="miter" stroke="rgb(0%, 67.83905%, 93.728638%)" stroke-opacity="1" stroke-miterlimit="10" d="M 0.00115625 -14.171469 L 0.00115625 -16.601156 " transform="matrix(1, 0, 0, -1, 33.034, -3.816)"/>
<path fill-rule="nonzero" fill="rgb(0%, 67.83905%, 93.728638%)" fill-opacity="1" d="M 33.035156 16.371094 C 33.234375 15.308594 33.832031 13.582031 34.527344 12.386719 L 31.539062 12.386719 C 32.238281 13.582031 32.835938 15.308594 33.035156 16.371094 "/>
<path fill="none" stroke-width="0.3985" stroke-linecap="butt" stroke-linejoin="miter" stroke="rgb(0%, 67.83905%, 93.728638%)" stroke-opacity="1" stroke-miterlimit="10" d="M -6.338687 -70.866781 L -5.897281 -80.730063 " transform="matrix(1, 0, 0, -1, 33.034, -3.816)"/>
<path fill-rule="nonzero" fill="rgb(0%, 67.83905%, 93.728638%)" fill-opacity="1" d="M 27.296875 80.496094 C 27.449219 79.425781 27.96875 77.675781 28.613281 76.449219 L 25.625 76.582031 C 26.375 77.746094 27.050781 79.445312 27.296875 80.496094 "/>
<path fill="none" stroke-width="0.3985" stroke-linecap="butt" stroke-linejoin="miter" stroke="rgb(0%, 67.83905%, 93.728638%)" stroke-opacity="1" stroke-miterlimit="10" d="M -7.401187 -51.968344 L -6.834781 -59.905844 " transform="matrix(1, 0, 0, -1, 33.034, -3.816)"/>
<path fill-rule="nonzero" fill="rgb(0%, 67.83905%, 93.728638%)" fill-opacity="1" d="M 26.453125 59.667969 C 26.574219 58.59375 27.050781 56.828125 27.660156 55.585938 L 24.679688 55.800781 C 25.460938 56.941406 26.179688 58.621094 26.453125 59.667969 "/>
<path fill="none" stroke-width="0.3985" stroke-linecap="butt" stroke-linejoin="miter" stroke="rgb(0%, 67.83905%, 93.728638%)" stroke-opacity="1" stroke-miterlimit="10" d="M -9.276187 -33.069906 L -8.487125 -38.706625 " transform="matrix(1, 0, 0, -1, 33.034, -3.816)"/>
<path fill-rule="nonzero" fill="rgb(0%, 67.83905%, 93.728638%)" fill-opacity="1" d="M 25.042969 38.441406 C 25.09375 37.359375 25.445312 35.566406 25.972656 34.289062 L 23.011719 34.703125 C 23.867188 35.789062 24.699219 37.417969 25.042969 38.441406 "/>
<path fill="none" stroke-width="0.3985" stroke-linecap="butt" stroke-linejoin="miter" stroke="rgb(0%, 67.83905%, 93.728638%)" stroke-opacity="1" stroke-miterlimit="10" d="M -14.174625 -14.171469 L -12.772281 -16.980063 " transform="matrix(1, 0, 0, -1, 33.034, -3.816)"/>
<path fill-rule="nonzero" fill="rgb(0%, 67.83905%, 93.728638%)" fill-opacity="1" d="M 21.867188 16.371094 C 21.570312 15.332031 21.332031 13.519531 21.421875 12.136719 L 18.75 13.472656 C 19.90625 14.230469 21.214844 15.507812 21.867188 16.371094 "/>
<path fill="none" stroke-width="0.3985" stroke-linecap="butt" stroke-linejoin="miter" stroke="rgb(0%, 67.83905%, 93.728638%)" stroke-opacity="1" stroke-miterlimit="10" d="M -12.678531 -70.866781 L -11.791812 -80.741781 " transform="matrix(1, 0, 0, -1, 33.034, -3.816)"/>
<path fill-rule="nonzero" fill="rgb(0%, 67.83905%, 93.728638%)" fill-opacity="1" d="M 21.558594 80.496094 C 21.664062 79.421875 22.105469 77.648438 22.691406 76.394531 L 19.714844 76.660156 C 20.515625 77.789062 21.265625 79.457031 21.558594 80.496094 "/>
<path fill="none" stroke-width="0.3985" stroke-linecap="butt" stroke-linejoin="miter" stroke="rgb(0%, 67.83905%, 93.728638%)" stroke-opacity="1" stroke-miterlimit="10" d="M -14.803531 -51.968344 L -13.670719 -59.933188 " transform="matrix(1, 0, 0, -1, 33.034, -3.816)"/>
<path fill-rule="nonzero" fill="rgb(0%, 67.83905%, 93.728638%)" fill-opacity="1" d="M 19.871094 59.667969 C 19.917969 58.585938 20.265625 56.792969 20.789062 55.511719 L 17.828125 55.933594 C 18.6875 57.019531 19.523438 58.644531 19.871094 59.667969 "/>
<path fill="none" stroke-width="0.3985" stroke-linecap="butt" stroke-linejoin="miter" stroke="rgb(0%, 67.83905%, 93.728638%)" stroke-opacity="1" stroke-miterlimit="10" d="M -18.553531 -33.069906 L -16.948062 -38.804281 " transform="matrix(1, 0, 0, -1, 33.034, -3.816)"/>
<path fill-rule="nonzero" fill="rgb(0%, 67.83905%, 93.728638%)" fill-opacity="1" d="M 17.054688 38.441406 C 16.960938 37.363281 17.070312 35.539062 17.417969 34.199219 L 14.539062 35.007812 C 15.535156 35.972656 16.578125 37.472656 17.054688 38.441406 "/>
<path fill="none" stroke-width="0.3985" stroke-linecap="butt" stroke-linejoin="miter" stroke="rgb(0%, 67.83905%, 93.728638%)" stroke-opacity="1" stroke-miterlimit="10" d="M -28.3465 -14.171469 L -24.869937 -17.651938 " transform="matrix(1, 0, 0, -1, 33.034, -3.816)"/>
<path fill-rule="nonzero" fill="rgb(0%, 67.83905%, 93.728638%)" fill-opacity="1" d="M 10.699219 16.371094 C 10.089844 15.476562 9.292969 13.835938 8.9375 12.496094 L 6.824219 14.609375 C 8.164062 14.960938 9.808594 15.761719 10.699219 16.371094 "/>
</svg>
