<?xml version="1.0" encoding="UTF-8"?>
<svg xmlns="http://www.w3.org/2000/svg" xmlns:xlink="http://www.w3.org/1999/xlink" width="73.623" height="73.623" viewBox="0 0 73.623 73.623">
<defs>
<clipPath id="clip-0">
<path clip-rule="nonzero" d="M 0 0 L 73.621094 0 L 73.621094 73.621094 L 0 73.621094 Z M 0 0 "/>
</clipPath>
</defs>
<g clip-path="url(#clip-0)">
<path fill="none" stroke-width="0.3985" stroke-linecap="butt" stroke-linejoin="miter" stroke="rgb(0%, 0%, 0%)" stroke-opacity="1" stroke-miterlimit="10" d="M 30.267125 6.210437 C 30.079625 7.628406 29.868688 8.429187 29.317906 9.7495 L 30.329625 10.089344 C 30.329625 10.089344 30.333531 10.089344 30.337438 10.089344 C 30.341344 10.089344 30.349156 10.09325 30.356969 10.097156 C 30.364781 10.101062 30.384313 10.104969 30.392125 10.108875 C 30.403844 10.116687 30.427281 10.1245 30.442906 10.132312 C 30.458531 10.136219 30.485875 10.151844 30.505406 10.159656 C 30.524938 10.167469 30.560094 10.183094 30.583531 10.194812 C 30.603063 10.206531 30.646031 10.226062 30.669469 10.241687 C 30.696813 10.253406 30.743688 10.276844 30.774938 10.296375 C 30.806188 10.312 30.856969 10.339344 30.892125 10.358875 C 30.927281 10.378406 30.985875 10.413562 31.024938 10.437 C 31.060094 10.460437 31.122594 10.4995 31.165563 10.522937 C 31.208531 10.550281 31.278844 10.597156 31.325719 10.628406 C 31.368688 10.659656 31.446813 10.710437 31.497594 10.745594 C 31.548375 10.78075 31.6265 10.839344 31.681188 10.878406 C 31.735875 10.917469 31.821813 10.983875 31.880406 11.026844 C 31.939 11.069812 32.028844 11.147937 32.091344 11.194812 C 32.153844 11.245594 32.255406 11.331531 32.317906 11.386219 C 32.384313 11.440906 32.489781 11.534656 32.560094 11.597156 C 32.630406 11.659656 32.743688 11.761219 32.817906 11.831531 C 32.888219 11.901844 33.009313 12.019031 33.083531 12.09325 C 33.161656 12.171375 33.286656 12.296375 33.368688 12.382312 C 33.446813 12.46825 33.579625 12.612781 33.665563 12.706531 C 33.7515 12.800281 33.888219 12.956531 33.978063 13.058094 C 34.064 13.163562 34.298375 13.452625 34.298375 13.452625 C 34.15775 13.976062 34.040563 14.265125 33.767125 14.737781 C 33.767125 14.737781 33.399938 14.772937 33.263219 14.784656 C 33.130406 14.796375 32.915563 14.812 32.790563 14.815906 C 32.665563 14.823719 32.47025 14.831531 32.356969 14.835437 C 32.239781 14.839344 32.056188 14.839344 31.946813 14.839344 C 31.841344 14.839344 31.673375 14.835437 31.571813 14.835437 C 31.474156 14.831531 31.317906 14.823719 31.224156 14.819812 C 31.134313 14.815906 30.989781 14.804187 30.903844 14.800281 C 30.821813 14.792469 30.692906 14.78075 30.614781 14.772937 C 30.536656 14.765125 30.415563 14.7495 30.341344 14.741687 C 30.271031 14.733875 30.161656 14.71825 30.09525 14.706531 C 30.028844 14.698719 29.931188 14.683094 29.868688 14.671375 C 29.810094 14.659656 29.72025 14.644031 29.665563 14.632312 C 29.610875 14.620594 29.528844 14.604969 29.481969 14.59325 C 29.431188 14.581531 29.360875 14.565906 29.317906 14.554187 C 29.274938 14.542469 29.208531 14.522937 29.169469 14.515125 C 29.130406 14.503406 29.075719 14.487781 29.040563 14.476062 C 29.009313 14.46825 28.958531 14.452625 28.931188 14.444812 C 28.899938 14.433094 28.860875 14.421375 28.837438 14.409656 C 28.810094 14.401844 28.774938 14.390125 28.755406 14.382312 C 28.735875 14.3745 28.708531 14.366687 28.692906 14.358875 C 28.677281 14.354969 28.653844 14.34325 28.642125 14.339344 C 28.630406 14.335437 28.618688 14.327625 28.610875 14.323719 C 28.603063 14.319812 28.591344 14.315906 28.587438 14.315906 C 28.583531 14.312 28.583531 14.312 28.583531 14.312 L 27.6265 13.831531 C 27.079625 15.15575 26.669469 15.870594 25.794469 17.007312 L 26.685094 17.59325 C 26.685094 17.59325 26.689 17.597156 26.692906 17.597156 C 26.692906 17.601062 26.700719 17.604969 26.708531 17.608875 C 26.716344 17.616687 26.731969 17.6245 26.739781 17.632312 C 26.7515 17.640125 26.767125 17.65575 26.78275 17.663562 C 26.794469 17.675281 26.817906 17.694812 26.837438 17.710437 C 26.853063 17.722156 26.880406 17.745594 26.899938 17.765125 C 26.919469 17.78075 26.950719 17.812 26.974156 17.831531 C 26.997594 17.851062 27.036656 17.886219 27.060094 17.909656 C 27.087438 17.933094 27.1265 17.972156 27.15775 18.003406 C 27.185094 18.03075 27.231969 18.077625 27.263219 18.112781 C 27.294469 18.144031 27.34525 18.194812 27.380406 18.233875 C 27.411656 18.269031 27.47025 18.331531 27.505406 18.370594 C 27.540563 18.413562 27.603063 18.483875 27.642125 18.53075 C 27.681188 18.577625 27.743688 18.65575 27.786656 18.706531 C 27.825719 18.757312 27.896031 18.847156 27.939 18.90575 C 27.981969 18.960437 28.052281 19.058094 28.099156 19.120594 C 28.146031 19.183094 28.22025 19.292469 28.271031 19.362781 C 28.317906 19.433094 28.396031 19.550281 28.446813 19.628406 C 28.497594 19.706531 28.583531 19.839344 28.634313 19.921375 C 28.689 20.007312 28.771031 20.151844 28.825719 20.245594 C 28.880406 20.339344 28.966344 20.495594 29.024938 20.597156 C 29.079625 20.702625 29.173375 20.8745 29.228063 20.987781 C 29.286656 21.101062 29.380406 21.288562 29.439 21.409656 C 29.497594 21.53075 29.649938 21.8745 29.649938 21.8745 C 29.3765 22.34325 29.189 22.589344 28.802281 22.976062 C 28.802281 22.976062 28.439 22.917469 28.302281 22.894031 C 28.169469 22.866687 27.962438 22.827625 27.837438 22.800281 C 27.712438 22.772937 27.524938 22.729969 27.411656 22.702625 C 27.298375 22.675281 27.122594 22.632312 27.017125 22.604969 C 26.911656 22.573719 26.7515 22.53075 26.65775 22.4995 C 26.560094 22.472156 26.411656 22.425281 26.325719 22.397937 C 26.235875 22.370594 26.103063 22.323719 26.021031 22.292469 C 25.939 22.265125 25.817906 22.222156 25.743688 22.194812 C 25.673375 22.167469 25.560094 22.120594 25.489781 22.09325 C 25.423375 22.065906 25.321813 22.022937 25.263219 21.995594 C 25.200719 21.96825 25.110875 21.929187 25.056188 21.901844 C 25.0015 21.878406 24.915563 21.835437 24.868688 21.812 C 24.817906 21.788562 24.743688 21.7495 24.696813 21.726062 C 24.653844 21.702625 24.591344 21.667469 24.552281 21.647937 C 24.513219 21.6245 24.454625 21.589344 24.419469 21.569812 C 24.384313 21.550281 24.333531 21.519031 24.302281 21.503406 C 24.274938 21.483875 24.231969 21.456531 24.204625 21.440906 C 24.181188 21.425281 24.142125 21.397937 24.122594 21.386219 C 24.099156 21.370594 24.067906 21.351062 24.052281 21.339344 C 24.036656 21.323719 24.013219 21.308094 23.997594 21.296375 C 23.985875 21.288562 23.962438 21.272937 23.954625 21.265125 C 23.942906 21.257312 23.935094 21.2495 23.927281 21.241687 C 23.919469 21.237781 23.911656 21.229969 23.90775 21.226062 C 23.903844 21.222156 23.903844 21.222156 23.903844 21.222156 L 23.106969 20.515125 C 22.231969 21.651844 21.653844 22.233875 20.513219 23.104969 L 21.22025 23.901844 C 21.22025 23.901844 21.224156 23.90575 21.224156 23.90575 C 21.228063 23.909656 21.235875 23.917469 21.239781 23.925281 C 21.247594 23.929187 21.255406 23.944812 21.263219 23.952625 C 21.271031 23.964344 21.286656 23.979969 21.294469 23.995594 C 21.306188 24.007312 21.325719 24.034656 21.337438 24.050281 C 21.349156 24.069812 21.372594 24.101062 21.384313 24.120594 C 21.399938 24.144031 21.423375 24.179187 21.439 24.206531 C 21.458531 24.229969 21.485875 24.272937 21.5015 24.304187 C 21.521031 24.331531 21.552281 24.382312 21.571813 24.417469 C 21.591344 24.452625 21.6265 24.511219 21.646031 24.550281 C 21.669469 24.589344 21.704625 24.65575 21.728063 24.698719 C 21.747594 24.741687 21.786656 24.815906 21.810094 24.866687 C 21.837438 24.917469 21.8765 24.9995 21.903844 25.054187 C 21.927281 25.108875 21.97025 25.202625 21.997594 25.261219 C 22.021031 25.323719 22.067906 25.425281 22.091344 25.491687 C 22.118688 25.558094 22.165563 25.671375 22.192906 25.741687 C 22.22025 25.815906 22.267125 25.940906 22.294469 26.022937 C 22.321813 26.101062 22.368688 26.237781 22.396031 26.323719 C 22.427281 26.413562 22.474156 26.558094 22.5015 26.65575 C 22.528844 26.753406 22.575719 26.913562 22.603063 27.019031 C 22.630406 27.120594 22.673375 27.296375 22.700719 27.409656 C 22.728063 27.522937 22.774938 27.714344 22.802281 27.835437 C 22.825719 27.960437 22.868688 28.167469 22.892125 28.300281 C 22.915563 28.433094 22.974156 28.800281 22.974156 28.800281 C 22.591344 29.187 22.34525 29.3745 21.8765 29.647937 C 21.8765 29.647937 21.540563 29.495594 21.415563 29.437 C 21.294469 29.378406 21.103063 29.284656 20.989781 29.226062 C 20.8765 29.171375 20.704625 29.081531 20.603063 29.022937 C 20.5015 28.96825 20.341344 28.878406 20.247594 28.823719 C 20.153844 28.769031 20.013219 28.683094 19.927281 28.632312 C 19.841344 28.581531 19.708531 28.495594 19.634313 28.444812 C 19.556188 28.397937 19.435094 28.315906 19.364781 28.269031 C 19.294469 28.222156 19.189 28.147937 19.1265 28.101062 C 19.060094 28.054187 18.962438 27.979969 18.90775 27.937 C 18.849156 27.894031 18.763219 27.823719 18.708531 27.784656 C 18.65775 27.741687 18.579625 27.679187 18.53275 27.640125 C 18.485875 27.601062 18.415563 27.538562 18.3765 27.503406 C 18.333531 27.46825 18.271031 27.409656 18.235875 27.378406 C 18.200719 27.34325 18.146031 27.292469 18.114781 27.261219 C 18.083531 27.229969 18.03275 27.183094 18.005406 27.15575 C 17.978063 27.128406 17.935094 27.085437 17.911656 27.058094 C 17.888219 27.034656 17.853063 26.995594 17.833531 26.972156 C 17.814 26.952625 17.78275 26.917469 17.767125 26.897937 C 17.7515 26.878406 17.724156 26.851062 17.712438 26.835437 C 17.696813 26.819812 17.681188 26.796375 17.669469 26.78075 C 17.65775 26.769031 17.642125 26.7495 17.634313 26.737781 C 17.6265 26.729969 17.618688 26.71825 17.614781 26.710437 C 17.610875 26.702625 17.603063 26.694812 17.599156 26.690906 C 17.599156 26.687 17.599156 26.683094 17.599156 26.683094 L 17.009313 25.792469 C 15.872594 26.667469 15.161656 27.077625 13.837438 27.628406 L 14.314 28.581531 C 14.314 28.581531 14.314 28.581531 14.317906 28.585437 C 14.317906 28.589344 14.321813 28.597156 14.325719 28.604969 C 14.329625 28.612781 14.337438 28.628406 14.341344 28.640125 C 14.34525 28.651844 14.353063 28.671375 14.360875 28.687 C 14.368688 28.702625 14.380406 28.733875 14.388219 28.753406 C 14.392125 28.772937 14.40775 28.808094 14.415563 28.835437 C 14.423375 28.858875 14.439 28.901844 14.446813 28.929187 C 14.454625 28.956531 14.47025 29.007312 14.481969 29.038562 C 14.489781 29.073719 14.505406 29.128406 14.517125 29.167469 C 14.528844 29.206531 14.544469 29.272937 14.556188 29.315906 C 14.567906 29.358875 14.583531 29.433094 14.59525 29.479969 C 14.606969 29.526844 14.622594 29.608875 14.634313 29.663562 C 14.646031 29.71825 14.661656 29.808094 14.673375 29.870594 C 14.685094 29.929187 14.700719 30.026844 14.708531 30.09325 C 14.72025 30.159656 14.735875 30.269031 14.743688 30.339344 C 14.7515 30.409656 14.767125 30.53075 14.774938 30.608875 C 14.78275 30.687 14.794469 30.819812 14.802281 30.901844 C 14.810094 30.987781 14.817906 31.132312 14.821813 31.222156 C 14.829625 31.315906 14.833531 31.472156 14.837438 31.569812 C 14.841344 31.671375 14.841344 31.839344 14.841344 31.948719 C 14.841344 32.054187 14.841344 32.233875 14.837438 32.351062 C 14.833531 32.46825 14.825719 32.663562 14.821813 32.788562 C 14.814 32.917469 14.802281 33.1245 14.790563 33.261219 C 14.778844 33.397937 14.739781 33.765125 14.739781 33.765125 C 14.271031 34.038562 13.981969 34.15575 13.458531 34.296375 C 13.458531 34.296375 13.169469 34.065906 13.067906 33.976062 C 12.962438 33.890125 12.802281 33.7495 12.708531 33.663562 C 12.614781 33.577625 12.474156 33.448719 12.388219 33.366687 C 12.302281 33.288562 12.173375 33.159656 12.09525 33.085437 C 12.021031 33.007312 11.903844 32.886219 11.837438 32.815906 C 11.767125 32.741687 11.661656 32.628406 11.599156 32.558094 C 11.536656 32.491687 11.442906 32.382312 11.388219 32.319812 C 11.333531 32.253406 11.2515 32.15575 11.200719 32.09325 C 11.149938 32.03075 11.075719 31.937 11.03275 31.878406 C 10.985875 31.823719 10.919469 31.733875 10.880406 31.679187 C 10.841344 31.628406 10.78275 31.546375 10.747594 31.495594 C 10.712438 31.444812 10.661656 31.370594 10.630406 31.323719 C 10.599156 31.276844 10.552281 31.206531 10.528844 31.163562 C 10.5015 31.1245 10.462438 31.062 10.439 31.022937 C 10.415563 30.983875 10.384313 30.925281 10.360875 30.890125 C 10.341344 30.854969 10.314 30.804187 10.298375 30.772937 C 10.278844 30.741687 10.255406 30.698719 10.243688 30.671375 C 10.228063 30.644031 10.208531 30.604969 10.200719 30.581531 C 10.189 30.558094 10.169469 30.522937 10.161656 30.503406 C 10.153844 30.487781 10.142125 30.460437 10.134313 30.444812 C 10.1265 30.429187 10.118688 30.40575 10.114781 30.394031 C 10.110875 30.382312 10.103063 30.366687 10.099156 30.358875 C 10.099156 30.351062 10.09525 30.339344 10.091344 30.335437 C 10.091344 30.331531 10.091344 30.331531 10.091344 30.331531 L 9.755406 29.319812 C 8.431188 29.866687 7.630406 30.081531 6.212438 30.269031 L 6.427281 31.312 C 6.427281 31.312 6.427281 31.315906 6.427281 31.319812 C 6.431188 31.319812 6.431188 31.331531 6.431188 31.339344 C 6.435094 31.347156 6.439 31.366687 6.439 31.378406 C 6.439 31.390125 6.442906 31.409656 6.446813 31.429187 C 6.446813 31.444812 6.450719 31.476062 6.450719 31.4995 C 6.454625 31.519031 6.458531 31.558094 6.458531 31.581531 C 6.462438 31.608875 6.462438 31.651844 6.466344 31.683094 C 6.466344 31.714344 6.47025 31.765125 6.47025 31.800281 C 6.47025 31.831531 6.474156 31.894031 6.474156 31.933094 C 6.474156 31.972156 6.474156 32.042469 6.47025 32.085437 C 6.47025 32.128406 6.47025 32.202625 6.466344 32.253406 C 6.466344 32.304187 6.458531 32.386219 6.458531 32.440906 C 6.454625 32.495594 6.446813 32.589344 6.442906 32.651844 C 6.435094 32.710437 6.427281 32.812 6.419469 32.8745 C 6.411656 32.940906 6.396031 33.050281 6.388219 33.1245 C 6.3765 33.194812 6.360875 33.312 6.349156 33.390125 C 6.333531 33.46825 6.314 33.597156 6.298375 33.683094 C 6.28275 33.769031 6.255406 33.90575 6.235875 33.995594 C 6.216344 34.089344 6.181188 34.237781 6.15775 34.335437 C 6.134313 34.433094 6.09525 34.597156 6.067906 34.698719 C 6.040563 34.804187 5.989781 34.976062 5.958531 35.089344 C 5.923375 35.198719 5.864781 35.386219 5.825719 35.507312 C 5.786656 35.628406 5.72025 35.827625 5.677281 35.956531 C 5.630406 36.081531 5.497594 36.433094 5.497594 36.433094 C 4.97025 36.573719 4.661656 36.612781 4.118688 36.612781 C 4.118688 36.612781 3.903844 36.312 3.825719 36.202625 C 3.747594 36.089344 3.630406 35.913562 3.560094 35.808094 C 3.493688 35.702625 3.388219 35.538562 3.329625 35.437 C 3.267125 35.339344 3.173375 35.179187 3.122594 35.085437 C 3.067906 34.991687 2.985875 34.847156 2.939 34.761219 C 2.888219 34.671375 2.817906 34.534656 2.774938 34.452625 C 2.731969 34.370594 2.669469 34.241687 2.634313 34.163562 C 2.599156 34.089344 2.544469 33.96825 2.513219 33.897937 C 2.478063 33.827625 2.431188 33.714344 2.403844 33.647937 C 2.3765 33.581531 2.333531 33.476062 2.310094 33.417469 C 2.286656 33.354969 2.247594 33.261219 2.228063 33.202625 C 2.208531 33.147937 2.177281 33.058094 2.15775 33.007312 C 2.142125 32.956531 2.114781 32.8745 2.103063 32.827625 C 2.087438 32.78075 2.064 32.710437 2.052281 32.667469 C 2.040563 32.6245 2.024938 32.558094 2.013219 32.519031 C 2.0015 32.479969 1.989781 32.425281 1.981969 32.390125 C 1.97025 32.354969 1.962438 32.304187 1.954625 32.276844 C 1.946813 32.245594 1.939 32.202625 1.935094 32.179187 C 1.931188 32.151844 1.923375 32.116687 1.919469 32.097156 C 1.915563 32.073719 1.911656 32.046375 1.90775 32.03075 C 1.90775 32.011219 1.903844 31.987781 1.899938 31.976062 C 1.899938 31.964344 1.899938 31.948719 1.896031 31.940906 C 1.896031 31.933094 1.896031 31.917469 1.896031 31.913562 C 1.896031 31.909656 1.896031 31.909656 1.896031 31.909656 L 1.833531 30.84325 C 0.415563 31.03075 -0.416469 31.03075 -1.834437 30.84325 L -1.896937 31.909656 C -1.896937 31.909656 -1.896937 31.909656 -1.896937 31.913562 C -1.896937 31.917469 -1.896937 31.929187 -1.896937 31.937 C -1.896937 31.944812 -1.900844 31.964344 -1.900844 31.976062 C -1.90475 31.987781 -1.90475 32.007312 -1.908656 32.026844 C -1.908656 32.042469 -1.916469 32.073719 -1.920375 32.097156 C -1.924281 32.116687 -1.928187 32.151844 -1.936 32.179187 C -1.939906 32.202625 -1.947719 32.245594 -1.955531 32.276844 C -1.959437 32.304187 -1.971156 32.354969 -1.978969 32.390125 C -1.986781 32.425281 -2.002406 32.479969 -2.014125 32.519031 C -2.021937 32.558094 -2.041469 32.6245 -2.053187 32.667469 C -2.064906 32.710437 -2.088344 32.78075 -2.100062 32.827625 C -2.115687 32.8745 -2.143031 32.956531 -2.158656 33.007312 C -2.178187 33.058094 -2.209437 33.147937 -2.228969 33.202625 C -2.2485 33.261219 -2.283656 33.354969 -2.307094 33.417469 C -2.334437 33.476062 -2.3735 33.581531 -2.40475 33.647937 C -2.432094 33.714344 -2.478969 33.823719 -2.510219 33.894031 C -2.541469 33.96825 -2.596156 34.085437 -2.635219 34.163562 C -2.670375 34.241687 -2.732875 34.370594 -2.775844 34.452625 C -2.818812 34.534656 -2.889125 34.671375 -2.936 34.761219 C -2.982875 34.847156 -3.064906 34.991687 -3.119594 35.085437 C -3.174281 35.179187 -3.264125 35.335437 -3.326625 35.433094 C -3.389125 35.534656 -3.490687 35.698719 -3.561 35.808094 C -3.631312 35.913562 -3.744594 36.089344 -3.822719 36.198719 C -3.900844 36.312 -4.119594 36.612781 -4.119594 36.612781 C -4.662562 36.612781 -4.971156 36.573719 -5.494594 36.433094 C -5.494594 36.433094 -5.6235 36.085437 -5.670375 35.960437 C -5.71725 35.831531 -5.783656 35.628406 -5.822719 35.507312 C -5.861781 35.390125 -5.920375 35.202625 -5.951625 35.09325 C -5.986781 34.979969 -6.033656 34.804187 -6.064906 34.702625 C -6.09225 34.597156 -6.131312 34.433094 -6.15475 34.335437 C -6.178187 34.237781 -6.213344 34.089344 -6.232875 33.995594 C -6.252406 33.90575 -6.27975 33.765125 -6.295375 33.683094 C -6.311 33.601062 -6.330531 33.472156 -6.346156 33.394031 C -6.357875 33.315906 -6.3735 33.194812 -6.385219 33.1245 C -6.393031 33.050281 -6.408656 32.940906 -6.416469 32.8745 C -6.424281 32.812 -6.432094 32.710437 -6.439906 32.651844 C -6.443812 32.589344 -6.451625 32.495594 -6.451625 32.440906 C -6.455531 32.386219 -6.463344 32.304187 -6.463344 32.253406 C -6.46725 32.202625 -6.46725 32.132312 -6.46725 32.085437 C -6.471156 32.042469 -6.46725 31.972156 -6.46725 31.933094 C -6.46725 31.894031 -6.46725 31.835437 -6.46725 31.800281 C -6.46725 31.765125 -6.463344 31.714344 -6.463344 31.683094 C -6.459437 31.651844 -6.459437 31.608875 -6.455531 31.581531 C -6.455531 31.558094 -6.451625 31.519031 -6.451625 31.4995 C -6.447719 31.479969 -6.443812 31.448719 -6.443812 31.433094 C -6.439906 31.417469 -6.436 31.390125 -6.436 31.378406 C -6.436 31.366687 -6.432094 31.351062 -6.432094 31.34325 C -6.428187 31.335437 -6.428187 31.323719 -6.424281 31.319812 C -6.424281 31.315906 -6.424281 31.312 -6.424281 31.312 L -6.209437 30.269031 C -7.627406 30.081531 -8.428187 29.866687 -9.752406 29.319812 L -10.088344 30.331531 C -10.088344 30.331531 -10.088344 30.335437 -10.088344 30.335437 C -10.09225 30.339344 -10.09225 30.351062 -10.096156 30.358875 C -10.100062 30.366687 -10.103969 30.382312 -10.111781 30.394031 C -10.115687 30.40575 -10.1235 30.425281 -10.131312 30.440906 C -10.139125 30.456531 -10.150844 30.487781 -10.158656 30.507312 C -10.166469 30.526844 -10.186 30.558094 -10.193812 30.581531 C -10.205531 30.604969 -10.225062 30.644031 -10.240687 30.671375 C -10.252406 30.698719 -10.27975 30.745594 -10.295375 30.772937 C -10.311 30.804187 -10.338344 30.854969 -10.357875 30.890125 C -10.377406 30.925281 -10.412562 30.983875 -10.436 31.022937 C -10.459437 31.062 -10.4985 31.1245 -10.525844 31.167469 C -10.549281 31.206531 -10.596156 31.276844 -10.627406 31.323719 C -10.658656 31.370594 -10.709437 31.448719 -10.744594 31.495594 C -10.77975 31.546375 -10.838344 31.628406 -10.877406 31.683094 C -10.916469 31.733875 -10.982875 31.823719 -11.025844 31.878406 C -11.072719 31.937 -11.146937 32.03075 -11.197719 32.089344 C -11.244594 32.151844 -11.330531 32.253406 -11.385219 32.319812 C -11.439906 32.386219 -11.533656 32.491687 -11.596156 32.562 C -11.658656 32.628406 -11.764125 32.741687 -11.830531 32.815906 C -11.900844 32.890125 -12.018031 33.007312 -12.09225 33.085437 C -12.170375 33.163562 -12.299281 33.284656 -12.381312 33.366687 C -12.46725 33.448719 -12.611781 33.581531 -12.705531 33.663562 C -12.799281 33.7495 -12.955531 33.890125 -13.061 33.976062 C -13.162562 34.065906 -13.451625 34.300281 -13.451625 34.300281 C -13.978969 34.159656 -14.268031 34.038562 -14.736781 33.769031 C -14.736781 33.769031 -14.775844 33.401844 -14.783656 33.265125 C -14.795375 33.128406 -14.811 32.917469 -14.818812 32.792469 C -14.822719 32.663562 -14.830531 32.472156 -14.834437 32.354969 C -14.838344 32.237781 -14.838344 32.058094 -14.838344 31.948719 C -14.838344 31.839344 -14.838344 31.671375 -14.834437 31.573719 C -14.830531 31.472156 -14.826625 31.319812 -14.818812 31.226062 C -14.814906 31.132312 -14.807094 30.991687 -14.799281 30.90575 C -14.791469 30.819812 -14.77975 30.690906 -14.771937 30.612781 C -14.764125 30.534656 -14.752406 30.413562 -14.740687 30.34325 C -14.732875 30.269031 -14.71725 30.159656 -14.705531 30.09325 C -14.697719 30.03075 -14.682094 29.929187 -14.670375 29.870594 C -14.658656 29.812 -14.643031 29.71825 -14.631312 29.663562 C -14.619594 29.612781 -14.603969 29.526844 -14.59225 29.479969 C -14.580531 29.433094 -14.564906 29.358875 -14.553187 29.315906 C -14.541469 29.272937 -14.525844 29.206531 -14.514125 29.171375 C -14.502406 29.132312 -14.486781 29.073719 -14.478969 29.042469 C -14.46725 29.007312 -14.451625 28.956531 -14.443812 28.929187 C -14.436 28.901844 -14.420375 28.858875 -14.412562 28.835437 C -14.40475 28.812 -14.389125 28.776844 -14.385219 28.757312 C -14.377406 28.737781 -14.365687 28.710437 -14.357875 28.694812 C -14.353969 28.679187 -14.34225 28.651844 -14.338344 28.644031 C -14.334437 28.632312 -14.326625 28.616687 -14.326625 28.608875 C -14.322719 28.601062 -14.314906 28.589344 -14.314906 28.585437 C -14.311 28.581531 -14.311 28.581531 -14.311 28.581531 L -13.834437 27.628406 C -15.158656 27.081531 -15.869594 26.667469 -17.006312 25.796375 L -17.596156 26.687 C -17.596156 26.687 -17.596156 26.687 -17.600062 26.690906 C -17.600062 26.694812 -17.603969 26.702625 -17.611781 26.710437 C -17.615687 26.714344 -17.627406 26.729969 -17.635219 26.741687 C -17.643031 26.7495 -17.65475 26.769031 -17.666469 26.78075 C -17.674281 26.792469 -17.693812 26.819812 -17.709437 26.835437 C -17.725062 26.851062 -17.7485 26.882312 -17.764125 26.901844 C -17.77975 26.917469 -17.811 26.952625 -17.830531 26.976062 C -17.850062 26.995594 -17.885219 27.034656 -17.908656 27.062 C -17.932094 27.085437 -17.975062 27.128406 -18.002406 27.15575 C -18.02975 27.183094 -18.080531 27.233875 -18.111781 27.265125 C -18.143031 27.296375 -18.197719 27.347156 -18.232875 27.378406 C -18.268031 27.413562 -18.330531 27.46825 -18.3735 27.507312 C -18.412562 27.542469 -18.482875 27.604969 -18.52975 27.644031 C -18.576625 27.679187 -18.65475 27.745594 -18.705531 27.784656 C -18.760219 27.827625 -18.846156 27.894031 -18.90475 27.937 C -18.963344 27.983875 -19.057094 28.054187 -19.119594 28.101062 C -19.186 28.144031 -19.291469 28.222156 -19.361781 28.269031 C -19.432094 28.319812 -19.553187 28.397937 -19.631312 28.448719 C -19.709437 28.4995 -19.838344 28.581531 -19.924281 28.636219 C -20.010219 28.687 -20.150844 28.772937 -20.244594 28.827625 C -20.338344 28.882312 -20.494594 28.96825 -20.596156 29.022937 C -20.701625 29.077625 -20.8735 29.171375 -20.986781 29.229969 C -21.100062 29.288562 -21.287562 29.378406 -21.408656 29.437 C -21.533656 29.495594 -21.8735 29.647937 -21.8735 29.647937 C -22.346156 29.378406 -22.59225 29.187 -22.975062 28.804187 C -22.975062 28.804187 -22.916469 28.437 -22.893031 28.304187 C -22.869594 28.171375 -22.826625 27.960437 -22.799281 27.835437 C -22.775844 27.714344 -22.732875 27.526844 -22.705531 27.413562 C -22.678187 27.300281 -22.631312 27.120594 -22.603969 27.019031 C -22.576625 26.913562 -22.52975 26.753406 -22.502406 26.65575 C -22.471156 26.562 -22.428187 26.413562 -22.396937 26.323719 C -22.369594 26.237781 -22.322719 26.101062 -22.295375 26.022937 C -22.264125 25.940906 -22.221156 25.819812 -22.193812 25.745594 C -22.166469 25.671375 -22.119594 25.558094 -22.09225 25.491687 C -22.064906 25.425281 -22.021937 25.323719 -21.994594 25.261219 C -21.971156 25.202625 -21.928187 25.108875 -21.90475 25.054187 C -21.877406 24.9995 -21.834437 24.917469 -21.811 24.866687 C -21.787562 24.815906 -21.7485 24.741687 -21.725062 24.698719 C -21.701625 24.65575 -21.666469 24.589344 -21.646937 24.550281 C -21.6235 24.511219 -21.59225 24.452625 -21.568812 24.417469 C -21.549281 24.382312 -21.521937 24.335437 -21.502406 24.304187 C -21.482875 24.272937 -21.455531 24.229969 -21.439906 24.206531 C -21.424281 24.179187 -21.400844 24.144031 -21.385219 24.120594 C -21.369594 24.101062 -21.350062 24.069812 -21.338344 24.050281 C -21.326625 24.034656 -21.307094 24.011219 -21.295375 23.9995 C -21.287562 23.983875 -21.271937 23.964344 -21.264125 23.952625 C -21.256312 23.944812 -21.2485 23.933094 -21.244594 23.925281 C -21.236781 23.921375 -21.228969 23.909656 -21.225062 23.90575 C -21.221156 23.90575 -21.221156 23.901844 -21.221156 23.901844 L -20.514125 23.104969 C -21.650844 22.233875 -22.232875 21.651844 -23.107875 20.515125 L -23.90475 21.222156 C -23.90475 21.222156 -23.90475 21.222156 -23.908656 21.226062 C -23.908656 21.229969 -23.916469 21.233875 -23.924281 21.241687 C -23.932094 21.245594 -23.943812 21.257312 -23.955531 21.265125 C -23.963344 21.272937 -23.982875 21.284656 -23.994594 21.296375 C -24.010219 21.304187 -24.033656 21.323719 -24.053187 21.339344 C -24.068812 21.351062 -24.100062 21.370594 -24.119594 21.386219 C -24.143031 21.397937 -24.178187 21.425281 -24.205531 21.440906 C -24.228969 21.456531 -24.275844 21.483875 -24.303187 21.503406 C -24.334437 21.519031 -24.385219 21.550281 -24.416469 21.569812 C -24.451625 21.589344 -24.514125 21.6245 -24.553187 21.647937 C -24.588344 21.667469 -24.65475 21.702625 -24.697719 21.726062 C -24.740687 21.7495 -24.818812 21.788562 -24.865687 21.812 C -24.916469 21.835437 -24.9985 21.878406 -25.057094 21.901844 C -25.111781 21.929187 -25.201625 21.96825 -25.264125 21.995594 C -25.322719 22.022937 -25.424281 22.065906 -25.490687 22.09325 C -25.557094 22.120594 -25.670375 22.163562 -25.744594 22.190906 C -25.814906 22.21825 -25.939906 22.265125 -26.021937 22.292469 C -26.100062 22.323719 -26.236781 22.370594 -26.326625 22.397937 C -26.412562 22.425281 -26.561 22.472156 -26.65475 22.503406 C -26.752406 22.53075 -26.912562 22.573719 -27.018031 22.604969 C -27.1235 22.632312 -27.295375 22.675281 -27.408656 22.702625 C -27.521937 22.729969 -27.713344 22.772937 -27.838344 22.800281 C -27.959437 22.827625 -28.166469 22.866687 -28.299281 22.890125 C -28.436 22.917469 -28.803187 22.976062 -28.803187 22.976062 C -29.186 22.59325 -29.3735 22.347156 -29.646937 21.878406 C -29.646937 21.878406 -29.494594 21.538562 -29.436 21.417469 C -29.377406 21.292469 -29.283656 21.101062 -29.225062 20.987781 C -29.170375 20.878406 -29.080531 20.706531 -29.025844 20.604969 C -28.96725 20.4995 -28.877406 20.34325 -28.826625 20.2495 C -28.771937 20.15575 -28.686 20.011219 -28.631312 19.925281 C -28.580531 19.84325 -28.4985 19.710437 -28.447719 19.632312 C -28.396937 19.554187 -28.318812 19.437 -28.268031 19.366687 C -28.221156 19.296375 -28.146937 19.190906 -28.100062 19.1245 C -28.053187 19.062 -27.978969 18.964344 -27.936 18.90575 C -27.893031 18.847156 -27.822719 18.761219 -27.783656 18.710437 C -27.740687 18.659656 -27.678187 18.581531 -27.639125 18.534656 C -27.600062 18.487781 -27.541469 18.417469 -27.502406 18.3745 C -27.46725 18.335437 -27.412562 18.272937 -27.377406 18.233875 C -27.34225 18.198719 -27.291469 18.144031 -27.264125 18.112781 C -27.232875 18.081531 -27.182094 18.034656 -27.15475 18.003406 C -27.127406 17.976062 -27.084437 17.937 -27.061 17.913562 C -27.033656 17.890125 -26.994594 17.851062 -26.971156 17.831531 C -26.951625 17.812 -26.916469 17.784656 -26.896937 17.765125 C -26.877406 17.7495 -26.850062 17.726062 -26.834437 17.710437 C -26.818812 17.698719 -26.795375 17.679187 -26.77975 17.671375 C -26.768031 17.659656 -26.7485 17.644031 -26.736781 17.636219 C -26.728969 17.628406 -26.71725 17.620594 -26.709437 17.616687 C -26.705531 17.608875 -26.693812 17.604969 -26.689906 17.601062 C -26.686 17.597156 -26.686 17.597156 -26.686 17.597156 L -25.795375 17.011219 C -26.666469 15.8745 -27.076625 15.159656 -27.627406 13.835437 L -28.580531 14.312 C -28.580531 14.312 -28.584437 14.315906 -28.584437 14.315906 C -28.588344 14.319812 -28.596156 14.323719 -28.603969 14.327625 C -28.611781 14.327625 -28.631312 14.335437 -28.639125 14.34325 C -28.650844 14.347156 -28.674281 14.354969 -28.689906 14.362781 C -28.705531 14.366687 -28.732875 14.378406 -28.756312 14.386219 C -28.775844 14.394031 -28.811 14.40575 -28.834437 14.413562 C -28.857875 14.421375 -28.900844 14.437 -28.928187 14.444812 C -28.955531 14.456531 -29.006312 14.472156 -29.041469 14.479969 C -29.072719 14.491687 -29.131312 14.507312 -29.166469 14.519031 C -29.205531 14.526844 -29.271937 14.546375 -29.314906 14.558094 C -29.357875 14.565906 -29.432094 14.585437 -29.478969 14.59325 C -29.525844 14.604969 -29.607875 14.6245 -29.662562 14.632312 C -29.71725 14.644031 -29.811 14.663562 -29.869594 14.675281 C -29.928187 14.683094 -30.02975 14.698719 -30.09225 14.710437 C -30.158656 14.71825 -30.268031 14.733875 -30.338344 14.741687 C -30.412562 14.753406 -30.52975 14.765125 -30.607875 14.772937 C -30.686 14.78075 -30.818812 14.796375 -30.90475 14.800281 C -30.990687 14.808094 -31.131312 14.819812 -31.225062 14.823719 C -31.314906 14.827625 -31.471156 14.835437 -31.572719 14.835437 C -31.670375 14.839344 -31.838344 14.84325 -31.947719 14.84325 C -32.053187 14.84325 -32.232875 14.839344 -32.350062 14.835437 C -32.46725 14.835437 -32.662562 14.827625 -32.787562 14.819812 C -32.916469 14.812 -33.1235 14.800281 -33.260219 14.788562 C -33.396937 14.776844 -33.764125 14.741687 -33.764125 14.741687 C -34.037562 14.269031 -34.158656 13.979969 -34.299281 13.456531 C -34.299281 13.456531 -34.064906 13.171375 -33.978969 13.065906 C -33.889125 12.964344 -33.7485 12.804187 -33.662562 12.706531 C -33.580531 12.612781 -33.447719 12.472156 -33.369594 12.390125 C -33.287562 12.304187 -33.158656 12.175281 -33.084437 12.097156 C -33.006312 12.019031 -32.889125 11.90575 -32.814906 11.835437 C -32.740687 11.765125 -32.627406 11.663562 -32.561 11.601062 C -32.490687 11.538562 -32.381312 11.444812 -32.318812 11.390125 C -32.252406 11.331531 -32.15475 11.2495 -32.09225 11.198719 C -32.033656 11.151844 -31.936 11.073719 -31.877406 11.03075 C -31.822719 10.987781 -31.732875 10.921375 -31.682094 10.882312 C -31.627406 10.84325 -31.545375 10.78075 -31.494594 10.7495 C -31.447719 10.714344 -31.369594 10.659656 -31.322719 10.632312 C -31.275844 10.601062 -31.205531 10.554187 -31.166469 10.526844 C -31.1235 10.4995 -31.061 10.460437 -31.021937 10.440906 C -30.982875 10.417469 -30.924281 10.382312 -30.889125 10.362781 C -30.853969 10.34325 -30.803187 10.312 -30.771937 10.296375 C -30.744594 10.28075 -30.697719 10.257312 -30.670375 10.241687 C -30.643031 10.229969 -30.603969 10.210437 -30.580531 10.198719 C -30.557094 10.187 -30.525844 10.171375 -30.506312 10.163562 C -30.486781 10.151844 -30.459437 10.140125 -30.443812 10.136219 C -30.428187 10.128406 -30.40475 10.120594 -30.393031 10.112781 C -30.381312 10.108875 -30.369594 10.104969 -30.361781 10.101062 C -30.353969 10.097156 -30.338344 10.09325 -30.334437 10.09325 C -30.330531 10.09325 -30.330531 10.089344 -30.330531 10.089344 L -29.318812 9.753406 C -29.865687 8.433094 -30.080531 7.632312 -30.268031 6.214344 L -31.311 6.425281 C -31.311 6.425281 -31.314906 6.429187 -31.318812 6.429187 C -31.322719 6.429187 -31.330531 6.433094 -31.338344 6.433094 C -31.346156 6.433094 -31.365687 6.437 -31.377406 6.440906 C -31.389125 6.440906 -31.412562 6.444812 -31.428187 6.444812 C -31.443812 6.448719 -31.478969 6.448719 -31.4985 6.452625 C -31.521937 6.452625 -31.557094 6.456531 -31.584437 6.460437 C -31.607875 6.460437 -31.650844 6.464344 -31.682094 6.464344 C -31.713344 6.46825 -31.764125 6.46825 -31.799281 6.46825 C -31.834437 6.472156 -31.893031 6.472156 -31.932094 6.472156 C -31.971156 6.472156 -32.041469 6.472156 -32.084437 6.472156 C -32.131312 6.472156 -32.205531 6.46825 -32.252406 6.46825 C -32.303187 6.464344 -32.385219 6.460437 -32.439906 6.456531 C -32.494594 6.452625 -32.588344 6.444812 -32.650844 6.440906 C -32.709437 6.437 -32.811 6.425281 -32.877406 6.417469 C -32.939906 6.409656 -33.053187 6.397937 -33.1235 6.386219 C -33.193812 6.378406 -33.311 6.358875 -33.389125 6.347156 C -33.46725 6.335437 -33.600062 6.312 -33.682094 6.296375 C -33.768031 6.28075 -33.90475 6.253406 -33.9985 6.233875 C -34.088344 6.214344 -34.236781 6.183094 -34.334437 6.159656 C -34.432094 6.136219 -34.596156 6.09325 -34.701625 6.065906 C -34.803187 6.038562 -34.975062 5.991687 -35.088344 5.956531 C -35.201625 5.925281 -35.389125 5.866687 -35.506312 5.827625 C -35.627406 5.788562 -35.826625 5.722156 -35.955531 5.675281 C -36.084437 5.628406 -36.432094 5.495594 -36.432094 5.495594 C -36.572719 4.972156 -36.611781 4.663562 -36.611781 4.120594 C -36.611781 4.120594 -36.314906 3.901844 -36.201625 3.823719 C -36.088344 3.7495 -35.912562 3.628406 -35.807094 3.562 C -35.701625 3.491687 -35.537562 3.390125 -35.436 3.327625 C -35.338344 3.269031 -35.182094 3.175281 -35.088344 3.120594 C -34.994594 3.065906 -34.846156 2.983875 -34.760219 2.937 C -34.670375 2.890125 -34.533656 2.815906 -34.451625 2.776844 C -34.369594 2.733875 -34.240687 2.671375 -34.162562 2.636219 C -34.088344 2.597156 -33.971156 2.542469 -33.896937 2.511219 C -33.826625 2.479969 -33.713344 2.429187 -33.646937 2.401844 C -33.580531 2.3745 -33.478969 2.335437 -33.416469 2.308094 C -33.353969 2.284656 -33.260219 2.2495 -33.205531 2.229969 C -33.146937 2.206531 -33.061 2.175281 -33.006312 2.159656 C -32.955531 2.140125 -32.8735 2.116687 -32.826625 2.101062 C -32.77975 2.085437 -32.709437 2.065906 -32.666469 2.054187 C -32.6235 2.042469 -32.557094 2.022937 -32.518031 2.015125 C -32.478969 2.003406 -32.424281 1.987781 -32.389125 1.979969 C -32.357875 1.972156 -32.307094 1.960437 -32.275844 1.952625 C -32.2485 1.948719 -32.201625 1.940906 -32.178187 1.933094 C -32.15475 1.929187 -32.115687 1.921375 -32.096156 1.917469 C -32.076625 1.917469 -32.045375 1.909656 -32.02975 1.909656 C -32.014125 1.90575 -31.986781 1.901844 -31.975062 1.901844 C -31.963344 1.901844 -31.947719 1.897937 -31.939906 1.897937 C -31.932094 1.897937 -31.920375 1.897937 -31.912562 1.894031 C -31.908656 1.894031 -31.908656 1.894031 -31.908656 1.894031 L -30.84225 1.831531 C -31.02975 0.417469 -31.02975 -0.414563 -30.84225 -1.832531 L -31.908656 -1.895031 C -31.908656 -1.895031 -31.908656 -1.895031 -31.912562 -1.895031 C -31.916469 -1.895031 -31.928187 -1.895031 -31.936 -1.898938 C -31.943812 -1.898938 -31.963344 -1.898938 -31.975062 -1.902844 C -31.986781 -1.902844 -32.010219 -1.90675 -32.025844 -1.90675 C -32.041469 -1.910656 -32.072719 -1.914563 -32.096156 -1.918469 C -32.115687 -1.922375 -32.15475 -1.930188 -32.178187 -1.934094 C -32.201625 -1.938 -32.2485 -1.949719 -32.275844 -1.953625 C -32.307094 -1.961438 -32.357875 -1.973156 -32.389125 -1.980969 C -32.424281 -1.988781 -32.478969 -2.004406 -32.518031 -2.012219 C -32.557094 -2.023938 -32.6235 -2.039563 -32.666469 -2.055188 C -32.709437 -2.066906 -32.77975 -2.086438 -32.826625 -2.102063 C -32.8735 -2.117688 -32.955531 -2.141125 -33.006312 -2.160656 C -33.061 -2.176281 -33.146937 -2.207531 -33.205531 -2.227063 C -33.260219 -2.2505 -33.353969 -2.285656 -33.416469 -2.309094 C -33.478969 -2.332531 -33.580531 -2.3755 -33.646937 -2.402844 C -33.713344 -2.430188 -33.822719 -2.477063 -33.893031 -2.512219 C -33.96725 -2.543469 -34.088344 -2.598156 -34.162562 -2.633313 C -34.240687 -2.672375 -34.369594 -2.734875 -34.451625 -2.777844 C -34.533656 -2.816906 -34.670375 -2.887219 -34.760219 -2.938 C -34.846156 -2.984875 -34.994594 -3.066906 -35.088344 -3.121594 C -35.182094 -3.176281 -35.334437 -3.266125 -35.436 -3.324719 C -35.533656 -3.387219 -35.701625 -3.492688 -35.807094 -3.563 C -35.912562 -3.629406 -36.088344 -3.746594 -36.197719 -3.824719 C -36.311 -3.902844 -36.611781 -4.117688 -36.611781 -4.117688 C -36.611781 -4.660656 -36.572719 -4.96925 -36.432094 -5.492688 C -36.432094 -5.492688 -36.088344 -5.6255 -35.959437 -5.672375 C -35.830531 -5.715344 -35.631312 -5.785656 -35.510219 -5.824719 C -35.389125 -5.863781 -35.205531 -5.918469 -35.09225 -5.953625 C -34.978969 -5.984875 -34.807094 -6.035656 -34.701625 -6.063 C -34.596156 -6.090344 -34.436 -6.133313 -34.338344 -6.15675 C -34.240687 -6.180188 -34.088344 -6.211438 -33.9985 -6.230969 C -33.90475 -6.2505 -33.768031 -6.277844 -33.682094 -6.293469 C -33.600062 -6.309094 -33.471156 -6.332531 -33.393031 -6.34425 C -33.314906 -6.355969 -33.193812 -6.3755 -33.1235 -6.383313 C -33.053187 -6.395031 -32.943812 -6.40675 -32.877406 -6.414563 C -32.811 -6.422375 -32.709437 -6.434094 -32.650844 -6.438 C -32.59225 -6.441906 -32.4985 -6.449719 -32.443812 -6.453625 C -32.385219 -6.457531 -32.303187 -6.461438 -32.252406 -6.465344 C -32.205531 -6.465344 -32.131312 -6.46925 -32.088344 -6.46925 C -32.041469 -6.46925 -31.971156 -6.46925 -31.932094 -6.46925 C -31.893031 -6.46925 -31.834437 -6.46925 -31.799281 -6.46925 C -31.764125 -6.465344 -31.713344 -6.465344 -31.682094 -6.461438 C -31.65475 -6.461438 -31.607875 -6.457531 -31.584437 -6.457531 C -31.557094 -6.453625 -31.521937 -6.453625 -31.4985 -6.449719 C -31.478969 -6.449719 -31.447719 -6.445813 -31.432094 -6.441906 C -31.416469 -6.441906 -31.389125 -6.438 -31.377406 -6.438 C -31.365687 -6.434094 -31.350062 -6.434094 -31.34225 -6.430188 C -31.334437 -6.430188 -31.322719 -6.426281 -31.318812 -6.426281 C -31.314906 -6.426281 -31.311 -6.426281 -31.311 -6.426281 L -30.268031 -6.211438 C -30.080531 -7.629406 -29.865687 -8.430188 -29.318812 -9.7505 L -30.330531 -10.086438 C -30.330531 -10.086438 -30.334437 -10.086438 -30.338344 -10.090344 C -30.34225 -10.090344 -30.350062 -10.09425 -30.357875 -10.098156 C -30.365687 -10.098156 -30.381312 -10.105969 -30.393031 -10.109875 C -30.40475 -10.113781 -30.424281 -10.1255 -30.439906 -10.129406 C -30.455531 -10.137219 -30.486781 -10.148938 -30.506312 -10.160656 C -30.525844 -10.168469 -30.557094 -10.184094 -30.580531 -10.195813 C -30.603969 -10.207531 -30.643031 -10.227063 -30.670375 -10.238781 C -30.697719 -10.254406 -30.744594 -10.277844 -30.775844 -10.293469 C -30.807094 -10.313 -30.857875 -10.340344 -30.893031 -10.359875 C -30.924281 -10.379406 -30.986781 -10.414563 -31.021937 -10.438 C -31.061 -10.461438 -31.1235 -10.496594 -31.166469 -10.523938 C -31.209437 -10.551281 -31.27975 -10.598156 -31.322719 -10.6255 C -31.369594 -10.65675 -31.447719 -10.711438 -31.4985 -10.746594 C -31.545375 -10.777844 -31.627406 -10.836438 -31.682094 -10.8755 C -31.732875 -10.914563 -31.822719 -10.984875 -31.881312 -11.027844 C -31.936 -11.070813 -32.02975 -11.145031 -32.09225 -11.195813 C -32.150844 -11.246594 -32.256312 -11.328625 -32.318812 -11.387219 C -32.385219 -11.441906 -32.490687 -11.535656 -32.561 -11.598156 C -32.627406 -11.65675 -32.744594 -11.762219 -32.814906 -11.832531 C -32.889125 -11.902844 -33.010219 -12.016125 -33.084437 -12.09425 C -33.162562 -12.168469 -33.287562 -12.297375 -33.365687 -12.383313 C -33.447719 -12.46925 -33.580531 -12.609875 -33.666469 -12.703625 C -33.7485 -12.801281 -33.889125 -12.957531 -33.975062 -13.059094 C -34.064906 -13.164563 -34.299281 -13.453625 -34.299281 -13.453625 C -34.158656 -13.977063 -34.037562 -14.266125 -33.768031 -14.734875 C -33.768031 -14.734875 -33.400844 -14.773938 -33.264125 -14.785656 C -33.127406 -14.797375 -32.916469 -14.809094 -32.791469 -14.816906 C -32.666469 -14.824719 -32.471156 -14.832531 -32.353969 -14.832531 C -32.236781 -14.836438 -32.057094 -14.840344 -31.947719 -14.840344 C -31.838344 -14.840344 -31.674281 -14.836438 -31.572719 -14.832531 C -31.471156 -14.832531 -31.318812 -14.824719 -31.225062 -14.820813 C -31.131312 -14.816906 -30.990687 -14.805188 -30.90475 -14.797375 C -30.822719 -14.793469 -30.689906 -14.78175 -30.611781 -14.773938 C -30.533656 -14.766125 -30.412562 -14.7505 -30.34225 -14.742688 C -30.271937 -14.730969 -30.158656 -14.715344 -30.096156 -14.707531 C -30.02975 -14.695813 -29.932094 -14.680188 -29.869594 -14.672375 C -29.811 -14.660656 -29.721156 -14.641125 -29.666469 -14.633313 C -29.611781 -14.621594 -29.52975 -14.602063 -29.478969 -14.59425 C -29.432094 -14.582531 -29.361781 -14.563 -29.318812 -14.555188 C -29.275844 -14.543469 -29.209437 -14.523938 -29.170375 -14.516125 C -29.131312 -14.504406 -29.076625 -14.488781 -29.041469 -14.477063 C -29.006312 -14.46925 -28.959437 -14.453625 -28.928187 -14.441906 C -28.900844 -14.434094 -28.857875 -14.418469 -28.834437 -14.410656 C -28.811 -14.402844 -28.775844 -14.391125 -28.756312 -14.383313 C -28.736781 -14.3755 -28.709437 -14.363781 -28.693812 -14.359875 C -28.678187 -14.352063 -28.65475 -14.34425 -28.643031 -14.340344 C -28.631312 -14.332531 -28.619594 -14.328625 -28.611781 -14.324719 C -28.603969 -14.320813 -28.59225 -14.316906 -28.588344 -14.313 C -28.584437 -14.313 -28.580531 -14.309094 -28.580531 -14.309094 L -27.627406 -13.832531 C -27.080531 -15.15675 -26.666469 -15.871594 -25.795375 -17.008313 L -26.686 -17.59425 C -26.686 -17.59425 -26.689906 -17.59425 -26.689906 -17.598156 C -26.693812 -17.602063 -26.701625 -17.605969 -26.709437 -17.609875 C -26.71725 -17.613781 -26.728969 -17.6255 -26.740687 -17.633313 C -26.7485 -17.641125 -26.768031 -17.652844 -26.77975 -17.664563 C -26.795375 -17.676281 -26.818812 -17.695813 -26.834437 -17.707531 C -26.850062 -17.723156 -26.881312 -17.746594 -26.900844 -17.762219 C -26.920375 -17.78175 -26.951625 -17.809094 -26.975062 -17.828625 C -26.9985 -17.852063 -27.037562 -17.887219 -27.061 -17.910656 C -27.084437 -17.934094 -27.127406 -17.973156 -27.15475 -18.0005 C -27.186 -18.03175 -27.232875 -18.078625 -27.264125 -18.109875 C -27.295375 -18.145031 -27.346156 -18.195813 -27.377406 -18.230969 C -27.412562 -18.270031 -27.46725 -18.332531 -27.506312 -18.371594 C -27.541469 -18.414563 -27.603969 -18.484875 -27.643031 -18.53175 C -27.682094 -18.578625 -27.744594 -18.65675 -27.787562 -18.707531 C -27.826625 -18.758313 -27.896937 -18.848156 -27.939906 -18.902844 C -27.982875 -18.961438 -28.053187 -19.059094 -28.100062 -19.121594 C -28.146937 -19.184094 -28.221156 -19.293469 -28.271937 -19.363781 C -28.318812 -19.434094 -28.396937 -19.551281 -28.447719 -19.629406 C -28.4985 -19.707531 -28.580531 -19.836438 -28.635219 -19.922375 C -28.686 -20.008313 -28.771937 -20.152844 -28.826625 -20.246594 C -28.881312 -20.340344 -28.96725 -20.496594 -29.021937 -20.598156 C -29.080531 -20.699719 -29.170375 -20.8755 -29.228969 -20.988781 C -29.287562 -21.098156 -29.381312 -21.285656 -29.439906 -21.410656 C -29.494594 -21.53175 -29.646937 -21.871594 -29.646937 -21.871594 C -29.377406 -22.34425 -29.186 -22.590344 -28.803187 -22.977063 C -28.803187 -22.977063 -28.436 -22.918469 -28.303187 -22.891125 C -28.170375 -22.867688 -27.959437 -22.824719 -27.838344 -22.801281 C -27.713344 -22.773938 -27.525844 -22.730969 -27.412562 -22.703625 C -27.299281 -22.676281 -27.1235 -22.633313 -27.018031 -22.602063 C -26.912562 -22.574719 -26.752406 -22.527844 -26.65475 -22.5005 C -26.561 -22.473156 -26.412562 -22.426281 -26.326625 -22.398938 C -26.236781 -22.367688 -26.100062 -22.320813 -26.021937 -22.293469 C -25.939906 -22.266125 -25.818812 -22.223156 -25.744594 -22.191906 C -25.670375 -22.164563 -25.557094 -22.121594 -25.490687 -22.09425 C -25.424281 -22.066906 -25.322719 -22.023938 -25.264125 -21.996594 C -25.201625 -21.96925 -25.111781 -21.930188 -25.057094 -21.902844 C -24.9985 -21.879406 -24.916469 -21.836438 -24.865687 -21.813 C -24.818812 -21.785656 -24.740687 -21.7505 -24.697719 -21.727063 C -24.65475 -21.703625 -24.588344 -21.668469 -24.553187 -21.645031 C -24.514125 -21.6255 -24.451625 -21.590344 -24.420375 -21.570813 C -24.385219 -21.551281 -24.334437 -21.520031 -24.303187 -21.5005 C -24.275844 -21.484875 -24.228969 -21.457531 -24.205531 -21.441906 C -24.178187 -21.422375 -24.143031 -21.398938 -24.119594 -21.383313 C -24.100062 -21.371594 -24.068812 -21.348156 -24.053187 -21.336438 C -24.033656 -21.324719 -24.010219 -21.309094 -23.9985 -21.297375 C -23.982875 -21.285656 -23.963344 -21.270031 -23.955531 -21.266125 C -23.943812 -21.258313 -23.932094 -21.246594 -23.928187 -21.242688 C -23.920375 -21.238781 -23.912562 -21.227063 -23.908656 -21.227063 C -23.90475 -21.223156 -23.90475 -21.223156 -23.90475 -21.223156 L -23.107875 -20.512219 C -22.232875 -21.652844 -21.650844 -22.230969 -20.514125 -23.105969 L -21.221156 -23.902844 C -21.221156 -23.902844 -21.225062 -23.902844 -21.225062 -23.90675 C -21.228969 -23.910656 -21.236781 -23.918469 -21.240687 -23.926281 C -21.244594 -23.930188 -21.256312 -23.945813 -21.264125 -23.953625 C -21.271937 -23.965344 -21.283656 -23.980969 -21.295375 -23.996594 C -21.307094 -24.008313 -21.326625 -24.035656 -21.338344 -24.051281 C -21.350062 -24.070813 -21.369594 -24.102063 -21.385219 -24.121594 C -21.400844 -24.141125 -21.424281 -24.180188 -21.439906 -24.203625 C -21.455531 -24.230969 -21.482875 -24.273938 -21.502406 -24.305188 C -21.521937 -24.332531 -21.549281 -24.383313 -21.572719 -24.418469 C -21.59225 -24.453625 -21.6235 -24.512219 -21.646937 -24.551281 C -21.666469 -24.590344 -21.701625 -24.65675 -21.725062 -24.699719 C -21.7485 -24.742688 -21.787562 -24.816906 -21.811 -24.867688 C -21.834437 -24.914563 -21.877406 -25.0005 -21.90475 -25.055188 C -21.928187 -25.109875 -21.971156 -25.203625 -21.994594 -25.262219 C -22.021937 -25.324719 -22.064906 -25.426281 -22.09225 -25.492688 C -22.119594 -25.559094 -22.162562 -25.668469 -22.193812 -25.742688 C -22.221156 -25.816906 -22.264125 -25.941906 -22.295375 -26.020031 C -22.322719 -26.102063 -22.369594 -26.238781 -22.396937 -26.324719 C -22.428187 -26.414563 -22.471156 -26.559094 -22.502406 -26.65675 C -22.52975 -26.7505 -22.576625 -26.914563 -22.603969 -27.016125 C -22.631312 -27.121594 -22.674281 -27.293469 -22.701625 -27.40675 C -22.728969 -27.523938 -22.775844 -27.715344 -22.799281 -27.836438 C -22.826625 -27.961438 -22.865687 -28.168469 -22.893031 -28.301281 C -22.916469 -28.434094 -22.975062 -28.801281 -22.975062 -28.801281 C -22.59225 -29.184094 -22.346156 -29.3755 -21.877406 -29.645031 C -21.877406 -29.645031 -21.537562 -29.492688 -21.416469 -29.438 C -21.291469 -29.379406 -21.103969 -29.285656 -20.990687 -29.227063 C -20.877406 -29.168469 -20.705531 -29.078625 -20.603969 -29.023938 C -20.502406 -28.96925 -20.34225 -28.879406 -20.2485 -28.824719 C -20.15475 -28.770031 -20.014125 -28.684094 -19.928187 -28.633313 C -19.84225 -28.578625 -19.709437 -28.496594 -19.631312 -28.445813 C -19.553187 -28.395031 -19.436 -28.316906 -19.365687 -28.270031 C -19.295375 -28.21925 -19.189906 -28.145031 -19.127406 -28.102063 C -19.061 -28.055188 -18.963344 -27.980969 -18.90475 -27.938 C -18.850062 -27.891125 -18.760219 -27.824719 -18.709437 -27.78175 C -18.658656 -27.742688 -18.580531 -27.680188 -18.533656 -27.641125 C -18.486781 -27.602063 -18.416469 -27.539563 -18.377406 -27.504406 C -18.334437 -27.465344 -18.271937 -27.410656 -18.236781 -27.379406 C -18.197719 -27.34425 -18.146937 -27.293469 -18.115687 -27.262219 C -18.080531 -27.230969 -18.033656 -27.184094 -18.006312 -27.152844 C -17.978969 -27.1255 -17.936 -27.082531 -17.912562 -27.059094 C -17.889125 -27.035656 -17.853969 -26.996594 -17.834437 -26.973156 C -17.811 -26.949719 -17.783656 -26.918469 -17.768031 -26.898938 C -17.7485 -26.879406 -17.725062 -26.852063 -17.713344 -26.832531 C -17.697719 -26.816906 -17.682094 -26.793469 -17.670375 -26.78175 C -17.658656 -26.770031 -17.643031 -26.746594 -17.635219 -26.738781 C -17.627406 -26.727063 -17.619594 -26.71925 -17.615687 -26.711438 C -17.611781 -26.703625 -17.603969 -26.691906 -17.600062 -26.688 C -17.600062 -26.684094 -17.596156 -26.684094 -17.596156 -26.684094 L -17.010219 -25.793469 C -15.8735 -26.664563 -15.158656 -27.078625 -13.834437 -27.6255 L -14.314906 -28.578625 C -14.314906 -28.578625 -14.314906 -28.582531 -14.314906 -28.586438 C -14.318812 -28.590344 -14.322719 -28.598156 -14.326625 -28.605969 C -14.330531 -28.613781 -14.338344 -28.629406 -14.34225 -28.641125 C -14.346156 -28.652844 -14.353969 -28.672375 -14.361781 -28.688 C -14.365687 -28.703625 -14.377406 -28.734875 -14.385219 -28.754406 C -14.393031 -28.773938 -14.40475 -28.809094 -14.416469 -28.832531 C -14.424281 -28.859875 -14.436 -28.898938 -14.447719 -28.930188 C -14.455531 -28.957531 -14.471156 -29.008313 -14.482875 -29.039563 C -14.490687 -29.074719 -14.506312 -29.129406 -14.518031 -29.168469 C -14.52975 -29.207531 -14.545375 -29.273938 -14.557094 -29.316906 C -14.568812 -29.359875 -14.584437 -29.430188 -14.596156 -29.480969 C -14.603969 -29.527844 -14.6235 -29.609875 -14.635219 -29.664563 C -14.643031 -29.71925 -14.662562 -29.809094 -14.674281 -29.867688 C -14.682094 -29.930188 -14.701625 -30.027844 -14.709437 -30.09425 C -14.721156 -30.160656 -14.732875 -30.270031 -14.744594 -30.340344 C -14.752406 -30.410656 -14.768031 -30.53175 -14.775844 -30.609875 C -14.783656 -30.688 -14.795375 -30.816906 -14.803187 -30.902844 C -14.807094 -30.988781 -14.818812 -31.129406 -14.822719 -31.223156 C -14.826625 -31.316906 -14.834437 -31.46925 -14.838344 -31.570813 C -14.838344 -31.672375 -14.84225 -31.840344 -14.84225 -31.945813 C -14.84225 -32.055188 -14.838344 -32.234875 -14.838344 -32.348156 C -14.834437 -32.465344 -14.826625 -32.664563 -14.818812 -32.789563 C -14.814906 -32.914563 -14.799281 -33.1255 -14.791469 -33.262219 C -14.77975 -33.395031 -14.740687 -33.766125 -14.740687 -33.766125 C -14.271937 -34.035656 -13.978969 -34.15675 -13.455531 -34.297375 C -13.455531 -34.297375 -13.170375 -34.066906 -13.064906 -33.977063 C -12.963344 -33.891125 -12.803187 -33.746594 -12.709437 -33.664563 C -12.615687 -33.578625 -12.475062 -33.449719 -12.389125 -33.367688 C -12.303187 -33.285656 -12.174281 -33.160656 -12.096156 -33.082531 C -12.021937 -33.008313 -11.90475 -32.887219 -11.834437 -32.813 C -11.768031 -32.742688 -11.662562 -32.629406 -11.600062 -32.559094 C -11.537562 -32.488781 -11.443812 -32.383313 -11.389125 -32.316906 C -11.334437 -32.254406 -11.2485 -32.152844 -11.201625 -32.09425 C -11.150844 -32.03175 -11.076625 -31.938 -11.02975 -31.879406 C -10.986781 -31.820813 -10.920375 -31.734875 -10.881312 -31.680188 C -10.84225 -31.6255 -10.783656 -31.547375 -10.7485 -31.496594 C -10.713344 -31.445813 -10.662562 -31.367688 -10.631312 -31.324719 C -10.600062 -31.277844 -10.553187 -31.207531 -10.525844 -31.164563 C -10.502406 -31.121594 -10.463344 -31.059094 -10.439906 -31.023938 C -10.416469 -30.984875 -10.381312 -30.922375 -10.361781 -30.891125 C -10.34225 -30.855969 -10.314906 -30.805188 -10.295375 -30.773938 C -10.27975 -30.742688 -10.256312 -30.695813 -10.244594 -30.668469 C -10.228969 -30.645031 -10.209437 -30.602063 -10.197719 -30.582531 C -10.186 -30.559094 -10.170375 -30.523938 -10.162562 -30.504406 C -10.15475 -30.484875 -10.143031 -30.457531 -10.135219 -30.441906 C -10.127406 -30.426281 -10.119594 -30.402844 -10.115687 -30.391125 C -10.107875 -30.379406 -10.103969 -30.367688 -10.100062 -30.359875 C -10.096156 -30.352063 -10.09225 -30.340344 -10.09225 -30.336438 C -10.09225 -30.332531 -10.09225 -30.328625 -10.09225 -30.328625 L -9.752406 -29.316906 C -8.432094 -29.867688 -7.631312 -30.078625 -6.213344 -30.266125 L -6.428187 -31.313 C -6.428187 -31.313 -6.428187 -31.313 -6.428187 -31.316906 C -6.428187 -31.320813 -6.432094 -31.332531 -6.432094 -31.340344 C -6.436 -31.348156 -6.436 -31.363781 -6.439906 -31.379406 C -6.439906 -31.391125 -6.443812 -31.410656 -6.443812 -31.426281 C -6.447719 -31.445813 -6.451625 -31.477063 -6.451625 -31.5005 C -6.455531 -31.520031 -6.459437 -31.559094 -6.459437 -31.582531 C -6.459437 -31.609875 -6.463344 -31.652844 -6.46725 -31.684094 C -6.46725 -31.711438 -6.46725 -31.762219 -6.471156 -31.797375 C -6.471156 -31.832531 -6.471156 -31.891125 -6.471156 -31.930188 C -6.471156 -31.973156 -6.471156 -32.039563 -6.471156 -32.086438 C -6.471156 -32.129406 -6.46725 -32.203625 -6.46725 -32.254406 C -6.463344 -32.301281 -6.459437 -32.387219 -6.455531 -32.441906 C -6.451625 -32.496594 -6.447719 -32.590344 -6.439906 -32.648938 C -6.436 -32.711438 -6.424281 -32.809094 -6.420375 -32.8755 C -6.412562 -32.941906 -6.396937 -33.051281 -6.389125 -33.121594 C -6.377406 -33.195813 -6.361781 -33.313 -6.346156 -33.391125 C -6.334437 -33.46925 -6.311 -33.598156 -6.295375 -33.684094 C -6.283656 -33.766125 -6.252406 -33.90675 -6.236781 -33.996594 C -6.21725 -34.086438 -6.182094 -34.238781 -6.158656 -34.336438 C -6.135219 -34.434094 -6.096156 -34.59425 -6.064906 -34.699719 C -6.037562 -34.805188 -5.990687 -34.977063 -5.955531 -35.086438 C -5.924281 -35.199719 -5.865687 -35.387219 -5.826625 -35.508313 C -5.787562 -35.629406 -5.721156 -35.828625 -5.674281 -35.953625 C -5.631312 -36.082531 -5.4985 -36.430188 -5.4985 -36.430188 C -4.971156 -36.570813 -4.662562 -36.613781 -4.119594 -36.613781 C -4.119594 -36.613781 -3.900844 -36.313 -3.826625 -36.199719 C -3.7485 -36.090344 -3.631312 -35.914563 -3.561 -35.805188 C -3.490687 -35.699719 -3.389125 -35.535656 -3.326625 -35.438 C -3.268031 -35.336438 -3.174281 -35.180188 -3.119594 -35.086438 C -3.064906 -34.992688 -2.986781 -34.848156 -2.936 -34.758313 C -2.889125 -34.672375 -2.818812 -34.535656 -2.775844 -34.453625 C -2.732875 -34.367688 -2.670375 -34.242688 -2.635219 -34.164563 C -2.596156 -34.086438 -2.541469 -33.96925 -2.510219 -33.898938 C -2.478969 -33.824719 -2.432094 -33.715344 -2.40475 -33.648938 C -2.3735 -33.578625 -2.334437 -33.477063 -2.311 -33.418469 C -2.283656 -33.355969 -2.2485 -33.262219 -2.228969 -33.203625 C -2.209437 -33.148938 -2.178187 -33.059094 -2.158656 -33.008313 C -2.143031 -32.953625 -2.115687 -32.8755 -2.100062 -32.828625 C -2.088344 -32.78175 -2.064906 -32.711438 -2.053187 -32.668469 C -2.041469 -32.6255 -2.021937 -32.559094 -2.014125 -32.520031 C -2.002406 -32.480969 -1.986781 -32.422375 -1.978969 -32.391125 C -1.971156 -32.355969 -1.959437 -32.305188 -1.955531 -32.277844 C -1.947719 -32.246594 -1.939906 -32.203625 -1.936 -32.176281 C -1.928187 -32.152844 -1.924281 -32.117688 -1.920375 -32.09425 C -1.916469 -32.074719 -1.912562 -32.047375 -1.908656 -32.027844 C -1.90475 -32.012219 -1.90475 -31.988781 -1.900844 -31.973156 C -1.900844 -31.961438 -1.896937 -31.949719 -1.896937 -31.938 C -1.896937 -31.930188 -1.896937 -31.918469 -1.896937 -31.914563 C -1.896937 -31.910656 -1.896937 -31.90675 -1.896937 -31.90675 L -1.834437 -30.84425 C -0.416469 -31.03175 0.415563 -31.03175 1.833531 -30.84425 L 1.896031 -31.90675 C 1.896031 -31.90675 1.896031 -31.910656 1.896031 -31.914563 C 1.896031 -31.918469 1.896031 -31.926281 1.896031 -31.938 C 1.899938 -31.945813 1.899938 -31.961438 1.899938 -31.973156 C 1.903844 -31.988781 1.903844 -32.008313 1.90775 -32.027844 C 1.911656 -32.043469 1.915563 -32.074719 1.919469 -32.09425 C 1.923375 -32.117688 1.931188 -32.152844 1.935094 -32.176281 C 1.939 -32.203625 1.946813 -32.246594 1.954625 -32.277844 C 1.962438 -32.305188 1.97025 -32.355969 1.981969 -32.391125 C 1.989781 -32.422375 2.0015 -32.480969 2.013219 -32.520031 C 2.024938 -32.559094 2.040563 -32.6255 2.052281 -32.668469 C 2.067906 -32.711438 2.087438 -32.78175 2.103063 -32.828625 C 2.114781 -32.8755 2.142125 -32.953625 2.15775 -33.008313 C 2.177281 -33.059094 2.208531 -33.148938 2.228063 -33.203625 C 2.247594 -33.262219 2.28275 -33.355969 2.310094 -33.418469 C 2.333531 -33.477063 2.3765 -33.582531 2.403844 -33.648938 C 2.431188 -33.715344 2.478063 -33.824719 2.509313 -33.895031 C 2.544469 -33.965344 2.599156 -34.086438 2.634313 -34.164563 C 2.669469 -34.242688 2.735875 -34.367688 2.774938 -34.449719 C 2.817906 -34.535656 2.888219 -34.672375 2.935094 -34.758313 C 2.985875 -34.848156 3.067906 -34.992688 3.122594 -35.086438 C 3.173375 -35.180188 3.263219 -35.336438 3.325719 -35.434094 C 3.388219 -35.535656 3.493688 -35.699719 3.560094 -35.805188 C 3.630406 -35.914563 3.747594 -36.086438 3.821813 -36.199719 C 3.899938 -36.313 4.118688 -36.613781 4.118688 -36.613781 C 4.661656 -36.613781 4.97025 -36.570813 5.493688 -36.430188 C 5.493688 -36.430188 5.6265 -36.086438 5.669469 -35.957531 C 5.716344 -35.832531 5.786656 -35.629406 5.825719 -35.508313 C 5.864781 -35.387219 5.919469 -35.203625 5.954625 -35.090344 C 5.985875 -34.980969 6.036656 -34.805188 6.064 -34.699719 C 6.091344 -34.598156 6.130406 -34.434094 6.153844 -34.336438 C 6.177281 -34.238781 6.212438 -34.086438 6.231969 -33.996594 C 6.2515 -33.90675 6.278844 -33.766125 6.294469 -33.684094 C 6.310094 -33.598156 6.333531 -33.473156 6.34525 -33.395031 C 6.356969 -33.316906 6.3765 -33.195813 6.384313 -33.1255 C 6.396031 -33.051281 6.40775 -32.941906 6.415563 -32.8755 C 6.423375 -32.809094 6.431188 -32.711438 6.439 -32.652844 C 6.442906 -32.590344 6.450719 -32.496594 6.454625 -32.441906 C 6.458531 -32.387219 6.462438 -32.301281 6.462438 -32.254406 C 6.466344 -32.203625 6.466344 -32.129406 6.47025 -32.086438 C 6.47025 -32.043469 6.47025 -31.973156 6.47025 -31.934094 C 6.47025 -31.891125 6.466344 -31.832531 6.466344 -31.797375 C 6.466344 -31.766125 6.462438 -31.711438 6.462438 -31.684094 C 6.462438 -31.652844 6.458531 -31.609875 6.454625 -31.582531 C 6.454625 -31.559094 6.450719 -31.520031 6.450719 -31.5005 C 6.446813 -31.477063 6.442906 -31.449719 6.442906 -31.434094 C 6.439 -31.414563 6.439 -31.391125 6.435094 -31.379406 C 6.435094 -31.363781 6.431188 -31.352063 6.431188 -31.34425 C 6.431188 -31.336438 6.427281 -31.320813 6.427281 -31.316906 C 6.423375 -31.313 6.423375 -31.313 6.423375 -31.313 L 6.208531 -30.266125 C 7.630406 -30.082531 8.427281 -29.867688 9.7515 -29.320813 L 10.087438 -30.332531 C 10.087438 -30.332531 10.087438 -30.332531 10.087438 -30.336438 C 10.091344 -30.340344 10.09525 -30.352063 10.09525 -30.359875 C 10.099156 -30.367688 10.106969 -30.383313 10.110875 -30.395031 C 10.114781 -30.40675 10.122594 -30.426281 10.130406 -30.441906 C 10.138219 -30.457531 10.149938 -30.484875 10.15775 -30.504406 C 10.169469 -30.523938 10.185094 -30.559094 10.196813 -30.582531 C 10.204625 -30.605969 10.224156 -30.645031 10.239781 -30.672375 C 10.255406 -30.699719 10.278844 -30.742688 10.294469 -30.773938 C 10.310094 -30.805188 10.341344 -30.855969 10.360875 -30.891125 C 10.380406 -30.926281 10.415563 -30.984875 10.435094 -31.023938 C 10.458531 -31.063 10.497594 -31.1255 10.524938 -31.164563 C 10.552281 -31.207531 10.59525 -31.277844 10.6265 -31.324719 C 10.65775 -31.371594 10.708531 -31.445813 10.743688 -31.496594 C 10.778844 -31.547375 10.837438 -31.629406 10.8765 -31.680188 C 10.915563 -31.734875 10.981969 -31.824719 11.028844 -31.879406 C 11.071813 -31.938 11.146031 -32.03175 11.196813 -32.090344 C 11.243688 -32.152844 11.329625 -32.254406 11.384313 -32.320813 C 11.442906 -32.383313 11.536656 -32.492688 11.59525 -32.559094 C 11.65775 -32.629406 11.763219 -32.742688 11.833531 -32.816906 C 11.899938 -32.887219 12.017125 -33.008313 12.09525 -33.086438 C 12.169469 -33.160656 12.298375 -33.285656 12.384313 -33.367688 C 12.466344 -33.445813 12.610875 -33.582531 12.704625 -33.664563 C 12.798375 -33.7505 12.954625 -33.887219 13.060094 -33.977063 C 13.165563 -34.063 13.454625 -34.301281 13.454625 -34.301281 C 13.978063 -34.160656 14.267125 -34.039563 14.735875 -33.766125 C 14.735875 -33.766125 14.774938 -33.398938 14.786656 -33.266125 C 14.798375 -33.129406 14.810094 -32.918469 14.817906 -32.789563 C 14.825719 -32.664563 14.829625 -32.473156 14.833531 -32.355969 C 14.837438 -32.238781 14.841344 -32.055188 14.841344 -31.949719 C 14.841344 -31.840344 14.837438 -31.672375 14.833531 -31.570813 C 14.833531 -31.473156 14.825719 -31.316906 14.821813 -31.227063 C 14.814 -31.133313 14.806188 -30.988781 14.798375 -30.90675 C 14.790563 -30.820813 14.78275 -30.691906 14.771031 -30.613781 C 14.763219 -30.535656 14.7515 -30.414563 14.739781 -30.340344 C 14.731969 -30.270031 14.716344 -30.160656 14.708531 -30.09425 C 14.696813 -30.027844 14.681188 -29.930188 14.669469 -29.871594 C 14.661656 -29.809094 14.642125 -29.71925 14.630406 -29.664563 C 14.618688 -29.609875 14.603063 -29.527844 14.591344 -29.480969 C 14.583531 -29.434094 14.564 -29.359875 14.552281 -29.316906 C 14.544469 -29.273938 14.524938 -29.207531 14.513219 -29.168469 C 14.505406 -29.129406 14.485875 -29.074719 14.478063 -29.039563 C 14.466344 -29.008313 14.450719 -28.957531 14.442906 -28.930188 C 14.435094 -28.902844 14.419469 -28.859875 14.411656 -28.836438 C 14.403844 -28.813 14.392125 -28.773938 14.384313 -28.754406 C 14.3765 -28.734875 14.364781 -28.707531 14.360875 -28.691906 C 14.353063 -28.676281 14.34525 -28.652844 14.337438 -28.641125 C 14.333531 -28.629406 14.329625 -28.617688 14.325719 -28.609875 C 14.321813 -28.602063 14.314 -28.590344 14.314 -28.586438 C 14.310094 -28.582531 14.310094 -28.582531 14.310094 -28.582531 L 13.833531 -27.629406 C 15.15775 -27.078625 15.872594 -26.668469 17.009313 -25.793469 L 17.59525 -26.684094 C 17.59525 -26.684094 17.59525 -26.688 17.599156 -26.691906 C 17.599156 -26.695813 17.606969 -26.703625 17.610875 -26.707531 C 17.614781 -26.715344 17.6265 -26.730969 17.634313 -26.738781 C 17.642125 -26.7505 17.653844 -26.766125 17.665563 -26.78175 C 17.677281 -26.793469 17.696813 -26.820813 17.708531 -26.836438 C 17.724156 -26.852063 17.747594 -26.879406 17.763219 -26.898938 C 17.778844 -26.918469 17.810094 -26.953625 17.829625 -26.973156 C 17.849156 -26.996594 17.884313 -27.035656 17.90775 -27.059094 C 17.931188 -27.086438 17.974156 -27.129406 18.0015 -27.15675 C 18.028844 -27.184094 18.079625 -27.234875 18.110875 -27.262219 C 18.142125 -27.293469 18.196813 -27.34425 18.231969 -27.379406 C 18.267125 -27.414563 18.329625 -27.46925 18.372594 -27.504406 C 18.415563 -27.543469 18.485875 -27.602063 18.53275 -27.641125 C 18.575719 -27.680188 18.653844 -27.742688 18.708531 -27.785656 C 18.759313 -27.828625 18.84525 -27.895031 18.903844 -27.938 C 18.962438 -27.980969 19.056188 -28.055188 19.122594 -28.098156 C 19.185094 -28.145031 19.294469 -28.223156 19.364781 -28.270031 C 19.435094 -28.316906 19.552281 -28.398938 19.630406 -28.449719 C 19.708531 -28.5005 19.837438 -28.582531 19.923375 -28.633313 C 20.009313 -28.688 20.153844 -28.773938 20.247594 -28.828625 C 20.341344 -28.879406 20.493688 -28.96925 20.599156 -29.023938 C 20.700719 -29.078625 20.872594 -29.172375 20.985875 -29.230969 C 21.099156 -29.285656 21.286656 -29.379406 21.411656 -29.438 C 21.53275 -29.496594 21.872594 -29.648938 21.872594 -29.648938 C 22.34525 -29.3755 22.591344 -29.188 22.974156 -28.801281 C 22.974156 -28.801281 22.915563 -28.438 22.892125 -28.305188 C 22.868688 -28.168469 22.825719 -27.961438 22.802281 -27.836438 C 22.774938 -27.715344 22.731969 -27.523938 22.704625 -27.410656 C 22.677281 -27.297375 22.630406 -27.121594 22.603063 -27.016125 C 22.575719 -26.914563 22.528844 -26.754406 22.5015 -26.65675 C 22.474156 -26.559094 22.427281 -26.414563 22.396031 -26.324719 C 22.368688 -26.234875 22.321813 -26.102063 22.294469 -26.020031 C 22.267125 -25.941906 22.22025 -25.820813 22.192906 -25.746594 C 22.165563 -25.672375 22.118688 -25.559094 22.091344 -25.492688 C 22.064 -25.426281 22.021031 -25.324719 21.997594 -25.262219 C 21.97025 -25.203625 21.927281 -25.109875 21.903844 -25.055188 C 21.8765 -25.0005 21.837438 -24.914563 21.810094 -24.867688 C 21.786656 -24.816906 21.747594 -24.742688 21.728063 -24.699719 C 21.704625 -24.65675 21.669469 -24.590344 21.646031 -24.551281 C 21.6265 -24.512219 21.591344 -24.453625 21.571813 -24.418469 C 21.552281 -24.383313 21.521031 -24.332531 21.5015 -24.305188 C 21.485875 -24.273938 21.458531 -24.230969 21.439 -24.203625 C 21.423375 -24.180188 21.399938 -24.141125 21.384313 -24.121594 C 21.372594 -24.102063 21.349156 -24.070813 21.337438 -24.051281 C 21.325719 -24.035656 21.306188 -24.012219 21.298375 -23.996594 C 21.286656 -23.984875 21.271031 -23.965344 21.263219 -23.953625 C 21.255406 -23.945813 21.247594 -23.934094 21.243688 -23.926281 C 21.235875 -23.922375 21.228063 -23.910656 21.224156 -23.90675 C 21.224156 -23.902844 21.22025 -23.902844 21.22025 -23.902844 L 20.513219 -23.105969 C 21.653844 -22.230969 22.231969 -21.652844 23.106969 -20.512219 L 23.903844 -21.223156 C 23.903844 -21.223156 23.903844 -21.223156 23.90775 -21.227063 C 23.911656 -21.227063 23.919469 -21.234875 23.923375 -21.238781 C 23.931188 -21.246594 23.942906 -21.258313 23.954625 -21.266125 C 23.962438 -21.270031 23.981969 -21.285656 23.993688 -21.293469 C 24.009313 -21.305188 24.03275 -21.324719 24.052281 -21.336438 C 24.067906 -21.348156 24.099156 -21.371594 24.122594 -21.383313 C 24.142125 -21.398938 24.181188 -21.422375 24.204625 -21.441906 C 24.231969 -21.457531 24.274938 -21.484875 24.302281 -21.5005 C 24.333531 -21.520031 24.384313 -21.551281 24.419469 -21.570813 C 24.450719 -21.590344 24.513219 -21.6255 24.552281 -21.645031 C 24.591344 -21.668469 24.653844 -21.703625 24.696813 -21.727063 C 24.743688 -21.7505 24.817906 -21.785656 24.868688 -21.813 C 24.915563 -21.836438 25.0015 -21.879406 25.056188 -21.902844 C 25.110875 -21.930188 25.200719 -21.96925 25.263219 -21.996594 C 25.321813 -22.023938 25.423375 -22.066906 25.489781 -22.09425 C 25.560094 -22.121594 25.669469 -22.164563 25.743688 -22.191906 C 25.817906 -22.21925 25.939 -22.266125 26.021031 -22.293469 C 26.103063 -22.324719 26.235875 -22.367688 26.325719 -22.398938 C 26.411656 -22.426281 26.560094 -22.473156 26.653844 -22.5005 C 26.7515 -22.53175 26.911656 -22.574719 27.017125 -22.602063 C 27.122594 -22.633313 27.294469 -22.676281 27.40775 -22.703625 C 27.521031 -22.730969 27.712438 -22.773938 27.837438 -22.801281 C 27.962438 -22.824719 28.165563 -22.867688 28.302281 -22.891125 C 28.435094 -22.914563 28.802281 -22.977063 28.802281 -22.977063 C 29.185094 -22.59425 29.3765 -22.348156 29.646031 -21.8755 C 29.646031 -21.8755 29.493688 -21.539563 29.435094 -21.414563 C 29.3765 -21.293469 29.28275 -21.102063 29.228063 -20.988781 C 29.169469 -20.8755 29.079625 -20.707531 29.024938 -20.602063 C 28.97025 -20.5005 28.880406 -20.34425 28.825719 -20.2505 C 28.771031 -20.15675 28.685094 -20.012219 28.630406 -19.926281 C 28.579625 -19.840344 28.497594 -19.711438 28.446813 -19.633313 C 28.396031 -19.555188 28.317906 -19.438 28.267125 -19.367688 C 28.22025 -19.297375 28.146031 -19.188 28.099156 -19.1255 C 28.052281 -19.063 27.981969 -18.965344 27.935094 -18.90675 C 27.892125 -18.848156 27.825719 -18.762219 27.78275 -18.711438 C 27.743688 -18.65675 27.681188 -18.582531 27.642125 -18.535656 C 27.603063 -18.488781 27.540563 -18.418469 27.5015 -18.3755 C 27.466344 -18.332531 27.411656 -18.273938 27.3765 -18.234875 C 27.34525 -18.199719 27.294469 -18.145031 27.263219 -18.113781 C 27.231969 -18.082531 27.181188 -18.03175 27.153844 -18.004406 C 27.1265 -17.977063 27.083531 -17.938 27.060094 -17.910656 C 27.03275 -17.887219 26.993688 -17.852063 26.974156 -17.832531 C 26.950719 -17.813 26.915563 -17.78175 26.896031 -17.766125 C 26.880406 -17.7505 26.849156 -17.727063 26.833531 -17.711438 C 26.817906 -17.699719 26.794469 -17.680188 26.78275 -17.668469 C 26.767125 -17.660656 26.747594 -17.645031 26.739781 -17.637219 C 26.728063 -17.629406 26.716344 -17.621594 26.712438 -17.613781 C 26.704625 -17.609875 26.692906 -17.602063 26.689 -17.602063 C 26.685094 -17.598156 26.685094 -17.598156 26.685094 -17.598156 L 25.794469 -17.012219 C 26.665563 -15.8755 27.079625 -15.160656 27.6265 -13.836438 L 28.579625 -14.313 C 28.579625 -14.313 28.583531 -14.313 28.587438 -14.316906 C 28.591344 -14.316906 28.599156 -14.320813 28.606969 -14.324719 C 28.614781 -14.328625 28.630406 -14.336438 28.642125 -14.340344 C 28.653844 -14.348156 28.673375 -14.355969 28.689 -14.359875 C 28.704625 -14.367688 28.735875 -14.379406 28.755406 -14.387219 C 28.774938 -14.395031 28.810094 -14.40675 28.833531 -14.414563 C 28.856969 -14.422375 28.899938 -14.438 28.927281 -14.445813 C 28.958531 -14.453625 29.005406 -14.46925 29.040563 -14.480969 C 29.071813 -14.492688 29.130406 -14.508313 29.169469 -14.516125 C 29.204625 -14.527844 29.274938 -14.547375 29.317906 -14.555188 C 29.360875 -14.566906 29.431188 -14.582531 29.478063 -14.59425 C 29.528844 -14.605969 29.610875 -14.621594 29.661656 -14.633313 C 29.716344 -14.645031 29.810094 -14.664563 29.868688 -14.672375 C 29.927281 -14.684094 30.028844 -14.699719 30.09525 -14.711438 C 30.15775 -14.71925 30.267125 -14.734875 30.341344 -14.742688 C 30.411656 -14.7505 30.528844 -14.766125 30.610875 -14.773938 C 30.689 -14.78175 30.817906 -14.793469 30.903844 -14.801281 C 30.989781 -14.809094 31.130406 -14.816906 31.224156 -14.824719 C 31.317906 -14.828625 31.47025 -14.836438 31.571813 -14.836438 C 31.669469 -14.840344 31.837438 -14.84425 31.946813 -14.84425 C 32.056188 -14.84425 32.231969 -14.840344 32.349156 -14.836438 C 32.466344 -14.832531 32.661656 -14.828625 32.790563 -14.820813 C 32.915563 -14.813 33.1265 -14.801281 33.259313 -14.789563 C 33.396031 -14.777844 33.767125 -14.738781 33.767125 -14.738781 C 34.036656 -14.270031 34.15775 -13.980969 34.298375 -13.457531 C 34.298375 -13.457531 34.064 -13.168469 33.978063 -13.066906 C 33.888219 -12.961438 33.747594 -12.801281 33.665563 -12.707531 C 33.579625 -12.613781 33.446813 -12.473156 33.368688 -12.387219 C 33.286656 -12.305188 33.161656 -12.172375 33.083531 -12.098156 C 33.005406 -12.020031 32.888219 -11.902844 32.814 -11.836438 C 32.743688 -11.766125 32.6265 -11.660656 32.560094 -11.598156 C 32.489781 -11.539563 32.384313 -11.445813 32.317906 -11.387219 C 32.255406 -11.332531 32.153844 -11.2505 32.091344 -11.199719 C 32.03275 -11.152844 31.935094 -11.074719 31.880406 -11.03175 C 31.821813 -10.984875 31.731969 -10.918469 31.681188 -10.879406 C 31.6265 -10.840344 31.544469 -10.78175 31.497594 -10.746594 C 31.446813 -10.711438 31.368688 -10.660656 31.321813 -10.629406 C 31.278844 -10.598156 31.204625 -10.555188 31.165563 -10.527844 C 31.122594 -10.5005 31.060094 -10.461438 31.021031 -10.438 C 30.981969 -10.414563 30.923375 -10.383313 30.888219 -10.363781 C 30.856969 -10.34425 30.802281 -10.313 30.774938 -10.297375 C 30.743688 -10.28175 30.696813 -10.258313 30.669469 -10.242688 C 30.642125 -10.230969 30.603063 -10.211438 30.579625 -10.199719 C 30.556188 -10.188 30.524938 -10.172375 30.505406 -10.160656 C 30.485875 -10.152844 30.458531 -10.141125 30.442906 -10.133313 C 30.427281 -10.129406 30.403844 -10.117688 30.392125 -10.113781 C 30.380406 -10.109875 30.368688 -10.102063 30.360875 -10.102063 C 30.353063 -10.098156 30.341344 -10.09425 30.337438 -10.09425 C 30.333531 -10.090344 30.329625 -10.090344 30.329625 -10.090344 L 29.317906 -9.754406 C 29.864781 -8.430188 30.079625 -7.633313 30.267125 -6.211438 L 31.310094 -6.426281 C 31.310094 -6.426281 31.314 -6.426281 31.317906 -6.430188 C 31.321813 -6.430188 31.329625 -6.430188 31.341344 -6.434094 C 31.349156 -6.434094 31.364781 -6.438 31.3765 -6.438 C 31.388219 -6.441906 31.411656 -6.441906 31.427281 -6.445813 C 31.446813 -6.445813 31.478063 -6.449719 31.497594 -6.453625 C 31.521031 -6.453625 31.556188 -6.457531 31.583531 -6.461438 C 31.606969 -6.461438 31.653844 -6.465344 31.681188 -6.465344 C 31.712438 -6.465344 31.763219 -6.46925 31.798375 -6.46925 C 31.833531 -6.46925 31.892125 -6.473156 31.931188 -6.473156 C 31.97025 -6.473156 32.040563 -6.473156 32.087438 -6.473156 C 32.130406 -6.46925 32.204625 -6.46925 32.2515 -6.465344 C 32.302281 -6.465344 32.384313 -6.461438 32.439 -6.457531 C 32.497594 -6.453625 32.591344 -6.445813 32.649938 -6.441906 C 32.708531 -6.434094 32.810094 -6.426281 32.8765 -6.418469 C 32.942906 -6.410656 33.052281 -6.398938 33.122594 -6.387219 C 33.192906 -6.379406 33.314 -6.359875 33.392125 -6.348156 C 33.466344 -6.336438 33.599156 -6.313 33.681188 -6.297375 C 33.767125 -6.28175 33.90775 -6.254406 33.997594 -6.234875 C 34.087438 -6.215344 34.239781 -6.184094 34.337438 -6.160656 C 34.435094 -6.137219 34.59525 -6.09425 34.700719 -6.066906 C 34.806188 -6.039563 34.974156 -5.988781 35.087438 -5.957531 C 35.200719 -5.922375 35.388219 -5.867688 35.509313 -5.828625 C 35.6265 -5.789563 35.825719 -5.723156 35.954625 -5.676281 C 36.083531 -5.629406 36.431188 -5.496594 36.431188 -5.496594 C 36.571813 -4.973156 36.610875 -4.664563 36.610875 -4.117688 C 36.610875 -4.117688 36.314 -3.902844 36.200719 -3.824719 C 36.091344 -3.746594 35.911656 -3.629406 35.806188 -3.563 C 35.700719 -3.492688 35.536656 -3.391125 35.439 -3.328625 C 35.337438 -3.266125 35.181188 -3.176281 35.087438 -3.121594 C 34.993688 -3.066906 34.849156 -2.984875 34.759313 -2.938 C 34.673375 -2.891125 34.53275 -2.816906 34.450719 -2.773938 C 34.368688 -2.734875 34.239781 -2.672375 34.165563 -2.633313 C 34.087438 -2.598156 33.97025 -2.543469 33.899938 -2.512219 C 33.825719 -2.480969 33.712438 -2.430188 33.646031 -2.402844 C 33.579625 -2.3755 33.478063 -2.332531 33.415563 -2.309094 C 33.356969 -2.285656 33.259313 -2.2505 33.204625 -2.227063 C 33.146031 -2.207531 33.060094 -2.176281 33.005406 -2.160656 C 32.954625 -2.141125 32.872594 -2.117688 32.825719 -2.102063 C 32.778844 -2.086438 32.708531 -2.066906 32.665563 -2.055188 C 32.622594 -2.039563 32.556188 -2.023938 32.517125 -2.012219 C 32.481969 -2.004406 32.423375 -1.988781 32.388219 -1.980969 C 32.356969 -1.973156 32.306188 -1.961438 32.274938 -1.953625 C 32.247594 -1.949719 32.204625 -1.938 32.177281 -1.934094 C 32.153844 -1.930188 32.114781 -1.922375 32.09525 -1.918469 C 32.075719 -1.914563 32.044469 -1.910656 32.028844 -1.910656 C 32.013219 -1.90675 31.985875 -1.902844 31.974156 -1.902844 C 31.962438 -1.898938 31.946813 -1.898938 31.939 -1.898938 C 31.931188 -1.895031 31.919469 -1.895031 31.915563 -1.895031 C 31.911656 -1.895031 31.90775 -1.895031 31.90775 -1.895031 L 30.84525 -1.832531 C 31.028844 -0.414563 31.028844 0.417469 30.84525 1.831531 L 31.90775 1.894031 C 31.90775 1.894031 31.911656 1.894031 31.915563 1.894031 C 31.919469 1.897937 31.927281 1.897937 31.935094 1.897937 C 31.942906 1.897937 31.962438 1.901844 31.974156 1.901844 C 31.985875 1.901844 32.009313 1.90575 32.024938 1.909656 C 32.044469 1.909656 32.075719 1.913562 32.09525 1.917469 C 32.114781 1.921375 32.153844 1.929187 32.177281 1.933094 C 32.204625 1.940906 32.247594 1.948719 32.274938 1.952625 C 32.306188 1.960437 32.356969 1.972156 32.388219 1.979969 C 32.423375 1.987781 32.481969 2.003406 32.517125 2.011219 C 32.556188 2.022937 32.622594 2.042469 32.665563 2.054187 C 32.708531 2.065906 32.778844 2.085437 32.825719 2.101062 C 32.872594 2.116687 32.954625 2.140125 33.005406 2.159656 C 33.060094 2.175281 33.146031 2.206531 33.204625 2.229969 C 33.259313 2.2495 33.356969 2.284656 33.415563 2.308094 C 33.478063 2.331531 33.579625 2.3745 33.646031 2.401844 C 33.712438 2.429187 33.821813 2.479969 33.896031 2.511219 C 33.966344 2.542469 34.087438 2.597156 34.165563 2.636219 C 34.239781 2.671375 34.368688 2.733875 34.450719 2.776844 C 34.53275 2.819812 34.673375 2.890125 34.759313 2.937 C 34.849156 2.983875 34.993688 3.065906 35.087438 3.120594 C 35.181188 3.175281 35.333531 3.265125 35.435094 3.327625 C 35.53275 3.386219 35.700719 3.491687 35.806188 3.562 C 35.911656 3.628406 36.087438 3.745594 36.200719 3.823719 C 36.310094 3.901844 36.610875 4.116687 36.610875 4.116687 C 36.610875 4.659656 36.571813 4.96825 36.431188 5.491687 C 36.431188 5.491687 36.087438 5.6245 35.958531 5.671375 C 35.829625 5.71825 35.630406 5.784656 35.509313 5.823719 C 35.388219 5.862781 35.204625 5.921375 35.091344 5.952625 C 34.978063 5.987781 34.806188 6.034656 34.700719 6.062 C 34.59525 6.09325 34.435094 6.132312 34.337438 6.15575 C 34.239781 6.179187 34.087438 6.214344 33.997594 6.233875 C 33.90775 6.2495 33.767125 6.276844 33.681188 6.292469 C 33.599156 6.308094 33.47025 6.331531 33.392125 6.34325 C 33.317906 6.358875 33.196813 6.3745 33.122594 6.386219 C 33.052281 6.394031 32.942906 6.40575 32.8765 6.413562 C 32.810094 6.421375 32.712438 6.433094 32.649938 6.437 C 32.591344 6.444812 32.497594 6.448719 32.442906 6.452625 C 32.388219 6.456531 32.302281 6.460437 32.255406 6.464344 C 32.204625 6.46825 32.130406 6.46825 32.087438 6.46825 C 32.040563 6.46825 31.974156 6.46825 31.931188 6.46825 C 31.892125 6.46825 31.833531 6.46825 31.798375 6.46825 C 31.763219 6.46825 31.712438 6.464344 31.681188 6.464344 C 31.653844 6.460437 31.610875 6.456531 31.583531 6.456531 C 31.556188 6.456531 31.521031 6.452625 31.497594 6.448719 C 31.478063 6.448719 31.450719 6.444812 31.431188 6.440906 C 31.415563 6.440906 31.392125 6.437 31.3765 6.437 C 31.364781 6.433094 31.353063 6.433094 31.34525 6.429187 C 31.333531 6.429187 31.321813 6.425281 31.317906 6.425281 C 31.314 6.425281 31.314 6.425281 31.314 6.425281 Z M 30.267125 6.210437 " transform="matrix(1, 0, 0, -1, 36.811, 36.812)"/>
</g>
</svg>
