<?xml version="1.0" encoding="UTF-8"?>
<svg xmlns="http://www.w3.org/2000/svg" xmlns:xlink="http://www.w3.org/1999/xlink" width="74.413pt" height="74.413pt" viewBox="0 0 74.413 74.413" version="1.1">
<g id="surface1">
<path style=" stroke:none;fill-rule:nonzero;fill:rgb(0%,0%,0%);fill-opacity:1;" d="M 0 74.414062 L 0 0 L 74.414062 0 L 74.414062 74.414062 Z M 0 74.414062 "/>
<path style=" stroke:none;fill-rule:nonzero;fill:rgb(0%,0%,0%);fill-opacity:1;" d="M 0 74.414062 L 0 0 L 74.414062 0 L 74.414062 74.414062 Z M 0 74.414062 "/>
<path style="fill:none;stroke-width:0.79701;stroke-linecap:butt;stroke-linejoin:miter;stroke:rgb(100%,100%,100%);stroke-opacity:1;stroke-miterlimit:10;" d="M 28.347687 -0.00103125 C 28.347687 1.647406 28.203156 3.29975 27.918 4.920844 L 31.628937 7.885688 C 31.078156 10.096625 30.296906 12.245063 29.300812 14.291938 L 24.550812 14.17475 M 24.550812 14.17475 C 23.722687 15.600531 22.773469 16.956 21.714875 18.221625 L 23.44925 22.6435 C 21.867219 24.284125 20.117219 25.752875 18.2305 27.026313 L 14.171906 24.54975 M 14.171906 24.54975 C 12.746125 25.373969 11.246125 26.073188 9.695344 26.635688 L 8.984406 31.334906 C 6.796906 31.963813 4.546906 32.358344 2.273469 32.5185 L 0.00003125 28.346625 M 0.00003125 28.346625 C -1.648406 28.346625 -3.296844 28.202094 -4.921844 27.916938 L -7.886688 31.631781 C -10.093719 31.081 -12.242156 30.295844 -14.289031 29.29975 L -14.171844 24.54975 M -14.171844 24.54975 C -15.601531 23.725531 -16.957 22.776313 -18.222625 21.713813 L -22.6445 23.448188 C -24.281219 21.870063 -25.753875 20.116156 -27.027313 18.229438 L -24.55075 14.17475 M -24.55075 14.17475 C -25.374969 12.745063 -26.074188 11.245063 -26.636688 9.694281 L -31.335906 8.98725 C -31.964813 6.795844 -32.359344 4.545844 -32.5195 2.272406 L -28.347625 -0.00103125 M -28.347625 -0.00103125 C -28.347625 -1.649469 -28.203094 -3.297906 -27.917938 -4.922906 L -31.628875 -7.88775 C -31.078094 -10.094781 -30.296844 -12.243219 -29.30075 -14.290094 L -24.55075 -14.172906 M -24.55075 -14.172906 C -23.722625 -15.602594 -22.773406 -16.958062 -21.714813 -18.219781 L -23.449188 -22.645562 C -21.867156 -24.282281 -20.117156 -25.751031 -18.230438 -27.024469 L -14.171844 -24.547906 M -14.171844 -24.547906 C -12.746063 -25.372125 -11.246063 -26.07525 -9.695281 -26.63775 L -8.984344 -31.336969 C -6.796844 -31.961969 -4.546844 -32.360406 -2.273406 -32.520562 L 0.00003125 -28.348687 M 0.00003125 -28.348687 C 1.648469 -28.348687 3.296906 -28.204156 4.921906 -27.915094 L 7.88675 -31.629937 C 10.093781 -31.079156 12.242219 -30.297906 14.289094 -29.297906 L 14.171906 -24.547906 M 14.171906 -24.547906 C 15.601594 -23.723687 16.957062 -22.774469 18.222687 -21.715875 L 22.644562 -23.45025 C 24.281281 -21.868219 25.753937 -20.114312 27.023469 -18.227594 L 24.550812 -14.172906 M 24.550812 -14.172906 C 25.375031 -12.743219 26.07425 -11.243219 26.63675 -9.696344 L 31.335969 -8.985406 C 31.964875 -6.797906 32.359406 -4.544 32.519562 -2.274469 L 28.347687 -0.00103125 " transform="matrix(1,0,0,-1,37.207,37.206)"/>
</g>
</svg>
