<?xml version="1.0" encoding="UTF-8"?>
<svg xmlns="http://www.w3.org/2000/svg" xmlns:xlink="http://www.w3.org/1999/xlink" width="65.834pt" height="65.834pt" viewBox="0 0 65.834 65.834" version="1.1">
<g id="surface1">
<path style="fill:none;stroke-width:0.79701;stroke-linecap:butt;stroke-linejoin:miter;stroke:rgb(0%,0%,0%);stroke-opacity:1;stroke-miterlimit:10;" d="M 28.348625 -0.00096875 C 28.348625 1.647469 28.204094 3.299813 27.915031 4.920906 L 31.629875 7.88575 C 31.079094 10.096688 30.297844 12.245125 29.297844 14.292 L 24.547844 14.174813 M 24.547844 14.174813 C 23.723625 15.600594 22.774406 16.956063 21.715813 18.221688 L 23.450188 22.643563 C 21.868156 24.284188 20.11425 25.752938 18.227531 27.026375 L 14.172844 24.549813 M 14.172844 24.549813 C 12.743156 25.374031 11.243156 26.07325 9.696281 26.63575 L 8.985344 31.334969 C 6.797844 31.963875 4.543938 32.358406 2.274406 32.518563 L 0.00096875 28.346688 M 0.00096875 28.346688 C -1.647469 28.346688 -3.299812 28.202156 -4.920906 27.917 L -7.88575 31.631844 C -10.096687 31.081063 -12.245125 30.295906 -14.292 29.299813 L -14.174812 24.549813 M -14.174812 24.549813 C -15.600594 23.725594 -16.956062 22.776375 -18.221687 21.713875 L -22.643562 23.44825 C -24.284187 21.870125 -25.752937 20.116219 -27.026375 18.2295 L -24.549812 14.174813 M -24.549812 14.174813 C -25.374031 12.745125 -26.07325 11.245125 -26.63575 9.694344 L -31.334969 8.987313 C -31.963875 6.795906 -32.358406 4.545906 -32.518562 2.272469 L -28.346687 -0.00096875 M -28.346687 -0.00096875 C -28.346687 -1.649406 -28.202156 -3.297844 -27.917 -4.922844 L -31.631844 -7.887687 C -31.081062 -10.094719 -30.295906 -12.243156 -29.299812 -14.290031 L -24.549812 -14.172844 M -24.549812 -14.172844 C -23.725594 -15.602531 -22.776375 -16.958 -21.713875 -18.219719 L -23.44825 -22.6455 C -21.870125 -24.282219 -20.116219 -25.750969 -18.2295 -27.024406 L -14.174812 -24.547844 M -14.174812 -24.547844 C -12.745125 -25.372062 -11.245125 -26.075187 -9.694344 -26.637687 L -8.987312 -31.336906 C -6.795906 -31.965812 -4.545906 -32.360344 -2.272469 -32.5205 L 0.00096875 -28.348625 M 0.00096875 -28.348625 C 1.649406 -28.348625 3.297844 -28.204094 4.922844 -27.915031 L 7.887688 -31.629875 C 10.094719 -31.079094 12.243156 -30.297844 14.290031 -29.297844 L 14.172844 -24.547844 M 14.172844 -24.547844 C 15.602531 -23.723625 16.958 -22.774406 18.219719 -21.715812 L 22.6455 -23.450187 C 24.282219 -21.868156 25.750969 -20.11425 27.024406 -18.227531 L 24.547844 -14.172844 M 24.547844 -14.172844 C 25.372063 -12.743156 26.075188 -11.243156 26.637688 -9.696281 L 31.336906 -8.985344 C 31.965813 -6.797844 32.360344 -4.543937 32.5205 -2.274406 L 28.348625 -0.00096875 " transform="matrix(1,0,0,-1,32.917,32.917)"/>
</g>
</svg>
