<?xml version="1.0" encoding="UTF-8"?>
<svg xmlns="http://www.w3.org/2000/svg" xmlns:xlink="http://www.w3.org/1999/xlink" width="82.202" height="82.202" viewBox="0 0 82.202 82.202">
<path fill-rule="nonzero" fill="rgb(0%, 0%, 0%)" fill-opacity="1" d="M 0 82.203125 L 0 0 L 82.203125 0 L 82.203125 82.203125 Z M 0 82.203125 "/>
<path fill-rule="nonzero" fill="rgb(0%, 0%, 0%)" fill-opacity="1" d="M 0 82.203125 L 0 0 L 82.203125 0 L 82.203125 82.203125 Z M 0 82.203125 "/>
<path fill="none" stroke-width="0.3985" stroke-linecap="butt" stroke-linejoin="miter" stroke="rgb(100%, 100%, 100%)" stroke-opacity="1" stroke-miterlimit="10" d="M 30.266188 6.210375 C 30.082594 7.628344 29.86775 8.429125 29.320875 9.749437 L 30.332594 10.089281 C 30.332594 10.089281 30.332594 10.089281 30.3365 10.089281 C 30.340406 10.089281 30.352125 10.093187 30.359938 10.097094 C 30.36775 10.101 30.383375 10.104906 30.395094 10.108812 C 30.406813 10.116625 30.426344 10.124437 30.441969 10.13225 C 30.457594 10.136156 30.484938 10.151781 30.504469 10.159594 C 30.524 10.167406 30.559156 10.183031 30.582594 10.19475 C 30.606031 10.206469 30.645094 10.226 30.672438 10.241625 C 30.699781 10.253344 30.74275 10.276781 30.774 10.296312 C 30.80525 10.311937 30.856031 10.339281 30.891188 10.358812 C 30.926344 10.378344 30.984938 10.4135 31.024 10.436937 C 31.063063 10.460375 31.125563 10.499437 31.164625 10.522875 C 31.207594 10.550219 31.277906 10.597094 31.324781 10.628344 C 31.371656 10.659594 31.445875 10.710375 31.496656 10.745531 C 31.547438 10.780687 31.629469 10.839281 31.68025 10.878344 C 31.734938 10.917406 31.824781 10.983812 31.879469 11.026781 C 31.938063 11.073656 32.031813 11.147875 32.090406 11.19475 C 32.152906 11.245531 32.254469 11.331469 32.320875 11.386156 C 32.383375 11.440844 32.49275 11.534594 32.559156 11.597094 C 32.629469 11.659594 32.74275 11.765062 32.816969 11.831469 C 32.887281 11.901781 33.008375 12.018969 33.0865 12.093187 C 33.160719 12.171312 33.285719 12.296312 33.36775 12.38225 C 33.445875 12.468187 33.582594 12.612719 33.664625 12.706469 C 33.750563 12.800219 33.887281 12.956469 33.977125 13.061937 C 34.063063 13.1635 34.301344 13.452562 34.301344 13.452562 C 34.160719 13.976 34.039625 14.265062 33.766188 14.737719 C 33.766188 14.737719 33.399 14.772875 33.266188 14.784594 C 33.129469 14.796312 32.918531 14.811937 32.789625 14.815844 C 32.664625 14.823656 32.473219 14.831469 32.356031 14.835375 C 32.238844 14.839281 32.05525 14.839281 31.949781 14.839281 C 31.840406 14.839281 31.672438 14.835375 31.570875 14.835375 C 31.473219 14.831469 31.316969 14.823656 31.227125 14.81975 C 31.133375 14.815844 30.988844 14.804125 30.906813 14.800219 C 30.820875 14.792406 30.691969 14.780687 30.613844 14.772875 C 30.535719 14.765062 30.414625 14.749437 30.340406 14.741625 C 30.270094 14.733812 30.160719 14.718187 30.094313 14.706469 C 30.027906 14.698656 29.93025 14.683031 29.871656 14.671312 C 29.809156 14.659594 29.719313 14.643969 29.664625 14.63225 C 29.609938 14.620531 29.527906 14.604906 29.481031 14.593187 C 29.434156 14.581469 29.359938 14.565844 29.316969 14.554125 C 29.274 14.542406 29.207594 14.522875 29.168531 14.515062 C 29.129469 14.503344 29.074781 14.487719 29.039625 14.476 C 29.008375 14.468187 28.957594 14.452562 28.93025 14.44475 C 28.902906 14.433031 28.859938 14.421312 28.8365 14.409594 C 28.813063 14.401781 28.774 14.390062 28.754469 14.38225 C 28.734938 14.378344 28.707594 14.366625 28.691969 14.358812 C 28.676344 14.354906 28.652906 14.343187 28.641188 14.339281 C 28.629469 14.335375 28.61775 14.327562 28.609938 14.323656 C 28.602125 14.31975 28.590406 14.315844 28.5865 14.315844 C 28.582594 14.311937 28.582594 14.311937 28.582594 14.311937 L 27.629469 13.831469 C 27.078688 15.155687 26.668531 15.870531 25.793531 17.00725 L 26.684156 17.597094 C 26.684156 17.597094 26.688063 17.597094 26.691969 17.597094 C 26.695875 17.601 26.703688 17.604906 26.707594 17.608812 C 26.715406 17.616625 26.731031 17.624437 26.738844 17.63225 C 26.750563 17.640062 26.766188 17.655687 26.781813 17.6635 C 26.793531 17.675219 26.820875 17.69475 26.8365 17.710375 C 26.852125 17.722094 26.879469 17.745531 26.899 17.765062 C 26.918531 17.780687 26.953688 17.811937 26.973219 17.831469 C 26.996656 17.851 27.035719 17.886156 27.059156 17.909594 C 27.0865 17.933031 27.129469 17.972094 27.156813 18.003344 C 27.184156 18.030687 27.234938 18.077562 27.262281 18.112719 C 27.293531 18.143969 27.344313 18.19475 27.379469 18.233812 C 27.414625 18.268969 27.469313 18.331469 27.504469 18.370531 C 27.543531 18.4135 27.602125 18.483812 27.641188 18.530687 C 27.68025 18.577562 27.74275 18.655687 27.785719 18.706469 C 27.828688 18.75725 27.895094 18.847094 27.938063 18.905687 C 27.981031 18.960375 28.05525 19.058031 28.098219 19.120531 C 28.145094 19.183031 28.223219 19.292406 28.270094 19.362719 C 28.316969 19.433031 28.399 19.554125 28.449781 19.628344 C 28.500563 19.706469 28.582594 19.839281 28.633375 19.921312 C 28.688063 20.00725 28.774 20.151781 28.828688 20.245531 C 28.879469 20.339281 28.969313 20.495531 29.024 20.597094 C 29.078688 20.702562 29.172438 20.874437 29.231031 20.987719 C 29.285719 21.101 29.379469 21.2885 29.438063 21.409594 C 29.496656 21.530687 29.649 21.874437 29.649 21.874437 C 29.375563 22.343187 29.188063 22.589281 28.801344 22.976 C 28.801344 22.976 28.438063 22.917406 28.30525 22.893969 C 28.168531 22.866625 27.9615 22.827562 27.8365 22.800219 C 27.715406 22.772875 27.524 22.729906 27.410719 22.702562 C 27.297438 22.675219 27.121656 22.63225 27.016188 22.604906 C 26.914625 22.573656 26.754469 22.530687 26.656813 22.499437 C 26.559156 22.472094 26.414625 22.425219 26.324781 22.397875 C 26.234938 22.370531 26.102125 22.323656 26.020094 22.292406 C 25.941969 22.265062 25.820875 22.222094 25.746656 22.19475 C 25.672438 22.167406 25.559156 22.120531 25.49275 22.093187 C 25.426344 22.065844 25.324781 22.022875 25.262281 21.995531 C 25.203688 21.968187 25.109938 21.929125 25.05525 21.901781 C 25.000563 21.878344 24.914625 21.835375 24.86775 21.811937 C 24.816969 21.7885 24.74275 21.749437 24.699781 21.726 C 24.656813 21.702562 24.590406 21.667406 24.551344 21.647875 C 24.512281 21.624437 24.453688 21.589281 24.418531 21.56975 C 24.383375 21.550219 24.332594 21.518969 24.30525 21.503344 C 24.274 21.483812 24.231031 21.456469 24.203688 21.440844 C 24.18025 21.425219 24.141188 21.397875 24.121656 21.386156 C 24.098219 21.370531 24.070875 21.351 24.051344 21.339281 C 24.035719 21.323656 24.012281 21.308031 23.996656 21.296312 C 23.984938 21.2885 23.965406 21.272875 23.953688 21.265062 C 23.945875 21.25725 23.934156 21.249437 23.926344 21.241625 C 23.922438 21.237719 23.910719 21.229906 23.906813 21.226 C 23.902906 21.222094 23.902906 21.222094 23.902906 21.222094 L 23.106031 20.515062 C 22.231031 21.651781 21.652906 22.233812 20.512281 23.104906 L 21.223219 23.905687 C 21.223219 23.905687 21.223219 23.905687 21.227125 23.909594 C 21.227125 23.909594 21.234938 23.917406 21.238844 23.925219 C 21.246656 23.929125 21.258375 23.94475 21.266188 23.952562 C 21.270094 23.964281 21.285719 23.979906 21.293531 23.995531 C 21.30525 24.00725 21.324781 24.034594 21.3365 24.050219 C 21.348219 24.06975 21.371656 24.101 21.383375 24.120531 C 21.399 24.143969 21.422438 24.179125 21.441969 24.206469 C 21.457594 24.229906 21.484938 24.272875 21.500563 24.304125 C 21.520094 24.335375 21.551344 24.38225 21.570875 24.417406 C 21.590406 24.452562 21.625563 24.511156 21.645094 24.550219 C 21.668531 24.589281 21.703688 24.655687 21.727125 24.698656 C 21.750563 24.741625 21.785719 24.815844 21.813063 24.866625 C 21.8365 24.917406 21.879469 24.999437 21.902906 25.054125 C 21.93025 25.108812 21.969313 25.202562 21.996656 25.261156 C 22.024 25.323656 22.066969 25.425219 22.094313 25.491625 C 22.121656 25.558031 22.164625 25.671312 22.191969 25.741625 C 22.219313 25.815844 22.266188 25.940844 22.293531 26.022875 C 22.320875 26.101 22.36775 26.237719 22.399 26.323656 C 22.426344 26.4135 22.473219 26.558031 22.500563 26.655687 C 22.531813 26.753344 22.574781 26.9135 22.602125 27.018969 C 22.633375 27.120531 22.676344 27.296312 22.703688 27.409594 C 22.731031 27.522875 22.774 27.714281 22.801344 27.835375 C 22.824781 27.960375 22.86775 28.167406 22.891188 28.300219 C 22.914625 28.433031 22.977125 28.800219 22.977125 28.800219 C 22.590406 29.186937 22.348219 29.374437 21.875563 29.647875 C 21.875563 29.647875 21.539625 29.495531 21.414625 29.436937 C 21.293531 29.378344 21.102125 29.284594 20.988844 29.226 C 20.875563 29.171312 20.707594 29.081469 20.602125 29.022875 C 20.500563 28.968187 20.344313 28.878344 20.250563 28.823656 C 20.156813 28.768969 20.012281 28.683031 19.926344 28.63225 C 19.840406 28.581469 19.7115 28.495531 19.633375 28.448656 C 19.55525 28.397875 19.438063 28.315844 19.36775 28.268969 C 19.297438 28.222094 19.188063 28.147875 19.125563 28.101 C 19.063063 28.054125 18.965406 27.979906 18.906813 27.936937 C 18.848219 27.893969 18.762281 27.823656 18.7115 27.784594 C 18.656813 27.741625 18.582594 27.679125 18.535719 27.640062 C 18.488844 27.601 18.418531 27.5385 18.375563 27.503344 C 18.332594 27.468187 18.274 27.409594 18.234938 27.378344 C 18.199781 27.343187 18.145094 27.292406 18.113844 27.261156 C 18.082594 27.229906 18.031813 27.183031 18.004469 27.155687 C 17.977125 27.128344 17.938063 27.085375 17.910719 27.058031 C 17.887281 27.034594 17.852125 26.995531 17.832594 26.972094 C 17.813063 26.952562 17.781813 26.917406 17.766188 26.897875 C 17.750563 26.878344 17.727125 26.851 17.7115 26.835375 C 17.699781 26.81975 17.68025 26.796312 17.668531 26.780687 C 17.660719 26.768969 17.645094 26.749437 17.637281 26.737719 C 17.629469 26.729906 17.621656 26.718187 17.613844 26.710375 C 17.609938 26.702562 17.602125 26.69475 17.602125 26.690844 C 17.598219 26.686937 17.598219 26.683031 17.598219 26.683031 L 17.012281 25.792406 C 15.871656 26.667406 15.160719 27.077562 13.8365 27.628344 L 14.313063 28.581469 C 14.313063 28.581469 14.313063 28.581469 14.316969 28.585375 C 14.316969 28.589281 14.320875 28.597094 14.324781 28.604906 C 14.328688 28.612719 14.3365 28.628344 14.340406 28.640062 C 14.348219 28.651781 14.356031 28.671312 14.359938 28.686937 C 14.36775 28.702562 14.379469 28.733812 14.387281 28.753344 C 14.395094 28.776781 14.406813 28.808031 14.414625 28.835375 C 14.422438 28.858812 14.438063 28.901781 14.445875 28.929125 C 14.453688 28.956469 14.469313 29.00725 14.481031 29.0385 C 14.49275 29.073656 14.508375 29.128344 14.516188 29.167406 C 14.527906 29.206469 14.547438 29.272875 14.55525 29.315844 C 14.566969 29.358812 14.582594 29.433031 14.594313 29.479906 C 14.606031 29.526781 14.621656 29.608812 14.633375 29.6635 C 14.645094 29.718187 14.664625 29.808031 14.672438 29.870531 C 14.684156 29.929125 14.699781 30.026781 14.7115 30.093187 C 14.719313 30.159594 14.734938 30.268969 14.74275 30.339281 C 14.750563 30.409594 14.766188 30.530687 14.774 30.608812 C 14.781813 30.686937 14.793531 30.81975 14.801344 30.901781 C 14.809156 30.987719 14.816969 31.13225 14.824781 31.222094 C 14.828688 31.315844 14.8365 31.472094 14.8365 31.56975 C 14.840406 31.671312 14.844313 31.839281 14.844313 31.948656 C 14.844313 32.054125 14.840406 32.233812 14.8365 32.351 C 14.832594 32.468187 14.828688 32.6635 14.820875 32.7885 C 14.813063 32.917406 14.801344 33.124437 14.789625 33.261156 C 14.777906 33.397875 14.738844 33.765062 14.738844 33.765062 C 14.270094 34.0385 13.981031 34.155687 13.457594 34.296312 C 13.457594 34.296312 13.168531 34.065844 13.066969 33.976 C 12.9615 33.890062 12.801344 33.749437 12.707594 33.6635 C 12.613844 33.577562 12.473219 33.448656 12.387281 33.366625 C 12.30525 33.2885 12.172438 33.159594 12.098219 33.085375 C 12.020094 33.00725 11.902906 32.886156 11.8365 32.815844 C 11.766188 32.741625 11.660719 32.628344 11.598219 32.558031 C 11.539625 32.491625 11.445875 32.38225 11.387281 32.31975 C 11.332594 32.253344 11.250563 32.155687 11.199781 32.093187 C 11.149 32.030687 11.074781 31.936937 11.031813 31.878344 C 10.984938 31.823656 10.918531 31.733812 10.879469 31.679125 C 10.840406 31.628344 10.781813 31.546312 10.746656 31.495531 C 10.7115 31.44475 10.660719 31.370531 10.629469 31.323656 C 10.598219 31.276781 10.55525 31.206469 10.527906 31.1635 C 10.500563 31.124437 10.4615 31.061937 10.438063 31.022875 C 10.414625 30.983812 10.383375 30.925219 10.363844 30.890062 C 10.344313 30.854906 10.313063 30.804125 10.297438 30.772875 C 10.281813 30.741625 10.258375 30.698656 10.24275 30.671312 C 10.231031 30.643969 10.2115 30.604906 10.199781 30.581469 C 10.188063 30.558031 10.172438 30.522875 10.160719 30.503344 C 10.152906 30.487719 10.141188 30.460375 10.133375 30.44475 C 10.129469 30.429125 10.11775 30.405687 10.113844 30.393969 C 10.109938 30.38225 10.102125 30.366625 10.102125 30.358812 C 10.098219 30.351 10.094313 30.339281 10.094313 30.335375 C 10.090406 30.331469 10.090406 30.331469 10.090406 30.331469 L 9.754469 29.31975 C 8.43025 29.866625 7.629469 30.081469 6.2115 30.268969 L 6.426344 31.311937 C 6.426344 31.311937 6.426344 31.315844 6.43025 31.31975 C 6.43025 31.323656 6.43025 31.331469 6.434156 31.339281 C 6.434156 31.347094 6.438063 31.366625 6.438063 31.378344 C 6.441969 31.390062 6.441969 31.409594 6.445875 31.429125 C 6.445875 31.44475 6.449781 31.476 6.453688 31.499437 C 6.453688 31.518969 6.457594 31.558031 6.457594 31.581469 C 6.4615 31.608812 6.465406 31.651781 6.465406 31.683031 C 6.465406 31.714281 6.469313 31.765062 6.469313 31.800219 C 6.469313 31.831469 6.473219 31.893969 6.473219 31.933031 C 6.473219 31.972094 6.473219 32.042406 6.473219 32.085375 C 6.469313 32.128344 6.469313 32.202562 6.465406 32.253344 C 6.465406 32.304125 6.4615 32.386156 6.457594 32.440844 C 6.453688 32.495531 6.445875 32.589281 6.441969 32.651781 C 6.434156 32.710375 6.426344 32.811937 6.418531 32.874437 C 6.410719 32.940844 6.399 33.050219 6.387281 33.124437 C 6.379469 33.19475 6.359938 33.311937 6.348219 33.390062 C 6.3365 33.468187 6.313063 33.597094 6.297438 33.683031 C 6.281813 33.768969 6.254469 33.905687 6.234938 33.995531 C 6.215406 34.089281 6.184156 34.237719 6.160719 34.335375 C 6.137281 34.433031 6.094313 34.597094 6.066969 34.698656 C 6.039625 34.804125 5.988844 34.976 5.957594 35.089281 C 5.922438 35.198656 5.86775 35.386156 5.828688 35.50725 C 5.789625 35.628344 5.723219 35.827562 5.676344 35.956469 C 5.629469 36.081469 5.496656 36.433031 5.496656 36.433031 C 4.973219 36.573656 4.664625 36.612719 4.11775 36.612719 C 4.11775 36.612719 3.902906 36.311937 3.824781 36.202562 C 3.746656 36.089281 3.629469 35.9135 3.559156 35.808031 C 3.49275 35.702562 3.391188 35.5385 3.328688 35.436937 C 3.266188 35.339281 3.176344 35.183031 3.121656 35.085375 C 3.066969 34.991625 2.984938 34.847094 2.938063 34.761156 C 2.891188 34.671312 2.816969 34.534594 2.774 34.452562 C 2.734938 34.370531 2.672438 34.241625 2.633375 34.1635 C 2.598219 34.089281 2.543531 33.972094 2.512281 33.897875 C 2.481031 33.827562 2.43025 33.714281 2.402906 33.647875 C 2.375563 33.581469 2.332594 33.479906 2.309156 33.417406 C 2.285719 33.354906 2.250563 33.261156 2.227125 33.202562 C 2.207594 33.147875 2.176344 33.058031 2.160719 33.00725 C 2.141188 32.956469 2.11775 32.874437 2.102125 32.827562 C 2.0865 32.780687 2.066969 32.710375 2.05525 32.667406 C 2.039625 32.624437 2.024 32.558031 2.012281 32.518969 C 2.004469 32.479906 1.988844 32.425219 1.981031 32.390062 C 1.973219 32.354906 1.9615 32.304125 1.953688 32.276781 C 1.949781 32.245531 1.938063 32.202562 1.934156 32.179125 C 1.93025 32.151781 1.922438 32.116625 1.918531 32.097094 C 1.914625 32.073656 1.910719 32.046312 1.910719 32.030687 C 1.906813 32.011156 1.902906 31.987719 1.902906 31.976 C 1.899 31.964281 1.899 31.948656 1.899 31.940844 C 1.895094 31.933031 1.895094 31.917406 1.895094 31.9135 C 1.895094 31.909594 1.895094 31.909594 1.895094 31.909594 L 1.832594 30.843187 C 0.414625 31.030687 -0.417406 31.030687 -1.831469 30.843187 L -1.893969 31.909594 C -1.893969 31.909594 -1.893969 31.909594 -1.893969 31.9135 C -1.897875 31.917406 -1.897875 31.929125 -1.897875 31.936937 C -1.897875 31.94475 -1.901781 31.964281 -1.901781 31.976 C -1.901781 31.987719 -1.905687 32.011156 -1.909594 32.026781 C -1.909594 32.042406 -1.917406 32.073656 -1.917406 32.097094 C -1.921312 32.116625 -1.929125 32.151781 -1.933031 32.179125 C -1.940844 32.202562 -1.948656 32.245531 -1.952562 32.276781 C -1.960375 32.304125 -1.972094 32.354906 -1.979906 32.390062 C -1.987719 32.425219 -2.003344 32.479906 -2.011156 32.518969 C -2.022875 32.558031 -2.042406 32.624437 -2.054125 32.667406 C -2.065844 32.710375 -2.085375 32.780687 -2.101 32.827562 C -2.116625 32.874437 -2.143969 32.956469 -2.159594 33.00725 C -2.179125 33.058031 -2.206469 33.147875 -2.229906 33.202562 C -2.249437 33.261156 -2.284594 33.354906 -2.308031 33.417406 C -2.331469 33.479906 -2.374437 33.581469 -2.401781 33.647875 C -2.433031 33.714281 -2.479906 33.823656 -2.511156 33.893969 C -2.542406 33.968187 -2.597094 34.085375 -2.636156 34.1635 C -2.671312 34.241625 -2.733812 34.370531 -2.776781 34.452562 C -2.81975 34.534594 -2.890062 34.671312 -2.936937 34.761156 C -2.983812 34.847094 -3.065844 34.991625 -3.120531 35.085375 C -3.175219 35.179125 -3.265062 35.335375 -3.327562 35.433031 C -3.386156 35.534594 -3.491625 35.702562 -3.561937 35.808031 C -3.628344 35.9135 -3.745531 36.089281 -3.823656 36.198656 C -3.901781 36.311937 -4.120531 36.612719 -4.120531 36.612719 C -4.659594 36.612719 -4.968187 36.573656 -5.491625 36.433031 C -5.491625 36.433031 -5.624437 36.085375 -5.671312 35.960375 C -5.718187 35.831469 -5.784594 35.628344 -5.823656 35.50725 C -5.862719 35.390062 -5.921312 35.202562 -5.952562 35.093187 C -5.987719 34.979906 -6.034594 34.804125 -6.061937 34.702562 C -6.093187 34.597094 -6.13225 34.433031 -6.155687 34.335375 C -6.179125 34.237719 -6.214281 34.089281 -6.233812 33.995531 C -6.249437 33.905687 -6.276781 33.765062 -6.292406 33.683031 C -6.308031 33.601 -6.331469 33.472094 -6.343187 33.393969 C -6.358812 33.315844 -6.374437 33.19475 -6.386156 33.124437 C -6.393969 33.050219 -6.405687 32.940844 -6.4135 32.874437 C -6.421312 32.811937 -6.433031 32.710375 -6.436937 32.651781 C -6.44475 32.589281 -6.448656 32.495531 -6.452562 32.440844 C -6.456469 32.386156 -6.460375 32.304125 -6.464281 32.253344 C -6.468187 32.202562 -6.468187 32.13225 -6.468187 32.085375 C -6.468187 32.042406 -6.468187 31.972094 -6.468187 31.933031 C -6.468187 31.893969 -6.468187 31.835375 -6.468187 31.800219 C -6.468187 31.765062 -6.464281 31.714281 -6.464281 31.683031 C -6.460375 31.651781 -6.456469 31.608812 -6.456469 31.585375 C -6.456469 31.558031 -6.452562 31.518969 -6.448656 31.499437 C -6.448656 31.479906 -6.44475 31.448656 -6.440844 31.433031 C -6.440844 31.417406 -6.436937 31.390062 -6.436937 31.378344 C -6.433031 31.366625 -6.433031 31.351 -6.429125 31.343187 C -6.429125 31.335375 -6.425219 31.323656 -6.425219 31.31975 C -6.425219 31.315844 -6.425219 31.311937 -6.425219 31.311937 L -6.210375 30.268969 C -7.628344 30.081469 -8.429125 29.866625 -9.749437 29.31975 L -10.089281 30.331469 C -10.089281 30.331469 -10.089281 30.335375 -10.089281 30.339281 C -10.089281 30.339281 -10.093187 30.351 -10.097094 30.358812 C -10.101 30.366625 -10.104906 30.38225 -10.108812 30.393969 C -10.116625 30.405687 -10.124437 30.425219 -10.13225 30.440844 C -10.136156 30.456469 -10.151781 30.487719 -10.159594 30.50725 C -10.167406 30.526781 -10.183031 30.558031 -10.19475 30.581469 C -10.206469 30.604906 -10.226 30.643969 -10.241625 30.671312 C -10.253344 30.698656 -10.276781 30.745531 -10.296312 30.772875 C -10.311937 30.804125 -10.339281 30.858812 -10.358812 30.890062 C -10.378344 30.925219 -10.4135 30.983812 -10.436937 31.022875 C -10.460375 31.061937 -10.499437 31.124437 -10.522875 31.167406 C -10.550219 31.206469 -10.597094 31.276781 -10.628344 31.323656 C -10.659594 31.370531 -10.710375 31.448656 -10.745531 31.495531 C -10.780687 31.546312 -10.839281 31.628344 -10.878344 31.683031 C -10.917406 31.733812 -10.983812 31.823656 -11.026781 31.878344 C -11.073656 31.936937 -11.147875 32.030687 -11.19475 32.093187 C -11.245531 32.151781 -11.331469 32.253344 -11.386156 32.31975 C -11.440844 32.386156 -11.534594 32.491625 -11.597094 32.561937 C -11.659594 32.628344 -11.765062 32.741625 -11.831469 32.815844 C -11.901781 32.890062 -12.018969 33.00725 -12.093187 33.085375 C -12.171312 33.1635 -12.296312 33.284594 -12.38225 33.366625 C -12.468187 33.448656 -12.612719 33.581469 -12.706469 33.6635 C -12.800219 33.749437 -12.956469 33.890062 -13.061937 33.976 C -13.1635 34.065844 -13.452562 34.300219 -13.452562 34.300219 C -13.976 34.159594 -14.265062 34.0385 -14.737719 33.768969 C -14.737719 33.768969 -14.772875 33.401781 -14.784594 33.265062 C -14.796312 33.128344 -14.811937 32.917406 -14.815844 32.792406 C -14.823656 32.6635 -14.831469 32.472094 -14.835375 32.354906 C -14.839281 32.237719 -14.839281 32.058031 -14.839281 31.948656 C -14.839281 31.839281 -14.835375 31.671312 -14.835375 31.573656 C -14.831469 31.472094 -14.823656 31.31975 -14.81975 31.226 C -14.815844 31.13225 -14.804125 30.991625 -14.800219 30.905687 C -14.792406 30.81975 -14.780687 30.690844 -14.772875 30.612719 C -14.765062 30.534594 -14.749437 30.4135 -14.741625 30.343187 C -14.733812 30.268969 -14.718187 30.159594 -14.706469 30.093187 C -14.698656 30.030687 -14.683031 29.929125 -14.671312 29.870531 C -14.659594 29.811937 -14.643969 29.718187 -14.63225 29.6635 C -14.620531 29.612719 -14.604906 29.526781 -14.593187 29.479906 C -14.581469 29.433031 -14.565844 29.358812 -14.554125 29.315844 C -14.542406 29.272875 -14.522875 29.206469 -14.515062 29.171312 C -14.503344 29.13225 -14.487719 29.073656 -14.476 29.042406 C -14.468187 29.00725 -14.452562 28.956469 -14.44475 28.929125 C -14.433031 28.901781 -14.421312 28.858812 -14.409594 28.835375 C -14.401781 28.811937 -14.390062 28.776781 -14.38225 28.75725 C -14.378344 28.737719 -14.366625 28.710375 -14.358812 28.69475 C -14.354906 28.679125 -14.343187 28.651781 -14.339281 28.643969 C -14.335375 28.63225 -14.327562 28.616625 -14.323656 28.608812 C -14.31975 28.601 -14.315844 28.589281 -14.315844 28.585375 C -14.311937 28.581469 -14.311937 28.581469 -14.311937 28.581469 L -13.831469 27.628344 C -15.155687 27.081469 -15.870531 26.667406 -17.00725 25.796312 L -17.597094 26.686937 C -17.597094 26.686937 -17.597094 26.686937 -17.597094 26.690844 C -17.601 26.69475 -17.604906 26.702562 -17.608812 26.710375 C -17.616625 26.714281 -17.624437 26.729906 -17.63225 26.741625 C -17.640062 26.749437 -17.655687 26.768969 -17.6635 26.780687 C -17.675219 26.792406 -17.69475 26.81975 -17.710375 26.835375 C -17.722094 26.851 -17.745531 26.88225 -17.765062 26.901781 C -17.780687 26.917406 -17.811937 26.952562 -17.831469 26.976 C -17.851 26.995531 -17.886156 27.034594 -17.909594 27.061937 C -17.933031 27.085375 -17.972094 27.128344 -18.003344 27.155687 C -18.030687 27.183031 -18.077562 27.233812 -18.112719 27.265062 C -18.143969 27.296312 -18.19475 27.347094 -18.233812 27.378344 C -18.268969 27.4135 -18.331469 27.468187 -18.370531 27.50725 C -18.4135 27.542406 -18.483812 27.604906 -18.530687 27.643969 C -18.577562 27.683031 -18.655687 27.745531 -18.706469 27.784594 C -18.75725 27.827562 -18.847094 27.893969 -18.905687 27.940844 C -18.960375 27.983812 -19.058031 28.054125 -19.120531 28.101 C -19.183031 28.143969 -19.292406 28.222094 -19.362719 28.268969 C -19.433031 28.31975 -19.554125 28.397875 -19.628344 28.448656 C -19.706469 28.499437 -19.839281 28.581469 -19.921312 28.636156 C -20.00725 28.686937 -20.151781 28.772875 -20.245531 28.827562 C -20.339281 28.88225 -20.495531 28.968187 -20.597094 29.022875 C -20.702562 29.081469 -20.874437 29.171312 -20.987719 29.229906 C -21.101 29.2885 -21.2885 29.378344 -21.409594 29.436937 C -21.530687 29.495531 -21.874437 29.647875 -21.874437 29.647875 C -22.343187 29.378344 -22.589281 29.186937 -22.976 28.804125 C -22.976 28.804125 -22.917406 28.436937 -22.893969 28.304125 C -22.866625 28.171312 -22.827562 27.960375 -22.800219 27.835375 C -22.772875 27.714281 -22.729906 27.526781 -22.702562 27.4135 C -22.675219 27.300219 -22.63225 27.120531 -22.604906 27.018969 C -22.573656 26.9135 -22.530687 26.753344 -22.499437 26.655687 C -22.472094 26.561937 -22.425219 26.4135 -22.397875 26.323656 C -22.370531 26.237719 -22.323656 26.101 -22.292406 26.022875 C -22.265062 25.940844 -22.222094 25.81975 -22.19475 25.745531 C -22.167406 25.671312 -22.120531 25.558031 -22.093187 25.491625 C -22.065844 25.425219 -22.022875 25.323656 -21.995531 25.261156 C -21.968187 25.202562 -21.929125 25.108812 -21.901781 25.054125 C -21.878344 24.999437 -21.835375 24.917406 -21.811937 24.866625 C -21.7885 24.815844 -21.749437 24.741625 -21.726 24.698656 C -21.702562 24.655687 -21.667406 24.589281 -21.647875 24.550219 C -21.624437 24.511156 -21.589281 24.452562 -21.56975 24.417406 C -21.550219 24.38225 -21.518969 24.335375 -21.503344 24.304125 C -21.483812 24.272875 -21.456469 24.229906 -21.440844 24.206469 C -21.425219 24.179125 -21.397875 24.143969 -21.386156 24.120531 C -21.370531 24.101 -21.351 24.06975 -21.339281 24.050219 C -21.323656 24.034594 -21.308031 24.011156 -21.296312 23.999437 C -21.2885 23.983812 -21.272875 23.964281 -21.265062 23.952562 C -21.25725 23.94475 -21.249437 23.933031 -21.241625 23.925219 C -21.237719 23.921312 -21.229906 23.909594 -21.226 23.909594 C -21.222094 23.905687 -21.222094 23.901781 -21.222094 23.901781 L -20.515062 23.104906 C -21.651781 22.233812 -22.233812 21.651781 -23.104906 20.515062 L -23.905687 21.222094 C -23.905687 21.222094 -23.905687 21.222094 -23.909594 21.226 C -23.909594 21.229906 -23.917406 21.233812 -23.925219 21.241625 C -23.929125 21.245531 -23.94475 21.25725 -23.952562 21.265062 C -23.964281 21.272875 -23.979906 21.284594 -23.995531 21.296312 C -24.00725 21.304125 -24.034594 21.323656 -24.050219 21.339281 C -24.06975 21.351 -24.101 21.370531 -24.120531 21.386156 C -24.143969 21.397875 -24.179125 21.425219 -24.206469 21.440844 C -24.229906 21.456469 -24.272875 21.483812 -24.304125 21.503344 C -24.335375 21.518969 -24.38225 21.550219 -24.417406 21.56975 C -24.452562 21.589281 -24.511156 21.624437 -24.550219 21.647875 C -24.589281 21.667406 -24.655687 21.702562 -24.698656 21.726 C -24.741625 21.749437 -24.815844 21.7885 -24.866625 21.811937 C -24.917406 21.835375 -24.999437 21.878344 -25.054125 21.901781 C -25.108812 21.929125 -25.202562 21.968187 -25.261156 21.995531 C -25.323656 22.022875 -25.425219 22.065844 -25.491625 22.093187 C -25.558031 22.120531 -25.671312 22.1635 -25.741625 22.190844 C -25.815844 22.218187 -25.940844 22.265062 -26.022875 22.292406 C -26.101 22.323656 -26.237719 22.370531 -26.323656 22.397875 C -26.4135 22.425219 -26.558031 22.472094 -26.655687 22.503344 C -26.753344 22.530687 -26.9135 22.577562 -27.018969 22.604906 C -27.120531 22.63225 -27.296312 22.675219 -27.409594 22.702562 C -27.522875 22.729906 -27.714281 22.772875 -27.835375 22.800219 C -27.960375 22.827562 -28.167406 22.866625 -28.300219 22.890062 C -28.433031 22.917406 -28.800219 22.976 -28.800219 22.976 C -29.186937 22.593187 -29.374437 22.347094 -29.647875 21.878344 C -29.647875 21.878344 -29.495531 21.5385 -29.436937 21.417406 C -29.378344 21.292406 -29.284594 21.101 -29.226 20.987719 C -29.171312 20.878344 -29.081469 20.706469 -29.022875 20.604906 C -28.968187 20.499437 -28.878344 20.343187 -28.823656 20.249437 C -28.768969 20.155687 -28.683031 20.011156 -28.63225 19.925219 C -28.581469 19.843187 -28.495531 19.710375 -28.448656 19.63225 C -28.397875 19.554125 -28.315844 19.436937 -28.268969 19.366625 C -28.222094 19.296312 -28.147875 19.190844 -28.101 19.124437 C -28.054125 19.061937 -27.979906 18.964281 -27.936937 18.905687 C -27.893969 18.847094 -27.823656 18.761156 -27.784594 18.710375 C -27.741625 18.659594 -27.679125 18.581469 -27.640062 18.534594 C -27.601 18.487719 -27.5385 18.417406 -27.503344 18.374437 C -27.468187 18.335375 -27.409594 18.272875 -27.378344 18.237719 C -27.343187 18.198656 -27.292406 18.143969 -27.261156 18.112719 C -27.229906 18.081469 -27.183031 18.034594 -27.155687 18.003344 C -27.128344 17.976 -27.085375 17.936937 -27.058031 17.9135 C -27.034594 17.890062 -26.995531 17.851 -26.972094 17.831469 C -26.952562 17.811937 -26.917406 17.784594 -26.897875 17.765062 C -26.878344 17.749437 -26.851 17.726 -26.835375 17.710375 C -26.81975 17.698656 -26.796312 17.679125 -26.780687 17.671312 C -26.768969 17.659594 -26.749437 17.643969 -26.737719 17.636156 C -26.729906 17.628344 -26.718187 17.620531 -26.710375 17.616625 C -26.702562 17.608812 -26.69475 17.604906 -26.690844 17.601 C -26.686937 17.597094 -26.683031 17.597094 -26.683031 17.597094 L -25.792406 17.011156 C -26.667406 15.874437 -27.077562 15.159594 -27.628344 13.835375 L -28.581469 14.311937 C -28.581469 14.311937 -28.581469 14.315844 -28.585375 14.315844 C -28.589281 14.31975 -28.597094 14.323656 -28.604906 14.327562 C -28.612719 14.331469 -28.628344 14.335375 -28.640062 14.343187 C -28.651781 14.347094 -28.671312 14.354906 -28.686937 14.362719 C -28.702562 14.366625 -28.733812 14.378344 -28.753344 14.386156 C -28.776781 14.393969 -28.808031 14.405687 -28.835375 14.4135 C -28.858812 14.421312 -28.901781 14.436937 -28.929125 14.44475 C -28.956469 14.456469 -29.00725 14.472094 -29.0385 14.479906 C -29.073656 14.491625 -29.128344 14.50725 -29.167406 14.518969 C -29.206469 14.526781 -29.272875 14.546312 -29.315844 14.558031 C -29.358812 14.565844 -29.433031 14.585375 -29.479906 14.593187 C -29.526781 14.604906 -29.608812 14.624437 -29.6635 14.63225 C -29.718187 14.643969 -29.808031 14.6635 -29.870531 14.675219 C -29.929125 14.683031 -30.026781 14.698656 -30.093187 14.710375 C -30.159594 14.718187 -30.268969 14.733812 -30.339281 14.741625 C -30.409594 14.753344 -30.530687 14.765062 -30.608812 14.772875 C -30.686937 14.784594 -30.81975 14.796312 -30.901781 14.800219 C -30.987719 14.808031 -31.13225 14.81975 -31.222094 14.823656 C -31.315844 14.827562 -31.472094 14.835375 -31.56975 14.839281 C -31.671312 14.839281 -31.839281 14.843187 -31.948656 14.843187 C -32.054125 14.843187 -32.233812 14.839281 -32.351 14.835375 C -32.468187 14.835375 -32.6635 14.827562 -32.7885 14.81975 C -32.917406 14.815844 -33.124437 14.800219 -33.261156 14.7885 C -33.397875 14.776781 -33.765062 14.741625 -33.765062 14.741625 C -34.0385 14.268969 -34.155687 13.979906 -34.296312 13.456469 C -34.296312 13.456469 -34.065844 13.171312 -33.976 13.065844 C -33.890062 12.964281 -33.749437 12.804125 -33.6635 12.706469 C -33.577562 12.612719 -33.448656 12.472094 -33.366625 12.390062 C -33.2885 12.304125 -33.159594 12.175219 -33.085375 12.097094 C -33.00725 12.018969 -32.886156 11.905687 -32.815844 11.835375 C -32.741625 11.765062 -32.628344 11.6635 -32.558031 11.601 C -32.491625 11.5385 -32.38225 11.44475 -32.31975 11.390062 C -32.253344 11.331469 -32.155687 11.249437 -32.093187 11.198656 C -32.030687 11.151781 -31.936937 11.073656 -31.878344 11.030687 C -31.823656 10.987719 -31.733812 10.921312 -31.679125 10.88225 C -31.628344 10.843187 -31.546312 10.780687 -31.495531 10.749437 C -31.44475 10.714281 -31.370531 10.659594 -31.323656 10.63225 C -31.276781 10.601 -31.206469 10.554125 -31.1635 10.526781 C -31.124437 10.499437 -31.061937 10.460375 -31.022875 10.440844 C -30.983812 10.417406 -30.925219 10.38225 -30.890062 10.362719 C -30.854906 10.343187 -30.804125 10.311937 -30.772875 10.296312 C -30.741625 10.280687 -30.698656 10.25725 -30.671312 10.241625 C -30.643969 10.229906 -30.604906 10.210375 -30.581469 10.198656 C -30.558031 10.186937 -30.522875 10.171312 -30.503344 10.1635 C -30.487719 10.151781 -30.460375 10.140062 -30.44475 10.136156 C -30.429125 10.128344 -30.405687 10.120531 -30.393969 10.112719 C -30.38225 10.108812 -30.366625 10.104906 -30.358812 10.101 C -30.351 10.097094 -30.339281 10.093187 -30.335375 10.093187 C -30.331469 10.093187 -30.331469 10.089281 -30.331469 10.089281 L -29.31975 9.753344 C -29.866625 8.433031 -30.081469 7.63225 -30.268969 6.214281 L -31.311937 6.425219 C -31.311937 6.425219 -31.315844 6.429125 -31.31975 6.429125 C -31.323656 6.429125 -31.331469 6.433031 -31.339281 6.433031 C -31.347094 6.433031 -31.366625 6.436937 -31.378344 6.440844 C -31.390062 6.440844 -31.409594 6.44475 -31.429125 6.44475 C -31.44475 6.448656 -31.476 6.452562 -31.499437 6.452562 C -31.518969 6.456469 -31.558031 6.456469 -31.581469 6.460375 C -31.608812 6.460375 -31.651781 6.464281 -31.683031 6.464281 C -31.714281 6.468187 -31.765062 6.468187 -31.800219 6.468187 C -31.831469 6.472094 -31.893969 6.472094 -31.933031 6.472094 C -31.972094 6.472094 -32.042406 6.472094 -32.085375 6.472094 C -32.128344 6.472094 -32.202562 6.468187 -32.253344 6.468187 C -32.304125 6.464281 -32.386156 6.460375 -32.440844 6.456469 C -32.495531 6.452562 -32.589281 6.44475 -32.651781 6.440844 C -32.710375 6.436937 -32.811937 6.425219 -32.874437 6.417406 C -32.940844 6.409594 -33.050219 6.397875 -33.124437 6.386156 C -33.19475 6.378344 -33.311937 6.358812 -33.390062 6.347094 C -33.468187 6.335375 -33.597094 6.311937 -33.683031 6.296312 C -33.768969 6.280687 -33.905687 6.253344 -33.995531 6.233812 C -34.089281 6.214281 -34.237719 6.183031 -34.335375 6.159594 C -34.433031 6.136156 -34.597094 6.093187 -34.698656 6.065844 C -34.804125 6.0385 -34.976 5.991625 -35.089281 5.956469 C -35.198656 5.925219 -35.386156 5.866625 -35.50725 5.827562 C -35.628344 5.7885 -35.827562 5.722094 -35.956469 5.675219 C -36.081469 5.628344 -36.433031 5.495531 -36.433031 5.495531 C -36.573656 4.972094 -36.612719 4.6635 -36.612719 4.120531 C -36.612719 4.120531 -36.311937 3.901781 -36.202562 3.823656 C -36.089281 3.749437 -35.9135 3.628344 -35.808031 3.561937 C -35.702562 3.491625 -35.5385 3.390062 -35.436937 3.327562 C -35.339281 3.268969 -35.183031 3.175219 -35.085375 3.120531 C -34.991625 3.065844 -34.847094 2.983812 -34.761156 2.936937 C -34.671312 2.890062 -34.534594 2.815844 -34.452562 2.776781 C -34.370531 2.733812 -34.241625 2.671312 -34.1635 2.636156 C -34.089281 2.597094 -33.972094 2.542406 -33.897875 2.511156 C -33.827562 2.479906 -33.714281 2.433031 -33.647875 2.401781 C -33.581469 2.374437 -33.479906 2.335375 -33.417406 2.308031 C -33.354906 2.284594 -33.261156 2.249437 -33.202562 2.229906 C -33.147875 2.206469 -33.058031 2.179125 -33.00725 2.159594 C -32.956469 2.143969 -32.874437 2.116625 -32.827562 2.101 C -32.780687 2.085375 -32.710375 2.065844 -32.667406 2.054125 C -32.624437 2.042406 -32.558031 2.022875 -32.518969 2.015062 C -32.479906 2.003344 -32.425219 1.987719 -32.390062 1.979906 C -32.354906 1.972094 -32.304125 1.960375 -32.276781 1.952562 C -32.245531 1.948656 -32.202562 1.940844 -32.179125 1.933031 C -32.151781 1.929125 -32.116625 1.921312 -32.097094 1.917406 C -32.073656 1.917406 -32.046312 1.909594 -32.030687 1.909594 C -32.011156 1.905687 -31.987719 1.901781 -31.976 1.901781 C -31.964281 1.901781 -31.948656 1.897875 -31.940844 1.897875 C -31.933031 1.897875 -31.917406 1.897875 -31.9135 1.893969 C -31.909594 1.893969 -31.909594 1.893969 -31.909594 1.893969 L -30.843187 1.831469 C -31.030687 0.417406 -31.030687 -0.414625 -30.843187 -1.832594 L -31.909594 -1.895094 C -31.909594 -1.895094 -31.909594 -1.895094 -31.9135 -1.895094 C -31.917406 -1.895094 -31.929125 -1.895094 -31.936937 -1.899 C -31.94475 -1.899 -31.964281 -1.899 -31.976 -1.902906 C -31.987719 -1.902906 -32.011156 -1.906813 -32.026781 -1.906813 C -32.042406 -1.910719 -32.073656 -1.914625 -32.097094 -1.918531 C -32.116625 -1.922438 -32.151781 -1.93025 -32.179125 -1.934156 C -32.202562 -1.938063 -32.245531 -1.949781 -32.276781 -1.953688 C -32.304125 -1.9615 -32.354906 -1.973219 -32.390062 -1.981031 C -32.425219 -1.988844 -32.479906 -2.004469 -32.518969 -2.012281 C -32.558031 -2.024 -32.624437 -2.039625 -32.667406 -2.05525 C -32.710375 -2.066969 -32.780687 -2.0865 -32.827562 -2.102125 C -32.874437 -2.11775 -32.956469 -2.141188 -33.00725 -2.160719 C -33.058031 -2.176344 -33.147875 -2.207594 -33.202562 -2.227125 C -33.261156 -2.250563 -33.354906 -2.285719 -33.417406 -2.309156 C -33.479906 -2.332594 -33.581469 -2.375563 -33.647875 -2.402906 C -33.714281 -2.43025 -33.823656 -2.477125 -33.893969 -2.512281 C -33.968187 -2.543531 -34.085375 -2.598219 -34.1635 -2.633375 C -34.241625 -2.672438 -34.370531 -2.734938 -34.452562 -2.777906 C -34.534594 -2.816969 -34.671312 -2.887281 -34.761156 -2.938063 C -34.847094 -2.984938 -34.991625 -3.066969 -35.085375 -3.121656 C -35.179125 -3.176344 -35.335375 -3.266188 -35.433031 -3.324781 C -35.534594 -3.387281 -35.702562 -3.49275 -35.808031 -3.559156 C -35.9135 -3.629469 -36.089281 -3.746656 -36.198656 -3.824781 C -36.311937 -3.902906 -36.612719 -4.11775 -36.612719 -4.11775 C -36.612719 -4.660719 -36.573656 -4.969313 -36.433031 -5.49275 C -36.433031 -5.49275 -36.085375 -5.625563 -35.960375 -5.672438 C -35.831469 -5.715406 -35.628344 -5.785719 -35.50725 -5.824781 C -35.390062 -5.863844 -35.202562 -5.918531 -35.093187 -5.953688 C -34.979906 -5.984938 -34.804125 -6.035719 -34.702562 -6.063063 C -34.597094 -6.090406 -34.433031 -6.133375 -34.335375 -6.156813 C -34.237719 -6.18025 -34.089281 -6.2115 -33.995531 -6.231031 C -33.905687 -6.250563 -33.765062 -6.277906 -33.683031 -6.293531 C -33.601 -6.309156 -33.472094 -6.332594 -33.393969 -6.344313 C -33.315844 -6.356031 -33.19475 -6.375563 -33.124437 -6.383375 C -33.050219 -6.395094 -32.940844 -6.406813 -32.874437 -6.414625 C -32.811937 -6.422438 -32.710375 -6.434156 -32.651781 -6.438063 C -32.589281 -6.441969 -32.495531 -6.449781 -32.440844 -6.453688 C -32.386156 -6.457594 -32.304125 -6.4615 -32.253344 -6.465406 C -32.202562 -6.465406 -32.13225 -6.469313 -32.085375 -6.469313 C -32.042406 -6.469313 -31.972094 -6.469313 -31.933031 -6.469313 C -31.893969 -6.469313 -31.835375 -6.469313 -31.800219 -6.465406 C -31.765062 -6.465406 -31.714281 -6.465406 -31.683031 -6.4615 C -31.651781 -6.4615 -31.608812 -6.457594 -31.585375 -6.457594 C -31.558031 -6.453688 -31.518969 -6.453688 -31.499437 -6.449781 C -31.479906 -6.449781 -31.448656 -6.445875 -31.433031 -6.441969 C -31.417406 -6.441969 -31.390062 -6.438063 -31.378344 -6.438063 C -31.366625 -6.434156 -31.351 -6.434156 -31.343187 -6.43025 C -31.335375 -6.43025 -31.323656 -6.426344 -31.31975 -6.426344 C -31.315844 -6.426344 -31.311937 -6.426344 -31.311937 -6.426344 L -30.268969 -6.2115 C -30.081469 -7.629469 -29.866625 -8.43025 -29.31975 -9.750563 L -30.331469 -10.0865 C -30.331469 -10.0865 -30.335375 -10.0865 -30.339281 -10.090406 C -30.339281 -10.090406 -30.351 -10.094313 -30.358812 -10.098219 C -30.366625 -10.098219 -30.38225 -10.106031 -30.393969 -10.109938 C -30.405687 -10.113844 -30.425219 -10.125563 -30.440844 -10.129469 C -30.456469 -10.137281 -30.487719 -10.149 -30.50725 -10.160719 C -30.526781 -10.168531 -30.558031 -10.184156 -30.581469 -10.195875 C -30.604906 -10.207594 -30.643969 -10.227125 -30.671312 -10.238844 C -30.698656 -10.254469 -30.745531 -10.277906 -30.772875 -10.293531 C -30.804125 -10.313063 -30.858812 -10.340406 -30.890062 -10.359938 C -30.925219 -10.379469 -30.983812 -10.414625 -31.022875 -10.438063 C -31.061937 -10.4615 -31.124437 -10.496656 -31.167406 -10.524 C -31.206469 -10.551344 -31.276781 -10.598219 -31.323656 -10.625563 C -31.370531 -10.656813 -31.448656 -10.7115 -31.495531 -10.74275 C -31.546312 -10.777906 -31.628344 -10.8365 -31.683031 -10.875563 C -31.733812 -10.914625 -31.823656 -10.984938 -31.878344 -11.027906 C -31.936937 -11.070875 -32.030687 -11.145094 -32.093187 -11.195875 C -32.151781 -11.246656 -32.253344 -11.328688 -32.31975 -11.387281 C -32.386156 -11.441969 -32.491625 -11.535719 -32.561937 -11.598219 C -32.628344 -11.656813 -32.741625 -11.762281 -32.815844 -11.832594 C -32.890062 -11.902906 -33.00725 -12.016188 -33.085375 -12.094313 C -33.1635 -12.168531 -33.284594 -12.297438 -33.366625 -12.383375 C -33.448656 -12.469313 -33.581469 -12.609938 -33.6635 -12.703688 C -33.749437 -12.797438 -33.890062 -12.957594 -33.976 -13.059156 C -34.065844 -13.164625 -34.300219 -13.453688 -34.300219 -13.453688 C -34.159594 -13.977125 -34.0385 -14.266188 -33.768969 -14.734938 C -33.768969 -14.734938 -33.401781 -14.774 -33.265062 -14.785719 C -33.128344 -14.797438 -32.917406 -14.809156 -32.792406 -14.816969 C -32.6635 -14.824781 -32.472094 -14.832594 -32.354906 -14.832594 C -32.237719 -14.8365 -32.058031 -14.840406 -31.948656 -14.840406 C -31.839281 -14.840406 -31.671312 -14.8365 -31.573656 -14.832594 C -31.472094 -14.832594 -31.31975 -14.824781 -31.226 -14.820875 C -31.13225 -14.816969 -30.991625 -14.80525 -30.905687 -14.797438 C -30.81975 -14.793531 -30.690844 -14.781813 -30.612719 -14.774 C -30.534594 -14.766188 -30.4135 -14.750563 -30.343187 -14.74275 C -30.268969 -14.731031 -30.159594 -14.715406 -30.093187 -14.707594 C -30.030687 -14.695875 -29.929125 -14.68025 -29.870531 -14.672438 C -29.811937 -14.660719 -29.718187 -14.641188 -29.6635 -14.633375 C -29.612719 -14.621656 -29.526781 -14.602125 -29.479906 -14.594313 C -29.433031 -14.582594 -29.358812 -14.563063 -29.315844 -14.55525 C -29.272875 -14.543531 -29.206469 -14.524 -29.171312 -14.516188 C -29.13225 -14.504469 -29.073656 -14.488844 -29.042406 -14.477125 C -29.00725 -14.469313 -28.956469 -14.453688 -28.929125 -14.441969 C -28.901781 -14.434156 -28.858812 -14.418531 -28.835375 -14.410719 C -28.811937 -14.402906 -28.776781 -14.391188 -28.75725 -14.383375 C -28.737719 -14.375563 -28.710375 -14.363844 -28.69475 -14.359938 C -28.679125 -14.352125 -28.651781 -14.344313 -28.643969 -14.340406 C -28.63225 -14.332594 -28.616625 -14.328688 -28.608812 -14.324781 C -28.601 -14.320875 -28.589281 -14.316969 -28.585375 -14.313063 C -28.581469 -14.313063 -28.581469 -14.309156 -28.581469 -14.309156 L -27.628344 -13.832594 C -27.081469 -15.156813 -26.667406 -15.871656 -25.796312 -17.008375 L -26.686937 -17.594313 C -26.686937 -17.594313 -26.686937 -17.594313 -26.690844 -17.598219 C -26.69475 -17.602125 -26.702562 -17.606031 -26.710375 -17.609938 C -26.714281 -17.613844 -26.729906 -17.625563 -26.741625 -17.633375 C -26.749437 -17.641188 -26.768969 -17.652906 -26.780687 -17.664625 C -26.792406 -17.676344 -26.81975 -17.695875 -26.835375 -17.707594 C -26.851 -17.723219 -26.88225 -17.746656 -26.901781 -17.762281 C -26.917406 -17.781813 -26.952562 -17.809156 -26.976 -17.828688 C -26.995531 -17.852125 -27.034594 -17.887281 -27.061937 -17.910719 C -27.085375 -17.934156 -27.128344 -17.973219 -27.155687 -18.000563 C -27.183031 -18.027906 -27.233812 -18.078688 -27.265062 -18.109938 C -27.296312 -18.145094 -27.347094 -18.195875 -27.378344 -18.231031 C -27.4135 -18.270094 -27.468187 -18.332594 -27.50725 -18.371656 C -27.542406 -18.414625 -27.604906 -18.484938 -27.643969 -18.531813 C -27.683031 -18.578688 -27.745531 -18.656813 -27.784594 -18.707594 C -27.827562 -18.758375 -27.893969 -18.848219 -27.940844 -18.902906 C -27.983812 -18.9615 -28.054125 -19.059156 -28.101 -19.121656 C -28.143969 -19.184156 -28.222094 -19.293531 -28.268969 -19.363844 C -28.31975 -19.434156 -28.397875 -19.551344 -28.448656 -19.629469 C -28.499437 -19.707594 -28.581469 -19.8365 -28.636156 -19.922438 C -28.686937 -20.008375 -28.772875 -20.152906 -28.827562 -20.246656 C -28.88225 -20.340406 -28.968187 -20.496656 -29.022875 -20.598219 C -29.081469 -20.699781 -29.171312 -20.875563 -29.229906 -20.988844 C -29.2885 -21.098219 -29.378344 -21.285719 -29.436937 -21.410719 C -29.495531 -21.531813 -29.647875 -21.871656 -29.647875 -21.871656 C -29.378344 -22.344313 -29.186937 -22.590406 -28.804125 -22.977125 C -28.804125 -22.977125 -28.436937 -22.918531 -28.304125 -22.891188 C -28.171312 -22.86775 -27.960375 -22.824781 -27.835375 -22.801344 C -27.714281 -22.774 -27.526781 -22.731031 -27.4135 -22.703688 C -27.300219 -22.676344 -27.120531 -22.633375 -27.018969 -22.602125 C -26.9135 -22.574781 -26.753344 -22.527906 -26.655687 -22.500563 C -26.561937 -22.473219 -26.4135 -22.426344 -26.323656 -22.399 C -26.237719 -22.36775 -26.101 -22.320875 -26.022875 -22.293531 C -25.940844 -22.266188 -25.81975 -22.223219 -25.745531 -22.191969 C -25.671312 -22.164625 -25.558031 -22.121656 -25.491625 -22.094313 C -25.425219 -22.066969 -25.323656 -22.024 -25.261156 -21.996656 C -25.202562 -21.969313 -25.108812 -21.93025 -25.054125 -21.902906 C -24.999437 -21.879469 -24.917406 -21.8365 -24.866625 -21.813063 C -24.815844 -21.785719 -24.741625 -21.750563 -24.698656 -21.727125 C -24.655687 -21.703688 -24.589281 -21.668531 -24.550219 -21.645094 C -24.511156 -21.625563 -24.452562 -21.590406 -24.417406 -21.570875 C -24.38225 -21.551344 -24.335375 -21.520094 -24.304125 -21.500563 C -24.272875 -21.484938 -24.229906 -21.457594 -24.206469 -21.441969 C -24.179125 -21.422438 -24.143969 -21.399 -24.120531 -21.383375 C -24.101 -21.371656 -24.06975 -21.348219 -24.050219 -21.3365 C -24.034594 -21.324781 -24.011156 -21.309156 -23.999437 -21.297438 C -23.983812 -21.285719 -23.964281 -21.270094 -23.952562 -21.266188 C -23.94475 -21.258375 -23.933031 -21.246656 -23.925219 -21.24275 C -23.921312 -21.238844 -23.909594 -21.227125 -23.909594 -21.227125 C -23.905687 -21.223219 -23.901781 -21.223219 -23.901781 -21.223219 L -23.104906 -20.512281 C -22.233812 -21.652906 -21.651781 -22.231031 -20.515062 -23.106031 L -21.222094 -23.902906 C -21.222094 -23.902906 -21.222094 -23.902906 -21.226 -23.906813 C -21.229906 -23.910719 -21.233812 -23.918531 -21.241625 -23.926344 C -21.245531 -23.93025 -21.25725 -23.945875 -21.265062 -23.953688 C -21.272875 -23.965406 -21.284594 -23.981031 -21.296312 -23.996656 C -21.304125 -24.008375 -21.323656 -24.035719 -21.339281 -24.051344 C -21.351 -24.070875 -21.370531 -24.098219 -21.386156 -24.121656 C -21.397875 -24.141188 -21.425219 -24.18025 -21.440844 -24.203688 C -21.456469 -24.231031 -21.483812 -24.274 -21.503344 -24.30525 C -21.518969 -24.332594 -21.550219 -24.383375 -21.56975 -24.418531 C -21.589281 -24.453688 -21.624437 -24.512281 -21.647875 -24.551344 C -21.667406 -24.590406 -21.702562 -24.656813 -21.726 -24.699781 C -21.749437 -24.74275 -21.7885 -24.816969 -21.811937 -24.86775 C -21.835375 -24.914625 -21.878344 -25.000563 -21.901781 -25.05525 C -21.929125 -25.109938 -21.968187 -25.203688 -21.995531 -25.262281 C -22.022875 -25.324781 -22.065844 -25.426344 -22.093187 -25.49275 C -22.120531 -25.559156 -22.1635 -25.668531 -22.190844 -25.74275 C -22.218187 -25.816969 -22.265062 -25.941969 -22.292406 -26.020094 C -22.323656 -26.102125 -22.370531 -26.238844 -22.397875 -26.324781 C -22.425219 -26.414625 -22.472094 -26.559156 -22.503344 -26.656813 C -22.530687 -26.750563 -22.577562 -26.914625 -22.604906 -27.016188 C -22.63225 -27.121656 -22.675219 -27.293531 -22.702562 -27.406813 C -22.729906 -27.524 -22.772875 -27.715406 -22.800219 -27.8365 C -22.827562 -27.9615 -22.866625 -28.168531 -22.890062 -28.301344 C -22.917406 -28.434156 -22.976 -28.801344 -22.976 -28.801344 C -22.593187 -29.184156 -22.347094 -29.375563 -21.878344 -29.645094 C -21.878344 -29.645094 -21.5385 -29.49275 -21.417406 -29.438063 C -21.292406 -29.379469 -21.101 -29.285719 -20.987719 -29.227125 C -20.878344 -29.168531 -20.706469 -29.078688 -20.604906 -29.024 C -20.499437 -28.969313 -20.343187 -28.879469 -20.249437 -28.824781 C -20.155687 -28.770094 -20.011156 -28.684156 -19.925219 -28.633375 C -19.843187 -28.578688 -19.710375 -28.496656 -19.63225 -28.445875 C -19.554125 -28.395094 -19.436937 -28.316969 -19.366625 -28.270094 C -19.296312 -28.219313 -19.190844 -28.145094 -19.124437 -28.102125 C -19.061937 -28.05525 -18.964281 -27.981031 -18.905687 -27.938063 C -18.847094 -27.891188 -18.761156 -27.824781 -18.710375 -27.781813 C -18.659594 -27.74275 -18.581469 -27.68025 -18.534594 -27.641188 C -18.487719 -27.602125 -18.417406 -27.539625 -18.374437 -27.504469 C -18.335375 -27.465406 -18.272875 -27.410719 -18.237719 -27.375563 C -18.198656 -27.344313 -18.143969 -27.293531 -18.112719 -27.262281 C -18.081469 -27.231031 -18.034594 -27.184156 -18.003344 -27.152906 C -17.976 -27.125563 -17.936937 -27.082594 -17.9135 -27.059156 C -17.890062 -27.035719 -17.851 -26.996656 -17.831469 -26.973219 C -17.811937 -26.949781 -17.784594 -26.918531 -17.765062 -26.899 C -17.749437 -26.879469 -17.726 -26.852125 -17.710375 -26.832594 C -17.698656 -26.816969 -17.679125 -26.793531 -17.671312 -26.781813 C -17.659594 -26.770094 -17.643969 -26.746656 -17.636156 -26.738844 C -17.628344 -26.727125 -17.620531 -26.719313 -17.616625 -26.7115 C -17.608812 -26.703688 -17.604906 -26.691969 -17.601 -26.688063 C -17.597094 -26.684156 -17.597094 -26.684156 -17.597094 -26.684156 L -17.011156 -25.793531 C -15.874437 -26.664625 -15.159594 -27.078688 -13.835375 -27.625563 L -14.311937 -28.578688 C -14.311937 -28.578688 -14.315844 -28.582594 -14.315844 -28.5865 C -14.31975 -28.590406 -14.323656 -28.598219 -14.327562 -28.606031 C -14.331469 -28.613844 -14.335375 -28.629469 -14.343187 -28.641188 C -14.347094 -28.652906 -14.354906 -28.672438 -14.362719 -28.688063 C -14.366625 -28.703688 -14.378344 -28.734938 -14.386156 -28.754469 C -14.393969 -28.774 -14.405687 -28.809156 -14.4135 -28.832594 C -14.421312 -28.856031 -14.436937 -28.899 -14.44475 -28.93025 C -14.456469 -28.957594 -14.472094 -29.008375 -14.479906 -29.039625 C -14.491625 -29.074781 -14.50725 -29.129469 -14.518969 -29.168531 C -14.526781 -29.207594 -14.546312 -29.274 -14.558031 -29.316969 C -14.565844 -29.359938 -14.585375 -29.43025 -14.593187 -29.481031 C -14.604906 -29.527906 -14.624437 -29.609938 -14.63225 -29.664625 C -14.643969 -29.719313 -14.6635 -29.809156 -14.675219 -29.86775 C -14.683031 -29.93025 -14.698656 -30.027906 -14.710375 -30.094313 C -14.718187 -30.160719 -14.733812 -30.270094 -14.741625 -30.340406 C -14.753344 -30.410719 -14.765062 -30.531813 -14.772875 -30.609938 C -14.784594 -30.688063 -14.796312 -30.816969 -14.800219 -30.902906 C -14.808031 -30.988844 -14.81975 -31.129469 -14.823656 -31.223219 C -14.827562 -31.316969 -14.835375 -31.469313 -14.839281 -31.570875 C -14.839281 -31.672438 -14.843187 -31.840406 -14.843187 -31.945875 C -14.843187 -32.05525 -14.839281 -32.234938 -14.835375 -32.348219 C -14.835375 -32.465406 -14.827562 -32.664625 -14.81975 -32.789625 C -14.815844 -32.914625 -14.800219 -33.125563 -14.7885 -33.262281 C -14.776781 -33.395094 -14.741625 -33.766188 -14.741625 -33.766188 C -14.268969 -34.035719 -13.979906 -34.156813 -13.456469 -34.297438 C -13.456469 -34.297438 -13.171312 -34.066969 -13.065844 -33.977125 C -12.964281 -33.891188 -12.804125 -33.746656 -12.706469 -33.664625 C -12.612719 -33.578688 -12.472094 -33.449781 -12.390062 -33.36775 C -12.304125 -33.285719 -12.175219 -33.160719 -12.097094 -33.082594 C -12.018969 -33.008375 -11.905687 -32.887281 -11.835375 -32.813063 C -11.765062 -32.74275 -11.6635 -32.629469 -11.601 -32.559156 C -11.5385 -32.488844 -11.44475 -32.383375 -11.390062 -32.316969 C -11.331469 -32.254469 -11.249437 -32.152906 -11.198656 -32.094313 C -11.151781 -32.031813 -11.073656 -31.938063 -11.030687 -31.879469 C -10.987719 -31.820875 -10.921312 -31.734938 -10.88225 -31.68025 C -10.843187 -31.625563 -10.780687 -31.547438 -10.749437 -31.496656 C -10.714281 -31.445875 -10.659594 -31.36775 -10.63225 -31.324781 C -10.601 -31.277906 -10.554125 -31.207594 -10.526781 -31.164625 C -10.499437 -31.121656 -10.460375 -31.059156 -10.440844 -31.024 C -10.417406 -30.984938 -10.38225 -30.922438 -10.362719 -30.891188 C -10.343187 -30.856031 -10.311937 -30.80525 -10.296312 -30.774 C -10.280687 -30.74275 -10.25725 -30.695875 -10.241625 -30.668531 C -10.229906 -30.645094 -10.210375 -30.602125 -10.198656 -30.582594 C -10.186937 -30.559156 -10.171312 -30.524 -10.1635 -30.504469 C -10.151781 -30.484938 -10.140062 -30.457594 -10.136156 -30.441969 C -10.128344 -30.426344 -10.120531 -30.402906 -10.112719 -30.391188 C -10.108812 -30.379469 -10.104906 -30.36775 -10.101 -30.359938 C -10.097094 -30.352125 -10.093187 -30.340406 -10.093187 -30.3365 C -10.093187 -30.332594 -10.089281 -30.328688 -10.089281 -30.328688 L -9.753344 -29.316969 C -8.433031 -29.86775 -7.63225 -30.078688 -6.214281 -30.266188 L -6.425219 -31.313063 C -6.425219 -31.313063 -6.429125 -31.313063 -6.429125 -31.316969 C -6.429125 -31.320875 -6.433031 -31.332594 -6.433031 -31.340406 C -6.433031 -31.348219 -6.436937 -31.363844 -6.440844 -31.379469 C -6.440844 -31.391188 -6.44475 -31.410719 -6.44475 -31.426344 C -6.448656 -31.445875 -6.452562 -31.477125 -6.452562 -31.500563 C -6.456469 -31.520094 -6.456469 -31.559156 -6.460375 -31.582594 C -6.460375 -31.609938 -6.464281 -31.652906 -6.464281 -31.684156 C -6.468187 -31.7115 -6.468187 -31.762281 -6.468187 -31.797438 C -6.472094 -31.832594 -6.472094 -31.891188 -6.472094 -31.93025 C -6.472094 -31.973219 -6.472094 -32.039625 -6.472094 -32.0865 C -6.472094 -32.129469 -6.468187 -32.203688 -6.468187 -32.254469 C -6.464281 -32.301344 -6.460375 -32.387281 -6.456469 -32.441969 C -6.452562 -32.496656 -6.44475 -32.590406 -6.440844 -32.649 C -6.436937 -32.7115 -6.425219 -32.809156 -6.417406 -32.875563 C -6.409594 -32.941969 -6.397875 -33.051344 -6.386156 -33.121656 C -6.378344 -33.195875 -6.358812 -33.313063 -6.347094 -33.391188 C -6.335375 -33.469313 -6.311937 -33.598219 -6.296312 -33.684156 C -6.280687 -33.766188 -6.253344 -33.906813 -6.233812 -33.996656 C -6.214281 -34.0865 -6.183031 -34.238844 -6.159594 -34.3365 C -6.136156 -34.434156 -6.093187 -34.594313 -6.065844 -34.699781 C -6.0385 -34.80525 -5.991625 -34.977125 -5.956469 -35.0865 C -5.925219 -35.199781 -5.866625 -35.387281 -5.827562 -35.508375 C -5.7885 -35.629469 -5.722094 -35.828688 -5.675219 -35.953688 C -5.628344 -36.082594 -5.495531 -36.43025 -5.495531 -36.43025 C -4.972094 -36.570875 -4.6635 -36.613844 -4.120531 -36.613844 C -4.120531 -36.613844 -3.901781 -36.313063 -3.823656 -36.199781 C -3.749437 -36.090406 -3.628344 -35.914625 -3.561937 -35.80525 C -3.491625 -35.699781 -3.390062 -35.535719 -3.327562 -35.438063 C -3.268969 -35.3365 -3.175219 -35.18025 -3.120531 -35.0865 C -3.065844 -34.99275 -2.983812 -34.848219 -2.936937 -34.758375 C -2.890062 -34.672438 -2.815844 -34.535719 -2.776781 -34.453688 C -2.733812 -34.36775 -2.671312 -34.24275 -2.636156 -34.164625 C -2.597094 -34.0865 -2.542406 -33.969313 -2.511156 -33.899 C -2.479906 -33.824781 -2.433031 -33.715406 -2.401781 -33.649 C -2.374437 -33.578688 -2.335375 -33.477125 -2.308031 -33.414625 C -2.284594 -33.356031 -2.249437 -33.262281 -2.229906 -33.203688 C -2.206469 -33.149 -2.179125 -33.059156 -2.159594 -33.008375 C -2.143969 -32.953688 -2.116625 -32.875563 -2.101 -32.828688 C -2.085375 -32.781813 -2.065844 -32.7115 -2.054125 -32.668531 C -2.042406 -32.625563 -2.022875 -32.559156 -2.015062 -32.520094 C -2.003344 -32.481031 -1.987719 -32.422438 -1.979906 -32.391188 C -1.972094 -32.356031 -1.960375 -32.30525 -1.952562 -32.277906 C -1.948656 -32.246656 -1.940844 -32.203688 -1.933031 -32.176344 C -1.929125 -32.152906 -1.921312 -32.11775 -1.917406 -32.094313 C -1.917406 -32.074781 -1.909594 -32.047438 -1.909594 -32.027906 C -1.905687 -32.012281 -1.901781 -31.988844 -1.901781 -31.973219 C -1.901781 -31.9615 -1.897875 -31.949781 -1.897875 -31.938063 C -1.897875 -31.93025 -1.897875 -31.918531 -1.893969 -31.914625 C -1.893969 -31.910719 -1.893969 -31.906813 -1.893969 -31.906813 L -1.831469 -30.844313 C -0.417406 -31.031813 0.414625 -31.031813 1.832594 -30.844313 L 1.895094 -31.906813 C 1.895094 -31.906813 1.895094 -31.910719 1.895094 -31.914625 C 1.895094 -31.918531 1.895094 -31.926344 1.899 -31.938063 C 1.899 -31.945875 1.899 -31.9615 1.902906 -31.973219 C 1.902906 -31.988844 1.906813 -32.008375 1.906813 -32.027906 C 1.910719 -32.043531 1.914625 -32.074781 1.918531 -32.094313 C 1.922438 -32.11775 1.93025 -32.152906 1.934156 -32.176344 C 1.938063 -32.203688 1.949781 -32.246656 1.953688 -32.277906 C 1.9615 -32.30525 1.973219 -32.356031 1.981031 -32.391188 C 1.988844 -32.422438 2.004469 -32.481031 2.012281 -32.520094 C 2.024 -32.559156 2.039625 -32.625563 2.05525 -32.668531 C 2.066969 -32.7115 2.0865 -32.781813 2.102125 -32.828688 C 2.11775 -32.875563 2.141188 -32.953688 2.160719 -33.008375 C 2.176344 -33.059156 2.207594 -33.149 2.227125 -33.203688 C 2.250563 -33.262281 2.285719 -33.356031 2.309156 -33.414625 C 2.332594 -33.477125 2.375563 -33.582594 2.402906 -33.649 C 2.43025 -33.715406 2.477125 -33.824781 2.512281 -33.895094 C 2.543531 -33.965406 2.598219 -34.0865 2.633375 -34.164625 C 2.672438 -34.24275 2.734938 -34.36775 2.777906 -34.449781 C 2.816969 -34.535719 2.887281 -34.672438 2.938063 -34.758375 C 2.984938 -34.848219 3.066969 -34.99275 3.121656 -35.0865 C 3.176344 -35.18025 3.266188 -35.332594 3.324781 -35.434156 C 3.387281 -35.535719 3.49275 -35.699781 3.559156 -35.80525 C 3.629469 -35.914625 3.746656 -36.0865 3.824781 -36.199781 C 3.902906 -36.313063 4.11775 -36.613844 4.11775 -36.613844 C 4.660719 -36.613844 4.969313 -36.570875 5.49275 -36.43025 C 5.49275 -36.43025 5.625563 -36.0865 5.672438 -35.957594 C 5.715406 -35.828688 5.785719 -35.629469 5.824781 -35.508375 C 5.863844 -35.387281 5.918531 -35.203688 5.953688 -35.090406 C 5.984938 -34.981031 6.035719 -34.80525 6.063063 -34.699781 C 6.090406 -34.598219 6.133375 -34.434156 6.156813 -34.3365 C 6.18025 -34.238844 6.2115 -34.0865 6.231031 -33.996656 C 6.250563 -33.906813 6.277906 -33.766188 6.293531 -33.684156 C 6.309156 -33.598219 6.332594 -33.469313 6.344313 -33.395094 C 6.356031 -33.316969 6.375563 -33.195875 6.383375 -33.125563 C 6.395094 -33.051344 6.406813 -32.941969 6.414625 -32.875563 C 6.422438 -32.809156 6.434156 -32.7115 6.438063 -32.652906 C 6.441969 -32.590406 6.449781 -32.496656 6.453688 -32.441969 C 6.457594 -32.387281 6.4615 -32.301344 6.465406 -32.254469 C 6.465406 -32.203688 6.469313 -32.129469 6.469313 -32.0865 C 6.469313 -32.043531 6.469313 -31.973219 6.469313 -31.934156 C 6.469313 -31.891188 6.469313 -31.832594 6.465406 -31.797438 C 6.465406 -31.762281 6.465406 -31.7115 6.4615 -31.684156 C 6.4615 -31.652906 6.457594 -31.609938 6.457594 -31.582594 C 6.453688 -31.559156 6.453688 -31.520094 6.449781 -31.500563 C 6.449781 -31.477125 6.445875 -31.449781 6.441969 -31.434156 C 6.441969 -31.414625 6.438063 -31.391188 6.438063 -31.379469 C 6.434156 -31.363844 6.434156 -31.352125 6.43025 -31.344313 C 6.43025 -31.3365 6.426344 -31.320875 6.426344 -31.316969 C 6.426344 -31.313063 6.426344 -31.313063 6.426344 -31.313063 L 6.2115 -30.266188 C 7.629469 -30.082594 8.43025 -29.86775 9.750563 -29.320875 L 10.0865 -30.332594 C 10.0865 -30.332594 10.0865 -30.332594 10.090406 -30.3365 C 10.090406 -30.340406 10.094313 -30.352125 10.098219 -30.359938 C 10.098219 -30.36775 10.106031 -30.383375 10.109938 -30.395094 C 10.113844 -30.406813 10.125563 -30.426344 10.129469 -30.441969 C 10.137281 -30.457594 10.149 -30.484938 10.160719 -30.504469 C 10.168531 -30.524 10.184156 -30.559156 10.195875 -30.582594 C 10.207594 -30.606031 10.227125 -30.645094 10.238844 -30.672438 C 10.254469 -30.699781 10.277906 -30.74275 10.293531 -30.774 C 10.313063 -30.80525 10.340406 -30.856031 10.359938 -30.891188 C 10.379469 -30.926344 10.414625 -30.984938 10.438063 -31.024 C 10.4615 -31.063063 10.496656 -31.125563 10.524 -31.164625 C 10.551344 -31.207594 10.598219 -31.277906 10.625563 -31.324781 C 10.656813 -31.371656 10.7115 -31.445875 10.74275 -31.496656 C 10.777906 -31.547438 10.8365 -31.629469 10.875563 -31.68025 C 10.914625 -31.734938 10.984938 -31.824781 11.027906 -31.879469 C 11.070875 -31.938063 11.145094 -32.031813 11.195875 -32.090406 C 11.246656 -32.152906 11.328688 -32.254469 11.387281 -32.320875 C 11.441969 -32.383375 11.535719 -32.49275 11.598219 -32.559156 C 11.656813 -32.629469 11.762281 -32.74275 11.832594 -32.816969 C 11.902906 -32.887281 12.016188 -33.008375 12.094313 -33.0865 C 12.168531 -33.160719 12.297438 -33.285719 12.383375 -33.36775 C 12.469313 -33.445875 12.609938 -33.582594 12.703688 -33.664625 C 12.797438 -33.750563 12.957594 -33.887281 13.059156 -33.977125 C 13.164625 -34.063063 13.453688 -34.301344 13.453688 -34.301344 C 13.977125 -34.160719 14.266188 -34.039625 14.734938 -33.766188 C 14.734938 -33.766188 14.774 -33.399 14.785719 -33.266188 C 14.797438 -33.129469 14.809156 -32.918531 14.816969 -32.789625 C 14.824781 -32.664625 14.832594 -32.473219 14.832594 -32.356031 C 14.8365 -32.238844 14.840406 -32.05525 14.840406 -31.949781 C 14.840406 -31.840406 14.8365 -31.672438 14.832594 -31.570875 C 14.832594 -31.473219 14.824781 -31.316969 14.820875 -31.227125 C 14.816969 -31.133375 14.80525 -30.988844 14.797438 -30.906813 C 14.793531 -30.820875 14.781813 -30.691969 14.774 -30.613844 C 14.766188 -30.535719 14.750563 -30.414625 14.74275 -30.340406 C 14.731031 -30.270094 14.715406 -30.160719 14.707594 -30.094313 C 14.695875 -30.027906 14.68025 -29.93025 14.672438 -29.871656 C 14.660719 -29.809156 14.641188 -29.719313 14.633375 -29.664625 C 14.621656 -29.609938 14.602125 -29.527906 14.594313 -29.481031 C 14.582594 -29.434156 14.563063 -29.359938 14.55525 -29.316969 C 14.543531 -29.274 14.524 -29.207594 14.516188 -29.168531 C 14.504469 -29.129469 14.488844 -29.074781 14.477125 -29.039625 C 14.469313 -29.008375 14.453688 -28.957594 14.441969 -28.93025 C 14.434156 -28.902906 14.418531 -28.859938 14.410719 -28.8365 C 14.402906 -28.813063 14.391188 -28.774 14.383375 -28.754469 C 14.375563 -28.734938 14.363844 -28.707594 14.359938 -28.691969 C 14.352125 -28.676344 14.344313 -28.652906 14.340406 -28.641188 C 14.332594 -28.629469 14.328688 -28.61775 14.324781 -28.609938 C 14.320875 -28.602125 14.316969 -28.590406 14.313063 -28.5865 C 14.313063 -28.582594 14.309156 -28.582594 14.309156 -28.582594 L 13.832594 -27.629469 C 15.156813 -27.078688 15.871656 -26.668531 17.008375 -25.793531 L 17.594313 -26.684156 C 17.594313 -26.684156 17.594313 -26.688063 17.598219 -26.691969 C 17.602125 -26.695875 17.606031 -26.703688 17.609938 -26.707594 C 17.613844 -26.715406 17.625563 -26.731031 17.633375 -26.738844 C 17.641188 -26.750563 17.652906 -26.766188 17.664625 -26.781813 C 17.676344 -26.793531 17.695875 -26.820875 17.707594 -26.8365 C 17.723219 -26.852125 17.746656 -26.879469 17.762281 -26.899 C 17.781813 -26.918531 17.809156 -26.953688 17.828688 -26.973219 C 17.852125 -26.996656 17.887281 -27.035719 17.910719 -27.059156 C 17.934156 -27.0865 17.973219 -27.129469 18.000563 -27.156813 C 18.027906 -27.184156 18.078688 -27.234938 18.109938 -27.262281 C 18.145094 -27.293531 18.195875 -27.344313 18.231031 -27.379469 C 18.270094 -27.414625 18.332594 -27.469313 18.371656 -27.504469 C 18.414625 -27.543531 18.484938 -27.602125 18.531813 -27.641188 C 18.578688 -27.68025 18.656813 -27.74275 18.707594 -27.785719 C 18.758375 -27.828688 18.848219 -27.895094 18.902906 -27.938063 C 18.9615 -27.981031 19.059156 -28.05525 19.121656 -28.098219 C 19.184156 -28.145094 19.293531 -28.223219 19.363844 -28.270094 C 19.434156 -28.316969 19.551344 -28.399 19.629469 -28.449781 C 19.707594 -28.500563 19.8365 -28.582594 19.922438 -28.633375 C 20.008375 -28.688063 20.152906 -28.774 20.246656 -28.828688 C 20.340406 -28.879469 20.496656 -28.969313 20.598219 -29.024 C 20.699781 -29.078688 20.875563 -29.172438 20.988844 -29.231031 C 21.098219 -29.285719 21.285719 -29.379469 21.410719 -29.438063 C 21.531813 -29.496656 21.871656 -29.649 21.871656 -29.649 C 22.344313 -29.375563 22.590406 -29.188063 22.977125 -28.801344 C 22.977125 -28.801344 22.918531 -28.438063 22.891188 -28.30525 C 22.86775 -28.168531 22.824781 -27.9615 22.801344 -27.8365 C 22.774 -27.715406 22.731031 -27.524 22.703688 -27.410719 C 22.676344 -27.297438 22.633375 -27.121656 22.602125 -27.016188 C 22.574781 -26.914625 22.527906 -26.754469 22.500563 -26.656813 C 22.473219 -26.559156 22.426344 -26.414625 22.399 -26.324781 C 22.36775 -26.234938 22.320875 -26.102125 22.293531 -26.020094 C 22.266188 -25.941969 22.223219 -25.820875 22.191969 -25.746656 C 22.164625 -25.672438 22.121656 -25.559156 22.094313 -25.49275 C 22.066969 -25.426344 22.024 -25.324781 21.996656 -25.262281 C 21.969313 -25.203688 21.93025 -25.109938 21.902906 -25.05525 C 21.879469 -25.000563 21.8365 -24.914625 21.813063 -24.86775 C 21.785719 -24.816969 21.750563 -24.74275 21.727125 -24.699781 C 21.703688 -24.656813 21.668531 -24.590406 21.645094 -24.551344 C 21.625563 -24.512281 21.590406 -24.453688 21.570875 -24.418531 C 21.551344 -24.383375 21.520094 -24.332594 21.500563 -24.30525 C 21.484938 -24.274 21.457594 -24.231031 21.441969 -24.203688 C 21.422438 -24.18025 21.399 -24.141188 21.383375 -24.121656 C 21.371656 -24.098219 21.348219 -24.070875 21.3365 -24.051344 C 21.324781 -24.035719 21.309156 -24.012281 21.297438 -23.996656 C 21.285719 -23.984938 21.270094 -23.965406 21.266188 -23.953688 C 21.258375 -23.945875 21.246656 -23.934156 21.24275 -23.926344 C 21.238844 -23.922438 21.227125 -23.910719 21.227125 -23.906813 C 21.223219 -23.902906 21.223219 -23.902906 21.223219 -23.902906 L 20.512281 -23.106031 C 21.652906 -22.231031 22.231031 -21.652906 23.106031 -20.512281 L 23.902906 -21.223219 C 23.902906 -21.223219 23.902906 -21.223219 23.906813 -21.227125 C 23.910719 -21.227125 23.918531 -21.234938 23.926344 -21.238844 C 23.93025 -21.246656 23.945875 -21.258375 23.953688 -21.266188 C 23.965406 -21.270094 23.981031 -21.285719 23.996656 -21.293531 C 24.008375 -21.30525 24.035719 -21.324781 24.051344 -21.3365 C 24.070875 -21.348219 24.098219 -21.371656 24.121656 -21.383375 C 24.141188 -21.399 24.18025 -21.422438 24.203688 -21.441969 C 24.231031 -21.457594 24.274 -21.484938 24.30525 -21.500563 C 24.332594 -21.520094 24.383375 -21.551344 24.418531 -21.570875 C 24.453688 -21.590406 24.512281 -21.625563 24.551344 -21.645094 C 24.590406 -21.668531 24.656813 -21.703688 24.699781 -21.727125 C 24.74275 -21.750563 24.816969 -21.785719 24.86775 -21.813063 C 24.914625 -21.8365 25.000563 -21.879469 25.05525 -21.902906 C 25.109938 -21.93025 25.203688 -21.969313 25.262281 -21.996656 C 25.324781 -22.024 25.426344 -22.066969 25.49275 -22.094313 C 25.559156 -22.121656 25.668531 -22.164625 25.74275 -22.191969 C 25.816969 -22.219313 25.941969 -22.266188 26.020094 -22.293531 C 26.102125 -22.320875 26.238844 -22.36775 26.324781 -22.399 C 26.414625 -22.426344 26.559156 -22.473219 26.656813 -22.500563 C 26.750563 -22.531813 26.914625 -22.574781 27.016188 -22.602125 C 27.121656 -22.633375 27.293531 -22.676344 27.406813 -22.703688 C 27.524 -22.731031 27.715406 -22.774 27.8365 -22.801344 C 27.9615 -22.824781 28.168531 -22.86775 28.301344 -22.891188 C 28.434156 -22.914625 28.801344 -22.977125 28.801344 -22.977125 C 29.184156 -22.590406 29.375563 -22.348219 29.645094 -21.875563 C 29.645094 -21.875563 29.49275 -21.539625 29.438063 -21.414625 C 29.379469 -21.293531 29.285719 -21.102125 29.227125 -20.988844 C 29.168531 -20.875563 29.078688 -20.707594 29.024 -20.602125 C 28.969313 -20.500563 28.879469 -20.344313 28.824781 -20.250563 C 28.770094 -20.156813 28.684156 -20.012281 28.633375 -19.926344 C 28.578688 -19.840406 28.496656 -19.7115 28.445875 -19.633375 C 28.395094 -19.55525 28.316969 -19.438063 28.270094 -19.36775 C 28.219313 -19.297438 28.145094 -19.188063 28.102125 -19.125563 C 28.05525 -19.063063 27.981031 -18.965406 27.938063 -18.906813 C 27.891188 -18.848219 27.824781 -18.762281 27.781813 -18.7115 C 27.74275 -18.656813 27.68025 -18.582594 27.641188 -18.535719 C 27.602125 -18.488844 27.539625 -18.418531 27.504469 -18.375563 C 27.465406 -18.332594 27.410719 -18.274 27.375563 -18.234938 C 27.344313 -18.199781 27.293531 -18.145094 27.262281 -18.113844 C 27.231031 -18.082594 27.184156 -18.031813 27.152906 -18.004469 C 27.125563 -17.977125 27.082594 -17.938063 27.059156 -17.910719 C 27.035719 -17.887281 26.996656 -17.852125 26.973219 -17.832594 C 26.949781 -17.813063 26.918531 -17.781813 26.899 -17.766188 C 26.879469 -17.750563 26.852125 -17.727125 26.832594 -17.7115 C 26.816969 -17.699781 26.793531 -17.68025 26.781813 -17.668531 C 26.770094 -17.660719 26.746656 -17.645094 26.738844 -17.637281 C 26.727125 -17.629469 26.719313 -17.621656 26.7115 -17.613844 C 26.703688 -17.609938 26.691969 -17.602125 26.688063 -17.602125 C 26.684156 -17.598219 26.684156 -17.598219 26.684156 -17.598219 L 25.793531 -17.012281 C 26.664625 -15.871656 27.078688 -15.160719 27.625563 -13.8365 L 28.578688 -14.313063 C 28.578688 -14.313063 28.582594 -14.313063 28.5865 -14.316969 C 28.590406 -14.316969 28.598219 -14.320875 28.606031 -14.324781 C 28.613844 -14.328688 28.629469 -14.3365 28.641188 -14.340406 C 28.652906 -14.348219 28.672438 -14.356031 28.688063 -14.359938 C 28.703688 -14.36775 28.734938 -14.379469 28.754469 -14.387281 C 28.774 -14.395094 28.809156 -14.406813 28.832594 -14.414625 C 28.856031 -14.422438 28.899 -14.438063 28.93025 -14.445875 C 28.957594 -14.453688 29.008375 -14.469313 29.039625 -14.481031 C 29.074781 -14.49275 29.129469 -14.508375 29.168531 -14.516188 C 29.207594 -14.527906 29.274 -14.547438 29.316969 -14.55525 C 29.359938 -14.566969 29.43025 -14.582594 29.481031 -14.594313 C 29.527906 -14.606031 29.609938 -14.621656 29.664625 -14.633375 C 29.719313 -14.645094 29.809156 -14.664625 29.86775 -14.672438 C 29.93025 -14.684156 30.027906 -14.699781 30.094313 -14.7115 C 30.160719 -14.719313 30.270094 -14.734938 30.340406 -14.74275 C 30.410719 -14.750563 30.531813 -14.766188 30.609938 -14.774 C 30.688063 -14.781813 30.816969 -14.793531 30.902906 -14.801344 C 30.988844 -14.809156 31.129469 -14.816969 31.223219 -14.824781 C 31.316969 -14.828688 31.469313 -14.8365 31.570875 -14.8365 C 31.672438 -14.840406 31.840406 -14.844313 31.945875 -14.844313 C 32.05525 -14.844313 32.234938 -14.840406 32.348219 -14.8365 C 32.465406 -14.832594 32.664625 -14.828688 32.789625 -14.820875 C 32.914625 -14.813063 33.125563 -14.801344 33.262281 -14.789625 C 33.395094 -14.777906 33.766188 -14.738844 33.766188 -14.738844 C 34.035719 -14.270094 34.156813 -13.981031 34.297438 -13.457594 C 34.297438 -13.457594 34.066969 -13.168531 33.977125 -13.066969 C 33.891188 -12.9615 33.746656 -12.801344 33.664625 -12.707594 C 33.578688 -12.613844 33.449781 -12.473219 33.36775 -12.387281 C 33.285719 -12.30525 33.160719 -12.172438 33.082594 -12.098219 C 33.008375 -12.020094 32.887281 -11.902906 32.813063 -11.8365 C 32.74275 -11.766188 32.629469 -11.660719 32.559156 -11.598219 C 32.488844 -11.539625 32.383375 -11.445875 32.316969 -11.387281 C 32.254469 -11.332594 32.152906 -11.250563 32.094313 -11.199781 C 32.031813 -11.149 31.938063 -11.074781 31.879469 -11.031813 C 31.820875 -10.984938 31.734938 -10.918531 31.68025 -10.879469 C 31.625563 -10.840406 31.547438 -10.781813 31.496656 -10.746656 C 31.445875 -10.7115 31.36775 -10.660719 31.324781 -10.629469 C 31.277906 -10.598219 31.207594 -10.55525 31.164625 -10.527906 C 31.121656 -10.500563 31.059156 -10.4615 31.024 -10.438063 C 30.984938 -10.414625 30.922438 -10.383375 30.891188 -10.363844 C 30.856031 -10.344313 30.80525 -10.313063 30.774 -10.297438 C 30.74275 -10.281813 30.695875 -10.258375 30.668531 -10.24275 C 30.645094 -10.231031 30.602125 -10.2115 30.582594 -10.199781 C 30.559156 -10.188063 30.524 -10.172438 30.504469 -10.160719 C 30.484938 -10.152906 30.457594 -10.141188 30.441969 -10.133375 C 30.426344 -10.129469 30.402906 -10.11775 30.391188 -10.113844 C 30.379469 -10.109938 30.36775 -10.102125 30.359938 -10.102125 C 30.352125 -10.098219 30.340406 -10.094313 30.3365 -10.094313 C 30.332594 -10.090406 30.328688 -10.090406 30.328688 -10.090406 L 29.316969 -9.754469 C 29.86775 -8.43025 30.078688 -7.629469 30.266188 -6.2115 L 31.313063 -6.426344 C 31.313063 -6.426344 31.313063 -6.426344 31.316969 -6.43025 C 31.320875 -6.43025 31.332594 -6.43025 31.340406 -6.434156 C 31.348219 -6.434156 31.363844 -6.438063 31.379469 -6.438063 C 31.391188 -6.441969 31.410719 -6.441969 31.426344 -6.445875 C 31.445875 -6.445875 31.477125 -6.449781 31.500563 -6.453688 C 31.520094 -6.453688 31.559156 -6.457594 31.582594 -6.457594 C 31.609938 -6.4615 31.652906 -6.465406 31.684156 -6.465406 C 31.7115 -6.465406 31.762281 -6.469313 31.797438 -6.469313 C 31.832594 -6.469313 31.891188 -6.473219 31.93025 -6.473219 C 31.973219 -6.473219 32.039625 -6.473219 32.0865 -6.473219 C 32.129469 -6.469313 32.203688 -6.469313 32.254469 -6.465406 C 32.301344 -6.465406 32.387281 -6.4615 32.441969 -6.457594 C 32.496656 -6.453688 32.590406 -6.445875 32.649 -6.441969 C 32.7115 -6.434156 32.809156 -6.426344 32.875563 -6.418531 C 32.941969 -6.410719 33.051344 -6.399 33.121656 -6.387281 C 33.195875 -6.379469 33.313063 -6.359938 33.391188 -6.348219 C 33.469313 -6.3365 33.598219 -6.313063 33.684156 -6.297438 C 33.766188 -6.281813 33.906813 -6.254469 33.996656 -6.234938 C 34.0865 -6.215406 34.238844 -6.184156 34.3365 -6.160719 C 34.434156 -6.137281 34.594313 -6.094313 34.699781 -6.066969 C 34.80525 -6.039625 34.977125 -5.988844 35.0865 -5.957594 C 35.199781 -5.922438 35.387281 -5.86775 35.508375 -5.828688 C 35.629469 -5.789625 35.828688 -5.723219 35.953688 -5.676344 C 36.082594 -5.629469 36.43025 -5.496656 36.43025 -5.496656 C 36.570875 -4.973219 36.613844 -4.664625 36.613844 -4.11775 C 36.613844 -4.11775 36.313063 -3.902906 36.199781 -3.824781 C 36.090406 -3.746656 35.914625 -3.629469 35.80525 -3.559156 C 35.699781 -3.49275 35.535719 -3.391188 35.438063 -3.328688 C 35.3365 -3.266188 35.18025 -3.176344 35.0865 -3.121656 C 34.99275 -3.066969 34.848219 -2.984938 34.758375 -2.938063 C 34.672438 -2.891188 34.535719 -2.816969 34.453688 -2.774 C 34.36775 -2.734938 34.24275 -2.672438 34.164625 -2.633375 C 34.0865 -2.598219 33.969313 -2.543531 33.899 -2.512281 C 33.824781 -2.481031 33.715406 -2.43025 33.649 -2.402906 C 33.578688 -2.375563 33.477125 -2.332594 33.414625 -2.309156 C 33.356031 -2.285719 33.262281 -2.250563 33.203688 -2.227125 C 33.149 -2.207594 33.059156 -2.176344 33.008375 -2.160719 C 32.953688 -2.141188 32.875563 -2.11775 32.828688 -2.102125 C 32.781813 -2.0865 32.7115 -2.066969 32.668531 -2.05525 C 32.625563 -2.039625 32.559156 -2.024 32.520094 -2.012281 C 32.481031 -2.004469 32.422438 -1.988844 32.391188 -1.981031 C 32.356031 -1.973219 32.30525 -1.9615 32.277906 -1.953688 C 32.246656 -1.949781 32.203688 -1.938063 32.176344 -1.934156 C 32.152906 -1.93025 32.11775 -1.922438 32.094313 -1.918531 C 32.074781 -1.914625 32.047438 -1.910719 32.027906 -1.910719 C 32.012281 -1.906813 31.988844 -1.902906 31.973219 -1.902906 C 31.9615 -1.899 31.949781 -1.899 31.938063 -1.899 C 31.93025 -1.895094 31.918531 -1.895094 31.914625 -1.895094 C 31.910719 -1.895094 31.906813 -1.895094 31.906813 -1.895094 L 30.844313 -1.832594 C 31.031813 -0.414625 31.031813 0.417406 30.844313 1.831469 L 31.906813 1.893969 C 31.906813 1.893969 31.910719 1.893969 31.914625 1.893969 C 31.918531 1.897875 31.926344 1.897875 31.938063 1.897875 C 31.945875 1.897875 31.9615 1.901781 31.973219 1.901781 C 31.988844 1.901781 32.008375 1.905687 32.027906 1.909594 C 32.043531 1.909594 32.074781 1.917406 32.094313 1.917406 C 32.11775 1.921312 32.152906 1.929125 32.176344 1.933031 C 32.203688 1.940844 32.246656 1.948656 32.277906 1.952562 C 32.30525 1.960375 32.356031 1.972094 32.391188 1.979906 C 32.422438 1.987719 32.481031 2.003344 32.520094 2.011156 C 32.559156 2.022875 32.625563 2.042406 32.668531 2.054125 C 32.7115 2.065844 32.781813 2.085375 32.828688 2.101 C 32.875563 2.116625 32.953688 2.143969 33.008375 2.159594 C 33.059156 2.179125 33.149 2.206469 33.203688 2.229906 C 33.262281 2.249437 33.356031 2.284594 33.414625 2.308031 C 33.477125 2.331469 33.582594 2.374437 33.649 2.401781 C 33.715406 2.433031 33.824781 2.479906 33.895094 2.511156 C 33.965406 2.542406 34.0865 2.597094 34.164625 2.636156 C 34.24275 2.671312 34.36775 2.733812 34.449781 2.776781 C 34.535719 2.81975 34.672438 2.890062 34.758375 2.936937 C 34.848219 2.983812 34.99275 3.065844 35.0865 3.120531 C 35.18025 3.175219 35.332594 3.265062 35.434156 3.327562 C 35.535719 3.386156 35.699781 3.491625 35.80525 3.561937 C 35.914625 3.628344 36.0865 3.745531 36.199781 3.823656 C 36.313063 3.901781 36.613844 4.120531 36.613844 4.120531 C 36.613844 4.659594 36.570875 4.968187 36.43025 5.491625 C 36.43025 5.491625 36.0865 5.624437 35.957594 5.671312 C 35.828688 5.718187 35.629469 5.784594 35.508375 5.823656 C 35.387281 5.862719 35.203688 5.921312 35.090406 5.952562 C 34.981031 5.987719 34.80525 6.034594 34.699781 6.061937 C 34.598219 6.093187 34.434156 6.13225 34.3365 6.155687 C 34.238844 6.179125 34.0865 6.214281 33.996656 6.233812 C 33.906813 6.249437 33.766188 6.276781 33.684156 6.292406 C 33.598219 6.308031 33.469313 6.331469 33.395094 6.343187 C 33.316969 6.358812 33.195875 6.374437 33.125563 6.386156 C 33.051344 6.393969 32.941969 6.405687 32.875563 6.4135 C 32.809156 6.421312 32.7115 6.433031 32.652906 6.436937 C 32.590406 6.44475 32.496656 6.448656 32.441969 6.452562 C 32.387281 6.456469 32.301344 6.460375 32.254469 6.464281 C 32.203688 6.468187 32.129469 6.468187 32.0865 6.468187 C 32.043531 6.468187 31.973219 6.468187 31.934156 6.468187 C 31.891188 6.468187 31.832594 6.468187 31.797438 6.468187 C 31.762281 6.468187 31.7115 6.464281 31.684156 6.464281 C 31.652906 6.460375 31.609938 6.456469 31.582594 6.456469 C 31.559156 6.456469 31.520094 6.452562 31.500563 6.448656 C 31.477125 6.448656 31.449781 6.44475 31.434156 6.440844 C 31.414625 6.440844 31.391188 6.436937 31.379469 6.436937 C 31.363844 6.433031 31.352125 6.433031 31.344313 6.429125 C 31.3365 6.429125 31.320875 6.425219 31.316969 6.425219 C 31.313063 6.425219 31.313063 6.425219 31.313063 6.425219 Z M 30.266188 6.210375 " transform="matrix(1, 0, 0, -1, 41.101, 41.101)"/>
</svg>
