<?xml version="1.0" encoding="UTF-8"?>
<svg xmlns="http://www.w3.org/2000/svg" xmlns:xlink="http://www.w3.org/1999/xlink" width="120.662pt" height="136.316pt" viewBox="0 0 120.662 136.316">
<defs>
<g>
<g id="glyph-0-0">
<path d="M 0.875 -0.59375 C 0.84375 -0.4375 0.78125 -0.203125 0.78125 -0.15625 C 0.78125 0.015625 0.921875 0.109375 1.078125 0.109375 C 1.203125 0.109375 1.375 0.03125 1.453125 -0.171875 C 1.453125 -0.1875 1.578125 -0.65625 1.640625 -0.90625 L 1.859375 -1.796875 C 1.90625 -2.03125 1.96875 -2.25 2.03125 -2.46875 C 2.0625 -2.640625 2.140625 -2.9375 2.15625 -2.96875 C 2.296875 -3.28125 2.828125 -4.1875 3.78125 -4.1875 C 4.234375 -4.1875 4.3125 -3.8125 4.3125 -3.484375 C 4.3125 -3.234375 4.25 -2.953125 4.171875 -2.65625 L 3.890625 -1.5 L 3.6875 -0.75 C 3.65625 -0.546875 3.5625 -0.203125 3.5625 -0.15625 C 3.5625 0.015625 3.703125 0.109375 3.84375 0.109375 C 4.15625 0.109375 4.21875 -0.140625 4.296875 -0.453125 C 4.4375 -1.015625 4.8125 -2.46875 4.890625 -2.859375 C 4.921875 -2.984375 5.453125 -4.1875 6.546875 -4.1875 C 6.96875 -4.1875 7.078125 -3.84375 7.078125 -3.484375 C 7.078125 -2.921875 6.65625 -1.78125 6.453125 -1.25 C 6.375 -1.015625 6.328125 -0.90625 6.328125 -0.703125 C 6.328125 -0.234375 6.671875 0.109375 7.140625 0.109375 C 8.078125 0.109375 8.453125 -1.34375 8.453125 -1.421875 C 8.453125 -1.53125 8.359375 -1.53125 8.328125 -1.53125 C 8.234375 -1.53125 8.234375 -1.5 8.1875 -1.34375 C 8.03125 -0.8125 7.71875 -0.109375 7.171875 -0.109375 C 7 -0.109375 6.921875 -0.203125 6.921875 -0.4375 C 6.921875 -0.6875 7.015625 -0.921875 7.109375 -1.140625 C 7.296875 -1.671875 7.71875 -2.765625 7.71875 -3.34375 C 7.71875 -3.984375 7.3125 -4.40625 6.5625 -4.40625 C 5.828125 -4.40625 5.3125 -3.96875 4.9375 -3.4375 C 4.9375 -3.5625 4.90625 -3.90625 4.625 -4.140625 C 4.375 -4.359375 4.0625 -4.40625 3.8125 -4.40625 C 2.90625 -4.40625 2.421875 -3.765625 2.25 -3.53125 C 2.203125 -4.109375 1.78125 -4.40625 1.328125 -4.40625 C 0.875 -4.40625 0.6875 -4.015625 0.59375 -3.84375 C 0.421875 -3.484375 0.296875 -2.90625 0.296875 -2.875 C 0.296875 -2.765625 0.390625 -2.765625 0.40625 -2.765625 C 0.515625 -2.765625 0.515625 -2.78125 0.578125 -3 C 0.75 -3.703125 0.953125 -4.1875 1.3125 -4.1875 C 1.46875 -4.1875 1.609375 -4.109375 1.609375 -3.734375 C 1.609375 -3.515625 1.578125 -3.40625 1.453125 -2.890625 Z M 0.875 -0.59375 "/>
</g>
<g id="glyph-0-1">
<path d="M 0.15625 -0.984375 C 0.140625 -0.953125 0.109375 -0.921875 0.109375 -0.890625 C 0.109375 -0.84375 0.171875 -0.75 0.234375 -0.75 C 0.28125 -0.75 0.3125 -0.78125 0.59375 -1.0625 C 0.671875 -1.140625 0.875 -1.328125 0.953125 -1.40625 C 1.046875 -0.625 1.328125 0.125 2.0625 0.125 C 2.46875 0.125 2.8125 -0.109375 3.015625 -0.265625 C 3.15625 -0.359375 3.625 -0.75 3.625 -0.84375 C 3.625 -0.875 3.59375 -0.96875 3.515625 -0.96875 C 3.484375 -0.96875 3.46875 -0.953125 3.375 -0.875 C 2.734375 -0.25 2.375 -0.09375 2.078125 -0.09375 C 1.640625 -0.09375 1.46875 -0.625 1.46875 -1.390625 C 1.46875 -1.453125 1.5 -1.90625 1.53125 -1.96875 C 1.546875 -2 1.546875 -2.015625 1.75 -2.21875 C 2.546875 -3.015625 3.96875 -4.703125 3.96875 -6.25 C 3.96875 -6.421875 3.96875 -7.03125 3.375 -7.03125 C 2.546875 -7.03125 1.8125 -5.390625 1.71875 -5.15625 C 1.234375 -4.0625 0.921875 -2.90625 0.921875 -1.71875 Z M 1.578125 -2.375 C 1.59375 -2.5 2.03125 -4.703125 2.59375 -5.875 C 2.859375 -6.40625 3.078125 -6.8125 3.390625 -6.8125 C 3.734375 -6.8125 3.734375 -6.453125 3.734375 -6.296875 C 3.734375 -4.625 2.046875 -2.875 1.578125 -2.375 Z M 1.578125 -2.375 "/>
</g>
<g id="glyph-0-2">
<path d="M 1.6875 1.6875 C 1.65625 1.828125 1.640625 1.84375 1.640625 1.890625 C 1.640625 2.109375 1.828125 2.171875 1.9375 2.171875 C 1.984375 2.171875 2.203125 2.140625 2.296875 1.90625 C 2.328125 1.828125 2.375 1.5 2.65625 0.09375 C 2.734375 0.09375 2.8125 0.109375 2.984375 0.109375 C 4.640625 0.109375 6.171875 -1.453125 6.171875 -3.03125 C 6.171875 -3.8125 5.78125 -4.40625 5.03125 -4.40625 C 3.59375 -4.40625 2.984375 -2.46875 2.390625 -0.53125 C 1.3125 -0.734375 0.75 -1.28125 0.75 -2 C 0.75 -2.28125 0.984375 -3.375 1.578125 -4.0625 C 1.671875 -4.15625 1.671875 -4.171875 1.671875 -4.203125 C 1.671875 -4.234375 1.640625 -4.296875 1.546875 -4.296875 C 1.265625 -4.296875 0.5 -2.84375 0.5 -1.890625 C 0.5 -0.953125 1.15625 -0.234375 2.21875 0.015625 Z M 3.078125 -0.46875 C 2.984375 -0.46875 2.96875 -0.46875 2.890625 -0.484375 C 2.765625 -0.484375 2.765625 -0.484375 2.765625 -0.515625 C 2.765625 -0.53125 2.9375 -1.453125 2.953125 -1.59375 C 3.265625 -2.875 4.046875 -3.828125 4.9375 -3.828125 C 5.625 -3.828125 5.890625 -3.296875 5.890625 -2.8125 C 5.890625 -1.6875 4.609375 -0.46875 3.078125 -0.46875 Z M 3.078125 -0.46875 "/>
</g>
<g id="glyph-0-3">
<path d="M 5.359375 -5.9375 C 5.21875 -5.796875 4.890625 -5.515625 4.890625 -5.34375 C 4.890625 -5.25 4.984375 -5.140625 5.078125 -5.140625 C 5.171875 -5.140625 5.21875 -5.21875 5.28125 -5.28125 C 5.390625 -5.421875 5.625 -5.703125 6.0625 -5.921875 C 6.125 -5.96875 6.234375 -6.015625 6.234375 -6.125 C 6.234375 -6.234375 6.15625 -6.28125 6.09375 -6.328125 C 5.875 -6.484375 5.765625 -6.65625 5.6875 -6.890625 C 5.65625 -6.984375 5.625 -7.125 5.484375 -7.125 C 5.34375 -7.125 5.28125 -6.984375 5.28125 -6.90625 C 5.28125 -6.859375 5.359375 -6.546875 5.515625 -6.328125 L 2.15625 -6.328125 C 2 -6.328125 1.8125 -6.328125 1.8125 -6.125 C 1.8125 -5.9375 2 -5.9375 2.15625 -5.9375 Z M 5.359375 -5.9375 "/>
</g>
<g id="glyph-0-4">
<path d="M 3.015625 -3.234375 L 3.984375 -3.234375 C 4.734375 -3.234375 4.8125 -3.078125 4.8125 -2.796875 C 4.8125 -2.71875 4.8125 -2.609375 4.75 -2.296875 C 4.71875 -2.25 4.71875 -2.21875 4.71875 -2.1875 C 4.71875 -2.109375 4.78125 -2.078125 4.828125 -2.078125 C 4.9375 -2.078125 4.9375 -2.109375 4.984375 -2.28125 L 5.53125 -4.453125 C 5.5625 -4.5625 5.5625 -4.578125 5.5625 -4.609375 C 5.5625 -4.625 5.546875 -4.71875 5.4375 -4.71875 C 5.34375 -4.71875 5.328125 -4.671875 5.296875 -4.5 C 5.078125 -3.734375 4.859375 -3.546875 4 -3.546875 L 3.09375 -3.546875 L 3.734375 -6.078125 C 3.828125 -6.4375 3.84375 -6.46875 4.28125 -6.46875 L 5.59375 -6.46875 C 6.8125 -6.46875 7.046875 -6.140625 7.046875 -5.375 C 7.046875 -5.140625 7.046875 -5.109375 7.015625 -4.828125 C 7 -4.703125 7 -4.6875 7 -4.65625 C 7 -4.609375 7.03125 -4.53125 7.125 -4.53125 C 7.234375 -4.53125 7.234375 -4.59375 7.25 -4.78125 L 7.453125 -6.515625 C 7.484375 -6.78125 7.4375 -6.78125 7.1875 -6.78125 L 2.296875 -6.78125 C 2.109375 -6.78125 2 -6.78125 2 -6.578125 C 2 -6.46875 2.09375 -6.46875 2.28125 -6.46875 C 2.65625 -6.46875 2.9375 -6.46875 2.9375 -6.296875 C 2.9375 -6.25 2.9375 -6.234375 2.875 -6.046875 L 1.5625 -0.78125 C 1.46875 -0.390625 1.453125 -0.3125 0.65625 -0.3125 C 0.484375 -0.3125 0.375 -0.3125 0.375 -0.125 C 0.375 0 0.5 0 0.53125 0 C 0.8125 0 1.5625 -0.03125 1.84375 -0.03125 C 2.171875 -0.03125 3 0 3.328125 0 C 3.421875 0 3.53125 0 3.53125 -0.1875 C 3.53125 -0.265625 3.484375 -0.296875 3.484375 -0.296875 C 3.453125 -0.3125 3.421875 -0.3125 3.203125 -0.3125 C 2.984375 -0.3125 2.9375 -0.3125 2.6875 -0.328125 C 2.390625 -0.359375 2.359375 -0.40625 2.359375 -0.53125 C 2.359375 -0.546875 2.359375 -0.609375 2.40625 -0.75 Z M 3.015625 -3.234375 "/>
</g>
<g id="glyph-0-5">
<path d="M 7.171875 -6.5625 C 7.1875 -6.609375 7.203125 -6.65625 7.203125 -6.71875 C 7.203125 -6.8125 7.15625 -6.8125 6.953125 -6.8125 L 2.75 -6.8125 C 2.515625 -6.8125 2.5 -6.796875 2.4375 -6.609375 L 1.890625 -4.8125 C 1.875 -4.765625 1.859375 -4.6875 1.859375 -4.671875 C 1.859375 -4.671875 1.859375 -4.5625 1.984375 -4.5625 C 2.078125 -4.5625 2.09375 -4.640625 2.109375 -4.671875 C 2.5 -5.84375 3.015625 -6.5 4.5625 -6.5 L 6.1875 -6.5 L 0.625 -0.265625 C 0.625 -0.265625 0.578125 -0.125 0.578125 -0.09375 C 0.578125 0 0.640625 0 0.828125 0 L 5.15625 0 C 5.40625 0 5.40625 -0.015625 5.46875 -0.203125 L 6.1875 -2.40625 C 6.1875 -2.4375 6.21875 -2.515625 6.21875 -2.546875 C 6.21875 -2.609375 6.1875 -2.65625 6.09375 -2.65625 C 6 -2.65625 5.984375 -2.625 5.921875 -2.40625 C 5.484375 -1.0625 5 -0.34375 3.3125 -0.34375 L 1.609375 -0.34375 Z M 7.171875 -6.5625 "/>
</g>
<g id="glyph-1-0">
<path d="M 3.703125 -2.578125 C 3.734375 -2.671875 3.734375 -2.703125 3.734375 -2.71875 C 3.734375 -2.875 3.609375 -2.9375 3.5 -2.9375 C 3.34375 -2.9375 3.203125 -2.8125 3.171875 -2.671875 C 3.0625 -2.859375 2.828125 -3.078125 2.453125 -3.078125 C 1.59375 -3.078125 0.671875 -2.140625 0.671875 -1.140625 C 0.671875 -0.421875 1.15625 0 1.734375 0 C 2.0625 0 2.359375 -0.15625 2.609375 -0.375 L 2.453125 0.25 C 2.375 0.546875 2.328125 0.734375 2.0625 0.96875 C 1.75 1.21875 1.453125 1.21875 1.28125 1.21875 C 0.96875 1.21875 0.875 1.203125 0.75 1.171875 C 0.921875 1.09375 0.96875 0.921875 0.96875 0.828125 C 0.96875 0.65625 0.84375 0.578125 0.703125 0.578125 C 0.5 0.578125 0.296875 0.734375 0.296875 1 C 0.296875 1.421875 0.90625 1.421875 1.296875 1.421875 C 2.390625 1.421875 2.84375 0.859375 2.953125 0.46875 Z M 2.75 -0.921875 C 2.71875 -0.828125 2.71875 -0.8125 2.59375 -0.671875 C 2.359375 -0.375 2.015625 -0.1875 1.75 -0.1875 C 1.40625 -0.1875 1.234375 -0.5 1.234375 -0.859375 C 1.234375 -1.15625 1.421875 -1.9375 1.609375 -2.25 C 1.890625 -2.734375 2.21875 -2.875 2.453125 -2.875 C 2.953125 -2.875 3.078125 -2.359375 3.078125 -2.28125 C 3.078125 -2.265625 3.078125 -2.265625 3.0625 -2.1875 Z M 2.75 -0.921875 "/>
</g>
<g id="glyph-2-0">
<path d="M 2.84375 -2.625 C 2.84375 -2.859375 2.609375 -3.078125 2.28125 -3.078125 C 1.9375 -3.078125 1.546875 -2.859375 1.34375 -2.328125 L 1.34375 -3.078125 L 0.34375 -3 L 0.34375 -2.75 C 0.8125 -2.75 0.859375 -2.703125 0.859375 -2.359375 L 0.859375 -0.546875 C 0.859375 -0.25 0.796875 -0.25 0.34375 -0.25 L 0.34375 0 C 0.375 0 0.84375 -0.03125 1.140625 -0.03125 L 2.046875 0 L 2.046875 -0.25 L 1.90625 -0.25 C 1.390625 -0.25 1.390625 -0.328125 1.390625 -0.5625 L 1.390625 -1.59375 C 1.390625 -2.171875 1.65625 -2.875 2.328125 -2.875 C 2.265625 -2.828125 2.203125 -2.734375 2.203125 -2.625 C 2.203125 -2.390625 2.390625 -2.3125 2.515625 -2.3125 C 2.6875 -2.3125 2.84375 -2.421875 2.84375 -2.625 Z M 2.84375 -2.625 "/>
</g>
<g id="glyph-2-1">
<path d="M 3.265625 -0.84375 C 3.265625 -0.859375 3.25 -0.9375 3.140625 -0.9375 C 3.046875 -0.9375 3.03125 -0.890625 3.015625 -0.828125 C 2.796875 -0.265625 2.265625 -0.15625 2.015625 -0.15625 C 1.6875 -0.15625 1.375 -0.296875 1.171875 -0.5625 C 0.90625 -0.890625 0.90625 -1.3125 0.90625 -1.59375 L 3.0625 -1.59375 C 3.21875 -1.59375 3.265625 -1.59375 3.265625 -1.734375 C 3.265625 -2.359375 2.921875 -3.109375 1.875 -3.109375 C 0.96875 -3.109375 0.265625 -2.390625 0.265625 -1.53125 C 0.265625 -0.640625 1.046875 0.0625 1.96875 0.0625 C 2.90625 0.0625 3.265625 -0.6875 3.265625 -0.84375 Z M 2.78125 -1.765625 L 0.90625 -1.765625 C 0.984375 -2.75 1.609375 -2.90625 1.875 -2.90625 C 2.734375 -2.90625 2.765625 -1.9375 2.78125 -1.765625 Z M 2.78125 -1.765625 "/>
</g>
<g id="glyph-2-2">
<path d="M 2.84375 -0.90625 C 2.84375 -1.171875 2.71875 -1.390625 2.53125 -1.546875 C 2.265625 -1.796875 1.953125 -1.859375 1.703125 -1.890625 C 1.15625 -2 0.703125 -2.078125 0.703125 -2.453125 C 0.703125 -2.671875 0.890625 -2.9375 1.546875 -2.9375 C 2.359375 -2.9375 2.390625 -2.375 2.40625 -2.171875 C 2.40625 -2.09375 2.5 -2.09375 2.515625 -2.09375 C 2.640625 -2.09375 2.640625 -2.140625 2.640625 -2.28125 L 2.640625 -2.921875 C 2.640625 -3.046875 2.640625 -3.109375 2.546875 -3.109375 C 2.515625 -3.109375 2.5 -3.109375 2.40625 -3.03125 C 2.390625 -3.015625 2.328125 -2.953125 2.28125 -2.921875 C 2.0625 -3.0625 1.8125 -3.109375 1.546875 -3.109375 C 0.546875 -3.109375 0.3125 -2.578125 0.3125 -2.234375 C 0.3125 -2.015625 0.40625 -1.828125 0.578125 -1.6875 C 0.84375 -1.46875 1.109375 -1.421875 1.546875 -1.34375 C 1.890625 -1.28125 2.453125 -1.1875 2.453125 -0.71875 C 2.453125 -0.453125 2.265625 -0.125 1.59375 -0.125 C 0.921875 -0.125 0.6875 -0.5625 0.5625 -1.03125 C 0.53125 -1.125 0.53125 -1.15625 0.4375 -1.15625 C 0.3125 -1.15625 0.3125 -1.109375 0.3125 -0.96875 L 0.3125 -0.109375 C 0.3125 0 0.3125 0.0625 0.40625 0.0625 C 0.46875 0.0625 0.609375 -0.078125 0.75 -0.234375 C 1.046875 0.0625 1.421875 0.0625 1.59375 0.0625 C 2.5 0.0625 2.84375 -0.421875 2.84375 -0.90625 Z M 2.84375 -0.90625 "/>
</g>
</g>
<clipPath id="clip-0">
<path clip-rule="nonzero" d="M 3.636719 3.8125 L 3.984375 3.8125 L 3.984375 5.671875 L 3.636719 5.671875 Z M 3.636719 3.8125 "/>
</clipPath>
<clipPath id="clip-1">
<path clip-rule="nonzero" d="M 3.636719 3.8125 L 6.972656 3.8125 L 6.972656 5.671875 L 3.636719 5.671875 Z M 3.636719 3.8125 "/>
</clipPath>
<clipPath id="clip-2">
<path clip-rule="nonzero" d="M 4.980469 3.8125 L 9.960938 3.8125 L 9.960938 5.671875 L 4.980469 5.671875 Z M 4.980469 3.8125 "/>
</clipPath>
<clipPath id="clip-3">
<path clip-rule="nonzero" d="M 7.96875 3.8125 L 12.953125 3.8125 L 12.953125 5.671875 L 7.96875 5.671875 Z M 7.96875 3.8125 "/>
</clipPath>
<clipPath id="clip-4">
<path clip-rule="nonzero" d="M 10.960938 3.8125 L 15.941406 3.8125 L 15.941406 5.671875 L 10.960938 5.671875 Z M 10.960938 3.8125 "/>
</clipPath>
<clipPath id="clip-5">
<path clip-rule="nonzero" d="M 13.949219 3.8125 L 18.929688 3.8125 L 18.929688 5.671875 L 13.949219 5.671875 Z M 13.949219 3.8125 "/>
</clipPath>
<clipPath id="clip-6">
<path clip-rule="nonzero" d="M 16.9375 3.8125 L 21.917969 3.8125 L 21.917969 5.671875 L 16.9375 5.671875 Z M 16.9375 3.8125 "/>
</clipPath>
<clipPath id="clip-7">
<path clip-rule="nonzero" d="M 19.925781 3.8125 L 24.90625 3.8125 L 24.90625 5.671875 L 19.925781 5.671875 Z M 19.925781 3.8125 "/>
</clipPath>
<clipPath id="clip-8">
<path clip-rule="nonzero" d="M 22.914062 3.8125 L 27.894531 3.8125 L 27.894531 5.671875 L 22.914062 5.671875 Z M 22.914062 3.8125 "/>
</clipPath>
<clipPath id="clip-9">
<path clip-rule="nonzero" d="M 25.902344 3.8125 L 30.882812 3.8125 L 30.882812 5.671875 L 25.902344 5.671875 Z M 25.902344 3.8125 "/>
</clipPath>
<clipPath id="clip-10">
<path clip-rule="nonzero" d="M 28.890625 3.8125 L 33.875 3.8125 L 33.875 5.671875 L 28.890625 5.671875 Z M 28.890625 3.8125 "/>
</clipPath>
<clipPath id="clip-11">
<path clip-rule="nonzero" d="M 31.878906 3.8125 L 36.863281 3.8125 L 36.863281 5.671875 L 31.878906 5.671875 Z M 31.878906 3.8125 "/>
</clipPath>
<clipPath id="clip-12">
<path clip-rule="nonzero" d="M 34.871094 3.8125 L 39.851562 3.8125 L 39.851562 5.671875 L 34.871094 5.671875 Z M 34.871094 3.8125 "/>
</clipPath>
<clipPath id="clip-13">
<path clip-rule="nonzero" d="M 37.859375 3.8125 L 42.839844 3.8125 L 42.839844 5.671875 L 37.859375 5.671875 Z M 37.859375 3.8125 "/>
</clipPath>
<clipPath id="clip-14">
<path clip-rule="nonzero" d="M 40.847656 3.8125 L 45.828125 3.8125 L 45.828125 5.671875 L 40.847656 5.671875 Z M 40.847656 3.8125 "/>
</clipPath>
<clipPath id="clip-15">
<path clip-rule="nonzero" d="M 43.835938 3.8125 L 48.816406 3.8125 L 48.816406 5.671875 L 43.835938 5.671875 Z M 43.835938 3.8125 "/>
</clipPath>
<clipPath id="clip-16">
<path clip-rule="nonzero" d="M 46.824219 3.8125 L 51.804688 3.8125 L 51.804688 5.671875 L 46.824219 5.671875 Z M 46.824219 3.8125 "/>
</clipPath>
<clipPath id="clip-17">
<path clip-rule="nonzero" d="M 49.8125 3.8125 L 54.796875 3.8125 L 54.796875 5.671875 L 49.8125 5.671875 Z M 49.8125 3.8125 "/>
</clipPath>
<clipPath id="clip-18">
<path clip-rule="nonzero" d="M 52.800781 3.8125 L 57.785156 3.8125 L 57.785156 5.671875 L 52.800781 5.671875 Z M 52.800781 3.8125 "/>
</clipPath>
<clipPath id="clip-19">
<path clip-rule="nonzero" d="M 55.792969 3.8125 L 60.773438 3.8125 L 60.773438 5.671875 L 55.792969 5.671875 Z M 55.792969 3.8125 "/>
</clipPath>
<clipPath id="clip-20">
<path clip-rule="nonzero" d="M 58.78125 3.8125 L 63.761719 3.8125 L 63.761719 5.671875 L 58.78125 5.671875 Z M 58.78125 3.8125 "/>
</clipPath>
<clipPath id="clip-21">
<path clip-rule="nonzero" d="M 61.769531 3.8125 L 66.75 3.8125 L 66.75 5.671875 L 61.769531 5.671875 Z M 61.769531 3.8125 "/>
</clipPath>
<clipPath id="clip-22">
<path clip-rule="nonzero" d="M 64.757812 3.8125 L 69.738281 3.8125 L 69.738281 5.671875 L 64.757812 5.671875 Z M 64.757812 3.8125 "/>
</clipPath>
<clipPath id="clip-23">
<path clip-rule="nonzero" d="M 67.746094 3.8125 L 72.726562 3.8125 L 72.726562 5.671875 L 67.746094 5.671875 Z M 67.746094 3.8125 "/>
</clipPath>
<clipPath id="clip-24">
<path clip-rule="nonzero" d="M 70.734375 3.8125 L 75.71875 3.8125 L 75.71875 5.671875 L 70.734375 5.671875 Z M 70.734375 3.8125 "/>
</clipPath>
<clipPath id="clip-25">
<path clip-rule="nonzero" d="M 73.722656 3.8125 L 78.707031 3.8125 L 78.707031 5.671875 L 73.722656 5.671875 Z M 73.722656 3.8125 "/>
</clipPath>
<clipPath id="clip-26">
<path clip-rule="nonzero" d="M 76.714844 3.8125 L 81.695312 3.8125 L 81.695312 5.671875 L 76.714844 5.671875 Z M 76.714844 3.8125 "/>
</clipPath>
<clipPath id="clip-27">
<path clip-rule="nonzero" d="M 79.703125 3.8125 L 84.683594 3.8125 L 84.683594 5.671875 L 79.703125 5.671875 Z M 79.703125 3.8125 "/>
</clipPath>
<clipPath id="clip-28">
<path clip-rule="nonzero" d="M 82.691406 3.8125 L 87.671875 3.8125 L 87.671875 5.671875 L 82.691406 5.671875 Z M 82.691406 3.8125 "/>
</clipPath>
<clipPath id="clip-29">
<path clip-rule="nonzero" d="M 85.679688 3.8125 L 90.660156 3.8125 L 90.660156 5.671875 L 85.679688 5.671875 Z M 85.679688 3.8125 "/>
</clipPath>
<clipPath id="clip-30">
<path clip-rule="nonzero" d="M 88.667969 3.8125 L 93.648438 3.8125 L 93.648438 5.671875 L 88.667969 5.671875 Z M 88.667969 3.8125 "/>
</clipPath>
<clipPath id="clip-31">
<path clip-rule="nonzero" d="M 91.65625 3.8125 L 96.640625 3.8125 L 96.640625 5.671875 L 91.65625 5.671875 Z M 91.65625 3.8125 "/>
</clipPath>
<clipPath id="clip-32">
<path clip-rule="nonzero" d="M 94.644531 3.8125 L 99.628906 3.8125 L 99.628906 5.671875 L 94.644531 5.671875 Z M 94.644531 3.8125 "/>
</clipPath>
<clipPath id="clip-33">
<path clip-rule="nonzero" d="M 97.636719 3.8125 L 102.617188 3.8125 L 102.617188 5.671875 L 97.636719 5.671875 Z M 97.636719 3.8125 "/>
</clipPath>
<clipPath id="clip-34">
<path clip-rule="nonzero" d="M 100.625 3.8125 L 105.605469 3.8125 L 105.605469 5.671875 L 100.625 5.671875 Z M 100.625 3.8125 "/>
</clipPath>
<clipPath id="clip-35">
<path clip-rule="nonzero" d="M 103.613281 3.8125 L 108.59375 3.8125 L 108.59375 5.671875 L 103.613281 5.671875 Z M 103.613281 3.8125 "/>
</clipPath>
<clipPath id="clip-36">
<path clip-rule="nonzero" d="M 106.601562 3.8125 L 111.582031 3.8125 L 111.582031 5.671875 L 106.601562 5.671875 Z M 106.601562 3.8125 "/>
</clipPath>
<clipPath id="clip-37">
<path clip-rule="nonzero" d="M 109.589844 3.8125 L 114.570312 3.8125 L 114.570312 5.671875 L 109.589844 5.671875 Z M 109.589844 3.8125 "/>
</clipPath>
<clipPath id="clip-38">
<path clip-rule="nonzero" d="M 112.578125 3.8125 L 117.023438 3.8125 L 117.023438 5.671875 L 112.578125 5.671875 Z M 112.578125 3.8125 "/>
</clipPath>
<clipPath id="clip-39">
<path clip-rule="nonzero" d="M 115.566406 3.8125 L 117.023438 3.8125 L 117.023438 5.671875 L 115.566406 5.671875 Z M 115.566406 3.8125 "/>
</clipPath>
<clipPath id="clip-40">
<path clip-rule="nonzero" d="M 3.636719 0.824219 L 3.984375 0.824219 L 3.984375 5.671875 L 3.636719 5.671875 Z M 3.636719 0.824219 "/>
</clipPath>
<clipPath id="clip-41">
<path clip-rule="nonzero" d="M 3.636719 0.824219 L 6.972656 0.824219 L 6.972656 5.671875 L 3.636719 5.671875 Z M 3.636719 0.824219 "/>
</clipPath>
<clipPath id="clip-42">
<path clip-rule="nonzero" d="M 4.980469 0.824219 L 9.960938 0.824219 L 9.960938 5.671875 L 4.980469 5.671875 Z M 4.980469 0.824219 "/>
</clipPath>
<clipPath id="clip-43">
<path clip-rule="nonzero" d="M 7.96875 0.824219 L 12.953125 0.824219 L 12.953125 5.671875 L 7.96875 5.671875 Z M 7.96875 0.824219 "/>
</clipPath>
<clipPath id="clip-44">
<path clip-rule="nonzero" d="M 10.960938 0.824219 L 15.941406 0.824219 L 15.941406 5.671875 L 10.960938 5.671875 Z M 10.960938 0.824219 "/>
</clipPath>
<clipPath id="clip-45">
<path clip-rule="nonzero" d="M 13.949219 0.824219 L 18.929688 0.824219 L 18.929688 5.671875 L 13.949219 5.671875 Z M 13.949219 0.824219 "/>
</clipPath>
<clipPath id="clip-46">
<path clip-rule="nonzero" d="M 16.9375 0.824219 L 21.917969 0.824219 L 21.917969 5.671875 L 16.9375 5.671875 Z M 16.9375 0.824219 "/>
</clipPath>
<clipPath id="clip-47">
<path clip-rule="nonzero" d="M 19.925781 0.824219 L 24.90625 0.824219 L 24.90625 5.671875 L 19.925781 5.671875 Z M 19.925781 0.824219 "/>
</clipPath>
<clipPath id="clip-48">
<path clip-rule="nonzero" d="M 22.914062 0.824219 L 27.894531 0.824219 L 27.894531 5.671875 L 22.914062 5.671875 Z M 22.914062 0.824219 "/>
</clipPath>
<clipPath id="clip-49">
<path clip-rule="nonzero" d="M 25.902344 0.824219 L 30.882812 0.824219 L 30.882812 5.671875 L 25.902344 5.671875 Z M 25.902344 0.824219 "/>
</clipPath>
<clipPath id="clip-50">
<path clip-rule="nonzero" d="M 28.890625 0.824219 L 33.875 0.824219 L 33.875 5.671875 L 28.890625 5.671875 Z M 28.890625 0.824219 "/>
</clipPath>
<clipPath id="clip-51">
<path clip-rule="nonzero" d="M 31.878906 0.824219 L 36.863281 0.824219 L 36.863281 5.671875 L 31.878906 5.671875 Z M 31.878906 0.824219 "/>
</clipPath>
<clipPath id="clip-52">
<path clip-rule="nonzero" d="M 34.871094 0.824219 L 39.851562 0.824219 L 39.851562 5.671875 L 34.871094 5.671875 Z M 34.871094 0.824219 "/>
</clipPath>
<clipPath id="clip-53">
<path clip-rule="nonzero" d="M 37.859375 0.824219 L 42.839844 0.824219 L 42.839844 5.671875 L 37.859375 5.671875 Z M 37.859375 0.824219 "/>
</clipPath>
<clipPath id="clip-54">
<path clip-rule="nonzero" d="M 40.847656 0.824219 L 45.828125 0.824219 L 45.828125 5.671875 L 40.847656 5.671875 Z M 40.847656 0.824219 "/>
</clipPath>
<clipPath id="clip-55">
<path clip-rule="nonzero" d="M 43.835938 0.824219 L 48.816406 0.824219 L 48.816406 5.671875 L 43.835938 5.671875 Z M 43.835938 0.824219 "/>
</clipPath>
<clipPath id="clip-56">
<path clip-rule="nonzero" d="M 46.824219 0.824219 L 51.804688 0.824219 L 51.804688 5.671875 L 46.824219 5.671875 Z M 46.824219 0.824219 "/>
</clipPath>
<clipPath id="clip-57">
<path clip-rule="nonzero" d="M 49.8125 0.824219 L 54.796875 0.824219 L 54.796875 5.671875 L 49.8125 5.671875 Z M 49.8125 0.824219 "/>
</clipPath>
<clipPath id="clip-58">
<path clip-rule="nonzero" d="M 52.800781 0.824219 L 57.785156 0.824219 L 57.785156 5.671875 L 52.800781 5.671875 Z M 52.800781 0.824219 "/>
</clipPath>
<clipPath id="clip-59">
<path clip-rule="nonzero" d="M 55.792969 0.824219 L 60.773438 0.824219 L 60.773438 5.671875 L 55.792969 5.671875 Z M 55.792969 0.824219 "/>
</clipPath>
<clipPath id="clip-60">
<path clip-rule="nonzero" d="M 58.78125 0.824219 L 63.761719 0.824219 L 63.761719 5.671875 L 58.78125 5.671875 Z M 58.78125 0.824219 "/>
</clipPath>
<clipPath id="clip-61">
<path clip-rule="nonzero" d="M 61.769531 0.824219 L 66.75 0.824219 L 66.75 5.671875 L 61.769531 5.671875 Z M 61.769531 0.824219 "/>
</clipPath>
<clipPath id="clip-62">
<path clip-rule="nonzero" d="M 64.757812 0.824219 L 69.738281 0.824219 L 69.738281 5.671875 L 64.757812 5.671875 Z M 64.757812 0.824219 "/>
</clipPath>
<clipPath id="clip-63">
<path clip-rule="nonzero" d="M 67.746094 0.824219 L 72.726562 0.824219 L 72.726562 5.671875 L 67.746094 5.671875 Z M 67.746094 0.824219 "/>
</clipPath>
<clipPath id="clip-64">
<path clip-rule="nonzero" d="M 70.734375 0.824219 L 75.71875 0.824219 L 75.71875 5.671875 L 70.734375 5.671875 Z M 70.734375 0.824219 "/>
</clipPath>
<clipPath id="clip-65">
<path clip-rule="nonzero" d="M 73.722656 0.824219 L 78.707031 0.824219 L 78.707031 5.671875 L 73.722656 5.671875 Z M 73.722656 0.824219 "/>
</clipPath>
<clipPath id="clip-66">
<path clip-rule="nonzero" d="M 76.714844 0.824219 L 81.695312 0.824219 L 81.695312 5.671875 L 76.714844 5.671875 Z M 76.714844 0.824219 "/>
</clipPath>
<clipPath id="clip-67">
<path clip-rule="nonzero" d="M 79.703125 0.824219 L 84.683594 0.824219 L 84.683594 5.671875 L 79.703125 5.671875 Z M 79.703125 0.824219 "/>
</clipPath>
<clipPath id="clip-68">
<path clip-rule="nonzero" d="M 82.691406 0.824219 L 87.671875 0.824219 L 87.671875 5.671875 L 82.691406 5.671875 Z M 82.691406 0.824219 "/>
</clipPath>
<clipPath id="clip-69">
<path clip-rule="nonzero" d="M 85.679688 0.824219 L 90.660156 0.824219 L 90.660156 5.671875 L 85.679688 5.671875 Z M 85.679688 0.824219 "/>
</clipPath>
<clipPath id="clip-70">
<path clip-rule="nonzero" d="M 88.667969 0.824219 L 93.648438 0.824219 L 93.648438 5.671875 L 88.667969 5.671875 Z M 88.667969 0.824219 "/>
</clipPath>
<clipPath id="clip-71">
<path clip-rule="nonzero" d="M 91.65625 0.824219 L 96.640625 0.824219 L 96.640625 5.671875 L 91.65625 5.671875 Z M 91.65625 0.824219 "/>
</clipPath>
<clipPath id="clip-72">
<path clip-rule="nonzero" d="M 94.644531 0.824219 L 99.628906 0.824219 L 99.628906 5.671875 L 94.644531 5.671875 Z M 94.644531 0.824219 "/>
</clipPath>
<clipPath id="clip-73">
<path clip-rule="nonzero" d="M 97.636719 0.824219 L 102.617188 0.824219 L 102.617188 5.671875 L 97.636719 5.671875 Z M 97.636719 0.824219 "/>
</clipPath>
<clipPath id="clip-74">
<path clip-rule="nonzero" d="M 100.625 0.824219 L 105.605469 0.824219 L 105.605469 5.671875 L 100.625 5.671875 Z M 100.625 0.824219 "/>
</clipPath>
<clipPath id="clip-75">
<path clip-rule="nonzero" d="M 103.613281 0.824219 L 108.59375 0.824219 L 108.59375 5.671875 L 103.613281 5.671875 Z M 103.613281 0.824219 "/>
</clipPath>
<clipPath id="clip-76">
<path clip-rule="nonzero" d="M 106.601562 0.824219 L 111.582031 0.824219 L 111.582031 5.671875 L 106.601562 5.671875 Z M 106.601562 0.824219 "/>
</clipPath>
<clipPath id="clip-77">
<path clip-rule="nonzero" d="M 109.589844 0.824219 L 114.570312 0.824219 L 114.570312 5.671875 L 109.589844 5.671875 Z M 109.589844 0.824219 "/>
</clipPath>
<clipPath id="clip-78">
<path clip-rule="nonzero" d="M 112.578125 0.824219 L 117.023438 0.824219 L 117.023438 5.671875 L 112.578125 5.671875 Z M 112.578125 0.824219 "/>
</clipPath>
<clipPath id="clip-79">
<path clip-rule="nonzero" d="M 115.566406 0.824219 L 117.023438 0.824219 L 117.023438 5.671875 L 115.566406 5.671875 Z M 115.566406 0.824219 "/>
</clipPath>
<clipPath id="clip-80">
<path clip-rule="nonzero" d="M 3.636719 0 L 3.984375 0 L 3.984375 2.816406 L 3.636719 2.816406 Z M 3.636719 0 "/>
</clipPath>
<clipPath id="clip-81">
<path clip-rule="nonzero" d="M 3.636719 0 L 6.972656 0 L 6.972656 2.816406 L 3.636719 2.816406 Z M 3.636719 0 "/>
</clipPath>
<clipPath id="clip-82">
<path clip-rule="nonzero" d="M 4.980469 0 L 9.960938 0 L 9.960938 2.816406 L 4.980469 2.816406 Z M 4.980469 0 "/>
</clipPath>
<clipPath id="clip-83">
<path clip-rule="nonzero" d="M 7.96875 0 L 12.953125 0 L 12.953125 2.816406 L 7.96875 2.816406 Z M 7.96875 0 "/>
</clipPath>
<clipPath id="clip-84">
<path clip-rule="nonzero" d="M 10.960938 0 L 15.941406 0 L 15.941406 2.816406 L 10.960938 2.816406 Z M 10.960938 0 "/>
</clipPath>
<clipPath id="clip-85">
<path clip-rule="nonzero" d="M 13.949219 0 L 18.929688 0 L 18.929688 2.816406 L 13.949219 2.816406 Z M 13.949219 0 "/>
</clipPath>
<clipPath id="clip-86">
<path clip-rule="nonzero" d="M 16.9375 0 L 21.917969 0 L 21.917969 2.816406 L 16.9375 2.816406 Z M 16.9375 0 "/>
</clipPath>
<clipPath id="clip-87">
<path clip-rule="nonzero" d="M 19.925781 0 L 24.90625 0 L 24.90625 2.816406 L 19.925781 2.816406 Z M 19.925781 0 "/>
</clipPath>
<clipPath id="clip-88">
<path clip-rule="nonzero" d="M 22.914062 0 L 27.894531 0 L 27.894531 2.816406 L 22.914062 2.816406 Z M 22.914062 0 "/>
</clipPath>
<clipPath id="clip-89">
<path clip-rule="nonzero" d="M 25.902344 0 L 30.882812 0 L 30.882812 2.816406 L 25.902344 2.816406 Z M 25.902344 0 "/>
</clipPath>
<clipPath id="clip-90">
<path clip-rule="nonzero" d="M 28.890625 0 L 33.875 0 L 33.875 2.816406 L 28.890625 2.816406 Z M 28.890625 0 "/>
</clipPath>
<clipPath id="clip-91">
<path clip-rule="nonzero" d="M 31.878906 0 L 36.863281 0 L 36.863281 2.816406 L 31.878906 2.816406 Z M 31.878906 0 "/>
</clipPath>
<clipPath id="clip-92">
<path clip-rule="nonzero" d="M 34.871094 0 L 39.851562 0 L 39.851562 2.816406 L 34.871094 2.816406 Z M 34.871094 0 "/>
</clipPath>
<clipPath id="clip-93">
<path clip-rule="nonzero" d="M 37.859375 0 L 42.839844 0 L 42.839844 2.816406 L 37.859375 2.816406 Z M 37.859375 0 "/>
</clipPath>
<clipPath id="clip-94">
<path clip-rule="nonzero" d="M 40.847656 0 L 45.828125 0 L 45.828125 2.816406 L 40.847656 2.816406 Z M 40.847656 0 "/>
</clipPath>
<clipPath id="clip-95">
<path clip-rule="nonzero" d="M 43.835938 0 L 48.816406 0 L 48.816406 2.816406 L 43.835938 2.816406 Z M 43.835938 0 "/>
</clipPath>
<clipPath id="clip-96">
<path clip-rule="nonzero" d="M 46.824219 0 L 51.804688 0 L 51.804688 2.816406 L 46.824219 2.816406 Z M 46.824219 0 "/>
</clipPath>
<clipPath id="clip-97">
<path clip-rule="nonzero" d="M 49.8125 0 L 54.796875 0 L 54.796875 2.816406 L 49.8125 2.816406 Z M 49.8125 0 "/>
</clipPath>
<clipPath id="clip-98">
<path clip-rule="nonzero" d="M 52.800781 0 L 57.785156 0 L 57.785156 2.816406 L 52.800781 2.816406 Z M 52.800781 0 "/>
</clipPath>
<clipPath id="clip-99">
<path clip-rule="nonzero" d="M 55.792969 0 L 60.773438 0 L 60.773438 2.816406 L 55.792969 2.816406 Z M 55.792969 0 "/>
</clipPath>
<clipPath id="clip-100">
<path clip-rule="nonzero" d="M 58.78125 0 L 63.761719 0 L 63.761719 2.816406 L 58.78125 2.816406 Z M 58.78125 0 "/>
</clipPath>
<clipPath id="clip-101">
<path clip-rule="nonzero" d="M 61.769531 0 L 66.75 0 L 66.75 2.816406 L 61.769531 2.816406 Z M 61.769531 0 "/>
</clipPath>
<clipPath id="clip-102">
<path clip-rule="nonzero" d="M 64.757812 0 L 69.738281 0 L 69.738281 2.816406 L 64.757812 2.816406 Z M 64.757812 0 "/>
</clipPath>
<clipPath id="clip-103">
<path clip-rule="nonzero" d="M 67.746094 0 L 72.726562 0 L 72.726562 2.816406 L 67.746094 2.816406 Z M 67.746094 0 "/>
</clipPath>
<clipPath id="clip-104">
<path clip-rule="nonzero" d="M 70.734375 0 L 75.71875 0 L 75.71875 2.816406 L 70.734375 2.816406 Z M 70.734375 0 "/>
</clipPath>
<clipPath id="clip-105">
<path clip-rule="nonzero" d="M 73.722656 0 L 78.707031 0 L 78.707031 2.816406 L 73.722656 2.816406 Z M 73.722656 0 "/>
</clipPath>
<clipPath id="clip-106">
<path clip-rule="nonzero" d="M 76.714844 0 L 81.695312 0 L 81.695312 2.816406 L 76.714844 2.816406 Z M 76.714844 0 "/>
</clipPath>
<clipPath id="clip-107">
<path clip-rule="nonzero" d="M 79.703125 0 L 84.683594 0 L 84.683594 2.816406 L 79.703125 2.816406 Z M 79.703125 0 "/>
</clipPath>
<clipPath id="clip-108">
<path clip-rule="nonzero" d="M 82.691406 0 L 87.671875 0 L 87.671875 2.816406 L 82.691406 2.816406 Z M 82.691406 0 "/>
</clipPath>
<clipPath id="clip-109">
<path clip-rule="nonzero" d="M 85.679688 0 L 90.660156 0 L 90.660156 2.816406 L 85.679688 2.816406 Z M 85.679688 0 "/>
</clipPath>
<clipPath id="clip-110">
<path clip-rule="nonzero" d="M 88.667969 0 L 93.648438 0 L 93.648438 2.816406 L 88.667969 2.816406 Z M 88.667969 0 "/>
</clipPath>
<clipPath id="clip-111">
<path clip-rule="nonzero" d="M 91.65625 0 L 96.640625 0 L 96.640625 2.816406 L 91.65625 2.816406 Z M 91.65625 0 "/>
</clipPath>
<clipPath id="clip-112">
<path clip-rule="nonzero" d="M 94.644531 0 L 99.628906 0 L 99.628906 2.816406 L 94.644531 2.816406 Z M 94.644531 0 "/>
</clipPath>
<clipPath id="clip-113">
<path clip-rule="nonzero" d="M 97.636719 0 L 102.617188 0 L 102.617188 2.816406 L 97.636719 2.816406 Z M 97.636719 0 "/>
</clipPath>
<clipPath id="clip-114">
<path clip-rule="nonzero" d="M 100.625 0 L 105.605469 0 L 105.605469 2.816406 L 100.625 2.816406 Z M 100.625 0 "/>
</clipPath>
<clipPath id="clip-115">
<path clip-rule="nonzero" d="M 103.613281 0 L 108.59375 0 L 108.59375 2.816406 L 103.613281 2.816406 Z M 103.613281 0 "/>
</clipPath>
<clipPath id="clip-116">
<path clip-rule="nonzero" d="M 106.601562 0 L 111.582031 0 L 111.582031 2.816406 L 106.601562 2.816406 Z M 106.601562 0 "/>
</clipPath>
<clipPath id="clip-117">
<path clip-rule="nonzero" d="M 109.589844 0 L 114.570312 0 L 114.570312 2.816406 L 109.589844 2.816406 Z M 109.589844 0 "/>
</clipPath>
<clipPath id="clip-118">
<path clip-rule="nonzero" d="M 112.578125 0 L 117.023438 0 L 117.023438 2.816406 L 112.578125 2.816406 Z M 112.578125 0 "/>
</clipPath>
<clipPath id="clip-119">
<path clip-rule="nonzero" d="M 115.566406 0 L 117.023438 0 L 117.023438 2.816406 L 115.566406 2.816406 Z M 115.566406 0 "/>
</clipPath>
<clipPath id="clip-120">
<path clip-rule="nonzero" d="M 0 60 L 120.660156 60 L 120.660156 97 L 0 97 Z M 0 60 "/>
</clipPath>
</defs>
<g clip-path="url(#clip-0)">
<path fill="none" stroke-width="0.3985" stroke-linecap="butt" stroke-linejoin="miter" stroke="rgb(0%, 0%, 0%)" stroke-opacity="1" stroke-miterlimit="10" d="M 0 -0.000565 L 3.089844 3.089279 " transform="matrix(1, 0, 0, -1, 0, 7.79631)"/>
</g>
<g clip-path="url(#clip-1)">
<path fill="none" stroke-width="0.3985" stroke-linecap="butt" stroke-linejoin="miter" stroke="rgb(0%, 0%, 0%)" stroke-opacity="1" stroke-miterlimit="10" d="M -0.00054875 -0.000565 L 3.089295 3.089279 " transform="matrix(1, 0, 0, -1, 2.98883, 7.79631)"/>
</g>
<g clip-path="url(#clip-2)">
<path fill="none" stroke-width="0.3985" stroke-linecap="butt" stroke-linejoin="miter" stroke="rgb(0%, 0%, 0%)" stroke-opacity="1" stroke-miterlimit="10" d="M -0.0010975 -0.000565 L 3.088746 3.089279 " transform="matrix(1, 0, 0, -1, 5.97766, 7.79631)"/>
</g>
<g clip-path="url(#clip-3)">
<path fill="none" stroke-width="0.3985" stroke-linecap="butt" stroke-linejoin="miter" stroke="rgb(0%, 0%, 0%)" stroke-opacity="1" stroke-miterlimit="10" d="M -0.00164625 -0.000565 L 3.088197 3.089279 " transform="matrix(1, 0, 0, -1, 8.96649, 7.79631)"/>
</g>
<g clip-path="url(#clip-4)">
<path fill="none" stroke-width="0.3985" stroke-linecap="butt" stroke-linejoin="miter" stroke="rgb(0%, 0%, 0%)" stroke-opacity="1" stroke-miterlimit="10" d="M 0.00171125 -0.000565 L 3.087649 3.089279 " transform="matrix(1, 0, 0, -1, 11.95532, 7.79631)"/>
</g>
<g clip-path="url(#clip-5)">
<path fill="none" stroke-width="0.3985" stroke-linecap="butt" stroke-linejoin="miter" stroke="rgb(0%, 0%, 0%)" stroke-opacity="1" stroke-miterlimit="10" d="M 0.0011625 -0.000565 L 3.0871 3.089279 " transform="matrix(1, 0, 0, -1, 14.94415, 7.79631)"/>
</g>
<g clip-path="url(#clip-6)">
<path fill="none" stroke-width="0.3985" stroke-linecap="butt" stroke-linejoin="miter" stroke="rgb(0%, 0%, 0%)" stroke-opacity="1" stroke-miterlimit="10" d="M 0.00061375 -0.000565 L 3.086551 3.089279 " transform="matrix(1, 0, 0, -1, 17.93298, 7.79631)"/>
</g>
<g clip-path="url(#clip-7)">
<path fill="none" stroke-width="0.3985" stroke-linecap="butt" stroke-linejoin="miter" stroke="rgb(0%, 0%, 0%)" stroke-opacity="1" stroke-miterlimit="10" d="M 0.000065 -0.000565 L 3.089909 3.089279 " transform="matrix(1, 0, 0, -1, 20.92181, 7.79631)"/>
</g>
<g clip-path="url(#clip-8)">
<path fill="none" stroke-width="0.3985" stroke-linecap="butt" stroke-linejoin="miter" stroke="rgb(0%, 0%, 0%)" stroke-opacity="1" stroke-miterlimit="10" d="M -0.00048375 -0.000565 L 3.08936 3.089279 " transform="matrix(1, 0, 0, -1, 23.91064, 7.79631)"/>
</g>
<g clip-path="url(#clip-9)">
<path fill="none" stroke-width="0.3985" stroke-linecap="butt" stroke-linejoin="miter" stroke="rgb(0%, 0%, 0%)" stroke-opacity="1" stroke-miterlimit="10" d="M -0.0010325 -0.000565 L 3.088811 3.089279 " transform="matrix(1, 0, 0, -1, 26.89947, 7.79631)"/>
</g>
<g clip-path="url(#clip-10)">
<path fill="none" stroke-width="0.3985" stroke-linecap="butt" stroke-linejoin="miter" stroke="rgb(0%, 0%, 0%)" stroke-opacity="1" stroke-miterlimit="10" d="M -0.00158125 -0.000565 L 3.088262 3.089279 " transform="matrix(1, 0, 0, -1, 29.8883, 7.79631)"/>
</g>
<g clip-path="url(#clip-11)">
<path fill="none" stroke-width="0.3985" stroke-linecap="butt" stroke-linejoin="miter" stroke="rgb(0%, 0%, 0%)" stroke-opacity="1" stroke-miterlimit="10" d="M 0.00177625 -0.000565 L 3.087714 3.089279 " transform="matrix(1, 0, 0, -1, 32.87713, 7.79631)"/>
</g>
<g clip-path="url(#clip-12)">
<path fill="none" stroke-width="0.3985" stroke-linecap="butt" stroke-linejoin="miter" stroke="rgb(0%, 0%, 0%)" stroke-opacity="1" stroke-miterlimit="10" d="M 0.0012275 -0.000565 L 3.087165 3.089279 " transform="matrix(1, 0, 0, -1, 35.86596, 7.79631)"/>
</g>
<g clip-path="url(#clip-13)">
<path fill="none" stroke-width="0.3985" stroke-linecap="butt" stroke-linejoin="miter" stroke="rgb(0%, 0%, 0%)" stroke-opacity="1" stroke-miterlimit="10" d="M 0.00067875 -0.000565 L 3.086616 3.089279 " transform="matrix(1, 0, 0, -1, 38.85479, 7.79631)"/>
</g>
<g clip-path="url(#clip-14)">
<path fill="none" stroke-width="0.3985" stroke-linecap="butt" stroke-linejoin="miter" stroke="rgb(0%, 0%, 0%)" stroke-opacity="1" stroke-miterlimit="10" d="M 0.00013 -0.000565 L 3.089974 3.089279 " transform="matrix(1, 0, 0, -1, 41.84362, 7.79631)"/>
</g>
<g clip-path="url(#clip-15)">
<path fill="none" stroke-width="0.3985" stroke-linecap="butt" stroke-linejoin="miter" stroke="rgb(0%, 0%, 0%)" stroke-opacity="1" stroke-miterlimit="10" d="M -0.00041875 -0.000565 L 3.089425 3.089279 " transform="matrix(1, 0, 0, -1, 44.83245, 7.79631)"/>
</g>
<g clip-path="url(#clip-16)">
<path fill="none" stroke-width="0.3985" stroke-linecap="butt" stroke-linejoin="miter" stroke="rgb(0%, 0%, 0%)" stroke-opacity="1" stroke-miterlimit="10" d="M -0.0009675 -0.000565 L 3.088876 3.089279 " transform="matrix(1, 0, 0, -1, 47.82128, 7.79631)"/>
</g>
<g clip-path="url(#clip-17)">
<path fill="none" stroke-width="0.3985" stroke-linecap="butt" stroke-linejoin="miter" stroke="rgb(0%, 0%, 0%)" stroke-opacity="1" stroke-miterlimit="10" d="M -0.00151625 -0.000565 L 3.088327 3.089279 " transform="matrix(1, 0, 0, -1, 50.81011, 7.79631)"/>
</g>
<g clip-path="url(#clip-18)">
<path fill="none" stroke-width="0.3985" stroke-linecap="butt" stroke-linejoin="miter" stroke="rgb(0%, 0%, 0%)" stroke-opacity="1" stroke-miterlimit="10" d="M 0.00184125 -0.000565 L 3.087779 3.089279 " transform="matrix(1, 0, 0, -1, 53.79894, 7.79631)"/>
</g>
<g clip-path="url(#clip-19)">
<path fill="none" stroke-width="0.3985" stroke-linecap="butt" stroke-linejoin="miter" stroke="rgb(0%, 0%, 0%)" stroke-opacity="1" stroke-miterlimit="10" d="M 0.0012925 -0.000565 L 3.08723 3.089279 " transform="matrix(1, 0, 0, -1, 56.78777, 7.79631)"/>
</g>
<g clip-path="url(#clip-20)">
<path fill="none" stroke-width="0.3985" stroke-linecap="butt" stroke-linejoin="miter" stroke="rgb(0%, 0%, 0%)" stroke-opacity="1" stroke-miterlimit="10" d="M 0.00074375 -0.000565 L 3.086681 3.089279 " transform="matrix(1, 0, 0, -1, 59.7766, 7.79631)"/>
</g>
<g clip-path="url(#clip-21)">
<path fill="none" stroke-width="0.3985" stroke-linecap="butt" stroke-linejoin="miter" stroke="rgb(0%, 0%, 0%)" stroke-opacity="1" stroke-miterlimit="10" d="M 0.000195 -0.000565 L 3.090039 3.089279 " transform="matrix(1, 0, 0, -1, 62.76543, 7.79631)"/>
</g>
<g clip-path="url(#clip-22)">
<path fill="none" stroke-width="0.3985" stroke-linecap="butt" stroke-linejoin="miter" stroke="rgb(0%, 0%, 0%)" stroke-opacity="1" stroke-miterlimit="10" d="M -0.00035375 -0.000565 L 3.08949 3.089279 " transform="matrix(1, 0, 0, -1, 65.75426, 7.79631)"/>
</g>
<g clip-path="url(#clip-23)">
<path fill="none" stroke-width="0.3985" stroke-linecap="butt" stroke-linejoin="miter" stroke="rgb(0%, 0%, 0%)" stroke-opacity="1" stroke-miterlimit="10" d="M -0.0009025 -0.000565 L 3.088941 3.089279 " transform="matrix(1, 0, 0, -1, 68.74309, 7.79631)"/>
</g>
<g clip-path="url(#clip-24)">
<path fill="none" stroke-width="0.3985" stroke-linecap="butt" stroke-linejoin="miter" stroke="rgb(0%, 0%, 0%)" stroke-opacity="1" stroke-miterlimit="10" d="M -0.00145125 -0.000565 L 3.088392 3.089279 " transform="matrix(1, 0, 0, -1, 71.73192, 7.79631)"/>
</g>
<g clip-path="url(#clip-25)">
<path fill="none" stroke-width="0.3985" stroke-linecap="butt" stroke-linejoin="miter" stroke="rgb(0%, 0%, 0%)" stroke-opacity="1" stroke-miterlimit="10" d="M 0.00190625 -0.000565 L 3.087844 3.089279 " transform="matrix(1, 0, 0, -1, 74.72075, 7.79631)"/>
</g>
<g clip-path="url(#clip-26)">
<path fill="none" stroke-width="0.3985" stroke-linecap="butt" stroke-linejoin="miter" stroke="rgb(0%, 0%, 0%)" stroke-opacity="1" stroke-miterlimit="10" d="M 0.0013575 -0.000565 L 3.087295 3.089279 " transform="matrix(1, 0, 0, -1, 77.70958, 7.79631)"/>
</g>
<g clip-path="url(#clip-27)">
<path fill="none" stroke-width="0.3985" stroke-linecap="butt" stroke-linejoin="miter" stroke="rgb(0%, 0%, 0%)" stroke-opacity="1" stroke-miterlimit="10" d="M 0.00080875 -0.000565 L 3.086746 3.089279 " transform="matrix(1, 0, 0, -1, 80.69841, 7.79631)"/>
</g>
<g clip-path="url(#clip-28)">
<path fill="none" stroke-width="0.3985" stroke-linecap="butt" stroke-linejoin="miter" stroke="rgb(0%, 0%, 0%)" stroke-opacity="1" stroke-miterlimit="10" d="M 0.00026 -0.000565 L 3.090104 3.089279 " transform="matrix(1, 0, 0, -1, 83.68724, 7.79631)"/>
</g>
<g clip-path="url(#clip-29)">
<path fill="none" stroke-width="0.3985" stroke-linecap="butt" stroke-linejoin="miter" stroke="rgb(0%, 0%, 0%)" stroke-opacity="1" stroke-miterlimit="10" d="M -0.00028875 -0.000565 L 3.089555 3.089279 " transform="matrix(1, 0, 0, -1, 86.67607, 7.79631)"/>
</g>
<g clip-path="url(#clip-30)">
<path fill="none" stroke-width="0.3985" stroke-linecap="butt" stroke-linejoin="miter" stroke="rgb(0%, 0%, 0%)" stroke-opacity="1" stroke-miterlimit="10" d="M -0.0008375 -0.000565 L 3.089006 3.089279 " transform="matrix(1, 0, 0, -1, 89.6649, 7.79631)"/>
</g>
<g clip-path="url(#clip-31)">
<path fill="none" stroke-width="0.3985" stroke-linecap="butt" stroke-linejoin="miter" stroke="rgb(0%, 0%, 0%)" stroke-opacity="1" stroke-miterlimit="10" d="M -0.00138625 -0.000565 L 3.088458 3.089279 " transform="matrix(1, 0, 0, -1, 92.65373, 7.79631)"/>
</g>
<g clip-path="url(#clip-32)">
<path fill="none" stroke-width="0.3985" stroke-linecap="butt" stroke-linejoin="miter" stroke="rgb(0%, 0%, 0%)" stroke-opacity="1" stroke-miterlimit="10" d="M -0.001935 -0.000565 L 3.087909 3.089279 " transform="matrix(1, 0, 0, -1, 95.64256, 7.79631)"/>
</g>
<g clip-path="url(#clip-33)">
<path fill="none" stroke-width="0.3985" stroke-linecap="butt" stroke-linejoin="miter" stroke="rgb(0%, 0%, 0%)" stroke-opacity="1" stroke-miterlimit="10" d="M 0.0014225 -0.000565 L 3.08736 3.089279 " transform="matrix(1, 0, 0, -1, 98.63139, 7.79631)"/>
</g>
<g clip-path="url(#clip-34)">
<path fill="none" stroke-width="0.3985" stroke-linecap="butt" stroke-linejoin="miter" stroke="rgb(0%, 0%, 0%)" stroke-opacity="1" stroke-miterlimit="10" d="M 0.00087375 -0.000565 L 3.086811 3.089279 " transform="matrix(1, 0, 0, -1, 101.62022, 7.79631)"/>
</g>
<g clip-path="url(#clip-35)">
<path fill="none" stroke-width="0.3985" stroke-linecap="butt" stroke-linejoin="miter" stroke="rgb(0%, 0%, 0%)" stroke-opacity="1" stroke-miterlimit="10" d="M 0.000325 -0.000565 L 3.090169 3.089279 " transform="matrix(1, 0, 0, -1, 104.60905, 7.79631)"/>
</g>
<g clip-path="url(#clip-36)">
<path fill="none" stroke-width="0.3985" stroke-linecap="butt" stroke-linejoin="miter" stroke="rgb(0%, 0%, 0%)" stroke-opacity="1" stroke-miterlimit="10" d="M -0.00022375 -0.000565 L 3.08962 3.089279 " transform="matrix(1, 0, 0, -1, 107.59788, 7.79631)"/>
</g>
<g clip-path="url(#clip-37)">
<path fill="none" stroke-width="0.3985" stroke-linecap="butt" stroke-linejoin="miter" stroke="rgb(0%, 0%, 0%)" stroke-opacity="1" stroke-miterlimit="10" d="M -0.0007725 -0.000565 L 3.089071 3.089279 " transform="matrix(1, 0, 0, -1, 110.58671, 7.79631)"/>
</g>
<g clip-path="url(#clip-38)">
<path fill="none" stroke-width="0.3985" stroke-linecap="butt" stroke-linejoin="miter" stroke="rgb(0%, 0%, 0%)" stroke-opacity="1" stroke-miterlimit="10" d="M -0.00132125 -0.000565 L 3.088522 3.089279 " transform="matrix(1, 0, 0, -1, 113.57554, 7.79631)"/>
</g>
<g clip-path="url(#clip-39)">
<path fill="none" stroke-width="0.3985" stroke-linecap="butt" stroke-linejoin="miter" stroke="rgb(0%, 0%, 0%)" stroke-opacity="1" stroke-miterlimit="10" d="M -0.00187 -0.000565 L 3.087974 3.089279 " transform="matrix(1, 0, 0, -1, 116.56437, 7.79631)"/>
</g>
<g clip-path="url(#clip-40)">
<path fill="none" stroke-width="0.3985" stroke-linecap="butt" stroke-linejoin="miter" stroke="rgb(0%, 0%, 0%)" stroke-opacity="1" stroke-miterlimit="10" d="M 0 -0.00111375 L 3.089844 3.08873 " transform="matrix(1, 0, 0, -1, 0, 4.80748)"/>
</g>
<g clip-path="url(#clip-41)">
<path fill="none" stroke-width="0.3985" stroke-linecap="butt" stroke-linejoin="miter" stroke="rgb(0%, 0%, 0%)" stroke-opacity="1" stroke-miterlimit="10" d="M -0.00054875 -0.00111375 L 3.089295 3.08873 " transform="matrix(1, 0, 0, -1, 2.98883, 4.80748)"/>
</g>
<g clip-path="url(#clip-42)">
<path fill="none" stroke-width="0.3985" stroke-linecap="butt" stroke-linejoin="miter" stroke="rgb(0%, 0%, 0%)" stroke-opacity="1" stroke-miterlimit="10" d="M -0.0010975 -0.00111375 L 3.088746 3.08873 " transform="matrix(1, 0, 0, -1, 5.97766, 4.80748)"/>
</g>
<g clip-path="url(#clip-43)">
<path fill="none" stroke-width="0.3985" stroke-linecap="butt" stroke-linejoin="miter" stroke="rgb(0%, 0%, 0%)" stroke-opacity="1" stroke-miterlimit="10" d="M -0.00164625 -0.00111375 L 3.088197 3.08873 " transform="matrix(1, 0, 0, -1, 8.96649, 4.80748)"/>
</g>
<g clip-path="url(#clip-44)">
<path fill="none" stroke-width="0.3985" stroke-linecap="butt" stroke-linejoin="miter" stroke="rgb(0%, 0%, 0%)" stroke-opacity="1" stroke-miterlimit="10" d="M 0.00171125 -0.00111375 L 3.087649 3.08873 " transform="matrix(1, 0, 0, -1, 11.95532, 4.80748)"/>
</g>
<g clip-path="url(#clip-45)">
<path fill="none" stroke-width="0.3985" stroke-linecap="butt" stroke-linejoin="miter" stroke="rgb(0%, 0%, 0%)" stroke-opacity="1" stroke-miterlimit="10" d="M 0.0011625 -0.00111375 L 3.0871 3.08873 " transform="matrix(1, 0, 0, -1, 14.94415, 4.80748)"/>
</g>
<g clip-path="url(#clip-46)">
<path fill="none" stroke-width="0.3985" stroke-linecap="butt" stroke-linejoin="miter" stroke="rgb(0%, 0%, 0%)" stroke-opacity="1" stroke-miterlimit="10" d="M 0.00061375 -0.00111375 L 3.086551 3.08873 " transform="matrix(1, 0, 0, -1, 17.93298, 4.80748)"/>
</g>
<g clip-path="url(#clip-47)">
<path fill="none" stroke-width="0.3985" stroke-linecap="butt" stroke-linejoin="miter" stroke="rgb(0%, 0%, 0%)" stroke-opacity="1" stroke-miterlimit="10" d="M 0.000065 -0.00111375 L 3.089909 3.08873 " transform="matrix(1, 0, 0, -1, 20.92181, 4.80748)"/>
</g>
<g clip-path="url(#clip-48)">
<path fill="none" stroke-width="0.3985" stroke-linecap="butt" stroke-linejoin="miter" stroke="rgb(0%, 0%, 0%)" stroke-opacity="1" stroke-miterlimit="10" d="M -0.00048375 -0.00111375 L 3.08936 3.08873 " transform="matrix(1, 0, 0, -1, 23.91064, 4.80748)"/>
</g>
<g clip-path="url(#clip-49)">
<path fill="none" stroke-width="0.3985" stroke-linecap="butt" stroke-linejoin="miter" stroke="rgb(0%, 0%, 0%)" stroke-opacity="1" stroke-miterlimit="10" d="M -0.0010325 -0.00111375 L 3.088811 3.08873 " transform="matrix(1, 0, 0, -1, 26.89947, 4.80748)"/>
</g>
<g clip-path="url(#clip-50)">
<path fill="none" stroke-width="0.3985" stroke-linecap="butt" stroke-linejoin="miter" stroke="rgb(0%, 0%, 0%)" stroke-opacity="1" stroke-miterlimit="10" d="M -0.00158125 -0.00111375 L 3.088262 3.08873 " transform="matrix(1, 0, 0, -1, 29.8883, 4.80748)"/>
</g>
<g clip-path="url(#clip-51)">
<path fill="none" stroke-width="0.3985" stroke-linecap="butt" stroke-linejoin="miter" stroke="rgb(0%, 0%, 0%)" stroke-opacity="1" stroke-miterlimit="10" d="M 0.00177625 -0.00111375 L 3.087714 3.08873 " transform="matrix(1, 0, 0, -1, 32.87713, 4.80748)"/>
</g>
<g clip-path="url(#clip-52)">
<path fill="none" stroke-width="0.3985" stroke-linecap="butt" stroke-linejoin="miter" stroke="rgb(0%, 0%, 0%)" stroke-opacity="1" stroke-miterlimit="10" d="M 0.0012275 -0.00111375 L 3.087165 3.08873 " transform="matrix(1, 0, 0, -1, 35.86596, 4.80748)"/>
</g>
<g clip-path="url(#clip-53)">
<path fill="none" stroke-width="0.3985" stroke-linecap="butt" stroke-linejoin="miter" stroke="rgb(0%, 0%, 0%)" stroke-opacity="1" stroke-miterlimit="10" d="M 0.00067875 -0.00111375 L 3.086616 3.08873 " transform="matrix(1, 0, 0, -1, 38.85479, 4.80748)"/>
</g>
<g clip-path="url(#clip-54)">
<path fill="none" stroke-width="0.3985" stroke-linecap="butt" stroke-linejoin="miter" stroke="rgb(0%, 0%, 0%)" stroke-opacity="1" stroke-miterlimit="10" d="M 0.00013 -0.00111375 L 3.089974 3.08873 " transform="matrix(1, 0, 0, -1, 41.84362, 4.80748)"/>
</g>
<g clip-path="url(#clip-55)">
<path fill="none" stroke-width="0.3985" stroke-linecap="butt" stroke-linejoin="miter" stroke="rgb(0%, 0%, 0%)" stroke-opacity="1" stroke-miterlimit="10" d="M -0.00041875 -0.00111375 L 3.089425 3.08873 " transform="matrix(1, 0, 0, -1, 44.83245, 4.80748)"/>
</g>
<g clip-path="url(#clip-56)">
<path fill="none" stroke-width="0.3985" stroke-linecap="butt" stroke-linejoin="miter" stroke="rgb(0%, 0%, 0%)" stroke-opacity="1" stroke-miterlimit="10" d="M -0.0009675 -0.00111375 L 3.088876 3.08873 " transform="matrix(1, 0, 0, -1, 47.82128, 4.80748)"/>
</g>
<g clip-path="url(#clip-57)">
<path fill="none" stroke-width="0.3985" stroke-linecap="butt" stroke-linejoin="miter" stroke="rgb(0%, 0%, 0%)" stroke-opacity="1" stroke-miterlimit="10" d="M -0.00151625 -0.00111375 L 3.088327 3.08873 " transform="matrix(1, 0, 0, -1, 50.81011, 4.80748)"/>
</g>
<g clip-path="url(#clip-58)">
<path fill="none" stroke-width="0.3985" stroke-linecap="butt" stroke-linejoin="miter" stroke="rgb(0%, 0%, 0%)" stroke-opacity="1" stroke-miterlimit="10" d="M 0.00184125 -0.00111375 L 3.087779 3.08873 " transform="matrix(1, 0, 0, -1, 53.79894, 4.80748)"/>
</g>
<g clip-path="url(#clip-59)">
<path fill="none" stroke-width="0.3985" stroke-linecap="butt" stroke-linejoin="miter" stroke="rgb(0%, 0%, 0%)" stroke-opacity="1" stroke-miterlimit="10" d="M 0.0012925 -0.00111375 L 3.08723 3.08873 " transform="matrix(1, 0, 0, -1, 56.78777, 4.80748)"/>
</g>
<g clip-path="url(#clip-60)">
<path fill="none" stroke-width="0.3985" stroke-linecap="butt" stroke-linejoin="miter" stroke="rgb(0%, 0%, 0%)" stroke-opacity="1" stroke-miterlimit="10" d="M 0.00074375 -0.00111375 L 3.086681 3.08873 " transform="matrix(1, 0, 0, -1, 59.7766, 4.80748)"/>
</g>
<g clip-path="url(#clip-61)">
<path fill="none" stroke-width="0.3985" stroke-linecap="butt" stroke-linejoin="miter" stroke="rgb(0%, 0%, 0%)" stroke-opacity="1" stroke-miterlimit="10" d="M 0.000195 -0.00111375 L 3.090039 3.08873 " transform="matrix(1, 0, 0, -1, 62.76543, 4.80748)"/>
</g>
<g clip-path="url(#clip-62)">
<path fill="none" stroke-width="0.3985" stroke-linecap="butt" stroke-linejoin="miter" stroke="rgb(0%, 0%, 0%)" stroke-opacity="1" stroke-miterlimit="10" d="M -0.00035375 -0.00111375 L 3.08949 3.08873 " transform="matrix(1, 0, 0, -1, 65.75426, 4.80748)"/>
</g>
<g clip-path="url(#clip-63)">
<path fill="none" stroke-width="0.3985" stroke-linecap="butt" stroke-linejoin="miter" stroke="rgb(0%, 0%, 0%)" stroke-opacity="1" stroke-miterlimit="10" d="M -0.0009025 -0.00111375 L 3.088941 3.08873 " transform="matrix(1, 0, 0, -1, 68.74309, 4.80748)"/>
</g>
<g clip-path="url(#clip-64)">
<path fill="none" stroke-width="0.3985" stroke-linecap="butt" stroke-linejoin="miter" stroke="rgb(0%, 0%, 0%)" stroke-opacity="1" stroke-miterlimit="10" d="M -0.00145125 -0.00111375 L 3.088392 3.08873 " transform="matrix(1, 0, 0, -1, 71.73192, 4.80748)"/>
</g>
<g clip-path="url(#clip-65)">
<path fill="none" stroke-width="0.3985" stroke-linecap="butt" stroke-linejoin="miter" stroke="rgb(0%, 0%, 0%)" stroke-opacity="1" stroke-miterlimit="10" d="M 0.00190625 -0.00111375 L 3.087844 3.08873 " transform="matrix(1, 0, 0, -1, 74.72075, 4.80748)"/>
</g>
<g clip-path="url(#clip-66)">
<path fill="none" stroke-width="0.3985" stroke-linecap="butt" stroke-linejoin="miter" stroke="rgb(0%, 0%, 0%)" stroke-opacity="1" stroke-miterlimit="10" d="M 0.0013575 -0.00111375 L 3.087295 3.08873 " transform="matrix(1, 0, 0, -1, 77.70958, 4.80748)"/>
</g>
<g clip-path="url(#clip-67)">
<path fill="none" stroke-width="0.3985" stroke-linecap="butt" stroke-linejoin="miter" stroke="rgb(0%, 0%, 0%)" stroke-opacity="1" stroke-miterlimit="10" d="M 0.00080875 -0.00111375 L 3.086746 3.08873 " transform="matrix(1, 0, 0, -1, 80.69841, 4.80748)"/>
</g>
<g clip-path="url(#clip-68)">
<path fill="none" stroke-width="0.3985" stroke-linecap="butt" stroke-linejoin="miter" stroke="rgb(0%, 0%, 0%)" stroke-opacity="1" stroke-miterlimit="10" d="M 0.00026 -0.00111375 L 3.090104 3.08873 " transform="matrix(1, 0, 0, -1, 83.68724, 4.80748)"/>
</g>
<g clip-path="url(#clip-69)">
<path fill="none" stroke-width="0.3985" stroke-linecap="butt" stroke-linejoin="miter" stroke="rgb(0%, 0%, 0%)" stroke-opacity="1" stroke-miterlimit="10" d="M -0.00028875 -0.00111375 L 3.089555 3.08873 " transform="matrix(1, 0, 0, -1, 86.67607, 4.80748)"/>
</g>
<g clip-path="url(#clip-70)">
<path fill="none" stroke-width="0.3985" stroke-linecap="butt" stroke-linejoin="miter" stroke="rgb(0%, 0%, 0%)" stroke-opacity="1" stroke-miterlimit="10" d="M -0.0008375 -0.00111375 L 3.089006 3.08873 " transform="matrix(1, 0, 0, -1, 89.6649, 4.80748)"/>
</g>
<g clip-path="url(#clip-71)">
<path fill="none" stroke-width="0.3985" stroke-linecap="butt" stroke-linejoin="miter" stroke="rgb(0%, 0%, 0%)" stroke-opacity="1" stroke-miterlimit="10" d="M -0.00138625 -0.00111375 L 3.088458 3.08873 " transform="matrix(1, 0, 0, -1, 92.65373, 4.80748)"/>
</g>
<g clip-path="url(#clip-72)">
<path fill="none" stroke-width="0.3985" stroke-linecap="butt" stroke-linejoin="miter" stroke="rgb(0%, 0%, 0%)" stroke-opacity="1" stroke-miterlimit="10" d="M -0.001935 -0.00111375 L 3.087909 3.08873 " transform="matrix(1, 0, 0, -1, 95.64256, 4.80748)"/>
</g>
<g clip-path="url(#clip-73)">
<path fill="none" stroke-width="0.3985" stroke-linecap="butt" stroke-linejoin="miter" stroke="rgb(0%, 0%, 0%)" stroke-opacity="1" stroke-miterlimit="10" d="M 0.0014225 -0.00111375 L 3.08736 3.08873 " transform="matrix(1, 0, 0, -1, 98.63139, 4.80748)"/>
</g>
<g clip-path="url(#clip-74)">
<path fill="none" stroke-width="0.3985" stroke-linecap="butt" stroke-linejoin="miter" stroke="rgb(0%, 0%, 0%)" stroke-opacity="1" stroke-miterlimit="10" d="M 0.00087375 -0.00111375 L 3.086811 3.08873 " transform="matrix(1, 0, 0, -1, 101.62022, 4.80748)"/>
</g>
<g clip-path="url(#clip-75)">
<path fill="none" stroke-width="0.3985" stroke-linecap="butt" stroke-linejoin="miter" stroke="rgb(0%, 0%, 0%)" stroke-opacity="1" stroke-miterlimit="10" d="M 0.000325 -0.00111375 L 3.090169 3.08873 " transform="matrix(1, 0, 0, -1, 104.60905, 4.80748)"/>
</g>
<g clip-path="url(#clip-76)">
<path fill="none" stroke-width="0.3985" stroke-linecap="butt" stroke-linejoin="miter" stroke="rgb(0%, 0%, 0%)" stroke-opacity="1" stroke-miterlimit="10" d="M -0.00022375 -0.00111375 L 3.08962 3.08873 " transform="matrix(1, 0, 0, -1, 107.59788, 4.80748)"/>
</g>
<g clip-path="url(#clip-77)">
<path fill="none" stroke-width="0.3985" stroke-linecap="butt" stroke-linejoin="miter" stroke="rgb(0%, 0%, 0%)" stroke-opacity="1" stroke-miterlimit="10" d="M -0.0007725 -0.00111375 L 3.089071 3.08873 " transform="matrix(1, 0, 0, -1, 110.58671, 4.80748)"/>
</g>
<g clip-path="url(#clip-78)">
<path fill="none" stroke-width="0.3985" stroke-linecap="butt" stroke-linejoin="miter" stroke="rgb(0%, 0%, 0%)" stroke-opacity="1" stroke-miterlimit="10" d="M -0.00132125 -0.00111375 L 3.088522 3.08873 " transform="matrix(1, 0, 0, -1, 113.57554, 4.80748)"/>
</g>
<g clip-path="url(#clip-79)">
<path fill="none" stroke-width="0.3985" stroke-linecap="butt" stroke-linejoin="miter" stroke="rgb(0%, 0%, 0%)" stroke-opacity="1" stroke-miterlimit="10" d="M -0.00187 -0.00111375 L 3.087974 3.08873 " transform="matrix(1, 0, 0, -1, 116.56437, 4.80748)"/>
</g>
<g clip-path="url(#clip-80)">
<path fill="none" stroke-width="0.3985" stroke-linecap="butt" stroke-linejoin="miter" stroke="rgb(0%, 0%, 0%)" stroke-opacity="1" stroke-miterlimit="10" d="M 0 -0.0016625 L 3.089844 3.088181 " transform="matrix(1, 0, 0, -1, 0, 1.81865)"/>
</g>
<g clip-path="url(#clip-81)">
<path fill="none" stroke-width="0.3985" stroke-linecap="butt" stroke-linejoin="miter" stroke="rgb(0%, 0%, 0%)" stroke-opacity="1" stroke-miterlimit="10" d="M -0.00054875 -0.0016625 L 3.089295 3.088181 " transform="matrix(1, 0, 0, -1, 2.98883, 1.81865)"/>
</g>
<g clip-path="url(#clip-82)">
<path fill="none" stroke-width="0.3985" stroke-linecap="butt" stroke-linejoin="miter" stroke="rgb(0%, 0%, 0%)" stroke-opacity="1" stroke-miterlimit="10" d="M -0.0010975 -0.0016625 L 3.088746 3.088181 " transform="matrix(1, 0, 0, -1, 5.97766, 1.81865)"/>
</g>
<g clip-path="url(#clip-83)">
<path fill="none" stroke-width="0.3985" stroke-linecap="butt" stroke-linejoin="miter" stroke="rgb(0%, 0%, 0%)" stroke-opacity="1" stroke-miterlimit="10" d="M -0.00164625 -0.0016625 L 3.088197 3.088181 " transform="matrix(1, 0, 0, -1, 8.96649, 1.81865)"/>
</g>
<g clip-path="url(#clip-84)">
<path fill="none" stroke-width="0.3985" stroke-linecap="butt" stroke-linejoin="miter" stroke="rgb(0%, 0%, 0%)" stroke-opacity="1" stroke-miterlimit="10" d="M 0.00171125 -0.0016625 L 3.087649 3.088181 " transform="matrix(1, 0, 0, -1, 11.95532, 1.81865)"/>
</g>
<g clip-path="url(#clip-85)">
<path fill="none" stroke-width="0.3985" stroke-linecap="butt" stroke-linejoin="miter" stroke="rgb(0%, 0%, 0%)" stroke-opacity="1" stroke-miterlimit="10" d="M 0.0011625 -0.0016625 L 3.0871 3.088181 " transform="matrix(1, 0, 0, -1, 14.94415, 1.81865)"/>
</g>
<g clip-path="url(#clip-86)">
<path fill="none" stroke-width="0.3985" stroke-linecap="butt" stroke-linejoin="miter" stroke="rgb(0%, 0%, 0%)" stroke-opacity="1" stroke-miterlimit="10" d="M 0.00061375 -0.0016625 L 3.086551 3.088181 " transform="matrix(1, 0, 0, -1, 17.93298, 1.81865)"/>
</g>
<g clip-path="url(#clip-87)">
<path fill="none" stroke-width="0.3985" stroke-linecap="butt" stroke-linejoin="miter" stroke="rgb(0%, 0%, 0%)" stroke-opacity="1" stroke-miterlimit="10" d="M 0.000065 -0.0016625 L 3.089909 3.088181 " transform="matrix(1, 0, 0, -1, 20.92181, 1.81865)"/>
</g>
<g clip-path="url(#clip-88)">
<path fill="none" stroke-width="0.3985" stroke-linecap="butt" stroke-linejoin="miter" stroke="rgb(0%, 0%, 0%)" stroke-opacity="1" stroke-miterlimit="10" d="M -0.00048375 -0.0016625 L 3.08936 3.088181 " transform="matrix(1, 0, 0, -1, 23.91064, 1.81865)"/>
</g>
<g clip-path="url(#clip-89)">
<path fill="none" stroke-width="0.3985" stroke-linecap="butt" stroke-linejoin="miter" stroke="rgb(0%, 0%, 0%)" stroke-opacity="1" stroke-miterlimit="10" d="M -0.0010325 -0.0016625 L 3.088811 3.088181 " transform="matrix(1, 0, 0, -1, 26.89947, 1.81865)"/>
</g>
<g clip-path="url(#clip-90)">
<path fill="none" stroke-width="0.3985" stroke-linecap="butt" stroke-linejoin="miter" stroke="rgb(0%, 0%, 0%)" stroke-opacity="1" stroke-miterlimit="10" d="M -0.00158125 -0.0016625 L 3.088262 3.088181 " transform="matrix(1, 0, 0, -1, 29.8883, 1.81865)"/>
</g>
<g clip-path="url(#clip-91)">
<path fill="none" stroke-width="0.3985" stroke-linecap="butt" stroke-linejoin="miter" stroke="rgb(0%, 0%, 0%)" stroke-opacity="1" stroke-miterlimit="10" d="M 0.00177625 -0.0016625 L 3.087714 3.088181 " transform="matrix(1, 0, 0, -1, 32.87713, 1.81865)"/>
</g>
<g clip-path="url(#clip-92)">
<path fill="none" stroke-width="0.3985" stroke-linecap="butt" stroke-linejoin="miter" stroke="rgb(0%, 0%, 0%)" stroke-opacity="1" stroke-miterlimit="10" d="M 0.0012275 -0.0016625 L 3.087165 3.088181 " transform="matrix(1, 0, 0, -1, 35.86596, 1.81865)"/>
</g>
<g clip-path="url(#clip-93)">
<path fill="none" stroke-width="0.3985" stroke-linecap="butt" stroke-linejoin="miter" stroke="rgb(0%, 0%, 0%)" stroke-opacity="1" stroke-miterlimit="10" d="M 0.00067875 -0.0016625 L 3.086616 3.088181 " transform="matrix(1, 0, 0, -1, 38.85479, 1.81865)"/>
</g>
<g clip-path="url(#clip-94)">
<path fill="none" stroke-width="0.3985" stroke-linecap="butt" stroke-linejoin="miter" stroke="rgb(0%, 0%, 0%)" stroke-opacity="1" stroke-miterlimit="10" d="M 0.00013 -0.0016625 L 3.089974 3.088181 " transform="matrix(1, 0, 0, -1, 41.84362, 1.81865)"/>
</g>
<g clip-path="url(#clip-95)">
<path fill="none" stroke-width="0.3985" stroke-linecap="butt" stroke-linejoin="miter" stroke="rgb(0%, 0%, 0%)" stroke-opacity="1" stroke-miterlimit="10" d="M -0.00041875 -0.0016625 L 3.089425 3.088181 " transform="matrix(1, 0, 0, -1, 44.83245, 1.81865)"/>
</g>
<g clip-path="url(#clip-96)">
<path fill="none" stroke-width="0.3985" stroke-linecap="butt" stroke-linejoin="miter" stroke="rgb(0%, 0%, 0%)" stroke-opacity="1" stroke-miterlimit="10" d="M -0.0009675 -0.0016625 L 3.088876 3.088181 " transform="matrix(1, 0, 0, -1, 47.82128, 1.81865)"/>
</g>
<g clip-path="url(#clip-97)">
<path fill="none" stroke-width="0.3985" stroke-linecap="butt" stroke-linejoin="miter" stroke="rgb(0%, 0%, 0%)" stroke-opacity="1" stroke-miterlimit="10" d="M -0.00151625 -0.0016625 L 3.088327 3.088181 " transform="matrix(1, 0, 0, -1, 50.81011, 1.81865)"/>
</g>
<g clip-path="url(#clip-98)">
<path fill="none" stroke-width="0.3985" stroke-linecap="butt" stroke-linejoin="miter" stroke="rgb(0%, 0%, 0%)" stroke-opacity="1" stroke-miterlimit="10" d="M 0.00184125 -0.0016625 L 3.087779 3.088181 " transform="matrix(1, 0, 0, -1, 53.79894, 1.81865)"/>
</g>
<g clip-path="url(#clip-99)">
<path fill="none" stroke-width="0.3985" stroke-linecap="butt" stroke-linejoin="miter" stroke="rgb(0%, 0%, 0%)" stroke-opacity="1" stroke-miterlimit="10" d="M 0.0012925 -0.0016625 L 3.08723 3.088181 " transform="matrix(1, 0, 0, -1, 56.78777, 1.81865)"/>
</g>
<g clip-path="url(#clip-100)">
<path fill="none" stroke-width="0.3985" stroke-linecap="butt" stroke-linejoin="miter" stroke="rgb(0%, 0%, 0%)" stroke-opacity="1" stroke-miterlimit="10" d="M 0.00074375 -0.0016625 L 3.086681 3.088181 " transform="matrix(1, 0, 0, -1, 59.7766, 1.81865)"/>
</g>
<g clip-path="url(#clip-101)">
<path fill="none" stroke-width="0.3985" stroke-linecap="butt" stroke-linejoin="miter" stroke="rgb(0%, 0%, 0%)" stroke-opacity="1" stroke-miterlimit="10" d="M 0.000195 -0.0016625 L 3.090039 3.088181 " transform="matrix(1, 0, 0, -1, 62.76543, 1.81865)"/>
</g>
<g clip-path="url(#clip-102)">
<path fill="none" stroke-width="0.3985" stroke-linecap="butt" stroke-linejoin="miter" stroke="rgb(0%, 0%, 0%)" stroke-opacity="1" stroke-miterlimit="10" d="M -0.00035375 -0.0016625 L 3.08949 3.088181 " transform="matrix(1, 0, 0, -1, 65.75426, 1.81865)"/>
</g>
<g clip-path="url(#clip-103)">
<path fill="none" stroke-width="0.3985" stroke-linecap="butt" stroke-linejoin="miter" stroke="rgb(0%, 0%, 0%)" stroke-opacity="1" stroke-miterlimit="10" d="M -0.0009025 -0.0016625 L 3.088941 3.088181 " transform="matrix(1, 0, 0, -1, 68.74309, 1.81865)"/>
</g>
<g clip-path="url(#clip-104)">
<path fill="none" stroke-width="0.3985" stroke-linecap="butt" stroke-linejoin="miter" stroke="rgb(0%, 0%, 0%)" stroke-opacity="1" stroke-miterlimit="10" d="M -0.00145125 -0.0016625 L 3.088392 3.088181 " transform="matrix(1, 0, 0, -1, 71.73192, 1.81865)"/>
</g>
<g clip-path="url(#clip-105)">
<path fill="none" stroke-width="0.3985" stroke-linecap="butt" stroke-linejoin="miter" stroke="rgb(0%, 0%, 0%)" stroke-opacity="1" stroke-miterlimit="10" d="M 0.00190625 -0.0016625 L 3.087844 3.088181 " transform="matrix(1, 0, 0, -1, 74.72075, 1.81865)"/>
</g>
<g clip-path="url(#clip-106)">
<path fill="none" stroke-width="0.3985" stroke-linecap="butt" stroke-linejoin="miter" stroke="rgb(0%, 0%, 0%)" stroke-opacity="1" stroke-miterlimit="10" d="M 0.0013575 -0.0016625 L 3.087295 3.088181 " transform="matrix(1, 0, 0, -1, 77.70958, 1.81865)"/>
</g>
<g clip-path="url(#clip-107)">
<path fill="none" stroke-width="0.3985" stroke-linecap="butt" stroke-linejoin="miter" stroke="rgb(0%, 0%, 0%)" stroke-opacity="1" stroke-miterlimit="10" d="M 0.00080875 -0.0016625 L 3.086746 3.088181 " transform="matrix(1, 0, 0, -1, 80.69841, 1.81865)"/>
</g>
<g clip-path="url(#clip-108)">
<path fill="none" stroke-width="0.3985" stroke-linecap="butt" stroke-linejoin="miter" stroke="rgb(0%, 0%, 0%)" stroke-opacity="1" stroke-miterlimit="10" d="M 0.00026 -0.0016625 L 3.090104 3.088181 " transform="matrix(1, 0, 0, -1, 83.68724, 1.81865)"/>
</g>
<g clip-path="url(#clip-109)">
<path fill="none" stroke-width="0.3985" stroke-linecap="butt" stroke-linejoin="miter" stroke="rgb(0%, 0%, 0%)" stroke-opacity="1" stroke-miterlimit="10" d="M -0.00028875 -0.0016625 L 3.089555 3.088181 " transform="matrix(1, 0, 0, -1, 86.67607, 1.81865)"/>
</g>
<g clip-path="url(#clip-110)">
<path fill="none" stroke-width="0.3985" stroke-linecap="butt" stroke-linejoin="miter" stroke="rgb(0%, 0%, 0%)" stroke-opacity="1" stroke-miterlimit="10" d="M -0.0008375 -0.0016625 L 3.089006 3.088181 " transform="matrix(1, 0, 0, -1, 89.6649, 1.81865)"/>
</g>
<g clip-path="url(#clip-111)">
<path fill="none" stroke-width="0.3985" stroke-linecap="butt" stroke-linejoin="miter" stroke="rgb(0%, 0%, 0%)" stroke-opacity="1" stroke-miterlimit="10" d="M -0.00138625 -0.0016625 L 3.088458 3.088181 " transform="matrix(1, 0, 0, -1, 92.65373, 1.81865)"/>
</g>
<g clip-path="url(#clip-112)">
<path fill="none" stroke-width="0.3985" stroke-linecap="butt" stroke-linejoin="miter" stroke="rgb(0%, 0%, 0%)" stroke-opacity="1" stroke-miterlimit="10" d="M -0.001935 -0.0016625 L 3.087909 3.088181 " transform="matrix(1, 0, 0, -1, 95.64256, 1.81865)"/>
</g>
<g clip-path="url(#clip-113)">
<path fill="none" stroke-width="0.3985" stroke-linecap="butt" stroke-linejoin="miter" stroke="rgb(0%, 0%, 0%)" stroke-opacity="1" stroke-miterlimit="10" d="M 0.0014225 -0.0016625 L 3.08736 3.088181 " transform="matrix(1, 0, 0, -1, 98.63139, 1.81865)"/>
</g>
<g clip-path="url(#clip-114)">
<path fill="none" stroke-width="0.3985" stroke-linecap="butt" stroke-linejoin="miter" stroke="rgb(0%, 0%, 0%)" stroke-opacity="1" stroke-miterlimit="10" d="M 0.00087375 -0.0016625 L 3.086811 3.088181 " transform="matrix(1, 0, 0, -1, 101.62022, 1.81865)"/>
</g>
<g clip-path="url(#clip-115)">
<path fill="none" stroke-width="0.3985" stroke-linecap="butt" stroke-linejoin="miter" stroke="rgb(0%, 0%, 0%)" stroke-opacity="1" stroke-miterlimit="10" d="M 0.000325 -0.0016625 L 3.090169 3.088181 " transform="matrix(1, 0, 0, -1, 104.60905, 1.81865)"/>
</g>
<g clip-path="url(#clip-116)">
<path fill="none" stroke-width="0.3985" stroke-linecap="butt" stroke-linejoin="miter" stroke="rgb(0%, 0%, 0%)" stroke-opacity="1" stroke-miterlimit="10" d="M -0.00022375 -0.0016625 L 3.08962 3.088181 " transform="matrix(1, 0, 0, -1, 107.59788, 1.81865)"/>
</g>
<g clip-path="url(#clip-117)">
<path fill="none" stroke-width="0.3985" stroke-linecap="butt" stroke-linejoin="miter" stroke="rgb(0%, 0%, 0%)" stroke-opacity="1" stroke-miterlimit="10" d="M -0.0007725 -0.0016625 L 3.089071 3.088181 " transform="matrix(1, 0, 0, -1, 110.58671, 1.81865)"/>
</g>
<g clip-path="url(#clip-118)">
<path fill="none" stroke-width="0.3985" stroke-linecap="butt" stroke-linejoin="miter" stroke="rgb(0%, 0%, 0%)" stroke-opacity="1" stroke-miterlimit="10" d="M -0.00132125 -0.0016625 L 3.088522 3.088181 " transform="matrix(1, 0, 0, -1, 113.57554, 1.81865)"/>
</g>
<g clip-path="url(#clip-119)">
<path fill="none" stroke-width="0.3985" stroke-linecap="butt" stroke-linejoin="miter" stroke="rgb(0%, 0%, 0%)" stroke-opacity="1" stroke-miterlimit="10" d="M -0.00187 -0.0016625 L 3.087974 3.088181 " transform="matrix(1, 0, 0, -1, 116.56437, 1.81865)"/>
</g>
<path fill="none" stroke-width="0.3985" stroke-linecap="butt" stroke-linejoin="miter" stroke="rgb(0%, 0%, 0%)" stroke-opacity="1" stroke-miterlimit="10" d="M -56.694281 -0.001875 L 56.692438 -0.001875 " transform="matrix(1, 0, 0, -1, 60.331, 5.67)"/>
<path fill="none" stroke-width="0.3985" stroke-linecap="butt" stroke-linejoin="miter" stroke="rgb(0%, 0%, 0%)" stroke-opacity="1" stroke-dasharray="0.3985 0.99628" stroke-miterlimit="10" d="M 0.00103125 -0.001875 L 0.00103125 -106.29875 " transform="matrix(1, 0, 0, -1, 60.331, 5.67)"/>
<g clip-path="url(#clip-120)">
<path fill="none" stroke-width="0.3985" stroke-linecap="butt" stroke-linejoin="miter" stroke="rgb(0%, 0%, 0%)" stroke-opacity="1" stroke-dasharray="2.98883 2.98883" stroke-miterlimit="10" d="M -60.131781 -60.130781 C -26.92475 -93.341719 26.922906 -93.341719 60.133844 -60.130781 " transform="matrix(1, 0, 0, -1, 60.331, 5.67)"/>
</g>
<path fill-rule="nonzero" fill="rgb(0%, 0%, 0%)" fill-opacity="1" stroke-width="0.3985" stroke-linecap="butt" stroke-linejoin="miter" stroke="rgb(0%, 0%, 0%)" stroke-opacity="1" stroke-miterlimit="10" d="M 33.958063 -78.564375 C 33.958063 -77.783125 33.32525 -77.146406 32.540094 -77.146406 C 31.758844 -77.146406 31.126031 -77.783125 31.126031 -78.564375 C 31.126031 -79.345625 31.758844 -79.982344 32.540094 -79.982344 C 33.32525 -79.982344 33.958063 -79.345625 33.958063 -78.564375 Z M 33.958063 -78.564375 " transform="matrix(1, 0, 0, -1, 60.331, 5.67)"/>
<g fill="rgb(0%, 0%, 0%)" fill-opacity="1">
<use xlink:href="#glyph-0-0" x="96.392" y="92.042"/>
</g>
<path fill="none" stroke-width="0.3985" stroke-linecap="butt" stroke-linejoin="miter" stroke="rgb(0%, 0%, 0%)" stroke-opacity="1" stroke-miterlimit="10" d="M 0.00103125 -0.001875 L 32.540094 -78.564375 " transform="matrix(1, 0, 0, -1, 60.331, 5.67)"/>
<g fill="rgb(0%, 0%, 0%)" fill-opacity="1">
<use xlink:href="#glyph-0-1" x="70.359" y="24.841"/>
</g>
<path fill="none" stroke-width="0.3985" stroke-linecap="butt" stroke-linejoin="miter" stroke="rgb(0%, 0%, 0%)" stroke-opacity="1" stroke-miterlimit="10" d="M 0.00103125 -42.521406 C 5.579156 -42.521406 11.114313 -41.415937 15.844781 -39.455 " transform="matrix(1, 0, 0, -1, 60.331, 5.67)"/>
<path fill="none" stroke-width="0.31879" stroke-linecap="round" stroke-linejoin="round" stroke="rgb(0%, 0%, 0%)" stroke-opacity="1" stroke-miterlimit="10" d="M -1.19787 1.593064 C -1.094119 0.996191 0.00132866 0.0985402 0.299035 0.000614432 C -0.00035011 -0.0994935 -1.094356 -0.995229 -1.195237 -1.596147 " transform="matrix(0.92384, -0.38261, -0.38261, -0.92384, 76.1771, 45.1267)"/>
<g fill="rgb(0%, 0%, 0%)" fill-opacity="1">
<use xlink:href="#glyph-0-2" x="63.707" y="40.207"/>
</g>
<path fill="none" stroke-width="0.79701" stroke-linecap="butt" stroke-linejoin="miter" stroke="rgb(100%, 0%, 0%)" stroke-opacity="1" stroke-miterlimit="10" d="M 32.540094 -78.564375 L 32.540094 -120.376875 " transform="matrix(1, 0, 0, -1, 60.331, 5.67)"/>
<path fill="none" stroke-width="0.6376" stroke-linecap="round" stroke-linejoin="round" stroke="rgb(100%, 0%, 0%)" stroke-opacity="1" stroke-miterlimit="10" d="M -1.554693 2.072763 C -1.425786 1.295419 -0.000005 0.131356 0.386714 -0.00145625 C -0.000005 -0.130362 -1.425786 -1.294425 -1.554693 -2.071769 " transform="matrix(0, 1, 1, 0, 92.87255, 126.04688)"/>
<g fill="rgb(100%, 0%, 0%)" fill-opacity="1">
<use xlink:href="#glyph-0-3" x="98.06" y="127.627"/>
</g>
<g fill="rgb(100%, 0%, 0%)" fill-opacity="1">
<use xlink:href="#glyph-0-4" x="96.591" y="130.145"/>
</g>
<g fill="rgb(100%, 0%, 0%)" fill-opacity="1">
<use xlink:href="#glyph-1-0" x="102.998" y="131.639"/>
</g>
<path fill="none" stroke-width="0.79701" stroke-linecap="butt" stroke-linejoin="miter" stroke="rgb(0%, 0%, 100%)" stroke-opacity="1" stroke-miterlimit="10" d="M 32.540094 -78.564375 L 11.274469 -27.216719 " transform="matrix(1, 0, 0, -1, 60.331, 5.67)"/>
<path fill="none" stroke-width="0.6376" stroke-linecap="round" stroke-linejoin="round" stroke="rgb(0%, 0%, 100%)" stroke-opacity="1" stroke-miterlimit="10" d="M -1.554382 2.071099 C -1.42384 1.293985 0.00055612 0.128933 0.387863 0.00233323 C -0.000406915 -0.128596 -1.425633 -1.293005 -1.554115 -2.072766 " transform="matrix(-0.38266, -0.92383, -0.92383, 0.38266, 71.6037, 32.88477)"/>
<g fill="rgb(0%, 0%, 100%)" fill-opacity="1">
<use xlink:href="#glyph-0-3" x="76.382" y="34.53"/>
</g>
<g fill="rgb(0%, 0%, 100%)" fill-opacity="1">
<use xlink:href="#glyph-0-5" x="75.052" y="37.049"/>
</g>
<path fill="none" stroke-width="0.79701" stroke-linecap="butt" stroke-linejoin="miter" stroke="rgb(0%, 59.999084%, 0%)" stroke-opacity="1" stroke-miterlimit="10" d="M 32.540094 -78.564375 L 11.649469 -69.365156 " transform="matrix(1, 0, 0, -1, 60.331, 5.67)"/>
<path fill="none" stroke-width="0.6376" stroke-linecap="round" stroke-linejoin="round" stroke="rgb(0%, 59.999084%, 0%)" stroke-opacity="1" stroke-miterlimit="10" d="M -1.55263 2.07229 C -1.424469 1.296404 -0.00185419 0.130031 0.388773 -0.00104573 C 0.00120064 -0.128987 -1.42367 -1.294065 -1.554527 -2.073005 " transform="matrix(-0.91519, -0.4029, -0.4029, 0.91519, 71.98038, 75.0365)"/>
<g fill="rgb(0%, 59.999084%, 0%)" fill-opacity="1">
<use xlink:href="#glyph-0-3" x="64.443" y="66.949"/>
</g>
<g fill="rgb(0%, 59.999084%, 0%)" fill-opacity="1">
<use xlink:href="#glyph-0-4" x="62.975" y="69.467"/>
</g>
<g fill="rgb(0%, 59.999084%, 0%)" fill-opacity="1">
<use xlink:href="#glyph-2-0" x="69.381" y="70.961"/>
<use xlink:href="#glyph-2-1" x="72.491337" y="70.961"/>
<use xlink:href="#glyph-2-2" x="76.034053" y="70.961"/>
</g>
</svg>
