<?xml version="1.0" encoding="UTF-8"?>
<svg xmlns="http://www.w3.org/2000/svg" xmlns:xlink="http://www.w3.org/1999/xlink" width="194.303" height="68.66" viewBox="0 0 194.303 68.66">
<defs>
<clipPath id="clip-0">
<path clip-rule="nonzero" d="M 0 20 L 194.304688 20 L 194.304688 64 L 0 64 Z M 0 20 "/>
</clipPath>
<clipPath id="clip-1">
<path clip-rule="nonzero" d="M 0 14 L 194.304688 14 L 194.304688 68.660156 L 0 68.660156 Z M 0 14 "/>
</clipPath>
<clipPath id="clip-2">
<path clip-rule="nonzero" d="M 91 42 L 121 42 L 121 68.660156 L 91 68.660156 Z M 91 42 "/>
</clipPath>
<clipPath id="clip-3">
<path clip-rule="nonzero" d="M 113 64 L 118 64 L 118 68.660156 L 113 68.660156 Z M 113 64 "/>
</clipPath>
</defs>
<g clip-path="url(#clip-0)">
<path fill-rule="nonzero" fill="rgb(80.000305%, 93.566895%, 98.745728%)" fill-opacity="1" d="M 0.199219 37.160156 C 62.8125 14.371094 131.488281 14.371094 194.105469 37.160156 L 184.410156 63.796875 C 128.054688 43.285156 66.246094 43.285156 9.894531 63.796875 Z M 0.199219 37.160156 "/>
</g>
<g clip-path="url(#clip-1)">
<path fill="none" stroke-width="0.3985" stroke-linecap="butt" stroke-linejoin="miter" stroke="rgb(80.000305%, 93.566895%, 98.745728%)" stroke-opacity="1" stroke-miterlimit="10" d="M -96.951781 266.374844 C -34.3385 289.163906 34.337281 289.163906 96.954469 266.374844 L 87.259156 239.738125 C 30.903688 260.249844 -30.904906 260.249844 -87.256469 239.738125 Z M -96.951781 266.374844 " transform="matrix(1, 0, 0, -1, 97.151, 303.535)"/>
</g>
<path fill="none" stroke-width="0.3985" stroke-linecap="butt" stroke-linejoin="miter" stroke="rgb(100%, 0%, 0%)" stroke-opacity="1" stroke-miterlimit="10" d="M -29.936156 303.339687 L -9.893187 283.296719 L 7.614625 300.804531 " transform="matrix(1, 0, 0, -1, 97.151, 303.535)"/>
<path fill-rule="nonzero" fill="rgb(100%, 0%, 0%)" fill-opacity="1" d="M 107.304688 0.195312 C 106.410156 0.804688 104.765625 1.605469 103.429688 1.957031 L 105.542969 4.070312 C 105.894531 2.730469 106.691406 1.089844 107.304688 0.195312 "/>
<path fill="none" stroke-width="0.3985" stroke-linecap="butt" stroke-linejoin="miter" stroke="rgb(100%, 0%, 0%)" stroke-opacity="1" stroke-miterlimit="10" d="M -9.893187 283.296719 L -1.186156 258.50375 " transform="matrix(1, 0, 0, -1, 97.151, 303.535)"/>
<path fill-rule="nonzero" fill="rgb(100%, 0%, 0%)" fill-opacity="1" d="M 97.152344 48.414062 C 96.988281 47.34375 96.980469 45.519531 97.242188 44.160156 L 94.421875 45.148438 C 95.476562 46.046875 96.609375 47.476562 97.152344 48.414062 "/>
<path fill="none" stroke-width="0.3985" stroke-linecap="butt" stroke-linejoin="miter" stroke="rgb(100%, 0%, 0%)" stroke-opacity="1" stroke-miterlimit="10" d="M 0.00134375 255.120937 L 8.704469 279.91 " transform="matrix(1, 0, 0, -1, 97.151, 303.535)"/>
<path fill-rule="nonzero" fill="rgb(100%, 0%, 0%)" fill-opacity="1" d="M 107.042969 20.238281 C 106.503906 21.175781 105.367188 22.609375 104.3125 23.503906 L 107.132812 24.496094 C 106.871094 23.136719 106.878906 21.308594 107.042969 20.238281 "/>
<path fill="none" stroke-width="0.3985" stroke-linecap="butt" stroke-linejoin="miter" stroke="rgb(100%, 0%, 0%)" stroke-opacity="1" stroke-miterlimit="10" d="M 9.891969 283.296719 L 27.399781 300.804531 " transform="matrix(1, 0, 0, -1, 97.151, 303.535)"/>
<path fill-rule="nonzero" fill="rgb(100%, 0%, 0%)" fill-opacity="1" d="M 127.085938 0.195312 C 126.195312 0.804688 124.550781 1.605469 123.210938 1.957031 L 125.328125 4.070312 C 125.679688 2.730469 126.476562 1.089844 127.085938 0.195312 "/>
<g clip-path="url(#clip-2)">
<path fill="none" stroke-width="0.3985" stroke-linecap="butt" stroke-linejoin="miter" stroke="rgb(100%, 0%, 0%)" stroke-opacity="1" stroke-dasharray="2.98883 2.98883" stroke-miterlimit="10" d="M 0.00134375 255.120937 L 17.509156 237.613125 " transform="matrix(1, 0, 0, -1, 97.151, 303.535)"/>
</g>
<g clip-path="url(#clip-3)">
<path fill-rule="nonzero" fill="rgb(100%, 0%, 0%)" fill-opacity="1" d="M 117.195312 68.457031 C 116.585938 67.566406 115.785156 65.921875 115.433594 64.582031 L 113.320312 66.695312 C 114.660156 67.050781 116.304688 67.847656 117.195312 68.457031 "/>
</g>
<path fill="none" stroke-width="0.3985" stroke-linecap="butt" stroke-linejoin="miter" stroke="rgb(100%, 0%, 0%)" stroke-opacity="1" stroke-dasharray="2.98883 2.98883" stroke-miterlimit="10" d="M 9.891969 283.296719 L 16.849 257.956875 " transform="matrix(1, 0, 0, -1, 97.151, 303.535)"/>
<path fill-rule="nonzero" fill="rgb(100%, 0%, 0%)" fill-opacity="1" d="M 114.949219 49.035156 C 114.859375 47.960938 114.980469 46.136719 115.335938 44.796875 L 112.453125 45.589844 C 113.441406 46.558594 114.476562 48.066406 114.949219 49.035156 "/>
</svg>
