<?xml version="1.0" encoding="UTF-8"?>
<svg xmlns="http://www.w3.org/2000/svg" xmlns:xlink="http://www.w3.org/1999/xlink" width="194.271pt" height="119.552pt" viewBox="0 0 194.271 119.552">
<defs>
<clipPath id="clip-0">
<path clip-rule="nonzero" d="M 92 0 L 194.269531 0 L 194.269531 119.550781 L 92 119.550781 Z M 92 0 "/>
</clipPath>
<clipPath id="clip-1">
<path clip-rule="nonzero" d="M 0 0 L 102 0 L 102 119.550781 L 0 119.550781 Z M 0 0 "/>
</clipPath>
<clipPath id="clip-2">
<path clip-rule="nonzero" d="M 95 0 L 194.269531 0 L 194.269531 119.550781 L 95 119.550781 Z M 95 0 "/>
</clipPath>
<clipPath id="clip-3">
<path clip-rule="nonzero" d="M 0 0 L 100 0 L 100 119.550781 L 0 119.550781 Z M 0 0 "/>
</clipPath>
<clipPath id="clip-4">
<path clip-rule="nonzero" d="M 97 0 L 194.269531 0 L 194.269531 119.550781 L 97 119.550781 Z M 97 0 "/>
</clipPath>
<clipPath id="clip-5">
<path clip-rule="nonzero" d="M 0 0 L 97 0 L 97 119.550781 L 0 119.550781 Z M 0 0 "/>
</clipPath>
<clipPath id="clip-6">
<path clip-rule="nonzero" d="M 99 16 L 194.269531 16 L 194.269531 103 L 99 103 Z M 99 16 "/>
</clipPath>
<clipPath id="clip-7">
<path clip-rule="nonzero" d="M 193 57 L 194.269531 57 L 194.269531 59 L 193 59 Z M 193 57 "/>
</clipPath>
<clipPath id="clip-8">
<path clip-rule="nonzero" d="M 188 51 L 194.269531 51 L 194.269531 65 L 188 65 Z M 188 51 "/>
</clipPath>
</defs>
<g clip-path="url(#clip-0)">
<path fill="none" stroke-width="0.3985" stroke-linecap="butt" stroke-linejoin="miter" stroke="rgb(100%, 0%, 0%)" stroke-opacity="1" stroke-miterlimit="10" d="M 98.304688 78.438719 L 99.84375 92.39575 L 102.34375 110.153562 L 106.042969 131.641844 L 111.148438 156.7395 L 117.882812 185.341062 L 126.46875 217.380125 L 137.097656 252.704344 L 149.96875 291.149656 L 165.257812 332.555906 L 183.152344 376.766844 L 203.820312 423.6145 L 227.394531 472.856688 L 254.058594 524.380125 L 283.871094 577.837156 L 317.054688 633.192625 L 353.542969 689.915281 L 393.566406 748.036375 L 437.160156 807.216063 L 484.371094 867.227781 L 535.296875 927.848875 L 589.839844 988.712156 L 648.117188 1049.637937 L 710.128906 1110.376219 L 775.761719 1170.555906 L 845.007812 1229.997312 L 917.832031 1288.423094 L 994.296875 1345.727781 L 1074.074219 1401.372312 L 1157.128906 1455.169187 L 1243.382812 1506.942625 L 1332.847656 1556.567625 L 1425.203125 1603.70825 L 1520.382812 1648.192625 L 1618.335938 1689.802 L 1718.308594 1727.981687 L 1820.671875 1762.907469 L 1924.992188 1794.313719 L 2031.316406 1822.137937 L 2139.082031 1846.067625 L 2248.332031 1866.048094 L 2358.535156 1881.802 L 2469.289062 1893.14575 L 2580.914062 1900.317625 L 2692.828125 1903.02075 L 2804.914062 1901.247312 L 2916.542969 1894.930906 L 3027.78125 1883.891844 L 3137.875 1868.122312 L 3246.992188 1847.669187 L 3355.019531 1822.712156 L 3461.289062 1793.134031 L 3565.785156 1758.969969 L 3667.933594 1720.259031 L 3767.011719 1676.880125 L 3863.742188 1629.231687 L 3957.550781 1577.317625 L 4048.230469 1521.325437 L 4135.308594 1461.290281 L 4218.847656 1397.352781 L 4297.472656 1329.528562 L 4372.429688 1258.266844 L 4443.015625 1183.618406 L 4509.066406 1105.919187 L 4570.152344 1025.219969 L 4626.539062 941.856688 L 4677.398438 855.837156 L 4722.875 767.594969 L 4762.859375 677.344969 L 4797.824219 585.348875 L 4826.835938 491.946531 L 4850.382812 397.262938 L 4868.132812 301.505125 L 4879.75 205.048094 L 4885.636719 108.290281 L 4885.636719 11.407469 L 4879.75 -85.303469 L 4868.132812 -181.713625 L 4850.667969 -277.436281 L 4826.835938 -372.155031 L 4797.824219 -465.655031 L 4763.003906 -557.662844 L 4722.875 -647.85425 L 4677.398438 -736.096437 L 4626.539062 -822.073 L 4570.292969 -905.455812 L 4509.066406 -986.186281 L 4443.152344 -1063.951906 L 4372.5625 -1138.561281 L 4297.605469 -1209.780031 L 4218.847656 -1277.670656 L 4135.695312 -1341.698 L 4048.230469 -1401.60425 L 3957.675781 -1457.592531 L 3864.109375 -1509.573 L 3767.375 -1557.272219 L 3668.050781 -1600.623781 L 3565.785156 -1639.303469 L 3461.515625 -1673.506594 L 3355.242188 -1703.127688 L 3247.316406 -1728.092531 L 3138.191406 -1748.553469 L 3027.988281 -1764.319094 L 2916.847656 -1775.373781 L 2805.011719 -1781.639406 L 2693.117188 -1783.506594 L 2581.097656 -1780.733156 L 2469.738281 -1773.733156 L 2358.710938 -1762.256594 L 2248.585938 -1746.580813 L 2139.410156 -1726.619875 L 2031.394531 -1702.553469 L 1925.21875 -1674.830813 L 1820.890625 -1643.428469 L 1718.515625 -1608.502688 L 1618.535156 -1570.323 L 1520.574219 -1528.674563 L 1425.386719 -1484.276125 L 1333.023438 -1437.1355 L 1243.546875 -1387.506594 L 1157.289062 -1335.737063 L 1074.222656 -1281.940188 L 994.4375 -1226.2605 L 917.964844 -1168.987063 L 845.089844 -1110.475344 L 775.800781 -1051.030031 L 710.238281 -990.901125 L 648.289062 -930.252687 L 589.933594 -869.256594 L 535.355469 -808.346437 L 484.503906 -747.834719 L 437.257812 -687.783937 L 393.632812 -628.565187 L 353.625 -570.490969 L 317.109375 -513.725344 L 283.953125 -458.428469 L 254.089844 -404.8855 L 227.460938 -353.432375 L 203.867188 -304.155031 L 183.203125 -257.326906 L 165.289062 -213.084719 L 149.988281 -171.655031 L 137.128906 -133.248781 L 126.480469 -97.877688 L 117.902344 -65.865969 L 111.15625 -37.225344 L 106.046875 -12.123781 L 102.351562 9.360594 L 99.847656 27.1145 L 98.308594 41.087156 " transform="matrix(1, 0, 0, -1, 0, 119.552)"/>
</g>
<g clip-path="url(#clip-1)">
<path fill="none" stroke-width="0.3985" stroke-linecap="butt" stroke-linejoin="miter" stroke="rgb(100%, 0%, 0%)" stroke-opacity="1" stroke-miterlimit="10" d="M 95.96875 78.438719 L 94.429688 92.39575 L 91.929688 110.153562 L 88.234375 131.641844 L 83.125 156.7395 L 76.390625 185.341062 L 67.808594 217.380125 L 57.175781 252.704344 L 44.304688 291.149656 L 29.019531 332.555906 L 11.121094 376.766844 L -9.546875 423.6145 L -33.121094 472.856688 L -59.785156 524.380125 L -89.597656 577.837156 L -122.777344 633.192625 L -159.269531 689.915281 L -199.292969 748.036375 L -242.886719 807.216063 L -290.097656 867.227781 L -341.023438 927.848875 L -395.566406 988.712156 L -453.84375 1049.637937 L -515.851562 1110.376219 L -581.488281 1170.555906 L -650.734375 1229.997312 L -723.558594 1288.423094 L -800.023438 1345.727781 L -879.800781 1401.372312 L -962.855469 1455.169187 L -1049.105469 1506.942625 L -1138.574219 1556.567625 L -1230.929688 1603.70825 L -1326.109375 1648.192625 L -1424.0625 1689.802 L -1524.03125 1727.981687 L -1626.398438 1762.907469 L -1730.71875 1794.313719 L -1837.042969 1822.137937 L -1944.808594 1846.067625 L -2054.058594 1866.048094 L -2164.261719 1881.802 L -2275.015625 1893.14575 L -2386.636719 1900.317625 L -2498.554688 1903.02075 L -2610.640625 1901.247312 L -2722.269531 1894.930906 L -2833.507812 1883.891844 L -2943.601562 1868.122312 L -3052.71875 1847.669187 L -3160.746094 1822.712156 L -3267.015625 1793.134031 L -3371.511719 1758.969969 L -3473.660156 1720.259031 L -3572.738281 1676.880125 L -3669.46875 1629.231687 L -3763.277344 1577.317625 L -3853.953125 1521.325437 L -3941.035156 1461.290281 L -4024.574219 1397.352781 L -4103.199219 1329.528562 L -4178.15625 1258.266844 L -4248.742188 1183.618406 L -4314.792969 1105.919187 L -4375.878906 1025.219969 L -4432.265625 941.856688 L -4483.125 855.837156 L -4528.601562 767.594969 L -4568.585938 677.344969 L -4603.550781 585.348875 L -4632.558594 491.946531 L -4656.109375 397.262938 L -4673.859375 301.505125 L -4685.476562 205.048094 L -4691.363281 108.290281 L -4691.363281 11.407469 L -4685.476562 -85.303469 L -4673.859375 -181.713625 L -4656.394531 -277.436281 L -4632.558594 -372.155031 L -4603.550781 -465.655031 L -4568.730469 -557.662844 L -4528.601562 -647.85425 L -4483.125 -736.096437 L -4432.265625 -822.073 L -4376.019531 -905.455812 L -4314.792969 -986.186281 L -4248.875 -1063.951906 L -4178.289062 -1138.561281 L -4103.332031 -1209.780031 L -4024.574219 -1277.670656 L -3941.421875 -1341.698 L -3853.953125 -1401.60425 L -3763.402344 -1457.592531 L -3669.835938 -1509.573 L -3573.097656 -1557.272219 L -3473.777344 -1600.623781 L -3371.511719 -1639.303469 L -3267.242188 -1673.506594 L -3160.96875 -1703.127688 L -3053.042969 -1728.092531 L -2943.917969 -1748.553469 L -2833.714844 -1764.319094 L -2722.574219 -1775.373781 L -2610.738281 -1781.639406 L -2498.839844 -1783.506594 L -2386.824219 -1780.733156 L -2275.464844 -1773.733156 L -2164.4375 -1762.256594 L -2054.3125 -1746.580813 L -1945.136719 -1726.619875 L -1837.121094 -1702.553469 L -1730.945312 -1674.830813 L -1626.617188 -1643.428469 L -1524.242188 -1608.502688 L -1424.261719 -1570.323 L -1326.300781 -1528.674563 L -1231.113281 -1484.276125 L -1138.746094 -1437.1355 L -1049.273438 -1387.506594 L -963.015625 -1335.737063 L -879.949219 -1281.940188 L -800.164062 -1226.2605 L -723.691406 -1168.987063 L -650.816406 -1110.475344 L -581.527344 -1051.030031 L -515.960938 -990.901125 L -454.015625 -930.252687 L -395.660156 -869.256594 L -341.082031 -808.346437 L -290.230469 -747.834719 L -242.984375 -687.783937 L -199.359375 -628.565187 L -159.347656 -570.490969 L -122.835938 -513.725344 L -89.679688 -458.428469 L -59.816406 -404.8855 L -33.1875 -353.432375 L -9.59375 -304.155031 L 11.074219 -257.326906 L 28.984375 -213.084719 L 44.285156 -171.655031 L 57.144531 -133.248781 L 67.792969 -97.877688 L 76.371094 -65.865969 L 83.117188 -37.225344 L 88.226562 -12.123781 L 91.921875 9.360594 L 94.425781 27.1145 L 95.964844 41.087156 " transform="matrix(1, 0, 0, -1, 0, 119.552)"/>
</g>
<path fill="none" stroke-width="0.3985" stroke-linecap="butt" stroke-linejoin="miter" stroke="rgb(100%, 0%, 0%)" stroke-opacity="1" stroke-miterlimit="10" d="M 98.304688 41.134031 L 98.304688 78.419187 " transform="matrix(1, 0, 0, -1, 0, 119.552)"/>
<path fill-rule="nonzero" fill="rgb(100%, 0%, 0%)" fill-opacity="1" stroke-width="0.3985" stroke-linecap="butt" stroke-linejoin="miter" stroke="rgb(100%, 0%, 0%)" stroke-opacity="1" stroke-miterlimit="10" d="M 1.813204 -0.0001875 C 1.590547 0.0545 0.610079 0.370906 0.00070375 0.714656 L 0.00070375 -0.715031 C 0.610079 -0.371281 1.590547 -0.054875 1.813204 -0.0001875 Z M 1.813204 -0.0001875 " transform="matrix(0, -1, -1, 0, 98.3045, 62.41086)"/>
<path fill="none" stroke-width="0.3985" stroke-linecap="butt" stroke-linejoin="miter" stroke="rgb(100%, 0%, 0%)" stroke-opacity="1" stroke-miterlimit="10" d="M 95.96875 41.134031 L 95.96875 78.419187 " transform="matrix(1, 0, 0, -1, 0, 119.552)"/>
<path fill-rule="nonzero" fill="rgb(100%, 0%, 0%)" fill-opacity="1" stroke-width="0.3985" stroke-linecap="butt" stroke-linejoin="miter" stroke="rgb(100%, 0%, 0%)" stroke-opacity="1" stroke-miterlimit="10" d="M 1.813204 0.00072 C 1.590547 0.0554075 0.610079 0.371814 0.00070375 0.715564 L 0.00070375 -0.71803 C 0.610079 -0.370374 1.590547 -0.0539675 1.813204 0.00072 Z M 1.813204 0.00072 " transform="matrix(0, -1, -1, 0, 95.96947, 62.41086)"/>
<g clip-path="url(#clip-2)">
<path fill="none" stroke-width="0.3985" stroke-linecap="butt" stroke-linejoin="miter" stroke="rgb(100%, 0%, 0%)" stroke-opacity="1" stroke-miterlimit="10" d="M 100.636719 78.118406 L 101.757812 81.77075 L 103.089844 85.70825 L 104.648438 89.923094 L 106.453125 94.403562 L 108.511719 99.122312 L 110.835938 104.075437 L 113.445312 109.243406 L 116.347656 114.598875 L 119.550781 120.130125 L 123.066406 125.821531 L 126.902344 131.641844 L 131.070312 137.587156 L 135.566406 143.618406 L 140.40625 149.727781 L 145.582031 155.887937 L 151.101562 162.067625 L 156.976562 168.274656 L 163.191406 174.45825 L 169.746094 180.594969 L 176.636719 186.673094 L 183.863281 192.661375 L 191.417969 198.548094 L 199.304688 204.309812 L 207.507812 209.923094 L 216.011719 215.3645 L 224.816406 220.610594 L 233.914062 225.653562 L 243.273438 230.45825 L 252.902344 235.009031 L 262.789062 239.309812 L 272.886719 243.305906 L 283.222656 247.016844 L 293.734375 250.387937 L 304.441406 253.434812 L 315.289062 256.118406 L 326.28125 258.446531 L 337.382812 260.384031 L 348.59375 261.950438 L 359.882812 263.1145 L 371.222656 263.876219 L 382.574219 264.212156 L 393.972656 264.141844 L 405.3125 263.634031 L 416.660156 262.712156 L 427.90625 261.348875 L 439.082031 259.555906 L 450.140625 257.325438 L 461.078125 254.665281 L 471.859375 251.58325 L 482.4375 248.059812 L 492.835938 244.122312 L 502.941406 239.747312 L 512.820312 234.981687 L 522.421875 229.798094 L 531.734375 224.2395 L 540.734375 218.305906 L 549.367188 211.981687 L 557.648438 205.325437 L 565.546875 198.313719 L 573.046875 190.981687 L 580.160156 183.341062 L 586.832031 175.415281 L 593.03125 167.212156 L 598.792969 158.751219 L 604.105469 150.055906 L 608.847656 141.141844 L 613.132812 132.040281 L 616.910156 122.762937 L 620.136719 113.325437 L 622.839844 103.77075 L 624.976562 94.098875 L 626.628906 84.352781 L 627.726562 74.544187 L 628.285156 64.704344 L 628.285156 54.856687 L 627.726562 45.02075 L 626.628906 35.212156 L 624.976562 25.462156 L 622.839844 15.794187 L 620.136719 6.235594 L 616.910156 -3.194094 L 613.132812 -12.487063 L 608.878906 -21.592531 L 604.074219 -30.494875 L 598.792969 -39.190188 L 593.03125 -47.655031 L 586.832031 -55.85425 L 580.191406 -63.79175 L 573.074219 -71.428469 L 565.546875 -78.752688 L 557.648438 -85.764406 L 549.367188 -92.428469 L 540.734375 -98.744875 L 531.734375 -104.686281 L 522.433594 -110.244875 L 512.820312 -115.412844 L 502.953125 -120.198 L 492.835938 -124.569094 L 482.4375 -128.502688 L 471.859375 -132.030031 L 461.078125 -135.112063 L 450.164062 -137.783938 L 439.09375 -140.006594 L 427.929688 -141.803469 L 416.660156 -143.158938 L 405.335938 -144.088625 L 393.972656 -144.588625 L 382.59375 -144.662844 L 371.222656 -144.319094 L 359.882812 -143.553469 L 348.59375 -142.393313 L 337.382812 -140.830813 L 326.289062 -138.897219 L 315.296875 -136.573 L 304.441406 -133.881594 L 293.734375 -130.826906 L 283.222656 -127.459719 L 272.902344 -123.764406 L 262.789062 -119.756594 L 252.914062 -115.467531 L 243.285156 -110.912844 L 233.914062 -106.096438 L 224.820312 -101.061281 L 216.019531 -95.815188 L 207.507812 -90.369875 L 199.308594 -84.756594 L 191.417969 -78.994875 L 183.863281 -73.108156 L 176.636719 -67.119875 L 169.75 -61.049563 L 163.191406 -54.905031 L 156.980469 -48.725344 L 151.101562 -42.514406 L 145.582031 -36.330813 L 140.40625 -30.174563 L 135.570312 -24.069094 L 131.070312 -18.033938 L 126.90625 -12.092531 L 123.070312 -6.268313 L 119.554688 -0.580813 L 116.351562 4.946531 L 113.449219 10.305906 L 110.839844 15.469969 L 108.511719 20.430906 L 106.453125 25.14575 L 104.652344 29.626219 L 103.09375 33.841062 L 101.761719 37.778562 L 100.640625 41.430906 " transform="matrix(1, 0, 0, -1, 0, 119.552)"/>
</g>
<g clip-path="url(#clip-3)">
<path fill="none" stroke-width="0.3985" stroke-linecap="butt" stroke-linejoin="miter" stroke="rgb(100%, 0%, 0%)" stroke-opacity="1" stroke-miterlimit="10" d="M 93.636719 78.118406 L 92.515625 81.77075 L 91.183594 85.70825 L 89.625 89.923094 L 87.820312 94.403562 L 85.765625 99.122312 L 83.4375 104.075437 L 80.828125 109.243406 L 77.925781 114.598875 L 74.726562 120.130125 L 71.207031 125.821531 L 67.371094 131.641844 L 63.203125 137.587156 L 58.707031 143.618406 L 53.867188 149.727781 L 48.691406 155.887937 L 43.171875 162.067625 L 37.296875 168.274656 L 31.082031 174.45825 L 24.527344 180.594969 L 17.636719 186.673094 L 10.410156 192.661375 L 2.855469 198.548094 L -5.03125 204.309812 L -13.234375 209.923094 L -21.738281 215.3645 L -30.542969 220.610594 L -39.640625 225.653562 L -49 230.45825 L -58.625 235.009031 L -68.515625 239.309812 L -78.613281 243.305906 L -88.949219 247.016844 L -99.460938 250.387937 L -110.164062 253.434812 L -121.011719 256.118406 L -132.003906 258.446531 L -143.109375 260.384031 L -154.320312 261.950438 L -165.609375 263.1145 L -176.949219 263.876219 L -188.300781 264.212156 L -199.699219 264.141844 L -211.039062 263.634031 L -222.382812 262.712156 L -233.632812 261.348875 L -244.808594 259.555906 L -255.867188 257.325438 L -266.804688 254.665281 L -277.585938 251.58325 L -288.164062 248.059812 L -298.5625 244.122312 L -308.664062 239.747312 L -318.546875 234.981687 L -328.148438 229.798094 L -337.460938 224.2395 L -346.460938 218.305906 L -355.09375 211.981687 L -363.375 205.325437 L -371.273438 198.313719 L -378.773438 190.981687 L -385.886719 183.341062 L -392.558594 175.415281 L -398.757812 167.212156 L -404.519531 158.751219 L -409.832031 150.055906 L -414.574219 141.141844 L -418.859375 132.040281 L -422.636719 122.762937 L -425.863281 113.325437 L -428.566406 103.77075 L -430.703125 94.098875 L -432.355469 84.352781 L -433.453125 74.544187 L -434.011719 64.704344 L -434.011719 54.856687 L -433.453125 45.02075 L -432.355469 35.212156 L -430.703125 25.462156 L -428.566406 15.794187 L -425.863281 6.235594 L -422.636719 -3.194094 L -418.859375 -12.487063 L -414.605469 -21.592531 L -409.800781 -30.494875 L -404.519531 -39.190188 L -398.757812 -47.655031 L -392.558594 -55.85425 L -385.917969 -63.79175 L -378.800781 -71.428469 L -371.273438 -78.752688 L -363.375 -85.764406 L -355.09375 -92.428469 L -346.460938 -98.744875 L -337.460938 -104.686281 L -328.160156 -110.244875 L -318.546875 -115.412844 L -308.679688 -120.198 L -298.5625 -124.569094 L -288.164062 -128.502688 L -277.585938 -132.030031 L -266.804688 -135.112063 L -255.890625 -137.783938 L -244.820312 -140.006594 L -233.65625 -141.803469 L -222.382812 -143.158938 L -211.0625 -144.088625 L -199.699219 -144.588625 L -188.320312 -144.662844 L -176.949219 -144.319094 L -165.609375 -143.553469 L -154.320312 -142.393313 L -143.109375 -140.830813 L -132.015625 -138.897219 L -121.023438 -136.573 L -110.164062 -133.881594 L -99.460938 -130.826906 L -88.949219 -127.459719 L -78.628906 -123.764406 L -68.515625 -119.756594 L -58.640625 -115.467531 L -49.011719 -110.912844 L -39.640625 -106.096438 L -30.546875 -101.061281 L -21.746094 -95.815188 L -13.234375 -90.369875 L -5.035156 -84.756594 L 2.855469 -78.994875 L 10.410156 -73.108156 L 17.636719 -67.119875 L 24.523438 -61.049563 L 31.082031 -54.905031 L 37.292969 -48.725344 L 43.171875 -42.514406 L 48.691406 -36.330813 L 53.867188 -30.174563 L 58.703125 -24.069094 L 63.203125 -18.033938 L 67.367188 -12.092531 L 71.203125 -6.268313 L 74.722656 -0.580813 L 77.925781 4.946531 L 80.824219 10.305906 L 83.433594 15.469969 L 85.765625 20.430906 L 87.820312 25.14575 L 89.621094 29.626219 L 91.179688 33.841062 L 92.511719 37.778562 L 93.636719 41.430906 " transform="matrix(1, 0, 0, -1, 0, 119.552)"/>
</g>
<path fill="none" stroke-width="0.3985" stroke-linecap="butt" stroke-linejoin="miter" stroke="rgb(100%, 0%, 0%)" stroke-opacity="1" stroke-miterlimit="10" d="M 100.640625 41.427 L 100.640625 78.126219 " transform="matrix(1, 0, 0, -1, 0, 119.552)"/>
<path fill-rule="nonzero" fill="rgb(100%, 0%, 0%)" fill-opacity="1" stroke-width="0.3985" stroke-linecap="butt" stroke-linejoin="miter" stroke="rgb(100%, 0%, 0%)" stroke-opacity="1" stroke-miterlimit="10" d="M 1.813184 -0.001095 C 1.590527 0.0574987 0.610059 0.373905 0.00068375 0.717655 L 0.00068375 -0.715939 C 0.610059 -0.372189 1.590527 -0.0557825 1.813184 -0.001095 Z M 1.813184 -0.001095 " transform="matrix(0, -1, -1, 0, 100.63953, 62.41084)"/>
<path fill="none" stroke-width="0.3985" stroke-linecap="butt" stroke-linejoin="miter" stroke="rgb(100%, 0%, 0%)" stroke-opacity="1" stroke-miterlimit="10" d="M 93.632812 41.427 L 93.632812 78.126219 " transform="matrix(1, 0, 0, -1, 0, 119.552)"/>
<path fill-rule="nonzero" fill="rgb(100%, 0%, 0%)" fill-opacity="1" stroke-width="0.3985" stroke-linecap="butt" stroke-linejoin="miter" stroke="rgb(100%, 0%, 0%)" stroke-opacity="1" stroke-miterlimit="10" d="M 1.813184 0.0016375 C 1.590527 0.056325 0.610059 0.372731 0.00068375 0.716481 L 0.00068375 -0.717112 C 0.610059 -0.373362 1.590527 -0.0569562 1.813184 0.0016375 Z M 1.813184 0.0016375 " transform="matrix(0, -1, -1, 0, 93.63445, 62.41084)"/>
<g clip-path="url(#clip-4)">
<path fill="none" stroke-width="0.3985" stroke-linecap="butt" stroke-linejoin="miter" stroke="rgb(100%, 0%, 0%)" stroke-opacity="1" stroke-miterlimit="10" d="M 102.972656 77.516844 L 103.910156 79.262937 L 104.941406 81.059812 L 106.0625 82.903562 L 107.277344 84.790281 L 108.585938 86.712156 L 109.992188 88.665281 L 111.5 90.64575 L 113.109375 92.641844 L 114.816406 94.653562 L 116.628906 96.673094 L 118.542969 98.696531 L 120.554688 100.712156 L 122.671875 102.716062 L 124.886719 104.70825 L 127.203125 106.677 L 129.621094 108.6145 L 132.132812 110.52075 L 134.738281 112.384031 L 137.4375 114.204344 L 140.230469 115.973875 L 143.105469 117.680906 L 146.074219 119.33325 L 149.117188 120.911375 L 152.242188 122.423094 L 155.441406 123.848875 L 158.707031 125.192625 L 162.039062 126.454344 L 165.4375 127.618406 L 168.886719 128.688719 L 172.390625 129.661375 L 175.929688 130.52075 L 179.53125 131.282469 L 183.152344 131.927 L 186.804688 132.454344 L 190.480469 132.872312 L 194.179688 133.169187 L 197.886719 133.341062 L 201.601562 133.391844 L 205.3125 133.317625 L 209.011719 133.1145 L 212.710938 132.786375 L 216.375 132.325437 L 220.023438 131.7395 L 223.636719 131.028562 L 227.210938 130.188719 L 230.738281 129.219969 L 234.210938 128.118406 L 237.628906 126.89575 L 240.984375 125.552 L 244.273438 124.087156 L 247.472656 122.497312 L 250.597656 120.790281 L 253.632812 118.966062 L 256.570312 117.032469 L 259.417969 114.9895 L 262.148438 112.837156 L 264.761719 110.587156 L 267.269531 108.2395 L 269.664062 105.798094 L 271.929688 103.266844 L 274.054688 100.649656 L 276.050781 97.954344 L 277.894531 95.180906 L 279.613281 92.341062 L 281.179688 89.430906 L 282.59375 86.469969 L 283.871094 83.45825 L 284.988281 80.391844 L 285.949219 77.290281 L 286.738281 74.149656 L 287.390625 70.985594 L 287.882812 67.798094 L 288.203125 64.598875 L 288.371094 61.384031 L 288.371094 58.173094 L 288.203125 54.962156 L 287.882812 51.759031 L 287.390625 48.571531 L 286.75 45.403562 L 285.941406 42.266844 L 284.988281 39.161375 L 283.871094 36.098875 L 282.597656 33.08325 L 281.179688 30.122312 L 279.625 27.212156 L 277.894531 24.376219 L 276.050781 21.598875 L 274.054688 18.907469 L 271.933594 16.290281 L 269.664062 13.759031 L 267.28125 11.313719 L 264.769531 8.966062 L 262.15625 6.712156 L 259.417969 4.563719 L 256.578125 2.52075 L 253.632812 0.587156 L 250.597656 -1.233156 L 247.480469 -2.944094 L 244.273438 -4.530031 L 240.992188 -5.998781 L 237.636719 -7.346438 L 234.210938 -8.565188 L 230.746094 -9.662844 L 227.210938 -10.631594 L 223.644531 -11.47925 L 220.023438 -12.186281 L 216.375 -12.772219 L 212.710938 -13.22925 L 209.015625 -13.561281 L 205.316406 -13.764406 L 201.601562 -13.838625 L 197.890625 -13.787844 L 194.1875 -13.615969 L 190.488281 -13.319094 L 186.808594 -12.905031 L 183.152344 -12.373781 L 179.53125 -11.72925 L 175.9375 -10.967531 L 172.394531 -10.112063 L 168.886719 -9.1355 L 165.4375 -8.065188 L 162.046875 -6.905031 L 158.707031 -5.639406 L 155.441406 -4.295656 L 152.242188 -2.869875 L 149.121094 -1.362063 L 146.074219 0.219969 L 143.109375 1.868406 L 140.230469 3.579344 L 137.441406 5.344969 L 134.738281 7.169187 L 132.132812 9.032469 L 129.621094 10.938719 L 127.203125 12.876219 L 124.890625 14.844969 L 122.675781 16.83325 L 120.558594 18.837156 L 118.542969 20.856687 L 116.628906 22.880125 L 114.816406 24.899656 L 113.109375 26.911375 L 111.5 28.907469 L 109.996094 30.887937 L 108.585938 32.841062 L 107.277344 34.762937 L 106.0625 36.649656 L 104.941406 38.493406 L 103.914062 40.290281 L 102.972656 42.032469 " transform="matrix(1, 0, 0, -1, 0, 119.552)"/>
</g>
<g clip-path="url(#clip-5)">
<path fill="none" stroke-width="0.3985" stroke-linecap="butt" stroke-linejoin="miter" stroke="rgb(100%, 0%, 0%)" stroke-opacity="1" stroke-miterlimit="10" d="M 91.300781 77.516844 L 90.363281 79.262937 L 89.332031 81.059812 L 88.210938 82.903562 L 87 84.790281 L 85.6875 86.712156 L 84.28125 88.665281 L 82.773438 90.64575 L 81.167969 92.641844 L 79.457031 94.653562 L 77.648438 96.673094 L 75.730469 98.696531 L 73.71875 100.712156 L 71.601562 102.716062 L 69.386719 104.70825 L 67.070312 106.677 L 64.652344 108.6145 L 62.140625 110.52075 L 59.535156 112.384031 L 56.835938 114.204344 L 54.042969 115.973875 L 51.167969 117.680906 L 48.199219 119.33325 L 45.15625 120.911375 L 42.03125 122.423094 L 38.832031 123.848875 L 35.566406 125.192625 L 32.234375 126.454344 L 28.839844 127.618406 L 25.386719 128.688719 L 21.886719 129.661375 L 18.34375 130.52075 L 14.746094 131.282469 L 11.121094 131.927 L 7.472656 132.454344 L 3.792969 132.872312 L 0.09375 133.169187 L -3.613281 133.341062 L -7.328125 133.391844 L -11.039062 133.317625 L -14.738281 133.1145 L -18.433594 132.786375 L -22.101562 132.325437 L -25.75 131.7395 L -29.363281 131.028562 L -32.9375 130.188719 L -36.460938 129.219969 L -39.9375 128.118406 L -43.355469 126.89575 L -46.710938 125.552 L -50 124.087156 L -53.199219 122.497312 L -56.324219 120.790281 L -59.359375 118.966062 L -62.292969 117.032469 L -65.140625 114.9895 L -67.871094 112.837156 L -70.488281 110.587156 L -72.996094 108.2395 L -75.390625 105.798094 L -77.652344 103.266844 L -79.78125 100.649656 L -81.777344 97.954344 L -83.621094 95.180906 L -85.339844 92.341062 L -86.90625 89.430906 L -88.320312 86.469969 L -89.597656 83.45825 L -90.714844 80.391844 L -91.671875 77.290281 L -92.464844 74.149656 L -93.117188 70.985594 L -93.609375 67.798094 L -93.929688 64.598875 L -94.097656 61.384031 L -94.097656 58.173094 L -93.929688 54.962156 L -93.609375 51.759031 L -93.117188 48.571531 L -92.476562 45.403562 L -91.667969 42.266844 L -90.714844 39.161375 L -89.597656 36.098875 L -88.324219 33.08325 L -86.90625 30.122312 L -85.351562 27.212156 L -83.621094 24.376219 L -81.777344 21.598875 L -79.78125 18.907469 L -77.660156 16.290281 L -75.390625 13.759031 L -73.003906 11.313719 L -70.496094 8.966062 L -67.882812 6.712156 L -65.140625 4.563719 L -62.304688 2.52075 L -59.359375 0.587156 L -56.324219 -1.233156 L -53.207031 -2.944094 L -50 -4.530031 L -46.71875 -5.998781 L -43.363281 -7.346438 L -39.9375 -8.565188 L -36.472656 -9.662844 L -32.9375 -10.631594 L -29.367188 -11.47925 L -25.75 -12.186281 L -22.101562 -12.772219 L -18.433594 -13.22925 L -14.742188 -13.561281 L -11.042969 -13.764406 L -7.328125 -13.838625 L -3.617188 -13.787844 L 0.0898438 -13.615969 L 3.785156 -13.319094 L 7.464844 -12.905031 L 11.121094 -12.373781 L 14.742188 -11.72925 L 18.335938 -10.967531 L 21.878906 -10.112063 L 25.386719 -9.1355 L 28.839844 -8.065188 L 32.230469 -6.905031 L 35.566406 -5.639406 L 38.832031 -4.295656 L 42.03125 -2.869875 L 45.152344 -1.362063 L 48.199219 0.219969 L 51.164062 1.868406 L 54.042969 3.579344 L 56.832031 5.344969 L 59.535156 7.169187 L 62.140625 9.032469 L 64.652344 10.938719 L 67.070312 12.876219 L 69.382812 14.844969 L 71.597656 16.83325 L 73.714844 18.837156 L 75.730469 20.856687 L 77.644531 22.880125 L 79.457031 24.899656 L 81.164062 26.911375 L 82.773438 28.907469 L 84.277344 30.887937 L 85.6875 32.841062 L 87 34.762937 L 88.210938 36.649656 L 89.332031 38.493406 L 90.359375 40.290281 L 91.300781 42.032469 " transform="matrix(1, 0, 0, -1, 0, 119.552)"/>
</g>
<path fill="none" stroke-width="0.3985" stroke-linecap="butt" stroke-linejoin="miter" stroke="rgb(100%, 0%, 0%)" stroke-opacity="1" stroke-miterlimit="10" d="M 102.972656 42.032469 L 102.972656 77.52075 " transform="matrix(1, 0, 0, -1, 0, 119.552)"/>
<path fill-rule="nonzero" fill="rgb(100%, 0%, 0%)" fill-opacity="1" stroke-width="0.3985" stroke-linecap="butt" stroke-linejoin="miter" stroke="rgb(100%, 0%, 0%)" stroke-opacity="1" stroke-miterlimit="10" d="M 1.813274 0.00189375 C 1.590617 0.0565813 0.610149 0.372988 0.00077375 0.716738 L 0.00077375 -0.716856 C 0.610149 -0.373106 1.590617 -0.0567 1.813274 0.00189375 Z M 1.813274 0.00189375 " transform="matrix(0, -1, -1, 0, 102.97455, 62.41093)"/>
<path fill="none" stroke-width="0.3985" stroke-linecap="butt" stroke-linejoin="miter" stroke="rgb(100%, 0%, 0%)" stroke-opacity="1" stroke-miterlimit="10" d="M 91.300781 42.032469 L 91.300781 77.52075 " transform="matrix(1, 0, 0, -1, 0, 119.552)"/>
<path fill-rule="nonzero" fill="rgb(100%, 0%, 0%)" fill-opacity="1" stroke-width="0.3985" stroke-linecap="butt" stroke-linejoin="miter" stroke="rgb(100%, 0%, 0%)" stroke-opacity="1" stroke-miterlimit="10" d="M 1.813274 -0.00136125 C 1.590617 0.0572325 0.610149 0.373639 0.00077375 0.717389 L 0.00077375 -0.716205 C 0.610149 -0.372455 1.590617 -0.0560487 1.813274 -0.00136125 Z M 1.813274 -0.00136125 " transform="matrix(0, -1, -1, 0, 91.29942, 62.41093)"/>
<g clip-path="url(#clip-6)">
<path fill="none" stroke-width="0.3985" stroke-linecap="butt" stroke-linejoin="miter" stroke="rgb(100%, 0%, 0%)" stroke-opacity="1" stroke-miterlimit="10" d="M 105.308594 76.571531 L 106.085938 77.4895 L 106.902344 78.407469 L 107.761719 79.325437 L 108.664062 80.247312 L 109.605469 81.161375 L 110.589844 82.075437 L 111.613281 82.977781 L 112.679688 83.872312 L 113.78125 84.751219 L 114.925781 85.618406 L 116.109375 86.469969 L 117.328125 87.305906 L 118.589844 88.118406 L 119.882812 88.907469 L 121.210938 89.673094 L 122.574219 90.411375 L 123.96875 91.122312 L 125.394531 91.802 L 126.851562 92.454344 L 128.339844 93.071531 L 129.851562 93.653562 L 131.386719 94.192625 L 132.945312 94.696531 L 134.527344 95.161375 L 136.128906 95.58325 L 137.75 95.962156 L 139.390625 96.302 L 141.042969 96.594969 L 142.707031 96.837156 L 144.378906 97.032469 L 146.058594 97.180906 L 147.746094 97.282469 L 149.433594 97.329344 L 151.125 97.329344 L 152.816406 97.282469 L 154.5 97.177 L 156.179688 97.02075 L 157.847656 96.813719 L 159.507812 96.552 L 161.164062 96.243406 L 162.796875 95.880125 L 164.417969 95.466062 L 166.015625 94.997312 L 167.582031 94.477781 L 169.128906 93.907469 L 170.652344 93.286375 L 172.148438 92.618406 L 173.613281 91.899656 L 175.050781 91.134031 L 176.441406 90.321531 L 177.792969 89.462156 L 179.109375 88.555906 L 180.382812 87.606687 L 181.609375 86.6145 L 182.796875 85.58325 L 183.9375 84.512937 L 185.027344 83.403562 L 186.066406 82.255125 L 187.039062 81.071531 L 187.976562 79.860594 L 188.851562 78.6145 L 189.675781 77.341062 L 190.441406 76.040281 L 191.144531 74.712156 L 191.777344 73.360594 L 192.363281 71.9895 L 192.878906 70.594969 L 193.335938 69.188719 L 193.726562 67.766844 L 194.054688 66.329344 L 194.324219 64.884031 L 194.515625 63.430906 L 194.644531 61.969969 L 194.710938 60.509031 L 194.710938 59.044187 L 194.644531 57.58325 L 194.515625 56.122312 L 194.324219 54.669187 L 194.0625 53.223875 L 193.726562 51.790281 L 193.335938 50.3645 L 192.878906 48.95825 L 192.363281 47.567625 L 191.777344 46.192625 L 191.148438 44.841062 L 190.441406 43.516844 L 189.675781 42.212156 L 188.855469 40.938719 L 187.980469 39.692625 L 187.046875 38.481687 L 186.066406 37.298094 L 185.03125 36.149656 L 183.941406 35.040281 L 182.796875 33.969969 L 181.613281 32.938719 L 180.382812 31.946531 L 179.109375 30.997312 L 177.792969 30.091062 L 176.441406 29.231687 L 175.042969 28.423094 L 173.617188 27.653562 L 172.152344 26.934812 L 170.65625 26.266844 L 169.132812 25.64575 L 167.582031 25.075437 L 166.015625 24.555906 L 164.417969 24.087156 L 162.800781 23.673094 L 161.164062 23.309812 L 159.511719 23.001219 L 157.855469 22.7395 L 156.179688 22.532469 L 154.503906 22.376219 L 152.820312 22.274656 L 151.125 22.223875 L 149.433594 22.223875 L 147.746094 22.274656 L 146.058594 22.372312 L 144.378906 22.52075 L 142.707031 22.716062 L 141.046875 22.95825 L 139.390625 23.251219 L 137.753906 23.587156 L 136.132812 23.969969 L 134.53125 24.391844 L 132.949219 24.856687 L 131.390625 25.356687 L 129.851562 25.899656 L 128.339844 26.481687 L 126.851562 27.098875 L 125.394531 27.747312 L 123.96875 28.430906 L 122.574219 29.141844 L 121.210938 29.880125 L 119.882812 30.64575 L 118.589844 31.430906 L 117.332031 32.247312 L 116.109375 33.08325 L 114.925781 33.934812 L 113.785156 34.802 L 112.679688 35.680906 L 111.613281 36.575437 L 110.589844 37.477781 L 109.609375 38.387937 L 108.664062 39.305906 L 107.761719 40.223875 L 106.902344 41.14575 L 106.085938 42.063719 L 105.308594 42.977781 " transform="matrix(1, 0, 0, -1, 0, 119.552)"/>
</g>
<g clip-path="url(#clip-7)">
<path fill-rule="nonzero" fill="rgb(100%, 0%, 0%)" fill-opacity="1" d="M 194.710938 58.953125 C 194.765625 58.730469 195.082031 57.75 195.425781 57.140625 L 193.996094 57.140625 C 194.339844 57.75 194.65625 58.730469 194.710938 58.953125 Z M 194.710938 58.953125 "/>
</g>
<g clip-path="url(#clip-8)">
<path fill="none" stroke-width="0.3985" stroke-linecap="butt" stroke-linejoin="miter" stroke="rgb(100%, 0%, 0%)" stroke-opacity="1" stroke-miterlimit="10" d="M 1.813935 0.0000775 C 1.591279 0.054765 0.61081 0.371171 0.001435 0.714921 L 0.001435 -0.714766 C 0.61081 -0.371016 1.591279 -0.05461 1.813935 0.0000775 Z M 1.813935 0.0000775 " transform="matrix(0, 1, 1, 0, 194.71086, 57.13919)"/>
</g>
<path fill="none" stroke-width="0.3985" stroke-linecap="butt" stroke-linejoin="miter" stroke="rgb(100%, 0%, 0%)" stroke-opacity="1" stroke-miterlimit="10" d="M 88.964844 76.571531 L 88.1875 77.4895 L 87.371094 78.407469 L 86.511719 79.325437 L 85.609375 80.247312 L 84.667969 81.161375 L 83.683594 82.075437 L 82.660156 82.977781 L 81.597656 83.872312 L 80.492188 84.751219 L 79.347656 85.618406 L 78.164062 86.469969 L 76.945312 87.305906 L 75.683594 88.118406 L 74.390625 88.907469 L 73.0625 89.673094 L 71.699219 90.411375 L 70.308594 91.122312 L 68.882812 91.802 L 67.421875 92.454344 L 65.933594 93.071531 L 64.425781 93.653562 L 62.890625 94.192625 L 61.328125 94.696531 L 59.746094 95.161375 L 58.144531 95.58325 L 56.523438 95.962156 L 54.882812 96.302 L 53.230469 96.594969 L 51.566406 96.837156 L 49.898438 97.032469 L 48.214844 97.180906 L 46.527344 97.282469 L 44.839844 97.329344 L 43.148438 97.329344 L 41.457031 97.282469 L 39.773438 97.177 L 38.09375 97.02075 L 36.425781 96.813719 L 34.765625 96.552 L 33.109375 96.243406 L 31.476562 95.880125 L 29.859375 95.466062 L 28.257812 94.997312 L 26.691406 94.477781 L 25.144531 93.907469 L 23.621094 93.286375 L 22.125 92.618406 L 20.664062 91.899656 L 19.226562 91.134031 L 17.832031 90.321531 L 16.480469 89.462156 L 15.164062 88.555906 L 13.890625 87.606687 L 12.664062 86.6145 L 11.476562 85.58325 L 10.335938 84.512937 L 9.246094 83.403562 L 8.207031 82.255125 L 7.234375 81.071531 L 6.300781 79.860594 L 5.421875 78.6145 L 4.597656 77.341062 L 3.832031 76.040281 L 3.132812 74.712156 L 2.496094 73.360594 L 1.910156 71.9895 L 1.394531 70.594969 L 0.9375 69.188719 L 0.550781 67.766844 L 0.21875 66.329344 L -0.0507812 64.884031 L -0.242188 63.430906 L -0.371094 61.969969 L -0.4375 60.509031 L -0.4375 59.044187 L -0.371094 57.58325 L -0.242188 56.122312 L -0.0507812 54.669187 L 0.210938 53.223875 L 0.550781 51.790281 L 0.9375 50.3645 L 1.394531 48.95825 L 1.910156 47.567625 L 2.496094 46.192625 L 3.125 44.841062 L 3.832031 43.516844 L 4.597656 42.212156 L 5.417969 40.938719 L 6.292969 39.692625 L 7.226562 38.481687 L 8.207031 37.298094 L 9.242188 36.149656 L 10.332031 35.040281 L 11.476562 33.969969 L 12.660156 32.938719 L 13.890625 31.946531 L 15.164062 30.997312 L 16.480469 30.091062 L 17.832031 29.231687 L 19.230469 28.423094 L 20.65625 27.653562 L 22.121094 26.934812 L 23.621094 26.266844 L 25.140625 25.64575 L 26.691406 25.075437 L 28.257812 24.555906 L 29.855469 24.087156 L 31.472656 23.673094 L 33.109375 23.309812 L 34.761719 23.001219 L 36.421875 22.7395 L 38.09375 22.532469 L 39.769531 22.376219 L 41.457031 22.274656 L 43.148438 22.223875 L 44.839844 22.223875 L 46.527344 22.274656 L 48.214844 22.372312 L 49.894531 22.52075 L 51.566406 22.716062 L 53.226562 22.95825 L 54.882812 23.251219 L 56.519531 23.587156 L 58.140625 23.969969 L 59.746094 24.391844 L 61.328125 24.856687 L 62.886719 25.356687 L 64.421875 25.899656 L 65.933594 26.481687 L 67.421875 27.098875 L 68.878906 27.747312 L 70.304688 28.430906 L 71.699219 29.141844 L 73.0625 29.880125 L 74.390625 30.64575 L 75.683594 31.430906 L 76.941406 32.247312 L 78.164062 33.08325 L 79.347656 33.934812 L 80.488281 34.802 L 81.59375 35.680906 L 82.660156 36.575437 L 83.683594 37.477781 L 84.664062 38.387937 L 85.609375 39.305906 L 86.511719 40.223875 L 87.371094 41.14575 L 88.1875 42.063719 L 88.964844 42.977781 " transform="matrix(1, 0, 0, -1, 0, 119.552)"/>
<path fill-rule="nonzero" fill="rgb(100%, 0%, 0%)" fill-opacity="1" stroke-width="0.3985" stroke-linecap="butt" stroke-linejoin="miter" stroke="rgb(100%, 0%, 0%)" stroke-opacity="1" stroke-miterlimit="10" d="M 1.813935 -0.00063 C 1.591279 0.0540575 0.61081 0.370464 0.001435 0.714214 L 0.001435 -0.715474 C 0.61081 -0.371724 1.591279 -0.0553175 1.813935 -0.00063 Z M 1.813935 -0.00063 " transform="matrix(0, 1, 1, 0, -0.43687, 57.13919)"/>
<path fill="none" stroke-width="0.3985" stroke-linecap="butt" stroke-linejoin="miter" stroke="rgb(100%, 0%, 0%)" stroke-opacity="1" stroke-miterlimit="10" d="M 105.308594 42.977781 L 105.308594 76.575437 " transform="matrix(1, 0, 0, -1, 0, 119.552)"/>
<path fill-rule="nonzero" fill="rgb(100%, 0%, 0%)" fill-opacity="1" stroke-width="0.3985" stroke-linecap="butt" stroke-linejoin="miter" stroke="rgb(100%, 0%, 0%)" stroke-opacity="1" stroke-miterlimit="10" d="M 1.813014 0.00097625 C 1.590357 0.0556637 0.613795 0.37207 0.00051375 0.71582 L 0.00051375 -0.717774 C 0.613795 -0.370118 1.590357 -0.0576175 1.813014 0.00097625 Z M 1.813014 0.00097625 " transform="matrix(0, -1, -1, 0, 105.30957, 62.41067)"/>
<path fill="none" stroke-width="0.3985" stroke-linecap="butt" stroke-linejoin="miter" stroke="rgb(100%, 0%, 0%)" stroke-opacity="1" stroke-miterlimit="10" d="M 88.964844 42.977781 L 88.964844 76.575437 " transform="matrix(1, 0, 0, -1, 0, 119.552)"/>
<path fill-rule="nonzero" fill="rgb(100%, 0%, 0%)" fill-opacity="1" stroke-width="0.3985" stroke-linecap="butt" stroke-linejoin="miter" stroke="rgb(100%, 0%, 0%)" stroke-opacity="1" stroke-miterlimit="10" d="M 1.813014 -0.00044375 C 1.590357 0.0542438 0.613795 0.37065 0.00051375 0.7144 L 0.00051375 -0.715287 C 0.613795 -0.371537 1.590357 -0.0551312 1.813014 -0.00044375 Z M 1.813014 -0.00044375 " transform="matrix(0, -1, -1, 0, 88.9644, 62.41067)"/>
<path fill="none" stroke-width="0.3985" stroke-linecap="butt" stroke-linejoin="miter" stroke="rgb(100%, 0%, 0%)" stroke-opacity="1" stroke-miterlimit="10" d="M 107.644531 75.219969 L 108.257812 75.673094 L 108.890625 76.1145 L 109.539062 76.552 L 110.203125 76.977781 L 110.886719 77.39575 L 111.585938 77.798094 L 112.296875 78.188719 L 113.027344 78.567625 L 113.773438 78.938719 L 114.53125 79.286375 L 115.300781 79.622312 L 116.085938 79.946531 L 116.882812 80.251219 L 117.691406 80.540281 L 118.511719 80.809812 L 119.339844 81.063719 L 120.179688 81.298094 L 121.023438 81.509031 L 121.878906 81.704344 L 122.746094 81.880125 L 123.613281 82.032469 L 124.488281 82.165281 L 125.367188 82.274656 L 126.253906 82.3645 L 127.140625 82.434812 L 128.027344 82.473875 L 128.917969 82.497312 L 129.808594 82.493406 L 130.703125 82.469969 L 131.585938 82.419187 L 132.472656 82.344969 L 133.359375 82.247312 L 134.238281 82.130125 L 135.109375 81.981687 L 135.972656 81.813719 L 136.835938 81.622312 L 137.691406 81.403562 L 138.53125 81.165281 L 139.363281 80.899656 L 140.1875 80.6145 L 141.003906 80.302 L 141.796875 79.969969 L 142.578125 79.610594 L 143.351562 79.235594 L 144.105469 78.83325 L 144.84375 78.411375 L 145.566406 77.966062 L 146.269531 77.501219 L 146.960938 77.02075 L 147.621094 76.512937 L 148.265625 75.985594 L 148.894531 75.446531 L 149.496094 74.884031 L 150.078125 74.305906 L 150.632812 73.70825 L 151.171875 73.098875 L 151.679688 72.469969 L 152.160156 71.825437 L 152.621094 71.169187 L 153.058594 70.497312 L 153.464844 69.817625 L 153.839844 69.118406 L 154.195312 68.415281 L 154.523438 67.700437 L 154.820312 66.973875 L 155.082031 66.2395 L 155.320312 65.497312 L 155.53125 64.747312 L 155.714844 63.993406 L 155.859375 63.231687 L 155.980469 62.469969 L 156.078125 61.700437 L 156.140625 60.930906 L 156.164062 60.161375 L 156.164062 59.391844 L 156.140625 58.622312 L 156.078125 57.852781 L 155.980469 57.087156 L 155.863281 56.321531 L 155.714844 55.559812 L 155.53125 54.805906 L 155.320312 54.055906 L 155.085938 53.317625 L 154.824219 52.579344 L 154.523438 51.856687 L 154.195312 51.137937 L 153.84375 50.434812 L 153.46875 49.735594 L 153.0625 49.055906 L 152.621094 48.384031 L 152.160156 47.727781 L 151.683594 47.08325 L 151.171875 46.45825 L 150.636719 45.844969 L 150.078125 45.247312 L 149.496094 44.669187 L 148.894531 44.106687 L 148.269531 43.567625 L 147.625 43.040281 L 146.960938 42.536375 L 146.273438 42.052 L 145.566406 41.587156 L 144.84375 41.14575 L 144.109375 40.719969 L 143.351562 40.321531 L 142.578125 39.942625 L 141.796875 39.587156 L 141.003906 39.251219 L 140.191406 38.942625 L 139.363281 38.653562 L 138.53125 38.391844 L 137.691406 38.149656 L 136.839844 37.930906 L 135.976562 37.7395 L 135.109375 37.571531 L 134.238281 37.427 L 133.359375 37.305906 L 132.472656 37.20825 L 131.589844 37.134031 L 130.703125 37.08325 L 129.808594 37.059812 L 128.921875 37.055906 L 128.03125 37.079344 L 127.140625 37.118406 L 126.253906 37.188719 L 125.371094 37.278562 L 124.488281 37.387937 L 123.617188 37.516844 L 122.746094 37.673094 L 121.882812 37.848875 L 121.023438 38.044187 L 120.179688 38.255125 L 119.339844 38.4895 L 118.511719 38.743406 L 117.691406 39.012937 L 116.882812 39.302 L 116.085938 39.606687 L 115.300781 39.927 L 114.53125 40.266844 L 113.773438 40.6145 L 113.03125 40.981687 L 112.300781 41.3645 L 111.585938 41.755125 L 110.886719 42.157469 L 110.203125 42.575437 L 109.539062 43.001219 L 108.890625 43.434812 L 108.257812 43.880125 L 107.644531 44.33325 " transform="matrix(1, 0, 0, -1, 0, 119.552)"/>
<path fill-rule="nonzero" fill="rgb(100%, 0%, 0%)" fill-opacity="1" stroke-width="0.3985" stroke-linecap="butt" stroke-linejoin="miter" stroke="rgb(100%, 0%, 0%)" stroke-opacity="1" stroke-miterlimit="10" d="M 1.813155 -0.0017875 C 1.590499 0.0568063 0.61003 0.373213 0.000655 0.716963 L 0.000655 -0.716631 C 0.61003 -0.372881 1.590499 -0.056475 1.813155 -0.0017875 Z M 1.813155 -0.0017875 " transform="matrix(0, 1, 1, 0, 156.16585, 57.13997)"/>
<path fill="none" stroke-width="0.3985" stroke-linecap="butt" stroke-linejoin="miter" stroke="rgb(100%, 0%, 0%)" stroke-opacity="1" stroke-miterlimit="10" d="M 86.632812 75.219969 L 86.015625 75.673094 L 85.386719 76.1145 L 84.734375 76.552 L 84.070312 76.977781 L 83.386719 77.39575 L 82.6875 77.798094 L 81.976562 78.188719 L 81.246094 78.567625 L 80.5 78.938719 L 79.742188 79.286375 L 78.972656 79.622312 L 78.1875 79.946531 L 77.390625 80.251219 L 76.582031 80.540281 L 75.765625 80.809812 L 74.933594 81.063719 L 74.09375 81.298094 L 73.25 81.509031 L 72.394531 81.704344 L 71.527344 81.880125 L 70.660156 82.032469 L 69.785156 82.165281 L 68.90625 82.274656 L 68.019531 82.3645 L 67.132812 82.434812 L 66.246094 82.473875 L 65.355469 82.497312 L 64.464844 82.493406 L 63.574219 82.469969 L 62.6875 82.419187 L 61.800781 82.344969 L 60.914062 82.247312 L 60.035156 82.130125 L 59.164062 81.981687 L 58.300781 81.813719 L 57.4375 81.622312 L 56.585938 81.403562 L 55.742188 81.165281 L 54.910156 80.899656 L 54.085938 80.6145 L 53.269531 80.302 L 52.476562 79.969969 L 51.695312 79.610594 L 50.921875 79.235594 L 50.167969 78.83325 L 49.433594 78.411375 L 48.707031 77.966062 L 48.003906 77.501219 L 47.316406 77.02075 L 46.652344 76.512937 L 46.007812 75.985594 L 45.382812 75.446531 L 44.777344 74.884031 L 44.199219 74.305906 L 43.640625 73.70825 L 43.101562 73.098875 L 42.59375 72.469969 L 42.113281 71.825437 L 41.65625 71.169187 L 41.214844 70.497312 L 40.808594 69.817625 L 40.433594 69.118406 L 40.078125 68.415281 L 39.753906 67.700437 L 39.453125 66.973875 L 39.191406 66.2395 L 38.953125 65.497312 L 38.742188 64.747312 L 38.558594 63.993406 L 38.414062 63.231687 L 38.292969 62.469969 L 38.195312 61.700437 L 38.132812 60.930906 L 38.109375 60.161375 L 38.109375 59.391844 L 38.132812 58.622312 L 38.195312 57.852781 L 38.292969 57.087156 L 38.410156 56.321531 L 38.558594 55.559812 L 38.742188 54.805906 L 38.953125 54.055906 L 39.1875 53.317625 L 39.449219 52.579344 L 39.753906 51.856687 L 40.078125 51.137937 L 40.429688 50.434812 L 40.804688 49.735594 L 41.214844 49.055906 L 41.65625 48.384031 L 42.113281 47.727781 L 42.59375 47.08325 L 43.101562 46.45825 L 43.640625 45.844969 L 44.199219 45.247312 L 44.777344 44.669187 L 45.382812 44.106687 L 46.007812 43.567625 L 46.652344 43.040281 L 47.316406 42.536375 L 48 42.052 L 48.707031 41.587156 L 49.433594 41.14575 L 50.164062 40.719969 L 50.921875 40.321531 L 51.695312 39.942625 L 52.476562 39.587156 L 53.269531 39.251219 L 54.085938 38.942625 L 54.910156 38.653562 L 55.742188 38.391844 L 56.585938 38.149656 L 57.4375 37.930906 L 58.296875 37.7395 L 59.164062 37.571531 L 60.035156 37.427 L 60.914062 37.305906 L 61.800781 37.20825 L 62.683594 37.134031 L 63.570312 37.08325 L 64.464844 37.059812 L 65.355469 37.055906 L 66.246094 37.079344 L 67.132812 37.118406 L 68.019531 37.188719 L 68.902344 37.278562 L 69.785156 37.387937 L 70.65625 37.516844 L 71.527344 37.673094 L 72.390625 37.848875 L 73.25 38.044187 L 74.09375 38.255125 L 74.933594 38.4895 L 75.765625 38.743406 L 76.582031 39.012937 L 77.390625 39.302 L 78.1875 39.606687 L 78.972656 39.927 L 79.742188 40.266844 L 80.5 40.6145 L 81.246094 40.981687 L 81.972656 41.3645 L 82.6875 41.755125 L 83.386719 42.157469 L 84.070312 42.575437 L 84.734375 43.001219 L 85.382812 43.434812 L 86.015625 43.880125 L 86.628906 44.33325 " transform="matrix(1, 0, 0, -1, 0, 119.552)"/>
<path fill-rule="nonzero" fill="rgb(100%, 0%, 0%)" fill-opacity="1" stroke-width="0.3985" stroke-linecap="butt" stroke-linejoin="miter" stroke="rgb(100%, 0%, 0%)" stroke-opacity="1" stroke-miterlimit="10" d="M 1.813155 0.001255 C 1.590499 0.0559425 0.61003 0.372349 0.000655 0.716099 L 0.000655 -0.717495 C 0.61003 -0.373745 1.590499 -0.0573388 1.813155 0.001255 Z M 1.813155 0.001255 " transform="matrix(0, 1, 1, 0, 38.10812, 57.13997)"/>
<path fill="none" stroke-width="0.3985" stroke-linecap="butt" stroke-linejoin="miter" stroke="rgb(100%, 0%, 0%)" stroke-opacity="1" stroke-miterlimit="10" d="M 107.644531 44.33325 L 107.644531 75.219969 " transform="matrix(1, 0, 0, -1, 0, 119.552)"/>
<path fill-rule="nonzero" fill="rgb(100%, 0%, 0%)" fill-opacity="1" stroke-width="0.3985" stroke-linecap="butt" stroke-linejoin="miter" stroke="rgb(100%, 0%, 0%)" stroke-opacity="1" stroke-miterlimit="10" d="M 1.813174 0.00005875 C 1.590517 0.0547463 0.610049 0.371153 0.00067375 0.714903 L 0.00067375 -0.714785 C 0.610049 -0.371035 1.590517 -0.0546287 1.813174 0.00005875 Z M 1.813174 0.00005875 " transform="matrix(0, -1, -1, 0, 107.64459, 62.41083)"/>
<path fill="none" stroke-width="0.3985" stroke-linecap="butt" stroke-linejoin="miter" stroke="rgb(100%, 0%, 0%)" stroke-opacity="1" stroke-miterlimit="10" d="M 86.628906 44.33325 L 86.628906 75.219969 " transform="matrix(1, 0, 0, -1, 0, 119.552)"/>
<path fill-rule="nonzero" fill="rgb(100%, 0%, 0%)" fill-opacity="1" stroke-width="0.3985" stroke-linecap="butt" stroke-linejoin="miter" stroke="rgb(100%, 0%, 0%)" stroke-opacity="1" stroke-miterlimit="10" d="M 1.813174 0.00047375 C 1.590517 0.0551612 0.610049 0.371567 0.00067375 0.715317 L 0.00067375 -0.71437 C 0.610049 -0.37062 1.590517 -0.0542138 1.813174 0.00047375 Z M 1.813174 0.00047375 " transform="matrix(0, -1, -1, 0, 86.62938, 62.41083)"/>
<path fill="none" stroke-width="0.3985" stroke-linecap="butt" stroke-linejoin="miter" stroke="rgb(100%, 0%, 0%)" stroke-opacity="1" stroke-miterlimit="10" d="M 109.976562 73.341062 L 110.425781 73.509031 L 110.875 73.669187 L 111.332031 73.821531 L 111.796875 73.966062 L 112.261719 74.098875 L 112.734375 74.227781 L 113.207031 74.344969 L 113.6875 74.450437 L 114.167969 74.552 L 114.652344 74.641844 L 115.140625 74.719969 L 115.632812 74.790281 L 116.125 74.848875 L 116.617188 74.89575 L 117.113281 74.934812 L 117.609375 74.962156 L 118.109375 74.981687 L 118.605469 74.985594 L 119.101562 74.981687 L 119.601562 74.966062 L 120.097656 74.938719 L 120.59375 74.903562 L 121.085938 74.852781 L 121.578125 74.794187 L 122.070312 74.723875 L 122.558594 74.641844 L 123.042969 74.548094 L 123.523438 74.442625 L 124 74.325437 L 124.476562 74.200437 L 124.949219 74.063719 L 125.410156 73.911375 L 125.875 73.755125 L 126.328125 73.58325 L 126.773438 73.403562 L 127.21875 73.212156 L 127.652344 73.009031 L 128.082031 72.794187 L 128.507812 72.571531 L 128.921875 72.337156 L 129.328125 72.094969 L 129.726562 71.841062 L 130.117188 71.579344 L 130.503906 71.305906 L 130.875 71.024656 L 131.238281 70.735594 L 131.589844 70.434812 L 131.933594 70.126219 L 132.269531 69.809812 L 132.589844 69.485594 L 132.902344 69.153562 L 133.207031 68.813719 L 133.492188 68.462156 L 133.773438 68.110594 L 134.039062 67.747312 L 134.292969 67.380125 L 134.539062 67.005125 L 134.769531 66.622312 L 134.984375 66.235594 L 135.191406 65.848875 L 135.382812 65.450437 L 135.5625 65.048094 L 135.726562 64.641844 L 135.882812 64.231687 L 136.023438 63.821531 L 136.144531 63.403562 L 136.253906 62.985594 L 136.359375 62.563719 L 136.4375 62.137937 L 136.507812 61.712156 L 136.566406 61.282469 L 136.605469 60.852781 L 136.640625 60.423094 L 136.648438 59.993406 L 136.648438 59.559812 L 136.640625 59.130125 L 136.605469 58.700437 L 136.566406 58.27075 L 136.507812 57.841062 L 136.4375 57.415281 L 136.359375 56.9895 L 136.257812 56.567625 L 136.144531 56.149656 L 136.023438 55.731687 L 135.882812 55.321531 L 135.726562 54.911375 L 135.5625 54.505125 L 135.382812 54.102781 L 135.191406 53.70825 L 134.984375 53.313719 L 134.765625 52.930906 L 134.539062 52.548094 L 134.292969 52.173094 L 134.039062 51.805906 L 133.773438 51.442625 L 133.492188 51.091062 L 133.207031 50.7395 L 132.902344 50.403562 L 132.589844 50.067625 L 132.269531 49.743406 L 131.933594 49.427 L 131.589844 49.118406 L 131.238281 48.817625 L 130.875 48.528562 L 130.503906 48.247312 L 130.117188 47.973875 L 129.726562 47.712156 L 129.328125 47.45825 L 128.921875 47.216062 L 128.507812 46.981687 L 128.082031 46.759031 L 127.652344 46.544187 L 127.21875 46.341062 L 126.773438 46.149656 L 126.324219 45.969969 L 125.875 45.798094 L 125.410156 45.637937 L 124.945312 45.4895 L 124.476562 45.352781 L 124 45.227781 L 123.523438 45.110594 L 123.042969 45.005125 L 122.554688 44.915281 L 122.070312 44.829344 L 121.578125 44.759031 L 121.085938 44.700437 L 120.59375 44.649656 L 120.09375 44.6145 L 119.601562 44.587156 L 119.101562 44.571531 L 118.605469 44.567625 L 118.109375 44.571531 L 117.609375 44.591062 L 117.113281 44.618406 L 116.617188 44.657469 L 116.125 44.704344 L 115.632812 44.762937 L 115.140625 44.83325 L 114.652344 44.911375 L 114.167969 45.001219 L 113.683594 45.102781 L 113.207031 45.20825 L 112.734375 45.325437 L 112.261719 45.454344 L 111.796875 45.587156 L 111.332031 45.731687 L 110.875 45.884031 L 110.425781 46.044187 L 109.976562 46.212156 " transform="matrix(1, 0, 0, -1, 0, 119.552)"/>
<path fill-rule="nonzero" fill="rgb(100%, 0%, 0%)" fill-opacity="1" stroke-width="0.3985" stroke-linecap="butt" stroke-linejoin="miter" stroke="rgb(100%, 0%, 0%)" stroke-opacity="1" stroke-miterlimit="10" d="M 1.813235 -0.0016325 C 1.590579 0.0569613 0.61011 0.373368 0.000735 0.717118 L 0.000735 -0.716476 C 0.61011 -0.372726 1.590579 -0.05632 1.813235 -0.0016325 Z M 1.813235 -0.0016325 " transform="matrix(0, 1, 1, 0, 136.65007, 57.13989)"/>
<path fill="none" stroke-width="0.3985" stroke-linecap="butt" stroke-linejoin="miter" stroke="rgb(100%, 0%, 0%)" stroke-opacity="1" stroke-miterlimit="10" d="M 84.296875 73.341062 L 83.847656 73.509031 L 83.398438 73.669187 L 82.941406 73.821531 L 82.476562 73.966062 L 82.011719 74.098875 L 81.542969 74.227781 L 81.066406 74.344969 L 80.589844 74.450437 L 80.105469 74.552 L 79.621094 74.641844 L 79.132812 74.719969 L 78.640625 74.790281 L 78.152344 74.848875 L 77.65625 74.89575 L 77.160156 74.934812 L 76.664062 74.962156 L 76.164062 74.981687 L 75.667969 74.985594 L 75.171875 74.981687 L 74.671875 74.966062 L 74.175781 74.938719 L 73.679688 74.903562 L 73.1875 74.852781 L 72.695312 74.794187 L 72.203125 74.723875 L 71.714844 74.641844 L 71.230469 74.548094 L 70.75 74.442625 L 70.273438 74.325437 L 69.796875 74.200437 L 69.328125 74.063719 L 68.863281 73.911375 L 68.402344 73.755125 L 67.949219 73.58325 L 67.5 73.403562 L 67.054688 73.212156 L 66.621094 73.009031 L 66.191406 72.794187 L 65.765625 72.571531 L 65.355469 72.337156 L 64.945312 72.094969 L 64.546875 71.841062 L 64.15625 71.579344 L 63.773438 71.305906 L 63.402344 71.024656 L 63.035156 70.735594 L 62.683594 70.434812 L 62.34375 70.126219 L 62.003906 69.809812 L 61.683594 69.485594 L 61.371094 69.153562 L 61.066406 68.813719 L 60.78125 68.462156 L 60.5 68.110594 L 60.234375 67.747312 L 59.980469 67.380125 L 59.734375 67.005125 L 59.503906 66.622312 L 59.289062 66.235594 L 59.082031 65.848875 L 58.894531 65.450437 L 58.710938 65.048094 L 58.546875 64.641844 L 58.394531 64.231687 L 58.253906 63.821531 L 58.128906 63.403562 L 58.019531 62.985594 L 57.914062 62.563719 L 57.835938 62.137937 L 57.765625 61.712156 L 57.707031 61.282469 L 57.667969 60.852781 L 57.632812 60.423094 L 57.625 59.993406 L 57.625 59.559812 L 57.632812 59.130125 L 57.667969 58.700437 L 57.707031 58.27075 L 57.765625 57.841062 L 57.835938 57.415281 L 57.914062 56.9895 L 58.015625 56.567625 L 58.128906 56.149656 L 58.253906 55.731687 L 58.394531 55.321531 L 58.546875 54.911375 L 58.710938 54.505125 L 58.894531 54.102781 L 59.082031 53.70825 L 59.289062 53.313719 L 59.507812 52.930906 L 59.734375 52.548094 L 59.980469 52.173094 L 60.234375 51.805906 L 60.5 51.442625 L 60.78125 51.091062 L 61.066406 50.7395 L 61.371094 50.403562 L 61.683594 50.067625 L 62.003906 49.743406 L 62.34375 49.427 L 62.683594 49.118406 L 63.035156 48.817625 L 63.402344 48.528562 L 63.769531 48.247312 L 64.15625 47.973875 L 64.546875 47.712156 L 64.945312 47.45825 L 65.351562 47.216062 L 65.765625 46.981687 L 66.191406 46.759031 L 66.621094 46.544187 L 67.054688 46.341062 L 67.5 46.149656 L 67.949219 45.969969 L 68.402344 45.798094 L 68.863281 45.637937 L 69.328125 45.4895 L 69.796875 45.352781 L 70.273438 45.227781 L 70.75 45.110594 L 71.230469 45.005125 L 71.71875 44.915281 L 72.203125 44.829344 L 72.695312 44.759031 L 73.1875 44.700437 L 73.679688 44.649656 L 74.179688 44.6145 L 74.671875 44.587156 L 75.171875 44.571531 L 75.667969 44.567625 L 76.164062 44.571531 L 76.664062 44.591062 L 77.160156 44.618406 L 77.65625 44.657469 L 78.152344 44.704344 L 78.640625 44.762937 L 79.132812 44.83325 L 79.621094 44.911375 L 80.105469 45.001219 L 80.589844 45.102781 L 81.066406 45.20825 L 81.542969 45.325437 L 82.011719 45.454344 L 82.476562 45.587156 L 82.941406 45.731687 L 83.398438 45.884031 L 83.847656 46.044187 L 84.296875 46.212156 " transform="matrix(1, 0, 0, -1, 0, 119.552)"/>
<path fill-rule="nonzero" fill="rgb(100%, 0%, 0%)" fill-opacity="1" stroke-width="0.3985" stroke-linecap="butt" stroke-linejoin="miter" stroke="rgb(100%, 0%, 0%)" stroke-opacity="1" stroke-miterlimit="10" d="M 1.813235 0.0011 C 1.590579 0.0557875 0.61011 0.372194 0.000735 0.715944 L 0.000735 -0.71765 C 0.61011 -0.3739 1.590579 -0.0574938 1.813235 0.0011 Z M 1.813235 0.0011 " transform="matrix(0, 1, 1, 0, 57.6239, 57.13989)"/>
<path fill="none" stroke-width="0.3985" stroke-linecap="butt" stroke-linejoin="miter" stroke="rgb(100%, 0%, 0%)" stroke-opacity="1" stroke-miterlimit="10" d="M 109.980469 46.212156 L 109.980469 73.341062 " transform="matrix(1, 0, 0, -1, 0, 119.552)"/>
<path fill-rule="nonzero" fill="rgb(100%, 0%, 0%)" fill-opacity="1" stroke-width="0.3985" stroke-linecap="butt" stroke-linejoin="miter" stroke="rgb(100%, 0%, 0%)" stroke-opacity="1" stroke-miterlimit="10" d="M 1.813294 -0.00085875 C 1.590637 0.057735 0.610169 0.370235 0.00079375 0.717891 L 0.00079375 -0.715702 C 0.610169 -0.371952 1.590637 -0.0555462 1.813294 -0.00085875 Z M 1.813294 -0.00085875 " transform="matrix(0, -1, -1, 0, 109.97961, 62.41095)"/>
<path fill="none" stroke-width="0.3985" stroke-linecap="butt" stroke-linejoin="miter" stroke="rgb(100%, 0%, 0%)" stroke-opacity="1" stroke-miterlimit="10" d="M 84.292969 46.212156 L 84.292969 73.341062 " transform="matrix(1, 0, 0, -1, 0, 119.552)"/>
<path fill-rule="nonzero" fill="rgb(100%, 0%, 0%)" fill-opacity="1" stroke-width="0.3985" stroke-linecap="butt" stroke-linejoin="miter" stroke="rgb(100%, 0%, 0%)" stroke-opacity="1" stroke-miterlimit="10" d="M 1.813294 0.00139125 C 1.590637 0.0560788 0.610169 0.372485 0.00079375 0.716235 L 0.00079375 -0.717359 C 0.610169 -0.373609 1.590637 -0.0572025 1.813294 0.00139125 Z M 1.813294 0.00139125 " transform="matrix(0, -1, -1, 0, 84.29436, 62.41095)"/>
<path fill="none" stroke-width="0.3985" stroke-linecap="butt" stroke-linejoin="miter" stroke="rgb(100%, 0%, 0%)" stroke-opacity="1" stroke-miterlimit="10" d="M 112.3125 70.665281 L 112.585938 70.665281 L 112.859375 70.661375 L 113.132812 70.653562 L 113.402344 70.641844 L 113.675781 70.626219 L 113.945312 70.606687 L 114.21875 70.579344 L 114.488281 70.548094 L 114.757812 70.512937 L 115.027344 70.473875 L 115.292969 70.427 L 115.5625 70.376219 L 115.824219 70.321531 L 116.089844 70.262937 L 116.351562 70.200437 L 116.613281 70.134031 L 116.871094 70.059812 L 117.128906 69.981687 L 117.382812 69.899656 L 117.636719 69.813719 L 117.886719 69.719969 L 118.132812 69.626219 L 118.378906 69.524656 L 118.621094 69.419187 L 118.859375 69.309812 L 119.097656 69.196531 L 119.335938 69.079344 L 119.566406 68.954344 L 119.792969 68.829344 L 120.019531 68.696531 L 120.242188 68.563719 L 120.460938 68.423094 L 120.675781 68.282469 L 120.886719 68.134031 L 121.09375 67.981687 L 121.5 67.669187 L 121.691406 67.505125 L 121.886719 67.341062 L 122.253906 66.997312 L 122.433594 66.817625 L 122.609375 66.637937 L 122.777344 66.454344 L 122.945312 66.266844 L 123.101562 66.079344 L 123.257812 65.884031 L 123.40625 65.688719 L 123.554688 65.4895 L 123.695312 65.290281 L 123.832031 65.087156 L 123.960938 64.880125 L 124.085938 64.669187 L 124.207031 64.45825 L 124.433594 64.028562 L 124.636719 63.591062 L 124.816406 63.14575 L 124.972656 62.692625 L 125.039062 62.466062 L 125.105469 62.235594 L 125.164062 62.005125 L 125.21875 61.774656 L 125.265625 61.540281 L 125.308594 61.305906 L 125.371094 60.837156 L 125.410156 60.368406 L 125.425781 60.130125 L 125.429688 59.89575 L 125.429688 59.657469 L 125.425781 59.423094 L 125.410156 59.184812 L 125.371094 58.716062 L 125.339844 58.481687 L 125.304688 58.247312 L 125.265625 58.012937 L 125.21875 57.778562 L 125.164062 57.548094 L 125.105469 57.317625 L 125.039062 57.087156 L 124.972656 56.860594 L 124.816406 56.407469 L 124.726562 56.184812 L 124.632812 55.962156 L 124.535156 55.743406 L 124.433594 55.524656 L 124.207031 55.094969 L 124.085938 54.884031 L 123.960938 54.673094 L 123.832031 54.469969 L 123.695312 54.262937 L 123.554688 54.063719 L 123.40625 53.8645 L 123.257812 53.669187 L 123.105469 53.473875 L 122.945312 53.286375 L 122.777344 53.098875 L 122.609375 52.915281 L 122.257812 52.555906 L 122.070312 52.384031 L 121.886719 52.212156 L 121.691406 52.048094 L 121.5 51.884031 L 121.09375 51.571531 L 120.886719 51.419187 L 120.675781 51.27075 L 120.460938 51.130125 L 120.242188 50.9895 L 120.019531 50.856687 L 119.792969 50.723875 L 119.566406 50.598875 L 119.335938 50.473875 L 119.097656 50.356687 L 118.859375 50.243406 L 118.621094 50.134031 L 118.378906 50.028562 L 118.132812 49.927 L 117.886719 49.83325 L 117.636719 49.7395 L 117.382812 49.653562 L 117.128906 49.571531 L 116.871094 49.493406 L 116.613281 49.419187 L 116.351562 49.352781 L 116.089844 49.290281 L 115.824219 49.231687 L 115.5625 49.177 L 115.292969 49.126219 L 115.027344 49.079344 L 114.757812 49.040281 L 114.492188 49.005125 L 114.21875 48.973875 L 113.949219 48.946531 L 113.675781 48.927 L 113.402344 48.911375 L 113.132812 48.89575 L 112.585938 48.887937 L 112.3125 48.887937 " transform="matrix(1, 0, 0, -1, 0, 119.552)"/>
<path fill-rule="nonzero" fill="rgb(100%, 0%, 0%)" fill-opacity="1" stroke-width="0.3985" stroke-linecap="butt" stroke-linejoin="miter" stroke="rgb(100%, 0%, 0%)" stroke-opacity="1" stroke-miterlimit="10" d="M 1.812605 -0.0001725 C 1.589949 0.054515 0.613386 0.370921 0.000105 0.714671 L 0.000105 -0.715016 C 0.613386 -0.371266 1.589949 -0.05486 1.812605 -0.0001725 Z M 1.812605 -0.0001725 " transform="matrix(0, 1, 1, 0, 125.42986, 57.14052)"/>
<path fill="none" stroke-width="0.3985" stroke-linecap="butt" stroke-linejoin="miter" stroke="rgb(100%, 0%, 0%)" stroke-opacity="1" stroke-miterlimit="10" d="M 81.960938 70.665281 L 81.6875 70.665281 L 81.414062 70.661375 L 81.144531 70.653562 L 80.871094 70.641844 L 80.597656 70.626219 L 80.328125 70.606687 L 80.054688 70.579344 L 79.785156 70.548094 L 79.515625 70.512937 L 79.246094 70.473875 L 78.980469 70.427 L 78.710938 70.376219 L 78.449219 70.321531 L 78.183594 70.262937 L 77.921875 70.200437 L 77.660156 70.134031 L 77.402344 70.059812 L 77.144531 69.981687 L 76.890625 69.899656 L 76.640625 69.813719 L 76.140625 69.626219 L 75.894531 69.524656 L 75.652344 69.419187 L 75.414062 69.309812 L 75.175781 69.196531 L 74.941406 69.079344 L 74.707031 68.954344 L 74.480469 68.829344 L 74.253906 68.696531 L 74.03125 68.563719 L 73.8125 68.423094 L 73.597656 68.282469 L 73.386719 68.134031 L 73.179688 67.981687 L 72.773438 67.669187 L 72.582031 67.505125 L 72.386719 67.341062 L 72.019531 66.997312 L 71.839844 66.817625 L 71.664062 66.637937 L 71.496094 66.454344 L 71.332031 66.266844 L 71.171875 66.079344 L 71.015625 65.884031 L 70.867188 65.688719 L 70.71875 65.4895 L 70.578125 65.290281 L 70.445312 65.087156 L 70.3125 64.880125 L 70.1875 64.669187 L 70.066406 64.45825 L 69.953125 64.243406 L 69.84375 64.028562 L 69.738281 63.809812 L 69.640625 63.591062 L 69.546875 63.368406 L 69.457031 63.14575 L 69.300781 62.692625 L 69.234375 62.466062 L 69.167969 62.235594 L 69.109375 62.005125 L 69.054688 61.774656 L 68.96875 61.305906 L 68.933594 61.071531 L 68.902344 60.837156 L 68.863281 60.368406 L 68.851562 60.130125 L 68.84375 59.89575 L 68.84375 59.657469 L 68.851562 59.423094 L 68.863281 59.184812 L 68.902344 58.716062 L 68.933594 58.481687 L 68.96875 58.247312 L 69.054688 57.778562 L 69.109375 57.548094 L 69.167969 57.317625 L 69.234375 57.087156 L 69.300781 56.860594 L 69.457031 56.407469 L 69.546875 56.184812 L 69.640625 55.962156 L 69.738281 55.743406 L 69.84375 55.524656 L 69.953125 55.309812 L 70.066406 55.094969 L 70.1875 54.884031 L 70.3125 54.673094 L 70.445312 54.469969 L 70.578125 54.262937 L 70.71875 54.063719 L 70.867188 53.8645 L 71.015625 53.669187 L 71.171875 53.473875 L 71.328125 53.286375 L 71.496094 53.098875 L 71.664062 52.915281 L 71.839844 52.735594 L 72.019531 52.555906 L 72.386719 52.212156 L 72.582031 52.048094 L 72.773438 51.884031 L 73.179688 51.571531 L 73.386719 51.419187 L 73.597656 51.27075 L 73.8125 51.130125 L 74.03125 50.9895 L 74.253906 50.856687 L 74.480469 50.723875 L 74.707031 50.598875 L 74.941406 50.473875 L 75.175781 50.356687 L 75.414062 50.243406 L 75.652344 50.134031 L 75.894531 50.028562 L 76.140625 49.927 L 76.640625 49.7395 L 76.890625 49.653562 L 77.144531 49.571531 L 77.402344 49.493406 L 77.660156 49.419187 L 77.921875 49.352781 L 78.183594 49.290281 L 78.449219 49.231687 L 78.710938 49.177 L 78.980469 49.126219 L 79.246094 49.079344 L 79.515625 49.040281 L 79.785156 49.005125 L 80.054688 48.973875 L 80.328125 48.946531 L 80.597656 48.927 L 80.871094 48.911375 L 81.140625 48.89575 L 81.6875 48.887937 L 81.960938 48.887937 " transform="matrix(1, 0, 0, -1, 0, 119.552)"/>
<path fill-rule="nonzero" fill="rgb(100%, 0%, 0%)" fill-opacity="1" stroke-width="0.3985" stroke-linecap="butt" stroke-linejoin="miter" stroke="rgb(100%, 0%, 0%)" stroke-opacity="1" stroke-miterlimit="10" d="M 1.812605 -0.00037 C 1.589949 0.0543175 0.613386 0.370724 0.000105 0.714474 L 0.000105 -0.715214 C 0.613386 -0.371464 1.589949 -0.0550575 1.812605 -0.00037 Z M 1.812605 -0.00037 " transform="matrix(0, 1, 1, 0, 68.84412, 57.14052)"/>
<path fill="none" stroke-width="0.3985" stroke-linecap="butt" stroke-linejoin="miter" stroke="rgb(100%, 0%, 0%)" stroke-opacity="1" stroke-miterlimit="10" d="M 112.316406 48.887937 L 112.316406 70.665281 " transform="matrix(1, 0, 0, -1, 0, 119.552)"/>
<path fill-rule="nonzero" fill="rgb(100%, 0%, 0%)" fill-opacity="1" stroke-width="0.3985" stroke-linecap="butt" stroke-linejoin="miter" stroke="rgb(100%, 0%, 0%)" stroke-opacity="1" stroke-miterlimit="10" d="M 1.813384 -0.00176625 C 1.590727 0.0568275 0.610259 0.373234 0.00088375 0.716984 L 0.00088375 -0.71661 C 0.610259 -0.37286 1.590727 -0.0564537 1.813384 -0.00176625 Z M 1.813384 -0.00176625 " transform="matrix(0, -1, -1, 0, 112.31464, 62.41104)"/>
<path fill="none" stroke-width="0.3985" stroke-linecap="butt" stroke-linejoin="miter" stroke="rgb(100%, 0%, 0%)" stroke-opacity="1" stroke-miterlimit="10" d="M 81.960938 48.887937 L 81.960938 70.665281 " transform="matrix(1, 0, 0, -1, 0, 119.552)"/>
<path fill-rule="nonzero" fill="rgb(100%, 0%, 0%)" fill-opacity="1" stroke-width="0.3985" stroke-linecap="butt" stroke-linejoin="miter" stroke="rgb(100%, 0%, 0%)" stroke-opacity="1" stroke-miterlimit="10" d="M 1.813384 -0.0015975 C 1.590727 0.0569962 0.610259 0.373402 0.00088375 0.717152 L 0.00088375 -0.716441 C 0.610259 -0.372691 1.590727 -0.056285 1.813384 -0.0015975 Z M 1.813384 -0.0015975 " transform="matrix(0, -1, -1, 0, 81.95934, 62.41104)"/>
<path fill="none" stroke-width="0.3985" stroke-linecap="butt" stroke-linejoin="miter" stroke="rgb(100%, 0%, 0%)" stroke-opacity="1" stroke-miterlimit="10" d="M 114.644531 66.274656 L 114.742188 66.216062 L 114.921875 66.091062 L 115.011719 66.024656 L 115.101562 65.962156 L 115.1875 65.89575 L 115.277344 65.829344 L 115.363281 65.759031 L 115.449219 65.692625 L 115.695312 65.481687 L 115.777344 65.407469 L 115.855469 65.33325 L 115.9375 65.262937 L 116.242188 64.95825 L 116.316406 64.880125 L 116.386719 64.798094 L 116.460938 64.719969 L 116.53125 64.637937 L 116.597656 64.559812 L 116.667969 64.473875 L 116.800781 64.309812 L 116.863281 64.223875 L 116.925781 64.141844 L 117.050781 63.969969 L 117.105469 63.880125 L 117.222656 63.70825 L 117.28125 63.618406 L 117.332031 63.528562 L 117.386719 63.438719 L 117.4375 63.348875 L 117.488281 63.255125 L 117.535156 63.165281 L 117.585938 63.071531 L 117.632812 62.977781 L 117.675781 62.887937 L 117.722656 62.794187 L 117.765625 62.700437 L 117.804688 62.602781 L 117.84375 62.509031 L 117.882812 62.411375 L 117.921875 62.317625 L 117.953125 62.219969 L 117.988281 62.122312 L 118.023438 62.028562 L 118.054688 61.930906 L 118.082031 61.83325 L 118.113281 61.731687 L 118.167969 61.536375 L 118.1875 61.438719 L 118.210938 61.337156 L 118.234375 61.2395 L 118.253906 61.137937 L 118.273438 61.040281 L 118.292969 60.938719 L 118.308594 60.837156 L 118.320312 60.735594 L 118.332031 60.637937 L 118.347656 60.536375 L 118.378906 60.130125 L 118.386719 59.927 L 118.386719 59.626219 L 118.378906 59.423094 L 118.347656 59.016844 L 118.332031 58.915281 L 118.320312 58.817625 L 118.308594 58.716062 L 118.292969 58.6145 L 118.273438 58.512937 L 118.253906 58.415281 L 118.234375 58.313719 L 118.210938 58.216062 L 118.1875 58.1145 L 118.167969 58.016844 L 118.113281 57.821531 L 118.082031 57.723875 L 118.054688 57.622312 L 118.023438 57.524656 L 117.988281 57.430906 L 117.957031 57.33325 L 117.921875 57.235594 L 117.882812 57.141844 L 117.84375 57.044187 L 117.804688 56.950437 L 117.765625 56.852781 L 117.71875 56.759031 L 117.675781 56.665281 L 117.632812 56.575437 L 117.539062 56.387937 L 117.488281 56.298094 L 117.441406 56.204344 L 117.222656 55.844969 L 117.105469 55.673094 L 117.050781 55.58325 L 116.925781 55.411375 L 116.863281 55.329344 L 116.800781 55.243406 L 116.667969 55.079344 L 116.597656 54.997312 L 116.53125 54.915281 L 116.460938 54.83325 L 116.386719 54.755125 L 116.316406 54.673094 L 116.242188 54.594969 L 116.015625 54.368406 L 115.859375 54.219969 L 115.695312 54.071531 L 115.449219 53.860594 L 115.363281 53.794187 L 115.277344 53.723875 L 115.1875 53.657469 L 115.101562 53.591062 L 115.011719 53.528562 L 114.921875 53.462156 L 114.742188 53.337156 L 114.644531 53.278562 " transform="matrix(1, 0, 0, -1, 0, 119.552)"/>
<path fill-rule="nonzero" fill="rgb(100%, 0%, 0%)" fill-opacity="1" stroke-width="0.3985" stroke-linecap="butt" stroke-linejoin="miter" stroke="rgb(100%, 0%, 0%)" stroke-opacity="1" stroke-miterlimit="10" d="M 1.813285 -0.00137125 C 1.590629 0.0572225 0.61016 0.373629 0.000785 0.717379 L 0.000785 -0.716215 C 0.61016 -0.372465 1.590629 -0.0560587 1.813285 -0.00137125 Z M 1.813285 -0.00137125 " transform="matrix(0, 1, 1, 0, 118.38809, 57.13984)"/>
<path fill="none" stroke-width="0.3985" stroke-linecap="butt" stroke-linejoin="miter" stroke="rgb(100%, 0%, 0%)" stroke-opacity="1" stroke-miterlimit="10" d="M 79.628906 66.274656 L 79.535156 66.216062 L 79.441406 66.153562 L 79.351562 66.091062 L 79.261719 66.024656 L 79.171875 65.962156 L 79.085938 65.89575 L 78.996094 65.829344 L 78.910156 65.759031 L 78.824219 65.692625 L 78.578125 65.481687 L 78.496094 65.407469 L 78.417969 65.33325 L 78.335938 65.262937 L 78.03125 64.95825 L 77.957031 64.880125 L 77.886719 64.798094 L 77.8125 64.719969 L 77.742188 64.637937 L 77.675781 64.559812 L 77.609375 64.473875 L 77.542969 64.391844 L 77.472656 64.309812 L 77.410156 64.223875 L 77.347656 64.141844 L 77.222656 63.969969 L 77.167969 63.880125 L 77.050781 63.70825 L 76.886719 63.438719 L 76.835938 63.348875 L 76.785156 63.255125 L 76.738281 63.165281 L 76.6875 63.071531 L 76.640625 62.977781 L 76.597656 62.887937 L 76.550781 62.794187 L 76.511719 62.700437 L 76.46875 62.602781 L 76.429688 62.509031 L 76.390625 62.411375 L 76.351562 62.317625 L 76.320312 62.219969 L 76.285156 62.122312 L 76.25 62.028562 L 76.21875 61.930906 L 76.191406 61.83325 L 76.160156 61.731687 L 76.132812 61.634031 L 76.085938 61.438719 L 76.0625 61.337156 L 76.039062 61.2395 L 76.019531 61.137937 L 76 61.040281 L 75.980469 60.938719 L 75.964844 60.837156 L 75.953125 60.735594 L 75.941406 60.637937 L 75.925781 60.536375 L 75.894531 60.130125 L 75.890625 60.028562 L 75.890625 59.927 L 75.886719 59.825437 L 75.886719 59.727781 L 75.890625 59.626219 L 75.890625 59.524656 L 75.894531 59.423094 L 75.925781 59.016844 L 75.941406 58.915281 L 75.953125 58.817625 L 75.964844 58.716062 L 75.980469 58.6145 L 76 58.512937 L 76.019531 58.415281 L 76.039062 58.313719 L 76.0625 58.216062 L 76.085938 58.1145 L 76.132812 57.919187 L 76.160156 57.821531 L 76.191406 57.723875 L 76.21875 57.622312 L 76.25 57.524656 L 76.285156 57.430906 L 76.316406 57.33325 L 76.351562 57.235594 L 76.390625 57.141844 L 76.429688 57.044187 L 76.46875 56.950437 L 76.511719 56.852781 L 76.597656 56.665281 L 76.640625 56.575437 L 76.734375 56.387937 L 76.785156 56.298094 L 76.832031 56.204344 L 77.050781 55.844969 L 77.167969 55.673094 L 77.222656 55.58325 L 77.347656 55.411375 L 77.414062 55.329344 L 77.472656 55.243406 L 77.539062 55.161375 L 77.609375 55.079344 L 77.742188 54.915281 L 77.8125 54.83325 L 77.886719 54.755125 L 77.957031 54.673094 L 78.03125 54.594969 L 78.257812 54.368406 L 78.335938 54.294187 L 78.417969 54.219969 L 78.496094 54.14575 L 78.578125 54.071531 L 78.824219 53.860594 L 78.910156 53.794187 L 78.996094 53.723875 L 79.085938 53.657469 L 79.171875 53.591062 L 79.261719 53.528562 L 79.351562 53.462156 L 79.441406 53.399656 L 79.535156 53.337156 L 79.628906 53.278562 " transform="matrix(1, 0, 0, -1, 0, 119.552)"/>
<path fill-rule="nonzero" fill="rgb(100%, 0%, 0%)" fill-opacity="1" stroke-width="0.3985" stroke-linecap="butt" stroke-linejoin="miter" stroke="rgb(100%, 0%, 0%)" stroke-opacity="1" stroke-miterlimit="10" d="M 1.813285 0.00083875 C 1.590629 0.0555263 0.61016 0.371933 0.000785 0.715683 L 0.000785 -0.717911 C 0.61016 -0.370255 1.590629 -0.0538487 1.813285 0.00083875 Z M 1.813285 0.00083875 " transform="matrix(0, 1, 1, 0, 75.88588, 57.13984)"/>
<path fill="none" stroke-width="0.3985" stroke-linecap="butt" stroke-linejoin="miter" stroke="rgb(100%, 0%, 0%)" stroke-opacity="1" stroke-miterlimit="10" d="M 114.648438 53.274656 L 114.648438 66.278562 " transform="matrix(1, 0, 0, -1, 0, 119.552)"/>
<path fill-rule="nonzero" fill="rgb(100%, 0%, 0%)" fill-opacity="1" stroke-width="0.3985" stroke-linecap="butt" stroke-linejoin="miter" stroke="rgb(100%, 0%, 0%)" stroke-opacity="1" stroke-miterlimit="10" d="M 1.813204 0.0012225 C 1.590547 0.05591 0.610079 0.372316 0.00070375 0.716066 L 0.00070375 -0.717527 C 0.610079 -0.373777 1.590547 -0.0573712 1.813204 0.0012225 Z M 1.813204 0.0012225 " transform="matrix(0, -1, -1, 0, 114.64966, 62.41086)"/>
<path fill="none" stroke-width="0.3985" stroke-linecap="butt" stroke-linejoin="miter" stroke="rgb(100%, 0%, 0%)" stroke-opacity="1" stroke-miterlimit="10" d="M 79.625 53.274656 L 79.625 66.278562 " transform="matrix(1, 0, 0, -1, 0, 119.552)"/>
<path fill-rule="nonzero" fill="rgb(100%, 0%, 0%)" fill-opacity="1" stroke-width="0.3985" stroke-linecap="butt" stroke-linejoin="miter" stroke="rgb(100%, 0%, 0%)" stroke-opacity="1" stroke-miterlimit="10" d="M 1.813204 -0.00069 C 1.590547 0.0539975 0.610079 0.370404 0.00070375 0.714154 L 0.00070375 -0.715534 C 0.610079 -0.371784 1.590547 -0.0553775 1.813204 -0.00069 Z M 1.813204 -0.00069 " transform="matrix(0, -1, -1, 0, 79.62431, 62.41086)"/>
<path fill="none" stroke-width="0.79701" stroke-linecap="butt" stroke-linejoin="miter" stroke="rgb(0%, 0%, 0%)" stroke-opacity="1" stroke-miterlimit="10" d="M 115.816406 59.778562 L 115.800781 60.563719 L 115.75 61.348875 L 115.667969 62.134031 L 115.550781 62.911375 L 115.402344 63.684812 L 115.222656 64.450437 L 115.007812 65.212156 L 114.761719 65.95825 L 114.488281 66.696531 L 114.179688 67.423094 L 113.84375 68.134031 L 113.476562 68.829344 L 113.078125 69.512937 L 112.65625 70.173094 L 112.203125 70.821531 L 111.722656 71.446531 L 111.21875 72.048094 L 110.6875 72.634031 L 110.136719 73.192625 L 109.558594 73.727781 L 108.957031 74.2395 L 108.339844 74.723875 L 107.699219 75.184812 L 107.039062 75.6145 L 106.363281 76.016844 L 105.667969 76.391844 L 104.960938 76.7395 L 104.238281 77.052 L 103.503906 77.337156 L 102.757812 77.591062 L 102.003906 77.809812 L 101.238281 78.001219 L 100.464844 78.157469 L 99.6875 78.282469 L 98.90625 78.372312 L 98.121094 78.430906 L 97.332031 78.454344 L 96.546875 78.446531 L 95.761719 78.403562 L 94.976562 78.329344 L 94.195312 78.223875 L 93.421875 78.08325 L 92.652344 77.911375 L 91.890625 77.704344 L 91.140625 77.466062 L 90.398438 77.200437 L 89.671875 76.899656 L 88.957031 76.567625 L 88.257812 76.20825 L 87.570312 75.821531 L 86.902344 75.403562 L 86.253906 74.95825 L 85.625 74.485594 L 85.011719 73.985594 L 84.425781 73.462156 L 83.859375 72.915281 L 83.316406 72.344969 L 82.800781 71.751219 L 82.308594 71.134031 L 81.839844 70.501219 L 81.402344 69.844969 L 80.992188 69.173094 L 80.613281 68.485594 L 80.257812 67.778562 L 79.9375 67.059812 L 79.644531 66.329344 L 79.382812 65.587156 L 79.15625 64.83325 L 78.957031 64.071531 L 78.792969 63.298094 L 78.660156 62.524656 L 78.5625 61.743406 L 78.496094 60.95825 L 78.460938 60.169187 L 78.460938 59.384031 L 78.496094 58.594969 L 78.5625 57.809812 L 78.660156 57.028562 L 78.792969 56.255125 L 78.957031 55.485594 L 79.15625 54.719969 L 79.382812 53.966062 L 79.644531 53.223875 L 79.9375 52.493406 L 80.257812 51.774656 L 80.609375 51.071531 L 80.992188 50.380125 L 81.402344 49.70825 L 81.839844 49.052 L 82.308594 48.419187 L 82.800781 47.802 L 83.316406 47.20825 L 83.859375 46.637937 L 84.425781 46.091062 L 85.011719 45.567625 L 85.621094 45.067625 L 86.253906 44.594969 L 86.902344 44.149656 L 87.570312 43.731687 L 88.257812 43.344969 L 88.957031 42.985594 L 89.671875 42.653562 L 90.398438 42.352781 L 91.140625 42.087156 L 91.890625 41.848875 L 92.652344 41.641844 L 93.421875 41.469969 L 94.195312 41.329344 L 94.976562 41.223875 L 95.757812 41.149656 L 96.546875 41.106687 L 97.332031 41.098875 L 98.121094 41.122312 L 98.90625 41.180906 L 99.6875 41.27075 L 100.464844 41.39575 L 101.238281 41.552 L 102.003906 41.743406 L 102.757812 41.962156 L 103.503906 42.216062 L 104.238281 42.501219 L 104.960938 42.813719 L 105.667969 43.161375 L 106.363281 43.536375 L 107.039062 43.938719 L 107.699219 44.368406 L 108.339844 44.829344 L 108.957031 45.313719 L 109.558594 45.825437 L 110.132812 46.360594 L 110.6875 46.919187 L 111.21875 47.501219 L 111.722656 48.106687 L 112.203125 48.731687 L 112.65625 49.376219 L 113.078125 50.040281 L 113.476562 50.723875 L 113.84375 51.419187 L 114.179688 52.130125 L 114.488281 52.856687 L 114.761719 53.594969 L 115.007812 54.341062 L 115.222656 55.102781 L 115.402344 55.868406 L 115.550781 56.641844 L 115.667969 57.419187 L 115.75 58.204344 L 115.800781 58.9895 L 115.816406 59.774656 " transform="matrix(1, 0, 0, -1, 0, 119.552)"/>
</svg>
