<?xml version="1.0" encoding="UTF-8"?>
<svg xmlns="http://www.w3.org/2000/svg" xmlns:xlink="http://www.w3.org/1999/xlink" width="202.859pt" height="128.139pt" viewBox="0 0 202.859 128.139">
<defs>
<clipPath id="clip-0">
<path clip-rule="nonzero" d="M 96 4.292969 L 198.566406 4.292969 L 198.566406 123.84375 L 96 123.84375 Z M 96 4.292969 "/>
</clipPath>
<clipPath id="clip-1">
<path clip-rule="nonzero" d="M 4.292969 4.292969 L 106 4.292969 L 106 123.84375 L 4.292969 123.84375 Z M 4.292969 4.292969 "/>
</clipPath>
<clipPath id="clip-2">
<path clip-rule="nonzero" d="M 99 4.292969 L 198.566406 4.292969 L 198.566406 123.84375 L 99 123.84375 Z M 99 4.292969 "/>
</clipPath>
<clipPath id="clip-3">
<path clip-rule="nonzero" d="M 4.292969 4.292969 L 104 4.292969 L 104 123.84375 L 4.292969 123.84375 Z M 4.292969 4.292969 "/>
</clipPath>
<clipPath id="clip-4">
<path clip-rule="nonzero" d="M 101 4.292969 L 198.566406 4.292969 L 198.566406 123.84375 L 101 123.84375 Z M 101 4.292969 "/>
</clipPath>
<clipPath id="clip-5">
<path clip-rule="nonzero" d="M 4.292969 4.292969 L 102 4.292969 L 102 123.84375 L 4.292969 123.84375 Z M 4.292969 4.292969 "/>
</clipPath>
<clipPath id="clip-6">
<path clip-rule="nonzero" d="M 103 20 L 198.566406 20 L 198.566406 108 L 103 108 Z M 103 20 "/>
</clipPath>
<clipPath id="clip-7">
<path clip-rule="nonzero" d="M 198 61 L 198.566406 61 L 198.566406 64 L 198 64 Z M 198 61 "/>
</clipPath>
<clipPath id="clip-8">
<path clip-rule="nonzero" d="M 192 55 L 198.566406 55 L 198.566406 69 L 192 69 Z M 192 55 "/>
</clipPath>
<clipPath id="clip-9">
<path clip-rule="nonzero" d="M 4.292969 20 L 99 20 L 99 108 L 4.292969 108 Z M 4.292969 20 "/>
</clipPath>
<clipPath id="clip-10">
<path clip-rule="nonzero" d="M 4.292969 61 L 5 61 L 5 64 L 4.292969 64 Z M 4.292969 61 "/>
</clipPath>
<clipPath id="clip-11">
<path clip-rule="nonzero" d="M 4.292969 55 L 11 55 L 11 69 L 4.292969 69 Z M 4.292969 55 "/>
</clipPath>
</defs>
<path fill-rule="nonzero" fill="rgb(0%, 0%, 0%)" fill-opacity="1" d="M 0 128.140625 L 0 -0.00390625 L 202.863281 -0.00390625 L 202.863281 128.140625 Z M 0 128.140625 "/>
<path fill-rule="nonzero" fill="rgb(0%, 0%, 0%)" fill-opacity="1" d="M 0 128.140625 L 0 -0.00390625 L 202.863281 -0.00390625 L 202.863281 128.140625 Z M 0 128.140625 "/>
<g clip-path="url(#clip-0)">
<path fill="none" stroke-width="0.3985" stroke-linecap="butt" stroke-linejoin="miter" stroke="rgb(100%, 0%, 0%)" stroke-opacity="1" stroke-miterlimit="10" d="M 98.303656 78.43875 L 99.842719 92.395781 L 102.346625 110.153594 L 106.041938 131.641875 L 111.147406 156.739531 L 117.885688 185.341094 L 126.467719 217.380156 L 137.100531 252.704375 L 149.967719 291.149687 L 165.256781 332.555937 L 183.151312 376.766875 L 203.823187 423.614531 L 227.3935 472.856719 L 254.061469 524.380156 L 283.870063 577.837188 L 317.053656 633.192656 L 353.541938 689.915313 L 393.565375 748.036406 L 437.159125 807.216094 L 484.370063 867.227813 L 535.295844 927.848906 L 589.838813 988.712188 L 648.120063 1049.637969 L 710.127875 1110.37625 L 775.760688 1170.555938 L 845.006781 1229.997344 L 917.831 1288.423125 L 994.295844 1345.727813 L 1074.073187 1401.372344 L 1157.131781 1455.169219 L 1243.381781 1506.942656 L 1332.846625 1556.567656 L 1425.202094 1603.708281 L 1520.385687 1648.192656 L 1618.334906 1689.802031 L 1718.307562 1727.981719 L 1820.67475 1762.9075 L 1924.991156 1794.31375 L 2031.319281 1822.137969 L 2139.081 1846.067656 L 2248.331 1866.048125 L 2358.538031 1881.802031 L 2469.288031 1893.145781 L 2580.913031 1900.317656 L 2692.831 1903.020781 L 2804.913031 1901.247344 L 2916.545844 1894.930938 L 3027.784125 1883.891875 L 3137.873969 1868.122344 L 3246.991156 1847.669219 L 3355.0185 1822.712188 L 3461.288031 1793.134063 L 3565.784125 1758.97 L 3667.932563 1720.259063 L 3767.014594 1676.880156 L 3863.745063 1629.231719 L 3957.553656 1577.317656 L 4048.229438 1521.325469 L 4135.307563 1461.290313 L 4218.850531 1397.352813 L 4297.471625 1329.528594 L 4372.428656 1258.266875 L 4443.014594 1183.618438 L 4509.069281 1105.919219 L 4570.155219 1025.22 L 4626.538031 941.856719 L 4677.397406 855.837188 L 4722.873969 767.595 L 4762.86225 677.345 L 4797.827094 585.348906 L 4826.834906 491.946562 L 4850.381781 397.262969 L 4868.131781 301.505156 L 4879.748969 205.048125 L 4885.639594 108.290312 L 4885.639594 11.4075 L 4879.748969 -85.303438 L 4868.131781 -181.713594 L 4850.666938 -277.43625 L 4826.834906 -372.155 L 4797.827094 -465.655 L 4763.002875 -557.662812 L 4722.873969 -647.854219 L 4677.397406 -736.096406 L 4626.538031 -822.072969 L 4570.291938 -905.455781 L 4509.069281 -986.18625 L 4443.151313 -1063.951875 L 4372.561469 -1138.56125 L 4297.604438 -1209.78 L 4218.850531 -1277.670625 L 4135.694281 -1341.697969 L 4048.229438 -1401.604219 L 3957.678656 -1457.5925 L 3864.108344 -1509.572969 L 3767.373969 -1557.272187 L 3668.053656 -1600.62375 L 3565.784125 -1639.303437 L 3461.514594 -1673.506562 L 3355.241156 -1703.127656 L 3247.319281 -1728.0925 L 3138.190375 -1748.553437 L 3027.991156 -1764.319062 L 2916.846625 -1775.37375 L 2805.010688 -1781.639375 L 2693.116156 -1783.506562 L 2581.096625 -1780.733125 L 2469.741156 -1773.733125 L 2358.709906 -1762.256562 L 2248.584906 -1746.580781 L 2139.409125 -1726.619844 L 2031.3935 -1702.553437 L 1925.217719 -1674.830781 L 1820.889594 -1643.428437 L 1718.514594 -1608.502656 L 1618.534125 -1570.322969 L 1520.577094 -1528.674531 L 1425.385687 -1484.276094 L 1333.022406 -1437.135469 L 1243.545844 -1387.506562 L 1157.288031 -1335.737031 L 1074.221625 -1281.940156 L 994.436469 -1226.260469 L 917.963813 -1168.987031 L 845.088813 -1110.475312 L 775.79975 -1051.03 L 710.23725 -990.901094 L 648.288031 -930.252656 L 589.932563 -869.256562 L 535.354438 -808.346406 L 484.506781 -747.834687 L 437.256781 -687.783906 L 393.631781 -628.565156 L 353.623969 -570.490937 L 317.108344 -513.725312 L 283.952094 -458.428438 L 254.088812 -404.885469 L 227.459906 -353.432344 L 203.866156 -304.155 L 183.202094 -257.326875 L 165.288031 -213.084688 L 149.991156 -171.655 L 137.127875 -133.24875 L 126.483344 -97.877656 L 117.905219 -65.865938 L 111.159125 -37.225313 L 106.04975 -12.12375 L 102.350531 9.360625 L 99.846625 27.114531 L 98.307563 41.087187 " transform="matrix(1, 0, 0, -1, 4.294, 123.845)"/>
</g>
<g clip-path="url(#clip-1)">
<path fill="none" stroke-width="0.3985" stroke-linecap="butt" stroke-linejoin="miter" stroke="rgb(100%, 0%, 0%)" stroke-opacity="1" stroke-miterlimit="10" d="M 95.967719 78.43875 L 94.432563 92.395781 L 91.928656 110.153594 L 88.233344 131.641875 L 83.123969 156.739531 L 76.389594 185.341094 L 67.807563 217.380156 L 57.17475 252.704375 L 44.307563 291.149687 L 29.0185 332.555937 L 11.123969 376.766875 L -9.547906 423.614531 L -33.122125 472.856719 L -59.786187 524.380156 L -89.598687 577.837188 L -122.778375 633.192656 L -159.266656 689.915313 L -199.294 748.036406 L -242.883844 807.216094 L -290.098687 867.227813 L -341.024469 927.848906 L -395.563531 988.712188 L -453.844781 1049.637969 L -515.852594 1110.37625 L -581.489312 1170.555938 L -650.7315 1229.997344 L -723.555719 1288.423125 L -800.020562 1345.727813 L -879.797906 1401.372344 L -962.8565 1455.169219 L -1049.1065 1506.942656 L -1138.57525 1556.567656 L -1230.926813 1603.708281 L -1326.110406 1648.192656 L -1424.059625 1689.802031 L -1524.032281 1727.981719 L -1626.399469 1762.9075 L -1730.715875 1794.31375 L -1837.044 1822.137969 L -1944.809625 1846.067656 L -2054.059625 1866.048125 L -2164.26275 1881.802031 L -2275.016656 1893.145781 L -2386.63775 1900.317656 L -2498.555719 1903.020781 L -2610.641656 1901.247344 L -2722.270562 1894.930938 L -2833.508844 1883.891875 L -2943.598687 1868.122344 L -3052.715875 1847.669219 L -3160.747125 1822.712188 L -3267.016656 1793.134063 L -3371.51275 1758.97 L -3473.661187 1720.259063 L -3572.739312 1676.880156 L -3669.469781 1629.231719 L -3763.278375 1577.317656 L -3853.954156 1521.325469 L -3941.036187 1461.290313 L -4024.57525 1397.352813 L -4103.20025 1329.528594 L -4178.153375 1258.266875 L -4248.739312 1183.618438 L -4314.794 1105.919219 L -4375.879937 1025.22 L -4432.266656 941.856719 L -4483.122125 855.837188 L -4528.598687 767.595 L -4568.586969 677.345 L -4603.551812 585.348906 L -4632.559625 491.946562 L -4656.110406 397.262969 L -4673.8565 301.505156 L -4685.477594 205.048125 L -4691.364312 108.290312 L -4691.364312 11.4075 L -4685.477594 -85.303438 L -4673.8565 -181.713594 L -4656.395562 -277.43625 L -4632.559625 -372.155 L -4603.551812 -465.655 L -4568.727594 -557.662812 L -4528.598687 -647.854219 L -4483.122125 -736.096406 L -4432.266656 -822.072969 L -4376.016656 -905.455781 L -4314.794 -986.18625 L -4248.876031 -1063.951875 L -4178.286187 -1138.56125 L -4103.333062 -1209.78 L -4024.57525 -1277.670625 L -3941.419 -1341.697969 L -3853.954156 -1401.604219 L -3763.403375 -1457.5925 L -3669.836969 -1509.572969 L -3573.098687 -1557.272187 L -3473.778375 -1600.62375 L -3371.51275 -1639.303437 L -3267.243219 -1673.506562 L -3160.969781 -1703.127656 L -3053.044 -1728.0925 L -2943.919 -1748.553437 L -2833.715875 -1764.319062 L -2722.571344 -1775.37375 L -2610.739312 -1781.639375 L -2498.840875 -1783.506562 L -2386.82525 -1780.733125 L -2275.465875 -1773.733125 L -2164.438531 -1762.256562 L -2054.313531 -1746.580781 L -1945.133844 -1726.619844 L -1837.122125 -1702.553437 L -1730.946344 -1674.830781 L -1626.618219 -1643.428437 L -1524.239313 -1608.502656 L -1424.26275 -1570.322969 L -1326.301813 -1528.674531 L -1231.110406 -1484.276094 L -1138.747125 -1437.135469 L -1049.270563 -1387.506562 L -963.01275 -1335.737031 L -879.95025 -1281.940156 L -800.161187 -1226.260469 L -723.688531 -1168.987031 L -650.817437 -1110.475312 L -581.528375 -1051.03 L -515.961969 -990.901094 L -454.01275 -930.252656 L -395.661187 -869.256562 L -341.083062 -808.346406 L -290.2315 -747.834687 L -242.985406 -687.783906 L -199.360406 -628.565156 L -159.348688 -570.490937 L -122.833062 -513.725312 L -89.680719 -458.428438 L -59.813531 -404.885469 L -33.184625 -353.432344 L -9.594781 -304.155 L 11.073187 -257.326875 L 28.983344 -213.084688 L 44.284125 -171.655 L 57.1435 -133.24875 L 67.791938 -97.877656 L 76.370063 -65.865938 L 83.116156 -37.225313 L 88.225531 -12.12375 L 91.92475 9.360625 L 94.42475 27.114531 L 95.967719 41.087187 " transform="matrix(1, 0, 0, -1, 4.294, 123.845)"/>
</g>
<path fill="none" stroke-width="0.3985" stroke-linecap="butt" stroke-linejoin="miter" stroke="rgb(100%, 0%, 0%)" stroke-opacity="1" stroke-miterlimit="10" d="M 98.303656 41.134062 L 98.303656 78.419219 " transform="matrix(1, 0, 0, -1, 4.294, 123.845)"/>
<path fill-rule="nonzero" fill="rgb(100%, 0%, 0%)" fill-opacity="1" stroke-width="0.3985" stroke-linecap="butt" stroke-linejoin="miter" stroke="rgb(100%, 0%, 0%)" stroke-opacity="1" stroke-miterlimit="10" d="M 1.813235 0.00084375 C 1.590579 0.0555313 0.61011 0.371938 0.000735 0.715688 L 0.000735 -0.717906 C 0.61011 -0.37025 1.590579 -0.0538437 1.813235 0.00084375 Z M 1.813235 0.00084375 " transform="matrix(0, -1, -1, 0, 102.5985, 66.70386)"/>
<path fill="none" stroke-width="0.3985" stroke-linecap="butt" stroke-linejoin="miter" stroke="rgb(100%, 0%, 0%)" stroke-opacity="1" stroke-miterlimit="10" d="M 95.967719 41.134062 L 95.967719 78.419219 " transform="matrix(1, 0, 0, -1, 4.294, 123.845)"/>
<path fill-rule="nonzero" fill="rgb(100%, 0%, 0%)" fill-opacity="1" stroke-width="0.3985" stroke-linecap="butt" stroke-linejoin="miter" stroke="rgb(100%, 0%, 0%)" stroke-opacity="1" stroke-miterlimit="10" d="M 1.813235 0.00175125 C 1.590579 0.0564387 0.61011 0.372845 0.000735 0.716595 L 0.000735 -0.716999 C 0.61011 -0.373249 1.590579 -0.0568425 1.813235 0.00175125 Z M 1.813235 0.00175125 " transform="matrix(0, -1, -1, 0, 100.26347, 66.70386)"/>
<g clip-path="url(#clip-2)">
<path fill="none" stroke-width="0.3985" stroke-linecap="butt" stroke-linejoin="miter" stroke="rgb(100%, 0%, 0%)" stroke-opacity="1" stroke-miterlimit="10" d="M 100.639594 78.118437 L 101.760688 81.770781 L 103.092719 85.708281 L 104.651313 89.923125 L 106.452094 94.403594 L 108.510688 99.122344 L 110.834906 104.075469 L 113.444281 109.243437 L 116.346625 114.598906 L 119.54975 120.130156 L 123.069281 125.821562 L 126.901313 131.641875 L 131.069281 137.587187 L 135.569281 143.618437 L 140.405219 149.727812 L 145.584906 155.887969 L 151.100531 162.067656 L 156.975531 168.274687 L 163.190375 174.458281 L 169.745062 180.595 L 176.639594 186.673125 L 183.86225 192.661406 L 191.416937 198.548125 L 199.303656 204.309844 L 207.506781 209.923125 L 216.014594 215.364531 L 224.815375 220.610625 L 233.913031 225.653594 L 243.272406 230.458281 L 252.901312 235.009062 L 262.788031 239.309844 L 272.889594 243.305937 L 283.225531 247.016875 L 293.73725 250.387969 L 304.440375 253.434844 L 315.288031 256.118437 L 326.280219 258.446562 L 337.381781 260.384062 L 348.592719 261.950469 L 359.881781 263.114531 L 371.225531 263.87625 L 382.573188 264.212187 L 393.971625 264.141875 L 405.315375 263.634062 L 416.659125 262.712187 L 427.905219 261.348906 L 439.081 259.555937 L 450.139594 257.325469 L 461.077094 254.665312 L 471.858344 251.583281 L 482.440375 248.059844 L 492.834906 244.122344 L 502.940375 239.747344 L 512.819281 234.981719 L 522.420844 229.798125 L 531.73725 224.239531 L 540.733344 218.305937 L 549.366156 211.981719 L 557.647406 205.325469 L 565.545844 198.31375 L 573.045844 190.981719 L 580.163031 183.341094 L 586.834906 175.415312 L 593.034125 167.212187 L 598.795844 158.75125 L 604.104438 150.055937 L 608.846625 141.141875 L 613.135688 132.040312 L 616.909125 122.762969 L 620.135688 113.325469 L 622.838813 103.770781 L 624.979438 94.098906 L 626.631781 84.352812 L 627.729438 74.544219 L 628.288031 64.704375 L 628.288031 54.856719 L 627.729438 45.020781 L 626.631781 35.212187 L 624.979438 25.462187 L 622.838813 15.794219 L 620.135688 6.235625 L 616.909125 -3.194063 L 613.135688 -12.487031 L 608.877875 -21.5925 L 604.073188 -30.494844 L 598.795844 -39.190156 L 593.034125 -47.655 L 586.834906 -55.854219 L 580.190375 -63.791719 L 573.077094 -71.428438 L 565.545844 -78.752656 L 557.647406 -85.764375 L 549.366156 -92.428438 L 540.733344 -98.744844 L 531.73725 -104.68625 L 522.436469 -110.244844 L 512.819281 -115.412813 L 502.952094 -120.197969 L 492.834906 -124.569063 L 482.440375 -128.502656 L 471.858344 -132.03 L 461.077094 -135.112031 L 450.166938 -137.783906 L 439.092719 -140.006563 L 427.928656 -141.803438 L 416.659125 -143.158906 L 405.334906 -144.088594 L 393.971625 -144.588594 L 382.592719 -144.662813 L 371.225531 -144.319063 L 359.881781 -143.553438 L 348.592719 -142.393281 L 337.381781 -140.830781 L 326.288031 -138.897188 L 315.295844 -136.572969 L 304.440375 -133.881563 L 293.73725 -130.826875 L 283.225531 -127.459688 L 272.905219 -123.764375 L 262.788031 -119.756563 L 252.913031 -115.4675 L 243.284125 -110.912813 L 233.913031 -106.096406 L 224.823187 -101.06125 L 216.0185 -95.815156 L 207.506781 -90.369844 L 199.311469 -84.756563 L 191.416937 -78.994844 L 183.86225 -73.108125 L 176.639594 -67.119844 L 169.748969 -61.049531 L 163.190375 -54.905 L 156.979437 -48.725313 L 151.100531 -42.514375 L 145.584906 -36.330781 L 140.405219 -30.174531 L 135.569281 -24.069063 L 131.069281 -18.033906 L 126.905219 -12.0925 L 123.069281 -6.268281 L 119.553656 -0.580781 L 116.350531 4.946562 L 113.448188 10.305937 L 110.838813 15.47 L 108.510688 20.430937 L 106.456 25.145781 L 104.651313 29.62625 L 103.092719 33.841094 L 101.760688 37.778594 L 100.639594 41.430937 " transform="matrix(1, 0, 0, -1, 4.294, 123.845)"/>
</g>
<g clip-path="url(#clip-3)">
<path fill="none" stroke-width="0.3985" stroke-linecap="butt" stroke-linejoin="miter" stroke="rgb(100%, 0%, 0%)" stroke-opacity="1" stroke-miterlimit="10" d="M 93.635688 78.118437 L 92.514594 81.770781 L 91.182563 85.708281 L 89.623969 89.923125 L 87.819281 94.403594 L 85.764594 99.122344 L 83.436469 104.075469 L 80.827094 109.243437 L 77.928656 114.598906 L 74.725531 120.130156 L 71.206 125.821562 L 67.373969 131.641875 L 63.202094 137.587187 L 58.706 143.618437 L 53.866156 149.727812 L 48.690375 155.887969 L 43.170844 162.067656 L 37.295844 168.274687 L 31.084906 174.458281 L 24.530219 180.595 L 17.635687 186.673125 L 10.409125 192.661406 L 2.854438 198.548125 L -5.032281 204.309844 L -13.2315 209.923125 L -21.739313 215.364531 L -30.540094 220.610625 L -39.641656 225.653594 L -48.997125 230.458281 L -58.626031 235.009062 L -68.51275 239.309844 L -78.614312 243.305937 L -88.95025 247.016875 L -99.461969 250.387969 L -110.165094 253.434844 L -121.01275 256.118437 L -132.004938 258.446562 L -143.1065 260.384062 L -154.321344 261.950469 L -165.6065 263.114531 L -176.95025 263.87625 L -188.297906 264.212187 L -199.696344 264.141875 L -211.040094 263.634062 L -222.383844 262.712187 L -233.629938 261.348906 L -244.805719 259.555937 L -255.868219 257.325469 L -266.801812 254.665312 L -277.583062 251.583281 L -288.165094 248.059844 L -298.563531 244.122344 L -308.665094 239.747344 L -318.547906 234.981719 L -328.149469 229.798125 L -337.461969 224.239531 L -346.458062 218.305937 L -355.094781 211.981719 L -363.376031 205.325469 L -371.274469 198.31375 L -378.774469 190.981719 L -385.88775 183.341094 L -392.559625 175.415312 L -398.758844 167.212187 L -404.520562 158.75125 L -409.833062 150.055937 L -414.57525 141.141875 L -418.860406 132.040312 L -422.63775 122.762969 L -425.864312 113.325469 L -428.563531 103.770781 L -430.704156 94.098906 L -432.3565 84.352812 L -433.454156 74.544219 L -434.01275 64.704375 L -434.01275 54.856719 L -433.454156 45.020781 L -432.3565 35.212187 L -430.704156 25.462187 L -428.563531 15.794219 L -425.864312 6.235625 L -422.63775 -3.194063 L -418.860406 -12.487031 L -414.602594 -21.5925 L -409.801812 -30.494844 L -404.520562 -39.190156 L -398.758844 -47.655 L -392.559625 -55.854219 L -385.919 -63.791719 L -378.801812 -71.428438 L -371.274469 -78.752656 L -363.376031 -85.764375 L -355.094781 -92.428438 L -346.458062 -98.744844 L -337.461969 -104.68625 L -328.161187 -110.244844 L -318.547906 -115.412813 L -308.680719 -120.197969 L -298.563531 -124.569063 L -288.165094 -128.502656 L -277.583062 -132.03 L -266.801812 -135.112031 L -255.891656 -137.783906 L -244.817438 -140.006563 L -233.653375 -141.803438 L -222.383844 -143.158906 L -211.063531 -144.088594 L -199.696344 -144.588594 L -188.321344 -144.662813 L -176.95025 -144.319063 L -165.6065 -143.553438 L -154.321344 -142.393281 L -143.1065 -140.830781 L -132.016656 -138.897188 L -121.020562 -136.572969 L -110.165094 -133.881563 L -99.461969 -130.826875 L -88.95025 -127.459688 L -78.629937 -123.764375 L -68.51275 -119.756563 L -58.641656 -115.4675 L -49.01275 -110.912813 L -39.641656 -106.096406 L -30.547906 -101.06125 L -21.743219 -95.815156 L -13.2315 -90.369844 L -5.036187 -84.756563 L 2.854438 -78.994844 L 10.409125 -73.108125 L 17.635687 -67.119844 L 24.526312 -61.049531 L 31.084906 -54.905 L 37.295844 -48.725313 L 43.170844 -42.514375 L 48.690375 -36.330781 L 53.866156 -30.174531 L 58.702094 -24.069063 L 63.202094 -18.033906 L 67.366156 -12.0925 L 71.202094 -6.268281 L 74.721625 -0.580781 L 77.92475 4.946562 L 80.823188 10.305937 L 83.432563 15.47 L 85.764594 20.430937 L 87.819281 25.145781 L 89.623969 29.62625 L 91.182563 33.841094 L 92.514594 37.778594 L 93.635688 41.430937 " transform="matrix(1, 0, 0, -1, 4.294, 123.845)"/>
</g>
<path fill="none" stroke-width="0.3985" stroke-linecap="butt" stroke-linejoin="miter" stroke="rgb(100%, 0%, 0%)" stroke-opacity="1" stroke-miterlimit="10" d="M 100.639594 41.427031 L 100.639594 78.12625 " transform="matrix(1, 0, 0, -1, 4.294, 123.845)"/>
<path fill-rule="nonzero" fill="rgb(100%, 0%, 0%)" fill-opacity="1" stroke-width="0.3985" stroke-linecap="butt" stroke-linejoin="miter" stroke="rgb(100%, 0%, 0%)" stroke-opacity="1" stroke-miterlimit="10" d="M 1.813215 -0.00006375 C 1.590559 0.0546237 0.61009 0.37103 0.000715 0.71478 L 0.000715 -0.714908 C 0.61009 -0.371158 1.590559 -0.0547513 1.813215 -0.00006375 Z M 1.813215 -0.00006375 " transform="matrix(0, -1, -1, 0, 104.93353, 66.70384)"/>
<path fill="none" stroke-width="0.3985" stroke-linecap="butt" stroke-linejoin="miter" stroke="rgb(100%, 0%, 0%)" stroke-opacity="1" stroke-miterlimit="10" d="M 93.635688 41.427031 L 93.635688 78.12625 " transform="matrix(1, 0, 0, -1, 4.294, 123.845)"/>
<path fill-rule="nonzero" fill="rgb(100%, 0%, 0%)" fill-opacity="1" stroke-width="0.3985" stroke-linecap="butt" stroke-linejoin="miter" stroke="rgb(100%, 0%, 0%)" stroke-opacity="1" stroke-miterlimit="10" d="M 1.813215 -0.0012375 C 1.590559 0.0573562 0.61009 0.373762 0.000715 0.717512 L 0.000715 -0.716081 C 0.61009 -0.372331 1.590559 -0.055925 1.813215 -0.0012375 Z M 1.813215 -0.0012375 " transform="matrix(0, -1, -1, 0, 97.92845, 66.70384)"/>
<g clip-path="url(#clip-4)">
<path fill="none" stroke-width="0.3985" stroke-linecap="butt" stroke-linejoin="miter" stroke="rgb(100%, 0%, 0%)" stroke-opacity="1" stroke-miterlimit="10" d="M 102.971625 77.516875 L 103.913031 79.262969 L 104.940375 81.059844 L 106.061469 82.903594 L 107.276313 84.790312 L 108.584906 86.712187 L 109.995063 88.665312 L 111.502875 90.645781 L 113.108344 92.641875 L 114.819281 94.653594 L 116.627875 96.673125 L 118.541938 98.696562 L 120.553656 100.712187 L 122.670844 102.716094 L 124.885688 104.708281 L 127.206 106.677031 L 129.620062 108.614531 L 132.131781 110.520781 L 134.73725 112.384062 L 137.440375 114.204375 L 140.233344 115.973906 L 143.108344 117.680937 L 146.073187 119.333281 L 149.116156 120.911406 L 152.245062 122.423125 L 155.440375 123.848906 L 158.706 125.192656 L 162.038031 126.454375 L 165.436469 127.618437 L 168.885687 128.68875 L 172.389594 129.661406 L 175.928656 130.520781 L 179.530219 131.2825 L 183.151312 131.927031 L 186.803656 132.454375 L 190.479437 132.872344 L 194.178656 133.169219 L 197.885687 133.341094 L 201.600531 133.391875 L 205.315375 133.317656 L 209.014594 133.114531 L 212.709906 132.786406 L 216.377875 132.325469 L 220.022406 131.739531 L 223.639594 131.028594 L 227.213812 130.18875 L 230.73725 129.22 L 234.213812 128.118437 L 237.627875 126.895781 L 240.983344 125.552031 L 244.272406 124.087187 L 247.471625 122.497344 L 250.596625 120.790312 L 253.635687 118.966094 L 256.569281 117.0325 L 259.416938 114.989531 L 262.147406 112.837187 L 264.760688 110.587187 L 267.2685 108.239531 L 269.663031 105.798125 L 271.928656 103.266875 L 274.053656 100.649687 L 276.04975 97.954375 L 277.8935 95.180937 L 279.61225 92.341094 L 281.182563 89.430937 L 282.592719 86.47 L 283.873969 83.458281 L 284.98725 80.391875 L 285.948188 77.290312 L 286.741156 74.149687 L 287.389594 70.985625 L 287.881781 67.798125 L 288.202094 64.598906 L 288.370063 61.384062 L 288.370063 58.173125 L 288.202094 54.962187 L 287.881781 51.759062 L 287.389594 48.571562 L 286.748969 45.403594 L 285.940375 42.266875 L 284.98725 39.161406 L 283.873969 36.098906 L 282.600531 33.083281 L 281.182563 30.122344 L 279.623969 27.212187 L 277.8935 24.37625 L 276.04975 21.598906 L 274.053656 18.9075 L 271.932563 16.290312 L 269.663031 13.759062 L 267.280219 11.31375 L 264.772406 8.966094 L 262.155219 6.712187 L 259.416938 4.56375 L 256.577094 2.520781 L 253.635687 0.587187 L 250.596625 -1.233125 L 247.483344 -2.944063 L 244.272406 -4.53 L 240.995062 -5.99875 L 237.635687 -7.346406 L 234.213812 -8.565156 L 230.745062 -9.662813 L 227.213812 -10.631563 L 223.6435 -11.479219 L 220.022406 -12.18625 L 216.377875 -12.772188 L 212.709906 -13.229219 L 209.0185 -13.56125 L 205.319281 -13.764375 L 201.600531 -13.838594 L 197.889594 -13.787813 L 194.186469 -13.615938 L 190.48725 -13.319063 L 186.811469 -12.905 L 183.151312 -12.37375 L 179.534125 -11.729219 L 175.936469 -10.9675 L 172.3935 -10.112031 L 168.885687 -9.135469 L 165.436469 -8.065156 L 162.045844 -6.905 L 158.706 -5.639375 L 155.444281 -4.295625 L 152.245062 -2.869844 L 149.120062 -1.362031 L 146.073187 0.22 L 143.11225 1.868437 L 140.233344 3.579375 L 137.440375 5.345 L 134.73725 7.169219 L 132.131781 9.0325 L 129.620062 10.93875 L 127.206 12.87625 L 124.889594 14.845 L 122.67475 16.833281 L 120.557563 18.837187 L 118.541938 20.856719 L 116.627875 22.880156 L 114.819281 24.899687 L 113.108344 26.911406 L 111.502875 28.9075 L 109.995063 30.887969 L 108.584906 32.841094 L 107.276313 34.762969 L 106.061469 36.649687 L 104.940375 38.493437 L 103.913031 40.290312 L 102.975531 42.0325 " transform="matrix(1, 0, 0, -1, 4.294, 123.845)"/>
</g>
<g clip-path="url(#clip-5)">
<path fill="none" stroke-width="0.3985" stroke-linecap="butt" stroke-linejoin="miter" stroke="rgb(100%, 0%, 0%)" stroke-opacity="1" stroke-miterlimit="10" d="M 91.29975 77.516875 L 90.36225 79.262969 L 89.334906 81.059844 L 88.213813 82.903594 L 86.998969 84.790312 L 85.690375 86.712187 L 84.280219 88.665312 L 82.772406 90.645781 L 81.166938 92.641875 L 79.456 94.653594 L 77.647406 96.673125 L 75.733344 98.696562 L 73.717719 100.712187 L 71.600531 102.716094 L 69.385688 104.708281 L 67.069281 106.677031 L 64.655219 108.614531 L 62.1435 110.520781 L 59.534125 112.384062 L 56.834906 114.204375 L 54.041938 115.973906 L 51.166938 117.680937 L 48.198188 119.333281 L 45.159125 120.911406 L 42.030219 122.423125 L 38.834906 123.848906 L 35.569281 125.192656 L 32.233344 126.454375 L 28.838812 127.618437 L 25.389594 128.68875 L 21.885687 129.661406 L 18.342719 130.520781 L 14.745062 131.2825 L 11.120062 131.927031 L 7.471625 132.454375 L 3.791938 132.872344 L 0.096625 133.169219 L -3.610406 133.341094 L -7.329156 133.391875 L -11.040094 133.317656 L -14.739313 133.114531 L -18.434625 132.786406 L -22.102594 132.325469 L -25.751031 131.739531 L -29.364313 131.028594 L -32.938531 130.18875 L -36.461969 129.22 L -39.938531 128.118437 L -43.352594 126.895781 L -46.711969 125.552031 L -50.001031 124.087187 L -53.196344 122.497344 L -56.321344 120.790312 L -59.360406 118.966094 L -62.294 117.0325 L -65.141656 114.989531 L -67.872125 112.837187 L -70.485406 110.587187 L -72.993219 108.239531 L -75.38775 105.798125 L -77.653375 103.266875 L -79.782281 100.649687 L -81.778375 97.954375 L -83.622125 95.180937 L -85.340875 92.341094 L -86.907281 89.430937 L -88.321344 86.47 L -89.598687 83.458281 L -90.711969 80.391875 L -91.672906 77.290312 L -92.465875 74.149687 L -93.118219 70.985625 L -93.610406 67.798125 L -93.930719 64.598906 L -94.094781 61.384062 L -94.094781 58.173125 L -93.930719 54.962187 L -93.610406 51.759062 L -93.118219 48.571562 L -92.477594 45.403594 L -91.669 42.266875 L -90.711969 39.161406 L -89.598687 36.098906 L -88.32525 33.083281 L -86.907281 30.122344 L -85.352594 27.212187 L -83.622125 24.37625 L -81.778375 21.598906 L -79.782281 18.9075 L -77.661187 16.290312 L -75.38775 13.759062 L -73.004937 11.31375 L -70.497125 8.966094 L -67.883844 6.712187 L -65.141656 4.56375 L -62.305719 2.520781 L -59.360406 0.587187 L -56.321344 -1.233125 L -53.208062 -2.944063 L -50.001031 -4.53 L -46.719781 -5.99875 L -43.364312 -7.346406 L -39.938531 -8.565156 L -36.469781 -9.662813 L -32.938531 -10.631563 L -29.368219 -11.479219 L -25.751031 -12.18625 L -22.102594 -12.772188 L -18.434625 -13.229219 L -14.743219 -13.56125 L -11.044 -13.764375 L -7.329156 -13.838594 L -3.614312 -13.787813 L 0.0888125 -13.615938 L 3.784125 -13.319063 L 7.463813 -12.905 L 11.120062 -12.37375 L 14.741156 -11.729219 L 18.338812 -10.9675 L 21.877875 -10.112031 L 25.389594 -9.135469 L 28.838812 -8.065156 L 32.229438 -6.905 L 35.569281 -5.639375 L 38.831 -4.295625 L 42.030219 -2.869844 L 45.151313 -1.362031 L 48.198188 0.22 L 51.163031 1.868437 L 54.041938 3.579375 L 56.831 5.345 L 59.534125 7.169219 L 62.139594 9.0325 L 64.655219 10.93875 L 67.069281 12.87625 L 69.385688 14.845 L 71.600531 16.833281 L 73.717719 18.837187 L 75.729438 20.856719 L 77.6435 22.880156 L 79.456 24.899687 L 81.163031 26.911406 L 82.772406 28.9075 L 84.280219 30.887969 L 85.686469 32.841094 L 86.998969 34.762969 L 88.213813 36.649687 L 89.331 38.493437 L 90.36225 40.290312 L 91.29975 42.0325 " transform="matrix(1, 0, 0, -1, 4.294, 123.845)"/>
</g>
<path fill="none" stroke-width="0.3985" stroke-linecap="butt" stroke-linejoin="miter" stroke="rgb(100%, 0%, 0%)" stroke-opacity="1" stroke-miterlimit="10" d="M 102.975531 42.0325 L 102.975531 77.520781 " transform="matrix(1, 0, 0, -1, 4.294, 123.845)"/>
<path fill-rule="nonzero" fill="rgb(100%, 0%, 0%)" fill-opacity="1" stroke-width="0.3985" stroke-linecap="butt" stroke-linejoin="miter" stroke="rgb(100%, 0%, 0%)" stroke-opacity="1" stroke-miterlimit="10" d="M 1.813305 -0.00098125 C 1.590649 0.0576125 0.61018 0.370113 0.000805 0.717769 L 0.000805 -0.715825 C 0.61018 -0.372075 1.590649 -0.0556687 1.813305 -0.00098125 Z M 1.813305 -0.00098125 " transform="matrix(0, -1, -1, 0, 107.26855, 66.70393)"/>
<path fill="none" stroke-width="0.3985" stroke-linecap="butt" stroke-linejoin="miter" stroke="rgb(100%, 0%, 0%)" stroke-opacity="1" stroke-miterlimit="10" d="M 91.29975 42.0325 L 91.29975 77.520781 " transform="matrix(1, 0, 0, -1, 4.294, 123.845)"/>
<path fill-rule="nonzero" fill="rgb(100%, 0%, 0%)" fill-opacity="1" stroke-width="0.3985" stroke-linecap="butt" stroke-linejoin="miter" stroke="rgb(100%, 0%, 0%)" stroke-opacity="1" stroke-miterlimit="10" d="M 1.813305 -0.00033 C 1.590649 0.0543575 0.61018 0.370764 0.000805 0.714514 L 0.000805 -0.715174 C 0.61018 -0.371424 1.590649 -0.0550175 1.813305 -0.00033 Z M 1.813305 -0.00033 " transform="matrix(0, -1, -1, 0, 95.59342, 66.70393)"/>
<g clip-path="url(#clip-6)">
<path fill="none" stroke-width="0.3985" stroke-linecap="butt" stroke-linejoin="miter" stroke="rgb(100%, 0%, 0%)" stroke-opacity="1" stroke-miterlimit="10" d="M 105.307563 76.571562 L 106.084906 77.489531 L 106.901313 78.4075 L 107.764594 79.325469 L 108.663031 80.247344 L 109.604438 81.161406 L 110.588813 82.075469 L 111.616156 82.977812 L 112.678656 83.872344 L 113.784125 84.75125 L 114.92475 85.618437 L 116.108344 86.47 L 117.331 87.305937 L 118.588813 88.118437 L 119.881781 88.9075 L 121.209906 89.673125 L 122.573188 90.411406 L 123.967719 91.122344 L 125.3935 91.802031 L 126.850531 92.454375 L 128.338812 93.071562 L 129.850531 93.653594 L 131.385687 94.192656 L 132.944281 94.696562 L 134.526312 95.161406 L 136.127875 95.583281 L 137.748969 95.962187 L 139.389594 96.302031 L 141.041937 96.595 L 142.706 96.837187 L 144.377875 97.0325 L 146.057562 97.180937 L 147.745062 97.2825 L 149.432562 97.329375 L 151.123969 97.329375 L 152.815375 97.278594 L 154.502875 97.177031 L 156.182562 97.020781 L 157.850531 96.81375 L 159.510687 96.552031 L 161.163031 96.243437 L 162.79975 95.880156 L 164.416937 95.462187 L 166.014594 94.997344 L 167.584906 94.477812 L 169.131781 93.9075 L 170.651312 93.286406 L 172.147406 92.618437 L 173.61225 91.899687 L 175.04975 91.134062 L 176.440375 90.321562 L 177.795844 89.462187 L 179.108344 88.555937 L 180.381781 87.606719 L 181.608344 86.614531 L 182.795844 85.583281 L 183.936469 84.512969 L 185.026312 83.403594 L 186.069281 82.255156 L 187.041937 81.071562 L 187.975531 79.860625 L 188.850531 78.614531 L 189.678656 77.341094 L 190.440375 76.040312 L 191.1435 74.712187 L 191.776312 73.360625 L 192.366156 71.989531 L 192.877875 70.595 L 193.334906 69.18875 L 193.725531 67.766875 L 194.057562 66.329375 L 194.323187 64.884062 L 194.514594 63.430937 L 194.647406 61.97 L 194.709906 60.509062 L 194.709906 59.044219 L 194.647406 57.583281 L 194.514594 56.122344 L 194.323187 54.669219 L 194.061469 53.223906 L 193.725531 51.790312 L 193.334906 50.364531 L 192.877875 48.958281 L 192.366156 47.567656 L 191.776312 46.192656 L 191.147406 44.841094 L 190.440375 43.516875 L 189.678656 42.212187 L 188.854437 40.93875 L 187.979437 39.692656 L 187.045844 38.481719 L 186.069281 37.298125 L 185.030219 36.149687 L 183.940375 35.040312 L 182.795844 33.97 L 181.616156 32.93875 L 180.381781 31.946562 L 179.108344 30.997344 L 177.795844 30.091094 L 176.440375 29.231719 L 175.045844 28.419219 L 173.616156 27.653594 L 172.151312 26.934844 L 170.655219 26.266875 L 169.131781 25.645781 L 167.584906 25.075469 L 166.014594 24.555937 L 164.416937 24.087187 L 162.79975 23.673125 L 161.163031 23.309844 L 159.510687 23.00125 L 157.854437 22.739531 L 156.182562 22.5325 L 154.506781 22.37625 L 152.819281 22.274687 L 151.123969 22.223906 L 149.432562 22.223906 L 147.745062 22.274687 L 146.057562 22.372344 L 144.377875 22.520781 L 142.706 22.716094 L 141.045844 22.958281 L 139.389594 23.25125 L 137.752875 23.587187 L 136.131781 23.97 L 134.530219 24.391875 L 132.948187 24.856719 L 131.389594 25.356719 L 129.854437 25.899687 L 128.338812 26.481719 L 126.850531 27.098906 L 125.3935 27.747344 L 123.967719 28.430937 L 122.573188 29.141875 L 121.209906 29.880156 L 119.881781 30.645781 L 118.592719 31.430937 L 117.331 32.247344 L 116.11225 33.083281 L 114.928656 33.934844 L 113.784125 34.802031 L 112.678656 35.680937 L 111.616156 36.575469 L 110.592719 37.477812 L 109.608344 38.387969 L 108.663031 39.305937 L 107.764594 40.223906 L 106.901313 41.145781 L 106.084906 42.06375 L 105.311469 42.977812 " transform="matrix(1, 0, 0, -1, 4.294, 123.845)"/>
</g>
<g clip-path="url(#clip-7)">
<path fill-rule="nonzero" fill="rgb(100%, 0%, 0%)" fill-opacity="1" d="M 199.003906 63.246094 C 199.0625 63.023438 199.375 62.042969 199.722656 61.433594 L 198.289062 61.433594 C 198.632812 62.042969 198.949219 63.023438 199.003906 63.246094 Z M 199.003906 63.246094 "/>
</g>
<g clip-path="url(#clip-8)">
<path fill="none" stroke-width="0.3985" stroke-linecap="butt" stroke-linejoin="miter" stroke="rgb(100%, 0%, 0%)" stroke-opacity="1" stroke-miterlimit="10" d="M 1.813904 -0.00095375 C 1.591248 0.05764 0.610779 0.37014 0.00140375 0.717796 L 0.00140375 -0.715797 C 0.610779 -0.372047 1.591248 -0.0556412 1.813904 -0.00095375 Z M 1.813904 -0.00095375 " transform="matrix(0, 1, 1, 0, 199.00486, 61.43219)"/>
</g>
<g clip-path="url(#clip-9)">
<path fill="none" stroke-width="0.3985" stroke-linecap="butt" stroke-linejoin="miter" stroke="rgb(100%, 0%, 0%)" stroke-opacity="1" stroke-miterlimit="10" d="M 88.963813 76.571562 L 88.186469 77.489531 L 87.370063 78.4075 L 86.510688 79.325469 L 85.61225 80.247344 L 84.666938 81.161406 L 83.682563 82.075469 L 82.659125 82.977812 L 81.596625 83.872344 L 80.491156 84.75125 L 79.350531 85.618437 L 78.166938 86.47 L 76.944281 87.305937 L 75.686469 88.118437 L 74.3935 88.9075 L 73.061469 89.673125 L 71.702094 90.411406 L 70.307563 91.122344 L 68.881781 91.802031 L 67.42475 92.454375 L 65.936469 93.071562 L 64.42475 93.653594 L 62.889594 94.192656 L 61.327094 94.696562 L 59.745063 95.161406 L 58.1435 95.583281 L 56.522406 95.962187 L 54.881781 96.302031 L 53.229438 96.595 L 51.569281 96.837187 L 49.897406 97.0325 L 48.217719 97.180937 L 46.530219 97.2825 L 44.838813 97.329375 L 43.151313 97.329375 L 41.456 97.278594 L 39.772406 97.177031 L 38.092719 97.020781 L 36.42475 96.81375 L 34.764594 96.552031 L 33.108344 96.243437 L 31.475531 95.880156 L 29.858344 95.462187 L 28.260687 94.997344 L 26.690375 94.477812 L 25.1435 93.9075 L 23.623969 93.286406 L 22.127875 92.618437 L 20.663031 91.899687 L 19.225531 91.134062 L 17.834906 90.321562 L 16.479437 89.462187 L 15.166937 88.555937 L 13.8935 87.606719 L 12.663031 86.614531 L 11.479437 85.583281 L 10.338812 84.512969 L 9.248969 83.403594 L 8.206 82.255156 L 7.233344 81.071562 L 6.29975 79.860625 L 5.420844 78.614531 L 4.596625 77.341094 L 3.831 76.040312 L 3.131781 74.712187 L 2.495063 73.360625 L 1.909125 71.989531 L 1.397406 70.595 L 0.936469 69.18875 L 0.54975 67.766875 L 0.217719 66.329375 L -0.0518125 64.884062 L -0.239312 63.430937 L -0.372125 61.97 L -0.438531 60.509062 L -0.438531 59.044219 L -0.372125 57.583281 L -0.239312 56.122344 L -0.0518125 54.669219 L 0.209906 53.223906 L 0.54975 51.790312 L 0.936469 50.364531 L 1.397406 48.958281 L 1.909125 47.567656 L 2.495063 46.192656 L 3.123969 44.841094 L 3.831 43.516875 L 4.596625 42.212187 L 5.420844 40.93875 L 6.291938 39.692656 L 7.229438 38.481719 L 8.206 37.298125 L 9.241156 36.149687 L 10.331 35.040312 L 11.479437 33.97 L 12.659125 32.93875 L 13.8935 31.946562 L 15.166937 30.997344 L 16.479437 30.091094 L 17.834906 29.231719 L 19.229437 28.419219 L 20.659125 27.653594 L 22.120062 26.934844 L 23.620062 26.266875 L 25.139594 25.645781 L 26.690375 25.075469 L 28.260687 24.555937 L 29.854437 24.087187 L 31.475531 23.673125 L 33.108344 23.309844 L 34.760688 23.00125 L 36.420844 22.739531 L 38.092719 22.5325 L 39.7685 22.37625 L 41.456 22.274687 L 43.151313 22.223906 L 44.838813 22.223906 L 46.530219 22.274687 L 48.217719 22.372344 L 49.8935 22.520781 L 51.565375 22.716094 L 53.229438 22.958281 L 54.881781 23.25125 L 56.522406 23.587187 L 58.1435 23.97 L 59.745063 24.391875 L 61.327094 24.856719 L 62.885688 25.356719 L 64.420844 25.899687 L 65.936469 26.481719 L 67.42475 27.098906 L 68.877875 27.747344 L 70.303656 28.430937 L 71.702094 29.141875 L 73.061469 29.880156 L 74.389594 30.645781 L 75.682563 31.430937 L 76.940375 32.247344 L 78.163031 33.083281 L 79.346625 33.934844 L 80.491156 34.802031 L 81.592719 35.680937 L 82.659125 36.575469 L 83.682563 37.477812 L 84.666938 38.387969 L 85.608344 39.305937 L 86.510688 40.223906 L 87.370063 41.145781 L 88.186469 42.06375 L 88.963813 42.977812 " transform="matrix(1, 0, 0, -1, 4.294, 123.845)"/>
</g>
<g clip-path="url(#clip-10)">
<path fill-rule="nonzero" fill="rgb(100%, 0%, 0%)" fill-opacity="1" d="M 3.855469 63.246094 C 3.914062 63.023438 4.230469 62.042969 4.574219 61.433594 L 3.140625 61.433594 C 3.484375 62.042969 3.800781 63.023438 3.855469 63.246094 Z M 3.855469 63.246094 "/>
</g>
<g clip-path="url(#clip-11)">
<path fill="none" stroke-width="0.3985" stroke-linecap="butt" stroke-linejoin="miter" stroke="rgb(100%, 0%, 0%)" stroke-opacity="1" stroke-miterlimit="10" d="M 1.813904 -0.00166125 C 1.591248 0.0569325 0.610779 0.373339 0.00140375 0.717089 L 0.00140375 -0.716505 C 0.610779 -0.372755 1.591248 -0.0563487 1.813904 -0.00166125 Z M 1.813904 -0.00166125 " transform="matrix(0, 1, 1, 0, 3.85713, 61.43219)"/>
</g>
<path fill="none" stroke-width="0.3985" stroke-linecap="butt" stroke-linejoin="miter" stroke="rgb(100%, 0%, 0%)" stroke-opacity="1" stroke-miterlimit="10" d="M 105.311469 42.977812 L 105.311469 76.575469 " transform="matrix(1, 0, 0, -1, 4.294, 123.845)"/>
<path fill-rule="nonzero" fill="rgb(100%, 0%, 0%)" fill-opacity="1" stroke-width="0.3985" stroke-linecap="butt" stroke-linejoin="miter" stroke="rgb(100%, 0%, 0%)" stroke-opacity="1" stroke-miterlimit="10" d="M 1.813045 -0.00189875 C 1.590389 0.056695 0.613826 0.373101 0.000545 0.716851 L 0.000545 -0.716743 C 0.613826 -0.372993 1.590389 -0.0565863 1.813045 -0.00189875 Z M 1.813045 -0.00189875 " transform="matrix(0, -1, -1, 0, 109.60357, 66.70367)"/>
<path fill="none" stroke-width="0.3985" stroke-linecap="butt" stroke-linejoin="miter" stroke="rgb(100%, 0%, 0%)" stroke-opacity="1" stroke-miterlimit="10" d="M 88.963813 42.977812 L 88.963813 76.575469 " transform="matrix(1, 0, 0, -1, 4.294, 123.845)"/>
<path fill-rule="nonzero" fill="rgb(100%, 0%, 0%)" fill-opacity="1" stroke-width="0.3985" stroke-linecap="butt" stroke-linejoin="miter" stroke="rgb(100%, 0%, 0%)" stroke-opacity="1" stroke-miterlimit="10" d="M 1.813045 0.0005875 C 1.590389 0.055275 0.613826 0.371681 0.000545 0.715431 L 0.000545 -0.714256 C 0.613826 -0.370506 1.590389 -0.0541 1.813045 0.0005875 Z M 1.813045 0.0005875 " transform="matrix(0, -1, -1, 0, 93.2584, 66.70367)"/>
<path fill="none" stroke-width="0.3985" stroke-linecap="butt" stroke-linejoin="miter" stroke="rgb(100%, 0%, 0%)" stroke-opacity="1" stroke-miterlimit="10" d="M 107.6435 75.22 L 108.256781 75.673125 L 108.889594 76.114531 L 109.538031 76.552031 L 110.202094 76.977812 L 110.885688 77.395781 L 111.584906 77.798125 L 112.29975 78.18875 L 113.026313 78.567656 L 113.772406 78.93875 L 114.530219 79.286406 L 115.29975 79.622344 L 116.084906 79.946562 L 116.881781 80.25125 L 117.690375 80.540312 L 118.510688 80.809844 L 119.338813 81.06375 L 120.178656 81.298125 L 121.022406 81.509062 L 121.881781 81.704375 L 122.745063 81.880156 L 123.616156 82.0325 L 124.48725 82.165312 L 125.370063 82.274687 L 126.252875 82.364531 L 127.1435 82.434844 L 128.026312 82.473906 L 128.920844 82.497344 L 129.811469 82.493437 L 130.702094 82.47 L 131.584906 82.419219 L 132.471625 82.345 L 133.358344 82.247344 L 134.23725 82.130156 L 135.108344 81.981719 L 135.975531 81.81375 L 136.834906 81.622344 L 137.690375 81.403594 L 138.530219 81.165312 L 139.36225 80.899687 L 140.186469 80.614531 L 141.002875 80.302031 L 141.795844 79.97 L 142.577094 79.610625 L 143.350531 79.235625 L 144.108344 78.833281 L 144.842719 78.411406 L 145.565375 77.966094 L 146.2685 77.50125 L 146.959906 77.020781 L 147.620062 76.512969 L 148.264594 75.985625 L 148.8935 75.446562 L 149.498969 74.884062 L 150.077094 74.305937 L 150.631781 73.708281 L 151.170844 73.098906 L 151.678656 72.47 L 152.163031 71.825469 L 152.620062 71.169219 L 153.057562 70.497344 L 153.463812 69.817656 L 153.838812 69.118437 L 154.194281 68.415312 L 154.522406 67.700469 L 154.819281 66.973906 L 155.084906 66.239531 L 155.323187 65.497344 L 155.534125 64.747344 L 155.713812 63.993437 L 155.858344 63.231719 L 155.983344 62.47 L 156.077094 61.700469 L 156.139594 60.930937 L 156.166937 60.161406 L 156.166937 59.391875 L 156.139594 58.622344 L 156.077094 57.852812 L 155.983344 57.087187 L 155.86225 56.321562 L 155.713812 55.559844 L 155.534125 54.805937 L 155.323187 54.055937 L 155.084906 53.317656 L 154.823187 52.579375 L 154.522406 51.856719 L 154.194281 51.137969 L 153.842719 50.434844 L 153.467719 49.735625 L 153.061469 49.055937 L 152.620062 48.384062 L 152.163031 47.727812 L 151.682562 47.083281 L 151.170844 46.458281 L 150.635687 45.845 L 150.077094 45.247344 L 149.498969 44.669219 L 148.8935 44.106719 L 148.2685 43.567656 L 147.623969 43.040312 L 146.959906 42.536406 L 146.272406 42.052031 L 145.565375 41.587187 L 144.842719 41.145781 L 144.108344 40.72 L 143.350531 40.321562 L 142.577094 39.942656 L 141.795844 39.587187 L 141.002875 39.247344 L 140.190375 38.93875 L 139.36225 38.653594 L 138.530219 38.391875 L 137.690375 38.149687 L 136.838812 37.930937 L 135.975531 37.739531 L 135.108344 37.571562 L 134.23725 37.427031 L 133.358344 37.305937 L 132.471625 37.208281 L 131.588812 37.134062 L 130.702094 37.083281 L 129.811469 37.059844 L 128.920844 37.055937 L 128.030219 37.079375 L 127.1435 37.118437 L 126.252875 37.18875 L 125.370063 37.278594 L 124.48725 37.387969 L 123.616156 37.516875 L 122.748969 37.673125 L 121.881781 37.848906 L 121.022406 38.044219 L 120.178656 38.255156 L 119.342719 38.489531 L 118.510688 38.743437 L 117.690375 39.012969 L 116.885688 39.302031 L 116.084906 39.606719 L 115.303656 39.927031 L 114.530219 40.266875 L 113.772406 40.614531 L 113.030219 40.981719 L 112.29975 41.364531 L 111.584906 41.755156 L 110.885688 42.1575 L 110.206 42.575469 L 109.538031 43.00125 L 108.889594 43.434844 L 108.256781 43.880156 L 107.6435 44.333281 " transform="matrix(1, 0, 0, -1, 4.294, 123.845)"/>
<path fill-rule="nonzero" fill="rgb(100%, 0%, 0%)" fill-opacity="1" stroke-width="0.3985" stroke-linecap="butt" stroke-linejoin="miter" stroke="rgb(100%, 0%, 0%)" stroke-opacity="1" stroke-miterlimit="10" d="M 1.813124 0.0010875 C 1.590468 0.055775 0.613905 0.372181 0.00062375 0.715931 L 0.00062375 -0.717662 C 0.613905 -0.373912 1.590468 -0.0575062 1.813124 0.0010875 Z M 1.813124 0.0010875 " transform="matrix(0, 1, 1, 0, 160.45985, 61.43297)"/>
<path fill="none" stroke-width="0.3985" stroke-linecap="butt" stroke-linejoin="miter" stroke="rgb(100%, 0%, 0%)" stroke-opacity="1" stroke-miterlimit="10" d="M 86.631781 75.22 L 86.014594 75.673125 L 85.385688 76.114531 L 84.73725 76.552031 L 84.069281 76.977812 L 83.385688 77.395781 L 82.690375 77.798125 L 81.975531 78.18875 L 81.245063 78.567656 L 80.498969 78.93875 L 79.745063 79.286406 L 78.971625 79.622344 L 78.186469 79.946562 L 77.389594 80.25125 L 76.581 80.540312 L 75.764594 80.809844 L 74.936469 81.06375 L 74.096625 81.298125 L 73.248969 81.509062 L 72.3935 81.704375 L 71.530219 81.880156 L 70.659125 82.0325 L 69.784125 82.165312 L 68.905219 82.274687 L 68.0185 82.364531 L 67.131781 82.434844 L 66.245063 82.473906 L 65.354438 82.497344 L 64.463813 82.493437 L 63.573188 82.47 L 62.686469 82.419219 L 61.79975 82.345 L 60.916938 82.247344 L 60.034125 82.130156 L 59.166938 81.981719 L 58.29975 81.81375 L 57.440375 81.622344 L 56.584906 81.403594 L 55.741156 81.165312 L 54.913031 80.899687 L 54.088813 80.614531 L 53.272406 80.302031 L 52.479438 79.97 L 51.694281 79.610625 L 50.92475 79.235625 L 50.166938 78.833281 L 49.432563 78.411406 L 48.706 77.966094 L 48.002875 77.50125 L 47.315375 77.020781 L 46.651313 76.512969 L 46.010688 75.985625 L 45.381781 75.446562 L 44.776313 74.884062 L 44.198188 74.305937 L 43.639594 73.708281 L 43.104438 73.098906 L 42.592719 72.47 L 42.11225 71.825469 L 41.655219 71.169219 L 41.217719 70.497344 L 40.807563 69.817656 L 40.432563 69.118437 L 40.081 68.415312 L 39.752875 67.700469 L 39.456 66.973906 L 39.190375 66.239531 L 38.952094 65.497344 L 38.741156 64.747344 L 38.561469 63.993437 L 38.413031 63.231719 L 38.291938 62.47 L 38.198188 61.700469 L 38.135688 60.930937 L 38.108344 60.161406 L 38.108344 59.391875 L 38.135688 58.622344 L 38.198188 57.852812 L 38.291938 57.087187 L 38.409125 56.321562 L 38.561469 55.559844 L 38.741156 54.805937 L 38.952094 54.055937 L 39.190375 53.317656 L 39.452094 52.579375 L 39.752875 51.856719 L 40.081 51.137969 L 40.432563 50.434844 L 40.807563 49.735625 L 41.213813 49.055937 L 41.655219 48.384062 L 42.11225 47.727812 L 42.592719 47.083281 L 43.104438 46.458281 L 43.639594 45.845 L 44.198188 45.247344 L 44.776313 44.669219 L 45.381781 44.106719 L 46.006781 43.567656 L 46.651313 43.040312 L 47.315375 42.536406 L 48.002875 42.052031 L 48.706 41.587187 L 49.432563 41.145781 L 50.163031 40.72 L 50.92475 40.321562 L 51.694281 39.942656 L 52.479438 39.587187 L 53.272406 39.247344 L 54.084906 38.93875 L 54.909125 38.653594 L 55.741156 38.391875 L 56.584906 38.149687 L 57.436469 37.930937 L 58.295844 37.739531 L 59.163031 37.571562 L 60.034125 37.427031 L 60.916938 37.305937 L 61.79975 37.208281 L 62.686469 37.134062 L 63.569281 37.083281 L 64.463813 37.059844 L 65.354438 37.055937 L 66.245063 37.079375 L 67.131781 37.118437 L 68.022406 37.18875 L 68.905219 37.278594 L 69.784125 37.387969 L 70.655219 37.516875 L 71.526313 37.673125 L 72.3935 37.848906 L 73.248969 38.044219 L 74.092719 38.255156 L 74.932563 38.489531 L 75.764594 38.743437 L 76.581 39.012969 L 77.389594 39.302031 L 78.186469 39.606719 L 78.971625 39.927031 L 79.745063 40.266875 L 80.498969 40.614531 L 81.245063 40.981719 L 81.975531 41.364531 L 82.690375 41.755156 L 83.385688 42.1575 L 84.069281 42.575469 L 84.73725 43.00125 L 85.385688 43.434844 L 86.014594 43.880156 L 86.631781 44.333281 " transform="matrix(1, 0, 0, -1, 4.294, 123.845)"/>
<path fill-rule="nonzero" fill="rgb(100%, 0%, 0%)" fill-opacity="1" stroke-width="0.3985" stroke-linecap="butt" stroke-linejoin="miter" stroke="rgb(100%, 0%, 0%)" stroke-opacity="1" stroke-miterlimit="10" d="M 1.813124 0.00022375 C 1.590468 0.0549112 0.613905 0.371317 0.00062375 0.715067 L 0.00062375 -0.71462 C 0.613905 -0.37087 1.590468 -0.0544638 1.813124 0.00022375 Z M 1.813124 0.00022375 " transform="matrix(0, 1, 1, 0, 42.40212, 61.43297)"/>
<path fill="none" stroke-width="0.3985" stroke-linecap="butt" stroke-linejoin="miter" stroke="rgb(100%, 0%, 0%)" stroke-opacity="1" stroke-miterlimit="10" d="M 107.6435 44.333281 L 107.6435 75.22 " transform="matrix(1, 0, 0, -1, 4.294, 123.845)"/>
<path fill-rule="nonzero" fill="rgb(100%, 0%, 0%)" fill-opacity="1" stroke-width="0.3985" stroke-linecap="butt" stroke-linejoin="miter" stroke="rgb(100%, 0%, 0%)" stroke-opacity="1" stroke-miterlimit="10" d="M 1.813205 0.00109 C 1.590549 0.0557775 0.61008 0.372184 0.000705 0.715934 L 0.000705 -0.71766 C 0.61008 -0.37391 1.590549 -0.0575037 1.813205 0.00109 Z M 1.813205 0.00109 " transform="matrix(0, -1, -1, 0, 111.93859, 66.70383)"/>
<path fill="none" stroke-width="0.3985" stroke-linecap="butt" stroke-linejoin="miter" stroke="rgb(100%, 0%, 0%)" stroke-opacity="1" stroke-miterlimit="10" d="M 86.627875 44.333281 L 86.627875 75.22 " transform="matrix(1, 0, 0, -1, 4.294, 123.845)"/>
<path fill-rule="nonzero" fill="rgb(100%, 0%, 0%)" fill-opacity="1" stroke-width="0.3985" stroke-linecap="butt" stroke-linejoin="miter" stroke="rgb(100%, 0%, 0%)" stroke-opacity="1" stroke-miterlimit="10" d="M 1.813205 0.001505 C 1.590549 0.0561925 0.61008 0.372599 0.000705 0.716349 L 0.000705 -0.717245 C 0.61008 -0.373495 1.590549 -0.0570888 1.813205 0.001505 Z M 1.813205 0.001505 " transform="matrix(0, -1, -1, 0, 90.92338, 66.70383)"/>
<path fill="none" stroke-width="0.3985" stroke-linecap="butt" stroke-linejoin="miter" stroke="rgb(100%, 0%, 0%)" stroke-opacity="1" stroke-miterlimit="10" d="M 109.975531 73.341094 L 110.42475 73.509062 L 110.873969 73.669219 L 111.334906 73.821562 L 111.795844 73.966094 L 112.260688 74.098906 L 112.733344 74.227812 L 113.206 74.345 L 113.686469 74.450469 L 114.170844 74.552031 L 114.651313 74.641875 L 115.139594 74.72 L 115.631781 74.790312 L 116.123969 74.848906 L 116.620063 74.895781 L 117.11225 74.934844 L 117.608344 74.962187 L 118.108344 74.981719 L 118.604438 74.985625 L 119.100531 74.981719 L 119.600531 74.966094 L 120.096625 74.93875 L 120.592719 74.903594 L 121.088813 74.852812 L 121.577094 74.794219 L 122.069281 74.723906 L 122.557563 74.641875 L 123.041938 74.548125 L 123.526313 74.442656 L 124.002875 74.325469 L 124.475531 74.200469 L 124.948188 74.06375 L 125.409125 73.911406 L 125.873969 73.755156 L 126.327094 73.583281 L 126.776313 73.403594 L 127.221625 73.212187 L 127.651313 73.009062 L 128.084906 72.794219 L 128.506781 72.571562 L 128.920844 72.337187 L 129.331 72.095 L 129.729437 71.841094 L 130.116156 71.579375 L 130.502875 71.305937 L 130.873969 71.024687 L 131.23725 70.735625 L 131.588812 70.434844 L 131.932562 70.12625 L 132.2685 69.809844 L 132.588812 69.485625 L 132.901312 69.153594 L 133.209906 68.81375 L 133.772406 68.110625 L 134.041937 67.747344 L 134.291937 67.380156 L 134.538031 67.005156 L 134.7685 66.622344 L 134.983344 66.235625 L 135.194281 65.848906 L 135.381781 65.450469 L 135.561469 65.048125 L 135.729437 64.641875 L 135.881781 64.231719 L 136.022406 63.821562 L 136.1435 63.403594 L 136.256781 62.985625 L 136.358344 62.56375 L 136.436469 62.137969 L 136.510687 61.712187 L 136.565375 61.2825 L 136.604437 60.852812 L 136.639594 60.423125 L 136.651312 59.993437 L 136.651312 59.559844 L 136.639594 59.130156 L 136.604437 58.700469 L 136.565375 58.270781 L 136.510687 57.841094 L 136.436469 57.415312 L 136.358344 56.989531 L 136.256781 56.567656 L 136.1435 56.149687 L 136.022406 55.731719 L 135.881781 55.321562 L 135.729437 54.911406 L 135.561469 54.505156 L 135.381781 54.102812 L 135.194281 53.708281 L 134.983344 53.31375 L 134.7685 52.930937 L 134.538031 52.548125 L 134.291937 52.173125 L 134.041937 51.805937 L 133.772406 51.442656 L 133.209906 50.739531 L 132.901312 50.403594 L 132.588812 50.067656 L 132.2685 49.743437 L 131.932562 49.427031 L 131.592719 49.118437 L 131.23725 48.817656 L 130.873969 48.528594 L 130.502875 48.247344 L 130.116156 47.973906 L 129.729437 47.712187 L 129.331 47.458281 L 128.920844 47.216094 L 128.506781 46.981719 L 128.084906 46.759062 L 127.655219 46.544219 L 127.221625 46.341094 L 126.776313 46.149687 L 126.327094 45.97 L 125.873969 45.798125 L 125.409125 45.637969 L 124.944281 45.489531 L 124.479438 45.352812 L 124.002875 45.227812 L 123.526313 45.110625 L 123.041938 45.005156 L 122.557563 44.915312 L 122.069281 44.829375 L 121.577094 44.759062 L 121.088813 44.700469 L 120.592719 44.649687 L 120.096625 44.614531 L 119.600531 44.587187 L 119.100531 44.571562 L 118.604438 44.567656 L 118.108344 44.571562 L 117.608344 44.591094 L 117.116156 44.618437 L 116.620063 44.6575 L 116.123969 44.704375 L 115.631781 44.762969 L 115.139594 44.833281 L 114.651313 44.911406 L 114.170844 45.00125 L 113.682563 45.102812 L 113.206 45.208281 L 112.733344 45.325469 L 112.260688 45.454375 L 111.795844 45.587187 L 111.334906 45.731719 L 110.873969 45.884062 L 110.42475 46.044219 L 109.975531 46.212187 " transform="matrix(1, 0, 0, -1, 4.294, 123.845)"/>
<path fill-rule="nonzero" fill="rgb(100%, 0%, 0%)" fill-opacity="1" stroke-width="0.3985" stroke-linecap="butt" stroke-linejoin="miter" stroke="rgb(100%, 0%, 0%)" stroke-opacity="1" stroke-miterlimit="10" d="M 1.813204 0.0012425 C 1.590548 0.05593 0.610079 0.372336 0.00070375 0.716086 L 0.00070375 -0.717508 C 0.610079 -0.373758 1.590548 -0.0573513 1.813204 0.0012425 Z M 1.813204 0.0012425 " transform="matrix(0, 1, 1, 0, 140.94407, 61.43289)"/>
<path fill="none" stroke-width="0.3985" stroke-linecap="butt" stroke-linejoin="miter" stroke="rgb(100%, 0%, 0%)" stroke-opacity="1" stroke-miterlimit="10" d="M 84.295844 73.341094 L 83.850531 73.509062 L 83.397406 73.669219 L 82.940375 73.821562 L 82.475531 73.966094 L 82.010688 74.098906 L 81.541938 74.227812 L 81.065375 74.345 L 80.588813 74.450469 L 80.104438 74.552031 L 79.620063 74.641875 L 79.135688 74.72 L 78.6435 74.790312 L 78.151313 74.848906 L 77.655219 74.895781 L 77.159125 74.934844 L 76.663031 74.962187 L 76.166938 74.981719 L 75.670844 74.985625 L 75.170844 74.981719 L 74.670844 74.966094 L 74.178656 74.93875 L 73.682563 74.903594 L 73.186469 74.852812 L 72.694281 74.794219 L 72.202094 74.723906 L 71.717719 74.641875 L 71.233344 74.548125 L 70.748969 74.442656 L 70.272406 74.325469 L 69.79975 74.200469 L 69.327094 74.06375 L 68.866156 73.911406 L 68.401313 73.755156 L 67.948188 73.583281 L 67.498969 73.403594 L 67.053656 73.212187 L 66.620063 73.009062 L 66.190375 72.794219 L 65.7685 72.571562 L 65.354438 72.337187 L 64.944281 72.095 L 64.545844 71.841094 L 64.155219 71.579375 L 63.772406 71.305937 L 63.401313 71.024687 L 63.034125 70.735625 L 62.682563 70.434844 L 62.342719 70.12625 L 62.002875 69.809844 L 61.682563 69.485625 L 61.370063 69.153594 L 61.065375 68.81375 L 60.780219 68.462187 L 60.502875 68.110625 L 60.233344 67.747344 L 59.983344 67.380156 L 59.73725 67.005156 L 59.506781 66.622344 L 59.288031 66.235625 L 59.081 65.848906 L 58.8935 65.450469 L 58.709906 65.048125 L 58.545844 64.641875 L 58.3935 64.231719 L 58.252875 63.821562 L 58.131781 63.403594 L 58.0185 62.985625 L 57.916938 62.56375 L 57.838813 62.137969 L 57.764594 61.712187 L 57.706 61.2825 L 57.666938 60.852812 L 57.635688 60.423125 L 57.623969 59.993437 L 57.623969 59.559844 L 57.635688 59.130156 L 57.666938 58.700469 L 57.706 58.270781 L 57.764594 57.841094 L 57.838813 57.415312 L 57.916938 56.989531 L 58.0185 56.567656 L 58.131781 56.149687 L 58.252875 55.731719 L 58.3935 55.321562 L 58.545844 54.911406 L 58.709906 54.505156 L 58.8935 54.102812 L 59.081 53.708281 L 59.288031 53.31375 L 59.506781 52.930937 L 59.73725 52.548125 L 59.983344 52.173125 L 60.233344 51.805937 L 60.502875 51.442656 L 60.780219 51.091094 L 61.065375 50.739531 L 61.370063 50.403594 L 61.682563 50.067656 L 62.002875 49.743437 L 62.342719 49.427031 L 62.682563 49.118437 L 63.034125 48.817656 L 63.401313 48.528594 L 63.772406 48.247344 L 64.155219 47.973906 L 64.545844 47.712187 L 64.944281 47.458281 L 65.354438 47.216094 L 65.7685 46.981719 L 66.190375 46.759062 L 66.620063 46.544219 L 67.053656 46.341094 L 67.498969 46.149687 L 67.948188 45.97 L 68.401313 45.798125 L 68.86225 45.637969 L 69.327094 45.489531 L 69.795844 45.352812 L 70.272406 45.227812 L 70.748969 45.110625 L 71.233344 45.005156 L 71.717719 44.915312 L 72.202094 44.829375 L 72.694281 44.759062 L 73.186469 44.700469 L 73.682563 44.649687 L 74.178656 44.614531 L 74.670844 44.587187 L 75.170844 44.571562 L 75.670844 44.567656 L 76.166938 44.571562 L 76.663031 44.591094 L 77.159125 44.618437 L 77.655219 44.6575 L 78.151313 44.704375 L 78.639594 44.762969 L 79.135688 44.833281 L 79.620063 44.911406 L 80.104438 45.00125 L 80.588813 45.102812 L 81.065375 45.208281 L 81.541938 45.325469 L 82.010688 45.454375 L 82.479438 45.587187 L 82.940375 45.731719 L 83.397406 45.884062 L 83.850531 46.044219 L 84.295844 46.212187 " transform="matrix(1, 0, 0, -1, 4.294, 123.845)"/>
<path fill-rule="nonzero" fill="rgb(100%, 0%, 0%)" fill-opacity="1" stroke-width="0.3985" stroke-linecap="butt" stroke-linejoin="miter" stroke="rgb(100%, 0%, 0%)" stroke-opacity="1" stroke-miterlimit="10" d="M 1.813204 0.00006875 C 1.590548 0.0547562 0.610079 0.371162 0.00070375 0.714912 L 0.00070375 -0.714775 C 0.610079 -0.371025 1.590548 -0.0546188 1.813204 0.00006875 Z M 1.813204 0.00006875 " transform="matrix(0, 1, 1, 0, 61.9179, 61.43289)"/>
<path fill="none" stroke-width="0.3985" stroke-linecap="butt" stroke-linejoin="miter" stroke="rgb(100%, 0%, 0%)" stroke-opacity="1" stroke-miterlimit="10" d="M 109.979438 46.212187 L 109.979438 73.341094 " transform="matrix(1, 0, 0, -1, 4.294, 123.845)"/>
<path fill-rule="nonzero" fill="rgb(100%, 0%, 0%)" fill-opacity="1" stroke-width="0.3985" stroke-linecap="butt" stroke-linejoin="miter" stroke="rgb(100%, 0%, 0%)" stroke-opacity="1" stroke-miterlimit="10" d="M 1.813325 0.0001725 C 1.590669 0.05486 0.6102 0.371266 0.000825 0.715016 L 0.000825 -0.714671 C 0.6102 -0.370921 1.590669 -0.054515 1.813325 0.0001725 Z M 1.813325 0.0001725 " transform="matrix(0, -1, -1, 0, 114.27361, 66.70395)"/>
<path fill="none" stroke-width="0.3985" stroke-linecap="butt" stroke-linejoin="miter" stroke="rgb(100%, 0%, 0%)" stroke-opacity="1" stroke-miterlimit="10" d="M 84.295844 46.212187 L 84.295844 73.341094 " transform="matrix(1, 0, 0, -1, 4.294, 123.845)"/>
<path fill-rule="nonzero" fill="rgb(100%, 0%, 0%)" fill-opacity="1" stroke-width="0.3985" stroke-linecap="butt" stroke-linejoin="miter" stroke="rgb(100%, 0%, 0%)" stroke-opacity="1" stroke-miterlimit="10" d="M 1.813325 -0.00148375 C 1.590669 0.05711 0.6102 0.373516 0.000825 0.717266 L 0.000825 -0.716327 C 0.6102 -0.372577 1.590669 -0.0561712 1.813325 -0.00148375 Z M 1.813325 -0.00148375 " transform="matrix(0, -1, -1, 0, 88.58836, 66.70395)"/>
<path fill="none" stroke-width="0.3985" stroke-linecap="butt" stroke-linejoin="miter" stroke="rgb(100%, 0%, 0%)" stroke-opacity="1" stroke-miterlimit="10" d="M 112.311469 70.665312 L 112.584906 70.665312 L 112.858344 70.661406 L 113.131781 70.653594 L 113.405219 70.641875 L 113.67475 70.62625 L 113.948188 70.606719 L 114.217719 70.579375 L 114.48725 70.548125 L 114.760688 70.512969 L 115.026313 70.473906 L 115.295844 70.427031 L 115.561469 70.37625 L 115.827094 70.321562 L 116.088813 70.262969 L 116.350531 70.200469 L 116.61225 70.134062 L 116.870063 70.059844 L 117.127875 69.981719 L 117.381781 69.899687 L 117.635688 69.81375 L 118.135688 69.62625 L 118.377875 69.524687 L 118.623969 69.419219 L 118.86225 69.309844 L 119.100531 69.196562 L 119.334906 69.079375 L 119.795844 68.829375 L 120.241156 68.56375 L 120.459906 68.423125 L 120.67475 68.2825 L 120.885688 68.134062 L 121.096625 67.981719 L 121.295844 67.825469 L 121.498969 67.669219 L 121.690375 67.505156 L 121.885688 67.337187 L 122.069281 67.169219 L 122.256781 66.997344 L 122.608344 66.637969 L 122.776313 66.454375 L 122.944281 66.266875 L 123.100531 66.079375 L 123.260688 65.884062 L 123.409125 65.68875 L 123.698188 65.290312 L 123.831 65.087187 L 123.963813 64.880156 L 124.206 64.458281 L 124.323188 64.243437 L 124.432563 64.028594 L 124.635688 63.591094 L 124.815375 63.145781 L 124.971625 62.692656 L 125.038031 62.466094 L 125.104438 62.235625 L 125.163031 62.005156 L 125.217719 61.774687 L 125.264594 61.540312 L 125.307563 61.305937 L 125.342719 61.071562 L 125.373969 60.837187 L 125.413031 60.368437 L 125.42475 60.130156 L 125.428656 59.895781 L 125.428656 59.6575 L 125.42475 59.423125 L 125.413031 59.184844 L 125.373969 58.716094 L 125.342719 58.481719 L 125.307563 58.247344 L 125.264594 58.012969 L 125.217719 57.778594 L 125.163031 57.548125 L 125.104438 57.317656 L 125.038031 57.087187 L 124.971625 56.860625 L 124.815375 56.4075 L 124.725531 56.184844 L 124.631781 55.962187 L 124.534125 55.743437 L 124.432563 55.524687 L 124.323188 55.309844 L 124.206 55.095 L 123.963813 54.673125 L 123.831 54.47 L 123.694281 54.262969 L 123.557563 54.06375 L 123.409125 53.864531 L 123.260688 53.669219 L 123.104438 53.473906 L 122.944281 53.286406 L 122.776313 53.098906 L 122.608344 52.915312 L 122.256781 52.555937 L 122.069281 52.384062 L 121.885688 52.212187 L 121.694281 52.048125 L 121.498969 51.884062 L 121.295844 51.727812 L 121.096625 51.571562 L 120.885688 51.419219 L 120.67475 51.270781 L 120.459906 51.130156 L 120.241156 50.989531 L 119.795844 50.723906 L 119.334906 50.473906 L 119.100531 50.356719 L 118.86225 50.243437 L 118.623969 50.134062 L 118.377875 50.028594 L 118.135688 49.927031 L 117.635688 49.739531 L 117.381781 49.653594 L 117.127875 49.571562 L 116.870063 49.493437 L 116.61225 49.419219 L 116.350531 49.352812 L 116.088813 49.290312 L 115.827094 49.231719 L 115.561469 49.177031 L 115.295844 49.12625 L 115.026313 49.079375 L 114.756781 49.040312 L 114.491156 49.005156 L 114.217719 48.973906 L 113.948188 48.946562 L 113.67475 48.927031 L 113.405219 48.911406 L 113.131781 48.895781 L 112.584906 48.887969 L 112.311469 48.887969 " transform="matrix(1, 0, 0, -1, 4.294, 123.845)"/>
<path fill-rule="nonzero" fill="rgb(100%, 0%, 0%)" fill-opacity="1" stroke-width="0.3985" stroke-linecap="butt" stroke-linejoin="miter" stroke="rgb(100%, 0%, 0%)" stroke-opacity="1" stroke-miterlimit="10" d="M 1.812574 -0.00120375 C 1.589918 0.05739 0.613355 0.373796 0.00007375 0.717546 L 0.00007375 -0.716048 C 0.613355 -0.372298 1.589918 -0.0558913 1.812574 -0.00120375 Z M 1.812574 -0.00120375 " transform="matrix(0, 1, 1, 0, 129.72386, 61.43352)"/>
<path fill="none" stroke-width="0.3985" stroke-linecap="butt" stroke-linejoin="miter" stroke="rgb(100%, 0%, 0%)" stroke-opacity="1" stroke-miterlimit="10" d="M 81.959906 70.665312 L 81.690375 70.665312 L 81.416938 70.661406 L 81.1435 70.653594 L 80.870063 70.641875 L 80.596625 70.62625 L 80.327094 70.606719 L 80.053656 70.579375 L 79.784125 70.548125 L 79.514594 70.512969 L 79.245063 70.473906 L 78.979438 70.427031 L 78.713813 70.37625 L 78.448188 70.321562 L 78.182563 70.262969 L 77.92475 70.200469 L 77.659125 70.134062 L 77.405219 70.059844 L 77.1435 69.981719 L 76.8935 69.899687 L 76.639594 69.81375 L 76.139594 69.62625 L 75.8935 69.524687 L 75.651313 69.419219 L 75.413031 69.309844 L 75.17475 69.196562 L 74.940375 69.079375 L 74.479438 68.829375 L 74.034125 68.56375 L 73.596625 68.2825 L 73.389594 68.134062 L 73.178656 67.981719 L 72.975531 67.825469 L 72.776313 67.669219 L 72.581 67.505156 L 72.385688 67.337187 L 72.202094 67.169219 L 72.0185 66.997344 L 71.842719 66.817656 L 71.663031 66.637969 L 71.495063 66.454375 L 71.331 66.266875 L 71.170844 66.079375 L 71.014594 65.884062 L 70.866156 65.68875 L 70.717719 65.489531 L 70.577094 65.290312 L 70.444281 65.087187 L 70.311469 64.880156 L 70.186469 64.669219 L 70.065375 64.458281 L 69.952094 64.243437 L 69.842719 64.028594 L 69.639594 63.591094 L 69.459906 63.145781 L 69.381781 62.919219 L 69.29975 62.692656 L 69.233344 62.466094 L 69.166938 62.235625 L 69.057563 61.774687 L 69.010688 61.540312 L 68.967719 61.305937 L 68.932563 61.071562 L 68.901313 60.837187 L 68.86225 60.368437 L 68.850531 60.130156 L 68.842719 59.895781 L 68.842719 59.6575 L 68.850531 59.423125 L 68.86225 59.184844 L 68.901313 58.716094 L 68.932563 58.481719 L 68.967719 58.247344 L 69.010688 58.012969 L 69.057563 57.778594 L 69.166938 57.317656 L 69.233344 57.087187 L 69.29975 56.860625 L 69.381781 56.634062 L 69.459906 56.4075 L 69.639594 55.962187 L 69.842719 55.524687 L 69.952094 55.309844 L 70.065375 55.095 L 70.186469 54.884062 L 70.311469 54.673125 L 70.444281 54.47 L 70.577094 54.262969 L 70.717719 54.06375 L 70.866156 53.864531 L 71.014594 53.669219 L 71.170844 53.473906 L 71.331 53.286406 L 71.495063 53.098906 L 71.663031 52.915312 L 71.842719 52.735625 L 72.0185 52.555937 L 72.385688 52.212187 L 72.776313 51.884062 L 72.975531 51.727812 L 73.178656 51.571562 L 73.389594 51.419219 L 73.596625 51.270781 L 73.815375 51.130156 L 74.030219 50.989531 L 74.256781 50.856719 L 74.479438 50.723906 L 74.940375 50.473906 L 75.17475 50.356719 L 75.413031 50.243437 L 75.651313 50.134062 L 75.8935 50.028594 L 76.139594 49.927031 L 76.639594 49.739531 L 76.8935 49.653594 L 77.1435 49.571562 L 77.401313 49.493437 L 77.659125 49.419219 L 77.92475 49.352812 L 78.182563 49.290312 L 78.448188 49.231719 L 78.713813 49.177031 L 78.979438 49.12625 L 79.245063 49.079375 L 79.514594 49.040312 L 79.784125 49.005156 L 80.053656 48.973906 L 80.327094 48.946562 L 80.596625 48.927031 L 81.1435 48.895781 L 81.690375 48.887969 L 81.963813 48.887969 " transform="matrix(1, 0, 0, -1, 4.294, 123.845)"/>
<path fill-rule="nonzero" fill="rgb(100%, 0%, 0%)" fill-opacity="1" stroke-width="0.3985" stroke-linecap="butt" stroke-linejoin="miter" stroke="rgb(100%, 0%, 0%)" stroke-opacity="1" stroke-miterlimit="10" d="M 1.812574 -0.00140125 C 1.589918 0.0571925 0.613355 0.373599 0.00007375 0.717349 L 0.00007375 -0.716245 C 0.613355 -0.372495 1.589918 -0.0560888 1.812574 -0.00140125 Z M 1.812574 -0.00140125 " transform="matrix(0, 1, 1, 0, 73.13812, 61.43352)"/>
<path fill="none" stroke-width="0.3985" stroke-linecap="butt" stroke-linejoin="miter" stroke="rgb(100%, 0%, 0%)" stroke-opacity="1" stroke-miterlimit="10" d="M 112.315375 48.887969 L 112.315375 70.665312 " transform="matrix(1, 0, 0, -1, 4.294, 123.845)"/>
<path fill-rule="nonzero" fill="rgb(100%, 0%, 0%)" fill-opacity="1" stroke-width="0.3985" stroke-linecap="butt" stroke-linejoin="miter" stroke="rgb(100%, 0%, 0%)" stroke-opacity="1" stroke-miterlimit="10" d="M 1.813415 -0.000735 C 1.590759 0.0539525 0.61029 0.370359 0.000915 0.718015 L 0.000915 -0.715579 C 0.61029 -0.371829 1.590759 -0.0554225 1.813415 -0.000735 Z M 1.813415 -0.000735 " transform="matrix(0, -1, -1, 0, 116.60864, 66.70404)"/>
<path fill="none" stroke-width="0.3985" stroke-linecap="butt" stroke-linejoin="miter" stroke="rgb(100%, 0%, 0%)" stroke-opacity="1" stroke-miterlimit="10" d="M 81.959906 48.887969 L 81.959906 70.665312 " transform="matrix(1, 0, 0, -1, 4.294, 123.845)"/>
<path fill-rule="nonzero" fill="rgb(100%, 0%, 0%)" fill-opacity="1" stroke-width="0.3985" stroke-linecap="butt" stroke-linejoin="miter" stroke="rgb(100%, 0%, 0%)" stroke-opacity="1" stroke-miterlimit="10" d="M 1.813415 -0.00056625 C 1.590759 0.0541212 0.61029 0.370527 0.000915 0.714277 L 0.000915 -0.71541 C 0.61029 -0.37166 1.590759 -0.0552538 1.813415 -0.00056625 Z M 1.813415 -0.00056625 " transform="matrix(0, -1, -1, 0, 86.25334, 66.70404)"/>
<path fill="none" stroke-width="0.3985" stroke-linecap="butt" stroke-linejoin="miter" stroke="rgb(100%, 0%, 0%)" stroke-opacity="1" stroke-miterlimit="10" d="M 114.647406 66.274687 L 114.741156 66.216094 L 114.920844 66.091094 L 115.010688 66.024687 L 115.104438 65.962187 L 115.276313 65.829375 L 115.36225 65.759062 L 115.448188 65.692656 L 115.530219 65.622344 L 115.616156 65.552031 L 115.698188 65.481719 L 115.776313 65.4075 L 115.858344 65.333281 L 115.936469 65.262969 L 116.014594 65.184844 L 116.092719 65.110625 L 116.166938 65.0325 L 116.241156 64.958281 L 116.315375 64.880156 L 116.385688 64.798125 L 116.459906 64.72 L 116.530219 64.637969 L 116.600531 64.559844 L 116.666938 64.473906 L 116.79975 64.309844 L 116.86225 64.223906 L 116.92475 64.141875 L 117.04975 63.97 L 117.108344 63.880156 L 117.225531 63.708281 L 117.334906 63.528594 L 117.385688 63.43875 L 117.440375 63.348906 L 117.48725 63.255156 L 117.538031 63.165312 L 117.631781 62.977812 L 117.67475 62.887969 L 117.721625 62.794219 L 117.764594 62.700469 L 117.803656 62.602812 L 117.842719 62.509062 L 117.881781 62.411406 L 117.920844 62.317656 L 117.991156 62.122344 L 118.022406 62.028594 L 118.053656 61.930937 L 118.081 61.833281 L 118.11225 61.731719 L 118.166938 61.536406 L 118.190375 61.43875 L 118.213813 61.337187 L 118.23725 61.239531 L 118.256781 61.137969 L 118.272406 61.040312 L 118.291938 60.93875 L 118.307563 60.837187 L 118.319281 60.735625 L 118.334906 60.637969 L 118.346625 60.536406 L 118.354438 60.434844 L 118.366156 60.333281 L 118.381781 60.130156 L 118.381781 60.028594 L 118.389594 59.825469 L 118.389594 59.727812 L 118.381781 59.524687 L 118.381781 59.423125 L 118.366156 59.22 L 118.354438 59.118437 L 118.346625 59.016875 L 118.334906 58.915312 L 118.319281 58.817656 L 118.307563 58.716094 L 118.291938 58.614531 L 118.272406 58.512969 L 118.256781 58.415312 L 118.23725 58.31375 L 118.213813 58.216094 L 118.190375 58.114531 L 118.166938 58.016875 L 118.11225 57.821562 L 118.081 57.723906 L 118.053656 57.622344 L 118.022406 57.524687 L 117.98725 57.430937 L 117.956 57.333281 L 117.920844 57.235625 L 117.881781 57.141875 L 117.842719 57.044219 L 117.803656 56.950469 L 117.764594 56.852812 L 117.721625 56.759062 L 117.67475 56.665312 L 117.631781 56.575469 L 117.538031 56.387969 L 117.48725 56.298125 L 117.440375 56.204375 L 117.276313 55.934844 L 117.225531 55.845 L 117.108344 55.673125 L 117.04975 55.583281 L 116.92475 55.411406 L 116.86225 55.329375 L 116.79975 55.243437 L 116.600531 54.997344 L 116.459906 54.833281 L 116.389594 54.755156 L 116.315375 54.673125 L 116.241156 54.595 L 116.014594 54.368437 L 115.858344 54.22 L 115.776313 54.145781 L 115.698188 54.071562 L 115.616156 54.00125 L 115.530219 53.930937 L 115.448188 53.860625 L 115.36225 53.794219 L 115.276313 53.723906 L 115.104438 53.591094 L 115.010688 53.528594 L 114.920844 53.462187 L 114.741156 53.337187 L 114.647406 53.278594 " transform="matrix(1, 0, 0, -1, 4.294, 123.845)"/>
<path fill-rule="nonzero" fill="rgb(100%, 0%, 0%)" fill-opacity="1" stroke-width="0.3985" stroke-linecap="butt" stroke-linejoin="miter" stroke="rgb(100%, 0%, 0%)" stroke-opacity="1" stroke-miterlimit="10" d="M 1.813254 0.00150375 C 1.590598 0.0561913 0.610129 0.372598 0.00075375 0.716348 L 0.00075375 -0.717246 C 0.610129 -0.373496 1.590598 -0.05709 1.813254 0.00150375 Z M 1.813254 0.00150375 " transform="matrix(0, 1, 1, 0, 122.68209, 61.43284)"/>
<path fill="none" stroke-width="0.3985" stroke-linecap="butt" stroke-linejoin="miter" stroke="rgb(100%, 0%, 0%)" stroke-opacity="1" stroke-miterlimit="10" d="M 79.627875 66.274687 L 79.534125 66.216094 L 79.440375 66.153594 L 79.350531 66.091094 L 79.260688 66.024687 L 79.170844 65.962187 L 78.998969 65.829375 L 78.913031 65.759062 L 78.827094 65.692656 L 78.745063 65.622344 L 78.659125 65.552031 L 78.577094 65.481719 L 78.495063 65.4075 L 78.416938 65.333281 L 78.334906 65.262969 L 78.182563 65.110625 L 78.108344 65.0325 L 78.030219 64.958281 L 77.959906 64.880156 L 77.885688 64.798125 L 77.815375 64.72 L 77.741156 64.637969 L 77.67475 64.559844 L 77.608344 64.473906 L 77.475531 64.309844 L 77.413031 64.223906 L 77.350531 64.141875 L 77.284125 64.055937 L 77.225531 63.97 L 77.166938 63.880156 L 77.04975 63.708281 L 76.885688 63.43875 L 76.834906 63.348906 L 76.788031 63.255156 L 76.73725 63.165312 L 76.6435 62.977812 L 76.596625 62.887969 L 76.510688 62.700469 L 76.471625 62.602812 L 76.428656 62.509062 L 76.3935 62.411406 L 76.350531 62.317656 L 76.319281 62.22 L 76.284125 62.122344 L 76.252875 62.028594 L 76.217719 61.930937 L 76.190375 61.833281 L 76.163031 61.731719 L 76.131781 61.634062 L 76.084906 61.43875 L 76.061469 61.337187 L 76.038031 61.239531 L 76.0185 61.137969 L 75.998969 61.040312 L 75.952094 60.735625 L 75.940375 60.637969 L 75.92475 60.536406 L 75.8935 60.130156 L 75.889594 60.028594 L 75.889594 59.927031 L 75.885688 59.825469 L 75.885688 59.727812 L 75.889594 59.62625 L 75.889594 59.524687 L 75.8935 59.423125 L 75.92475 59.016875 L 75.940375 58.915312 L 75.952094 58.817656 L 75.998969 58.512969 L 76.0185 58.415312 L 76.038031 58.31375 L 76.061469 58.216094 L 76.084906 58.114531 L 76.131781 57.919219 L 76.163031 57.821562 L 76.190375 57.723906 L 76.217719 57.622344 L 76.252875 57.524687 L 76.284125 57.430937 L 76.319281 57.333281 L 76.350531 57.235625 L 76.3935 57.141875 L 76.428656 57.044219 L 76.471625 56.950469 L 76.510688 56.852812 L 76.596625 56.665312 L 76.639594 56.575469 L 76.686469 56.481719 L 76.73725 56.387969 L 76.784125 56.298125 L 76.834906 56.204375 L 76.889594 56.114531 L 76.940375 56.024687 L 77.04975 55.845 L 77.166938 55.673125 L 77.225531 55.583281 L 77.284125 55.497344 L 77.346625 55.411406 L 77.413031 55.329375 L 77.475531 55.243437 L 77.741156 54.915312 L 77.815375 54.833281 L 77.885688 54.755156 L 77.956 54.673125 L 78.030219 54.595 L 78.108344 54.520781 L 78.182563 54.442656 L 78.256781 54.368437 L 78.334906 54.294219 L 78.416938 54.22 L 78.495063 54.145781 L 78.577094 54.071562 L 78.741156 53.930937 L 78.827094 53.860625 L 78.913031 53.794219 L 78.998969 53.723906 L 79.170844 53.591094 L 79.260688 53.528594 L 79.350531 53.462187 L 79.440375 53.399687 L 79.534125 53.337187 L 79.627875 53.278594 " transform="matrix(1, 0, 0, -1, 4.294, 123.845)"/>
<path fill-rule="nonzero" fill="rgb(100%, 0%, 0%)" fill-opacity="1" stroke-width="0.3985" stroke-linecap="butt" stroke-linejoin="miter" stroke="rgb(100%, 0%, 0%)" stroke-opacity="1" stroke-miterlimit="10" d="M 1.813254 -0.0001925 C 1.590598 0.054495 0.610129 0.370901 0.00075375 0.714651 L 0.00075375 -0.715036 C 0.610129 -0.371286 1.590598 -0.05488 1.813254 -0.0001925 Z M 1.813254 -0.0001925 " transform="matrix(0, 1, 1, 0, 80.17988, 61.43284)"/>
<path fill="none" stroke-width="0.3985" stroke-linecap="butt" stroke-linejoin="miter" stroke="rgb(100%, 0%, 0%)" stroke-opacity="1" stroke-miterlimit="10" d="M 114.651313 53.274687 L 114.651313 66.278594 " transform="matrix(1, 0, 0, -1, 4.294, 123.845)"/>
<path fill-rule="nonzero" fill="rgb(100%, 0%, 0%)" fill-opacity="1" stroke-width="0.3985" stroke-linecap="butt" stroke-linejoin="miter" stroke="rgb(100%, 0%, 0%)" stroke-opacity="1" stroke-miterlimit="10" d="M 1.813235 -0.0016525 C 1.590579 0.0569413 0.61011 0.373348 0.000735 0.717098 L 0.000735 -0.716496 C 0.61011 -0.372746 1.590579 -0.05634 1.813235 -0.0016525 Z M 1.813235 -0.0016525 " transform="matrix(0, -1, -1, 0, 118.94366, 66.70386)"/>
<path fill="none" stroke-width="0.3985" stroke-linecap="butt" stroke-linejoin="miter" stroke="rgb(100%, 0%, 0%)" stroke-opacity="1" stroke-miterlimit="10" d="M 79.623969 53.274687 L 79.623969 66.278594 " transform="matrix(1, 0, 0, -1, 4.294, 123.845)"/>
<path fill-rule="nonzero" fill="rgb(100%, 0%, 0%)" fill-opacity="1" stroke-width="0.3985" stroke-linecap="butt" stroke-linejoin="miter" stroke="rgb(100%, 0%, 0%)" stroke-opacity="1" stroke-miterlimit="10" d="M 1.813235 0.00034125 C 1.590579 0.0550287 0.61011 0.371435 0.000735 0.715185 L 0.000735 -0.714503 C 0.61011 -0.370753 1.590579 -0.0543463 1.813235 0.00034125 Z M 1.813235 0.00034125 " transform="matrix(0, -1, -1, 0, 83.91831, 66.70386)"/>
<path fill="none" stroke-width="0.79701" stroke-linecap="butt" stroke-linejoin="miter" stroke="rgb(100%, 100%, 100%)" stroke-opacity="1" stroke-miterlimit="10" d="M 115.815375 59.774687 L 115.79975 60.56375 L 115.748969 61.348906 L 115.666938 62.134062 L 115.54975 62.911406 L 115.401313 63.684844 L 115.221625 64.450469 L 115.010688 65.212187 L 114.764594 65.958281 L 114.48725 66.696562 L 114.178656 67.423125 L 113.842719 68.134062 L 113.475531 68.829375 L 113.077094 69.512969 L 112.655219 70.173125 L 112.202094 70.817656 L 111.721625 71.446562 L 111.217719 72.048125 L 110.690375 72.634062 L 110.135688 73.192656 L 109.557563 73.727812 L 108.959906 74.239531 L 108.338813 74.723906 L 107.698188 75.184844 L 107.038031 75.614531 L 106.36225 76.016875 L 105.670844 76.391875 L 104.959906 76.739531 L 104.241156 77.052031 L 103.506781 77.337187 L 102.760688 77.591094 L 102.002875 77.809844 L 101.23725 78.00125 L 100.467719 78.1575 L 99.690375 78.2825 L 98.905219 78.372344 L 98.120063 78.430937 L 97.334906 78.454375 L 96.545844 78.446562 L 95.760688 78.403594 L 94.975531 78.329375 L 94.194281 78.223906 L 93.420844 78.083281 L 92.651313 77.911406 L 91.8935 77.704375 L 91.139594 77.466094 L 90.401313 77.200469 L 89.670844 76.899687 L 88.956 76.567656 L 88.256781 76.208281 L 87.569281 75.821562 L 86.901313 75.403594 L 86.252875 74.958281 L 85.623969 74.485625 L 85.014594 73.985625 L 84.42475 73.462187 L 83.858344 72.915312 L 83.319281 72.345 L 82.79975 71.75125 L 82.307563 71.134062 L 81.842719 70.50125 L 81.405219 69.845 L 80.991156 69.173125 L 80.61225 68.485625 L 80.260688 67.778594 L 79.936469 67.059844 L 79.6435 66.329375 L 79.381781 65.587187 L 79.155219 64.833281 L 78.956 64.071562 L 78.791938 63.298125 L 78.659125 62.524687 L 78.561469 61.743437 L 78.495063 60.958281 L 78.459906 60.169219 L 78.459906 59.384062 L 78.495063 58.595 L 78.561469 57.809844 L 78.659125 57.028594 L 78.791938 56.255156 L 78.956 55.485625 L 79.155219 54.72 L 79.381781 53.966094 L 79.6435 53.223906 L 79.936469 52.493437 L 80.260688 51.774687 L 80.61225 51.067656 L 80.991156 50.380156 L 81.405219 49.708281 L 81.842719 49.052031 L 82.307563 48.419219 L 82.79975 47.802031 L 83.319281 47.208281 L 83.858344 46.637969 L 84.42475 46.091094 L 85.014594 45.567656 L 85.623969 45.067656 L 86.252875 44.595 L 86.901313 44.149687 L 87.569281 43.731719 L 88.256781 43.345 L 88.956 42.981719 L 89.670844 42.653594 L 90.401313 42.352812 L 91.139594 42.087187 L 91.8935 41.848906 L 92.651313 41.641875 L 93.420844 41.47 L 94.194281 41.329375 L 94.975531 41.223906 L 95.760688 41.149687 L 96.545844 41.106719 L 97.334906 41.098906 L 98.120063 41.122344 L 98.905219 41.180937 L 99.686469 41.270781 L 100.467719 41.395781 L 101.23725 41.552031 L 102.002875 41.743437 L 102.756781 41.962187 L 103.506781 42.216094 L 104.23725 42.50125 L 104.959906 42.81375 L 105.670844 43.161406 L 106.36225 43.536406 L 107.038031 43.93875 L 107.698188 44.368437 L 108.338813 44.829375 L 108.959906 45.31375 L 109.557563 45.825469 L 110.135688 46.360625 L 110.690375 46.919219 L 111.217719 47.50125 L 111.721625 48.106719 L 112.202094 48.731719 L 112.655219 49.37625 L 113.077094 50.040312 L 113.475531 50.723906 L 113.842719 51.419219 L 114.178656 52.130156 L 114.48725 52.856719 L 114.764594 53.595 L 115.006781 54.341094 L 115.221625 55.102812 L 115.401313 55.868437 L 115.54975 56.641875 L 115.666938 57.419219 L 115.748969 58.204375 L 115.79975 58.989531 L 115.815375 59.774687 " transform="matrix(1, 0, 0, -1, 4.294, 123.845)"/>
</svg>
