<?xml version="1.0" encoding="UTF-8"?>
<svg xmlns="http://www.w3.org/2000/svg" xmlns:xlink="http://www.w3.org/1999/xlink" width="179.455pt" height="122.762pt" viewBox="0 0 179.455 122.762" version="1.1">
<defs>
<clipPath id="clip1">
  <path d="M 0 0 L 179.453125 0 L 179.453125 122.761719 L 0 122.761719 Z M 0 0 "/>
</clipPath>
<clipPath id="clip2">
  <path d="M 40 0 L 68 0 L 68 122.761719 L 40 122.761719 Z M 40 0 "/>
</clipPath>
<clipPath id="clip3">
  <path d="M 0 55 L 179.453125 55 L 179.453125 79 L 0 79 Z M 0 55 "/>
</clipPath>
<clipPath id="clip4">
  <path d="M 0 55 L 179.453125 55 L 179.453125 76 L 0 76 Z M 0 55 "/>
</clipPath>
<clipPath id="clip5">
  <path d="M 0 55 L 179.453125 55 L 179.453125 73 L 0 73 Z M 0 55 "/>
</clipPath>
<clipPath id="clip6">
  <path d="M 0 55 L 179.453125 55 L 179.453125 70 L 0 70 Z M 0 55 "/>
</clipPath>
<clipPath id="clip7">
  <path d="M 0 52 L 179.453125 52 L 179.453125 68 L 0 68 Z M 0 52 "/>
</clipPath>
<clipPath id="clip8">
  <path d="M 0 50 L 179.453125 50 L 179.453125 68 L 0 68 Z M 0 50 "/>
</clipPath>
<clipPath id="clip9">
  <path d="M 0 47 L 179.453125 47 L 179.453125 68 L 0 68 Z M 0 47 "/>
</clipPath>
<clipPath id="clip10">
  <path d="M 0 44 L 179.453125 44 L 179.453125 68 L 0 68 Z M 0 44 "/>
</clipPath>
</defs>
<g id="surface1">
<g clip-path="url(#clip1)" clip-rule="nonzero">
<path style="fill-rule:nonzero;fill:rgb(0%,0%,0%);fill-opacity:1;stroke-width:0.3985;stroke-linecap:butt;stroke-linejoin:miter;stroke:rgb(100%,100%,100%);stroke-opacity:1;stroke-miterlimit:10;" d="M 52.204219 -61.1815 L 52.204219 61.181781 L 231.262812 61.181781 L 231.262812 -61.1815 Z M 52.204219 -61.1815 " transform="matrix(1,0,0,-1,-52.005,61.381)"/>
<path style="fill-rule:nonzero;fill:rgb(0%,0%,0%);fill-opacity:1;stroke-width:0.3985;stroke-linecap:butt;stroke-linejoin:miter;stroke:rgb(100%,100%,100%);stroke-opacity:1;stroke-miterlimit:10;" d="M 52.204219 -61.1815 L 52.204219 61.181781 L 231.262812 61.181781 L 231.262812 -61.1815 Z M 52.204219 -61.1815 " transform="matrix(1,0,0,-1,-52.005,61.381)"/>
</g>
<path style=" stroke:none;fill-rule:nonzero;fill:rgb(80.000305%,93.566895%,98.745728%);fill-opacity:1;" d="M 46.191406 118.074219 C 66.441406 82.996094 66.441406 39.765625 46.191406 4.6875 Z M 46.191406 118.074219 "/>
<g clip-path="url(#clip2)" clip-rule="nonzero">
<path style="fill:none;stroke-width:0.3985;stroke-linecap:butt;stroke-linejoin:miter;stroke:rgb(100%,100%,100%);stroke-opacity:1;stroke-miterlimit:10;" d="M 98.196406 -56.693219 C 118.446406 -21.615094 118.446406 21.615375 98.196406 56.6935 Z M 98.196406 -56.693219 " transform="matrix(1,0,0,-1,-52.005,61.381)"/>
</g>
<path style="fill:none;stroke-width:0.3985;stroke-linecap:butt;stroke-linejoin:miter;stroke:rgb(100%,0%,0%);stroke-opacity:1;stroke-miterlimit:10;" d="M 56.6925 -53.857281 L 99.778437 -53.857281 L 182.106562 24.095844 " transform="matrix(1,0,0,-1,-52.005,61.381)"/>
<path style="fill:none;stroke-width:0.3985;stroke-linecap:butt;stroke-linejoin:miter;stroke:rgb(100%,0%,0%);stroke-opacity:1;stroke-miterlimit:10;" d="M 56.6925 -51.02525 L 101.258906 -51.02525 L 191.3175 17.861469 " transform="matrix(1,0,0,-1,-52.005,61.381)"/>
<path style="fill:none;stroke-width:0.3985;stroke-linecap:butt;stroke-linejoin:miter;stroke:rgb(100%,0%,0%);stroke-opacity:1;stroke-miterlimit:10;" d="M 56.6925 -48.189312 L 102.637812 -48.189312 L 197.665156 13.66225 " transform="matrix(1,0,0,-1,-52.005,61.381)"/>
<path style="fill:none;stroke-width:0.3985;stroke-linecap:butt;stroke-linejoin:miter;stroke:rgb(100%,0%,0%);stroke-opacity:1;stroke-miterlimit:10;" d="M 56.6925 -45.357281 L 103.919062 -45.357281 L 202.555781 10.556781 " transform="matrix(1,0,0,-1,-52.005,61.381)"/>
<path style="fill:none;stroke-width:0.3985;stroke-linecap:butt;stroke-linejoin:miter;stroke:rgb(100%,0%,0%);stroke-opacity:1;stroke-miterlimit:10;" d="M 56.6925 -42.521344 L 105.110469 -42.521344 L 206.524531 8.181781 " transform="matrix(1,0,0,-1,-52.005,61.381)"/>
<path style="fill:none;stroke-width:0.3985;stroke-linecap:butt;stroke-linejoin:miter;stroke:rgb(100%,0%,0%);stroke-opacity:1;stroke-miterlimit:10;" d="M 56.6925 -39.685406 L 106.215937 -39.685406 L 209.84875 6.314594 " transform="matrix(1,0,0,-1,-52.005,61.381)"/>
<path style="fill:none;stroke-width:0.3985;stroke-linecap:butt;stroke-linejoin:miter;stroke:rgb(100%,0%,0%);stroke-opacity:1;stroke-miterlimit:10;" d="M 56.6925 -36.853375 L 107.231562 -36.853375 L 212.669062 4.841938 " transform="matrix(1,0,0,-1,-52.005,61.381)"/>
<path style="fill:none;stroke-width:0.3985;stroke-linecap:butt;stroke-linejoin:miter;stroke:rgb(100%,0%,0%);stroke-opacity:1;stroke-miterlimit:10;" d="M 56.6925 -34.017437 L 108.165156 -34.017437 L 215.102656 3.66225 " transform="matrix(1,0,0,-1,-52.005,61.381)"/>
<path style="fill:none;stroke-width:0.3985;stroke-linecap:butt;stroke-linejoin:miter;stroke:rgb(100%,0%,0%);stroke-opacity:1;stroke-miterlimit:10;" d="M 56.6925 -31.1815 L 109.012812 -31.1815 L 217.204219 2.728656 " transform="matrix(1,0,0,-1,-52.005,61.381)"/>
<path style="fill:none;stroke-width:0.3985;stroke-linecap:butt;stroke-linejoin:miter;stroke:rgb(100%,0%,0%);stroke-opacity:1;stroke-miterlimit:10;" d="M 56.6925 -28.349469 L 109.78625 -28.349469 L 219.032344 1.986469 " transform="matrix(1,0,0,-1,-52.005,61.381)"/>
<path style="fill:none;stroke-width:0.3985;stroke-linecap:butt;stroke-linejoin:miter;stroke:rgb(100%,0%,0%);stroke-opacity:1;stroke-miterlimit:10;" d="M 56.6925 -25.513531 L 110.477656 -25.513531 L 220.614375 1.416156 " transform="matrix(1,0,0,-1,-52.005,61.381)"/>
<path style="fill:none;stroke-width:0.3985;stroke-linecap:butt;stroke-linejoin:miter;stroke:rgb(100%,0%,0%);stroke-opacity:1;stroke-miterlimit:10;" d="M 56.6925 -22.6815 L 111.094844 -22.6815 L 221.985469 0.966938 " transform="matrix(1,0,0,-1,-52.005,61.381)"/>
<path style="fill:none;stroke-width:0.3985;stroke-linecap:butt;stroke-linejoin:miter;stroke:rgb(100%,0%,0%);stroke-opacity:1;stroke-miterlimit:10;" d="M 56.6925 -19.845562 L 111.637812 -19.845562 L 223.153437 0.634906 " transform="matrix(1,0,0,-1,-52.005,61.381)"/>
<path style="fill:none;stroke-width:0.3985;stroke-linecap:butt;stroke-linejoin:miter;stroke:rgb(100%,0%,0%);stroke-opacity:1;stroke-miterlimit:10;" d="M 56.6925 -17.009625 L 112.102656 -17.009625 L 224.141719 0.388813 " transform="matrix(1,0,0,-1,-52.005,61.381)"/>
<path style="fill:none;stroke-width:0.3985;stroke-linecap:butt;stroke-linejoin:miter;stroke:rgb(100%,0%,0%);stroke-opacity:1;stroke-miterlimit:10;" d="M 56.6925 -14.177594 L 112.497187 -14.177594 L 224.962031 0.216938 " transform="matrix(1,0,0,-1,-52.005,61.381)"/>
<g clip-path="url(#clip3)" clip-rule="nonzero">
<path style="fill:none;stroke-width:0.3985;stroke-linecap:butt;stroke-linejoin:miter;stroke:rgb(100%,0%,0%);stroke-opacity:1;stroke-miterlimit:10;" d="M 56.6925 -11.341656 L 112.8175 -11.341656 L 225.622187 0.103656 " transform="matrix(1,0,0,-1,-52.005,61.381)"/>
</g>
<g clip-path="url(#clip4)" clip-rule="nonzero">
<path style="fill:none;stroke-width:0.3985;stroke-linecap:butt;stroke-linejoin:miter;stroke:rgb(100%,0%,0%);stroke-opacity:1;stroke-miterlimit:10;" d="M 56.6925 -8.509625 L 113.0675 -8.509625 L 226.126094 0.0489688 " transform="matrix(1,0,0,-1,-52.005,61.381)"/>
</g>
<g clip-path="url(#clip5)" clip-rule="nonzero">
<path style="fill:none;stroke-width:0.3985;stroke-linecap:butt;stroke-linejoin:miter;stroke:rgb(100%,0%,0%);stroke-opacity:1;stroke-miterlimit:10;" d="M 56.6925 -5.673687 L 113.247187 -5.673687 L 226.485469 0.00990625 " transform="matrix(1,0,0,-1,-52.005,61.381)"/>
</g>
<g clip-path="url(#clip6)" clip-rule="nonzero">
<path style="fill:none;stroke-width:0.3985;stroke-linecap:butt;stroke-linejoin:miter;stroke:rgb(100%,0%,0%);stroke-opacity:1;stroke-miterlimit:10;" d="M 56.6925 -2.83775 L 113.352656 -2.83775 L 226.696406 -0.0018125 " transform="matrix(1,0,0,-1,-52.005,61.381)"/>
</g>
<path style="fill:none;stroke-width:0.3985;stroke-linecap:butt;stroke-linejoin:miter;stroke:rgb(100%,0%,0%);stroke-opacity:1;stroke-miterlimit:10;" d="M 56.6925 -0.00571875 L 226.774531 -0.00571875 " transform="matrix(1,0,0,-1,-52.005,61.381)"/>
<g clip-path="url(#clip7)" clip-rule="nonzero">
<path style="fill:none;stroke-width:0.3985;stroke-linecap:butt;stroke-linejoin:miter;stroke:rgb(100%,0%,0%);stroke-opacity:1;stroke-miterlimit:10;" d="M 56.6925 2.830219 L 113.352656 2.830219 L 226.696406 0.006 " transform="matrix(1,0,0,-1,-52.005,61.381)"/>
</g>
<g clip-path="url(#clip8)" clip-rule="nonzero">
<path style="fill:none;stroke-width:0.3985;stroke-linecap:butt;stroke-linejoin:miter;stroke:rgb(100%,0%,0%);stroke-opacity:1;stroke-miterlimit:10;" d="M 56.6925 5.66225 L 113.247187 5.66225 L 226.485469 -0.00571875 " transform="matrix(1,0,0,-1,-52.005,61.381)"/>
</g>
<g clip-path="url(#clip9)" clip-rule="nonzero">
<path style="fill:none;stroke-width:0.3985;stroke-linecap:butt;stroke-linejoin:miter;stroke:rgb(100%,0%,0%);stroke-opacity:1;stroke-miterlimit:10;" d="M 56.6925 8.498188 L 113.0675 8.498188 L 226.126094 -0.0447812 " transform="matrix(1,0,0,-1,-52.005,61.381)"/>
</g>
<g clip-path="url(#clip10)" clip-rule="nonzero">
<path style="fill:none;stroke-width:0.3985;stroke-linecap:butt;stroke-linejoin:miter;stroke:rgb(100%,0%,0%);stroke-opacity:1;stroke-miterlimit:10;" d="M 56.6925 11.334125 L 112.8175 11.334125 L 225.622187 -0.103375 " transform="matrix(1,0,0,-1,-52.005,61.381)"/>
</g>
<path style="fill:none;stroke-width:0.3985;stroke-linecap:butt;stroke-linejoin:miter;stroke:rgb(100%,0%,0%);stroke-opacity:1;stroke-miterlimit:10;" d="M 56.6925 14.166156 L 112.497187 14.166156 L 224.965937 -0.220562 " transform="matrix(1,0,0,-1,-52.005,61.381)"/>
<path style="fill:none;stroke-width:0.3985;stroke-linecap:butt;stroke-linejoin:miter;stroke:rgb(100%,0%,0%);stroke-opacity:1;stroke-miterlimit:10;" d="M 56.6925 17.002094 L 112.106562 17.002094 L 224.145625 -0.384625 " transform="matrix(1,0,0,-1,-52.005,61.381)"/>
<path style="fill:none;stroke-width:0.3985;stroke-linecap:butt;stroke-linejoin:miter;stroke:rgb(100%,0%,0%);stroke-opacity:1;stroke-miterlimit:10;" d="M 56.6925 19.838031 L 111.637812 19.838031 L 223.157344 -0.634625 " transform="matrix(1,0,0,-1,-52.005,61.381)"/>
<path style="fill:none;stroke-width:0.3985;stroke-linecap:butt;stroke-linejoin:miter;stroke:rgb(100%,0%,0%);stroke-opacity:1;stroke-miterlimit:10;" d="M 56.6925 22.670063 L 111.09875 22.670063 L 221.989375 -0.970562 " transform="matrix(1,0,0,-1,-52.005,61.381)"/>
<path style="fill:none;stroke-width:0.3985;stroke-linecap:butt;stroke-linejoin:miter;stroke:rgb(100%,0%,0%);stroke-opacity:1;stroke-miterlimit:10;" d="M 56.6925 25.506 L 110.481562 25.506 L 220.622187 -1.415875 " transform="matrix(1,0,0,-1,-52.005,61.381)"/>
<path style="fill:none;stroke-width:0.3985;stroke-linecap:butt;stroke-linejoin:miter;stroke:rgb(100%,0%,0%);stroke-opacity:1;stroke-miterlimit:10;" d="M 56.6925 28.338031 L 109.790156 28.338031 L 219.040156 -1.986187 " transform="matrix(1,0,0,-1,-52.005,61.381)"/>
<path style="fill:none;stroke-width:0.3985;stroke-linecap:butt;stroke-linejoin:miter;stroke:rgb(100%,0%,0%);stroke-opacity:1;stroke-miterlimit:10;" d="M 56.6925 31.173969 L 109.016719 31.173969 L 217.212031 -2.728375 " transform="matrix(1,0,0,-1,-52.005,61.381)"/>
<path style="fill:none;stroke-width:0.3985;stroke-linecap:butt;stroke-linejoin:miter;stroke:rgb(100%,0%,0%);stroke-opacity:1;stroke-miterlimit:10;" d="M 56.6925 34.009906 L 108.165156 34.009906 L 215.110469 -3.654156 " transform="matrix(1,0,0,-1,-52.005,61.381)"/>
<path style="fill:none;stroke-width:0.3985;stroke-linecap:butt;stroke-linejoin:miter;stroke:rgb(100%,0%,0%);stroke-opacity:1;stroke-miterlimit:10;" d="M 56.6925 36.841938 L 107.235469 36.841938 L 212.676875 -4.833844 " transform="matrix(1,0,0,-1,-52.005,61.381)"/>
<path style="fill:none;stroke-width:0.3985;stroke-linecap:butt;stroke-linejoin:miter;stroke:rgb(100%,0%,0%);stroke-opacity:1;stroke-miterlimit:10;" d="M 56.6925 39.677875 L 106.219844 39.677875 L 209.860469 -6.302594 " transform="matrix(1,0,0,-1,-52.005,61.381)"/>
<path style="fill:none;stroke-width:0.3985;stroke-linecap:butt;stroke-linejoin:miter;stroke:rgb(100%,0%,0%);stroke-opacity:1;stroke-miterlimit:10;" d="M 56.6925 42.509906 L 105.114375 42.509906 L 206.53625 -8.173687 " transform="matrix(1,0,0,-1,-52.005,61.381)"/>
<path style="fill:none;stroke-width:0.3985;stroke-linecap:butt;stroke-linejoin:miter;stroke:rgb(100%,0%,0%);stroke-opacity:1;stroke-miterlimit:10;" d="M 56.6925 45.345844 L 103.922969 45.345844 L 202.571406 -10.544781 " transform="matrix(1,0,0,-1,-52.005,61.381)"/>
<path style="fill:none;stroke-width:0.3985;stroke-linecap:butt;stroke-linejoin:miter;stroke:rgb(100%,0%,0%);stroke-opacity:1;stroke-miterlimit:10;" d="M 56.6925 48.181781 L 102.641719 48.181781 L 197.684687 -13.646344 " transform="matrix(1,0,0,-1,-52.005,61.381)"/>
<path style="fill:none;stroke-width:0.3985;stroke-linecap:butt;stroke-linejoin:miter;stroke:rgb(100%,0%,0%);stroke-opacity:1;stroke-miterlimit:10;" d="M 56.6925 51.013813 L 101.262812 51.013813 L 191.340937 -17.841656 " transform="matrix(1,0,0,-1,-52.005,61.381)"/>
<path style="fill:none;stroke-width:0.3985;stroke-linecap:butt;stroke-linejoin:miter;stroke:rgb(100%,0%,0%);stroke-opacity:1;stroke-miterlimit:10;" d="M 56.6925 53.84975 L 99.78625 53.84975 L 182.157344 -24.060406 " transform="matrix(1,0,0,-1,-52.005,61.381)"/>
</g>
</svg>
